<?xml version="1.0" standalone="no"?>
<!DOCTYPE svg PUBLIC "-//W3C//DTD SVG 1.1//EN" "http://www.w3.org/Graphics/SVG/1.1/DTD/svg11.dtd" >
<svg xmlns="http://www.w3.org/2000/svg" xmlns:xlink="http://www.w3.org/1999/xlink" version="1.1">
<metadata>
Created by FontForge 20170731 at Mon Mar  5 17:27:52 2018
 By Aleksey,,,
Copyright (c) 2018 Monotype Imaging Inc. All rights reserved.
</metadata>
<defs>
<font id="NeuePlak-NarrowRegular" horiz-adv-x="0" >
  <font-face 
    font-family="Neue Plak Narrow Regular"
    font-weight="400"
    font-stretch="semi-condensed"
    units-per-em="1000"
    panose-1="2 11 5 6 3 2 2 2 2 4"
    ascent="800"
    descent="-200"
    x-height="495"
    cap-height="706"
    bbox="-632 -207 810 1087"
    underline-thickness="50"
    underline-position="-200"
    unicode-range="U+000D-FEFF"
  />
<missing-glyph horiz-adv-x="525" 
d="M51 0v706h423v-706h-423zM127 69h271v568h-271v-568z" />
    <glyph glyph-name=".notdef" horiz-adv-x="525" 
d="M51 0v706h423v-706h-423zM127 69h271v568h-271v-568z" />
    <glyph glyph-name=".null" 
 />
    <glyph glyph-name="nonmarkingreturn" horiz-adv-x="333" 
 />
    <glyph glyph-name="NULL" 
 />
    <glyph glyph-name="NULL" 
 />
    <glyph glyph-name="CR" unicode="&#xd;" horiz-adv-x="154" 
 />
    <glyph glyph-name="space" unicode=" " horiz-adv-x="154" 
 />
    <glyph glyph-name="exclam" unicode="!" horiz-adv-x="238" 
d="M88 182l-8 524h78l-8 -524h-62zM119 -12q-23 0 -37 13.5t-14 35.5q0 23 14 36.5t37 13.5t37 -13.5t14 -36.5q0 -22 -14 -35.5t-37 -13.5z" />
    <glyph glyph-name="quotedbl" unicode="&#x22;" horiz-adv-x="349" 
d="M75 434l-7 272h72l-7 -272h-58zM216 434l-7 272h72l-7 -272h-58z" />
    <glyph glyph-name="numbersign" unicode="#" horiz-adv-x="567" 
d="M541 440h-105l-24 -175h105l-11 -66h-104l-30 -213h-67l30 213h-148l-30 -213h-67l30 213h-104l11 66h102l25 175h-104l11 66h102l30 214h66l-30 -214h149l30 214h68l-30 -214h105zM344 265l25 175h-149l-24 -175h148z" />
    <glyph glyph-name="dollar" unicode="$" horiz-adv-x="515" 
d="M460 280q17 -35 17 -94q0 -61 -17 -96q-45 -97 -181 -103v-80h-52v80q-125 10 -169 104q-20 47 -20 135h83q0 -78 14 -109q25 -54 95 -64v281l-5 2q-66 21 -104.5 44.5t-56.5 61.5q-15 34 -15 89t16 91q39 88 162 97v80h52v-80q116 -10 156 -100q19 -42 19 -128h-75
q0 71 -13 100q-25 53 -90 62v-256l20 -6q68 -23 107 -47.5t57 -63.5zM135 478q18 -39 95 -66v242q-73 -6 -97 -59q-9 -19 -9 -55q0 -41 11 -62zM388 114q11 21 11 64q0 41 -11 66q-19 44 -112 75v-268q86 6 112 63z" />
    <glyph glyph-name="percent" unicode="%" horiz-adv-x="563" 
d="M137 411q-75 0 -101 58q-14 31 -14 93q0 61 14 92q26 58 101 58t101 -58q14 -31 14 -92q0 -62 -14 -93q-26 -58 -101 -58zM43 0l414 706h63l-414 -706h-63zM137 462q40 0 53 30q9 19 9 70t-9 70q-14 29 -53 29t-53 -29q-8 -20 -8 -70q0 -51 8 -70q14 -30 53 -30zM426 -6
q-75 0 -101 58q-14 31 -14 93q0 61 14 92q26 59 101 59t101 -59q14 -31 14 -92q0 -62 -14 -93q-26 -58 -101 -58zM426 45q40 0 53 30q9 19 9 70t-9 70q-15 30 -53 30t-53 -30q-8 -20 -8 -70q0 -51 8 -70q14 -30 53 -30z" />
    <glyph glyph-name="ampersand" unicode="&#x26;" horiz-adv-x="543" 
d="M517 68v-68q-86 0 -139 52q-63 -63 -161 -63q-90 0 -138.5 46t-48.5 121q0 68 35.5 119.5t99.5 103.5q-66 118 -66 195q0 69 41.5 107.5t119.5 38.5q73 0 113.5 -33.5t40.5 -95.5q0 -35 -12 -65.5t-41 -61.5t-47 -47t-60 -50q10 -16 15 -25l110 -179q28 53 60 155l59 -18
q-38 -128 -78 -193q37 -37 97 -39zM171 576q0 -58 50 -152q60 47 91 84.5t31 83.5q0 34 -20 53.5t-61 19.5q-44 0 -67.5 -23t-23.5 -66zM227 54q66 0 110 47q-11 16 -13 20l-120 192q-4 6 -5 9q-90 -79 -90 -158q0 -51 32 -80.5t86 -29.5z" />
    <glyph glyph-name="quotesingle" unicode="'" horiz-adv-x="208" 
d="M75 434l-7 272h72l-7 -272h-58z" />
    <glyph glyph-name="parenleft" unicode="(" horiz-adv-x="309" 
d="M199 -191q-62 115 -92 227t-30 250q0 139 30 251t92 227h70q-123 -224 -123 -478q0 -253 123 -477h-70z" />
    <glyph glyph-name="parenright" unicode=")" horiz-adv-x="309" 
d="M110 -191h-70q123 224 123 477q0 254 -123 478h70q62 -115 92 -227t30 -251q0 -138 -30 -250t-92 -227z" />
    <glyph glyph-name="asterisk" unicode="*" horiz-adv-x="340" 
d="M110 439l-43 32l69 85l-107 28l18 52l102 -40l-6 110h54l-6 -110l102 40l17 -52l-106 -28l69 -85l-44 -32l-59 92z" />
    <glyph glyph-name="plus" unicode="+" horiz-adv-x="495" 
d="M451 318v-60h-172v-176h-62v176h-173v60h173v177h62v-177h172z" />
    <glyph glyph-name="comma" unicode="," horiz-adv-x="233" 
d="M42 -166l57 321h71l-70 -321h-58z" />
    <glyph glyph-name="hyphen" unicode="-" horiz-adv-x="329" 
d="M44 254v70h242v-70h-242z" />
    <glyph glyph-name="period" unicode="." horiz-adv-x="248" 
d="M124 -12q-23 0 -37 13.5t-14 35.5q0 23 14 36.5t37 13.5t37 -13.5t14 -36.5q0 -22 -14 -35.5t-37 -13.5z" />
    <glyph glyph-name="slash" unicode="/" horiz-adv-x="388" 
d="M33 -50l248 770h74l-248 -770h-74z" />
    <glyph glyph-name="zero" unicode="0" horiz-adv-x="547" 
d="M273 -14q-138 0 -192 121q-33 77 -33 246t33 246q54 121 192 121t192 -121q34 -77 34 -246q0 -170 -34 -246q-54 -121 -192 -121zM273 57q87 0 122 77q25 57 25 219q0 164 -25 219q-35 78 -122 78t-122 -78q-25 -58 -25 -219q0 -159 25 -219q35 -77 122 -77z" />
    <glyph glyph-name="one" unicode="1" horiz-adv-x="270" 
d="M128 0v636h-103l14 70h164v-706h-75z" />
    <glyph glyph-name="two" unicode="2" horiz-adv-x="465" 
d="M20 0v3l239 312q54 69 73 107.5t19 89.5q0 50 -12 77q-26 61 -109 61q-81 0 -109 -64q-16 -36 -16 -112h-73q0 96 23 146q44 99 177 99q134 0 181 -102q16 -38 16 -104q0 -59 -19 -103.5t-70 -108.5q-45 -60 -180 -233h274v-68h-414z" />
    <glyph glyph-name="three" unicode="3" horiz-adv-x="495" 
d="M436 295q16 -33 16 -99q0 -74 -17 -111q-46 -99 -192 -99q-147 0 -189 99q-24 54 -24 155h73q0 -81 16 -119q31 -66 122 -66q94 0 121 62q12 25 12 85q0 54 -12 77q-29 63 -146 63h-18v64h17q110 0 138 61q10 21 10 63q0 45 -10 68q-26 57 -109 57q-88 0 -117 -64
q-14 -36 -14 -101h-72q0 86 20 130q44 100 187 100q134 0 175 -92q15 -31 15 -93q0 -53 -13 -82q-24 -58 -96 -77q80 -20 107 -81z" />
    <glyph glyph-name="four" unicode="4" horiz-adv-x="500" 
d="M488 246v-66h-87v-180h-74v180h-330v3l268 523h136v-460h87zM109 246h218v427h-1z" />
    <glyph glyph-name="five" unicode="5" horiz-adv-x="486" 
d="M243 -14q-141 0 -187 102q-21 47 -21 134h74q0 -68 14 -102q29 -65 117 -65q90 0 120 67q13 29 13 92q0 69 -14 100q-36 78 -161 78q-73 0 -139 -20l47 334h316l-14 -69h-240l-27 -192q41 10 87 10q153 0 203 -110q20 -44 20 -129q0 -84 -19 -126q-49 -104 -189 -104z
" />
    <glyph glyph-name="six" unicode="6" horiz-adv-x="536" 
d="M478 346q18 -40 18 -122q0 -83 -19 -126q-52 -112 -196 -112q-143 0 -202 128q-32 72 -32 234q0 173 34 249q54 123 197 123q98 0 151 -54q50 -50 58 -152h-75q-8 72 -39 105q-36 34 -94 34q-91 0 -129 -83q-26 -62 -26 -204v-6q52 90 177 90q130 0 177 -104zM402 124
q14 31 14 97q0 64 -13 94q-33 71 -121 71q-94 0 -127 -74q-13 -30 -13 -92q0 -63 14 -92q33 -75 124 -75q90 0 122 71z" />
    <glyph glyph-name="seven" unicode="7" horiz-adv-x="429" 
d="M81 0l227 636h-280v70h386l-251 -706h-82z" />
    <glyph glyph-name="eight" unicode="8" horiz-adv-x="527" 
d="M467 295q16 -35 16 -103q0 -67 -16 -103q-44 -103 -203 -103q-158 0 -204 103q-16 36 -16 103q0 69 16 102q29 66 109 85q-71 19 -98 78q-13 32 -13 85t14 84q41 94 192 94q148 0 192 -94q14 -31 14 -84t-13 -85q-27 -59 -98 -78q79 -17 108 -84zM145 470q29 -62 119 -62
q89 0 118 62q10 21 10 66q0 41 -10 64q-27 59 -118 59q-92 0 -119 -59q-9 -21 -9 -64q0 -47 9 -66zM394 118q10 26 10 77q0 55 -11 80q-33 69 -129 69q-99 0 -130 -69q-11 -25 -11 -79t11 -79q30 -67 130 -67q99 0 130 68z" />
    <glyph glyph-name="nine" unicode="9" horiz-adv-x="537" 
d="M457 594q33 -72 33 -234q0 -172 -34 -250q-55 -122 -197 -122q-97 0 -152 53q-48 48 -58 153h76q8 -74 39 -105q33 -35 94 -35q90 0 129 84q26 60 26 204v8q-52 -92 -177 -92q-62 0 -108.5 27t-68.5 76q-19 44 -19 123q0 80 20 126q52 111 196 111t201 -127zM382 396
q13 29 13 92q0 59 -14 91q-32 76 -125 76q-88 0 -122 -71q-14 -34 -14 -98q0 -61 14 -94q32 -71 121 -71q94 0 127 75z" />
    <glyph glyph-name="colon" unicode=":" horiz-adv-x="248" 
d="M124 353q-23 0 -37 14t-14 36t14 36t37 14t37 -14t14 -36t-14 -36t-37 -14zM124 -12q-23 0 -37 13.5t-14 35.5q0 23 14 36.5t37 13.5t37 -13.5t14 -36.5q0 -22 -14 -35.5t-37 -13.5z" />
    <glyph glyph-name="semicolon" unicode=";" horiz-adv-x="261" 
d="M137 353q-23 0 -37 14t-14 36t14 36t37 14t37 -14t14 -36t-14 -36t-37 -14zM42 -166l57 321h71l-70 -321h-58z" />
    <glyph glyph-name="less" unicode="&#x3c;" horiz-adv-x="495" 
d="M453 470v-65l-350 -117l350 -116v-65l-407 138v85z" />
    <glyph glyph-name="equal" unicode="=" horiz-adv-x="495" 
d="M44 348v61h408v-61h-408zM44 168v60h408v-60h-408z" />
    <glyph glyph-name="greater" unicode="&#x3e;" horiz-adv-x="495" 
d="M44 470l407 -140v-85l-407 -138v65l350 116l-350 117v65z" />
    <glyph glyph-name="question" unicode="?" horiz-adv-x="426" 
d="M167 182q97 194 123.5 261t26.5 111q0 48 -23 75t-81 27q-75 0 -97 -52q-11 -27 -11 -91h-73q0 80 17 118q39 89 167 89q90 0 134.5 -44t44.5 -121q0 -46 -25.5 -110t-120.5 -263h-82zM207 -12q-23 0 -37 13.5t-14 35.5q0 23 14 36.5t37 13.5t37 -13.5t14 -36.5
q0 -22 -14 -35.5t-37 -13.5z" />
    <glyph glyph-name="at" unicode="@" horiz-adv-x="710" 
d="M635 522q31 -67 31 -201q0 -109 -23 -162q-45 -97 -168 -97h-36v48q-38 -55 -119 -55q-86 0 -111 59q-11 22 -11 67q0 47 10 70q30 67 162 67h67v11q0 71 -10 91q-15 34 -73 34q-56 0 -73 -35q-7 -18 -7 -55h-64q0 48 12 78q29 65 134 65q100 0 129 -62q15 -32 15 -121
v-219q75 5 105 72q20 44 20 142q0 125 -28 188q-62 133 -238 133q-179 0 -242 -140q-32 -70 -32 -210q0 -142 32 -212q66 -147 257 -147q37 0 75 5v-39q-38 -5 -75 -5q-218 0 -295 168q-35 77 -35 228q0 147 36 228q74 161 279 161q208 0 276 -155zM438 260v11h-63
q-85 0 -104 -36q-7 -15 -7 -46q0 -33 7 -47q17 -33 69 -33q64 0 85 45q13 27 13 106z" />
    <glyph glyph-name="A" unicode="A" horiz-adv-x="518" 
d="M438 0l-48 173h-262l-47 -173h-79l199 706h116l198 -706h-77zM146 238h227l-113 410h-2z" />
    <glyph glyph-name="B" unicode="B" horiz-adv-x="490" 
d="M435 293q15 -30 15 -97q0 -70 -15 -103q-41 -93 -192 -93h-186v706h187q135 0 174 -87q14 -32 14 -88q0 -57 -14 -86q-25 -55 -91 -72q83 -21 108 -80zM133 644v-244h90q92 0 119 56q11 27 11 69q0 40 -11 64q-24 55 -122 55h-87zM359 122q10 21 10 77q0 54 -11 77
q-27 61 -135 61h-90v-275h86q113 0 140 60z" />
    <glyph glyph-name="C" unicode="C" horiz-adv-x="585" 
d="M304 -14q-166 0 -227 139q-33 69 -33 228q0 156 33 229q62 138 226 138q104 0 169 -60q67 -61 70 -187h-79q-3 96 -48 137q-44 39 -115 39q-109 0 -151 -94q-26 -57 -26 -202q0 -146 26 -203q42 -93 152 -93q72 0 116 39q47 41 48 143h79q-1 -131 -69 -194
q-64 -59 -171 -59z" />
    <glyph glyph-name="D" unicode="D" horiz-adv-x="558" 
d="M57 0v706h187q180 0 240 -135q31 -68 31 -218t-31 -218q-60 -135 -240 -135h-187zM133 69h102q133 0 176 96q24 52 24 188t-24 188q-43 96 -176 96h-102v-568z" />
    <glyph glyph-name="E" unicode="E" horiz-adv-x="426" 
d="M57 0v706h336v-69h-260v-237h257v-69h-257v-262h260v-69h-336z" />
    <glyph glyph-name="F" unicode="F" horiz-adv-x="373" 
d="M57 0v706h287v-69h-211v-237h209v-69h-209v-331h-76z" />
    <glyph glyph-name="G" unicode="G" horiz-adv-x="589" 
d="M318 363h228v-49q0 -132 -31 -203q-56 -125 -212 -125q-164 0 -228 141q-31 68 -31 226t31 226q64 141 230 141q105 0 166 -56q65 -60 69 -185h-75q-6 96 -48 134q-41 36 -113 36q-114 0 -156 -94q-25 -58 -25 -202q0 -146 26 -202q42 -94 156 -94q109 0 146 83
q20 46 20 150v4h-153v69z" />
    <glyph glyph-name="H" unicode="H" horiz-adv-x="537" 
d="M57 0v706h76v-306h271v306h76v-706h-76v331h-271v-331h-76z" />
    <glyph glyph-name="I" unicode="I" horiz-adv-x="189" 
d="M57 0v706h76v-706h-76z" />
    <glyph glyph-name="J" unicode="J" horiz-adv-x="261" 
d="M56 -3q-24 0 -49 3v72q16 -3 35 -3q49 0 69.5 23.5t20.5 78.5v535h76v-549q0 -83 -36 -121.5t-116 -38.5z" />
    <glyph glyph-name="K" unicode="K" horiz-adv-x="472" 
d="M469 0h-90l-246 353v-353h-76v706h76v-296l215 296h86l-232 -322z" />
    <glyph glyph-name="L" unicode="L" horiz-adv-x="325" 
d="M57 0v706h76v-637h185v-69h-261z" />
    <glyph glyph-name="M" unicode="M" horiz-adv-x="691" 
d="M57 0v706h99l190 -572l192 572h96v-706h-72v581l-194 -581h-45l-194 581v-581h-72z" />
    <glyph glyph-name="N" unicode="N" horiz-adv-x="563" 
d="M57 0v706h81l294 -575v575h74v-706h-81l-295 577v-577h-73z" />
    <glyph glyph-name="O" unicode="O" horiz-adv-x="606" 
d="M303 -14q-164 0 -226 137q-33 74 -33 230t33 230q62 137 226 137t226 -137q33 -74 33 -230t-33 -230q-62 -137 -226 -137zM303 58q111 0 154 95q26 57 26 200t-26 200q-43 95 -154 95q-112 0 -154 -95q-26 -57 -26 -200t26 -200q42 -95 154 -95z" />
    <glyph glyph-name="P" unicode="P" horiz-adv-x="464" 
d="M57 0v706h192q140 0 180 -87q16 -38 16 -102q0 -63 -16 -101q-40 -88 -180 -88h-116v-328h-76zM133 395h100q98 0 123 55q11 22 11 68q0 45 -11 67q-24 55 -123 55h-100v-245z" />
    <glyph glyph-name="Q" unicode="Q" horiz-adv-x="606" 
d="M529 123q-36 -80 -111 -114l69 -123l-62 -34l-74 137q-23 -3 -48 -3q-164 0 -226 137q-33 74 -33 230t33 230q62 137 226 137t226 -137q33 -74 33 -230t-33 -230zM382 74q49 22 75 79t26 200t-26 200q-43 95 -154 95q-112 0 -154 -95q-26 -57 -26 -200t26 -200
q42 -95 154 -95h11l-40 74l57 32z" />
    <glyph glyph-name="R" unicode="R" horiz-adv-x="493" 
d="M406 0l-188 331h-85v-331h-76v706h201q143 0 183 -87q16 -36 16 -98q0 -66 -16 -99q-34 -79 -142 -89l192 -333h-85zM133 639v-242h108q101 0 127 54q10 23 10 68q0 47 -9 66q-26 54 -128 54h-108z" />
    <glyph glyph-name="S" unicode="S" horiz-adv-x="507" 
d="M252 -14q-148 0 -197 104q-20 45 -20 137h82q0 -77 14 -108q30 -66 124 -66q98 0 125 63q11 22 11 64t-11 64q-8 18 -21 31t-39 24.5t-42.5 17.5t-55.5 18q-64 20 -103.5 44.5t-57.5 63.5q-15 35 -15 90q0 54 17 89q20 46 67.5 72t115.5 26q137 0 181 -101
q20 -46 20 -129h-78q0 70 -14 102q-29 63 -111 63q-85 0 -111 -59q-9 -21 -9 -58q0 -39 9 -60q13 -29 45.5 -45t94.5 -36q11 -3 17 -5q68 -21 108.5 -45.5t58.5 -65.5q15 -33 15 -95q0 -63 -16 -96q-22 -49 -74.5 -76.5t-129.5 -27.5z" />
    <glyph glyph-name="T" unicode="T" horiz-adv-x="382" 
d="M153 0v637h-146v69h368v-69h-146v-637h-76z" />
    <glyph glyph-name="U" unicode="U" horiz-adv-x="521" 
d="M260 -14q-108 0 -158.5 49.5t-50.5 152.5v518h77v-513q0 -70 31.5 -103.5t100.5 -33.5q70 0 101.5 33.5t31.5 103.5v513h76v-518q0 -104 -50 -153t-159 -49z" />
    <glyph glyph-name="V" unicode="V" horiz-adv-x="507" 
d="M427 706h77l-211 -706h-78l-213 706h79l173 -603z" />
    <glyph glyph-name="W" unicode="W" horiz-adv-x="754" 
d="M678 706h74l-163 -706h-86l-126 590l-126 -590h-84l-165 706h75l133 -595l125 595h85l126 -592z" />
    <glyph glyph-name="X" unicode="X" horiz-adv-x="541" 
d="M3 0l220 375l-195 331h87l156 -275l157 275h86l-194 -332l218 -374h-86l-181 315l-181 -315h-87z" />
    <glyph glyph-name="Y" unicode="Y" horiz-adv-x="467" 
d="M196 0v302l-194 404h83l149 -324l148 324h83l-193 -404v-302h-76z" />
    <glyph glyph-name="Z" unicode="Z" horiz-adv-x="466" 
d="M13 0l307 637h-293v69h408l-306 -637h316v-69h-432z" />
    <glyph glyph-name="bracketleft" unicode="[" horiz-adv-x="290" 
d="M96 -191v955h174v-59h-108v-836h108v-60h-174z" />
    <glyph glyph-name="backslash" unicode="\" horiz-adv-x="388" 
d="M355 -50h-74l-248 770h74z" />
    <glyph glyph-name="bracketright" unicode="]" horiz-adv-x="290" 
d="M193 -191h-173v60h108v836h-108v59h173v-955z" />
    <glyph glyph-name="asciicircum" unicode="^" horiz-adv-x="376" 
d="M354 387h-74l-91 263l-92 -263h-74l116 319h99z" />
    <glyph glyph-name="underscore" unicode="_" horiz-adv-x="329" 
d="M0 -157v68h329v-68h-329z" />
    <glyph glyph-name="grave" unicode="`" horiz-adv-x="258" 
d="M208 559h-68l-90 147h75z" />
    <glyph glyph-name="a" unicode="a" horiz-adv-x="443" 
d="M377 425q18 -40 18 -123v-302h-72v59q-43 -68 -143 -68q-105 0 -136 70q-12 25 -12 75t11 75q20 44 67 61.5t124 17.5h89v21q0 59 -12 86q-20 45 -90 45q-73 0 -93 -45q-8 -19 -8 -54h-73q0 53 13 83q37 79 161 79q120 0 156 -80zM200 53q80 0 108 61q15 33 15 109v10
h-83q-105 0 -127 -46q-6 -15 -6 -44q0 -32 7 -47q19 -43 86 -43z" />
    <glyph glyph-name="b" unicode="b" horiz-adv-x="467" 
d="M412 409q24 -55 24 -161t-24 -161q-42 -96 -152 -96q-92 0 -138 72v-63h-71v706h72v-271q47 71 137 71q109 0 152 -97zM343 119q17 40 17 129t-17 128q-29 65 -102 65q-56 0 -87 -40t-31 -112v-83q0 -72 31 -111.5t87 -39.5q72 0 102 64z" />
    <glyph glyph-name="c" unicode="c" horiz-adv-x="437" 
d="M226 -9q-126 0 -172 104q-23 50 -23 153t23 152q47 106 172 106q79 0 128 -44q50 -47 51 -141h-77q-1 66 -33 95q-27 25 -69 25q-72 0 -101 -65q-17 -37 -17 -128q0 -90 17 -128q29 -64 101 -64q44 0 70 24q31 28 31 96h78q-3 -98 -51 -142q-48 -43 -128 -43z" />
    <glyph glyph-name="d" unicode="d" horiz-adv-x="468" 
d="M345 706h72v-706h-71v64q-46 -73 -139 -73q-108 0 -152 96q-24 55 -24 161t24 161q44 97 152 97q91 0 138 -72v272zM345 206v83q0 73 -31.5 112.5t-87.5 39.5q-74 0 -101 -65q-17 -39 -17 -128t17 -129q28 -64 101 -64q56 0 87.5 39.5t31.5 111.5z" />
    <glyph glyph-name="e" unicode="e" horiz-adv-x="454" 
d="M314 80q30 27 34 92h72q-4 -90 -52 -135q-52 -46 -135 -46q-133 0 -179 105q-23 49 -23 152q0 102 23 152q47 106 174 106q125 0 172 -102q22 -53 22 -170h-317q1 -82 16 -115q30 -66 110 -66q53 0 83 27zM229 443q-78 0 -108 -67q-14 -32 -15 -85h242q-2 59 -15 90
q-29 62 -104 62z" />
    <glyph glyph-name="f" unicode="f" horiz-adv-x="278" 
d="M80 0v433h-68v62h68v81q0 71 33.5 104.5t106.5 33.5q27 0 46 -4v-63q-15 4 -37 4q-76 0 -76 -82v-74h110v-62h-110v-433h-73z" />
    <glyph glyph-name="g" unicode="g" horiz-adv-x="467" 
d="M345 495h72v-487q0 -74 -20 -119q-41 -90 -170 -90q-91 0 -140 44q-42 38 -47 113h74q1 -46 28 -70q31 -26 86 -26q79 0 105 56q11 28 11 79v68q-47 -71 -137 -71q-110 0 -152 96q-24 56 -24 160q0 106 24 161q43 97 152 97q93 0 138 -74v63zM226 56q56 0 87 39.5
t31 111.5v82q0 72 -31 112t-87 40q-73 0 -102 -65q-16 -36 -16 -128q0 -90 16 -128q30 -64 102 -64z" />
    <glyph glyph-name="h" unicode="h" horiz-adv-x="451" 
d="M253 505q150 0 150 -173v-332h-72v317q0 65 -23.5 94.5t-74.5 29.5q-53 0 -81.5 -32t-28.5 -93v-316h-72v706h72v-266q40 65 130 65z" />
    <glyph glyph-name="i" unicode="i" horiz-adv-x="174" 
d="M88 576q-22 0 -35.5 12.5t-13.5 32.5t13.5 33t35.5 13q20 0 33.5 -13t13.5 -33t-13.5 -32.5t-33.5 -12.5zM51 0v495h72v-495h-72z" />
    <glyph glyph-name="j" unicode="j" horiz-adv-x="179" 
d="M92 576q-22 0 -35.5 12.5t-13.5 32.5t13.5 33t35.5 13q20 0 33.5 -13t13.5 -33t-13.5 -32.5t-33.5 -12.5zM10 -193q-25 0 -39 2v66q11 -2 27 -2q32 0 45 14.5t13 50.5v557h72v-564q0 -66 -28 -95t-90 -29z" />
    <glyph glyph-name="k" unicode="k" horiz-adv-x="395" 
d="M395 0h-91l-181 250v-250h-72v706h72v-407l161 196h89l-183 -219z" />
    <glyph glyph-name="l" unicode="l" horiz-adv-x="174" 
d="M51 0v706h72v-706h-72z" />
    <glyph glyph-name="m" unicode="m" horiz-adv-x="711" 
d="M518 505q145 0 145 -174v-331h-72v316q0 66 -22.5 95.5t-70.5 29.5q-51 0 -78 -32.5t-27 -94.5v-314h-72v316q0 66 -22.5 95.5t-71.5 29.5q-50 0 -77 -32.5t-27 -94.5v-314h-72v495h72v-51q40 61 126 61q101 0 131 -83q39 83 138 83z" />
    <glyph glyph-name="n" unicode="n" horiz-adv-x="451" 
d="M253 505q150 0 150 -173v-332h-72v317q0 65 -23.5 94.5t-74.5 29.5q-53 0 -81.5 -32t-28.5 -93v-316h-72v495h72v-55q41 65 130 65z" />
    <glyph glyph-name="o" unicode="o" horiz-adv-x="453" 
d="M226 -9q-125 0 -171 105q-24 51 -24 152t24 152q47 106 171 106t173 -106q23 -52 23 -152t-23 -152q-48 -105 -173 -105zM226 55q73 0 103 64q16 36 16 129t-16 129q-30 64 -103 64q-72 0 -102 -64q-17 -38 -17 -129t17 -129q30 -64 102 -64z" />
    <glyph glyph-name="p" unicode="p" horiz-adv-x="467" 
d="M412 409q24 -55 24 -161t-24 -161q-42 -96 -152 -96q-90 0 -137 71v-253h-72v686h71v-63q44 74 138 74q109 0 152 -97zM343 119q17 40 17 129t-17 128q-29 65 -102 65q-56 0 -87 -40t-31 -112v-83q0 -72 31 -111.5t87 -39.5q72 0 102 64z" />
    <glyph glyph-name="q" unicode="q" horiz-adv-x="468" 
d="M346 495h71v-686h-72v255q-45 -73 -138 -73q-108 0 -152 96q-24 55 -24 161t24 161q44 97 152 97q94 0 139 -75v64zM226 55q56 0 87.5 39.5t31.5 111.5v83q0 73 -31.5 112.5t-87.5 39.5q-74 0 -101 -65q-17 -39 -17 -128t17 -129q28 -64 101 -64z" />
    <glyph glyph-name="r" unicode="r" horiz-adv-x="280" 
d="M231 500q19 0 37 -5v-66q-20 4 -36 4q-54 0 -81.5 -35t-27.5 -98v-300h-72v495h72v-55q33 60 108 60z" />
    <glyph glyph-name="s" unicode="s" horiz-adv-x="389" 
d="M194 -11q-115 0 -151 79q-15 33 -15 97h70q0 -48 10 -69q21 -47 87 -47t84 41q7 14 7 38q0 27 -6 42q-7 15 -24.5 27t-30 16t-46.5 15q-104 31 -127 85q-10 21 -10 60t11 61q30 71 138 71t140 -71q13 -27 13 -85h-69q0 39 -9 59q-18 40 -75 40q-58 0 -73 -35
q-6 -15 -6 -35q0 -22 6 -34q7 -15 25 -27t32 -17t47 -15q51 -17 82.5 -35.5t45.5 -50.5q11 -25 11 -66q0 -43 -12 -67q-35 -77 -155 -77z" />
    <glyph glyph-name="t" unicode="t" horiz-adv-x="290" 
d="M207 -6q-66 0 -95.5 31.5t-29.5 106.5v301h-71v62h71v116h72v-116h120v-62h-120v-290q0 -46 17 -65.5t54 -19.5q25 0 49 6v-62q-34 -8 -67 -8z" />
    <glyph glyph-name="u" unicode="u" horiz-adv-x="451" 
d="M328 495h72v-495h-72v56q-41 -66 -131 -66q-150 0 -150 174v331h72v-316q0 -65 23.5 -94.5t74.5 -29.5q53 0 82 31.5t29 92.5v316z" />
    <glyph glyph-name="v" unicode="v" horiz-adv-x="412" 
d="M164 0l-156 495h77l121 -410l121 410h77l-156 -495h-84z" />
    <glyph glyph-name="w" unicode="w" horiz-adv-x="639" 
d="M555 495h77l-143 -495h-75l-94 388l-94 -388h-76l-142 495h76l101 -397l98 397h73l97 -396z" />
    <glyph glyph-name="x" unicode="x" horiz-adv-x="420" 
d="M4 0l160 255l-155 240h86l114 -188l115 188h85l-154 -240l160 -255h-86l-120 201l-120 -201h-85z" />
    <glyph glyph-name="y" unicode="y" horiz-adv-x="422" 
d="M337 495h77l-174 -495l-70 -191h-74l71 194l-159 492h79l117 -405z" />
    <glyph glyph-name="z" unicode="z" horiz-adv-x="365" 
d="M357 495l-240 -432h238v-63h-353l243 433h-221v62h333z" />
    <glyph glyph-name="braceleft" unicode="{" horiz-adv-x="307" 
d="M186 398q0 -56 -15 -81t-56 -31q41 -6 56 -30.5t15 -80.5v-228q0 -41 18.5 -61t63.5 -20h19v-57h-40q-61 0 -92 33t-31 91v231q1 52 -16 70.5t-70 18.5v67q54 0 70.5 18.5t15.5 70.5v230q0 58 31 91.5t92 33.5h40v-57h-19q-46 0 -64 -19.5t-18 -61.5v-228z" />
    <glyph glyph-name="bar" unicode="|" horiz-adv-x="278" 
d="M102 -191v947h73v-947h-73z" />
    <glyph glyph-name="braceright" unicode="}" horiz-adv-x="307" 
d="M183 409q-1 -52 15.5 -70.5t70.5 -18.5v-67q-53 0 -70 -18.5t-16 -70.5v-231q0 -58 -31 -91t-92 -33h-40v57h19q45 0 63.5 20t18.5 61v228q0 56 15 80.5t56 30.5q-41 6 -56 31t-15 81v228q0 42 -18 61.5t-64 19.5h-19v57h40q61 0 92 -33.5t31 -91.5v-230z" />
    <glyph glyph-name="asciitilde" unicode="~" horiz-adv-x="495" 
d="M335 198q-22 0 -42.5 10.5t-32 21.5t-27.5 31q-15 18 -22.5 26.5t-20.5 16t-26 7.5q-27 0 -39 -28t-16 -82h-56q5 87 30 131.5t79 44.5q23 0 43.5 -11t31.5 -22t27 -31q15 -18 22 -26t20 -16t26 -8q28 0 40 28t16 83h56q-5 -87 -30.5 -131.5t-78.5 -44.5z" />
    <glyph glyph-name="uni00A0" unicode="&#xa0;" horiz-adv-x="154" 
 />
    <glyph glyph-name="exclamdown" unicode="&#xa1;" horiz-adv-x="238" 
d="M119 409q-23 0 -37 13.5t-14 35.5t14 36t37 14t37 -14t14 -36t-14 -35.5t-37 -13.5zM80 -191l8 521h62l8 -521h-78z" />
    <glyph glyph-name="cent" unicode="&#xa2;" horiz-adv-x="437" 
d="M296 185q32 29 32 97h77q-3 -98 -51 -141q-42 -37 -106 -43v-98h-52v99q-103 12 -142 102q-23 52 -23 153q0 103 23 152q39 92 142 104v96h52v-95q66 -6 106 -43q50 -47 51 -141h-76q-3 67 -33 96q-20 19 -50 23v-384q30 6 50 23zM124 226q23 -52 74 -62v381
q-51 -10 -74 -62q-17 -38 -17 -129t17 -128z" />
    <glyph glyph-name="sterling" unicode="&#xa3;" horiz-adv-x="527" 
d="M415 244h71q-1 -102 -22 -150q-42 -94 -186 -94h-243v63h65v264h-65v55h65v78q0 113 24 169q41 91 172 91q123 0 164 -90q23 -51 24 -155h-71q-1 91 -18 126q-28 54 -99 54q-76 0 -102 -55q-18 -37 -18 -138v-80h171v-55h-171v-264h90q102 0 133 61q16 38 16 120z" />
    <glyph glyph-name="currency" unicode="&#xa4;" horiz-adv-x="464" 
d="M399 244q-13 -29 -31 -47l72 -102h-72l-47 68q-38 -19 -89 -19q-50 0 -88 18l-47 -67h-72l71 101q-18 18 -31 46q-17 38 -17 111q0 74 18 111q12 27 31 46l-72 102h72l47 -67q39 18 88 18q51 0 88 -19l48 68h72l-72 -102q19 -21 31 -47q18 -42 18 -110q0 -70 -18 -109z
M125 268q29 -65 107 -65t108 66q13 29 13 84q0 54 -13 85q-30 66 -108 66t-107 -66q-13 -31 -13 -85q0 -58 13 -85z" />
    <glyph glyph-name="yen" unicode="&#xa5;" horiz-adv-x="467" 
d="M466 706l-187 -361h149v-54h-154v-48h154v-55h-154v-188h-79v188h-155v55h155v48h-155v54h150l-188 361h84l150 -298l149 298h81z" />
    <glyph glyph-name="brokenbar" unicode="&#xa6;" horiz-adv-x="278" 
d="M102 433v323h73v-323h-73zM102 -191v324h73v-324h-73z" />
    <glyph glyph-name="section" unicode="&#xa7;" horiz-adv-x="406" 
d="M253 111q80 -35 104 -88q12 -25 12 -72t-12 -75q-35 -76 -154 -76t-154 76q-13 27 -13 96h78q0 -51 9 -73q19 -39 80 -39q60 0 79 37q7 18 7 50q0 36 -9 54q-10 23 -33 38t-68 34q-54 24 -85.5 45.5t-47.5 55.5q-13 30 -13 84t13 80q29 64 116 76q-87 40 -110 92
q-13 29 -13 69q0 41 12 69q35 76 152 76q115 0 150 -75q13 -29 13 -89h-76q0 42 -8 64q-21 39 -81 39t-78 -37q-7 -18 -7 -42q0 -25 8 -46q7 -17 24.5 -31.5t33 -22t46.5 -21.5q53 -24 84.5 -46t46.5 -55q14 -29 14 -89q0 -56 -13 -83q-26 -60 -107 -75zM112 320
q-8 -18 -8 -56q0 -42 9 -60q23 -47 91 -47q64 0 88 46q8 19 8 60q0 42 -8 58q-20 46 -89 46t-91 -47z" />
    <glyph glyph-name="dieresis" unicode="&#xa8;" horiz-adv-x="360" 
d="M97 574q-21 0 -34 12.5t-13 32.5t13.5 33t33.5 13t34 -13t14 -33q0 -19 -14 -32t-34 -13zM263 574q-21 0 -34 12.5t-13 32.5t13 33t34 13q20 0 33.5 -13t13.5 -33q0 -19 -13.5 -32t-33.5 -13z" />
    <glyph glyph-name="copyright" unicode="&#xa9;" horiz-adv-x="696" 
d="M348 -14q-96 0 -167 44.5t-107 123.5q-30 65 -30 199t30 199q36 79 107.5 123.5t166.5 44.5q94 0 166 -44t108 -123q31 -72 31 -200t-31 -199q-36 -79 -107 -123.5t-167 -44.5zM348 25q84 0 144.5 39t92.5 109q26 57 26 179t-26 184q-32 69 -93 107t-143 38
q-84 0 -146 -39t-93 -109q-25 -55 -25 -180q0 -123 26 -180q31 -70 92 -109t145 -39zM350 106q-113 0 -157 95q-21 48 -21 153q0 106 21 152q43 95 156 95q70 0 116 -41q49 -44 50 -135h-64q-1 64 -27 91q-31 29 -77 29q-71 0 -96 -60q-16 -40 -16 -130q0 -94 17 -131
q26 -60 96 -60q50 0 77 29q26 30 27 90h64q0 -93 -48 -137q-46 -40 -118 -40z" />
    <glyph glyph-name="ordfeminine" unicode="&#xaa;" horiz-adv-x="317" 
d="M270 660q13 -32 13 -87v-212h-59v36q-35 -43 -99 -43q-72 0 -94 50q-9 20 -9 52q0 34 9 55q24 58 136 58h57v11q0 43 -7 58q-14 30 -61 30q-44 0 -57 -27q-6 -15 -6 -39h-59q0 38 10 59q23 54 113 54q88 0 113 -55zM145 403q51 0 71 39q8 17 8 75v9h-53q-68 0 -83 -30
q-4 -12 -4 -34t5 -32q13 -27 56 -27z" />
    <glyph glyph-name="guillemotleft" unicode="&#xab;" horiz-adv-x="401" 
d="M148 125l-131 160l131 160h78l-130 -160l130 -160h-78zM304 125l-131 160l131 160h79l-131 -160l131 -160h-79z" />
    <glyph glyph-name="logicalnot" unicode="&#xac;" horiz-adv-x="495" 
d="M391 81v272h-347v59h407v-331h-60z" />
    <glyph glyph-name="uni00AD" unicode="&#xad;" horiz-adv-x="329" 
d="M44 254v70h242v-70h-242z" />
    <glyph glyph-name="registered" unicode="&#xae;" horiz-adv-x="422" 
d="M373 623q18 -37 18 -111q0 -72 -18 -111q-42 -95 -162 -95t-162 95q-18 39 -18 111q0 74 18 111q42 95 162 95t162 -95zM344 414q14 32 14 98q0 65 -14 99q-35 76 -133 76q-100 0 -132 -76q-15 -33 -15 -99q0 -67 15 -98q34 -77 132 -77q97 0 133 77zM303 567
q0 -51 -37 -62q32 -11 32 -51v-70h-40v64q0 21 -10 30.5t-33 9.5h-46v-104h-40v256h91q45 0 64 -17t19 -56zM213 522q26 0 37.5 10t11.5 33q0 22 -11 31t-38 9h-44v-83h44z" />
    <glyph glyph-name="macron" unicode="&#xaf;" horiz-adv-x="346" 
d="M50 593v56h246v-56h-246z" />
    <glyph glyph-name="degree" unicode="&#xb0;" horiz-adv-x="280" 
d="M140 487q-54 0 -87.5 32.5t-33.5 83.5q0 52 33.5 84.5t87.5 32.5q53 0 87 -32.5t34 -84.5q0 -51 -34 -83.5t-87 -32.5zM140 540q28 0 45 17.5t17 45.5q0 29 -17 46.5t-45 17.5t-45.5 -17.5t-17.5 -46.5q0 -28 17.5 -45.5t45.5 -17.5z" />
    <glyph glyph-name="plusminus" unicode="&#xb1;" horiz-adv-x="495" 
d="M217 159v150h-173v61h173v147h62v-147h172v-61h-172v-150h-62zM44 118h408v-61h-408v61z" />
    <glyph glyph-name="uni00B2" unicode="&#xb2;" horiz-adv-x="294" 
d="M15 438v3l143 173q31 37 41.5 56.5t10.5 45.5q0 23 -6 35q-13 31 -58 31t-59 -32q-7 -14 -7 -46h-57q0 46 11 72q26 59 112 59q88 0 113 -57q10 -25 10 -58q0 -34 -10.5 -58.5t-39.5 -58.5q-82 -99 -90 -108h138v-57h-252z" />
    <glyph glyph-name="uni00B3" unicode="&#xb3;" horiz-adv-x="319" 
d="M278 602q9 -17 9 -56t-9 -58q-26 -59 -121 -59q-92 0 -120 63q-13 32 -13 82h55q0 -40 9 -57q16 -37 68 -37q51 0 65 31q6 12 6 39q0 24 -6 38q-14 30 -78 30h-13v48h13q61 0 73 29q5 9 5 30q0 19 -5 31q-13 28 -58 28q-49 0 -65 -34q-7 -15 -7 -42h-55q0 39 11 64
q28 63 119 63q85 0 111 -55q8 -21 8 -51q0 -28 -7 -43q-13 -28 -51 -42q43 -11 56 -42z" />
    <glyph glyph-name="acute" unicode="&#xb4;" horiz-adv-x="258" 
d="M50 559l83 147h75l-90 -147h-68z" />
    <glyph glyph-name="uni00B5" unicode="&#xb5;" horiz-adv-x="454" 
d="M331 495h72v-495h-71v60q-40 -69 -127 -69q-54 0 -87 31q5 -55 5 -105v-108h-72v686h71v-314q0 -66 23.5 -96t74.5 -30q54 0 82.5 32t28.5 94v314z" />
    <glyph glyph-name="paragraph" unicode="&#xb6;" horiz-adv-x="551" 
d="M251 -191v504h-55q-124 0 -162 85q-14 32 -14 112t14 113q37 83 166 83h344v-65h-58v-832h-67v832h-101v-832h-67z" />
    <glyph glyph-name="periodcentered" unicode="&#xb7;" horiz-adv-x="248" 
d="M124 239q-23 0 -37 13.5t-14 35.5q0 23 14 37t37 14t37 -14t14 -37q0 -22 -14 -35.5t-37 -13.5z" />
    <glyph glyph-name="cedilla" unicode="&#xb8;" horiz-adv-x="277" 
d="M138 -46q43 0 66 -20.5t23 -55.5q0 -80 -108 -80q-38 0 -69 11l9 44q23 -10 55 -10q57 0 57 37q0 36 -60 36h-44l24 92h54l-15 -54h8z" />
    <glyph glyph-name="uni00B9" unicode="&#xb9;" horiz-adv-x="207" 
d="M92 438v330h-71l9 58h123v-388h-61z" />
    <glyph glyph-name="ordmasculine" unicode="&#xba;" horiz-adv-x="323" 
d="M161 355q-89 0 -122 74q-17 34 -17 106t17 107q33 73 122 73q90 0 123 -73q16 -36 16 -107t-16 -106q-33 -74 -123 -74zM161 408q48 0 67 41q11 23 11 86t-11 86q-19 41 -67 41t-66 -41q-12 -25 -12 -86t12 -86q18 -41 66 -41z" />
    <glyph glyph-name="guillemotright" unicode="&#xbb;" horiz-adv-x="401" 
d="M97 125h-78l130 160l-130 160h78l131 -160zM253 125h-78l130 160l-130 160h78l131 -160z" />
    <glyph glyph-name="onequarter" unicode="&#xbc;" horiz-adv-x="652" 
d="M92 318v330h-71l9 58h123v-388h-61zM75 0l369 706h63l-369 -706h-63zM534 0v96h-200v2l150 290h109v-240h49v-52h-49v-96h-59zM422 148h112v218z" />
    <glyph glyph-name="onehalf" unicode="&#xbd;" horiz-adv-x="664" 
d="M92 318v330h-71l9 58h123v-388h-61zM75 0l369 706h63l-369 -706h-63zM385 0v3l143 173q31 37 41.5 56.5t10.5 45.5q0 23 -6 35q-13 31 -58 31t-59 -32q-7 -14 -7 -46h-57q0 46 11 72q26 59 112 59q88 0 113 -57q10 -25 10 -58q0 -34 -10.5 -58.5t-39.5 -58.5
q-82 -99 -90 -108h138v-57h-252z" />
    <glyph glyph-name="threequarters" unicode="&#xbe;" horiz-adv-x="765" 
d="M278 368q-26 -59 -121 -59q-92 0 -120 63q-13 32 -13 82h55q0 -40 9 -57q16 -37 68 -37q51 0 65 31q6 12 6 39q0 24 -6 38q-14 30 -78 30h-13v48h13q61 0 73 29q5 9 5 30q0 19 -5 31q-13 28 -58 28q-49 0 -65 -34q-7 -15 -7 -42h-55q0 39 11 64q28 63 119 63
q85 0 111 -55q8 -21 8 -51q0 -28 -7 -43q-13 -28 -51 -42q43 -11 56 -42q9 -17 9 -56t-9 -58zM557 706h63l-369 -706h-63zM706 148h49v-52h-49v-96h-59v96h-200v2l150 290h109v-240zM647 148v218l-112 -218h112z" />
    <glyph glyph-name="questiondown" unicode="&#xbf;" horiz-adv-x="426" 
d="M219 411q-23 0 -37.5 14t-14.5 36t14.5 36t37.5 14t37 -14t14 -36t-14 -36t-37 -14zM210 -200q-90 0 -134 42t-44 115q0 46 25 107.5t120 248.5h81q-99 -191 -124.5 -251t-25.5 -100q0 -47 23 -72.5t81 -25.5q75 0 97 52q12 27 12 91h72q0 -79 -16 -118q-42 -89 -167 -89
z" />
    <glyph glyph-name="Agrave" unicode="&#xc0;" horiz-adv-x="518" 
d="M326 755h-77l-108 119h84zM438 0l-48 173h-262l-47 -173h-79l199 706h116l198 -706h-77zM146 238h227l-113 410h-2z" />
    <glyph glyph-name="Aacute" unicode="&#xc1;" horiz-adv-x="518" 
d="M377 874l-108 -119h-77l101 119h84zM438 0l-48 173h-262l-47 -173h-79l199 706h116l198 -706h-77zM146 238h227l-113 410h-2z" />
    <glyph glyph-name="Acircumflex" unicode="&#xc2;" horiz-adv-x="518" 
d="M259 837l-72 -82h-77l103 119h92l103 -119h-78zM438 0l-48 173h-262l-47 -173h-79l199 706h116l198 -706h-77zM146 238h227l-113 410h-2z" />
    <glyph glyph-name="Atilde" unicode="&#xc3;" horiz-adv-x="518" 
d="M190 824q-41 0 -45 -72h-52q5 125 94 125q44 0 85 -41q2 -1 8.5 -8t8.5 -8.5l8 -6t9.5 -6t9 -3t11.5 -1.5q39 0 44 72h52q-5 -125 -92 -125q-47 0 -85 40q-1 1 -6 6.5t-7 7t-6 5.5t-6.5 5t-6.5 3.5t-7.5 3.5t-7.5 2t-9 1zM438 0l-48 173h-262l-47 -173h-79l199 706h116
l198 -706h-77zM146 238h227l-113 410h-2z" />
    <glyph glyph-name="Adieresis" unicode="&#xc4;" horiz-adv-x="518" 
d="M168 770q-20 0 -33.5 12.5t-13.5 31.5q0 20 13.5 33t33.5 13t33.5 -13t13.5 -33q0 -19 -13.5 -31.5t-33.5 -12.5zM350 770q-20 0 -33.5 12.5t-13.5 31.5q0 20 13.5 33t33.5 13t33.5 -13t13.5 -33q0 -19 -13.5 -31.5t-33.5 -12.5zM438 0l-48 173h-262l-47 -173h-79
l199 706h116l198 -706h-77zM146 238h227l-113 410h-2z" />
    <glyph glyph-name="Aring" unicode="&#xc5;" horiz-adv-x="518" 
d="M258 729q-45 0 -72.5 26.5t-27.5 70.5q0 43 27.5 69t72.5 26q46 0 74 -26.5t28 -68.5q0 -43 -28 -70t-74 -27zM258 878q-24 0 -38.5 -14.5t-14.5 -37.5q0 -24 14.5 -38.5t38.5 -14.5q25 0 39.5 14.5t14.5 38.5q0 23 -15 37.5t-39 14.5zM438 0l-48 173h-262l-47 -173h-79
l199 706h116l198 -706h-77zM146 238h227l-113 410h-2z" />
    <glyph glyph-name="AE" unicode="&#xc6;" horiz-adv-x="653" 
d="M619 637h-244l23 -237h218v-69h-211l25 -262h189v-69h-259l-16 173h-204l-59 -173h-79l249 706h368v-69zM161 237h177l-37 406h-2z" />
    <glyph glyph-name="Ccedilla" unicode="&#xc7;" horiz-adv-x="585" 
d="M465 239h79q-1 -131 -69 -194q-57 -52 -149 -58l-10 -37h8q43 0 66 -20.5t23 -55.5q0 -80 -108 -80q-38 0 -69 11l9 44q23 -10 55 -10q57 0 57 37q0 36 -60 36h-44l20 75q-142 13 -196 138q-33 69 -33 228q0 156 33 229q62 138 226 138q104 0 169 -60q67 -61 70 -187h-79
q-3 96 -48 137q-44 39 -115 39q-109 0 -151 -94q-26 -57 -26 -202q0 -146 26 -203q42 -93 152 -93q72 0 116 39q47 41 48 143z" />
    <glyph glyph-name="Egrave" unicode="&#xc8;" horiz-adv-x="426" 
d="M292 755h-77l-108 119h84zM57 0v706h336v-69h-260v-237h257v-69h-257v-262h260v-69h-336z" />
    <glyph glyph-name="Eacute" unicode="&#xc9;" horiz-adv-x="426" 
d="M158 755l101 119h84l-108 -119h-77zM57 0v706h336v-69h-260v-237h257v-69h-257v-262h260v-69h-336z" />
    <glyph glyph-name="Ecircumflex" unicode="&#xca;" horiz-adv-x="426" 
d="M77 755l103 119h92l103 -119h-78l-71 82l-72 -82h-77zM57 0v706h336v-69h-260v-237h257v-69h-257v-262h260v-69h-336z" />
    <glyph glyph-name="Edieresis" unicode="&#xcb;" horiz-adv-x="426" 
d="M134 770q-20 0 -33.5 12.5t-13.5 31.5q0 20 13.5 33t33.5 13t33.5 -13t13.5 -33q0 -19 -13.5 -31.5t-33.5 -12.5zM316 770q-20 0 -33.5 12.5t-13.5 31.5q0 20 13.5 33t33.5 13t33.5 -13t13.5 -33q0 -19 -13.5 -31.5t-33.5 -12.5zM57 0v706h336v-69h-260v-237h257v-69
h-257v-262h260v-69h-336z" />
    <glyph glyph-name="Igrave" unicode="&#xcc;" horiz-adv-x="189" 
d="M161 755h-77l-108 119h84zM57 0v706h76v-706h-76z" />
    <glyph glyph-name="Iacute" unicode="&#xcd;" horiz-adv-x="189" 
d="M28 755l101 119h84l-108 -119h-77zM57 0v706h76v-706h-76z" />
    <glyph glyph-name="Icircumflex" unicode="&#xce;" horiz-adv-x="189" 
d="M-20 755l73 119h83l73 -119h-65l-49 81l-49 -81h-66zM57 0v706h76v-706h-76z" />
    <glyph glyph-name="Idieresis" unicode="&#xcf;" horiz-adv-x="189" 
d="M32 768q-20 0 -32.5 13t-12.5 32q0 20 12.5 33t32.5 13t32.5 -13t12.5 -33q0 -19 -12.5 -32t-32.5 -13zM160 767q-20 0 -33 12.5t-13 32.5t13 33t33 13q19 0 32 -13t13 -33q0 -19 -13 -32t-32 -13zM57 0v706h76v-706h-76z" />
    <glyph glyph-name="Eth" unicode="&#xd0;" horiz-adv-x="559" 
d="M485 571q31 -68 31 -218t-31 -218q-61 -135 -240 -135h-187v331h-53v67h53v308h187q179 0 240 -135zM412 165q24 52 24 188t-24 188q-43 96 -176 96h-103v-239h144v-67h-144v-262h103q133 0 176 96z" />
    <glyph glyph-name="Ntilde" unicode="&#xd1;" horiz-adv-x="563" 
d="M353 750q-47 0 -85 40q-1 1 -6 6.5t-7 7t-6 5.5t-6.5 5t-6.5 3.5t-7.5 3.5t-7.5 2t-9 1q-41 0 -45 -72h-52q5 125 94 125q44 0 85 -41q2 -1 8.5 -8t8.5 -8.5l8 -6t9.5 -6t9 -3t11.5 -1.5q39 0 44 72h52q-5 -125 -92 -125zM57 0v706h81l294 -575v575h74v-706h-81l-295 577
v-577h-73z" />
    <glyph glyph-name="Ograve" unicode="&#xd2;" horiz-adv-x="606" 
d="M370 755h-77l-108 119h84zM303 -14q-164 0 -226 137q-33 74 -33 230t33 230q62 137 226 137t226 -137q33 -74 33 -230t-33 -230q-62 -137 -226 -137zM303 58q111 0 154 95q26 57 26 200t-26 200q-43 95 -154 95q-112 0 -154 -95q-26 -57 -26 -200t26 -200q42 -95 154 -95
z" />
    <glyph glyph-name="Oacute" unicode="&#xd3;" horiz-adv-x="606" 
d="M236 755l101 119h84l-108 -119h-77zM303 -14q-164 0 -226 137q-33 74 -33 230t33 230q62 137 226 137t226 -137q33 -74 33 -230t-33 -230q-62 -137 -226 -137zM303 58q111 0 154 95q26 57 26 200t-26 200q-43 95 -154 95q-112 0 -154 -95q-26 -57 -26 -200t26 -200
q42 -95 154 -95z" />
    <glyph glyph-name="Ocircumflex" unicode="&#xd4;" horiz-adv-x="606" 
d="M155 755l103 119h92l103 -119h-78l-71 82l-72 -82h-77zM303 -14q-164 0 -226 137q-33 74 -33 230t33 230q62 137 226 137t226 -137q33 -74 33 -230t-33 -230q-62 -137 -226 -137zM303 58q111 0 154 95q26 57 26 200t-26 200q-43 95 -154 95q-112 0 -154 -95
q-26 -57 -26 -200t26 -200q42 -95 154 -95z" />
    <glyph glyph-name="Otilde" unicode="&#xd5;" horiz-adv-x="606" 
d="M375 750q-47 0 -85 40q-1 1 -6 6.5t-7 7t-6 5.5t-6.5 5t-6.5 3.5t-7.5 3.5t-7.5 2t-9 1q-41 0 -45 -72h-52q5 125 94 125q44 0 85 -41q2 -1 8.5 -8t8.5 -8.5l8 -6t9.5 -6t9 -3t11.5 -1.5q39 0 44 72h52q-5 -125 -92 -125zM303 -14q-164 0 -226 137q-33 74 -33 230t33 230
q62 137 226 137t226 -137q33 -74 33 -230t-33 -230q-62 -137 -226 -137zM303 58q111 0 154 95q26 57 26 200t-26 200q-43 95 -154 95q-112 0 -154 -95q-26 -57 -26 -200t26 -200q42 -95 154 -95z" />
    <glyph glyph-name="Odieresis" unicode="&#xd6;" horiz-adv-x="606" 
d="M212 770q-20 0 -33.5 12.5t-13.5 31.5q0 20 13.5 33t33.5 13t33.5 -13t13.5 -33q0 -19 -13.5 -31.5t-33.5 -12.5zM394 770q-20 0 -33.5 12.5t-13.5 31.5q0 20 13.5 33t33.5 13t33.5 -13t13.5 -33q0 -19 -13.5 -31.5t-33.5 -12.5zM303 -14q-164 0 -226 137q-33 74 -33 230
t33 230q62 137 226 137t226 -137q33 -74 33 -230t-33 -230q-62 -137 -226 -137zM303 58q111 0 154 95q26 57 26 200t-26 200q-43 95 -154 95q-112 0 -154 -95q-26 -57 -26 -200t26 -200q42 -95 154 -95z" />
    <glyph glyph-name="multiply" unicode="&#xd7;" horiz-adv-x="495" 
d="M434 433l-144 -144l144 -145l-42 -43l-145 145l-144 -144l-42 42l144 144l-144 145l42 42l145 -144l144 144z" />
    <glyph glyph-name="Oslash" unicode="&#xd8;" horiz-adv-x="606" 
d="M518 604q8 -14 11 -21q33 -74 33 -230t-33 -230q-62 -137 -226 -137q-117 0 -184 72l-45 -58h-67l81 102q-8 14 -11 21q-33 74 -33 230t33 230q62 137 226 137q118 0 185 -73l46 59h65zM149 553q-26 -57 -26 -200q0 -130 20 -185l294 420q-45 60 -134 60q-112 0 -154 -95
zM457 153q26 57 26 200q0 132 -20 185l-294 -420q45 -60 134 -60q111 0 154 95z" />
    <glyph glyph-name="Ugrave" unicode="&#xd9;" horiz-adv-x="521" 
d="M327 755h-77l-108 119h84zM260 -14q-108 0 -158.5 49.5t-50.5 152.5v518h77v-513q0 -70 31.5 -103.5t100.5 -33.5q70 0 101.5 33.5t31.5 103.5v513h76v-518q0 -104 -50 -153t-159 -49z" />
    <glyph glyph-name="Uacute" unicode="&#xda;" horiz-adv-x="521" 
d="M194 755l101 119h84l-108 -119h-77zM260 -14q-108 0 -158.5 49.5t-50.5 152.5v518h77v-513q0 -70 31.5 -103.5t100.5 -33.5q70 0 101.5 33.5t31.5 103.5v513h76v-518q0 -104 -50 -153t-159 -49z" />
    <glyph glyph-name="Ucircumflex" unicode="&#xdb;" horiz-adv-x="521" 
d="M112 755l103 119h92l103 -119h-78l-71 82l-72 -82h-77zM260 -14q-108 0 -158.5 49.5t-50.5 152.5v518h77v-513q0 -70 31.5 -103.5t100.5 -33.5q70 0 101.5 33.5t31.5 103.5v513h76v-518q0 -104 -50 -153t-159 -49z" />
    <glyph glyph-name="Udieresis" unicode="&#xdc;" horiz-adv-x="521" 
d="M169 770q-20 0 -33.5 12.5t-13.5 31.5q0 20 13.5 33t33.5 13t33.5 -13t13.5 -33q0 -19 -13.5 -31.5t-33.5 -12.5zM351 770q-20 0 -33.5 12.5t-13.5 31.5q0 20 13.5 33t33.5 13t33.5 -13t13.5 -33q0 -19 -13.5 -31.5t-33.5 -12.5zM260 -14q-108 0 -158.5 49.5t-50.5 152.5
v518h77v-513q0 -70 31.5 -103.5t100.5 -33.5q70 0 101.5 33.5t31.5 103.5v513h76v-518q0 -104 -50 -153t-159 -49z" />
    <glyph glyph-name="Yacute" unicode="&#xdd;" horiz-adv-x="467" 
d="M169 755l101 119h84l-108 -119h-77zM196 0v302l-194 404h83l149 -324l148 324h83l-193 -404v-302h-76z" />
    <glyph glyph-name="Thorn" unicode="&#xde;" horiz-adv-x="465" 
d="M57 0v706h76v-126h95q156 0 198 -96q19 -39 19 -125q0 -87 -19 -126q-42 -96 -198 -96h-95v-137h-76zM133 204h80q113 0 141 62q13 29 13 93q0 63 -13 92q-28 63 -141 63h-80v-310z" />
    <glyph glyph-name="germandbls" unicode="&#xdf;" horiz-adv-x="462" 
d="M414 315q17 -37 17 -109q0 -73 -16 -109q-44 -98 -195 -98q-20 0 -40 2v61q3 0 13 -0.5t17 -0.5q104 0 134 65q11 25 11 84q0 58 -12 87q-33 69 -130 69h-32v58h29q91 0 117 57q9 21 9 63q0 43 -10 66q-22 51 -95 51q-72 0 -95 -54q-13 -32 -13 -90v-517h-72v513
q0 74 19 119q41 88 161 88q123 0 163 -87q14 -32 14 -83q0 -55 -13 -84q-24 -53 -86 -67q75 -18 105 -84z" />
    <glyph glyph-name="agrave" unicode="&#xe0;" horiz-adv-x="443" 
d="M280 559h-68l-90 147h75zM377 425q18 -40 18 -123v-302h-72v59q-43 -68 -143 -68q-105 0 -136 70q-12 25 -12 75t11 75q20 44 67 61.5t124 17.5h89v21q0 59 -12 86q-20 45 -90 45q-73 0 -93 -45q-8 -19 -8 -54h-73q0 53 13 83q37 79 161 79q120 0 156 -80zM200 53
q80 0 108 61q15 33 15 109v10h-83q-105 0 -127 -46q-6 -15 -6 -44q0 -32 7 -47q19 -43 86 -43z" />
    <glyph glyph-name="aacute" unicode="&#xe1;" horiz-adv-x="443" 
d="M325 706l-90 -147h-68l83 147h75zM377 425q18 -40 18 -123v-302h-72v59q-43 -68 -143 -68q-105 0 -136 70q-12 25 -12 75t11 75q20 44 67 61.5t124 17.5h89v21q0 59 -12 86q-20 45 -90 45q-73 0 -93 -45q-8 -19 -8 -54h-73q0 53 13 83q37 79 161 79q120 0 156 -80z
M200 53q80 0 108 61q15 33 15 109v10h-83q-105 0 -127 -46q-6 -15 -6 -44q0 -32 7 -47q19 -43 86 -43z" />
    <glyph glyph-name="acircumflex" unicode="&#xe2;" horiz-adv-x="443" 
d="M223 667l-66 -109h-71l92 148h92l91 -148h-71zM377 425q18 -40 18 -123v-302h-72v59q-43 -68 -143 -68q-105 0 -136 70q-12 25 -12 75t11 75q20 44 67 61.5t124 17.5h89v21q0 59 -12 86q-20 45 -90 45q-73 0 -93 -45q-8 -19 -8 -54h-73q0 53 13 83q37 79 161 79
q120 0 156 -80zM200 53q80 0 108 61q15 33 15 109v10h-83q-105 0 -127 -46q-6 -15 -6 -44q0 -32 7 -47q19 -43 86 -43z" />
    <glyph glyph-name="atilde" unicode="&#xe3;" horiz-adv-x="443" 
d="M163 653q-20 0 -27.5 -21.5t-9.5 -72.5h-51q2 77 21 113t62 36q26 0 43 -13t36 -42q2 -3 7.5 -11t7.5 -10.5t6.5 -8t8 -7.5t8.5 -4t10 -2q20 0 26.5 21.5t8.5 74.5h52q-2 -77 -21.5 -113.5t-63.5 -36.5q-27 0 -44.5 12.5t-34.5 41.5q-2 3 -5.5 9t-5 8t-4.5 7t-5 7t-5.5 5
t-6 4t-6 2t-7.5 1zM377 425q18 -40 18 -123v-302h-72v59q-43 -68 -143 -68q-105 0 -136 70q-12 25 -12 75t11 75q20 44 67 61.5t124 17.5h89v21q0 59 -12 86q-20 45 -90 45q-73 0 -93 -45q-8 -19 -8 -54h-73q0 53 13 83q37 79 161 79q120 0 156 -80zM200 53q80 0 108 61
q15 33 15 109v10h-83q-105 0 -127 -46q-6 -15 -6 -44q0 -32 7 -47q19 -43 86 -43z" />
    <glyph glyph-name="adieresis" unicode="&#xe4;" horiz-adv-x="443" 
d="M139 574q-21 0 -34 12.5t-13 32.5t13.5 33t33.5 13t34 -13t14 -33q0 -19 -14 -32t-34 -13zM305 574q-21 0 -34 12.5t-13 32.5t13 33t34 13q20 0 33.5 -13t13.5 -33q0 -19 -13.5 -32t-33.5 -13zM377 425q18 -40 18 -123v-302h-72v59q-43 -68 -143 -68q-105 0 -136 70
q-12 25 -12 75t11 75q20 44 67 61.5t124 17.5h89v21q0 59 -12 86q-20 45 -90 45q-73 0 -93 -45q-8 -19 -8 -54h-73q0 53 13 83q37 79 161 79q120 0 156 -80zM200 53q80 0 108 61q15 33 15 109v10h-83q-105 0 -127 -46q-6 -15 -6 -44q0 -32 7 -47q19 -43 86 -43z" />
    <glyph glyph-name="aring" unicode="&#xe5;" horiz-adv-x="443" 
d="M223 547q-45 0 -72.5 26.5t-27.5 69.5t27.5 69.5t72.5 26.5t73.5 -27t28.5 -69q0 -43 -28 -69.5t-74 -26.5zM223 696q-24 0 -38.5 -14.5t-14.5 -38.5t14.5 -38t38.5 -14q25 0 39.5 14t14.5 38t-15 38.5t-39 14.5zM377 425q18 -40 18 -123v-302h-72v59q-43 -68 -143 -68
q-105 0 -136 70q-12 25 -12 75t11 75q20 44 67 61.5t124 17.5h89v21q0 59 -12 86q-20 45 -90 45q-73 0 -93 -45q-8 -19 -8 -54h-73q0 53 13 83q37 79 161 79q120 0 156 -80zM200 53q80 0 108 61q15 33 15 109v10h-83q-105 0 -127 -46q-6 -15 -6 -44q0 -32 7 -47
q19 -43 86 -43z" />
    <glyph glyph-name="ae" unicode="&#xe6;" horiz-adv-x="727" 
d="M588 78q29 27 32 94h74q-4 -96 -52 -139q-45 -42 -126 -42q-120 0 -165 98q-48 -98 -169 -98q-107 0 -138 70q-12 25 -12 75t11 75q34 79 191 79h89v17q0 62 -12 90q-20 45 -90 45q-73 0 -93 -45q-8 -17 -8 -54h-73q0 54 13 83q35 79 161 79q111 0 147 -66q48 67 141 67
q119 0 164 -99q23 -52 23 -174h-301q1 -81 16 -118q30 -62 104 -62q48 0 73 25zM511 443q-72 0 -99 -58q-15 -34 -16 -95h225q-3 67 -16 96q-27 57 -94 57zM323 223v10h-83q-106 0 -126 -44q-7 -17 -7 -46t8 -48q19 -42 87 -42q78 0 104 56q17 35 17 114z" />
    <glyph glyph-name="ccedilla" unicode="&#xe7;" horiz-adv-x="437" 
d="M296 80q31 28 31 96h78q-3 -98 -51 -142q-40 -36 -106 -42l-11 -40h8q43 0 66 -20.5t23 -55.5q0 -80 -108 -80q-38 0 -69 11l9 44q23 -10 55 -10q57 0 57 37q0 36 -60 36h-44l21 79q-102 12 -141 102q-23 50 -23 153t23 152q47 106 172 106q79 0 128 -44q50 -47 51 -141
h-77q-1 66 -33 95q-27 25 -69 25q-72 0 -101 -65q-17 -37 -17 -128q0 -90 17 -128q29 -64 101 -64q44 0 70 24z" />
    <glyph glyph-name="egrave" unicode="&#xe8;" horiz-adv-x="454" 
d="M286 559h-68l-90 147h75zM314 80q30 27 34 92h72q-4 -90 -52 -135q-52 -46 -135 -46q-133 0 -179 105q-23 49 -23 152q0 102 23 152q47 106 174 106q125 0 172 -102q22 -53 22 -170h-317q1 -82 16 -115q30 -66 110 -66q53 0 83 27zM229 443q-78 0 -108 -67
q-14 -32 -15 -85h242q-2 59 -15 90q-29 62 -104 62z" />
    <glyph glyph-name="eacute" unicode="&#xe9;" horiz-adv-x="454" 
d="M331 706l-90 -147h-68l83 147h75zM314 80q30 27 34 92h72q-4 -90 -52 -135q-52 -46 -135 -46q-133 0 -179 105q-23 49 -23 152q0 102 23 152q47 106 174 106q125 0 172 -102q22 -53 22 -170h-317q1 -82 16 -115q30 -66 110 -66q53 0 83 27zM229 443q-78 0 -108 -67
q-14 -32 -15 -85h242q-2 59 -15 90q-29 62 -104 62z" />
    <glyph glyph-name="ecircumflex" unicode="&#xea;" horiz-adv-x="454" 
d="M229 667l-66 -109h-71l92 148h92l91 -148h-71zM314 80q30 27 34 92h72q-4 -90 -52 -135q-52 -46 -135 -46q-133 0 -179 105q-23 49 -23 152q0 102 23 152q47 106 174 106q125 0 172 -102q22 -53 22 -170h-317q1 -82 16 -115q30 -66 110 -66q53 0 83 27zM229 443
q-78 0 -108 -67q-14 -32 -15 -85h242q-2 59 -15 90q-29 62 -104 62z" />
    <glyph glyph-name="edieresis" unicode="&#xeb;" horiz-adv-x="454" 
d="M145 574q-21 0 -34 12.5t-13 32.5t13.5 33t33.5 13t34 -13t14 -33q0 -19 -14 -32t-34 -13zM311 574q-21 0 -34 12.5t-13 32.5t13 33t34 13q20 0 33.5 -13t13.5 -33q0 -19 -13.5 -32t-33.5 -13zM314 80q30 27 34 92h72q-4 -90 -52 -135q-52 -46 -135 -46q-133 0 -179 105
q-23 49 -23 152q0 102 23 152q47 106 174 106q125 0 172 -102q22 -53 22 -170h-317q1 -82 16 -115q30 -66 110 -66q53 0 83 27zM229 443q-78 0 -108 -67q-14 -32 -15 -85h242q-2 59 -15 90q-29 62 -104 62z" />
    <glyph glyph-name="igrave" unicode="&#xec;" horiz-adv-x="174" 
d="M133 559h-68l-79 147h75zM51 0v495h72v-495h-72z" />
    <glyph glyph-name="iacute" unicode="&#xed;" horiz-adv-x="174" 
d="M42 559l72 147h75l-79 -147h-68zM51 0v495h72v-495h-72z" />
    <glyph glyph-name="icircumflex" unicode="&#xee;" horiz-adv-x="174" 
d="M-33 558l79 148h83l78 -148h-64l-56 106l-56 -106h-64zM51 0v495h72v-495h-72z" />
    <glyph glyph-name="idieresis" unicode="&#xef;" horiz-adv-x="174" 
d="M26 575q-20 0 -32.5 12.5t-12.5 32.5t12.5 32.5t32.5 12.5t32.5 -12.5t12.5 -32.5t-12.5 -32.5t-32.5 -12.5zM149 575q-20 0 -32.5 12.5t-12.5 32.5t12.5 32.5t32.5 12.5t32.5 -12.5t12.5 -32.5t-12.5 -32.5t-32.5 -12.5zM51 0v495h72v-495h-72z" />
    <glyph glyph-name="eth" unicode="&#xf0;" horiz-adv-x="456" 
d="M374 506q30 -66 40 -116t10 -139q0 -106 -23 -159q-44 -101 -177 -101q-127 0 -172 101q-21 48 -21 146q0 106 23 153q42 97 152 97q76 0 121 -50q-6 15 -18 43q-23 50 -58 103l-174 -66v56l144 55q-23 33 -56 75v2h82q3 -4 40 -52l97 37v-56l-67 -26q37 -59 57 -103z
M331 117q16 36 16 127q0 85 -16 120q-28 63 -104 63q-72 0 -102 -63q-17 -42 -17 -123q0 -83 17 -123q29 -64 103 -64t103 63z" />
    <glyph glyph-name="ntilde" unicode="&#xf1;" horiz-adv-x="451" 
d="M168 653q-20 0 -27.5 -21.5t-9.5 -72.5h-51q2 77 21 113t62 36q26 0 43 -13t36 -42q2 -3 7.5 -11t7.5 -10.5t6.5 -8t8 -7.5t8.5 -4t10 -2q20 0 26.5 21.5t8.5 74.5h52q-2 -77 -21.5 -113.5t-63.5 -36.5q-27 0 -44.5 12.5t-34.5 41.5q-2 3 -5.5 9t-5 8t-4.5 7t-5 7t-5.5 5
t-6 4t-6 2t-7.5 1zM253 505q150 0 150 -173v-332h-72v317q0 65 -23.5 94.5t-74.5 29.5q-53 0 -81.5 -32t-28.5 -93v-316h-72v495h72v-55q41 65 130 65z" />
    <glyph glyph-name="ograve" unicode="&#xf2;" horiz-adv-x="453" 
d="M283 559h-68l-90 147h75zM226 -9q-125 0 -171 105q-24 51 -24 152t24 152q47 106 171 106t173 -106q23 -52 23 -152t-23 -152q-48 -105 -173 -105zM226 55q73 0 103 64q16 36 16 129t-16 129q-30 64 -103 64q-72 0 -102 -64q-17 -38 -17 -129t17 -129q30 -64 102 -64z
" />
    <glyph glyph-name="oacute" unicode="&#xf3;" horiz-adv-x="453" 
d="M170 559l83 147h75l-90 -147h-68zM226 -9q-125 0 -171 105q-24 51 -24 152t24 152q47 106 171 106t173 -106q23 -52 23 -152t-23 -152q-48 -105 -173 -105zM226 55q73 0 103 64q16 36 16 129t-16 129q-30 64 -103 64q-72 0 -102 -64q-17 -38 -17 -129t17 -129
q30 -64 102 -64z" />
    <glyph glyph-name="ocircumflex" unicode="&#xf4;" horiz-adv-x="453" 
d="M90 558l92 148h92l91 -148h-71l-67 109l-66 -109h-71zM226 -9q-125 0 -171 105q-24 51 -24 152t24 152q47 106 171 106t173 -106q23 -52 23 -152t-23 -152q-48 -105 -173 -105zM226 55q73 0 103 64q16 36 16 129t-16 129q-30 64 -103 64q-72 0 -102 -64q-17 -38 -17 -129
t17 -129q30 -64 102 -64z" />
    <glyph glyph-name="otilde" unicode="&#xf5;" horiz-adv-x="453" 
d="M291 556q-27 0 -44.5 12.5t-34.5 41.5q-2 3 -5.5 9t-5 8t-4.5 7t-5 7t-5.5 5t-6 4t-6 2t-7.5 1q-20 0 -27.5 -21.5t-9.5 -72.5h-51q2 77 21 113t62 36q26 0 43 -13t36 -42q2 -3 7.5 -11t7.5 -10.5t6.5 -8t8 -7.5t8.5 -4t10 -2q20 0 26.5 21.5t8.5 74.5h52
q-2 -77 -21.5 -113.5t-63.5 -36.5zM226 -9q-125 0 -171 105q-24 51 -24 152t24 152q47 106 171 106t173 -106q23 -52 23 -152t-23 -152q-48 -105 -173 -105zM226 55q73 0 103 64q16 36 16 129t-16 129q-30 64 -103 64q-72 0 -102 -64q-17 -38 -17 -129t17 -129
q30 -64 102 -64z" />
    <glyph glyph-name="odieresis" unicode="&#xf6;" horiz-adv-x="453" 
d="M143 574q-21 0 -34 12.5t-13 32.5t13.5 33t33.5 13t34 -13t14 -33q0 -19 -14 -32t-34 -13zM309 574q-21 0 -34 12.5t-13 32.5t13 33t34 13q20 0 33.5 -13t13.5 -33q0 -19 -13.5 -32t-33.5 -13zM226 -9q-125 0 -171 105q-24 51 -24 152t24 152q47 106 171 106t173 -106
q23 -52 23 -152t-23 -152q-48 -105 -173 -105zM226 55q73 0 103 64q16 36 16 129t-16 129q-30 64 -103 64q-72 0 -102 -64q-17 -38 -17 -129t17 -129q30 -64 102 -64z" />
    <glyph glyph-name="divide" unicode="&#xf7;" horiz-adv-x="495" 
d="M249 421q-22 0 -35 13t-13 33q0 22 13 34.5t35 12.5q19 0 32 -13t13 -34q0 -20 -13 -33t-32 -13zM44 258v61h408v-61h-408zM249 62q-22 0 -35 13t-13 33q0 22 13 34.5t35 12.5q19 0 32 -13t13 -34q0 -20 -13 -33t-32 -13z" />
    <glyph glyph-name="oslash" unicode="&#xf8;" horiz-adv-x="453" 
d="M382 430q11 -16 17 -30q23 -52 23 -152t-23 -152q-48 -105 -173 -105q-75 0 -124 41l-24 -32h-56l50 65q-12 20 -17 31q-24 51 -24 152t24 152q47 106 171 106q75 0 125 -42l25 32h57zM124 377q-17 -38 -17 -129q0 -84 13 -120l189 280q-30 33 -83 33q-72 0 -102 -64z
M329 119q16 36 16 129q0 86 -12 119l-188 -280q30 -32 81 -32q73 0 103 64z" />
    <glyph glyph-name="ugrave" unicode="&#xf9;" horiz-adv-x="451" 
d="M276 559h-68l-90 147h75zM328 495h72v-495h-72v56q-41 -66 -131 -66q-150 0 -150 174v331h72v-316q0 -65 23.5 -94.5t74.5 -29.5q53 0 82 31.5t29 92.5v316z" />
    <glyph glyph-name="uacute" unicode="&#xfa;" horiz-adv-x="451" 
d="M321 706l-90 -147h-68l83 147h75zM328 495h72v-495h-72v56q-41 -66 -131 -66q-150 0 -150 174v331h72v-316q0 -65 23.5 -94.5t74.5 -29.5q53 0 82 31.5t29 92.5v316z" />
    <glyph glyph-name="ucircumflex" unicode="&#xfb;" horiz-adv-x="451" 
d="M219 667l-66 -109h-71l92 148h92l91 -148h-71zM328 495h72v-495h-72v56q-41 -66 -131 -66q-150 0 -150 174v331h72v-316q0 -65 23.5 -94.5t74.5 -29.5q53 0 82 31.5t29 92.5v316z" />
    <glyph glyph-name="udieresis" unicode="&#xfc;" horiz-adv-x="451" 
d="M135 574q-21 0 -34 12.5t-13 32.5t13.5 33t33.5 13t34 -13t14 -33q0 -19 -14 -32t-34 -13zM301 574q-21 0 -34 12.5t-13 32.5t13 33t34 13q20 0 33.5 -13t13.5 -33q0 -19 -13.5 -32t-33.5 -13zM328 495h72v-495h-72v56q-41 -66 -131 -66q-150 0 -150 174v331h72v-316
q0 -65 23.5 -94.5t74.5 -29.5q53 0 82 31.5t29 92.5v316z" />
    <glyph glyph-name="yacute" unicode="&#xfd;" horiz-adv-x="422" 
d="M314 706l-90 -147h-68l83 147h75zM337 495h77l-174 -495l-70 -191h-74l71 194l-159 492h79l117 -405z" />
    <glyph glyph-name="thorn" unicode="&#xfe;" horiz-adv-x="467" 
d="M412 409q24 -55 24 -161t-24 -161q-42 -96 -152 -96q-90 0 -137 71v-253h-72v897h72v-272q47 72 137 72q109 0 152 -97zM343 119q17 40 17 129t-17 128q-29 65 -102 65q-56 0 -87 -40t-31 -112v-83q0 -72 31 -111.5t87 -39.5q72 0 102 64z" />
    <glyph glyph-name="ydieresis" unicode="&#xff;" horiz-adv-x="422" 
d="M128 574q-21 0 -34 12.5t-13 32.5t13.5 33t33.5 13t34 -13t14 -33q0 -19 -14 -32t-34 -13zM294 574q-21 0 -34 12.5t-13 32.5t13 33t34 13q20 0 33.5 -13t13.5 -33q0 -19 -13.5 -32t-33.5 -13zM337 495h77l-174 -495l-70 -191h-74l71 194l-159 492h79l117 -405z" />
    <glyph glyph-name="Amacron" unicode="&#x100;" horiz-adv-x="518" 
d="M391 843v-55h-263v55h263zM438 0l-48 173h-262l-47 -173h-79l199 706h116l198 -706h-77zM146 238h227l-113 410h-2z" />
    <glyph glyph-name="amacron" unicode="&#x101;" horiz-adv-x="443" 
d="M346 649v-56h-246v56h246zM377 425q18 -40 18 -123v-302h-72v59q-43 -68 -143 -68q-105 0 -136 70q-12 25 -12 75t11 75q20 44 67 61.5t124 17.5h89v21q0 59 -12 86q-20 45 -90 45q-73 0 -93 -45q-8 -19 -8 -54h-73q0 53 13 83q37 79 161 79q120 0 156 -80zM200 53
q80 0 108 61q15 33 15 109v10h-83q-105 0 -127 -46q-6 -15 -6 -44q0 -32 7 -47q19 -43 86 -43z" />
    <glyph glyph-name="Abreve" unicode="&#x102;" horiz-adv-x="518" 
d="M260 751q-124 0 -130 123h56q3 -39 21 -57t53 -18t52 17.5t22 57.5h54q-4 -123 -128 -123zM438 0l-48 173h-262l-47 -173h-79l199 706h116l198 -706h-77zM146 238h227l-113 410h-2z" />
    <glyph glyph-name="abreve" unicode="&#x103;" horiz-adv-x="443" 
d="M223 554q-67 0 -98.5 37.5t-34.5 114.5h58q2 -55 18.5 -78.5t56.5 -23.5t56.5 23.5t19.5 78.5h57q-3 -77 -34.5 -114.5t-98.5 -37.5zM377 425q18 -40 18 -123v-302h-72v59q-43 -68 -143 -68q-105 0 -136 70q-12 25 -12 75t11 75q20 44 67 61.5t124 17.5h89v21
q0 59 -12 86q-20 45 -90 45q-73 0 -93 -45q-8 -19 -8 -54h-73q0 53 13 83q37 79 161 79q120 0 156 -80zM200 53q80 0 108 61q15 33 15 109v10h-83q-105 0 -127 -46q-6 -15 -6 -44q0 -32 7 -47q19 -43 86 -43z" />
    <glyph glyph-name="Aogonek" unicode="&#x104;" horiz-adv-x="518" 
d="M482 -150q23 0 44 9v-50q-26 -9 -56 -9q-43 0 -68.5 20.5t-25.5 58.5q0 33 20 61t60 60h-18l-48 173h-262l-47 -173h-79l199 706h116l198 -706q-42 -38 -59.5 -61.5t-17.5 -49.5q0 -39 44 -39zM146 238h227l-113 410h-2z" />
    <glyph glyph-name="aogonek" unicode="&#x105;" horiz-adv-x="443" 
d="M362 -150q23 0 44 9v-50q-26 -9 -56 -9q-43 0 -68.5 20.5t-25.5 58.5q0 33 20 61t60 60h-13v59q-43 -68 -143 -68q-105 0 -136 70q-12 25 -12 75t11 75q20 44 67 61.5t124 17.5h89v21q0 59 -12 86q-20 45 -90 45q-73 0 -93 -45q-8 -19 -8 -54h-73q0 53 13 83
q37 79 161 79q120 0 156 -80q18 -40 18 -123v-302q-42 -38 -59.5 -61.5t-17.5 -49.5q0 -39 44 -39zM200 53q80 0 108 61q15 33 15 109v10h-83q-105 0 -127 -46q-6 -15 -6 -44q0 -32 7 -47q19 -43 86 -43z" />
    <glyph glyph-name="Cacute" unicode="&#x106;" horiz-adv-x="585" 
d="M237 755l101 119h84l-108 -119h-77zM304 -14q-166 0 -227 139q-33 69 -33 228q0 156 33 229q62 138 226 138q104 0 169 -60q67 -61 70 -187h-79q-3 96 -48 137q-44 39 -115 39q-109 0 -151 -94q-26 -57 -26 -202q0 -146 26 -203q42 -93 152 -93q72 0 116 39q47 41 48 143
h79q-1 -131 -69 -194q-64 -59 -171 -59z" />
    <glyph glyph-name="cacute" unicode="&#x107;" horiz-adv-x="437" 
d="M170 559l83 147h75l-90 -147h-68zM226 -9q-126 0 -172 104q-23 50 -23 153t23 152q47 106 172 106q79 0 128 -44q50 -47 51 -141h-77q-1 66 -33 95q-27 25 -69 25q-72 0 -101 -65q-17 -37 -17 -128q0 -90 17 -128q29 -64 101 -64q44 0 70 24q31 28 31 96h78
q-3 -98 -51 -142q-48 -43 -128 -43z" />
    <glyph glyph-name="Ccircumflex" unicode="&#x108;" horiz-adv-x="585" 
d="M155 755l103 119h92l103 -119h-78l-71 82l-72 -82h-77zM304 -14q-166 0 -227 139q-33 69 -33 228q0 156 33 229q62 138 226 138q104 0 169 -60q67 -61 70 -187h-79q-3 96 -48 137q-44 39 -115 39q-109 0 -151 -94q-26 -57 -26 -202q0 -146 26 -203q42 -93 152 -93
q72 0 116 39q47 41 48 143h79q-1 -131 -69 -194q-64 -59 -171 -59z" />
    <glyph glyph-name="ccircumflex" unicode="&#x109;" horiz-adv-x="437" 
d="M89 558l92 148h92l91 -148h-71l-67 109l-66 -109h-71zM226 -9q-126 0 -172 104q-23 50 -23 153t23 152q47 106 172 106q79 0 128 -44q50 -47 51 -141h-77q-1 66 -33 95q-27 25 -69 25q-72 0 -101 -65q-17 -37 -17 -128q0 -90 17 -128q29 -64 101 -64q44 0 70 24
q31 28 31 96h78q-3 -98 -51 -142q-48 -43 -128 -43z" />
    <glyph glyph-name="Cdotaccent" unicode="&#x10a;" horiz-adv-x="585" 
d="M304 771q-21 0 -34.5 12.5t-13.5 33.5q0 20 13.5 32.5t34.5 12.5q20 0 33 -12.5t13 -32.5q0 -21 -13 -33.5t-33 -12.5zM304 -14q-166 0 -227 139q-33 69 -33 228q0 156 33 229q62 138 226 138q104 0 169 -60q67 -61 70 -187h-79q-3 96 -48 137q-44 39 -115 39
q-109 0 -151 -94q-26 -57 -26 -202q0 -146 26 -203q42 -93 152 -93q72 0 116 39q47 41 48 143h79q-1 -131 -69 -194q-64 -59 -171 -59z" />
    <glyph glyph-name="cdotaccent" unicode="&#x10b;" horiz-adv-x="437" 
d="M227 575q-22 0 -35.5 13t-13.5 33q0 21 13.5 34t35.5 13q21 0 34.5 -13t13.5 -34q0 -19 -14 -32.5t-34 -13.5zM226 -9q-126 0 -172 104q-23 50 -23 153t23 152q47 106 172 106q79 0 128 -44q50 -47 51 -141h-77q-1 66 -33 95q-27 25 -69 25q-72 0 -101 -65
q-17 -37 -17 -128q0 -90 17 -128q29 -64 101 -64q44 0 70 24q31 28 31 96h78q-3 -98 -51 -142q-48 -43 -128 -43z" />
    <glyph glyph-name="Ccaron" unicode="&#x10c;" horiz-adv-x="585" 
d="M452 874l-103 -119h-92l-103 119h78l71 -81l72 81h77zM304 -14q-166 0 -227 139q-33 69 -33 228q0 156 33 229q62 138 226 138q104 0 169 -60q67 -61 70 -187h-79q-3 96 -48 137q-44 39 -115 39q-109 0 -151 -94q-26 -57 -26 -202q0 -146 26 -203q42 -93 152 -93
q72 0 116 39q47 41 48 143h79q-1 -131 -69 -194q-64 -59 -171 -59z" />
    <glyph glyph-name="ccaron" unicode="&#x10d;" horiz-adv-x="437" 
d="M364 705l-92 -148h-92l-91 148h71l66 -109l67 109h71zM226 -9q-126 0 -172 104q-23 50 -23 153t23 152q47 106 172 106q79 0 128 -44q50 -47 51 -141h-77q-1 66 -33 95q-27 25 -69 25q-72 0 -101 -65q-17 -37 -17 -128q0 -90 17 -128q29 -64 101 -64q44 0 70 24
q31 28 31 96h78q-3 -98 -51 -142q-48 -43 -128 -43z" />
    <glyph glyph-name="Dcaron" unicode="&#x10e;" horiz-adv-x="558" 
d="M403 874l-103 -119h-92l-103 119h78l71 -81l72 81h77zM57 0v706h187q180 0 240 -135q31 -68 31 -218t-31 -218q-60 -135 -240 -135h-187zM133 69h102q133 0 176 96q24 52 24 188t-24 188q-43 96 -176 96h-102v-568z" />
    <glyph glyph-name="dcaron" unicode="&#x10f;" horiz-adv-x="524" 
d="M345 434v272h72v-706h-71v64q-46 -73 -139 -73q-108 0 -152 96q-24 55 -24 161t24 161q44 97 152 97q91 0 138 -72zM472 706h62l-30 -159h-56zM345 206v83q0 73 -31.5 112.5t-87.5 39.5q-74 0 -101 -65q-17 -39 -17 -128t17 -129q28 -64 101 -64q56 0 87.5 39.5
t31.5 111.5z" />
    <glyph glyph-name="Dcroat" unicode="&#x110;" horiz-adv-x="559" 
d="M485 571q31 -68 31 -218t-31 -218q-61 -135 -240 -135h-187v331h-53v67h53v308h187q179 0 240 -135zM412 165q24 52 24 188t-24 188q-43 96 -176 96h-103v-239h144v-67h-144v-262h103q133 0 176 96z" />
    <glyph glyph-name="dcroat" unicode="&#x111;" horiz-adv-x="468" 
d="M472 635v-53h-55v-582h-71v64q-46 -73 -139 -73q-108 0 -152 96q-24 55 -24 161t24 161q44 97 152 97q91 0 138 -72v148h-151v53h151v71h72v-71h55zM345 206v83q0 73 -31.5 112.5t-87.5 39.5q-74 0 -101 -65q-17 -39 -17 -128t17 -129q28 -64 101 -64q56 0 87.5 39.5
t31.5 111.5z" />
    <glyph glyph-name="Emacron" unicode="&#x112;" horiz-adv-x="426" 
d="M94 788v55h263v-55h-263zM57 0v706h336v-69h-260v-237h257v-69h-257v-262h260v-69h-336z" />
    <glyph glyph-name="emacron" unicode="&#x113;" horiz-adv-x="454" 
d="M352 649v-56h-246v56h246zM314 80q30 27 34 92h72q-4 -90 -52 -135q-52 -46 -135 -46q-133 0 -179 105q-23 49 -23 152q0 102 23 152q47 106 174 106q125 0 172 -102q22 -53 22 -170h-317q1 -82 16 -115q30 -66 110 -66q53 0 83 27zM229 443q-78 0 -108 -67
q-14 -32 -15 -85h242q-2 59 -15 90q-29 62 -104 62z" />
    <glyph glyph-name="Ebreve" unicode="&#x114;" horiz-adv-x="426" 
d="M226 751q-124 0 -130 123h56q3 -39 21 -57t53 -18t52 17.5t22 57.5h54q-4 -123 -128 -123zM57 0v706h336v-69h-260v-237h257v-69h-257v-262h260v-69h-336z" />
    <glyph glyph-name="ebreve" unicode="&#x115;" horiz-adv-x="454" 
d="M229 554q-67 0 -98.5 37.5t-34.5 114.5h58q2 -55 18.5 -78.5t56.5 -23.5t56.5 23.5t19.5 78.5h57q-3 -77 -34.5 -114.5t-98.5 -37.5zM314 80q30 27 34 92h72q-4 -90 -52 -135q-52 -46 -135 -46q-133 0 -179 105q-23 49 -23 152q0 102 23 152q47 106 174 106
q125 0 172 -102q22 -53 22 -170h-317q1 -82 16 -115q30 -66 110 -66q53 0 83 27zM229 443q-78 0 -108 -67q-14 -32 -15 -85h242q-2 59 -15 90q-29 62 -104 62z" />
    <glyph glyph-name="Edotaccent" unicode="&#x116;" horiz-adv-x="426" 
d="M226 771q-21 0 -34.5 12.5t-13.5 33.5q0 20 13.5 32.5t34.5 12.5q20 0 33 -12.5t13 -32.5q0 -21 -13 -33.5t-33 -12.5zM57 0v706h336v-69h-260v-237h257v-69h-257v-262h260v-69h-336z" />
    <glyph glyph-name="edotaccent" unicode="&#x117;" horiz-adv-x="454" 
d="M230 575q-22 0 -35.5 13t-13.5 33q0 21 13.5 34t35.5 13q21 0 34.5 -13t13.5 -34q0 -19 -14 -32.5t-34 -13.5zM314 80q30 27 34 92h72q-4 -90 -52 -135q-52 -46 -135 -46q-133 0 -179 105q-23 49 -23 152q0 102 23 152q47 106 174 106q125 0 172 -102q22 -53 22 -170
h-317q1 -82 16 -115q30 -66 110 -66q53 0 83 27zM229 443q-78 0 -108 -67q-14 -32 -15 -85h242q-2 59 -15 90q-29 62 -104 62z" />
    <glyph glyph-name="Eogonek" unicode="&#x118;" horiz-adv-x="426" 
d="M359 -150q23 0 44 9v-50q-25 -9 -56 -9q-43 0 -68.5 20.5t-25.5 58.5q0 33 20 61t60 60h-276v706h336v-69h-260v-237h257v-69h-257v-262h260v-69h-1q-42 -38 -59.5 -61.5t-17.5 -49.5q0 -39 44 -39z" />
    <glyph glyph-name="eogonek" unicode="&#x119;" horiz-adv-x="454" 
d="M420 172q-2 -53 -17.5 -87t-57.5 -75q-42 -42 -58.5 -65.5t-16.5 -50.5q0 -44 44 -44q22 0 43 9v-50q-25 -9 -55 -9q-44 0 -69.5 22t-25.5 62q0 54 61 109q-22 -2 -35 -2q-133 0 -179 105q-23 49 -23 152q0 102 23 152q47 106 174 106q125 0 172 -102q22 -53 22 -170
h-317q1 -82 16 -115q30 -66 110 -66q53 0 83 27t34 92h72zM229 443q-78 0 -108 -67q-14 -32 -15 -85h243q-2 57 -16 90q-29 62 -104 62z" />
    <glyph glyph-name="Ecaron" unicode="&#x11a;" horiz-adv-x="426" 
d="M374 874l-103 -119h-92l-103 119h78l71 -81l72 81h77zM57 0v706h336v-69h-260v-237h257v-69h-257v-262h260v-69h-336z" />
    <glyph glyph-name="ecaron" unicode="&#x11b;" horiz-adv-x="454" 
d="M275 557h-92l-91 148h71l66 -109l67 109h71zM314 80q30 27 34 92h72q-4 -90 -52 -135q-52 -46 -135 -46q-133 0 -179 105q-23 49 -23 152q0 102 23 152q47 106 174 106q125 0 172 -102q22 -53 22 -170h-317q1 -82 16 -115q30 -66 110 -66q53 0 83 27zM229 443
q-78 0 -108 -67q-14 -32 -15 -85h242q-2 59 -15 90q-29 62 -104 62z" />
    <glyph glyph-name="Gcircumflex" unicode="&#x11c;" horiz-adv-x="589" 
d="M303 837l-72 -82h-77l103 119h92l103 -119h-78zM318 363h228v-49q0 -132 -31 -203q-56 -125 -212 -125q-164 0 -228 141q-31 68 -31 226t31 226q64 141 230 141q105 0 166 -56q65 -60 69 -185h-75q-6 96 -48 134q-41 36 -113 36q-114 0 -156 -94q-25 -58 -25 -202
q0 -146 26 -202q42 -94 156 -94q109 0 146 83q20 46 20 150v4h-153v69z" />
    <glyph glyph-name="gcircumflex" unicode="&#x11d;" horiz-adv-x="467" 
d="M228 667l-66 -109h-71l92 148h92l91 -148h-71zM345 495h72v-487q0 -74 -20 -119q-41 -90 -170 -90q-91 0 -140 44q-42 38 -47 113h74q1 -46 28 -70q31 -26 86 -26q79 0 105 56q11 28 11 79v68q-47 -71 -137 -71q-110 0 -152 96q-24 56 -24 160q0 106 24 161q43 97 152 97
q93 0 138 -74v63zM226 56q56 0 87 39.5t31 111.5v82q0 72 -31 112t-87 40q-73 0 -102 -65q-16 -36 -16 -128q0 -90 16 -128q30 -64 102 -64z" />
    <glyph glyph-name="Gbreve" unicode="&#x11e;" horiz-adv-x="589" 
d="M304 751q-124 0 -130 123h56q3 -39 21 -57t53 -18t52 17.5t22 57.5h54q-4 -123 -128 -123zM318 363h228v-49q0 -132 -31 -203q-56 -125 -212 -125q-164 0 -228 141q-31 68 -31 226t31 226q64 141 230 141q105 0 166 -56q65 -60 69 -185h-75q-6 96 -48 134q-41 36 -113 36
q-114 0 -156 -94q-25 -58 -25 -202q0 -146 26 -202q42 -94 156 -94q109 0 146 83q20 46 20 150v4h-153v69z" />
    <glyph glyph-name="gbreve" unicode="&#x11f;" horiz-adv-x="467" 
d="M229 554q-67 0 -98.5 37.5t-34.5 114.5h58q2 -55 18.5 -78.5t56.5 -23.5t56.5 23.5t19.5 78.5h57q-3 -77 -34.5 -114.5t-98.5 -37.5zM345 495h72v-487q0 -74 -20 -119q-41 -90 -170 -90q-91 0 -140 44q-42 38 -47 113h74q1 -46 28 -70q31 -26 86 -26q79 0 105 56
q11 28 11 79v68q-47 -71 -137 -71q-110 0 -152 96q-24 56 -24 160q0 106 24 161q43 97 152 97q93 0 138 -74v63zM226 56q56 0 87 39.5t31 111.5v82q0 72 -31 112t-87 40q-73 0 -102 -65q-16 -36 -16 -128q0 -90 16 -128q30 -64 102 -64z" />
    <glyph glyph-name="Gdotaccent" unicode="&#x120;" horiz-adv-x="589" 
d="M303 771q-21 0 -34.5 12.5t-13.5 33.5q0 20 13.5 32.5t34.5 12.5q20 0 33 -12.5t13 -32.5q0 -21 -13 -33.5t-33 -12.5zM318 363h228v-49q0 -132 -31 -203q-56 -125 -212 -125q-164 0 -228 141q-31 68 -31 226t31 226q64 141 230 141q105 0 166 -56q65 -60 69 -185h-75
q-6 96 -48 134q-41 36 -113 36q-114 0 -156 -94q-25 -58 -25 -202q0 -146 26 -202q42 -94 156 -94q109 0 146 83q20 46 20 150v4h-153v69z" />
    <glyph glyph-name="gdotaccent" unicode="&#x121;" horiz-adv-x="467" 
d="M229 575q-22 0 -35.5 13t-13.5 33q0 21 13.5 34t35.5 13q21 0 34.5 -13t13.5 -34q0 -19 -14 -32.5t-34 -13.5zM345 495h72v-487q0 -74 -20 -119q-41 -90 -170 -90q-91 0 -140 44q-42 38 -47 113h74q1 -46 28 -70q31 -26 86 -26q79 0 105 56q11 28 11 79v68
q-47 -71 -137 -71q-110 0 -152 96q-24 56 -24 160q0 106 24 161q43 97 152 97q93 0 138 -74v63zM226 56q56 0 87 39.5t31 111.5v82q0 72 -31 112t-87 40q-73 0 -102 -65q-16 -36 -16 -128q0 -90 16 -128q30 -64 102 -64z" />
    <glyph glyph-name="uni0122" unicode="&#x122;" horiz-adv-x="589" 
d="M318 363h228v-49q0 -132 -31 -203q-56 -125 -212 -125q-164 0 -228 141q-31 68 -31 226t31 226q64 141 230 141q105 0 166 -56q65 -60 69 -185h-75q-6 96 -48 134q-41 36 -113 36q-114 0 -156 -94q-25 -58 -25 -202q0 -146 26 -202q42 -94 156 -94q109 0 146 83
q20 46 20 150v4h-153v69zM239 -191l28 142h73l-33 -142h-68z" />
    <glyph glyph-name="uni0123" unicode="&#x123;" horiz-adv-x="467" 
d="M276 702l-28 -142h-73l33 142h68zM345 495h72v-487q0 -74 -20 -119q-41 -90 -170 -90q-91 0 -140 44q-42 38 -47 113h74q1 -46 28 -70q31 -26 86 -26q79 0 105 56q11 28 11 79v68q-47 -71 -137 -71q-110 0 -152 96q-24 56 -24 160q0 106 24 161q43 97 152 97
q93 0 138 -74v63zM226 56q56 0 87 39.5t31 111.5v82q0 72 -31 112t-87 40q-73 0 -102 -65q-16 -36 -16 -128q0 -90 16 -128q30 -64 102 -64z" />
    <glyph glyph-name="Hcircumflex" unicode="&#x124;" horiz-adv-x="537" 
d="M120 755l103 119h92l103 -119h-78l-71 82l-72 -82h-77zM57 0v706h76v-306h271v306h76v-706h-76v331h-271v-331h-76z" />
    <glyph glyph-name="hcircumflex" unicode="&#x125;" horiz-adv-x="451" 
d="M228 837l-72 -82h-77l103 119h92l103 -119h-78zM253 505q150 0 150 -173v-332h-72v317q0 65 -23.5 94.5t-74.5 29.5q-53 0 -81.5 -32t-28.5 -93v-316h-72v706h72v-266q40 65 130 65z" />
    <glyph glyph-name="Hbar" unicode="&#x126;" horiz-adv-x="537" 
d="M404 706h76v-706h-76v331h-271v-331h-76v706h76v-123h271v123zM133 400h271v130h-271v-130z" />
    <glyph glyph-name="hbar" unicode="&#x127;" horiz-adv-x="451" 
d="M253 505q150 0 150 -173v-332h-72v317q0 65 -23.5 94.5t-74.5 29.5q-53 0 -81.5 -32t-28.5 -93v-316h-72v582h-50v53h50v71h72v-71h156v-53h-156v-142q40 65 130 65z" />
    <glyph glyph-name="Itilde" unicode="&#x128;" horiz-adv-x="189" 
d="M149 752q-24 0 -38 10t-28 30q-10 14 -13.5 18t-11.5 9.5t-17 5.5q-16 0 -22 -16.5t-8 -53.5h-47q3 121 76 121q24 0 38 -10t29 -29q13 -18 21 -25.5t19 -7.5q16 0 21.5 15.5t7.5 54.5h48q-2 -63 -19.5 -92.5t-55.5 -29.5zM57 0v706h76v-706h-76z" />
    <glyph glyph-name="itilde" unicode="&#x129;" horiz-adv-x="174" 
d="M137 556q-28 0 -42 15t-25 44q-5 15 -8 21.5t-8.5 13t-12.5 6.5q-14 0 -18 -21t-5 -76h-49q1 80 15 114.5t54 34.5q28 0 42 -15t25 -44q1 -3 3 -7q15 -32 26 -34q14 0 18 21t5 77h49q-1 -81 -15 -115.5t-54 -34.5zM51 0v495h72v-495h-72z" />
    <glyph glyph-name="Imacron" unicode="&#x12a;" horiz-adv-x="189" 
d="M-6 787v55h201v-55h-201zM57 0v706h76v-706h-76z" />
    <glyph glyph-name="imacron" unicode="&#x12b;" horiz-adv-x="174" 
d="M-7 593v56h189v-56h-189zM51 0v495h72v-495h-72z" />
    <glyph glyph-name="Ibreve" unicode="&#x12c;" horiz-adv-x="189" 
d="M95 751q-57 0 -83 30t-26 93h55q1 -41 13 -58t41 -17t41 17.5t13 57.5h54q0 -63 -25.5 -93t-82.5 -30zM57 0v706h76v-706h-76z" />
    <glyph glyph-name="ibreve" unicode="&#x12d;" horiz-adv-x="174" 
d="M87 554q-57 0 -83.5 37t-26.5 115h54q0 -57 12.5 -80t43.5 -23t43 23t12 80h54q0 -78 -26 -115t-83 -37zM51 0v495h72v-495h-72z" />
    <glyph glyph-name="Iogonek" unicode="&#x12e;" horiz-adv-x="189" 
d="M111 -150q19 0 35 9v-50q-21 -9 -47 -9q-39 0 -62 18.5t-23 53.5q0 59 61 128h-18v706h76v-706q-57 -72 -57 -118q0 -32 35 -32z" />
    <glyph glyph-name="iogonek" unicode="&#x12f;" horiz-adv-x="174" 
d="M88 576q-22 0 -35.5 12.5t-13.5 32.5t13.5 33t35.5 13q20 0 33.5 -13t13.5 -33t-13.5 -32.5t-33.5 -12.5zM101 -150q18 0 35 9v-50q-21 -9 -47 -9q-39 0 -62 18.5t-23 53.5q0 59 61 128h-14v495h72v-495q-57 -72 -57 -118q0 -32 35 -32z" />
    <glyph glyph-name="Idotaccent" unicode="&#x130;" horiz-adv-x="189" 
d="M95 771q-21 0 -34.5 12.5t-13.5 33.5q0 20 13.5 32.5t34.5 12.5q20 0 33 -12.5t13 -32.5q0 -21 -13 -33.5t-33 -12.5zM57 0v706h76v-706h-76z" />
    <glyph glyph-name="dotlessi" unicode="&#x131;" horiz-adv-x="174" 
d="M51 0v495h72v-495h-72z" />
    <glyph glyph-name="IJ" unicode="&#x132;" horiz-adv-x="450" 
d="M57 0v706h76v-706h-76zM245 -3q-23 0 -49 3v72q17 -3 35 -3q49 0 69.5 23.5t20.5 78.5v535h76v-549q0 -83 -36 -121.5t-116 -38.5z" />
    <glyph glyph-name="ij" unicode="&#x133;" horiz-adv-x="352" 
d="M88 576q-22 0 -35.5 12.5t-13.5 32.5t13.5 33t35.5 13q20 0 33.5 -13t13.5 -33t-13.5 -32.5t-33.5 -12.5zM266 576q-22 0 -35.5 12.5t-13.5 32.5t13.5 33t35.5 13q20 0 33.5 -13t13.5 -33t-13.5 -32.5t-33.5 -12.5zM51 0v495h72v-495h-72zM184 -193q-25 0 -39 2v66
q11 -2 27 -2q32 0 45 14.5t13 50.5v557h72v-564q0 -66 -28 -95t-90 -29z" />
    <glyph glyph-name="Jcircumflex" unicode="&#x134;" horiz-adv-x="261" 
d="M55 755l73 119h83l73 -119h-65l-49 81l-49 -81h-66zM56 -3q-24 0 -49 3v72q16 -3 35 -3q49 0 69.5 23.5t20.5 78.5v535h76v-549q0 -83 -36 -121.5t-116 -38.5z" />
    <glyph glyph-name="jcircumflex" unicode="&#x135;" horiz-adv-x="179" 
d="M-29 558l79 148h83l78 -148h-64l-56 106l-56 -106h-64zM10 -193q-25 0 -39 2v66q11 -2 27 -2q32 0 45 14.5t13 50.5v557h72v-564q0 -66 -28 -95t-90 -29z" />
    <glyph glyph-name="uni0136" unicode="&#x136;" horiz-adv-x="472" 
d="M202 384l267 -384h-90l-246 353v-353h-76v706h76v-296l215 296h86zM183 -191l28 142h73l-33 -142h-68z" />
    <glyph glyph-name="uni0137" unicode="&#x137;" horiz-adv-x="395" 
d="M190 276l205 -276h-91l-181 250v-250h-72v706h72v-407l161 196h89zM147 -191l28 142h73l-33 -142h-68z" />
    <glyph glyph-name="kgreenlandic" unicode="&#x138;" horiz-adv-x="395" 
d="M395 0h-91l-181 250v-250h-72v495h72v-196l161 196h89l-183 -219z" />
    <glyph glyph-name="Lacute" unicode="&#x139;" horiz-adv-x="325" 
d="M26 755l101 119h84l-108 -119h-77zM57 0v706h76v-637h185v-69h-261z" />
    <glyph glyph-name="lacute" unicode="&#x13a;" horiz-adv-x="174" 
d="M20 755l101 119h84l-108 -119h-77zM51 0v706h72v-706h-72z" />
    <glyph glyph-name="uni013B" unicode="&#x13b;" horiz-adv-x="325" 
d="M57 0v706h76v-637h185v-69h-261zM120 -191l28 142h73l-33 -142h-68z" />
    <glyph glyph-name="uni013C" unicode="&#x13c;" horiz-adv-x="174" 
d="M51 0v706h72v-706h-72zM23 -191l28 142h73l-33 -142h-68z" />
    <glyph glyph-name="Lcaron" unicode="&#x13d;" horiz-adv-x="329" 
d="M57 0v706h76v-637h185v-69h-261zM188 547l25 159h62l-31 -159h-56z" />
    <glyph glyph-name="lcaron" unicode="&#x13e;" horiz-adv-x="230" 
d="M51 0v706h72v-706h-72zM154 547l24 159h62l-30 -159h-56z" />
    <glyph glyph-name="Ldot" unicode="&#x13f;" horiz-adv-x="385" 
d="M57 0v706h76v-637h185v-69h-261zM285 337q-23 0 -37.5 13.5t-14.5 35.5q0 23 14.5 36.5t37.5 13.5t37 -13.5t14 -36.5q0 -22 -14 -35.5t-37 -13.5z" />
    <glyph glyph-name="ldot" unicode="&#x140;" horiz-adv-x="296" 
d="M51 0v706h72v-706h-72zM235 320q-23 0 -37 13.5t-14 35.5q0 23 14 37t37 14t37 -14t14 -37q0 -22 -14 -35.5t-37 -13.5z" />
    <glyph glyph-name="Lslash" unicode="&#x141;" horiz-adv-x="326" 
d="M134 69h185v-69h-261v324l-57 -39v71l57 40v310h76v-268l120 83v-73l-120 -82v-297z" />
    <glyph glyph-name="lslash" unicode="&#x142;" horiz-adv-x="188" 
d="M188 484v-67l-61 -46v-371h-72v330l-57 -41v67l57 41v309h72v-267z" />
    <glyph glyph-name="Nacute" unicode="&#x143;" horiz-adv-x="563" 
d="M215 755l101 119h84l-108 -119h-77zM57 0v706h81l294 -575v575h74v-706h-81l-295 577v-577h-73z" />
    <glyph glyph-name="nacute" unicode="&#x144;" horiz-adv-x="451" 
d="M329 706l-90 -147h-68l83 147h75zM253 505q150 0 150 -173v-332h-72v317q0 65 -23.5 94.5t-74.5 29.5q-53 0 -81.5 -32t-28.5 -93v-316h-72v495h72v-55q41 65 130 65z" />
    <glyph glyph-name="uni0145" unicode="&#x145;" horiz-adv-x="563" 
d="M57 0v706h81l294 -575v575h74v-706h-81l-295 577v-577h-73zM214 -191l28 142h73l-33 -142h-68z" />
    <glyph glyph-name="uni0146" unicode="&#x146;" horiz-adv-x="451" 
d="M253 505q150 0 150 -173v-332h-72v317q0 65 -23.5 94.5t-74.5 29.5q-53 0 -81.5 -32t-28.5 -93v-316h-72v495h72v-55q41 65 130 65zM171 -191l28 142h73l-33 -142h-68z" />
    <glyph glyph-name="Ncaron" unicode="&#x147;" horiz-adv-x="563" 
d="M430 874l-103 -119h-92l-103 119h78l71 -81l72 81h77zM57 0v706h81l294 -575v575h74v-706h-81l-295 577v-577h-73z" />
    <glyph glyph-name="ncaron" unicode="&#x148;" horiz-adv-x="451" 
d="M273 557h-92l-91 148h71l66 -109l67 109h71zM253 505q150 0 150 -173v-332h-72v317q0 65 -23.5 94.5t-74.5 29.5q-53 0 -81.5 -32t-28.5 -93v-316h-72v495h72v-55q41 65 130 65z" />
    <glyph glyph-name="napostrophe" unicode="&#x149;" horiz-adv-x="580" 
d="M37 434l58 272h76l-76 -272h-58zM383 505q150 0 150 -173v-332h-72v317q0 65 -23.5 94.5t-74.5 29.5q-53 0 -82 -32t-29 -93v-316h-72v495h72v-56q41 66 131 66z" />
    <glyph glyph-name="Eng" unicode="&#x14a;" horiz-adv-x="563" 
d="M432 706h74v-780q0 -63 -27 -91t-86 -28q-29 0 -45 2v63q11 -1 26 -1q31 0 45 16t14 52v62l-303 577v-578h-73v706h81l294 -564v564z" />
    <glyph glyph-name="eng" unicode="&#x14b;" horiz-adv-x="451" 
d="M254 505q149 0 149 -173v-401q0 -66 -28 -95t-90 -29q-25 0 -39 2v66q12 -2 27 -2q31 0 44.5 14.5t13.5 50.5v379q0 65 -23.5 94.5t-74.5 29.5q-53 0 -81.5 -32t-28.5 -93v-316h-72v495h72v-55q40 65 131 65z" />
    <glyph glyph-name="Omacron" unicode="&#x14c;" horiz-adv-x="606" 
d="M172 788v55h263v-55h-263zM303 -14q-164 0 -226 137q-33 74 -33 230t33 230q62 137 226 137t226 -137q33 -74 33 -230t-33 -230q-62 -137 -226 -137zM303 58q111 0 154 95q26 57 26 200t-26 200q-43 95 -154 95q-112 0 -154 -95q-26 -57 -26 -200t26 -200q42 -95 154 -95
z" />
    <glyph glyph-name="omacron" unicode="&#x14d;" horiz-adv-x="453" 
d="M104 593v56h246v-56h-246zM226 -9q-125 0 -171 105q-24 51 -24 152t24 152q47 106 171 106t173 -106q23 -52 23 -152t-23 -152q-48 -105 -173 -105zM226 55q73 0 103 64q16 36 16 129t-16 129q-30 64 -103 64q-72 0 -102 -64q-17 -38 -17 -129t17 -129q30 -64 102 -64z
" />
    <glyph glyph-name="Obreve" unicode="&#x14e;" horiz-adv-x="606" 
d="M304 751q-124 0 -130 123h56q3 -39 21 -57t53 -18t52 17.5t22 57.5h54q-4 -123 -128 -123zM303 -14q-164 0 -226 137q-33 74 -33 230t33 230q62 137 226 137t226 -137q33 -74 33 -230t-33 -230q-62 -137 -226 -137zM303 58q111 0 154 95q26 57 26 200t-26 200
q-43 95 -154 95q-112 0 -154 -95q-26 -57 -26 -200t26 -200q42 -95 154 -95z" />
    <glyph glyph-name="obreve" unicode="&#x14f;" horiz-adv-x="453" 
d="M227 554q-67 0 -98.5 37.5t-34.5 114.5h58q2 -55 18.5 -78.5t56.5 -23.5t56.5 23.5t19.5 78.5h57q-3 -77 -34.5 -114.5t-98.5 -37.5zM226 -9q-125 0 -171 105q-24 51 -24 152t24 152q47 106 171 106t173 -106q23 -52 23 -152t-23 -152q-48 -105 -173 -105zM226 55
q73 0 103 64q16 36 16 129t-16 129q-30 64 -103 64q-72 0 -102 -64q-17 -38 -17 -129t17 -129q30 -64 102 -64z" />
    <glyph glyph-name="Ohungarumlaut" unicode="&#x150;" horiz-adv-x="606" 
d="M200 756l94 118h72l-105 -118h-61zM330 756l94 118h72l-105 -118h-61zM303 -14q-164 0 -226 137q-33 74 -33 230t33 230q62 137 226 137t226 -137q33 -74 33 -230t-33 -230q-62 -137 -226 -137zM303 58q111 0 154 95q26 57 26 200t-26 200q-43 95 -154 95
q-112 0 -154 -95q-26 -57 -26 -200t26 -200q42 -95 154 -95z" />
    <glyph glyph-name="ohungarumlaut" unicode="&#x151;" horiz-adv-x="453" 
d="M127 559l94 147h69l-106 -147h-57zM252 559l96 147h68l-106 -147h-58zM226 -9q-125 0 -171 105q-24 51 -24 152t24 152q47 106 171 106t173 -106q23 -52 23 -152t-23 -152q-48 -105 -173 -105zM226 55q73 0 103 64q16 36 16 129t-16 129q-30 64 -103 64q-72 0 -102 -64
q-17 -38 -17 -129t17 -129q30 -64 102 -64z" />
    <glyph glyph-name="OE" unicode="&#x152;" horiz-adv-x="833" 
d="M800 637h-259v-237h256v-69h-256v-262h259v-69h-334v65q-60 -76 -172 -76q-158 0 -216 131q-34 75 -34 233q0 160 34 233q59 131 216 131q113 0 172 -76v65h334v-69zM440 150q26 57 26 203t-26 203q-43 92 -145 92q-105 0 -146 -92q-26 -59 -26 -203t26 -203
q41 -92 146 -92q104 0 145 92z" />
    <glyph glyph-name="oe" unicode="&#x153;" horiz-adv-x="736" 
d="M613 101q13 21 16 71h74q-4 -74 -30 -109q-43 -72 -148 -72q-108 0 -156 80q-50 -80 -150 -80q-119 0 -164 103q-24 51 -24 154t24 154q45 104 164 104q101 0 149 -81q48 81 150 81q117 0 164 -99q23 -52 23 -173h-301q1 -79 16 -117q30 -64 103 -64q65 0 90 48zM520 444
q-72 0 -99 -58q-15 -34 -16 -95h225q-3 67 -16 96q-28 57 -94 57zM312 113q17 38 17 135t-17 134q-27 59 -93 59q-67 0 -95 -61q-16 -35 -16 -132q0 -96 16 -132q29 -61 95 -61t93 58z" />
    <glyph glyph-name="Racute" unicode="&#x154;" horiz-adv-x="493" 
d="M361 874l-108 -119h-77l101 119h84zM406 0l-188 331h-85v-331h-76v706h201q143 0 183 -87q16 -36 16 -98q0 -66 -16 -99q-34 -79 -142 -89l192 -333h-85zM133 639v-242h108q101 0 127 54q10 23 10 68q0 47 -9 66q-26 54 -128 54h-108z" />
    <glyph glyph-name="racute" unicode="&#x155;" horiz-adv-x="280" 
d="M261 706l-90 -147h-68l83 147h75zM231 500q19 0 37 -5v-66q-20 4 -36 4q-54 0 -81.5 -35t-27.5 -98v-300h-72v495h72v-55q33 60 108 60z" />
    <glyph glyph-name="uni0156" unicode="&#x156;" horiz-adv-x="493" 
d="M299 333l192 -333h-85l-188 331h-85v-331h-76v706h201q143 0 183 -87q16 -36 16 -98q0 -66 -16 -99q-34 -79 -142 -89zM133 639v-242h108q101 0 127 54q10 23 10 68q0 47 -9 66q-26 54 -128 54h-108zM203 -191l28 142h73l-33 -142h-68z" />
    <glyph glyph-name="uni0157" unicode="&#x157;" horiz-adv-x="280" 
d="M231 500q19 0 37 -5v-66q-20 4 -36 4q-54 0 -81.5 -35t-27.5 -98v-300h-72v495h72v-55q33 60 108 60zM22 -191l28 142h73l-33 -142h-68z" />
    <glyph glyph-name="Rcaron" unicode="&#x158;" horiz-adv-x="493" 
d="M288 755h-92l-103 119h78l71 -81l72 81h77zM406 0l-188 331h-85v-331h-76v706h201q143 0 183 -87q16 -36 16 -98q0 -66 -16 -99q-34 -79 -142 -89l192 -333h-85zM133 639v-242h108q101 0 127 54q10 23 10 68q0 47 -9 66q-26 54 -128 54h-108z" />
    <glyph glyph-name="rcaron" unicode="&#x159;" horiz-adv-x="280" 
d="M205 557h-92l-91 148h71l66 -109l67 109h71zM123 440q33 60 108 60q19 0 37 -5v-66q-20 4 -36 4q-54 0 -81.5 -35t-27.5 -98v-300h-72v495h72v-55z" />
    <glyph glyph-name="Sacute" unicode="&#x15a;" horiz-adv-x="507" 
d="M186 755l101 119h84l-109 -119h-76zM252 -14q-148 0 -197 104q-20 45 -20 137h82q0 -77 14 -108q30 -66 124 -66q98 0 125 63q11 22 11 64t-11 64q-8 18 -21 31t-39 24.5t-42.5 17.5t-55.5 18q-64 20 -103.5 44.5t-57.5 63.5q-15 35 -15 90q0 54 17 89q20 46 67.5 72
t115.5 26q137 0 181 -101q20 -46 20 -129h-78q0 70 -14 102q-29 63 -111 63q-85 0 -111 -59q-9 -21 -9 -58q0 -39 9 -60q13 -29 45.5 -45t94.5 -36q11 -3 17 -5q68 -21 108.5 -45.5t58.5 -65.5q15 -33 15 -95q0 -63 -16 -96q-22 -49 -74.5 -76.5t-129.5 -27.5z" />
    <glyph glyph-name="sacute" unicode="&#x15b;" horiz-adv-x="389" 
d="M141 559l83 147h75l-90 -147h-68zM194 -11q-115 0 -151 79q-15 33 -15 97h70q0 -48 10 -69q21 -47 87 -47t84 41q7 14 7 38q0 27 -6 42q-7 15 -24.5 27t-30 16t-46.5 15q-104 31 -127 85q-10 21 -10 60t11 61q30 71 138 71t140 -71q13 -27 13 -85h-69q0 39 -9 59
q-18 40 -75 40q-58 0 -73 -35q-6 -15 -6 -35q0 -22 6 -34q7 -15 25 -27t32 -17t47 -15q51 -17 82.5 -35.5t45.5 -50.5q11 -25 11 -66q0 -43 -12 -67q-35 -77 -155 -77z" />
    <glyph glyph-name="Scircumflex" unicode="&#x15c;" horiz-adv-x="507" 
d="M109 755l102 119h92l104 -119h-79l-71 82l-71 -82h-77zM252 -14q-148 0 -197 104q-20 45 -20 137h82q0 -77 14 -108q30 -66 124 -66q98 0 125 63q11 22 11 64t-11 64q-8 18 -21 31t-39 24.5t-42.5 17.5t-55.5 18q-64 20 -103.5 44.5t-57.5 63.5q-15 35 -15 90q0 54 17 89
q20 46 67.5 72t115.5 26q137 0 181 -101q20 -46 20 -129h-78q0 70 -14 102q-29 63 -111 63q-85 0 -111 -59q-9 -21 -9 -58q0 -39 9 -60q13 -29 45.5 -45t94.5 -36q11 -3 17 -5q68 -21 108.5 -45.5t58.5 -65.5q15 -33 15 -95q0 -63 -16 -96q-22 -49 -74.5 -76.5t-129.5 -27.5
z" />
    <glyph glyph-name="scircumflex" unicode="&#x15d;" horiz-adv-x="389" 
d="M61 558l92 148h92l91 -148h-71l-67 109l-66 -109h-71zM194 -11q-115 0 -151 79q-15 33 -15 97h70q0 -48 10 -69q21 -47 87 -47t84 41q7 14 7 38q0 27 -6 42q-7 15 -24.5 27t-30 16t-46.5 15q-104 31 -127 85q-10 21 -10 60t11 61q30 71 138 71t140 -71q13 -27 13 -85h-69
q0 39 -9 59q-18 40 -75 40q-58 0 -73 -35q-6 -15 -6 -35q0 -22 6 -34q7 -15 25 -27t32 -17t47 -15q51 -17 82.5 -35.5t45.5 -50.5q11 -25 11 -66q0 -43 -12 -67q-35 -77 -155 -77z" />
    <glyph glyph-name="Scedilla" unicode="&#x15e;" horiz-adv-x="507" 
d="M457 281q15 -33 15 -95q0 -63 -16 -96q-43 -95 -181 -103l-10 -38h8q43 0 66 -20t23 -55q0 -81 -108 -81q-39 0 -69 12l9 43q28 -10 55 -10q58 0 58 37q0 36 -60 36h-45l20 76q-124 10 -167 103q-20 45 -20 137h82q0 -77 14 -108q30 -66 124 -66q98 0 125 63q11 22 11 64
t-11 64q-8 18 -21 31t-39 24.5t-42.5 17.5t-55.5 18q-64 20 -103.5 44.5t-57.5 63.5q-15 35 -15 90q0 54 17 89q20 46 67.5 72t115.5 26q137 0 181 -101q20 -46 20 -129h-78q0 70 -14 102q-29 63 -111 63q-85 0 -111 -59q-9 -21 -9 -58q0 -39 9 -60q13 -29 45.5 -45
t94.5 -36q11 -3 17 -5q68 -21 108.5 -45.5t58.5 -65.5z" />
    <glyph glyph-name="scedilla" unicode="&#x15f;" horiz-adv-x="389" 
d="M350 199q11 -25 11 -66q0 -43 -12 -67q-30 -67 -126 -76l-11 -38h8q43 0 66 -20.5t23 -55.5q0 -80 -108 -80q-38 0 -69 11l9 44q23 -10 55 -10q57 0 57 37q0 36 -60 36h-44l20 76q-95 9 -126 78q-15 33 -15 97h70q0 -48 10 -69q21 -47 87 -47t84 41q7 14 7 38q0 27 -6 42
q-7 15 -24.5 27t-30 16t-46.5 15q-104 31 -127 85q-10 21 -10 60t11 61q30 71 138 71t140 -71q13 -27 13 -85h-69q0 39 -9 59q-18 40 -75 40q-58 0 -73 -35q-6 -15 -6 -35q0 -22 6 -34q7 -15 25 -27t32 -17t47 -15q51 -17 82.5 -35.5t45.5 -50.5z" />
    <glyph glyph-name="Scaron" unicode="&#x160;" horiz-adv-x="507" 
d="M399 874l-103 -119h-92l-103 119h78l72 -81l71 81h77zM252 -14q-148 0 -197 104q-20 45 -20 137h82q0 -77 14 -108q30 -66 124 -66q98 0 125 63q11 22 11 64t-11 64q-8 18 -21 31t-39 24.5t-42.5 17.5t-55.5 18q-64 20 -103.5 44.5t-57.5 63.5q-15 35 -15 90q0 54 17 89
q20 46 67.5 72t115.5 26q137 0 181 -101q20 -46 20 -129h-78q0 70 -14 102q-29 63 -111 63q-85 0 -111 -59q-9 -21 -9 -58q0 -39 9 -60q13 -29 45.5 -45t94.5 -36q11 -3 17 -5q68 -21 108.5 -45.5t58.5 -65.5q15 -33 15 -95q0 -63 -16 -96q-22 -49 -74.5 -76.5t-129.5 -27.5
z" />
    <glyph glyph-name="scaron" unicode="&#x161;" horiz-adv-x="389" 
d="M335 705l-92 -148h-92l-91 148h71l66 -109l67 109h71zM194 -11q-115 0 -151 79q-15 33 -15 97h70q0 -48 10 -69q21 -47 87 -47t84 41q7 14 7 38q0 27 -6 42q-7 15 -24.5 27t-30 16t-46.5 15q-104 31 -127 85q-10 21 -10 60t11 61q30 71 138 71t140 -71q13 -27 13 -85h-69
q0 39 -9 59q-18 40 -75 40q-58 0 -73 -35q-6 -15 -6 -35q0 -22 6 -34q7 -15 25 -27t32 -17t47 -15q51 -17 82.5 -35.5t45.5 -50.5q11 -25 11 -66q0 -43 -12 -67q-35 -77 -155 -77z" />
    <glyph glyph-name="uni0162" unicode="&#x162;" horiz-adv-x="382" 
d="M229 0h-11l-13 -46h8q43 0 66 -20.5t23 -55.5q0 -80 -108 -80q-38 0 -69 11l9 44q23 -10 55 -10q57 0 57 37q0 36 -60 36h-44l22 84h-11v637h-146v69h368v-69h-146v-637z" />
    <glyph glyph-name="uni0163" unicode="&#x163;" horiz-adv-x="290" 
d="M203 -45q43 0 66 -20.5t23 -55.5q0 -80 -108 -80q-38 0 -69 11l9 44q23 -10 55 -10q57 0 57 37q0 36 -60 36h-44l22 83q-38 11 -55 42.5t-17 89.5v301h-71v62h71v116h72v-116h120v-62h-120v-290q0 -46 17 -65.5t54 -19.5q25 0 49 6v-62q-34 -8 -67 -8h-1l-11 -39h8z" />
    <glyph glyph-name="Tcaron" unicode="&#x164;" horiz-adv-x="382" 
d="M340 874l-103 -119h-92l-103 119h78l71 -81l72 81h77zM153 0v637h-146v69h368v-69h-146v-637h-76z" />
    <glyph glyph-name="tcaron" unicode="&#x165;" horiz-adv-x="314" 
d="M195 547l24 159h62l-30 -159h-56zM207 -6q-66 0 -95.5 31.5t-29.5 106.5v301h-71v62h71v116h72v-116h120v-62h-120v-290q0 -46 17 -65.5t54 -19.5q25 0 49 6v-62q-34 -8 -67 -8z" />
    <glyph glyph-name="Tbar" unicode="&#x166;" horiz-adv-x="382" 
d="M375 637h-146v-193h111v-60h-111v-384h-76v384h-114v60h114v193h-146v69h368v-69z" />
    <glyph glyph-name="tbar" unicode="&#x167;" horiz-adv-x="290" 
d="M275 247h-121v-104q0 -46 17 -65.5t54 -19.5q25 0 49 6v-62q-34 -8 -67 -8q-66 0 -95.5 31.5t-29.5 106.5v115h-72v56h72v130h-71v62h71v116h72v-116h120v-62h-120v-130h121v-56z" />
    <glyph glyph-name="Utilde" unicode="&#x168;" horiz-adv-x="521" 
d="M333 750q-47 0 -85 40q-1 1 -6 6.5t-7 7t-6 5.5t-6.5 5t-6.5 3.5t-7.5 3.5t-7.5 2t-9 1q-41 0 -45 -72h-52q5 125 94 125q44 0 85 -41q2 -1 8.5 -8t8.5 -8.5l8 -6t9.5 -6t9 -3t11.5 -1.5q39 0 44 72h52q-5 -125 -92 -125zM260 -14q-108 0 -158.5 49.5t-50.5 152.5v518h77
v-513q0 -70 31.5 -103.5t100.5 -33.5q70 0 101.5 33.5t31.5 103.5v513h76v-518q0 -104 -50 -153t-159 -49z" />
    <glyph glyph-name="utilde" unicode="&#x169;" horiz-adv-x="451" 
d="M159 653q-20 0 -27.5 -21.5t-9.5 -72.5h-51q2 77 21 113t62 36q26 0 43 -13t36 -42q2 -3 7.5 -11t7.5 -10.5t6.5 -8t8 -7.5t8.5 -4t10 -2q20 0 26.5 21.5t8.5 74.5h52q-2 -77 -21.5 -113.5t-63.5 -36.5q-27 0 -44.5 12.5t-34.5 41.5q-2 3 -5.5 9t-5 8t-4.5 7t-5 7t-5.5 5
t-6 4t-6 2t-7.5 1zM328 495h72v-495h-72v56q-41 -66 -131 -66q-150 0 -150 174v331h72v-316q0 -65 23.5 -94.5t74.5 -29.5q53 0 82 31.5t29 92.5v316z" />
    <glyph glyph-name="Umacron" unicode="&#x16a;" horiz-adv-x="521" 
d="M129 788v55h263v-55h-263zM260 -14q-108 0 -158.5 49.5t-50.5 152.5v518h77v-513q0 -70 31.5 -103.5t100.5 -33.5q70 0 101.5 33.5t31.5 103.5v513h76v-518q0 -104 -50 -153t-159 -49z" />
    <glyph glyph-name="umacron" unicode="&#x16b;" horiz-adv-x="451" 
d="M342 649v-56h-246v56h246zM328 495h72v-495h-72v56q-41 -66 -131 -66q-150 0 -150 174v331h72v-316q0 -65 23.5 -94.5t74.5 -29.5q53 0 82 31.5t29 92.5v316z" />
    <glyph glyph-name="Ubreve" unicode="&#x16c;" horiz-adv-x="521" 
d="M261 751q-124 0 -130 123h56q3 -39 21 -57t53 -18t52 17.5t22 57.5h54q-4 -123 -128 -123zM260 -14q-108 0 -158.5 49.5t-50.5 152.5v518h77v-513q0 -70 31.5 -103.5t100.5 -33.5q70 0 101.5 33.5t31.5 103.5v513h76v-518q0 -104 -50 -153t-159 -49z" />
    <glyph glyph-name="ubreve" unicode="&#x16d;" horiz-adv-x="451" 
d="M220 554q-67 0 -98.5 37.5t-34.5 114.5h58q2 -55 18.5 -78.5t56.5 -23.5t56.5 23.5t19.5 78.5h57q-3 -77 -34.5 -114.5t-98.5 -37.5zM328 495h72v-495h-72v56q-41 -66 -131 -66q-150 0 -150 174v331h72v-316q0 -65 23.5 -94.5t74.5 -29.5q53 0 82 31.5t29 92.5v316z" />
    <glyph glyph-name="Uring" unicode="&#x16e;" horiz-adv-x="521" 
d="M260 729q-45 0 -72.5 26.5t-27.5 70.5q0 43 27.5 69t72.5 26q46 0 74 -26.5t28 -68.5q0 -43 -28 -70t-74 -27zM260 773q25 0 39.5 14.5t14.5 38.5q0 23 -15 37.5t-39 14.5t-38.5 -14.5t-14.5 -37.5q0 -24 14.5 -38.5t38.5 -14.5zM260 -14q-108 0 -158.5 49.5t-50.5 152.5
v518h77v-513q0 -70 31.5 -103.5t100.5 -33.5q70 0 101.5 33.5t31.5 103.5v513h76v-518q0 -104 -50 -153t-159 -49z" />
    <glyph glyph-name="uring" unicode="&#x16f;" horiz-adv-x="451" 
d="M219 547q-45 0 -72.5 26.5t-27.5 69.5t27.5 69.5t72.5 26.5t73.5 -27t28.5 -69q0 -43 -28 -69.5t-74 -26.5zM219 696q-24 0 -38.5 -14.5t-14.5 -38.5t14.5 -38t38.5 -14q25 0 39.5 14t14.5 38t-15 38.5t-39 14.5zM328 495h72v-495h-72v56q-41 -66 -131 -66
q-150 0 -150 174v331h72v-316q0 -65 23.5 -94.5t74.5 -29.5q53 0 82 31.5t29 92.5v316z" />
    <glyph glyph-name="Uhungarumlaut" unicode="&#x170;" horiz-adv-x="521" 
d="M158 756l94 118h72l-105 -118h-61zM288 756l94 118h72l-105 -118h-61zM260 -14q-108 0 -158.5 49.5t-50.5 152.5v518h77v-513q0 -70 31.5 -103.5t100.5 -33.5q70 0 101.5 33.5t31.5 103.5v513h76v-518q0 -104 -50 -153t-159 -49z" />
    <glyph glyph-name="uhungarumlaut" unicode="&#x171;" horiz-adv-x="451" 
d="M282 706l-106 -147h-57l94 147h69zM302 559h-58l96 147h68zM328 179v316h72v-495h-72v56q-41 -66 -131 -66q-150 0 -150 174v331h72v-316q0 -65 23.5 -94.5t74.5 -29.5q53 0 82 31.5t29 92.5z" />
    <glyph glyph-name="Uogonek" unicode="&#x172;" horiz-adv-x="520" 
d="M393 706h76v-518q0 -64 -18 -103.5t-56 -74.5q-42 -39 -59.5 -63.5t-17.5 -51.5q0 -45 44 -45q23 0 44 9v-50q-26 -9 -56 -9q-43 0 -68.5 22t-25.5 62q0 53 58 106q-23 -4 -54 -4q-108 0 -158.5 49.5t-50.5 152.5v518h76v-513q0 -70 31.5 -103.5t101.5 -33.5t101.5 33.5
t31.5 103.5v513z" />
    <glyph glyph-name="uogonek" unicode="&#x173;" horiz-adv-x="451" 
d="M366 -150q23 0 44 9v-50q-25 -9 -56 -9q-43 0 -68.5 20.5t-25.5 58.5q0 33 20 61t60 60h-12v56q-41 -66 -131 -66q-150 0 -150 174v331h72v-316q0 -65 23.5 -94.5t74.5 -29.5q53 0 82 31.5t29 92.5v316h72v-495h-1q-42 -38 -59.5 -61.5t-17.5 -49.5q0 -39 44 -39z" />
    <glyph glyph-name="Wcircumflex" unicode="&#x174;" horiz-adv-x="754" 
d="M378 837l-72 -82h-77l103 119h92l103 -119h-78zM678 706h74l-163 -706h-86l-126 590l-126 -590h-84l-165 706h75l133 -595l125 595h85l126 -592z" />
    <glyph glyph-name="wcircumflex" unicode="&#x175;" horiz-adv-x="639" 
d="M319 667l-66 -109h-71l92 148h92l91 -148h-71zM555 495h77l-143 -495h-75l-94 388l-94 -388h-76l-142 495h76l101 -397l98 397h73l97 -396z" />
    <glyph glyph-name="Ycircumflex" unicode="&#x176;" horiz-adv-x="467" 
d="M87 755l103 119h92l103 -119h-78l-71 82l-72 -82h-77zM196 0v302l-194 404h83l149 -324l148 324h83l-193 -404v-302h-76z" />
    <glyph glyph-name="ycircumflex" unicode="&#x177;" horiz-adv-x="422" 
d="M212 667l-66 -109h-71l92 148h92l91 -148h-71zM337 495h77l-174 -495l-70 -191h-74l71 194l-159 492h79l117 -405z" />
    <glyph glyph-name="Ydieresis" unicode="&#x178;" horiz-adv-x="467" 
d="M145 770q-20 0 -33.5 12.5t-13.5 31.5q0 20 13.5 33t33.5 13t33.5 -13t13.5 -33q0 -19 -13.5 -31.5t-33.5 -12.5zM327 770q-20 0 -33.5 12.5t-13.5 31.5q0 20 13.5 33t33.5 13t33.5 -13t13.5 -33q0 -19 -13.5 -31.5t-33.5 -12.5zM196 0v302l-194 404h83l149 -324l148 324
h83l-193 -404v-302h-76z" />
    <glyph glyph-name="Zacute" unicode="&#x179;" horiz-adv-x="466" 
d="M162 755l101 119h84l-108 -119h-77zM13 0l307 637h-293v69h408l-306 -637h316v-69h-432z" />
    <glyph glyph-name="zacute" unicode="&#x17a;" horiz-adv-x="365" 
d="M289 706l-90 -147h-68l83 147h75zM357 495l-240 -432h238v-63h-353l243 433h-221v62h333z" />
    <glyph glyph-name="Zdotaccent" unicode="&#x17b;" horiz-adv-x="466" 
d="M229 771q-21 0 -34.5 12.5t-13.5 33.5q0 20 13.5 32.5t34.5 12.5q20 0 33 -12.5t13 -32.5q0 -21 -13 -33.5t-33 -12.5zM13 0l307 637h-293v69h408l-306 -637h316v-69h-432z" />
    <glyph glyph-name="zdotaccent" unicode="&#x17c;" horiz-adv-x="365" 
d="M188 575q-22 0 -35.5 13t-13.5 33q0 21 13.5 34t35.5 13q21 0 34.5 -13t13.5 -34q0 -19 -14 -32.5t-34 -13.5zM357 495l-240 -432h238v-63h-353l243 433h-221v62h333z" />
    <glyph glyph-name="Zcaron" unicode="&#x17d;" horiz-adv-x="466" 
d="M377 874l-103 -119h-92l-103 119h78l71 -81l72 81h77zM13 0l307 637h-293v69h408l-306 -637h316v-69h-432z" />
    <glyph glyph-name="zcaron" unicode="&#x17e;" horiz-adv-x="365" 
d="M233 557h-92l-91 148h71l66 -109l67 109h71zM357 495l-240 -432h238v-63h-353l243 433h-221v62h333z" />
    <glyph glyph-name="uni018F" unicode="&#x18f;" horiz-adv-x="589" 
d="M514 579q32 -70 32 -226t-32 -226q-64 -141 -228 -141q-156 0 -212 125q-30 69 -30 200v54h423q-1 135 -26 190q-42 94 -156 94q-74 0 -114 -38q-42 -40 -47 -139h-76q5 126 66 187t170 61q166 0 230 -141zM440 151q23 52 26 145h-347q0 -111 19 -156q38 -83 146 -83
q114 0 156 94z" />
    <glyph glyph-name="florin" unicode="&#x192;" horiz-adv-x="322" 
d="M60 -5q-24 0 -49 5v64q20 -5 39 -5q75 0 75 82v238h-110v57h110v143q0 70 33 102.5t103 32.5q28 0 49 -4v-64q-17 4 -40 4q-39 0 -56 -20t-17 -62v-132h110v-57h-110v-248q0 -71 -33 -103.5t-104 -32.5z" />
    <glyph glyph-name="Aringacute" unicode="&#x1fa;" horiz-adv-x="518" 
d="M377 1087l-108 -119h-77l101 119h84zM258 729q-45 0 -72.5 26.5t-27.5 70.5q0 43 27.5 69t72.5 26q46 0 74 -26.5t28 -68.5q0 -43 -28 -70t-74 -27zM258 878q-24 0 -38.5 -14.5t-14.5 -37.5q0 -24 14.5 -38.5t38.5 -14.5q25 0 39.5 14.5t14.5 38.5q0 23 -15 37.5
t-39 14.5zM438 0l-48 173h-262l-47 -173h-79l199 706h116l198 -706h-77zM146 238h227l-113 410h-2z" />
    <glyph glyph-name="aringacute" unicode="&#x1fb;" horiz-adv-x="443" 
d="M324 949l-90 -147h-68l83 147h75zM223 547q-45 0 -72.5 26.5t-27.5 69.5t27.5 69.5t72.5 26.5t73.5 -27t28.5 -69q0 -43 -28 -69.5t-74 -26.5zM223 696q-24 0 -38.5 -14.5t-14.5 -38.5t14.5 -38t38.5 -14q25 0 39.5 14t14.5 38t-15 38.5t-39 14.5zM377 425
q18 -40 18 -123v-302h-72v59q-43 -68 -143 -68q-105 0 -136 70q-12 25 -12 75t11 75q20 44 67 61.5t124 17.5h89v21q0 59 -12 86q-20 45 -90 45q-73 0 -93 -45q-8 -19 -8 -54h-73q0 53 13 83q37 79 161 79q120 0 156 -80zM200 53q80 0 108 61q15 33 15 109v10h-83
q-105 0 -127 -46q-6 -15 -6 -44q0 -32 7 -47q19 -43 86 -43z" />
    <glyph glyph-name="AEacute" unicode="&#x1fc;" horiz-adv-x="653" 
d="M496 874l-108 -119h-77l101 119h84zM619 637h-244l23 -237h218v-69h-211l25 -262h189v-69h-259l-16 173h-204l-59 -173h-79l249 706h368v-69zM161 237h177l-37 406h-2z" />
    <glyph glyph-name="aeacute" unicode="&#x1fd;" horiz-adv-x="727" 
d="M467 706l-90 -147h-68l83 147h75zM588 78q29 27 32 94h74q-4 -96 -52 -139q-45 -42 -126 -42q-120 0 -165 98q-48 -98 -169 -98q-107 0 -138 70q-12 25 -12 75t11 75q34 79 191 79h89v17q0 62 -12 90q-20 45 -90 45q-73 0 -93 -45q-8 -17 -8 -54h-73q0 54 13 83
q35 79 161 79q111 0 147 -66q48 67 141 67q119 0 164 -99q23 -52 23 -174h-301q1 -81 16 -118q30 -62 104 -62q48 0 73 25zM511 443q-72 0 -99 -58q-15 -34 -16 -95h225q-3 67 -16 96q-27 57 -94 57zM323 223v10h-83q-106 0 -126 -44q-7 -17 -7 -46t8 -48q19 -42 87 -42
q78 0 104 56q17 35 17 114z" />
    <glyph glyph-name="Oslashacute" unicode="&#x1fe;" horiz-adv-x="606" 
d="M421 874l-108 -119h-77l101 119h84zM518 604q8 -14 11 -21q33 -74 33 -230t-33 -230q-62 -137 -226 -137q-117 0 -184 72l-45 -58h-67l81 102q-8 14 -11 21q-33 74 -33 230t33 230q62 137 226 137q118 0 185 -73l46 59h65zM149 553q-26 -57 -26 -200q0 -130 20 -185
l294 420q-45 60 -134 60q-112 0 -154 -95zM457 153q26 57 26 200q0 132 -20 185l-294 -420q45 -60 134 -60q111 0 154 95z" />
    <glyph glyph-name="oslashacute" unicode="&#x1ff;" horiz-adv-x="453" 
d="M328 706l-90 -147h-68l83 147h75zM382 430q11 -16 17 -30q23 -52 23 -152t-23 -152q-48 -105 -173 -105q-75 0 -124 41l-24 -32h-56l50 65q-12 20 -17 31q-24 51 -24 152t24 152q47 106 171 106q75 0 125 -42l25 32h57zM124 377q-17 -38 -17 -129q0 -84 13 -120l189 280
q-30 33 -83 33q-72 0 -102 -64zM329 119q16 36 16 129q0 86 -12 119l-188 -280q30 -32 81 -32q73 0 103 64z" />
    <glyph glyph-name="uni0218" unicode="&#x218;" horiz-adv-x="507" 
d="M252 -14q-148 0 -197 104q-20 45 -20 137h82q0 -77 14 -108q30 -66 124 -66q98 0 125 63q11 22 11 64t-11 64q-8 18 -21 31t-39 24.5t-42.5 17.5t-55.5 18q-64 20 -103.5 44.5t-57.5 63.5q-15 35 -15 90q0 54 17 89q20 46 67.5 72t115.5 26q137 0 181 -101
q20 -46 20 -129h-78q0 70 -14 102q-29 63 -111 63q-85 0 -111 -59q-9 -21 -9 -58q0 -39 9 -60q13 -29 45.5 -45t94.5 -36q11 -3 17 -5q68 -21 108.5 -45.5t58.5 -65.5q15 -33 15 -95q0 -63 -16 -96q-22 -49 -74.5 -76.5t-129.5 -27.5zM197 -195l28 141h73l-33 -141h-68z" />
    <glyph glyph-name="uni0219" unicode="&#x219;" horiz-adv-x="389" 
d="M194 -11q-115 0 -151 79q-15 33 -15 97h70q0 -48 10 -69q21 -47 87 -47t84 41q7 14 7 38q0 27 -6 42q-7 15 -24.5 27t-30 16t-46.5 15q-104 31 -127 85q-10 21 -10 60t11 61q30 71 138 71t140 -71q13 -27 13 -85h-69q0 39 -9 59q-18 40 -75 40q-58 0 -73 -35
q-6 -15 -6 -35q0 -22 6 -34q7 -15 25 -27t32 -17t47 -15q51 -17 82.5 -35.5t45.5 -50.5q11 -25 11 -66q0 -43 -12 -67q-35 -77 -155 -77zM135 -193l28 142h73l-33 -142h-68z" />
    <glyph glyph-name="uni021A" unicode="&#x21a;" horiz-adv-x="382" 
d="M153 0v637h-146v69h368v-69h-146v-637h-76zM128 -191l28 142h73l-33 -142h-68z" />
    <glyph glyph-name="uni021B" unicode="&#x21b;" horiz-adv-x="290" 
d="M207 -6q-66 0 -95.5 31.5t-29.5 106.5v301h-71v62h71v116h72v-116h120v-62h-120v-290q0 -46 17 -65.5t54 -19.5q25 0 49 6v-62q-34 -8 -67 -8zM118 -190l28 142h73l-33 -142h-68z" />
    <glyph glyph-name="uni0237" unicode="&#x237;" horiz-adv-x="179" 
d="M10 -193q-25 0 -39 2v66q11 -2 27 -2q32 0 45 14.5t13 50.5v557h72v-564q0 -66 -28 -95t-90 -29z" />
    <glyph glyph-name="uni0259" unicode="&#x259;" horiz-adv-x="454" 
d="M400 399q23 -49 23 -152q0 -102 -23 -152q-47 -106 -174 -106q-125 0 -172 102q-22 53 -22 170h317q-1 82 -16 115q-30 66 -110 66q-53 0 -83 -27t-34 -92h-72q4 90 52 135q52 46 135 46q133 0 179 -105zM225 52q78 0 108 67q14 32 15 85h-242q2 -59 15 -90
q29 -62 104 -62z" />
    <glyph glyph-name="circumflex" unicode="&#x2c6;" horiz-adv-x="375" 
d="M50 558l92 148h92l91 -148h-71l-67 109l-66 -109h-71z" />
    <glyph glyph-name="caron" unicode="&#x2c7;" horiz-adv-x="375" 
d="M325 705l-92 -148h-92l-91 148h71l66 -109l67 109h71z" />
    <glyph glyph-name="uni02C9" unicode="&#x2c9;" horiz-adv-x="346" 
d="M50 593v56h246v-56h-246z" />
    <glyph glyph-name="breve" unicode="&#x2d8;" horiz-adv-x="366" 
d="M183 554q-67 0 -98.5 37.5t-34.5 114.5h58q2 -55 18.5 -78.5t56.5 -23.5t56.5 23.5t19.5 78.5h57q-3 -77 -34.5 -114.5t-98.5 -37.5z" />
    <glyph glyph-name="dotaccent" unicode="&#x2d9;" horiz-adv-x="197" 
d="M99 575q-22 0 -35.5 13t-13.5 33q0 21 13.5 34t35.5 13q21 0 34.5 -13t13.5 -34q0 -19 -14 -32.5t-34 -13.5z" />
    <glyph glyph-name="ring" unicode="&#x2da;" horiz-adv-x="302" 
d="M150 547q-45 0 -72.5 26.5t-27.5 69.5t27.5 69.5t72.5 26.5t73.5 -27t28.5 -69q0 -43 -28 -69.5t-74 -26.5zM150 591q25 0 39.5 14t14.5 38t-15 38.5t-39 14.5t-38.5 -14.5t-14.5 -38.5t14.5 -38t38.5 -14z" />
    <glyph glyph-name="ogonek" unicode="&#x2db;" horiz-adv-x="250" 
d="M144 -200q-43 0 -68.5 20.5t-25.5 58.5q0 34 21.5 63t66.5 64l51 -6q-42 -38 -59.5 -61.5t-17.5 -49.5q0 -39 44 -39q23 0 44 9v-50q-25 -9 -56 -9z" />
    <glyph glyph-name="tilde" unicode="&#x2dc;" horiz-adv-x="397" 
d="M262 556q-27 0 -44.5 12.5t-34.5 41.5q-2 3 -5.5 9t-5 8t-4.5 7t-5 7t-5.5 5t-6 4t-6 2t-7.5 1q-20 0 -27.5 -21.5t-9.5 -72.5h-51q2 77 21 113t62 36q26 0 43 -13t36 -42q2 -3 7.5 -11t7.5 -10.5t6.5 -8t8 -7.5t8.5 -4t10 -2q20 0 26.5 21.5t8.5 74.5h52
q-2 -77 -21.5 -113.5t-63.5 -36.5z" />
    <glyph glyph-name="hungarumlaut" unicode="&#x2dd;" horiz-adv-x="389" 
d="M50 559l94 147h69l-106 -147h-57zM175 559l96 147h68l-106 -147h-58z" />
    <glyph glyph-name="gravecomb" unicode="&#x300;" 
d="M-50 559h-68l-90 147h75z" />
    <glyph glyph-name="acutecomb" unicode="&#x301;" 
d="M-208 559l83 147h75l-90 -147h-68z" />
    <glyph glyph-name="uni0302" unicode="&#x302;" 
d="M-325 558l92 148h92l91 -148h-71l-67 109l-66 -109h-71z" />
    <glyph glyph-name="tildecomb" unicode="&#x303;" 
d="M-135 556q-27 0 -44.5 12.5t-34.5 41.5q-2 3 -5.5 9t-5 8t-4.5 7t-5 7t-5.5 5t-6 4t-6 2t-7.5 1q-20 0 -27.5 -21.5t-9.5 -72.5h-51q2 77 21 113t62 36q26 0 43 -13t36 -42q2 -3 7.5 -11t7.5 -10.5t6.5 -8t8 -7.5t8.5 -4t10 -2q20 0 26.5 21.5t8.5 74.5h52
q-2 -77 -21.5 -113.5t-63.5 -36.5z" />
    <glyph glyph-name="uni0304" unicode="&#x304;" 
d="M-296 593v56h246v-56h-246z" />
    <glyph glyph-name="uni0306" unicode="&#x306;" 
d="M-183 554q-67 0 -98.5 37.5t-34.5 114.5h58q2 -55 18.5 -78.5t56.5 -23.5t56.5 23.5t19.5 78.5h57q-3 -77 -34.5 -114.5t-98.5 -37.5z" />
    <glyph glyph-name="uni0307" unicode="&#x307;" 
d="M-98 575q-22 0 -35.5 13t-13.5 33q0 21 13.5 34t35.5 13q21 0 34.5 -13t13.5 -34q0 -19 -14 -32.5t-34 -13.5z" />
    <glyph glyph-name="uni0308" unicode="&#x308;" 
d="M-263 574q-21 0 -34 12.5t-13 32.5t13.5 33t33.5 13t34 -13t14 -33q0 -19 -14 -32t-34 -13zM-97 574q-21 0 -34 12.5t-13 32.5t13 33t34 13q20 0 33.5 -13t13.5 -33q0 -19 -13.5 -32t-33.5 -13z" />
    <glyph glyph-name="uni030A" unicode="&#x30a;" 
d="M-152 547q-45 0 -72.5 26.5t-27.5 69.5t27.5 69.5t72.5 26.5t73.5 -27t28.5 -69q0 -43 -28 -69.5t-74 -26.5zM-152 591q25 0 39.5 14t14.5 38t-15 38.5t-39 14.5t-38.5 -14.5t-14.5 -38.5t14.5 -38t38.5 -14z" />
    <glyph glyph-name="uni030B" unicode="&#x30b;" 
d="M-339 559l94 147h69l-106 -147h-57zM-214 559l96 147h68l-106 -147h-58z" />
    <glyph glyph-name="uni030C" unicode="&#x30c;" 
d="M-50 705l-92 -148h-92l-91 148h71l66 -109l67 109h71z" />
    <glyph glyph-name="uni0312" unicode="&#x312;" 
d="M-50 702l-28 -142h-73l33 142h68z" />
    <glyph glyph-name="uni0326" unicode="&#x326;" 
d="M-151 -191l28 142h73l-33 -142h-68z" />
    <glyph glyph-name="uni0327" unicode="&#x327;" 
d="M-139 -46q43 0 66 -20.5t23 -55.5q0 -80 -108 -80q-38 0 -69 11l9 44q23 -10 55 -10q57 0 57 37q0 36 -60 36h-44l24 92h54l-15 -54h8z" />
    <glyph glyph-name="uni0328" unicode="&#x328;" 
d="M-106 -200q-43 0 -68.5 20.5t-25.5 58.5q0 34 21.5 63t66.5 64l51 -6q-42 -38 -59.5 -61.5t-17.5 -49.5q0 -39 44 -39q23 0 44 9v-50q-26 -9 -56 -9z" />
    <glyph glyph-name="uni0335" unicode="&#x335;" 
d="M-315 297v56h265v-56h-265z" />
    <glyph glyph-name="uni0336" unicode="&#x336;" 
d="M-321 604v53h321v-53h-321z" />
    <glyph glyph-name="uni0337" unicode="&#x337;" 
d="M-95 414l95 70v-67l-95 -71v11l-95 -68v67l95 68v-10z" />
    <glyph glyph-name="uni0338" unicode="&#x338;" 
d="M-451 0l80 104l2 -1l223 333l1 -2l48 62h57l-85 -110l-2 1l-222 -332l-2 2l-44 -57h-56z" />
    <glyph glyph-name="uni0394" unicode="&#x394;" horiz-adv-x="518" 
d="M317 706l198 -706h-513l199 706h116zM99 66h321l-160 580h-2z" />
    <glyph glyph-name="uni03A9" unicode="&#x3a9;" horiz-adv-x="588" 
d="M395 137v-73h134v-64h-197v188q82 13 116 85q20 44 20 149q0 99 -19 143q-42 91 -155 91q-114 0 -154 -91q-20 -46 -20 -143q0 -103 21 -149q32 -72 116 -85v-188h-197v64h133v73q-86 29 -124 112q-25 54 -25 173q0 113 25 170q57 128 225 128t226 -127q25 -57 25 -171
t-25 -173q-38 -83 -125 -112z" />
    <glyph glyph-name="uni03BC" unicode="&#x3bc;" horiz-adv-x="454" 
d="M331 495h72v-495h-71v60q-40 -69 -127 -69q-54 0 -87 31q5 -55 5 -105v-108h-72v686h71v-314q0 -66 23.5 -96t74.5 -30q54 0 82.5 32t28.5 94v314z" />
    <glyph glyph-name="pi" unicode="&#x3c0;" horiz-adv-x="589" 
d="M514 -6q-64 0 -93.5 31.5t-29.5 103.5v304h-192v-433h-72v433h-83v62h501v-62h-82v-292q0 -44 17 -63.5t52 -19.5h13v-62q-22 -2 -31 -2z" />
    <glyph glyph-name="Wgrave" unicode="&#x1e80;" horiz-adv-x="754" 
d="M445 755h-77l-108 119h84zM678 706h74l-163 -706h-86l-126 590l-126 -590h-84l-165 706h75l133 -595l125 595h85l126 -592z" />
    <glyph glyph-name="wgrave" unicode="&#x1e81;" horiz-adv-x="639" 
d="M376 559h-68l-90 147h75zM555 495h77l-143 -495h-75l-94 388l-94 -388h-76l-142 495h76l101 -397l98 397h73l97 -396z" />
    <glyph glyph-name="Wacute" unicode="&#x1e82;" horiz-adv-x="754" 
d="M496 874l-108 -119h-77l101 119h84zM678 706h74l-163 -706h-86l-126 590l-126 -590h-84l-165 706h75l133 -595l125 595h85l126 -592z" />
    <glyph glyph-name="wacute" unicode="&#x1e83;" horiz-adv-x="639" 
d="M421 706l-90 -147h-68l83 147h75zM555 495h77l-143 -495h-75l-94 388l-94 -388h-76l-142 495h76l101 -397l98 397h73l97 -396z" />
    <glyph glyph-name="Wdieresis" unicode="&#x1e84;" horiz-adv-x="754" 
d="M287 770q-20 0 -33.5 12.5t-13.5 31.5q0 20 13.5 33t33.5 13t33.5 -13t13.5 -33q0 -19 -13.5 -31.5t-33.5 -12.5zM469 770q-20 0 -33.5 12.5t-13.5 31.5q0 20 13.5 33t33.5 13t33.5 -13t13.5 -33q0 -19 -13.5 -31.5t-33.5 -12.5zM678 706h74l-163 -706h-86l-126 590
l-126 -590h-84l-165 706h75l133 -595l125 595h85l126 -592z" />
    <glyph glyph-name="wdieresis" unicode="&#x1e85;" horiz-adv-x="639" 
d="M235 574q-21 0 -34 12.5t-13 32.5t13.5 33t33.5 13t34 -13t14 -33q0 -19 -14 -32t-34 -13zM401 574q-21 0 -34 12.5t-13 32.5t13 33t34 13q20 0 33.5 -13t13.5 -33q0 -19 -13.5 -32t-33.5 -13zM555 495h77l-143 -495h-75l-94 388l-94 -388h-76l-142 495h76l101 -397
l98 397h73l97 -396z" />
    <glyph glyph-name="uni1E9E" unicode="&#x1e9e;" horiz-adv-x="540" 
d="M484 323q18 -39 18 -112q0 -75 -17 -115q-46 -99 -192 -99q-49 0 -85 7v70q32 -6 71 -6q103 0 132 62q12 27 12 80q0 58 -12 85q-29 63 -126 63q-23 0 -30 -1v2l121 278h-243v-637h-76v706h423v-6l-124 -284q95 -16 128 -93z" />
    <glyph glyph-name="Ygrave" unicode="&#x1ef2;" horiz-adv-x="467" 
d="M302 755h-77l-108 119h84zM196 0v302l-194 404h83l149 -324l148 324h83l-193 -404v-302h-76z" />
    <glyph glyph-name="ygrave" unicode="&#x1ef3;" horiz-adv-x="422" 
d="M269 559h-68l-90 147h75zM337 495h77l-174 -495l-70 -191h-74l71 194l-159 492h79l117 -405z" />
    <glyph glyph-name="uni2009" unicode="&#x2009;" horiz-adv-x="62" 
 />
    <glyph glyph-name="uni2011" unicode="&#x2011;" horiz-adv-x="329" 
d="M44 254v70h242v-70h-242z" />
    <glyph glyph-name="endash" unicode="&#x2013;" horiz-adv-x="416" 
d="M44 254v69h329v-69h-329z" />
    <glyph glyph-name="emdash" unicode="&#x2014;" horiz-adv-x="822" 
d="M44 254v69h734v-69h-734z" />
    <glyph glyph-name="quoteleft" unicode="&#x2018;" horiz-adv-x="207" 
d="M171 706l-59 -272h-75l75 272h59z" />
    <glyph glyph-name="quoteright" unicode="&#x2019;" horiz-adv-x="207" 
d="M37 434l58 272h76l-76 -272h-58z" />
    <glyph glyph-name="quotesinglbase" unicode="&#x201a;" horiz-adv-x="207" 
d="M37 -126l58 272h76l-76 -272h-58z" />
    <glyph glyph-name="quotedblleft" unicode="&#x201c;" horiz-adv-x="347" 
d="M171 706l-59 -272h-75l75 272h59zM310 706l-59 -272h-75l75 272h59z" />
    <glyph glyph-name="quotedblright" unicode="&#x201d;" horiz-adv-x="347" 
d="M37 434l58 272h76l-76 -272h-58zM176 434l59 272h75l-75 -272h-59z" />
    <glyph glyph-name="quotedblbase" unicode="&#x201e;" horiz-adv-x="347" 
d="M37 -126l58 272h76l-76 -272h-58zM176 -126l59 272h75l-75 -272h-59z" />
    <glyph glyph-name="dagger" unicode="&#x2020;" horiz-adv-x="339" 
d="M320 541v-67h-113v-474h-74v474h-114v67h114v165h74v-165h113z" />
    <glyph glyph-name="daggerdbl" unicode="&#x2021;" horiz-adv-x="339" 
d="M320 479h-113v-252h113v-67h-113v-160h-74v160h-114v67h114v252h-114v68h114v159h74v-159h113v-68z" />
    <glyph glyph-name="bullet" unicode="&#x2022;" horiz-adv-x="395" 
d="M198 264q-46 0 -74.5 28.5t-28.5 75.5q0 48 27.5 75t75.5 27q46 0 74 -27t28 -75q0 -47 -28 -75.5t-74 -28.5z" />
    <glyph glyph-name="ellipsis" unicode="&#x2026;" horiz-adv-x="605" 
d="M124 -12q-23 0 -37 13.5t-14 35.5q0 23 14 36.5t37 13.5t37 -13.5t14 -36.5q0 -22 -14 -35.5t-37 -13.5zM302 -12q-23 0 -37 13.5t-14 35.5q0 23 14 36.5t37 13.5t37 -13.5t14 -36.5q0 -22 -14 -35.5t-37 -13.5zM481 -12q-23 0 -37.5 13.5t-14.5 35.5q0 23 14.5 36.5
t37.5 13.5t37 -13.5t14 -36.5q0 -22 -14 -35.5t-37 -13.5z" />
    <glyph glyph-name="perthousand" unicode="&#x2030;" horiz-adv-x="832" 
d="M137 411q-75 0 -101 58q-14 31 -14 93q0 61 14 92q26 58 101 58t101 -58q14 -31 14 -92q0 -62 -14 -93q-26 -58 -101 -58zM43 0l414 706h63l-414 -706h-63zM137 462q40 0 53 30q9 19 9 70t-9 70q-14 29 -53 29t-53 -29q-8 -20 -8 -70q0 -51 8 -70q14 -30 53 -30zM426 -6
q-75 0 -101 58q-14 31 -14 93q0 61 14 92q26 59 101 59t101 -59q14 -31 14 -92q0 -62 -14 -93q-26 -58 -101 -58zM695 -6q-75 0 -101 58q-14 31 -14 93q0 61 14 92q26 59 101 59t101 -59q14 -31 14 -92q0 -62 -14 -93q-26 -58 -101 -58zM426 45q40 0 53 30q9 19 9 70t-9 70
q-15 30 -53 30t-53 -30q-8 -20 -8 -70q0 -51 8 -70q14 -30 53 -30zM695 45q40 0 53 30q9 19 9 70t-9 70q-15 30 -53 30t-53 -30q-8 -20 -8 -70q0 -51 8 -70q14 -30 53 -30z" />
    <glyph glyph-name="guilsinglleft" unicode="&#x2039;" horiz-adv-x="245" 
d="M148 125l-131 160l131 160h78l-130 -160l130 -160h-78z" />
    <glyph glyph-name="guilsinglright" unicode="&#x203a;" horiz-adv-x="245" 
d="M97 125h-78l130 160l-130 160h78l131 -160z" />
    <glyph glyph-name="fraction" unicode="&#x2044;" horiz-adv-x="168" 
d="M-132 0l369 706h63l-369 -706h-63z" />
    <glyph glyph-name="uni2070" unicode="&#x2070;" horiz-adv-x="358" 
d="M179 430q-88 0 -122 72q-19 44 -19 130t19 130q34 72 122 72q90 0 122 -72q19 -44 19 -130t-19 -130q-32 -72 -122 -72zM179 486q49 0 67 40q11 24 11 106t-11 106q-18 40 -67 40q-48 0 -66 -40q-12 -27 -12 -106t12 -106q18 -40 66 -40z" />
    <glyph glyph-name="uni2074" unicode="&#x2074;" horiz-adv-x="315" 
d="M198 438v96h-200v2l150 290h109v-240h49v-52h-49v-96h-59zM86 586h112v218z" />
    <glyph glyph-name="uni2075" unicode="&#x2075;" horiz-adv-x="317" 
d="M157 430q-90 0 -118 61q-11 27 -11 69h57q0 -32 7 -47q14 -32 64 -32q51 0 66 34q6 15 6 44q0 31 -7 46q-23 41 -99 41q-43 0 -80 -12l28 192h198l-7 -48h-141l-14 -95q18 7 53 7q92 0 119 -62q11 -25 11 -68q0 -44 -11 -66q-30 -64 -121 -64z" />
    <glyph glyph-name="uni2076" unicode="&#x2076;" horiz-adv-x="349" 
d="M307 627q11 -22 11 -63q0 -42 -11 -67q-30 -67 -126 -67t-130 75q-17 40 -17 125q0 87 18 130q34 74 128 74q66 0 98 -32q24 -24 33 -82h-63q-4 31 -18 46q-17 17 -49 17q-52 0 -73 -44q-12 -31 -12 -97v-3q29 47 101 47q84 0 110 -59zM243 515q7 13 7 44q0 32 -6 45
q-17 34 -63 34q-47 0 -66 -37q-7 -15 -7 -42q0 -28 7 -41q17 -37 65 -37t63 34z" />
    <glyph glyph-name="uni2077" unicode="&#x2077;" horiz-adv-x="279" 
d="M50 438l130 334h-158v54h244l-149 -388h-67z" />
    <glyph glyph-name="uni2078" unicode="&#x2078;" horiz-adv-x="335" 
d="M295 599q8 -16 8 -52q0 -34 -8 -55q-29 -62 -128 -62q-98 0 -127 62q-9 20 -9 55q0 34 9 52q16 36 59 47q-41 14 -53 43q-8 19 -8 44q0 29 8 45q26 56 121 56t121 -56q7 -17 7 -45q0 -27 -7 -44q-14 -30 -53 -43q44 -12 60 -47zM103 759q-5 -9 -5 -29q0 -19 5 -31
q13 -29 64 -29t64 30q5 12 5 30t-5 30q-13 28 -64 28t-64 -29zM236 514q6 12 6 35q0 25 -6 35q-14 35 -69 35q-53 0 -69 -34q-5 -11 -5 -36t5 -35q15 -34 69 -34q55 0 69 34z" />
    <glyph glyph-name="uni2079" unicode="&#x2079;" horiz-adv-x="349" 
d="M298 759q17 -40 17 -125q0 -87 -18 -130q-34 -74 -128 -74q-66 0 -98 32q-24 24 -33 82h63q4 -31 18 -46q17 -17 49 -17q52 0 73 44q12 31 12 97v3q-29 -47 -101 -47q-84 0 -110 59q-11 22 -11 63q0 42 11 67q30 67 126 67t130 -75zM234 663q7 15 7 42q0 28 -7 41
q-17 37 -65 37t-63 -34q-7 -13 -7 -44t6 -45q17 -34 63 -34q48 0 66 37z" />
    <glyph glyph-name="uni207A" unicode="&#x207a;" horiz-adv-x="301" 
d="M275 659v-48h-101v-98h-46v98h-102v48h102v99h46v-99h101z" />
    <glyph glyph-name="uni207B" unicode="&#x207b;" horiz-adv-x="301" 
d="M26 611v48h249v-48h-249z" />
    <glyph glyph-name="uni207C" unicode="&#x207c;" horiz-adv-x="298" 
d="M26 664v42h246v-42h-246zM26 564v43h246v-43h-246z" />
    <glyph glyph-name="uni207D" unicode="&#x207d;" horiz-adv-x="197" 
d="M119 368q-73 126 -73 264t73 265h54q-72 -126 -72 -265q0 -138 72 -264h-54z" />
    <glyph glyph-name="uni207E" unicode="&#x207e;" horiz-adv-x="197" 
d="M78 368h-55q73 125 73 264q0 140 -73 265h55q72 -126 72 -265q0 -140 -72 -264z" />
    <glyph glyph-name="uni207F" unicode="&#x207f;" horiz-adv-x="317" 
d="M180 714q106 0 106 -118v-235h-60v221q0 40 -14 60.5t-49 20.5q-33 0 -51.5 -21t-18.5 -60v-221h-60v346h60v-35q30 42 87 42z" />
    <glyph glyph-name="uni2080" unicode="&#x2080;" horiz-adv-x="358" 
d="M179 -128q-88 0 -122 72q-19 44 -19 130t19 130q34 72 122 72q90 0 122 -72q19 -44 19 -130t-19 -130q-32 -72 -122 -72zM179 -72q49 0 67 40q11 24 11 106t-11 106q-18 40 -67 40q-48 0 -66 -40q-12 -27 -12 -106t12 -106q18 -40 66 -40z" />
    <glyph glyph-name="uni2081" unicode="&#x2081;" horiz-adv-x="207" 
d="M92 -120v330h-71l9 58h123v-388h-61z" />
    <glyph glyph-name="uni2082" unicode="&#x2082;" horiz-adv-x="294" 
d="M15 -120v3l143 173q31 37 41.5 56.5t10.5 45.5q0 23 -6 35q-13 31 -58 31t-59 -32q-7 -14 -7 -46h-57q0 46 11 72q26 59 112 59q88 0 113 -57q10 -25 10 -58q0 -34 -10.5 -58.5t-39.5 -58.5q-82 -99 -90 -108h138v-57h-252z" />
    <glyph glyph-name="uni2083" unicode="&#x2083;" horiz-adv-x="319" 
d="M278 44q9 -17 9 -56t-9 -58q-26 -59 -121 -59q-92 0 -120 63q-13 32 -13 82h55q0 -40 9 -57q16 -37 68 -37q51 0 65 31q6 12 6 39q0 24 -6 38q-14 30 -78 30h-13v48h13q61 0 73 29q5 9 5 30q0 19 -5 31q-13 28 -58 28q-49 0 -65 -34q-7 -15 -7 -42h-55q0 39 11 64
q28 63 119 63q85 0 111 -55q8 -21 8 -51q0 -28 -7 -43q-13 -28 -51 -42q43 -11 56 -42z" />
    <glyph glyph-name="uni2084" unicode="&#x2084;" horiz-adv-x="315" 
d="M198 -120v96h-200v2l150 290h109v-240h49v-52h-49v-96h-59zM86 28h112v218z" />
    <glyph glyph-name="uni2085" unicode="&#x2085;" horiz-adv-x="317" 
d="M157 -128q-90 0 -118 61q-11 27 -11 69h57q0 -32 7 -47q14 -32 64 -32q51 0 66 34q6 15 6 44q0 31 -7 46q-23 41 -99 41q-43 0 -80 -12l28 192h198l-7 -48h-141l-14 -95q18 7 53 7q92 0 119 -62q11 -25 11 -68q0 -44 -11 -66q-30 -64 -121 -64z" />
    <glyph glyph-name="uni2086" unicode="&#x2086;" horiz-adv-x="349" 
d="M307 69q11 -22 11 -63q0 -42 -11 -67q-30 -67 -126 -67t-130 75q-17 40 -17 125q0 87 18 130q34 74 128 74q66 0 98 -32q24 -24 33 -82h-63q-4 31 -18 46q-17 17 -49 17q-52 0 -73 -44q-12 -31 -12 -97v-3q29 47 101 47q84 0 110 -59zM243 -43q7 13 7 44t-6 45
q-17 34 -63 34q-47 0 -66 -37q-7 -15 -7 -42q0 -28 7 -41q17 -37 65 -37t63 34z" />
    <glyph glyph-name="uni2087" unicode="&#x2087;" horiz-adv-x="279" 
d="M50 -120l130 334h-158v54h244l-149 -388h-67z" />
    <glyph glyph-name="uni2088" unicode="&#x2088;" horiz-adv-x="335" 
d="M295 41q8 -16 8 -52q0 -34 -8 -55q-29 -62 -128 -62q-98 0 -127 62q-9 20 -9 55q0 34 9 52q16 36 59 47q-41 14 -53 43q-8 19 -8 44q0 29 8 45q26 56 121 56t121 -56q7 -17 7 -45q0 -27 -7 -44q-14 -30 -53 -43q44 -12 60 -47zM103 201q-5 -9 -5 -29q0 -19 5 -31
q13 -29 64 -29t64 30q5 12 5 30t-5 30q-13 28 -64 28t-64 -29zM236 -44q6 12 6 35q0 24 -6 35q-14 35 -69 35q-53 0 -69 -34q-5 -11 -5 -36t5 -35q15 -34 69 -34q55 0 69 34z" />
    <glyph glyph-name="uni2089" unicode="&#x2089;" horiz-adv-x="350" 
d="M300 201q16 -41 16 -125q0 -90 -18 -130q-34 -74 -128 -74q-65 0 -97 32q-26 26 -33 82h62q6 -33 19 -46q16 -17 48 -17q53 0 73 44q12 28 12 97v2q-30 -46 -101 -46q-84 0 -110 59q-10 23 -10 63q0 44 10 67q30 67 126 67t131 -75zM235 105q7 15 7 42t-6 41
q-17 37 -65 37t-64 -34q-6 -13 -6 -44t6 -45q15 -34 62 -34q49 0 66 37z" />
    <glyph glyph-name="uni208A" unicode="&#x208a;" horiz-adv-x="302" 
d="M276 101v-48h-101v-98h-46v98h-102v48h102v99h46v-99h101z" />
    <glyph glyph-name="uni208B" unicode="&#x208b;" horiz-adv-x="301" 
d="M26 53v48h249v-48h-249z" />
    <glyph glyph-name="uni208C" unicode="&#x208c;" horiz-adv-x="298" 
d="M26 106v42h246v-42h-246zM26 6v43h246v-43h-246z" />
    <glyph glyph-name="uni208D" unicode="&#x208d;" horiz-adv-x="197" 
d="M119 -190q-73 126 -73 264t73 265h54q-72 -126 -72 -265q0 -138 72 -264h-54z" />
    <glyph glyph-name="uni208E" unicode="&#x208e;" horiz-adv-x="197" 
d="M78 -190h-55q73 125 73 264q0 140 -73 265h55q72 -126 72 -265q0 -140 -72 -264z" />
    <glyph glyph-name="uni2099" unicode="&#x2099;" horiz-adv-x="317" 
d="M180 176q106 0 106 -118v-234h-60v220q0 40 -14 61t-49 21q-33 0 -51.5 -21t-18.5 -60v-221h-60v345h60v-35q30 42 87 42z" />
    <glyph glyph-name="Euro" unicode="&#x20ac;" horiz-adv-x="617" 
d="M498 239h79q-3 -131 -70 -194q-64 -59 -171 -59q-166 0 -227 139q-25 53 -31 149h-43v54h41v25v27h-41v55h43q5 88 31 147q62 138 227 138q103 0 169 -60q68 -62 69 -187h-79q-1 94 -47 137q-45 39 -116 39q-109 0 -151 -94q-20 -46 -24 -120h227v-55h-229v-27v-25h229
v-54h-227q4 -82 24 -124q42 -93 152 -93q72 0 116 39q46 40 49 143z" />
    <glyph glyph-name="uni20B9" unicode="&#x20b9;" horiz-adv-x="535" 
d="M408 394q-38 -87 -172 -87h-23l236 -307h-89l-276 362h130q97 0 122 56q9 20 12 59h-302v55h301q-1 39 -11 60q-24 57 -105 57h-185v57h469v-55h-133q17 -17 25 -36q15 -32 16 -83h94v-55h-93q-3 -50 -16 -83z" />
    <glyph glyph-name="uni20BA" unicode="&#x20ba;" horiz-adv-x="495" 
d="M403 300h72q0 -129 -27 -190q-49 -110 -218 -110h-133v265l-62 -29v58l62 29v61l-62 -29v58l62 30v263h75v-232l163 77v-58l-163 -77v-60l163 76v-58l-163 -77v-229h51q126 0 161 75q19 41 19 157z" />
    <glyph glyph-name="uni20BC" unicode="&#x20bc;" horiz-adv-x="650" 
d="M569 522q24 -53 24 -169v-353h-76v356q0 101 -18 138q-37 78 -136 78v-572h-76v572q-99 0 -136 -78q-18 -37 -18 -138v-356h-76v353q0 118 24 169q54 114 206 114v70h76v-70q152 0 206 -114z" />
    <glyph glyph-name="uni2113" unicode="&#x2113;" horiz-adv-x="367" 
d="M134 188q3 -72 28.5 -102t77.5 -30q38 0 81 18v-62q-41 -17 -94 -17q-80 0 -121 44t-44 140q-16 -2 -51 -2v58q19 0 51 2v251q0 120 32.5 172.5t104.5 52.5q73 0 105 -49.5t32 -170.5q0 -140 -47.5 -211.5t-154.5 -93.5zM134 512v-264q72 19 101 75.5t29 169.5
q0 95 -16 128.5t-50 33.5t-49 -31.5t-15 -111.5z" />
    <glyph glyph-name="uni2117" unicode="&#x2117;" horiz-adv-x="696" 
d="M348 -14q-96 0 -167 44.5t-107 123.5q-30 65 -30 199t30 199q36 79 107.5 123.5t166.5 44.5q94 0 166 -44t108 -123q31 -72 31 -200t-31 -199q-36 -79 -107 -123.5t-167 -44.5zM348 25q84 0 144.5 39t92.5 109q26 57 26 179t-26 184q-32 69 -93 107t-143 38
q-84 0 -146 -39t-93 -109q-25 -55 -25 -180q0 -123 26 -180q31 -70 92 -109t145 -39zM240 115v478h129q88 0 114 -59q11 -28 11 -73t-11 -73q-26 -58 -114 -58h-69v-215h-60zM300 380h58q53 0 67 32q8 16 8 49q0 32 -8 50q-14 32 -67 32h-58v-163z" />
    <glyph glyph-name="trademark" unicode="&#x2122;" horiz-adv-x="551" 
d="M71 396v266h-67v44h185v-44h-67v-266h-51zM214 396v310h67l85 -234l85 234h66v-310h-48v240l-89 -240h-29l-89 240v-240h-48z" />
    <glyph glyph-name="uni2126" unicode="&#x2126;" horiz-adv-x="588" 
d="M395 137v-73h134v-64h-197v188q82 13 116 85q20 44 20 149q0 99 -19 143q-42 91 -155 91q-114 0 -154 -91q-20 -46 -20 -143q0 -103 21 -149q32 -72 116 -85v-188h-197v64h133v73q-86 29 -124 112q-25 54 -25 173q0 113 25 170q57 128 225 128t226 -127q25 -57 25 -171
t-25 -173q-38 -83 -125 -112z" />
    <glyph glyph-name="estimated" unicode="&#x212e;" horiz-adv-x="843" 
d="M422 -11q-100 0 -186 42.5t-139.5 121.5t-53.5 177q0 145 110.5 243t268.5 98q156 0 267 -99.5t111 -247.5h-608q-10 0 -10 -11v-197q47 -51 110 -78.5t130 -27.5q73 0 139 32.5t113 88.5h57q-56 -68 -138 -105t-171 -37zM192 347h461q9 0 9 11v184q-44 51 -108 79.5
t-132 28.5q-70 0 -133 -28.5t-107 -78.5v-185q0 -11 10 -11z" />
    <glyph glyph-name="partialdiff" unicode="&#x2202;" horiz-adv-x="539" 
d="M458 598q34 -80 34 -250q0 -164 -32 -235q-58 -127 -204 -127q-70 0 -121 29.5t-75 82.5q-21 43 -21 130q0 83 19 126q22 49 68 75.5t108 26.5q126 0 174 -96v7q0 144 -25 203q-37 80 -125 80q-60 0 -92 -38q-26 -27 -34 -86h-80q8 88 53 135q53 59 155 59
q145 0 198 -122zM258 56q88 0 120 74q13 29 13 93q0 61 -14 94q-32 73 -121 73q-85 0 -117 -68q-13 -30 -13 -97q0 -71 14 -100q30 -69 118 -69z" />
    <glyph glyph-name="uni2206" unicode="&#x2206;" horiz-adv-x="518" 
d="M317 706l198 -706h-513l199 706h116zM99 66h321l-160 580h-2z" />
    <glyph glyph-name="product" unicode="&#x220f;" horiz-adv-x="540" 
d="M57 -191v897h426v-897h-79v825h-268v-825h-79z" />
    <glyph glyph-name="summation" unicode="&#x2211;" horiz-adv-x="427" 
d="M21 -191l202 463l-193 434h377v-69h-259l161 -365l-171 -394h279v-69h-396z" />
    <glyph glyph-name="minus" unicode="&#x2212;" horiz-adv-x="495" 
d="M44 258v61h408v-61h-408z" />
    <glyph glyph-name="uni2215" unicode="&#x2215;" horiz-adv-x="495" 
d="M93 0l240 706h67l-239 -706h-68z" />
    <glyph glyph-name="uni2219" unicode="&#x2219;" horiz-adv-x="495" 
d="M263 211q-37 0 -60 22t-23 58q0 37 23 59t60 22q36 0 59 -22.5t23 -58.5t-23 -58t-59 -22z" />
    <glyph glyph-name="radical" unicode="&#x221a;" horiz-adv-x="538" 
d="M457 706h79l-235 -901h-84l-133 419l-74 -26v74l128 39l121 -412z" />
    <glyph glyph-name="infinity" unicode="&#x221e;" horiz-adv-x="716" 
d="M666 375q19 -42 19 -126t-19 -125q-40 -87 -137 -87q-63 0 -103 37.5t-69 109.5q-31 -73 -69.5 -110t-101.5 -37q-97 0 -137 87q-18 42 -18 125t18 126q40 87 137 87q62 0 101 -37.5t70 -110.5q31 73 70 110.5t102 37.5q97 0 137 -87zM194 102q45 0 73 36t55 111
q-27 75 -55 111t-73 36q-57 0 -81 -51q-13 -26 -13 -96q0 -67 13 -94q22 -53 81 -53zM604 155q13 26 13 94q0 67 -13 96q-23 51 -82 51q-46 0 -74 -36t-54 -111q26 -75 54 -111t74 -36q58 0 82 53z" />
    <glyph glyph-name="integral" unicode="&#x222b;" horiz-adv-x="303" 
d="M50 -194q-22 0 -50 3l11 66q12 -1 27 -1q31 0 45.5 14.5t16.5 49.5l40 649q3 63 32 92.5t89 29.5q19 0 42 -3l-11 -67q-18 2 -22 2q-56 0 -60 -66l-40 -649q-4 -63 -32 -91.5t-88 -28.5z" />
    <glyph glyph-name="approxequal" unicode="&#x2248;" horiz-adv-x="495" 
d="M330 311q-21 0 -40.5 7.5t-28 13.5t-25.5 19q-38 29 -64 29t-38 -16.5t-16 -47.5h-51q9 119 98 119q48 0 95 -38q37 -30 64 -30q45 0 53 61h52q-5 -58 -28.5 -87.5t-70.5 -29.5zM330 141q-21 0 -40.5 7.5t-28 13.5t-25.5 19q-38 29 -64 29t-38 -16.5t-16 -47.5h-51
q9 120 98 120q47 0 95 -39q37 -30 64 -30q25 0 37 15.5t16 46.5h52q-5 -59 -28.5 -88.5t-70.5 -29.5z" />
    <glyph glyph-name="notequal" unicode="&#x2260;" horiz-adv-x="495" 
d="M452 348h-139l-78 -120h217v-60h-252l-70 -107h-57l69 107h-98v60h134l78 120h-212v61h248l68 107h57l-68 -107h103v-61z" />
    <glyph glyph-name="lessequal" unicode="&#x2264;" horiz-adv-x="495" 
d="M444 518v-66l-367 -114l367 -114v-66l-407 133v92zM37 58v61h407v-61h-407z" />
    <glyph glyph-name="greaterequal" unicode="&#x2265;" horiz-adv-x="495" 
d="M451 291l-407 -133v66l367 114l-367 114v66l407 -135v-92zM44 119h408v-61h-408v61z" />
    <glyph glyph-name="lozenge" unicode="&#x25ca;" horiz-adv-x="430" 
d="M174 -191l-157 449l157 448h83l156 -448l-156 -449h-83zM215 -117l125 375l-125 374l-124 -374z" />
    <glyph glyph-name="uniFB00" unicode="&#xfb00;" horiz-adv-x="558" 
d="M80 0v433h-68v62h68v81q0 71 33.5 104.5t106.5 33.5q27 0 46 -4v-63q-15 4 -37 4q-76 0 -76 -82v-74h110v-62h-110v-433h-73zM361 0v433h-68v62h68v81q0 71 33.5 104.5t106.5 33.5q27 0 46 -4v-63q-15 4 -37 4q-76 0 -76 -82v-74h110v-62h-110v-433h-73z" />
    <glyph glyph-name="fi" unicode="&#xfb01;" horiz-adv-x="451" 
d="M80 0v433h-68v62h68v81q0 71 33.5 104.5t106.5 33.5q27 0 46 -4v-63q-15 4 -37 4q-76 0 -76 -82v-74h110v-62h-110v-433h-73zM366 576q-22 0 -35.5 12.5t-13.5 32.5t13.5 33t35.5 13q20 0 33.5 -13t13.5 -33t-13.5 -32.5t-33.5 -12.5zM329 0v495h72v-495h-72z" />
    <glyph glyph-name="fl" unicode="&#xfb02;" horiz-adv-x="451" 
d="M80 0v433h-68v62h68v81q0 71 33.5 104.5t106.5 33.5q27 0 46 -4v-63q-15 4 -37 4q-76 0 -76 -82v-74h110v-62h-110v-433h-73zM329 0v706h72v-706h-72z" />
    <glyph glyph-name="uniFB03" unicode="&#xfb03;" horiz-adv-x="732" 
d="M80 0v433h-68v62h68v81q0 71 33.5 104.5t106.5 33.5q27 0 46 -4v-63q-15 4 -37 4q-76 0 -76 -82v-74h110v-62h-110v-433h-73zM361 0v433h-68v62h68v81q0 71 33.5 104.5t106.5 33.5q27 0 46 -4v-63q-15 4 -37 4q-76 0 -76 -82v-74h110v-62h-110v-433h-73zM646 576
q-22 0 -35.5 12.5t-13.5 32.5t13.5 33t35.5 13q20 0 33.5 -13t13.5 -33t-13.5 -32.5t-33.5 -12.5zM609 0v495h72v-495h-72z" />
    <glyph glyph-name="uniFB04" unicode="&#xfb04;" horiz-adv-x="732" 
d="M80 0v433h-68v62h68v81q0 71 33.5 104.5t106.5 33.5q27 0 46 -4v-63q-15 4 -37 4q-76 0 -76 -82v-74h110v-62h-110v-433h-73zM361 0v433h-68v62h68v81q0 71 33.5 104.5t106.5 33.5q27 0 46 -4v-63q-15 4 -37 4q-76 0 -76 -82v-74h110v-62h-110v-433h-73zM609 0v706h72
v-706h-72z" />
    <glyph glyph-name="uniFEFF" unicode="&#xfeff;" 
 />
    <glyph glyph-name="uni00A40301" horiz-adv-x="261" 
d="M103 755l101 119h84l-108 -119h-77zM56 -3q-24 0 -49 3v72q16 -3 35 -3q49 0 69.5 23.5t20.5 78.5v535h76v-549q0 -83 -36 -121.5t-116 -38.5z" />
    <glyph glyph-name="M.ss01" horiz-adv-x="644" 
d="M57 0v706h100l165 -314l166 314h100v-706h-73v610l-173 -325h-39l-173 325v-610h-73z" />
    <glyph glyph-name="Q.ss02" horiz-adv-x="606" 
d="M529 123q-36 -81 -110 -114l66 -132l-68 -31l-67 143q-22 -3 -47 -3q-164 0 -226 137q-33 74 -33 230t33 230q62 137 226 137t226 -137q33 -74 33 -230t-33 -230zM303 58q111 0 154 95q26 57 26 200t-26 200q-43 95 -154 95q-112 0 -154 -95q-26 -57 -26 -200t26 -200
q42 -95 154 -95z" />
    <glyph glyph-name="R.ss03" horiz-adv-x="496" 
d="M364 365q79 -21 79 -118v-247h-76v235q0 50 -24 71.5t-82 21.5h-128v-328h-76v706h204q142 0 180 -86q16 -35 16 -95q0 -56 -15 -89q-23 -50 -78 -71zM239 394q103 0 129 59q10 20 10 69q0 45 -9 63q-24 54 -125 54h-111v-245h106z" />
    <glyph glyph-name="Racute.ss03" horiz-adv-x="496" 
d="M369 874l-108 -119h-77l101 119h84zM364 365q79 -21 79 -118v-247h-76v235q0 50 -24 71.5t-82 21.5h-128v-328h-76v706h204q142 0 180 -86q16 -35 16 -95q0 -56 -15 -89q-23 -50 -78 -71zM239 394q103 0 129 59q10 20 10 69q0 45 -9 63q-24 54 -125 54h-111v-245h106z
" />
    <glyph glyph-name="Rcaron.ss03" horiz-adv-x="496" 
d="M297 755h-92l-103 119h78l71 -81l72 81h77zM364 365q79 -21 79 -118v-247h-76v235q0 50 -24 71.5t-82 21.5h-128v-328h-76v706h204q142 0 180 -86q16 -35 16 -95q0 -56 -15 -89q-23 -50 -78 -71zM239 394q103 0 129 59q10 20 10 69q0 45 -9 63q-24 54 -125 54h-111v-245
h106z" />
    <glyph glyph-name="uni0156.ss03" horiz-adv-x="496" 
d="M364 365q79 -21 79 -118v-247h-76v235q0 50 -24 71.5t-82 21.5h-128v-328h-76v706h204q142 0 180 -86q16 -35 16 -95q0 -56 -15 -89q-23 -50 -78 -71zM239 394q103 0 129 59q10 20 10 69q0 45 -9 63q-24 54 -125 54h-111v-245h106zM192 -191l28 142h73l-33 -142h-68z" />
    <glyph glyph-name="Oslash.ss04" horiz-adv-x="606" 
d="M509 619q9 -13 20 -36q33 -74 33 -230t-33 -230q-62 -137 -226 -137q-97 0 -157 48l-64 -86l-58 41l74 97q-11 15 -21 37q-33 74 -33 230t33 230q62 137 226 137q96 0 158 -49l63 87l60 -40zM457 153q26 57 26 200t-26 200q-43 95 -154 95q-112 0 -154 -95
q-26 -57 -26 -200t26 -200q42 -95 154 -95q111 0 154 95z" />
    <glyph glyph-name="i.loclTRK" horiz-adv-x="174" 
d="M88 576q-22 0 -35.5 12.5t-13.5 32.5t13.5 33t35.5 13q20 0 33.5 -13t13.5 -33t-13.5 -32.5t-33.5 -12.5zM51 0v495h72v-495h-72z" />
    <glyph glyph-name="uni006A0301" horiz-adv-x="179" 
d="M46 559l72 147h75l-79 -147h-68zM10 -193q-25 0 -39 2v66q11 -2 27 -2q32 0 45 14.5t13 50.5v557h72v-564q0 -66 -28 -95t-90 -29z" />
    <glyph glyph-name="oslash.ss04" horiz-adv-x="453" 
d="M399 400q23 -52 23 -152t-23 -152q-48 -105 -173 -105q-57 0 -100 24l-38 -59l-54 31l45 68q-13 17 -24 41q-24 51 -24 152t24 152q47 106 171 106q58 0 102 -25l36 58l55 -31l-45 -68q14 -17 25 -40zM329 119q16 36 16 129t-16 129q-30 64 -103 64q-72 0 -102 -64
q-17 -38 -17 -129t17 -129q30 -64 102 -64q73 0 103 64z" />
    <glyph glyph-name="r.ss05" horiz-adv-x="236" 
d="M51 0v495h72v-23q15 31 47 31q22 0 35.5 -14t13.5 -36q0 -21 -13.5 -35t-35.5 -14q-26 0 -37 19q-10 -6 -10 -34v-389h-72z" />
    <glyph glyph-name="racute.ss05" horiz-adv-x="236" 
d="M81 559l72 147h75l-79 -147h-68zM51 0v495h72v-23q15 31 47 31q22 0 35.5 -14t13.5 -36q0 -21 -13.5 -35t-35.5 -14q-26 0 -37 19q-10 -6 -10 -34v-389h-72z" />
    <glyph glyph-name="rcaron.ss05" horiz-adv-x="236" 
d="M4 706h64l56 -107l56 107h64l-78 -148h-83zM51 0v495h72v-23q15 31 47 31q22 0 35.5 -14t13.5 -36q0 -21 -13.5 -35t-35.5 -14q-26 0 -37 19q-10 -6 -10 -34v-389h-72z" />
    <glyph glyph-name="uni0157.ss05" horiz-adv-x="236" 
d="M51 0v495h72v-23q15 31 47 31q22 0 35.5 -14t13.5 -36q0 -21 -13.5 -35t-35.5 -14q-26 0 -37 19q-10 -6 -10 -34v-389h-72zM19 -191l28 142h73l-33 -142h-68z" />
    <glyph glyph-name="f_i" horiz-adv-x="451" 
d="M80 0v433h-68v62h68v81q0 71 33.5 104.5t106.5 33.5q27 0 46 -4v-63q-15 4 -37 4q-76 0 -76 -82v-74h110v-62h-110v-433h-73zM366 576q-22 0 -35.5 12.5t-13.5 32.5t13.5 33t35.5 13q20 0 33.5 -13t13.5 -33t-13.5 -32.5t-33.5 -12.5zM329 0v495h72v-495h-72z" />
    <glyph glyph-name="f_l" horiz-adv-x="451" 
d="M80 0v433h-68v62h68v81q0 71 33.5 104.5t106.5 33.5q27 0 46 -4v-63q-15 4 -37 4q-76 0 -76 -82v-74h110v-62h-110v-433h-73zM329 0v706h72v-706h-72z" />
    <glyph glyph-name="zero.tf" horiz-adv-x="501" 
d="M250 -14q-136 0 -186 118q-35 75 -35 249t35 249q50 118 186 118q135 0 187 -118q35 -78 35 -249t-35 -249q-52 -118 -187 -118zM250 56q85 0 118 77q25 55 25 220t-25 220q-33 77 -118 77q-84 0 -117 -77q-26 -57 -26 -220t26 -220q33 -77 117 -77z" />
    <glyph glyph-name="one.tf" horiz-adv-x="501" 
d="M243 0v636h-132l15 70h192v-706h-75z" />
    <glyph glyph-name="two.tf" horiz-adv-x="501" 
d="M32 0v3l239 312q54 68 73 107t19 90q0 50 -12 77q-26 61 -108 61t-110 -64q-15 -34 -15 -112h-74q0 92 23 146q43 99 177 99t181 -102q17 -40 17 -104q0 -59 -19.5 -103.5t-70.5 -108.5q-45 -60 -180 -233h274v-68h-414z" />
    <glyph glyph-name="three.tf" horiz-adv-x="501" 
d="M442 295q15 -35 15 -99q0 -74 -17 -111q-44 -99 -191 -99q-146 0 -190 99q-23 52 -23 155h72q0 -82 17 -119q31 -66 121 -66q95 0 122 62q12 25 12 85q0 51 -12 77q-31 63 -147 63h-18v64h18q111 0 137 61q10 19 10 63q0 45 -10 68q-25 57 -109 57q-87 0 -116 -65
q-14 -34 -14 -100h-72q0 85 19 130q46 100 187 100q133 0 176 -92q14 -32 14 -93q0 -52 -12 -82q-26 -58 -96 -77q80 -20 107 -81z" />
    <glyph glyph-name="four.tf" horiz-adv-x="501" 
d="M491 246v-66h-85v-180h-74v180h-324v3l267 523h131v-460h85zM117 246h215v429h-1z" />
    <glyph glyph-name="five.tf" horiz-adv-x="501" 
d="M251 -14q-141 0 -187 102q-21 47 -21 134h74q0 -68 14 -102q29 -65 117 -65q90 0 120 67q13 29 13 92q0 69 -14 100q-36 78 -161 78q-73 0 -139 -20l47 334h316l-14 -69h-240l-27 -192q41 10 87 10q153 0 203 -110q20 -44 20 -129q0 -84 -19 -126q-49 -104 -189 -104z
" />
    <glyph glyph-name="six.tf" horiz-adv-x="501" 
d="M460 346q18 -40 18 -122q0 -83 -19 -126q-24 -53 -75 -82.5t-121 -29.5q-143 0 -201 128q-32 68 -32 234q0 175 33 249q55 123 198 123q97 0 151 -54q48 -48 58 -152h-75q-8 72 -39 105q-34 34 -94 34q-91 0 -129 -83q-27 -61 -27 -204v-16q48 100 177 100
q130 0 177 -104zM384 124q14 31 14 97q0 64 -13 94q-32 71 -121 71q-93 0 -126 -74q-14 -29 -14 -92q0 -61 15 -92q31 -75 124 -75q89 0 121 71z" />
    <glyph glyph-name="seven.tf" horiz-adv-x="501" 
d="M126 0l237 636h-316v70h423l-262 -706h-82z" />
    <glyph glyph-name="eight.tf" horiz-adv-x="501" 
d="M455 295q16 -35 16 -103t-17 -103q-44 -103 -203 -103t-203 103q-17 35 -17 103q0 69 16 102q29 65 110 85q-72 18 -98 78q-14 31 -14 85q0 53 14 84q20 45 70 69.5t122 24.5q149 0 193 -94q13 -32 13 -84q0 -53 -13 -85q-27 -59 -98 -78q80 -18 109 -84zM133 470
q29 -62 118 -62q90 0 118 62q10 21 10 66q0 41 -10 64q-27 59 -118 59q-92 0 -118 -59q-10 -23 -10 -64q0 -45 10 -66zM381 118q11 25 11 77q0 56 -12 80q-31 69 -129 69q-97 0 -130 -69q-10 -23 -10 -79q0 -53 10 -79q32 -67 130 -67q101 0 130 68z" />
    <glyph glyph-name="nine.tf" horiz-adv-x="501" 
d="M439 592q33 -71 33 -234q0 -173 -34 -249q-55 -123 -198 -123q-97 0 -151 54q-49 49 -57 152h74q8 -73 40 -105q33 -34 93 -34q91 0 129 83q27 61 27 204v16q-48 -100 -177 -100q-130 0 -177 104q-18 40 -18 122q0 83 20 126q24 54 74.5 83t120.5 29q143 0 201 -128z
M363 394q14 29 14 92q0 61 -15 92q-31 75 -123 75q-90 0 -122 -71q-14 -31 -14 -97q0 -64 13 -94q32 -71 121 -71q95 0 126 74z" />
    <glyph glyph-name="zero.dnom" horiz-adv-x="358" 
d="M179 -8q-88 0 -122 72q-19 44 -19 130t19 130q34 72 122 72q90 0 122 -72q19 -44 19 -130t-19 -130q-32 -72 -122 -72zM179 48q49 0 67 40q11 24 11 106t-11 106q-18 40 -67 40q-48 0 -66 -40q-12 -27 -12 -106t12 -106q18 -40 66 -40z" />
    <glyph glyph-name="one.dnom" horiz-adv-x="207" 
d="M92 0v330h-71l9 58h123v-388h-61z" />
    <glyph glyph-name="two.dnom" horiz-adv-x="294" 
d="M15 0v3l143 173q31 37 41.5 56.5t10.5 45.5q0 23 -6 35q-13 31 -58 31t-59 -32q-7 -14 -7 -46h-57q0 46 11 72q26 59 112 59q88 0 113 -57q10 -25 10 -58q0 -34 -10.5 -58.5t-39.5 -58.5q-82 -99 -90 -108h138v-57h-252z" />
    <glyph glyph-name="three.dnom" horiz-adv-x="319" 
d="M278 164q9 -17 9 -56t-9 -58q-26 -59 -121 -59q-92 0 -120 63q-13 32 -13 82h55q0 -40 9 -57q16 -37 68 -37q51 0 65 31q6 12 6 39q0 24 -6 38q-14 30 -78 30h-13v48h13q61 0 73 29q5 9 5 30q0 19 -5 31q-13 28 -58 28q-49 0 -65 -34q-7 -15 -7 -42h-55q0 39 11 64
q28 63 119 63q85 0 111 -55q8 -21 8 -51q0 -28 -7 -43q-13 -28 -51 -42q43 -11 56 -42z" />
    <glyph glyph-name="four.dnom" horiz-adv-x="315" 
d="M198 0v96h-200v2l150 290h109v-240h49v-52h-49v-96h-59zM86 148h112v218z" />
    <glyph glyph-name="five.dnom" horiz-adv-x="317" 
d="M157 -8q-90 0 -118 61q-11 27 -11 69h57q0 -32 7 -47q14 -32 64 -32q51 0 66 34q6 15 6 44q0 31 -7 46q-23 41 -99 41q-43 0 -80 -12l28 192h198l-7 -48h-141l-14 -95q18 7 53 7q92 0 119 -62q11 -25 11 -68q0 -44 -11 -66q-30 -64 -121 -64z" />
    <glyph glyph-name="six.dnom" horiz-adv-x="349" 
d="M307 189q11 -22 11 -63q0 -42 -11 -67q-30 -67 -126 -67t-130 75q-17 40 -17 125q0 87 18 130q34 74 128 74q66 0 98 -32q24 -24 33 -82h-63q-4 31 -18 46q-17 17 -49 17q-52 0 -73 -44q-12 -31 -12 -97v-3q29 47 101 47q84 0 110 -59zM243 77q7 13 7 44t-6 45
q-17 34 -63 34q-47 0 -66 -37q-7 -15 -7 -42q0 -28 7 -41q17 -37 65 -37t63 34z" />
    <glyph glyph-name="seven.dnom" horiz-adv-x="279" 
d="M50 0l130 334h-158v54h244l-149 -388h-67z" />
    <glyph glyph-name="eight.dnom" horiz-adv-x="335" 
d="M295 161q8 -16 8 -52q0 -34 -8 -55q-29 -62 -128 -62q-98 0 -127 62q-9 19 -9 55q0 34 9 52q16 36 59 47q-41 14 -53 43q-8 19 -8 44q0 29 8 45q26 56 121 56t121 -56q7 -17 7 -45q0 -27 -7 -44q-14 -30 -53 -43q44 -12 60 -47zM103 321q-5 -9 -5 -29q0 -19 5 -31
q13 -29 64 -29t64 30q5 12 5 30t-5 30q-13 28 -64 28t-64 -29zM236 76q6 12 6 35q0 25 -6 35q-14 35 -69 35q-53 0 -69 -34q-5 -11 -5 -36t5 -35q15 -34 69 -34q55 0 69 34z" />
    <glyph glyph-name="nine.dnom" horiz-adv-x="349" 
d="M298 321q17 -40 17 -125q0 -87 -18 -130q-34 -74 -128 -74q-66 0 -98 32q-24 24 -33 82h63q4 -31 18 -46q17 -17 49 -17q52 0 73 44q12 31 12 97v3q-29 -47 -101 -47q-84 0 -110 59q-11 22 -11 63q0 42 11 67q30 67 126 67t130 -75zM234 225q7 15 7 42q0 28 -7 41
q-17 37 -65 37t-63 -34q-7 -13 -7 -44t6 -45q17 -34 63 -34q48 0 66 37z" />
    <glyph glyph-name="zero.numr" horiz-adv-x="358" 
d="M179 310q-88 0 -122 72q-19 44 -19 130t19 130q34 72 122 72q90 0 122 -72q19 -44 19 -130t-19 -130q-32 -72 -122 -72zM179 366q49 0 67 40q11 24 11 106t-11 106q-18 40 -67 40q-48 0 -66 -40q-12 -27 -12 -106t12 -106q18 -40 66 -40z" />
    <glyph glyph-name="one.numr" horiz-adv-x="207" 
d="M92 318v330h-71l9 58h123v-388h-61z" />
    <glyph glyph-name="two.numr" horiz-adv-x="294" 
d="M15 318v3l143 173q31 37 41.5 56.5t10.5 45.5q0 23 -6 35q-13 31 -58 31t-59 -32q-7 -14 -7 -46h-57q0 46 11 72q26 59 112 59q88 0 113 -57q10 -25 10 -58q0 -34 -10.5 -58.5t-39.5 -58.5q-82 -99 -90 -108h138v-57h-252z" />
    <glyph glyph-name="three.numr" horiz-adv-x="319" 
d="M278 482q9 -17 9 -56t-9 -58q-26 -59 -121 -59q-92 0 -120 63q-13 32 -13 82h55q0 -40 9 -57q16 -37 68 -37q51 0 65 31q6 12 6 39q0 24 -6 38q-14 30 -78 30h-13v48h13q61 0 73 29q5 9 5 30q0 19 -5 31q-13 28 -58 28q-49 0 -65 -34q-7 -15 -7 -42h-55q0 39 11 64
q28 63 119 63q85 0 111 -55q8 -21 8 -51q0 -28 -7 -43q-13 -28 -51 -42q43 -11 56 -42z" />
    <glyph glyph-name="four.numr" horiz-adv-x="315" 
d="M198 318v96h-200v2l150 290h109v-240h49v-52h-49v-96h-59zM86 466h112v218z" />
    <glyph glyph-name="five.numr" horiz-adv-x="317" 
d="M157 310q-90 0 -118 61q-11 27 -11 69h57q0 -32 7 -47q14 -32 64 -32q51 0 66 34q6 15 6 44q0 31 -7 46q-23 41 -99 41q-43 0 -80 -12l28 192h198l-7 -48h-141l-14 -95q18 7 53 7q92 0 119 -62q11 -25 11 -68q0 -44 -11 -66q-30 -64 -121 -64z" />
    <glyph glyph-name="six.numr" horiz-adv-x="349" 
d="M307 507q11 -22 11 -63q0 -42 -11 -67q-30 -67 -126 -67t-130 75q-17 40 -17 125q0 87 18 130q34 74 128 74q66 0 98 -32q24 -24 33 -82h-63q-4 31 -18 46q-17 17 -49 17q-52 0 -73 -44q-12 -31 -12 -97v-3q29 47 101 47q84 0 110 -59zM243 395q7 13 7 44t-6 45
q-17 34 -63 34q-47 0 -66 -37q-7 -15 -7 -42q0 -28 7 -41q17 -37 65 -37t63 34z" />
    <glyph glyph-name="seven.numr" horiz-adv-x="279" 
d="M50 318l130 334h-158v54h244l-149 -388h-67z" />
    <glyph glyph-name="eight.numr" horiz-adv-x="335" 
d="M295 479q8 -16 8 -52q0 -34 -8 -55q-29 -62 -128 -62q-98 0 -127 62q-9 20 -9 55q0 34 9 52q16 36 59 47q-41 14 -53 43q-8 19 -8 44q0 29 8 45q26 56 121 56t121 -56q7 -17 7 -45q0 -27 -7 -44q-14 -30 -53 -43q44 -12 60 -47zM103 639q-5 -9 -5 -29q0 -19 5 -31
q13 -29 64 -29t64 30q5 12 5 30t-5 30q-13 28 -64 28t-64 -29zM236 394q6 12 6 35q0 24 -6 35q-14 35 -69 35q-53 0 -69 -34q-5 -11 -5 -36t5 -35q15 -34 69 -34q55 0 69 34z" />
    <glyph glyph-name="nine.numr" horiz-adv-x="349" 
d="M298 639q17 -40 17 -125q0 -87 -18 -130q-34 -74 -128 -74q-66 0 -98 32q-24 24 -33 82h63q4 -31 18 -46q17 -17 49 -17q52 0 73 44q12 31 12 97v3q-29 -47 -101 -47q-84 0 -110 59q-11 22 -11 63q0 42 11 67q30 67 126 67t130 -75zM234 543q7 15 7 42q0 28 -7 41
q-17 37 -65 37t-63 -34q-7 -13 -7 -44t6 -45q17 -34 63 -34q48 0 66 37z" />
    <glyph glyph-name="colon.case" horiz-adv-x="248" 
d="M124 486q-23 0 -37 13.5t-14 35.5q0 23 14 37t37 14t37 -14t14 -37q0 -22 -14 -35.5t-37 -13.5zM124 121q-23 0 -37 13.5t-14 35.5t14 36t37 14t37 -14t14 -36t-14 -35.5t-37 -13.5z" />
    <glyph glyph-name="semicolon.case" horiz-adv-x="261" 
d="M137 486q-23 0 -37 13.5t-14 35.5q0 23 14 37t37 14t37 -14t14 -37q0 -22 -14 -35.5t-37 -13.5zM42 -33l57 321h71l-70 -321h-58z" />
    <glyph glyph-name="exclamdown.case" horiz-adv-x="238" 
d="M119 714q23 0 37 -13.5t14 -35.5q0 -23 -14 -36.5t-37 -13.5t-37 13.5t-14 36.5q0 22 14 35.5t37 13.5zM150 520l8 -524h-79l9 524h62z" />
    <glyph glyph-name="questiondown.case" horiz-adv-x="426" 
d="M219 719q23 0 37 -13.5t14 -35.5q0 -23 -14 -36.5t-37 -13.5t-37 13.5t-14 36.5q0 22 14 35.5t37 13.5zM259 525q-97 -196 -123.5 -262.5t-26.5 -109.5q0 -48 23 -75t81 -27q75 0 97 52q11 24 11 91h73q0 -79 -16 -118q-41 -89 -168 -89q-89 0 -133.5 44t-44.5 121
q0 47 25.5 112t120.5 261h81z" />
    <glyph glyph-name="periodcentered.case" horiz-adv-x="248" 
d="M124 323q-23 0 -37 14t-14 36t14 36t37 14t37 -14t14 -36t-14 -36t-37 -14z" />
    <glyph glyph-name="periodcentered.loclCAT.case" horiz-adv-x="60" 
d="M-40 337q-23 0 -37.5 13.5t-14.5 35.5q0 23 14.5 36.5t37.5 13.5t37 -13.5t14 -36.5q0 -22 -14 -35.5t-37 -13.5z" />
    <glyph glyph-name="slash.case" horiz-adv-x="388" 
d="M33 -50l259 806h74l-259 -806h-74z" />
    <glyph glyph-name="periodcentered.loclCAT" horiz-adv-x="122" 
d="M61 320q-23 0 -37 13.5t-14 35.5q0 23 14 37t37 14t37 -14t14 -37q0 -22 -14 -35.5t-37 -13.5z" />
    <glyph glyph-name="parenleft.case" horiz-adv-x="309" 
d="M199 -124q-62 115 -92 226.5t-30 250.5t30 251t92 227h70q-123 -224 -123 -478q0 -253 123 -477h-70z" />
    <glyph glyph-name="parenright.case" horiz-adv-x="309" 
d="M110 -124h-71q124 223 124 477q0 255 -124 478h71q62 -114 91.5 -226t29.5 -252q0 -139 -29.5 -251t-91.5 -226z" />
    <glyph glyph-name="braceleft.case" horiz-adv-x="307" 
d="M186 464q0 -56 -15 -80.5t-56 -30.5q41 -6 56 -30.5t15 -80.5v-229q0 -41 18.5 -61t63.5 -20h19v-56h-40q-61 0 -92 33t-31 91v231q1 52 -16 70.5t-70 18.5v66q54 0 70.5 19t15.5 71v230q0 58 31 91.5t92 33.5h40v-57h-19q-45 0 -63.5 -20t-18.5 -61v-229z" />
    <glyph glyph-name="braceright.case" horiz-adv-x="307" 
d="M183 476q-1 -52 15.5 -71t70.5 -19v-66q-53 0 -70 -18.5t-16 -70.5v-231q0 -58 -31 -91t-92 -33h-40v56h19q45 0 63.5 20t18.5 61v229q0 56 15 80.5t56 30.5q-41 6 -56 30.5t-15 80.5v229q0 41 -18.5 61t-63.5 20h-19v57h40q61 0 92 -33.5t31 -91.5v-230z" />
    <glyph glyph-name="bracketleft.case" horiz-adv-x="290" 
d="M96 -124v955h174v-59h-108v-837h108v-59h-174z" />
    <glyph glyph-name="bracketright.case" horiz-adv-x="290" 
d="M193 -124h-173v59h108v837h-108v59h173v-955z" />
    <glyph glyph-name="hyphen.case" horiz-adv-x="332" 
d="M44 338v70h242v-70h-242z" />
    <glyph glyph-name="uni00AD.case" horiz-adv-x="329" 
d="M44 338v70h242v-70h-242z" />
    <glyph glyph-name="endash.case" horiz-adv-x="416" 
d="M44 338v69h329v-69h-329z" />
    <glyph glyph-name="emdash.case" horiz-adv-x="822" 
d="M44 338v69h734v-69h-734z" />
    <glyph glyph-name="guillemotleft.case" horiz-adv-x="401" 
d="M148 209l-131 160l131 160h78l-130 -160l130 -160h-78zM304 209l-131 160l131 160h79l-131 -160l131 -160h-79z" />
    <glyph glyph-name="guillemotright.case" horiz-adv-x="401" 
d="M97 209h-78l130 160l-130 160h78l131 -160zM253 209h-78l130 160l-130 160h78l131 -160z" />
    <glyph glyph-name="guilsinglleft.case" horiz-adv-x="245" 
d="M148 209l-131 160l131 160h78l-130 -160l130 -160h-78z" />
    <glyph glyph-name="guilsinglright.case" horiz-adv-x="245" 
d="M97 209h-78l130 160l-130 160h78l131 -160z" />
    <glyph glyph-name="cent.ss06" horiz-adv-x="437" 
d="M296 185q31 28 31 96h78q-3 -98 -51 -142q-38 -35 -100 -41v-98h-57v98q-102 12 -143 102q-23 50 -23 153t23 152q41 92 143 104v97h57v-97q61 -6 100 -42q50 -47 51 -141h-77q-1 66 -33 96q-27 24 -69 24q-72 0 -101 -64q-17 -38 -17 -129q0 -90 17 -128q29 -64 101 -64
q44 0 70 24z" />
    <glyph glyph-name="dollar.ss06" horiz-adv-x="514" 
d="M461 281q15 -33 15 -95q0 -60 -16 -96q-44 -94 -179 -103v-90h-58v90q-122 11 -164 103q-21 48 -21 137h82q0 -75 15 -108q28 -66 123 -66q97 0 126 63q10 20 10 64q0 41 -10 64t-36.5 41t-49 26t-72.5 24q-64 20 -103.5 44.5t-57.5 63.5q-15 34 -15 90q0 53 16 89
q39 85 153 96v91h58v-90q114 -10 153 -100q20 -43 20 -129h-78q0 73 -14 102q-27 63 -111 63q-85 0 -111 -59q-8 -21 -8 -58q0 -39 9 -60q9 -20 33.5 -36t42.5 -23t66 -22q3 -1 5 -1.5t5 -1.5t5 -2q68 -21 108 -45.5t59 -65.5z" />
    <glyph glyph-name="paragraph.ss07" horiz-adv-x="553" 
d="M253 -191v504h-53q-127 0 -164 83q-16 36 -16 114q0 77 16 112q36 84 171 84h339v-64h-58v-833h-67v833h-101v-833h-67zM201 377h52v267h-50q-80 0 -105 -51q-10 -23 -10 -83q0 -58 11 -83q24 -50 102 -50z" />
    <glyph glyph-name="caroncomb.alt" 
d="M-76 547l24 159h62l-30 -159h-56z" />
    <glyph glyph-name="uni0335.Eth" 
d="M-273 331v67h273v-67h-273z" />
    <glyph glyph-name="uni0335.Tbar" 
d="M-351 293v60h301v-60h-301z" />
    <glyph glyph-name="caron.alt" horiz-adv-x="186" 
d="M50 547l24 159h62l-30 -159h-56z" />
    <glyph glyph-name="uni0308.case" 
d="M-278 770q-20 0 -33.5 12.5t-13.5 31.5q0 20 13.5 33t33.5 13t33.5 -13t13.5 -33q0 -19 -13.5 -31.5t-33.5 -12.5zM-96 770q-20 0 -33.5 12.5t-13.5 31.5q0 20 13.5 33t33.5 13t33.5 -13t13.5 -33q0 -19 -13.5 -31.5t-33.5 -12.5z" />
    <glyph glyph-name="uni0307.case" 
d="M-96 771q-21 0 -34.5 12.5t-13.5 33.5q0 20 13.5 32.5t34.5 12.5q20 0 33 -12.5t13 -32.5q0 -21 -13 -33.5t-33 -12.5z" />
    <glyph glyph-name="gravecomb.case" 
d="M-50 755h-77l-108 119h84z" />
    <glyph glyph-name="acutecomb.case" 
d="M-235 755l101 119h84l-108 -119h-77z" />
    <glyph glyph-name="uni030B.case" 
d="M-346 756l94 118h72l-105 -118h-61zM-216 756l94 118h72l-105 -118h-61z" />
    <glyph glyph-name="uni0302.case" 
d="M-348 755l103 119h92l103 -119h-78l-71 82l-72 -82h-77z" />
    <glyph glyph-name="uni030C.case" 
d="M-50 874l-103 -119h-92l-103 119h78l71 -81l72 81h77z" />
    <glyph glyph-name="uni0306.case" 
d="M-178 751q-124 0 -130 123h56q3 -39 21 -57t53 -18t52 17.5t22 57.5h54q-4 -123 -128 -123z" />
    <glyph glyph-name="uni030A.case" 
d="M-152 729q-45 0 -72.5 26.5t-27.5 70.5q0 43 27.5 69t72.5 26q46 0 74 -26.5t28 -68.5q0 -43 -28 -70t-74 -27zM-152 773q25 0 39.5 14.5t14.5 38.5q0 23 -15 37.5t-39 14.5t-38.5 -14.5t-14.5 -37.5q0 -24 14.5 -38.5t38.5 -14.5z" />
    <glyph glyph-name="tildecomb.case" 
d="M-142 750q-47 0 -85 40q-1 1 -6 6.5t-7 7t-6 5.5t-6.5 5t-6.5 3.5t-7.5 3.5t-7.5 2t-9 1q-41 0 -45 -72h-52q5 125 94 125q44 0 85 -41q2 -1 8.5 -8t8.5 -8.5l8 -6t9.5 -6t9 -3t11.5 -1.5q39 0 44 72h52q-5 -125 -92 -125z" />
    <glyph glyph-name="uni0304.case" 
d="M-313 788v55h263v-55h-263z" />
    <glyph glyph-name="uni0337.case" 
d="M-160 402l160 111v-73l-160 -111v11l-93 -63v71l93 64v-10z" />
    <glyph glyph-name="uni0338.case" 
d="M-632 0l109 138l8 3l325 464l6 -1l79 102h65l-120 -152h-5l-325 -465l-8 -3l-67 -86h-67z" />
    <glyph glyph-name="uni0308.narrow.case" 
d="M-223 768q-19 0 -32 13t-13 32q0 20 12.5 33t32.5 13t32.5 -13t12.5 -33q0 -19 -13 -32t-32 -13zM-95 767q-20 0 -33 12.5t-13 32.5t13 33t33 13q19 0 32 -13t13 -33q0 -19 -13 -32t-32 -13z" />
    <glyph glyph-name="uni0302.narrow.case" 
d="M-279 755l73 119h83l73 -119h-65l-49 81l-49 -81h-66z" />
    <glyph glyph-name="uni0306.narrow.case" 
d="M-158 751q-57 0 -83 30t-26 93h55q1 -41 13 -58t41 -17t41 17.5t13 57.5h54q0 -63 -25.5 -93t-82.5 -30z" />
    <glyph glyph-name="tildecomb.narrow.case" 
d="M-125 752q-24 0 -38 10t-28 30q-10 14 -13.5 18t-11.5 9.5t-17 5.5q-16 0 -22 -16.5t-8 -53.5h-47q3 121 76 121q24 0 38 -10t29 -29q13 -18 21 -25.5t19 -7.5q16 0 21.5 15.5t7.5 54.5h48q-2 -63 -19.5 -92.5t-55.5 -29.5z" />
    <glyph glyph-name="uni0304.narrow.case" 
d="M-251 787v55h201v-55h-201z" />
    <glyph glyph-name="uni0335.dh" 
d="M-278 297v53h278v-53h-278z" />
    <glyph glyph-name="uni0307.i" 
d="M-97 576q-22 0 -35.5 12.5t-13.5 32.5t13.5 33t35.5 13q20 0 33.5 -13t13.5 -33t-13.5 -32.5t-33.5 -12.5z" />
    <glyph glyph-name="uni0308.narrow" 
d="M-218 575q-20 0 -32.5 12.5t-12.5 32.5t12.5 32.5t32.5 12.5t32.5 -12.5t12.5 -32.5t-12.5 -32.5t-32.5 -12.5zM-95 575q-20 0 -32.5 12.5t-12.5 32.5t12.5 32.5t32.5 12.5t32.5 -12.5t12.5 -32.5t-12.5 -32.5t-32.5 -12.5z" />
    <glyph glyph-name="gravecomb.narrow" 
d="M-50 559h-68l-79 147h75z" />
    <glyph glyph-name="acutecomb.narrow" 
d="M-197 559l72 147h75l-79 -147h-68z" />
    <glyph glyph-name="uni0302.narrow" 
d="M-290 558l79 148h83l78 -148h-64l-56 106l-56 -106h-64z" />
    <glyph glyph-name="uni030C.narrow" 
d="M-295 706h64l56 -107l56 107h64l-78 -148h-83z" />
    <glyph glyph-name="uni0306.narrow" 
d="M-159 554q-57 0 -83.5 37t-26.5 115h54q0 -57 12.5 -80t43.5 -23t43 23t12 80h54q0 -78 -26 -115t-83 -37z" />
    <glyph glyph-name="tildecomb.narrow" 
d="M-119 556q-28 0 -42 15t-25 44q-5 15 -8 21.5t-8.5 13t-12.5 6.5q-14 0 -18 -21t-5 -76h-49q1 80 15 114.5t54 34.5q28 0 42 -15t25 -44q1 -3 3 -7q15 -32 26 -34q14 0 18 21t5 77h49q-1 -81 -15 -115.5t-54 -34.5z" />
    <glyph glyph-name="uni0304.narrow" 
d="M-239 593v56h189v-56h-189z" />
    <glyph glyph-name="uni0328.narrow" 
d="M-97 -200q-39 0 -62 18.5t-23 53.5q0 62 67 134l52 -6q-57 -72 -57 -118q0 -32 35 -32q19 0 35 9v-50q-21 -9 -47 -9z" />
    <glyph glyph-name="uni0338.ss04" 
d="M-109 393l-29 65l50 81l55 -31zM-364 -44l-54 31l75 113l29 -65z" />
    <glyph glyph-name="uni0338.case.ss04" 
d="M-125 583l-32 73l74 102l60 -40zM-525 -52l-58 41l108 142l32 -72z" />
    </font>
</defs>
</svg>
