<?xml version="1.0" standalone="no"?>
<!DOCTYPE svg PUBLIC "-//W3C//DTD SVG 1.1//EN" "http://www.w3.org/Graphics/SVG/1.1/DTD/svg11.dtd" >
<svg xmlns="http://www.w3.org/2000/svg" xmlns:xlink="http://www.w3.org/1999/xlink" version="1.1">
<metadata>
Created by FontForge 20170731 at Mon Mar  5 17:28:05 2018
 By Aleksey,,,
Copyright (c) 2018 Monotype Imaging Inc. All rights reserved.
</metadata>
<defs>
<font id="NeuePlak-Thin" horiz-adv-x="0" >
  <font-face 
    font-family="Neue Plak Thin"
    font-weight="250"
    font-stretch="normal"
    units-per-em="1000"
    panose-1="2 11 3 4 3 2 2 2 2 4"
    ascent="800"
    descent="-200"
    x-height="478"
    cap-height="706"
    bbox="-698 -220 1009 1088"
    underline-thickness="50"
    underline-position="-200"
    unicode-range="U+000D-FEFF"
  />
<missing-glyph horiz-adv-x="607" 
d="M70 0v706h468v-706h-468zM97 26h413v654h-413v-654z" />
    <glyph glyph-name=".notdef" horiz-adv-x="607" 
d="M70 0v706h468v-706h-468zM97 26h413v654h-413v-654z" />
    <glyph glyph-name=".null" 
 />
    <glyph glyph-name="nonmarkingreturn" horiz-adv-x="333" 
 />
    <glyph glyph-name="NULL" 
 />
    <glyph glyph-name="NULL" 
 />
    <glyph glyph-name="CR" unicode="&#xd;" horiz-adv-x="180" 
 />
    <glyph glyph-name="space" unicode=" " horiz-adv-x="180" 
 />
    <glyph glyph-name="exclam" unicode="!" horiz-adv-x="233" 
d="M105 164l-2 542h28l-2 -542h-24zM117 -9q-27 0 -27 26q0 11 7.5 18.5t19.5 7.5q11 0 18.5 -7.5t7.5 -18.5q0 -12 -7.5 -19t-18.5 -7z" />
    <glyph glyph-name="quotedbl" unicode="&#x22;" horiz-adv-x="324" 
d="M89 423l-1 283h26l-1 -283h-24zM211 423l-2 283h27l-1 -283h-24z" />
    <glyph glyph-name="numbersign" unicode="#" horiz-adv-x="655" 
d="M631 459h-144l-36 -212h144l-5 -25h-143l-41 -237h-27l41 237h-231l-41 -237h-27l41 237h-142l6 25h140l36 212h-141l6 25h139l41 237h27l-41 -237h231l41 237h27l-41 -237h145zM424 247l36 212h-231l-36 -212h231z" />
    <glyph glyph-name="dollar" unicode="$" horiz-adv-x="631" 
d="M561 253q14 -31 14 -72q0 -44 -16 -82q-52 -112 -235 -114v-96h-25v96q-167 7 -220 125q-23 53 -23 132h28q0 -73 22 -121q47 -103 193 -109v341q-89 19 -141.5 43.5t-73.5 71.5q-13 29 -13 69q0 41 15 74q23 52 79 80.5t134 29.5v96h25v-96q149 -8 199 -120
q23 -49 23 -124h-28q0 68 -20 112q-45 97 -174 105v-319l12 -3q96 -21 149.5 -45.5t75.5 -73.5zM110 480q18 -40 63.5 -61t125.5 -39v315q-144 -2 -188 -95q-12 -27 -12 -60q0 -32 11 -60zM534 112q13 27 13 66q0 34 -11 62q-20 44 -69.5 65.5t-142.5 42.5v-337
q164 0 210 101z" />
    <glyph glyph-name="percent" unicode="%" horiz-adv-x="660" 
d="M162 411q-87 0 -118 69q-15 33 -15 82q0 48 15 81q31 69 118 69t118 -69q15 -33 15 -81q0 -49 -15 -82q-31 -69 -118 -69zM59 0l511 706h30l-510 -706h-31zM162 434q72 0 96 55q13 27 13 73q0 44 -13 73q-25 54 -96 54t-96 -54q-12 -27 -12 -73q0 -48 12 -73
q24 -55 96 -55zM498 -6q-87 0 -118 69q-15 33 -15 81q0 49 15 82q32 69 118 69t118 -69q15 -33 15 -82q0 -48 -15 -81q-31 -69 -118 -69zM498 17q72 0 96 55q13 27 13 72q0 46 -13 73q-24 55 -96 55t-96 -55q-12 -25 -12 -73q0 -47 12 -72q24 -55 96 -55z" />
    <glyph glyph-name="ampersand" unicode="&#x26;" horiz-adv-x="638" 
d="M471 92q38 -41 68 -54.5t71 -13.5v-24q-46 0 -81 15.5t-74 56.5q-76 -86 -203 -86q-97 0 -153.5 45t-56.5 124q0 70 42.5 120.5t118.5 98.5q-82 113 -82 198q0 72 45 110.5t127 38.5q78 0 119.5 -34t41.5 -94q0 -18 -3 -34t-12.5 -31.5t-16.5 -27t-24.5 -26.5
t-25.5 -22.5t-31.5 -23t-31 -20t-35.5 -21.5t-34 -20l52 -64l158 -187q0 -1 2 -2.5t2 -2.5q45 60 101 200l24 -8q-63 -153 -108 -211zM147 573q0 -78 78 -185q9 5 33 19.5t33.5 20.5t30 19.5t30 21.5t24.5 21t22 23.5t15.5 24t11.5 27.5t3 29q0 47 -34.5 75.5t-99.5 28.5
q-70 0 -108.5 -32t-38.5 -93zM255 12q110 0 183 79l-9 10l-160 190q-29 33 -51 63q-70 -44 -108.5 -89t-38.5 -107q0 -68 49.5 -107t134.5 -39z" />
    <glyph glyph-name="quotesingle" unicode="'" horiz-adv-x="202" 
d="M89 423l-1 283h26l-1 -283h-24z" />
    <glyph glyph-name="parenleft" unicode="(" horiz-adv-x="335" 
d="M248 -202q-73 111 -109 226t-36 254q0 140 36 255t109 226h29q-148 -217 -148 -481q0 -263 148 -480h-29z" />
    <glyph glyph-name="parenright" unicode=")" horiz-adv-x="335" 
d="M87 -202h-29q148 217 148 480q0 264 -148 481h29q73 -111 109 -226t36 -255q0 -139 -36 -254t-109 -226z" />
    <glyph glyph-name="asterisk" unicode="*" horiz-adv-x="351" 
d="M97 428l-19 15l81 108l-130 40l8 23l128 -44l-2 136h24l-2 -136l129 44l7 -23l-130 -40l82 -108l-19 -15l-79 112z" />
    <glyph glyph-name="plus" unicode="+" horiz-adv-x="578" 
d="M521 287v-25h-219v-219h-26v219h-220v25h220v219h26v-219h219z" />
    <glyph glyph-name="comma" unicode="," horiz-adv-x="255" 
d="M68 -167l67 321h26l-70 -321h-23z" />
    <glyph glyph-name="hyphen" unicode="-" horiz-adv-x="389" 
d="M56 261v26h277v-26h-277z" />
    <glyph glyph-name="period" unicode="." horiz-adv-x="241" 
d="M120 -9q-26 0 -26 26q0 11 7 18.5t19 7.5q11 0 18.5 -7.5t7.5 -18.5q0 -12 -7.5 -19t-18.5 -7z" />
    <glyph glyph-name="slash" unicode="/" horiz-adv-x="421" 
d="M40 -50l313 771h27l-312 -771h-28z" />
    <glyph glyph-name="zero" unicode="0" horiz-adv-x="655" 
d="M328 -15q-165 0 -229 145q-39 87 -39 223t39 223q64 145 229 145q164 0 228 -145q39 -84 39 -223t-39 -223q-64 -145 -228 -145zM328 12q145 0 203 128q36 82 36 213t-36 213q-58 128 -203 128t-203 -128q-36 -82 -36 -213t36 -213q58 -128 203 -128z" />
    <glyph glyph-name="one" unicode="1" horiz-adv-x="289" 
d="M171 0v680h-135l5 26h157v-706h-27z" />
    <glyph glyph-name="two" unicode="2" horiz-adv-x="545" 
d="M35 0v3l292 279q78 73 107.5 121t29.5 107q0 48 -17 87q-42 96 -175 96q-130 0 -175 -101q-21 -46 -21 -120h-28q0 79 25 133q51 115 200 115q150 0 202 -114q18 -41 18 -96q0 -63 -30 -114t-107 -123q-42 -39 -129.5 -123.5t-128.5 -123.5h402v-26h-465z" />
    <glyph glyph-name="three" unicode="3" horiz-adv-x="585" 
d="M512 276q17 -37 17 -85q0 -54 -19 -95q-51 -111 -219 -111q-169 0 -222 118q-26 58 -26 145h28q0 -78 23 -132q48 -104 197 -104q150 0 193 96q16 33 16 83q0 45 -15 76q-43 95 -224 95h-19v26h19q168 0 209 90q12 27 12 63q0 37 -13 68q-40 86 -173 86q-144 0 -190 -102
q-21 -47 -21 -116h-28q0 74 23 126q53 118 217 118q152 0 198 -100q15 -35 15 -79q0 -41 -14 -72q-33 -76 -139 -94q119 -17 155 -100z" />
    <glyph glyph-name="four" unicode="4" horiz-adv-x="552" 
d="M537 229v-26h-109v-203h-27v203h-396v4l376 499h47v-477h109zM55 229h346v460h-1z" />
    <glyph glyph-name="five" unicode="5" horiz-adv-x="574" 
d="M284 -15q-158 0 -209 115q-22 48 -22 117h28q0 -63 20 -106q43 -99 184 -99q143 0 189 102q18 41 18 95q0 56 -19 99q-48 110 -214 110q-93 0 -181 -35l55 323h343l-5 -26h-315l-44 -260q73 25 147 25q185 0 241 -126q21 -50 21 -109q0 -62 -21 -107q-51 -118 -216 -118z
" />
    <glyph glyph-name="six" unicode="6" horiz-adv-x="599" 
d="M529 330q19 -41 19 -110t-20 -112q-25 -57 -80.5 -89.5t-131.5 -32.5q-163 0 -226 139q-33 73 -33 224q0 159 35 236q61 135 220 135q102 0 162 -58q50 -52 60 -147h-27q-12 87 -52 126q-51 53 -143 53q-141 0 -196 -123q-33 -75 -33 -221q0 -54 4 -90q3 35 17 69
q25 55 80 87.5t133 32.5q76 0 131.5 -31.5t80.5 -87.5zM503 120q17 35 17 99q0 62 -17 99q-47 105 -187 105q-144 0 -193 -109q-18 -38 -18 -98q0 -55 18 -94q23 -51 73 -80t120 -29q68 0 116.5 29t70.5 78z" />
    <glyph glyph-name="seven" unicode="7" horiz-adv-x="481" 
d="M106 0l311 680h-387v26h429l-322 -706h-31z" />
    <glyph glyph-name="eight" unicode="8" horiz-adv-x="619" 
d="M545 268q17 -37 17 -82q0 -47 -17 -84q-25 -56 -85.5 -86.5t-150.5 -30.5q-182 0 -236 117q-16 35 -16 84q0 47 16 82q38 85 152 106q-100 21 -133 96q-14 31 -14 73t14 73q23 50 79 77.5t138 27.5t138 -27.5t80 -77.5q14 -34 14 -73q0 -42 -14 -73q-33 -75 -134 -96
q114 -20 152 -106zM118 479q21 -45 71 -69t120 -24q71 0 121 24t70 69q13 26 13 64q0 33 -13 61q-38 90 -191 90q-151 0 -191 -90q-12 -26 -12 -61q0 -37 12 -64zM519 115q14 31 14 71q0 39 -14 72q-46 102 -210 102q-163 0 -209 -102q-14 -29 -14 -72q0 -42 13 -71
q46 -103 210 -103q165 0 210 103z" />
    <glyph glyph-name="nine" unicode="9" horiz-adv-x="624" 
d="M533 583q34 -76 34 -224q0 -156 -35 -236q-61 -135 -220 -135q-105 0 -163 58q-49 49 -59 147h27q10 -84 51 -127q52 -52 144 -52q141 0 196 122q32 74 32 222q0 50 -3 90q-4 -39 -18 -69q-25 -56 -79.5 -88.5t-132.5 -32.5q-77 0 -132 31.5t-81 88.5q-18 40 -18 110
q0 68 19 112q26 56 81.5 88.5t131.5 32.5q163 0 225 -138zM501 393q17 39 17 99q0 54 -18 94q-22 50 -72 79.5t-120 29.5q-69 0 -117 -29t-70 -78q-17 -37 -17 -99q0 -64 16 -100q22 -49 70.5 -76.5t117.5 -27.5q72 0 121.5 29t71.5 79z" />
    <glyph glyph-name="colon" unicode=":" horiz-adv-x="241" 
d="M120 368q-26 0 -26 26q0 11 7 18.5t19 7.5q11 0 18.5 -7.5t7.5 -18.5q0 -12 -7.5 -19t-18.5 -7zM120 -9q-26 0 -26 26q0 11 7 18.5t19 7.5q11 0 18.5 -7.5t7.5 -18.5q0 -12 -7.5 -19t-18.5 -7z" />
    <glyph glyph-name="semicolon" unicode=";" horiz-adv-x="272" 
d="M152 368q-27 0 -27 26q0 11 7.5 18.5t19.5 7.5q11 0 18.5 -7.5t7.5 -18.5q0 -12 -7.5 -19t-18.5 -7zM68 -167l67 321h26l-70 -321h-23z" />
    <glyph glyph-name="less" unicode="&#x3c;" horiz-adv-x="578" 
d="M520 464v-27l-441 -163l441 -163v-27l-465 173v33z" />
    <glyph glyph-name="equal" unicode="=" horiz-adv-x="578" 
d="M56 361v26h465v-26h-465zM56 162v26h465v-26h-465z" />
    <glyph glyph-name="greater" unicode="&#x3e;" horiz-adv-x="578" 
d="M56 464l465 -174v-33l-465 -173v27l441 163l-441 163v27z" />
    <glyph glyph-name="question" unicode="?" horiz-adv-x="487" 
d="M223 164q125 191 160 262.5t35 122.5q0 146 -170 146q-125 0 -162 -83q-17 -38 -17 -102h-27q0 71 19 112q44 99 187 99q103 0 150.5 -47t47.5 -125q0 -53 -34 -122.5t-156 -262.5h-33zM239 -9q-27 0 -27 26q0 11 7.5 18.5t19.5 7.5q11 0 18.5 -7.5t7.5 -18.5
q0 -12 -7.5 -19t-18.5 -7z" />
    <glyph glyph-name="at" unicode="@" horiz-adv-x="842" 
d="M755 487q32 -71 32 -170q0 -83 -25 -142q-48 -106 -178 -106h-27v82q-42 -92 -169 -92q-102 0 -132 67q-10 21 -10 53t10 52q32 72 182 72h119v8q0 64 -14 95q-26 58 -123 58q-99 0 -125 -56q-8 -21 -10 -54h-24q0 38 12 63q31 71 147 71q114 0 145 -72q16 -34 16 -107
v-217h6q113 0 154 93q23 50 23 131q0 95 -30 162q-37 81 -115.5 126t-193.5 45q-233 0 -312 -177q-36 -80 -36 -189q0 -107 36 -187q40 -90 123.5 -139.5t205.5 -49.5q44 0 78 6v-22q-38 -5 -78 -5q-130 0 -219 52t-131 147q-38 83 -38 198t38 197q41 91 125 141t208 50
t207.5 -48.5t122.5 -135.5zM393 83q112 0 148 78q16 36 16 109v9h-118q-135 0 -160 -57q-8 -16 -8 -43q0 -25 8 -42q24 -54 114 -54z" />
    <glyph glyph-name="A" unicode="A" horiz-adv-x="591" 
d="M556 0l-83 217h-356l-82 -217h-30l270 706h41l270 -706h-30zM127 243h336l-167 440h-2z" />
    <glyph glyph-name="B" unicode="B" horiz-adv-x="569" 
d="M502 271q16 -33 16 -84q0 -47 -16 -84q-48 -103 -224 -103h-202v706h197q159 0 204 -100q15 -33 15 -77q0 -47 -16 -80q-30 -67 -117 -86q109 -16 143 -92zM103 680v-306h174q134 0 172 85q14 31 14 70q0 38 -12 65q-39 86 -180 86h-168zM475 114q14 31 14 74
q0 40 -14 73q-40 87 -191 87h-181v-322h173q160 0 199 88z" />
    <glyph glyph-name="C" unicode="C" horiz-adv-x="718" 
d="M371 -15q-205 0 -280 166q-37 83 -37 202q0 121 37 202q76 166 280 166q134 0 216 -73q73 -68 77 -181h-28q-4 102 -70 161q-71 65 -196 65q-185 0 -253 -149q-34 -77 -34 -191t34 -192q68 -148 254 -148q125 0 196 63q68 63 72 172h28q-4 -122 -79 -192
q-79 -71 -217 -71z" />
    <glyph glyph-name="D" unicode="D" horiz-adv-x="665" 
d="M76 0v706h209q220 0 291 -160q35 -77 35 -193t-35 -193q-71 -160 -291 -160h-209zM103 26h181q200 0 266 144q32 70 32 183t-32 183q-64 144 -266 144h-181v-654z" />
    <glyph glyph-name="E" unicode="E" horiz-adv-x="516" 
d="M76 0v706h392v-26h-365v-306h362v-26h-362v-322h365v-26h-392z" />
    <glyph glyph-name="F" unicode="F" horiz-adv-x="440" 
d="M76 0v706h322v-26h-295v-306h293v-26h-293v-348h-27z" />
    <glyph glyph-name="G" unicode="G" horiz-adv-x="727" 
d="M408 352h264v-36q0 -106 -33 -180q-68 -151 -268 -151q-205 0 -281 167q-36 80 -36 201t36 201q76 167 286 167q135 0 209 -68q71 -64 79 -183h-28q-7 107 -70 163q-66 60 -190 60q-192 0 -259 -149q-34 -77 -34 -191q0 -116 34 -191q67 -149 255 -149q184 0 244 135
q29 66 29 161v17h-237v26z" />
    <glyph glyph-name="H" unicode="H" horiz-adv-x="619" 
d="M76 0v706h27v-332h413v332h28v-706h-28v348h-413v-348h-27z" />
    <glyph glyph-name="I" unicode="I" horiz-adv-x="179" 
d="M76 0v706h27v-706h-27z" />
    <glyph glyph-name="J" unicode="J" horiz-adv-x="292" 
d="M63 -4q-19 0 -53 4v27q21 -4 49 -4q70 0 100.5 32.5t30.5 108.5v542h28v-545q0 -86 -37 -125.5t-118 -39.5z" />
    <glyph glyph-name="K" unicode="K" horiz-adv-x="496" 
d="M489 0h-37l-349 376v-376h-27v706h27v-313l307 313h36l-314 -321z" />
    <glyph glyph-name="L" unicode="L" horiz-adv-x="379" 
d="M76 0v706h27v-680h266v-26h-293z" />
    <glyph glyph-name="M" unicode="M" horiz-adv-x="793" 
d="M76 0v706h39l281 -660l282 660h39v-706h-27v667l-284 -667h-19l-284 667v-667h-27z" />
    <glyph glyph-name="N" unicode="N" horiz-adv-x="650" 
d="M76 0v706h34l438 -668v668h27v-706h-35l-437 668v-668h-27z" />
    <glyph glyph-name="O" unicode="O" horiz-adv-x="743" 
d="M371 -15q-204 0 -279 164q-38 83 -38 204t38 204q75 164 279 164q205 0 280 -164q37 -84 37 -204t-37 -204q-75 -164 -280 -164zM371 13q187 0 254 148q35 76 35 192t-35 192q-67 148 -254 148t-253 -148q-35 -76 -35 -192t35 -192q66 -148 253 -148z" />
    <glyph glyph-name="P" unicode="P" horiz-adv-x="539" 
d="M76 0v706h213q162 0 207 -98q15 -36 15 -81t-15 -81q-45 -98 -207 -98h-186v-348h-27zM103 374h186q144 0 180 84q13 27 13 69q0 43 -13 70q-36 83 -180 83h-186v-306z" />
    <glyph glyph-name="Q" unicode="Q" horiz-adv-x="743" 
d="M651 557q37 -84 37 -204t-37 -204q-52 -117 -179 -152l93 -141l-22 -15l-98 150q-35 -6 -74 -6q-204 0 -279 164q-38 83 -38 204t38 204q75 164 279 164q205 0 280 -164zM625 161q35 76 35 192t-35 192q-67 148 -254 148t-253 -148q-35 -76 -35 -192t35 -192
q66 -148 253 -148q34 0 58 4l-71 109l21 13l77 -117q119 29 169 139z" />
    <glyph glyph-name="R" unicode="R" horiz-adv-x="577" 
d="M535 0l-286 348h-146v-348h-27v706h232q166 0 210 -98q15 -34 15 -81q0 -46 -15 -82q-44 -97 -209 -97h-24l286 -348h-36zM103 680v-306h205q147 0 183 82q13 29 13 70q0 43 -13 72q-36 82 -183 82h-205z" />
    <glyph glyph-name="S" unicode="S" horiz-adv-x="621" 
d="M316 -15q-185 0 -241 124q-24 54 -24 133h28q0 -70 21 -120q50 -110 216 -110q81 0 135.5 26.5t76.5 75.5q13 29 13 67q0 34 -11 59q-20 45 -72.5 67t-147.5 42q-96 20 -151.5 45t-77.5 73q-13 29 -13 67q0 40 15 75q23 51 79.5 81.5t136.5 30.5q163 0 217 -120
q23 -52 23 -124h-28q0 66 -20 112q-46 105 -192 105q-72 0 -121 -26.5t-69 -71.5q-12 -27 -12 -61q0 -33 10 -56q8 -19 25.5 -34t33 -24t49.5 -19t51 -14t61 -14q48 -11 76.5 -19.5t63.5 -22.5t56.5 -33.5t33.5 -46.5q13 -31 13 -71q0 -43 -17 -80q-24 -55 -85.5 -85.5
t-151.5 -30.5z" />
    <glyph glyph-name="T" unicode="T" horiz-adv-x="458" 
d="M215 0v680h-205v26h437v-26h-204v-680h-28z" />
    <glyph glyph-name="U" unicode="U" horiz-adv-x="607" 
d="M304 -15q-120 0 -176.5 55t-56.5 171v495h27v-495q0 -103 49 -150.5t157 -47.5q107 0 156 47.5t49 150.5v495h27v-495q0 -116 -56 -171t-176 -55z" />
    <glyph glyph-name="V" unicode="V" horiz-adv-x="588" 
d="M553 706h29l-273 -706h-30l-274 706h30l259 -673z" />
    <glyph glyph-name="W" unicode="W" horiz-adv-x="891" 
d="M858 706h27l-212 -706h-31l-197 670l-197 -670h-30l-213 706h28l200 -667l196 667h33l195 -664z" />
    <glyph glyph-name="X" unicode="X" horiz-adv-x="630" 
d="M7 0l289 373l-257 333h34l242 -313l242 313h35l-259 -333l289 -373h-35l-272 353l-273 -353h-35z" />
    <glyph glyph-name="Y" unicode="Y" horiz-adv-x="540" 
d="M257 0v305l-252 401h33l233 -373l231 373h33l-250 -401v-305h-28z" />
    <glyph glyph-name="Z" unicode="Z" horiz-adv-x="570" 
d="M21 0l456 680h-439v26h489l-455 -680h468v-26h-519z" />
    <glyph glyph-name="bracketleft" unicode="[" horiz-adv-x="325" 
d="M129 -202v961h170v-23h-146v-915h146v-23h-170z" />
    <glyph glyph-name="backslash" unicode="\" horiz-adv-x="421" 
d="M380 -50h-27l-313 771h28z" />
    <glyph glyph-name="bracketright" unicode="]" horiz-adv-x="325" 
d="M196 -202h-169v23h145v915h-145v23h169v-961z" />
    <glyph glyph-name="asciicircum" unicode="^" horiz-adv-x="408" 
d="M374 372h-28l-141 315l-142 -315h-28l151 334h36z" />
    <glyph glyph-name="underscore" unicode="_" horiz-adv-x="417" 
d="M0 -140v25h417v-25h-417z" />
    <glyph glyph-name="grave" unicode="`" horiz-adv-x="235" 
d="M185 553h-30l-105 154h32z" />
    <glyph glyph-name="a" unicode="a" horiz-adv-x="510" 
d="M425 399q19 -44 19 -112v-287h-25v107q-47 -118 -201 -118q-123 0 -159 79q-12 27 -12 61q0 29 12 56q36 80 215 80h145v23q0 63 -16 99q-34 76 -150 76q-118 0 -149 -71q-12 -26 -12 -60h-26q0 38 15 71q38 85 172 85q133 0 172 -89zM220 14q134 0 178 98q21 45 21 123
v6h-143q-162 0 -193 -68q-9 -18 -9 -44q0 -25 10 -48q30 -67 136 -67z" />
    <glyph glyph-name="b" unicode="b" horiz-adv-x="547" 
d="M482 369q25 -58 25 -130t-25 -130q-25 -56 -75 -87.5t-119 -31.5t-119 32t-74 93v-115h-25v706h25v-343q24 61 74 93t119 32t119 -31.5t75 -87.5zM457 120q23 51 23 119t-23 119q-47 105 -171 105q-87 0 -139 -56.5t-52 -156.5v-22q0 -100 52 -156t139 -56q124 0 171 104
z" />
    <glyph glyph-name="c" unicode="c" horiz-adv-x="501" 
d="M262 -10q-71 0 -121.5 31.5t-76.5 88.5q-24 56 -24 129q0 74 24 128q55 121 198 121q89 0 144 -49q52 -49 55 -129h-27q-3 71 -48 110q-46 43 -124 43q-126 0 -173 -106q-23 -52 -23 -118t23 -118q49 -106 173 -106q78 0 126 43q43 40 46 106h27q-3 -78 -54 -124
q-55 -50 -145 -50z" />
    <glyph glyph-name="d" unicode="d" horiz-adv-x="547" 
d="M452 706h25v-706h-25v115q-24 -61 -74 -93t-119 -32t-119 31.5t-75 87.5q-25 58 -25 130t25 130q25 56 75 87.5t119 31.5t119 -32t74 -93v343zM261 16q87 0 139 56t52 156v22q0 100 -52 156.5t-139 56.5q-124 0 -171 -105q-23 -51 -23 -119t23 -119q47 -104 171 -104z
" />
    <glyph glyph-name="e" unicode="e" horiz-adv-x="529" 
d="M410 61q45 41 51 111h26q-6 -80 -58 -128q-60 -54 -159 -54q-74 0 -127 32t-79 89q-24 54 -24 128q0 75 25 129q25 57 77.5 88.5t125.5 31.5q145 0 197 -115q23 -52 25 -131h-424v-3q0 -65 22 -118q48 -106 183 -106q90 0 139 46zM268 463q-133 0 -180 -106
q-18 -43 -21 -91h396q-3 55 -21 97q-44 100 -174 100z" />
    <glyph glyph-name="f" unicode="f" horiz-adv-x="307" 
d="M109 0v453h-91v25h91v97q0 137 131 137q30 0 48 -5v-25q-18 5 -48 5q-105 0 -105 -112v-97h151v-25h-151v-453h-26z" />
    <glyph glyph-name="g" unicode="g" horiz-adv-x="546" 
d="M451 478h26v-480q0 -63 -21 -108q-45 -102 -191 -102q-106 0 -160 50q-47 43 -49 118h27q0 -62 41 -100q47 -43 141 -43q129 0 169 89q17 37 17 93v122q-23 -62 -73.5 -94.5t-119.5 -32.5q-68 0 -118 31.5t-75 87.5q-25 53 -25 130t25 130q25 56 75 87.5t118 31.5
q69 0 119.5 -32.5t73.5 -94.5v117zM261 16q87 0 138.5 56t51.5 156v22q0 101 -51.5 157t-138.5 56q-124 0 -172 -105q-23 -51 -23 -119t23 -119q47 -104 172 -104z" />
    <glyph glyph-name="h" unicode="h" horiz-adv-x="519" 
d="M272 488q182 0 182 -211v-277h-26v275q0 96 -38.5 142t-118.5 46q-84 0 -130 -48t-46 -136v-279h-25v706h25v-327q42 109 177 109z" />
    <glyph glyph-name="i" unicode="i" horiz-adv-x="165" 
d="M83 592q-12 0 -19.5 7.5t-7.5 18.5t7.5 18.5t19.5 7.5q11 0 18.5 -7.5t7.5 -18.5t-7.5 -18.5t-18.5 -7.5zM70 0v478h25v-478h-25z" />
    <glyph glyph-name="j" unicode="j" horiz-adv-x="166" 
d="M83 592q-12 0 -19.5 7.5t-7.5 18.5t7.5 18.5t19.5 7.5q11 0 18.5 -7.5t7.5 -18.5t-7.5 -18.5t-18.5 -7.5zM-9 -204q-21 0 -36 2v25q16 -2 36 -2q42 0 60.5 20t18.5 68v569h26v-569q0 -59 -25 -86t-80 -27z" />
    <glyph glyph-name="k" unicode="k" horiz-adv-x="400" 
d="M397 0h-36l-266 260v-260h-25v706h25v-429l238 201h37l-248 -209z" />
    <glyph glyph-name="l" unicode="l" horiz-adv-x="165" 
d="M70 0v706h25v-706h-25z" />
    <glyph glyph-name="m" unicode="m" horiz-adv-x="839" 
d="M597 488q177 0 177 -207v-281h-26v280q0 183 -152 183q-77 0 -119 -47t-42 -133v-283h-26v280q0 183 -152 183q-77 0 -119.5 -47t-42.5 -133v-283h-25v478h25v-94q41 104 164 104q136 0 167 -127q17 64 62 95.5t109 31.5z" />
    <glyph glyph-name="n" unicode="n" horiz-adv-x="519" 
d="M272 488q182 0 182 -211v-277h-26v275q0 96 -38.5 142t-118.5 46q-84 0 -130 -48t-46 -136v-279h-25v478h25v-98q43 108 177 108z" />
    <glyph glyph-name="o" unicode="o" horiz-adv-x="527" 
d="M264 -11q-72 0 -122.5 32.5t-76.5 88.5q-25 56 -25 129q0 74 25 128q26 56 76.5 88.5t122.5 32.5t122.5 -32.5t75.5 -88.5q26 -57 26 -128t-26 -129q-25 -56 -75.5 -88.5t-122.5 -32.5zM264 15q127 0 174 105q23 52 23 119t-23 119q-47 105 -174 105t-175 -105
q-23 -52 -23 -119t23 -119q48 -105 175 -105z" />
    <glyph glyph-name="p" unicode="p" horiz-adv-x="547" 
d="M482 369q25 -58 25 -130t-25 -130q-25 -56 -75 -87.5t-119 -31.5t-119 32.5t-74 95.5v-320h-25v680h25v-118q24 63 74 95.5t119 32.5t119 -31.5t75 -87.5zM457 120q23 51 23 119t-23 119q-47 105 -171 105q-87 0 -139 -56.5t-52 -156.5v-22q0 -100 52 -156t139 -56
q124 0 171 104z" />
    <glyph glyph-name="q" unicode="q" horiz-adv-x="547" 
d="M452 478h25v-680h-25v320q-24 -63 -74 -95.5t-119 -32.5t-119 31.5t-75 87.5q-25 58 -25 130t25 130q25 56 75 87.5t119 31.5t119 -32.5t74 -95.5v118zM261 16q87 0 139 56t52 156v22q0 100 -52 156.5t-139 56.5q-124 0 -171 -105q-23 -51 -23 -119t23 -119
q47 -104 171 -104z" />
    <glyph glyph-name="r" unicode="r" horiz-adv-x="292" 
d="M229 483q24 0 47 -5v-26q-20 6 -47 6q-66 0 -100 -38.5t-34 -105.5v-314h-25v478h25v-76q32 81 134 81z" />
    <glyph glyph-name="s" unicode="s" horiz-adv-x="443" 
d="M223 -10q-130 0 -169 88q-16 35 -16 84h26q0 -42 13 -71q33 -76 146 -76q116 0 146 67q9 20 9 44q0 19 -7 38q-9 21 -35 35.5t-48 20.5t-66 15q-64 13 -103 31t-54 52q-8 19 -8 46q0 28 10 51q32 73 148 73q119 0 155 -80q14 -29 14 -74h-26q0 36 -12 62q-30 67 -131 67
q-97 0 -123 -59q-8 -16 -8 -40q0 -22 6 -34q7 -15 20.5 -26.5t36.5 -19.5t40 -12.5t50 -11.5q66 -15 104.5 -32.5t53.5 -51.5q10 -21 10 -50q0 -31 -12 -55q-37 -81 -170 -81z" />
    <glyph glyph-name="t" unicode="t" horiz-adv-x="328" 
d="M232 -7q-124 0 -124 137v323h-90v25h90v117h26v-117h172v-25h-172v-323q0 -112 99 -112q37 0 69 9v-25q-32 -9 -70 -9z" />
    <glyph glyph-name="u" unicode="u" horiz-adv-x="519" 
d="M424 478h25v-478h-25v98q-43 -108 -177 -108q-182 0 -182 211v277h26v-275q0 -96 38.5 -142t118.5 -46q84 0 130 48t46 136v279z" />
    <glyph glyph-name="v" unicode="v" horiz-adv-x="456" 
d="M214 0l-199 478h28l185 -448l185 448h28l-198 -478h-29z" />
    <glyph glyph-name="w" unicode="w" horiz-adv-x="699" 
d="M656 478h28l-170 -478h-28l-135 444l-136 -444h-27l-173 478h28l158 -447l137 447h27l136 -445z" />
    <glyph glyph-name="x" unicode="x" horiz-adv-x="444" 
d="M8 0l196 241l-194 237h33l179 -220l178 220h33l-194 -237l196 -241h-33l-180 223l-181 -223h-33z" />
    <glyph glyph-name="y" unicode="y" horiz-adv-x="474" 
d="M431 478h28l-219 -478l-93 -202h-29l95 204l-198 476h29l183 -444z" />
    <glyph glyph-name="z" unicode="z" horiz-adv-x="421" 
d="M60 24h348v-24h-398l344 453h-315v25h366z" />
    <glyph glyph-name="braceleft" unicode="{" horiz-adv-x="333" 
d="M175 397q0 -63 -15 -88.5t-60 -29.5q45 -5 60 -30t15 -88v-247q0 -93 96 -93h35v-23h-41q-59 0 -86.5 30t-27.5 82v247q1 66 -17.5 87.5t-85.5 21.5v25q67 0 85.5 22t17.5 87v247q0 52 27.5 82t86.5 30h41v-22h-35q-96 0 -96 -94v-246z" />
    <glyph glyph-name="bar" unicode="|" horiz-adv-x="298" 
d="M136 -202v958h26v-958h-26z" />
    <glyph glyph-name="braceright" unicode="}" horiz-adv-x="333" 
d="M182 400q-1 -65 17.5 -87t85.5 -22v-25q-67 0 -85.5 -21.5t-17.5 -87.5v-247q0 -52 -27.5 -82t-86.5 -30h-41v23h35q96 0 96 93v247q0 63 15 88t60 30q-45 4 -60 29.5t-15 88.5v246q0 94 -96 94h-35v22h41q59 0 86.5 -30t27.5 -82v-247z" />
    <glyph glyph-name="asciitilde" unicode="~" horiz-adv-x="578" 
d="M395 188q-27 0 -50 13t-35.5 26.5t-30.5 38.5q-18 24 -28.5 36t-29 22.5t-39.5 10.5q-44 0 -64 -38t-27 -104h-25q12 166 116 166q39 0 64.5 -20.5t51.5 -57.5q19 -24 29.5 -36t28.5 -22.5t39 -10.5q77 0 92 142h25q-14 -166 -117 -166z" />
    <glyph glyph-name="uni00A0" unicode="&#xa0;" horiz-adv-x="180" 
 />
    <glyph glyph-name="exclamdown" unicode="&#xa1;" horiz-adv-x="233" 
d="M117 437q-27 0 -27 26q0 11 7.5 18.5t19.5 7.5q11 0 18.5 -7.5t7.5 -18.5q0 -12 -7.5 -19t-18.5 -7zM103 -202l2 536h24l2 -536h-28z" />
    <glyph glyph-name="cent" unicode="&#xa2;" horiz-adv-x="502" 
d="M388 173q45 41 46 106h27q-3 -79 -53 -124q-53 -47 -137 -50v-105h-24v105q-65 4 -112 35.5t-71 84.5q-24 54 -24 129q0 74 24 128q51 113 183 121v103h24v-103q84 -3 135 -49q53 -48 56 -129h-27q-5 71 -48 110q-43 40 -116 43v-448q74 3 117 43zM89 236
q45 -99 158 -106v448q-114 -7 -158 -106q-23 -52 -23 -118t23 -118z" />
    <glyph glyph-name="sterling" unicode="&#xa3;" horiz-adv-x="608" 
d="M530 247h26q-2 -89 -25 -142q-24 -55 -76.5 -80t-141.5 -25h-270v26h93v313h-93v24h93v89q0 106 28 168q45 101 187 101q133 0 177 -97q24 -53 26 -151h-27q-1 91 -23 140q-20 42 -57 62t-97 20q-122 0 -161 -86q-25 -56 -25 -156v-90h222v-24h-222v-313h145
q82 0 129 21.5t69 69.5q21 46 23 130z" />
    <glyph glyph-name="currency" unicode="&#xa4;" horiz-adv-x="540" 
d="M458 260q-14 -31 -37 -54l86 -91h-34l-71 74q-55 -41 -132 -41q-78 0 -132 40l-70 -73h-35l86 90q-24 26 -37 54q-19 43 -19 94t19 94q14 31 37 54l-86 91h35l70 -74q55 41 132 41t132 -41l70 74h35l-86 -92q22 -21 37 -54q19 -43 19 -93t-19 -93zM105 270
q45 -97 165 -97q58 0 101 26t63 72q17 36 17 82t-17 82q-20 47 -63 73t-101 26t-101 -26t-64 -72q-16 -38 -16 -83q0 -48 16 -83z" />
    <glyph glyph-name="yen" unicode="&#xa5;" horiz-adv-x="541" 
d="M535 706l-249 -370h203v-23h-204v-70h204v-23h-204v-220h-27v220h-205v23h205v70h-205v23h204l-251 370h31l235 -347l233 347h30z" />
    <glyph glyph-name="brokenbar" unicode="&#xa6;" horiz-adv-x="298" 
d="M136 428v328h26v-328h-26zM136 -202v330h26v-330h-26z" />
    <glyph glyph-name="section" unicode="&#xa7;" horiz-adv-x="459" 
d="M245 96q61 -22 96.5 -43.5t51.5 -56.5q13 -28 13 -63t-13 -66q-37 -79 -162 -79q-124 0 -162 85q-15 33 -15 80h27q0 -41 12 -70q32 -71 139 -71t136 64q11 25 11 56q0 28 -11 56q-10 23 -34 40.5t-43.5 26t-63.5 24.5q-69 25 -109.5 49t-58.5 65q-13 27 -13 69
q0 39 13 66q38 83 165 83q18 0 26 -1q-20 8 -29 11q-61 21 -98.5 44t-54.5 59q-12 27 -12 59q0 33 12 59q34 77 156 77q126 0 164 -84q14 -31 14 -73h-26q0 36 -12 62q-31 71 -141 71q-104 0 -131 -62q-10 -20 -10 -49q0 -27 10 -50t35 -42t47 -28.5t64 -25.5
q68 -25 107 -48.5t56 -61.5q12 -27 12 -67q0 -45 -14 -73q-19 -42 -63.5 -63.5t-102.5 -21.5h-10q3 -1 11 -3.5t11 -3.5zM83 202q35 -77 149 -77q111 0 145 73q11 27 11 61t-11 58q-32 73 -150 73q-114 0 -145 -71q-11 -22 -11 -55q0 -36 12 -62z" />
    <glyph glyph-name="dieresis" unicode="&#xa8;" horiz-adv-x="333" 
d="M77 592q-12 0 -19.5 7t-7.5 18q0 12 7.5 19.5t19.5 7.5q11 0 18.5 -7.5t7.5 -19.5q0 -11 -7.5 -18t-18.5 -7zM257 592q-12 0 -19.5 7t-7.5 18q0 12 7.5 19.5t19.5 7.5q11 0 18.5 -7.5t7.5 -19.5q0 -11 -7.5 -18t-18.5 -7z" />
    <glyph glyph-name="copyright" unicode="&#xa9;" horiz-adv-x="832" 
d="M416 -15q-115 0 -201 52.5t-127 144.5q-34 74 -34 171t34 171q41 92 127 144.5t201 52.5t201 -52.5t127 -144.5q34 -74 34 -171t-34 -171q-40 -91 -126.5 -144t-201.5 -53zM416 9q109 0 189 49t119 135q30 71 30 159q0 92 -30 162q-39 86 -119.5 134.5t-188.5 48.5
t-188.5 -49t-119.5 -135q-30 -71 -30 -160q0 -91 31 -160q39 -86 118.5 -135t188.5 -49zM416 108q-137 0 -188 112q-24 51 -24 134q0 81 24 135q50 110 188 110q92 0 144 -48q51 -48 54 -131h-25q-3 75 -45 114q-47 42 -128 42q-124 0 -166 -97q-22 -52 -22 -124
q0 -74 23 -125q43 -99 165 -99q83 0 130 44q41 40 46 112h24q-5 -86 -54 -130q-52 -49 -146 -49z" />
    <glyph glyph-name="ordfeminine" unicode="&#xaa;" horiz-adv-x="361" 
d="M301 654q14 -31 14 -79v-202h-23v66q-36 -73 -137 -73q-89 0 -113 56q-9 20 -9 42t8 41q27 62 154 62h97v11q0 39 -12 66q-21 50 -102 50q-79 0 -98 -44q-9 -20 -9 -44h-23q0 30 10 51q25 58 121 58t122 -61zM157 387q90 0 122 66q13 29 13 85v7h-96q-110 0 -131 -47
q-7 -14 -7 -33q0 -16 8 -36q23 -42 91 -42z" />
    <glyph glyph-name="guillemotleft" unicode="&#xab;" horiz-adv-x="396" 
d="M188 115l-163 157l163 158h35l-162 -158l162 -157h-35zM334 115l-163 157l163 158h35l-161 -158l161 -157h-35z" />
    <glyph glyph-name="logicalnot" unicode="&#xac;" horiz-adv-x="578" 
d="M496 43v345h-440v25h465v-370h-25z" />
    <glyph glyph-name="uni00AD" unicode="&#xad;" horiz-adv-x="389" 
d="M56 261v26h277v-26h-277z" />
    <glyph glyph-name="registered" unicode="&#xae;" horiz-adv-x="483" 
d="M425 608q18 -41 18 -96q0 -54 -18 -96q-49 -109 -184 -109q-134 0 -183 109q-18 42 -18 96q0 56 18 96q48 109 183 109q136 0 184 -109zM408 425q16 38 16 87q0 50 -16 88q-44 98 -167 98t-165 -98q-17 -37 -17 -88q0 -50 17 -87q44 -99 165 -99q123 0 167 99zM348 569
q0 -53 -50 -64q43 -11 43 -64v-60h-21v60q0 30 -15 41.5t-52 11.5h-86v-113h-21v261h105q97 0 97 -73zM248 514q78 0 78 55q0 52 -77 52h-82v-107h81z" />
    <glyph glyph-name="macron" unicode="&#xaf;" horiz-adv-x="381" 
d="M50 606v25h281v-25h-281z" />
    <glyph glyph-name="degree" unicode="&#xb0;" horiz-adv-x="276" 
d="M138 490q-52 0 -84.5 32t-32.5 83t32.5 83.5t84.5 32.5t84.5 -32.5t32.5 -83.5t-32.5 -83t-84.5 -32zM138 514q41 0 66 25t25 66q0 42 -25 67t-66 25t-66 -25t-25 -67q0 -41 25.5 -66t65.5 -25z" />
    <glyph glyph-name="plusminus" unicode="&#xb1;" horiz-adv-x="578" 
d="M302 329h219v-25h-219v-200h-26v200h-220v25h220v196h26v-196zM56 24v26h465v-26h-465z" />
    <glyph glyph-name="uni00B2" unicode="&#xb2;" horiz-adv-x="336" 
d="M28 438v3l169 155q44 40 60 65.5t16 56.5q0 26 -9 45q-23 50 -96 50q-74 0 -98 -53q-10 -22 -10 -61h-24q0 42 12 70q29 66 120 66q90 0 119 -62q10 -23 10 -55q0 -35 -17 -64t-60 -69q-82 -73 -137 -123h216v-24h-271z" />
    <glyph glyph-name="uni00B3" unicode="&#xb3;" horiz-adv-x="371" 
d="M321 591q9 -23 9 -47q0 -30 -10 -51q-29 -64 -132 -64q-106 0 -139 74q-15 33 -15 71h24q0 -36 12 -61q27 -62 118 -62q86 0 110 52q8 19 8 41q0 23 -8 38q-23 51 -125 51h-10v22h10q96 0 116 47q6 14 6 32q0 21 -6 32q-21 47 -100 47q-87 0 -112 -57q-9 -21 -9 -48h-24
q0 33 12 57q31 70 134 70q94 0 121 -59q9 -20 9 -42q0 -20 -8 -39q-17 -37 -71 -50q60 -12 80 -54z" />
    <glyph glyph-name="acute" unicode="&#xb4;" horiz-adv-x="235" 
d="M50 553l103 154h32l-105 -154h-30z" />
    <glyph glyph-name="uni00B5" unicode="&#xb5;" horiz-adv-x="523" 
d="M428 478h26v-478h-26v95q-44 -106 -177 -106q-123 0 -158 101q2 -42 2 -128v-164h-25v680h25v-274q0 -97 39 -143t120 -46q83 0 128.5 48t45.5 136v279z" />
    <glyph glyph-name="paragraph" unicode="&#xb6;" horiz-adv-x="589" 
d="M312 -202v534h-83q-145 0 -186 93q-15 33 -15 95q0 60 16 95q40 91 186 91h349v-26h-75v-882h-27v882h-139v-882h-26z" />
    <glyph glyph-name="periodcentered" unicode="&#xb7;" horiz-adv-x="241" 
d="M120 249q-26 0 -26 25q0 26 26 26q11 0 18.5 -7t7.5 -19q0 -11 -7.5 -18t-18.5 -7z" />
    <glyph glyph-name="cedilla" unicode="&#xb8;" horiz-adv-x="266" 
d="M118 -66q98 0 98 -71q0 -74 -98 -74q-39 0 -68 11l5 23q27 -10 62 -10q74 0 74 50t-78 50h-45l32 89h25l-25 -68h18z" />
    <glyph glyph-name="uni00B9" unicode="&#xb9;" horiz-adv-x="215" 
d="M119 438v365h-90l3 23h111v-388h-24z" />
    <glyph glyph-name="ordmasculine" unicode="&#xba;" horiz-adv-x="373" 
d="M186 366q-102 0 -141 85q-17 37 -17 90q0 52 17 89q38 85 141 85q104 0 142 -85q17 -40 17 -89q0 -50 -17 -90q-39 -85 -142 -85zM186 389q88 0 119 71q16 35 16 81t-16 81q-30 70 -119 70q-87 0 -119 -70q-15 -33 -15 -81t15 -81q32 -71 119 -71z" />
    <glyph glyph-name="guillemotright" unicode="&#xbb;" horiz-adv-x="396" 
d="M62 115h-35l161 157l-161 158h35l162 -158zM208 115h-35l162 157l-162 158h35l163 -158z" />
    <glyph glyph-name="onequarter" unicode="&#xbc;" horiz-adv-x="667" 
d="M119 318v365h-90l3 23h111v-388h-24zM65 0l440 706h29l-440 -706h-29zM570 0v113h-240v1l219 274h45v-253h62v-22h-62v-113h-24zM376 135h194v242z" />
    <glyph glyph-name="onehalf" unicode="&#xbd;" horiz-adv-x="716" 
d="M119 318v365h-90l3 23h111v-388h-24zM65 0l440 706h29l-440 -706h-29zM408 0v3l169 155q44 40 60 65.5t16 56.5q0 26 -9 45q-23 50 -96 50q-74 0 -98 -53q-10 -23 -10 -61h-24q0 42 12 70q29 66 120 66q90 0 119 -62q10 -23 10 -55q0 -35 -17 -64t-60 -69
q-82 -73 -137 -123h216v-24h-271z" />
    <glyph glyph-name="threequarters" unicode="&#xbe;" horiz-adv-x="826" 
d="M320 373q-29 -64 -132 -64q-106 0 -139 74q-15 33 -15 71h24q0 -36 12 -61q27 -62 118 -62q86 0 110 52q8 19 8 41q0 23 -8 38q-23 51 -125 51h-10v22h10q96 0 116 47q6 14 6 32q0 21 -6 32q-21 47 -100 47q-87 0 -112 -57q-9 -21 -9 -48h-24q0 33 12 57q31 70 134 70
q94 0 121 -59q9 -20 9 -42q0 -20 -8 -39q-17 -37 -71 -50q60 -12 80 -54q9 -23 9 -47q0 -30 -10 -51zM664 706h29l-440 -706h-29zM753 135h62v-22h-62v-113h-24v113h-240v1l219 274h45v-253zM729 135v242l-194 -242h194z" />
    <glyph glyph-name="questiondown" unicode="&#xbf;" horiz-adv-x="487" 
d="M249 439q-27 0 -27 26q0 11 7.5 18.5t19.5 7.5q11 0 18.5 -7.5t7.5 -18.5q0 -12 -7.5 -19t-18.5 -7zM240 -212q-103 0 -150.5 44t-47.5 118q0 51 34 118t156 248h32q-125 -182 -160 -250t-35 -116q0 -136 171 -136q124 0 162 84q16 36 16 101h27q0 -71 -19 -112
q-44 -99 -186 -99z" />
    <glyph glyph-name="Agrave" unicode="&#xc0;" horiz-adv-x="591" 
d="M359 763h-37l-143 120h39zM556 0l-83 217h-356l-82 -217h-30l270 706h41l270 -706h-30zM127 243h336l-167 440h-2z" />
    <glyph glyph-name="Aacute" unicode="&#xc1;" horiz-adv-x="591" 
d="M412 883l-143 -120h-37l141 120h39zM556 0l-83 217h-356l-82 -217h-30l270 706h41l270 -706h-30zM127 243h336l-167 440h-2z" />
    <glyph glyph-name="Acircumflex" unicode="&#xc2;" horiz-adv-x="591" 
d="M295 865l-115 -102h-38l135 120h37l135 -120h-38zM556 0l-83 217h-356l-82 -217h-30l270 706h41l270 -706h-30zM127 243h336l-167 440h-2z" />
    <glyph glyph-name="Atilde" unicode="&#xc3;" horiz-adv-x="591" 
d="M214 860q-62 0 -70 -97h-25q7 121 95 121q28 0 48 -13t41 -39q15 -17 21.5 -24.5t21 -15.5t30.5 -8q63 0 69 97h26q-9 -122 -95 -122q-29 0 -47.5 13t-42.5 40q-15 18 -20.5 24.5t-20 15t-31.5 8.5zM556 0l-83 217h-356l-82 -217h-30l270 706h41l270 -706h-30zM127 243
h336l-167 440h-2z" />
    <glyph glyph-name="Adieresis" unicode="&#xc4;" horiz-adv-x="591" 
d="M190 796q-27 0 -27 26q0 11 7.5 18.5t19.5 7.5q11 0 18.5 -7.5t7.5 -18.5q0 -12 -7.5 -19t-18.5 -7zM399 796q-27 0 -27 26q0 11 7.5 18.5t19.5 7.5q11 0 18.5 -7.5t7.5 -18.5q0 -12 -7.5 -19t-18.5 -7zM556 0l-83 217h-356l-82 -217h-30l270 706h41l270 -706h-30z
M127 243h336l-167 440h-2z" />
    <glyph glyph-name="Aring" unicode="&#xc5;" horiz-adv-x="591" 
d="M295 731q-42 0 -67 24.5t-25 65.5t25 65.5t67 24.5t67.5 -25t25.5 -65q0 -41 -25.5 -65.5t-67.5 -24.5zM295 889q-32 0 -50.5 -18.5t-18.5 -49.5t18.5 -49.5t50.5 -18.5t50.5 18.5t18.5 49.5t-19 49.5t-50 18.5zM556 0l-83 217h-356l-82 -217h-30l270 706h41l270 -706
h-30zM127 243h336l-167 440h-2z" />
    <glyph glyph-name="AE" unicode="&#xc6;" horiz-adv-x="766" 
d="M717 680h-347l43 -306h301v-26h-298l45 -322h256v-26h-280l-30 218h-275l-97 -218h-30l318 706h394v-26zM144 244h259l-61 439h-2z" />
    <glyph glyph-name="Ccedilla" unicode="&#xc7;" horiz-adv-x="718" 
d="M639 248h28q-4 -122 -79 -192q-76 -68 -207 -71l-22 -60h18q98 0 98 -71q0 -74 -98 -74q-39 0 -68 11l5 23q27 -10 62 -10q74 0 74 50t-78 50h-45l29 81q-194 7 -265 166q-37 83 -37 202q0 121 37 202q76 166 280 166q134 0 216 -73q73 -68 77 -181h-28q-4 102 -70 161
q-71 65 -196 65q-185 0 -253 -149q-34 -77 -34 -191t34 -192q68 -148 254 -148q125 0 196 63q68 63 72 172z" />
    <glyph glyph-name="Egrave" unicode="&#xc8;" horiz-adv-x="516" 
d="M336 763h-37l-143 120h39zM76 0v706h392v-26h-365v-306h362v-26h-362v-322h365v-26h-392z" />
    <glyph glyph-name="Eacute" unicode="&#xc9;" horiz-adv-x="516" 
d="M208 763l141 120h39l-143 -120h-37zM76 0v706h392v-26h-365v-306h362v-26h-362v-322h365v-26h-392z" />
    <glyph glyph-name="Ecircumflex" unicode="&#xca;" horiz-adv-x="516" 
d="M119 763l135 120h37l135 -120h-38l-116 102l-115 -102h-38zM76 0v706h392v-26h-365v-306h362v-26h-362v-322h365v-26h-392z" />
    <glyph glyph-name="Edieresis" unicode="&#xcb;" horiz-adv-x="516" 
d="M167 796q-27 0 -27 26q0 11 7.5 18.5t19.5 7.5q11 0 18.5 -7.5t7.5 -18.5q0 -12 -7.5 -19t-18.5 -7zM376 796q-27 0 -27 26q0 11 7.5 18.5t19.5 7.5q11 0 18.5 -7.5t7.5 -18.5q0 -12 -7.5 -19t-18.5 -7zM76 0v706h392v-26h-365v-306h362v-26h-362v-322h365v-26h-392z" />
    <glyph glyph-name="Igrave" unicode="&#xcc;" horiz-adv-x="179" 
d="M153 763h-37l-143 120h39zM76 0v706h27v-706h-27z" />
    <glyph glyph-name="Iacute" unicode="&#xcd;" horiz-adv-x="179" 
d="M25 763l141 120h39l-143 -120h-37zM76 0v706h27v-706h-27z" />
    <glyph glyph-name="Icircumflex" unicode="&#xce;" horiz-adv-x="179" 
d="M-16 763l89 119h32l89 -119h-30l-75 100l-74 -100h-31zM76 0v706h27v-706h-27z" />
    <glyph glyph-name="Idieresis" unicode="&#xcf;" horiz-adv-x="179" 
d="M29 795q-11 0 -18.5 7t-7.5 18t7.5 18t18.5 7t18.5 -7t7.5 -18t-7.5 -18t-18.5 -7zM152 795q-11 0 -18.5 7t-7.5 18t7.5 18t18.5 7t18.5 -7t7.5 -18t-7.5 -18t-18.5 -7zM76 0v706h27v-706h-27z" />
    <glyph glyph-name="Eth" unicode="&#xd0;" horiz-adv-x="665" 
d="M576 546q35 -77 35 -193t-35 -193q-71 -160 -291 -160h-209v348h-64v25h64v333h209q220 0 291 -160zM550 170q32 70 32 183t-32 183q-64 144 -266 144h-181v-307h202v-25h-202v-322h181q200 0 266 144z" />
    <glyph glyph-name="Ntilde" unicode="&#xd1;" horiz-adv-x="650" 
d="M407 759q-29 0 -47.5 13t-42.5 40q-15 18 -20.5 24.5t-20 15t-31.5 8.5q-62 0 -70 -97h-25q7 121 95 121q28 0 48 -13t41 -39q15 -17 21.5 -24.5t21 -15.5t30.5 -8q63 0 69 97h26q-9 -122 -95 -122zM76 0v706h34l438 -668v668h27v-706h-35l-437 668v-668h-27z" />
    <glyph glyph-name="Ograve" unicode="&#xd2;" horiz-adv-x="743" 
d="M435 763h-37l-143 120h39zM371 -15q-204 0 -279 164q-38 83 -38 204t38 204q75 164 279 164q205 0 280 -164q37 -84 37 -204t-37 -204q-75 -164 -280 -164zM371 13q187 0 254 148q35 76 35 192t-35 192q-67 148 -254 148t-253 -148q-35 -76 -35 -192t35 -192
q66 -148 253 -148z" />
    <glyph glyph-name="Oacute" unicode="&#xd3;" horiz-adv-x="743" 
d="M307 763l141 120h39l-143 -120h-37zM371 -15q-204 0 -279 164q-38 83 -38 204t38 204q75 164 279 164q205 0 280 -164q37 -84 37 -204t-37 -204q-75 -164 -280 -164zM371 13q187 0 254 148q35 76 35 192t-35 192q-67 148 -254 148t-253 -148q-35 -76 -35 -192t35 -192
q66 -148 253 -148z" />
    <glyph glyph-name="Ocircumflex" unicode="&#xd4;" horiz-adv-x="743" 
d="M218 763l135 120h37l135 -120h-38l-116 102l-115 -102h-38zM371 -15q-204 0 -279 164q-38 83 -38 204t38 204q75 164 279 164q205 0 280 -164q37 -84 37 -204t-37 -204q-75 -164 -280 -164zM371 13q187 0 254 148q35 76 35 192t-35 192q-67 148 -254 148t-253 -148
q-35 -76 -35 -192t35 -192q66 -148 253 -148z" />
    <glyph glyph-name="Otilde" unicode="&#xd5;" horiz-adv-x="743" 
d="M452 759q-29 0 -47.5 13t-42.5 40q-15 18 -20.5 24.5t-20 15t-31.5 8.5q-62 0 -70 -97h-25q7 121 95 121q28 0 48 -13t41 -39q15 -17 21.5 -24.5t21 -15.5t30.5 -8q63 0 69 97h26q-9 -122 -95 -122zM371 -15q-204 0 -279 164q-38 83 -38 204t38 204q75 164 279 164
q205 0 280 -164q37 -84 37 -204t-37 -204q-75 -164 -280 -164zM371 13q187 0 254 148q35 76 35 192t-35 192q-67 148 -254 148t-253 -148q-35 -76 -35 -192t35 -192q66 -148 253 -148z" />
    <glyph glyph-name="Odieresis" unicode="&#xd6;" horiz-adv-x="743" 
d="M266 796q-27 0 -27 26q0 11 7.5 18.5t19.5 7.5q11 0 18.5 -7.5t7.5 -18.5q0 -12 -7.5 -19t-18.5 -7zM475 796q-27 0 -27 26q0 11 7.5 18.5t19.5 7.5q11 0 18.5 -7.5t7.5 -18.5q0 -12 -7.5 -19t-18.5 -7zM371 -15q-204 0 -279 164q-38 83 -38 204t38 204q75 164 279 164
q205 0 280 -164q37 -84 37 -204t-37 -204q-75 -164 -280 -164zM371 13q187 0 254 148q35 76 35 192t-35 192q-67 148 -254 148t-253 -148q-35 -76 -35 -192t35 -192q66 -148 253 -148z" />
    <glyph glyph-name="multiply" unicode="&#xd7;" horiz-adv-x="578" 
d="M491 458l-184 -183l184 -184l-18 -18l-184 184l-184 -184l-18 18l184 184l-184 183l18 18l184 -184l184 184z" />
    <glyph glyph-name="Oslash" unicode="&#xd8;" horiz-adv-x="743" 
d="M614 618q22 -28 37 -61q37 -84 37 -204t-37 -204q-75 -164 -280 -164q-144 0 -225 83l-57 -68h-36l75 89q-21 27 -36 60q-38 83 -38 204t38 204q75 164 279 164q145 0 226 -84l57 69h35zM83 353q0 -116 35 -192q12 -27 29 -50l430 506q-73 76 -206 76q-187 0 -253 -148
q-35 -76 -35 -192zM625 161q35 76 35 192t-35 192q-10 24 -31 52l-429 -507q74 -77 206 -77q187 0 254 148z" />
    <glyph glyph-name="Ugrave" unicode="&#xd9;" horiz-adv-x="607" 
d="M368 763h-37l-143 120h39zM304 -15q-120 0 -176.5 55t-56.5 171v495h27v-495q0 -103 49 -150.5t157 -47.5q107 0 156 47.5t49 150.5v495h27v-495q0 -116 -56 -171t-176 -55z" />
    <glyph glyph-name="Uacute" unicode="&#xda;" horiz-adv-x="607" 
d="M240 763l141 120h39l-143 -120h-37zM304 -15q-120 0 -176.5 55t-56.5 171v495h27v-495q0 -103 49 -150.5t157 -47.5q107 0 156 47.5t49 150.5v495h27v-495q0 -116 -56 -171t-176 -55z" />
    <glyph glyph-name="Ucircumflex" unicode="&#xdb;" horiz-adv-x="607" 
d="M151 763l135 120h37l135 -120h-38l-116 102l-115 -102h-38zM304 -15q-120 0 -176.5 55t-56.5 171v495h27v-495q0 -103 49 -150.5t157 -47.5q107 0 156 47.5t49 150.5v495h27v-495q0 -116 -56 -171t-176 -55z" />
    <glyph glyph-name="Udieresis" unicode="&#xdc;" horiz-adv-x="607" 
d="M199 796q-27 0 -27 26q0 11 7.5 18.5t19.5 7.5q11 0 18.5 -7.5t7.5 -18.5q0 -12 -7.5 -19t-18.5 -7zM408 796q-27 0 -27 26q0 11 7.5 18.5t19.5 7.5q11 0 18.5 -7.5t7.5 -18.5q0 -12 -7.5 -19t-18.5 -7zM304 -15q-120 0 -176.5 55t-56.5 171v495h27v-495
q0 -103 49 -150.5t157 -47.5q107 0 156 47.5t49 150.5v495h27v-495q0 -116 -56 -171t-176 -55z" />
    <glyph glyph-name="Yacute" unicode="&#xdd;" horiz-adv-x="540" 
d="M207 763l141 120h39l-143 -120h-37zM257 0v305l-252 401h33l233 -373l231 373h33l-250 -401v-305h-28z" />
    <glyph glyph-name="Thorn" unicode="&#xde;" horiz-adv-x="540" 
d="M76 0v706h27v-139h157q185 0 233 -108q19 -44 19 -103q0 -58 -19 -104q-49 -108 -233 -108h-157v-144h-27zM103 171h157q164 0 206 93q17 39 17 92t-17 92q-42 93 -206 93h-157v-370z" />
    <glyph glyph-name="germandbls" unicode="&#xdf;" horiz-adv-x="521" 
d="M463 289q19 -41 19 -93q0 -48 -17 -88q-51 -109 -228 -109q-25 0 -57 2v26q24 -3 57 -3q161 0 204 96q14 34 14 76q0 45 -16 83q-46 101 -191 101h-67v25h65q134 0 171 84q12 27 12 65q0 39 -13 65q-33 76 -150 76q-116 0 -152 -81q-19 -44 -19 -107v-507h-25v507
q0 69 21 119q44 95 175 95q132 0 175 -93q15 -33 15 -74q0 -44 -15 -75q-30 -69 -122 -85q106 -19 144 -105z" />
    <glyph glyph-name="agrave" unicode="&#xe0;" horiz-adv-x="510" 
d="M312 553h-30l-105 154h32zM425 399q19 -44 19 -112v-287h-25v107q-47 -118 -201 -118q-123 0 -159 79q-12 27 -12 61q0 29 12 56q36 80 215 80h145v23q0 63 -16 99q-34 76 -150 76q-118 0 -149 -71q-12 -26 -12 -60h-26q0 38 15 71q38 85 172 85q133 0 172 -89zM220 14
q134 0 178 98q21 45 21 123v6h-143q-162 0 -193 -68q-9 -18 -9 -44q0 -25 10 -48q30 -67 136 -67z" />
    <glyph glyph-name="aacute" unicode="&#xe1;" horiz-adv-x="510" 
d="M343 707l-105 -154h-30l103 154h32zM425 399q19 -44 19 -112v-287h-25v107q-47 -118 -201 -118q-123 0 -159 79q-12 27 -12 61q0 29 12 56q36 80 215 80h145v23q0 63 -16 99q-34 76 -150 76q-118 0 -149 -71q-12 -26 -12 -60h-26q0 38 15 71q38 85 172 85q133 0 172 -89z
M220 14q134 0 178 98q21 45 21 123v6h-143q-162 0 -193 -68q-9 -18 -9 -44q0 -25 10 -48q30 -67 136 -67z" />
    <glyph glyph-name="acircumflex" unicode="&#xe2;" horiz-adv-x="510" 
d="M260 689l-99 -137h-32l113 155h36l113 -155h-32zM425 399q19 -44 19 -112v-287h-25v107q-47 -118 -201 -118q-123 0 -159 79q-12 27 -12 61q0 29 12 56q36 80 215 80h145v23q0 63 -16 99q-34 76 -150 76q-118 0 -149 -71q-12 -26 -12 -60h-26q0 38 15 71q38 85 172 85
q133 0 172 -89zM220 14q134 0 178 98q21 45 21 123v6h-143q-162 0 -193 -68q-9 -18 -9 -44q0 -25 10 -48q30 -67 136 -67z" />
    <glyph glyph-name="atilde" unicode="&#xe3;" horiz-adv-x="510" 
d="M186 686q-30 0 -43 -33t-15 -101h-25q2 80 20.5 118.5t61.5 38.5q28 0 46 -16t38 -56q12 -24 19 -34.5t19 -20.5t27 -10q31 0 43.5 32.5t14.5 101.5h25q-2 -80 -21 -118.5t-62 -38.5q-27 0 -45 16t-38 55q-12 24 -19 35t-19 21t-27 10zM425 399q19 -44 19 -112v-287h-25
v107q-47 -118 -201 -118q-123 0 -159 79q-12 27 -12 61q0 29 12 56q36 80 215 80h145v23q0 63 -16 99q-34 76 -150 76q-118 0 -149 -71q-12 -26 -12 -60h-26q0 38 15 71q38 85 172 85q133 0 172 -89zM220 14q134 0 178 98q21 45 21 123v6h-143q-162 0 -193 -68
q-9 -18 -9 -44q0 -25 10 -48q30 -67 136 -67z" />
    <glyph glyph-name="adieresis" unicode="&#xe4;" horiz-adv-x="510" 
d="M168 592q-12 0 -19.5 7t-7.5 18q0 12 7.5 19.5t19.5 7.5q11 0 18.5 -7.5t7.5 -19.5q0 -11 -7.5 -18t-18.5 -7zM348 592q-12 0 -19.5 7t-7.5 18q0 12 7.5 19.5t19.5 7.5q11 0 18.5 -7.5t7.5 -19.5q0 -11 -7.5 -18t-18.5 -7zM425 399q19 -44 19 -112v-287h-25v107
q-47 -118 -201 -118q-123 0 -159 79q-12 27 -12 61q0 29 12 56q36 80 215 80h145v23q0 63 -16 99q-34 76 -150 76q-118 0 -149 -71q-12 -26 -12 -60h-26q0 38 15 71q38 85 172 85q133 0 172 -89zM220 14q134 0 178 98q21 45 21 123v6h-143q-162 0 -193 -68q-9 -18 -9 -44
q0 -25 10 -48q30 -67 136 -67z" />
    <glyph glyph-name="aring" unicode="&#xe5;" horiz-adv-x="510" 
d="M260 541q-42 0 -67 24.5t-25 65.5t25 65.5t67 24.5t67.5 -25t25.5 -65q0 -41 -25.5 -65.5t-67.5 -24.5zM260 699q-32 0 -50.5 -18.5t-18.5 -49.5t18.5 -49.5t50.5 -18.5t50.5 18.5t18.5 49.5t-19 49.5t-50 18.5zM425 399q19 -44 19 -112v-287h-25v107q-47 -118 -201 -118
q-123 0 -159 79q-12 27 -12 61q0 29 12 56q36 80 215 80h145v23q0 63 -16 99q-34 76 -150 76q-118 0 -149 -71q-12 -26 -12 -60h-26q0 38 15 71q38 85 172 85q133 0 172 -89zM220 14q134 0 178 98q21 45 21 123v6h-143q-162 0 -193 -68q-9 -18 -9 -44q0 -25 10 -48
q30 -67 136 -67z" />
    <glyph glyph-name="ae" unicode="&#xe6;" horiz-adv-x="878" 
d="M761 57q44 40 49 115h27q-8 -87 -59 -134q-54 -49 -143 -49q-137 0 -188 116q-7 16 -14 41q-34 -157 -216 -157q-123 0 -158 79q-12 26 -12 60q0 32 11 57q37 81 216 81h145v24q0 61 -16 97q-34 76 -150 76q-118 0 -149 -71q-12 -26 -12 -60h-26q0 38 15 71q38 85 172 85
q133 0 172 -89q8 -19 13 -47l9 23q52 113 184 113q131 0 183 -110q23 -54 25 -136h-394v-3q0 -69 23 -121q46 -103 168 -103q78 0 125 42zM469 367q-20 -41 -23 -101h366q-3 62 -22 104q-44 93 -159 93q-118 0 -162 -96zM419 236v6h-143q-162 0 -193 -69q-9 -19 -9 -44
t10 -48q30 -67 136 -67q134 0 178 98q21 46 21 124z" />
    <glyph glyph-name="ccedilla" unicode="&#xe7;" horiz-adv-x="501" 
d="M388 58q43 40 46 106h27q-3 -78 -54 -124q-53 -48 -141 -50l-22 -61h18q98 0 98 -71q0 -74 -98 -74q-39 0 -68 11l5 23q27 -10 62 -10q74 0 74 50t-78 50h-45l30 83q-127 9 -178 119q-24 56 -24 129q0 74 24 128q55 121 198 121q89 0 144 -49q52 -49 55 -129h-27
q-3 71 -48 110q-46 43 -124 43q-126 0 -173 -106q-23 -52 -23 -118t23 -118q49 -106 173 -106q78 0 126 43z" />
    <glyph glyph-name="egrave" unicode="&#xe8;" horiz-adv-x="529" 
d="M320 553h-30l-105 154h32zM410 61q45 41 51 111h26q-6 -80 -58 -128q-60 -54 -159 -54q-74 0 -127 32t-79 89q-24 54 -24 128q0 75 25 129q25 57 77.5 88.5t125.5 31.5q145 0 197 -115q23 -52 25 -131h-424v-3q0 -65 22 -118q48 -106 183 -106q90 0 139 46zM268 463
q-133 0 -180 -106q-18 -43 -21 -91h396q-3 55 -21 97q-44 100 -174 100z" />
    <glyph glyph-name="eacute" unicode="&#xe9;" horiz-adv-x="529" 
d="M352 707l-105 -154h-30l103 154h32zM410 61q45 41 51 111h26q-6 -80 -58 -128q-60 -54 -159 -54q-74 0 -127 32t-79 89q-24 54 -24 128q0 75 25 129q25 57 77.5 88.5t125.5 31.5q145 0 197 -115q23 -52 25 -131h-424v-3q0 -65 22 -118q48 -106 183 -106q90 0 139 46z
M268 463q-133 0 -180 -106q-18 -43 -21 -91h396q-3 55 -21 97q-44 100 -174 100z" />
    <glyph glyph-name="ecircumflex" unicode="&#xea;" horiz-adv-x="529" 
d="M268 689l-99 -137h-32l113 155h36l113 -155h-32zM410 61q45 41 51 111h26q-6 -80 -58 -128q-60 -54 -159 -54q-74 0 -127 32t-79 89q-24 54 -24 128q0 75 25 129q25 57 77.5 88.5t125.5 31.5q145 0 197 -115q23 -52 25 -131h-424v-3q0 -65 22 -118q48 -106 183 -106
q90 0 139 46zM268 463q-133 0 -180 -106q-18 -43 -21 -91h396q-3 55 -21 97q-44 100 -174 100z" />
    <glyph glyph-name="edieresis" unicode="&#xeb;" horiz-adv-x="529" 
d="M177 592q-12 0 -19.5 7t-7.5 18q0 12 7.5 19.5t19.5 7.5q11 0 18.5 -7.5t7.5 -19.5q0 -11 -7.5 -18t-18.5 -7zM357 592q-12 0 -19.5 7t-7.5 18q0 12 7.5 19.5t19.5 7.5q11 0 18.5 -7.5t7.5 -19.5q0 -11 -7.5 -18t-18.5 -7zM410 61q45 41 51 111h26q-6 -80 -58 -128
q-60 -54 -159 -54q-74 0 -127 32t-79 89q-24 54 -24 128q0 75 25 129q25 57 77.5 88.5t125.5 31.5q145 0 197 -115q23 -52 25 -131h-424v-3q0 -65 22 -118q48 -106 183 -106q90 0 139 46zM268 463q-133 0 -180 -106q-18 -43 -21 -91h396q-3 55 -21 97q-44 100 -174 100z" />
    <glyph glyph-name="igrave" unicode="&#xec;" horiz-adv-x="165" 
d="M112 553h-28l-85 154h30zM70 0v478h25v-478h-25z" />
    <glyph glyph-name="iacute" unicode="&#xed;" horiz-adv-x="165" 
d="M52 553l83 154h30l-85 -154h-28zM70 0v478h25v-478h-25z" />
    <glyph glyph-name="icircumflex" unicode="&#xee;" horiz-adv-x="165" 
d="M-27 552l94 155h32l94 -155h-29l-81 134l-81 -134h-29zM70 0v478h25v-478h-25z" />
    <glyph glyph-name="idieresis" unicode="&#xef;" horiz-adv-x="165" 
d="M23 592q-27 0 -27 26q0 11 7.5 18.5t19.5 7.5q11 0 18.5 -7.5t7.5 -18.5q0 -12 -7.5 -19t-18.5 -7zM142 592q-27 0 -27 26q0 11 7.5 18.5t19.5 7.5q11 0 18.5 -7.5t7.5 -18.5q0 -12 -7.5 -19t-18.5 -7zM70 0v478h25v-478h-25z" />
    <glyph glyph-name="eth" unicode="&#xf0;" horiz-adv-x="529" 
d="M439 449q48 -108 48 -206q0 -82 -26 -137q-52 -116 -199 -116q-144 0 -197 117q-25 54 -25 128q0 77 24 128q53 119 198 119q116 0 171 -81q-2 4 -7.5 17.5t-9.5 21.5q-35 77 -108 169l-204 -78v24l189 73q-21 26 -67 76v2h31q31 -33 60 -69l114 44v-25l-99 -38
q72 -91 107 -169zM437 116q23 49 23 125q0 69 -22 116q-44 99 -175 99q-128 0 -175 -104q-22 -48 -22 -116t24 -119q47 -102 173 -102q127 0 174 101z" />
    <glyph glyph-name="ntilde" unicode="&#xf1;" horiz-adv-x="519" 
d="M188 686q-30 0 -43 -33t-15 -101h-25q2 80 20.5 118.5t61.5 38.5q28 0 46 -16t38 -56q12 -24 19 -34.5t19 -20.5t27 -10q31 0 43.5 32.5t14.5 101.5h25q-2 -80 -21 -118.5t-62 -38.5q-27 0 -45 16t-38 55q-12 24 -19 35t-19 21t-27 10zM272 488q182 0 182 -211v-277h-26
v275q0 96 -38.5 142t-118.5 46q-84 0 -130 -48t-46 -136v-279h-25v478h25v-98q43 108 177 108z" />
    <glyph glyph-name="ograve" unicode="&#xf2;" horiz-adv-x="527" 
d="M315 553h-30l-105 154h32zM264 -11q-72 0 -122.5 32.5t-76.5 88.5q-25 56 -25 129q0 74 25 128q26 56 76.5 88.5t122.5 32.5t122.5 -32.5t75.5 -88.5q26 -57 26 -128t-26 -129q-25 -56 -75.5 -88.5t-122.5 -32.5zM264 15q127 0 174 105q23 52 23 119t-23 119
q-47 105 -174 105t-175 -105q-23 -52 -23 -119t23 -119q48 -105 175 -105z" />
    <glyph glyph-name="oacute" unicode="&#xf3;" horiz-adv-x="527" 
d="M212 553l103 154h32l-105 -154h-30zM264 -11q-72 0 -122.5 32.5t-76.5 88.5q-25 56 -25 129q0 74 25 128q26 56 76.5 88.5t122.5 32.5t122.5 -32.5t75.5 -88.5q26 -57 26 -128t-26 -129q-25 -56 -75.5 -88.5t-122.5 -32.5zM264 15q127 0 174 105q23 52 23 119t-23 119
q-47 105 -174 105t-175 -105q-23 -52 -23 -119t23 -119q48 -105 175 -105z" />
    <glyph glyph-name="ocircumflex" unicode="&#xf4;" horiz-adv-x="527" 
d="M132 552l113 155h36l113 -155h-32l-99 137l-99 -137h-32zM264 -11q-72 0 -122.5 32.5t-76.5 88.5q-25 56 -25 129q0 74 25 128q26 56 76.5 88.5t122.5 32.5t122.5 -32.5t75.5 -88.5q26 -57 26 -128t-26 -129q-25 -56 -75.5 -88.5t-122.5 -32.5zM264 15q127 0 174 105
q23 52 23 119t-23 119q-47 105 -174 105t-175 -105q-23 -52 -23 -119t23 -119q48 -105 175 -105z" />
    <glyph glyph-name="otilde" unicode="&#xf5;" horiz-adv-x="527" 
d="M337 549q-27 0 -45 16t-38 55q-12 24 -19 35t-19 21t-27 10q-30 0 -43 -33t-15 -101h-25q2 80 20.5 118.5t61.5 38.5q28 0 46 -16t38 -56q12 -24 19 -34.5t19 -20.5t27 -10q31 0 43.5 32.5t14.5 101.5h25q-2 -80 -21 -118.5t-62 -38.5zM264 -11q-72 0 -122.5 32.5
t-76.5 88.5q-25 56 -25 129q0 74 25 128q26 56 76.5 88.5t122.5 32.5t122.5 -32.5t75.5 -88.5q26 -57 26 -128t-26 -129q-25 -56 -75.5 -88.5t-122.5 -32.5zM264 15q127 0 174 105q23 52 23 119t-23 119q-47 105 -174 105t-175 -105q-23 -52 -23 -119t23 -119
q48 -105 175 -105z" />
    <glyph glyph-name="odieresis" unicode="&#xf6;" horiz-adv-x="527" 
d="M172 592q-12 0 -19.5 7t-7.5 18q0 12 7.5 19.5t19.5 7.5q11 0 18.5 -7.5t7.5 -19.5q0 -11 -7.5 -18t-18.5 -7zM352 592q-12 0 -19.5 7t-7.5 18q0 12 7.5 19.5t19.5 7.5q11 0 18.5 -7.5t7.5 -19.5q0 -11 -7.5 -18t-18.5 -7zM264 -11q-72 0 -122.5 32.5t-76.5 88.5
q-25 56 -25 129q0 74 25 128q26 56 76.5 88.5t122.5 32.5t122.5 -32.5t75.5 -88.5q26 -57 26 -128t-26 -129q-25 -56 -75.5 -88.5t-122.5 -32.5zM264 15q127 0 174 105q23 52 23 119t-23 119q-47 105 -174 105t-175 -105q-23 -52 -23 -119t23 -119q48 -105 175 -105z" />
    <glyph glyph-name="divide" unicode="&#xf7;" horiz-adv-x="578" 
d="M289 460q-12 0 -19 7.5t-7 18.5q0 27 26 27q11 0 18.5 -7.5t7.5 -19.5q0 -11 -7.5 -18.5t-18.5 -7.5zM56 262v25h465v-25h-465zM289 36q-12 0 -19 7.5t-7 18.5q0 27 26 27q11 0 18.5 -7.5t7.5 -19.5q0 -11 -7.5 -18.5t-18.5 -7.5z" />
    <glyph glyph-name="oslash" unicode="&#xf8;" horiz-adv-x="527" 
d="M462 367q26 -57 26 -128t-26 -129q-25 -56 -75.5 -88.5t-122.5 -32.5q-90 0 -149 52l-35 -41h-32l50 58q-20 25 -33 52q-25 56 -25 129q0 74 25 128q26 56 76.5 88.5t122.5 32.5q89 0 148 -51l34 41h32l-49 -59q18 -21 33 -52zM66 239q0 -67 23 -119q12 -25 26 -42
l281 339q-51 46 -132 46q-127 0 -175 -105q-23 -52 -23 -119zM438 120q23 52 23 119t-23 119q-12 25 -25 41l-282 -338q51 -46 133 -46q127 0 174 105z" />
    <glyph glyph-name="ugrave" unicode="&#xf9;" horiz-adv-x="519" 
d="M308 553h-30l-105 154h32zM424 478h25v-478h-25v98q-43 -108 -177 -108q-182 0 -182 211v277h26v-275q0 -96 38.5 -142t118.5 -46q84 0 130 48t46 136v279z" />
    <glyph glyph-name="uacute" unicode="&#xfa;" horiz-adv-x="519" 
d="M339 707l-105 -154h-30l103 154h32zM424 478h25v-478h-25v98q-43 -108 -177 -108q-182 0 -182 211v277h26v-275q0 -96 38.5 -142t118.5 -46q84 0 130 48t46 136v279z" />
    <glyph glyph-name="ucircumflex" unicode="&#xfb;" horiz-adv-x="519" 
d="M256 689l-99 -137h-32l113 155h36l113 -155h-32zM424 478h25v-478h-25v98q-43 -108 -177 -108q-182 0 -182 211v277h26v-275q0 -96 38.5 -142t118.5 -46q84 0 130 48t46 136v279z" />
    <glyph glyph-name="udieresis" unicode="&#xfc;" horiz-adv-x="519" 
d="M164 592q-12 0 -19.5 7t-7.5 18q0 12 7.5 19.5t19.5 7.5q11 0 18.5 -7.5t7.5 -19.5q0 -11 -7.5 -18t-18.5 -7zM344 592q-12 0 -19.5 7t-7.5 18q0 12 7.5 19.5t19.5 7.5q11 0 18.5 -7.5t7.5 -19.5q0 -11 -7.5 -18t-18.5 -7zM424 478h25v-478h-25v98q-43 -108 -177 -108
q-182 0 -182 211v277h26v-275q0 -96 38.5 -142t118.5 -46q84 0 130 48t46 136v279z" />
    <glyph glyph-name="yacute" unicode="&#xfd;" horiz-adv-x="474" 
d="M322 707l-105 -154h-30l103 154h32zM431 478h28l-219 -478l-93 -202h-29l95 204l-198 476h29l183 -444z" />
    <glyph glyph-name="thorn" unicode="&#xfe;" horiz-adv-x="547" 
d="M482 369q25 -58 25 -130t-25 -130q-25 -56 -75 -87.5t-119 -31.5t-119 32.5t-74 95.5v-320h-25v908h25v-346q24 63 74 95.5t119 32.5t119 -31.5t75 -87.5zM457 120q23 51 23 119t-23 119q-47 105 -171 105q-87 0 -139 -56.5t-52 -156.5v-22q0 -100 52 -156t139 -56
q124 0 171 104z" />
    <glyph glyph-name="ydieresis" unicode="&#xff;" horiz-adv-x="474" 
d="M147 592q-12 0 -19.5 7t-7.5 18q0 12 7.5 19.5t19.5 7.5q11 0 18.5 -7.5t7.5 -19.5q0 -11 -7.5 -18t-18.5 -7zM327 592q-12 0 -19.5 7t-7.5 18q0 12 7.5 19.5t19.5 7.5q11 0 18.5 -7.5t7.5 -19.5q0 -11 -7.5 -18t-18.5 -7zM431 478h28l-219 -478l-93 -202h-29l95 204
l-198 476h29l183 -444z" />
    <glyph glyph-name="Amacron" unicode="&#x100;" horiz-adv-x="591" 
d="M439 835v-25h-288v25h288zM556 0l-83 217h-356l-82 -217h-30l270 706h41l270 -706h-30zM127 243h336l-167 440h-2z" />
    <glyph glyph-name="amacron" unicode="&#x101;" horiz-adv-x="510" 
d="M400 631v-25h-281v25h281zM425 399q19 -44 19 -112v-287h-25v107q-47 -118 -201 -118q-123 0 -159 79q-12 27 -12 61q0 29 12 56q36 80 215 80h145v23q0 63 -16 99q-34 76 -150 76q-118 0 -149 -71q-12 -26 -12 -60h-26q0 38 15 71q38 85 172 85q133 0 172 -89zM220 14
q134 0 178 98q21 45 21 123v6h-143q-162 0 -193 -68q-9 -18 -9 -44q0 -25 10 -48q30 -67 136 -67z" />
    <glyph glyph-name="Abreve" unicode="&#x102;" horiz-adv-x="591" 
d="M295 759q-127 0 -133 123h25q7 -100 108 -100q53 0 79 24.5t30 75.5h25q-6 -123 -134 -123zM556 0l-83 217h-356l-82 -217h-30l270 706h41l270 -706h-30zM127 243h336l-167 440h-2z" />
    <glyph glyph-name="abreve" unicode="&#x103;" horiz-adv-x="510" 
d="M260 551q-70 0 -100.5 38t-33.5 118h25q3 -70 27 -102t82 -32t81.5 32t27.5 102h25q-4 -80 -34 -118t-100 -38zM425 399q19 -44 19 -112v-287h-25v107q-47 -118 -201 -118q-123 0 -159 79q-12 27 -12 61q0 29 12 56q36 80 215 80h145v23q0 63 -16 99q-34 76 -150 76
q-118 0 -149 -71q-12 -26 -12 -60h-26q0 38 15 71q38 85 172 85q133 0 172 -89zM220 14q134 0 178 98q21 45 21 123v6h-143q-162 0 -193 -68q-9 -18 -9 -44q0 -25 10 -48q30 -67 136 -67z" />
    <glyph glyph-name="Aogonek" unicode="&#x104;" horiz-adv-x="591" 
d="M548 -186q28 0 52 10v-25q-22 -9 -52 -9q-39 0 -62 20.5t-23 56.5q0 34 22 63.5t71 70.5l-83 216h-356l-82 -217h-30l270 706h41l270 -706q-53 -45 -75 -73.5t-22 -59.5q0 -53 59 -53zM127 243h336l-167 440h-2z" />
    <glyph glyph-name="aogonek" unicode="&#x105;" horiz-adv-x="510" 
d="M407 -186q28 0 52 10v-25q-22 -9 -52 -9q-39 0 -62 20.5t-23 56.5q0 35 23 65t74 73v102q-47 -118 -201 -118q-123 0 -159 79q-12 27 -12 61q0 29 12 56q36 80 215 80h145v23q0 63 -16 99q-34 76 -150 76q-118 0 -149 -71q-12 -26 -12 -60h-26q0 38 15 71q38 85 172 85
q133 0 172 -89q19 -44 19 -112v-286l1 -1q-53 -45 -75 -73.5t-22 -59.5q0 -53 59 -53zM220 14q134 0 178 98q21 45 21 123v6h-143q-162 0 -193 -68q-9 -18 -9 -44q0 -25 10 -48q30 -67 136 -67z" />
    <glyph glyph-name="Cacute" unicode="&#x106;" horiz-adv-x="718" 
d="M307 763l141 120h39l-143 -120h-37zM371 -15q-205 0 -280 166q-37 83 -37 202q0 121 37 202q76 166 280 166q134 0 216 -73q73 -68 77 -181h-28q-4 102 -70 161q-71 65 -196 65q-185 0 -253 -149q-34 -77 -34 -191t34 -192q68 -148 254 -148q125 0 196 63q68 63 72 172
h28q-4 -122 -79 -192q-79 -71 -217 -71z" />
    <glyph glyph-name="cacute" unicode="&#x107;" horiz-adv-x="501" 
d="M211 553l103 154h32l-105 -154h-30zM262 -10q-71 0 -121.5 31.5t-76.5 88.5q-24 56 -24 129q0 74 24 128q55 121 198 121q89 0 144 -49q52 -49 55 -129h-27q-3 71 -48 110q-46 43 -124 43q-126 0 -173 -106q-23 -52 -23 -118t23 -118q49 -106 173 -106q78 0 126 43
q43 40 46 106h27q-3 -78 -54 -124q-55 -50 -145 -50z" />
    <glyph glyph-name="Ccircumflex" unicode="&#x108;" horiz-adv-x="718" 
d="M218 763l135 120h37l135 -120h-38l-116 102l-115 -102h-38zM371 -15q-205 0 -280 166q-37 83 -37 202q0 121 37 202q76 166 280 166q134 0 216 -73q73 -68 77 -181h-28q-4 102 -70 161q-71 65 -196 65q-185 0 -253 -149q-34 -77 -34 -191t34 -192q68 -148 254 -148
q125 0 196 63q68 63 72 172h28q-4 -122 -79 -192q-79 -71 -217 -71z" />
    <glyph glyph-name="ccircumflex" unicode="&#x109;" horiz-adv-x="501" 
d="M131 552l113 155h36l113 -155h-32l-99 137l-99 -137h-32zM262 -10q-71 0 -121.5 31.5t-76.5 88.5q-24 56 -24 129q0 74 24 128q55 121 198 121q89 0 144 -49q52 -49 55 -129h-27q-3 71 -48 110q-46 43 -124 43q-126 0 -173 -106q-23 -52 -23 -118t23 -118
q49 -106 173 -106q78 0 126 43q43 40 46 106h27q-3 -78 -54 -124q-55 -50 -145 -50z" />
    <glyph glyph-name="Cdotaccent" unicode="&#x10a;" horiz-adv-x="718" 
d="M372 796q-12 0 -19.5 7.5t-7.5 18.5t7.5 18.5t19.5 7.5q11 0 18.5 -7.5t7.5 -18.5t-7.5 -18.5t-18.5 -7.5zM371 -15q-205 0 -280 166q-37 83 -37 202q0 121 37 202q76 166 280 166q134 0 216 -73q73 -68 77 -181h-28q-4 102 -70 161q-71 65 -196 65q-185 0 -253 -149
q-34 -77 -34 -191t34 -192q68 -148 254 -148q125 0 196 63q68 63 72 172h28q-4 -122 -79 -192q-79 -71 -217 -71z" />
    <glyph glyph-name="cdotaccent" unicode="&#x10b;" horiz-adv-x="501" 
d="M263 592q-12 0 -19.5 7.5t-7.5 18.5t7.5 18.5t19.5 7.5q11 0 18.5 -7.5t7.5 -18.5t-7.5 -18.5t-18.5 -7.5zM262 -10q-71 0 -121.5 31.5t-76.5 88.5q-24 56 -24 129q0 74 24 128q55 121 198 121q89 0 144 -49q52 -49 55 -129h-27q-3 71 -48 110q-46 43 -124 43
q-126 0 -173 -106q-23 -52 -23 -118t23 -118q49 -106 173 -106q78 0 126 43q43 40 46 106h27q-3 -78 -54 -124q-55 -50 -145 -50z" />
    <glyph glyph-name="Ccaron" unicode="&#x10c;" horiz-adv-x="718" 
d="M525 883l-135 -120h-37l-135 120h38l116 -102l115 102h38zM371 -15q-205 0 -280 166q-37 83 -37 202q0 121 37 202q76 166 280 166q134 0 216 -73q73 -68 77 -181h-28q-4 102 -70 161q-71 65 -196 65q-185 0 -253 -149q-34 -77 -34 -191t34 -192q68 -148 254 -148
q125 0 196 63q68 63 72 172h28q-4 -122 -79 -192q-79 -71 -217 -71z" />
    <glyph glyph-name="ccaron" unicode="&#x10d;" horiz-adv-x="501" 
d="M393 706l-113 -155h-36l-113 155h32l99 -137l99 137h32zM262 -10q-71 0 -121.5 31.5t-76.5 88.5q-24 56 -24 129q0 74 24 128q55 121 198 121q89 0 144 -49q52 -49 55 -129h-27q-3 71 -48 110q-46 43 -124 43q-126 0 -173 -106q-23 -52 -23 -118t23 -118
q49 -106 173 -106q78 0 126 43q43 40 46 106h27q-3 -78 -54 -124q-55 -50 -145 -50z" />
    <glyph glyph-name="Dcaron" unicode="&#x10e;" horiz-adv-x="665" 
d="M450 883l-135 -120h-37l-135 120h38l116 -102l115 102h38zM76 0v706h209q220 0 291 -160q35 -77 35 -193t-35 -193q-71 -160 -291 -160h-209zM103 26h181q200 0 266 144q32 70 32 183t-32 183q-64 144 -266 144h-181v-654z" />
    <glyph glyph-name="dcaron" unicode="&#x10f;" horiz-adv-x="575" 
d="M452 363v343h25v-706h-25v115q-24 -61 -74 -93t-119 -32t-119 31.5t-75 87.5q-25 58 -25 130t25 130q25 56 75 87.5t119 31.5t119 -32t74 -93zM559 706h26l-38 -164h-24zM261 16q87 0 139 56t52 156v22q0 100 -52 156.5t-139 56.5q-124 0 -171 -105q-23 -51 -23 -119
t23 -119q47 -104 171 -104z" />
    <glyph glyph-name="Dcroat" unicode="&#x110;" horiz-adv-x="665" 
d="M576 546q35 -77 35 -193t-35 -193q-71 -160 -291 -160h-209v348h-64v25h64v333h209q220 0 291 -160zM550 170q32 70 32 183t-32 183q-64 144 -266 144h-181v-307h202v-25h-202v-322h181q200 0 266 144z" />
    <glyph glyph-name="dcroat" unicode="&#x111;" horiz-adv-x="547" 
d="M555 618v-24h-78v-594h-25v115q-24 -61 -74 -93t-119 -32t-119 31.5t-75 87.5q-25 58 -25 130t25 130q25 56 75 87.5t119 31.5t119 -32t74 -93v231h-174v24h174v88h25v-88h78zM261 16q87 0 139 56t52 156v22q0 100 -52 156.5t-139 56.5q-124 0 -171 -105
q-23 -51 -23 -119t23 -119q47 -104 171 -104z" />
    <glyph glyph-name="Emacron" unicode="&#x112;" horiz-adv-x="516" 
d="M128 810v25h288v-25h-288zM76 0v706h392v-26h-365v-306h362v-26h-362v-322h365v-26h-392z" />
    <glyph glyph-name="emacron" unicode="&#x113;" horiz-adv-x="529" 
d="M409 631v-25h-281v25h281zM410 61q45 41 51 111h26q-6 -80 -58 -128q-60 -54 -159 -54q-74 0 -127 32t-79 89q-24 54 -24 128q0 75 25 129q25 57 77.5 88.5t125.5 31.5q145 0 197 -115q23 -52 25 -131h-424v-3q0 -65 22 -118q48 -106 183 -106q90 0 139 46zM268 463
q-133 0 -180 -106q-18 -43 -21 -91h396q-3 55 -21 97q-44 100 -174 100z" />
    <glyph glyph-name="Ebreve" unicode="&#x114;" horiz-adv-x="516" 
d="M272 759q-127 0 -133 123h25q7 -100 108 -100q53 0 79 24.5t30 75.5h25q-6 -123 -134 -123zM76 0v706h392v-26h-365v-306h362v-26h-362v-322h365v-26h-392z" />
    <glyph glyph-name="ebreve" unicode="&#x115;" horiz-adv-x="529" 
d="M269 551q-70 0 -100.5 38t-33.5 118h25q3 -70 27 -102t82 -32t81.5 32t27.5 102h25q-4 -80 -34 -118t-100 -38zM410 61q45 41 51 111h26q-6 -80 -58 -128q-60 -54 -159 -54q-74 0 -127 32t-79 89q-24 54 -24 128q0 75 25 129q25 57 77.5 88.5t125.5 31.5q145 0 197 -115
q23 -52 25 -131h-424v-3q0 -65 22 -118q48 -106 183 -106q90 0 139 46zM268 463q-133 0 -180 -106q-18 -43 -21 -91h396q-3 55 -21 97q-44 100 -174 100z" />
    <glyph glyph-name="Edotaccent" unicode="&#x116;" horiz-adv-x="516" 
d="M273 796q-12 0 -19.5 7.5t-7.5 18.5t7.5 18.5t19.5 7.5q11 0 18.5 -7.5t7.5 -18.5t-7.5 -18.5t-18.5 -7.5zM76 0v706h392v-26h-365v-306h362v-26h-362v-322h365v-26h-392z" />
    <glyph glyph-name="edotaccent" unicode="&#x117;" horiz-adv-x="529" 
d="M269 592q-12 0 -19.5 7.5t-7.5 18.5t7.5 18.5t19.5 7.5q11 0 18.5 -7.5t7.5 -18.5t-7.5 -18.5t-18.5 -7.5zM410 61q45 41 51 111h26q-6 -80 -58 -128q-60 -54 -159 -54q-74 0 -127 32t-79 89q-24 54 -24 128q0 75 25 129q25 57 77.5 88.5t125.5 31.5q145 0 197 -115
q23 -52 25 -131h-424v-3q0 -65 22 -118q48 -106 183 -106q90 0 139 46zM268 463q-133 0 -180 -106q-18 -43 -21 -91h396q-3 55 -21 97q-44 100 -174 100z" />
    <glyph glyph-name="Eogonek" unicode="&#x118;" horiz-adv-x="516" 
d="M430 -186q28 0 52 10v-25q-22 -9 -52 -9q-39 0 -62 20.5t-23 56.5q0 34 21.5 63t69.5 70h-360v706h392v-26h-365v-306h362v-26h-362v-322h365v-26q-53 -45 -75 -73.5t-22 -59.5q0 -53 59 -53z" />
    <glyph glyph-name="eogonek" unicode="&#x119;" horiz-adv-x="529" 
d="M410 61q45 41 51 111h26q-4 -49 -24 -83.5t-66 -76.5q-55 -48 -77 -78t-22 -61q0 -59 60 -59q28 0 52 10v-25q-22 -9 -52 -9q-39 0 -62 21.5t-23 60.5q0 34 20 63t64 68q-42 -13 -87 -13q-74 0 -127 32t-79 89q-24 54 -24 128q0 75 25 129q25 57 77.5 88.5t125.5 31.5
q145 0 197 -115q23 -52 25 -131h-424v-3q0 -65 22 -118q48 -106 183 -106q90 0 139 46zM268 463q-133 0 -180 -106q-18 -43 -21 -91h396q-3 55 -21 97q-44 100 -174 100z" />
    <glyph glyph-name="Ecaron" unicode="&#x11a;" horiz-adv-x="516" 
d="M426 883l-135 -120h-37l-135 120h38l116 -102l115 102h38zM76 0v706h392v-26h-365v-306h362v-26h-362v-322h365v-26h-392z" />
    <glyph glyph-name="ecaron" unicode="&#x11b;" horiz-adv-x="529" 
d="M286 551h-36l-113 155h32l99 -137l99 137h32zM410 61q45 41 51 111h26q-6 -80 -58 -128q-60 -54 -159 -54q-74 0 -127 32t-79 89q-24 54 -24 128q0 75 25 129q25 57 77.5 88.5t125.5 31.5q145 0 197 -115q23 -52 25 -131h-424v-3q0 -65 22 -118q48 -106 183 -106
q90 0 139 46zM268 463q-133 0 -180 -106q-18 -43 -21 -91h396q-3 55 -21 97q-44 100 -174 100z" />
    <glyph glyph-name="Gcircumflex" unicode="&#x11c;" horiz-adv-x="727" 
d="M372 865l-115 -102h-38l135 120h37l135 -120h-38zM408 352h264v-36q0 -106 -33 -180q-68 -151 -268 -151q-205 0 -281 167q-36 80 -36 201t36 201q76 167 286 167q135 0 209 -68q71 -64 79 -183h-28q-7 107 -70 163q-66 60 -190 60q-192 0 -259 -149q-34 -77 -34 -191
q0 -116 34 -191q67 -149 255 -149q184 0 244 135q29 66 29 161v17h-237v26z" />
    <glyph glyph-name="gcircumflex" unicode="&#x11d;" horiz-adv-x="546" 
d="M268 689l-99 -137h-32l113 155h36l113 -155h-32zM451 478h26v-480q0 -63 -21 -108q-45 -102 -191 -102q-106 0 -160 50q-47 43 -49 118h27q0 -62 41 -100q47 -43 141 -43q129 0 169 89q17 37 17 93v122q-23 -62 -73.5 -94.5t-119.5 -32.5q-68 0 -118 31.5t-75 87.5
q-25 53 -25 130t25 130q25 56 75 87.5t118 31.5q69 0 119.5 -32.5t73.5 -94.5v117zM261 16q87 0 138.5 56t51.5 156v22q0 101 -51.5 157t-138.5 56q-124 0 -172 -105q-23 -51 -23 -119t23 -119q47 -104 172 -104z" />
    <glyph glyph-name="Gbreve" unicode="&#x11e;" horiz-adv-x="727" 
d="M371 759q-127 0 -133 123h25q7 -100 108 -100q53 0 79 24.5t30 75.5h25q-6 -123 -134 -123zM408 352h264v-36q0 -106 -33 -180q-68 -151 -268 -151q-205 0 -281 167q-36 80 -36 201t36 201q76 167 286 167q135 0 209 -68q71 -64 79 -183h-28q-7 107 -70 163
q-66 60 -190 60q-192 0 -259 -149q-34 -77 -34 -191q0 -116 34 -191q67 -149 255 -149q184 0 244 135q29 66 29 161v17h-237v26z" />
    <glyph glyph-name="gbreve" unicode="&#x11f;" horiz-adv-x="546" 
d="M268 551q-70 0 -100.5 38t-33.5 118h25q3 -70 27 -102t82 -32t81.5 32t27.5 102h25q-4 -80 -34 -118t-100 -38zM451 478h26v-480q0 -63 -21 -108q-45 -102 -191 -102q-106 0 -160 50q-47 43 -49 118h27q0 -62 41 -100q47 -43 141 -43q129 0 169 89q17 37 17 93v122
q-23 -62 -73.5 -94.5t-119.5 -32.5q-68 0 -118 31.5t-75 87.5q-25 53 -25 130t25 130q25 56 75 87.5t118 31.5q69 0 119.5 -32.5t73.5 -94.5v117zM261 16q87 0 138.5 56t51.5 156v22q0 101 -51.5 157t-138.5 56q-124 0 -172 -105q-23 -51 -23 -119t23 -119q47 -104 172 -104
z" />
    <glyph glyph-name="Gdotaccent" unicode="&#x120;" horiz-adv-x="727" 
d="M372 796q-12 0 -19.5 7.5t-7.5 18.5t7.5 18.5t19.5 7.5q11 0 18.5 -7.5t7.5 -18.5t-7.5 -18.5t-18.5 -7.5zM408 352h264v-36q0 -106 -33 -180q-68 -151 -268 -151q-205 0 -281 167q-36 80 -36 201t36 201q76 167 286 167q135 0 209 -68q71 -64 79 -183h-28
q-7 107 -70 163q-66 60 -190 60q-192 0 -259 -149q-34 -77 -34 -191q0 -116 34 -191q67 -149 255 -149q184 0 244 135q29 66 29 161v17h-237v26z" />
    <glyph glyph-name="gdotaccent" unicode="&#x121;" horiz-adv-x="546" 
d="M268 592q-12 0 -19.5 7.5t-7.5 18.5t7.5 18.5t19.5 7.5q11 0 18.5 -7.5t7.5 -18.5t-7.5 -18.5t-18.5 -7.5zM451 478h26v-480q0 -63 -21 -108q-45 -102 -191 -102q-106 0 -160 50q-47 43 -49 118h27q0 -62 41 -100q47 -43 141 -43q129 0 169 89q17 37 17 93v122
q-23 -62 -73.5 -94.5t-119.5 -32.5q-68 0 -118 31.5t-75 87.5q-25 53 -25 130t25 130q25 56 75 87.5t118 31.5q69 0 119.5 -32.5t73.5 -94.5v117zM261 16q87 0 138.5 56t51.5 156v22q0 101 -51.5 157t-138.5 56q-124 0 -172 -105q-23 -51 -23 -119t23 -119q47 -104 172 -104
z" />
    <glyph glyph-name="uni0122" unicode="&#x122;" horiz-adv-x="727" 
d="M408 352h264v-36q0 -106 -33 -180q-68 -151 -268 -151q-205 0 -281 167q-36 80 -36 201t36 201q76 167 286 167q135 0 209 -68q71 -64 79 -183h-28q-7 107 -70 163q-66 60 -190 60q-192 0 -259 -149q-34 -77 -34 -191q0 -116 34 -191q67 -149 255 -149q184 0 244 135
q29 66 29 161v17h-237v26zM330 -202l31 148h27l-34 -148h-24z" />
    <glyph glyph-name="uni0123" unicode="&#x123;" horiz-adv-x="546" 
d="M301 701l-31 -148h-27l33 148h25zM451 478h26v-480q0 -63 -21 -108q-45 -102 -191 -102q-106 0 -160 50q-47 43 -49 118h27q0 -62 41 -100q47 -43 141 -43q129 0 169 89q17 37 17 93v122q-23 -62 -73.5 -94.5t-119.5 -32.5q-68 0 -118 31.5t-75 87.5q-25 53 -25 130
t25 130q25 56 75 87.5t118 31.5q69 0 119.5 -32.5t73.5 -94.5v117zM261 16q87 0 138.5 56t51.5 156v22q0 101 -51.5 157t-138.5 56q-124 0 -172 -105q-23 -51 -23 -119t23 -119q47 -104 172 -104z" />
    <glyph glyph-name="Hcircumflex" unicode="&#x124;" horiz-adv-x="619" 
d="M157 763l135 120h37l135 -120h-38l-116 102l-115 -102h-38zM76 0v706h27v-332h413v332h28v-706h-28v348h-413v-348h-27z" />
    <glyph glyph-name="hcircumflex" unicode="&#x125;" horiz-adv-x="519" 
d="M260 865l-115 -102h-38l135 120h37l135 -120h-38zM272 488q182 0 182 -211v-277h-26v275q0 96 -38.5 142t-118.5 46q-84 0 -130 -48t-46 -136v-279h-25v706h25v-327q42 109 177 109z" />
    <glyph glyph-name="Hbar" unicode="&#x126;" horiz-adv-x="619" 
d="M516 706h28v-706h-28v348h-413v-348h-27v706h27v-140h413v140zM103 374h413v167h-413v-167z" />
    <glyph glyph-name="hbar" unicode="&#x127;" horiz-adv-x="519" 
d="M272 488q182 0 182 -211v-277h-26v275q0 96 -38.5 142t-118.5 46q-84 0 -130 -48t-46 -136v-279h-25v594h-70v24h70v88h25v-88h182v-24h-182v-215q42 109 177 109z" />
    <glyph glyph-name="Itilde" unicode="&#x128;" horiz-adv-x="179" 
d="M149 760q-26 0 -40.5 13t-29.5 40q-13 25 -24 36.5t-29 11.5q-27 0 -38.5 -24.5t-13.5 -73.5h-23q2 61 19.5 91t56.5 30q26 0 40.5 -13t29.5 -40q13 -25 24 -36.5t30 -11.5q48 0 51 98h23q-3 -121 -76 -121zM76 0v706h27v-706h-27z" />
    <glyph glyph-name="itilde" unicode="&#x129;" horiz-adv-x="165" 
d="M135 549q-23 0 -35.5 16.5t-26.5 54.5l-9 27t-8 18.5t-12 16.5t-14 4q-21 0 -29 -31.5t-10 -102.5h-24q2 84 16 120.5t47 36.5q22 0 35 -16.5t26 -54.5q8 -24 12 -34.5t12.5 -21t19.5 -10.5q21 0 29 32t10 102h23q-2 -84 -16 -120.5t-46 -36.5zM70 0v478h25v-478h-25z
" />
    <glyph glyph-name="Imacron" unicode="&#x12a;" horiz-adv-x="179" 
d="M-12 810v25h202v-25h-202zM76 0v706h27v-706h-27z" />
    <glyph glyph-name="imacron" unicode="&#x12b;" horiz-adv-x="165" 
d="M-13 606v25h191v-25h-191zM70 0v478h25v-478h-25z" />
    <glyph glyph-name="Ibreve" unicode="&#x12c;" horiz-adv-x="179" 
d="M90 758q-56 0 -79.5 30.5t-24.5 93.5h25q1 -53 18 -76.5t61 -23.5q43 0 60 24t18 76h25q-1 -63 -24 -93.5t-79 -30.5zM76 0v706h27v-706h-27z" />
    <glyph glyph-name="ibreve" unicode="&#x12d;" horiz-adv-x="165" 
d="M82 551q-53 0 -76.5 38t-25.5 118h24q2 -70 19 -101.5t59 -31.5q43 0 60 31.5t19 101.5h24q-2 -80 -25.5 -118t-77.5 -38zM70 0v478h25v-478h-25z" />
    <glyph glyph-name="Iogonek" unicode="&#x12e;" horiz-adv-x="179" 
d="M88 -186q21 0 41 10v-25q-18 -9 -42 -9q-35 0 -55 19t-20 53q0 35 15.5 66.5t48.5 72.5v705h27v-706q-36 -48 -50.5 -77.5t-14.5 -60.5q0 -48 50 -48z" />
    <glyph glyph-name="iogonek" unicode="&#x12f;" horiz-adv-x="165" 
d="M83 592q-12 0 -19.5 7.5t-7.5 18.5t7.5 18.5t19.5 7.5q11 0 18.5 -7.5t7.5 -18.5t-7.5 -18.5t-18.5 -7.5zM80 -186q21 0 41 10v-25q-18 -9 -42 -9q-35 0 -55 19t-20 53q0 36 16 67t50 75v474h25v-478q-36 -48 -50.5 -77.5t-14.5 -60.5q0 -48 50 -48z" />
    <glyph glyph-name="Idotaccent" unicode="&#x130;" horiz-adv-x="179" 
d="M90 796q-12 0 -19.5 7.5t-7.5 18.5t7.5 18.5t19.5 7.5q11 0 18.5 -7.5t7.5 -18.5t-7.5 -18.5t-18.5 -7.5zM76 0v706h27v-706h-27z" />
    <glyph glyph-name="dotlessi" unicode="&#x131;" horiz-adv-x="165" 
d="M70 0v478h25v-478h-25z" />
    <glyph glyph-name="IJ" unicode="&#x132;" horiz-adv-x="471" 
d="M76 0v706h27v-706h-27zM242 -4q-19 0 -53 4v27q21 -4 49 -4q70 0 100.5 32.5t30.5 108.5v542h28v-545q0 -86 -37 -125.5t-118 -39.5z" />
    <glyph glyph-name="ij" unicode="&#x133;" horiz-adv-x="331" 
d="M83 592q-12 0 -19.5 7.5t-7.5 18.5t7.5 18.5t19.5 7.5q11 0 18.5 -7.5t7.5 -18.5t-7.5 -18.5t-18.5 -7.5zM248 592q-12 0 -19.5 7.5t-7.5 18.5t7.5 18.5t19.5 7.5q11 0 18.5 -7.5t7.5 -18.5t-7.5 -18.5t-18.5 -7.5zM70 0v478h25v-478h-25zM156 -204q-21 0 -36 2v25
q16 -2 36 -2q42 0 60.5 20t18.5 68v569h26v-569q0 -59 -25 -86t-80 -27z" />
    <glyph glyph-name="Jcircumflex" unicode="&#x134;" horiz-adv-x="292" 
d="M99 763l89 119h32l89 -119h-30l-75 100l-74 -100h-31zM63 -4q-19 0 -53 4v27q21 -4 49 -4q70 0 100.5 32.5t30.5 108.5v542h28v-545q0 -86 -37 -125.5t-118 -39.5z" />
    <glyph glyph-name="jcircumflex" unicode="&#x135;" horiz-adv-x="166" 
d="M-27 552l94 155h32l94 -155h-29l-81 134l-81 -134h-29zM-9 -204q-21 0 -36 2v25q16 -2 36 -2q42 0 60.5 20t18.5 68v569h26v-569q0 -59 -25 -86t-80 -27z" />
    <glyph glyph-name="uni0136" unicode="&#x136;" horiz-adv-x="496" 
d="M132 385l357 -385h-37l-349 376v-376h-27v706h27v-313l307 313h36zM227 -202l31 148h27l-34 -148h-24z" />
    <glyph glyph-name="uni0137" unicode="&#x137;" horiz-adv-x="400" 
d="M122 269l275 -269h-36l-266 260v-260h-25v706h25v-429l238 201h37zM184 -202l31 148h27l-34 -148h-24z" />
    <glyph glyph-name="kgreenlandic" unicode="&#x138;" horiz-adv-x="400" 
d="M397 0h-36l-265 260v-260h-26v478h26v-201l237 201h37l-248 -209z" />
    <glyph glyph-name="Lacute" unicode="&#x139;" horiz-adv-x="379" 
d="M26 763l141 120h39l-143 -120h-37zM76 0v706h27v-680h266v-26h-293z" />
    <glyph glyph-name="lacute" unicode="&#x13a;" horiz-adv-x="165" 
d="M18 763l141 120h39l-143 -120h-37zM70 0v706h25v-706h-25z" />
    <glyph glyph-name="uni013B" unicode="&#x13b;" horiz-adv-x="379" 
d="M76 0v706h27v-680h266v-26h-293zM178 -202l31 148h27l-34 -148h-24z" />
    <glyph glyph-name="uni013C" unicode="&#x13c;" horiz-adv-x="165" 
d="M70 0v706h25v-706h-25zM40 -202l31 148h27l-34 -148h-24z" />
    <glyph glyph-name="Lcaron" unicode="&#x13d;" horiz-adv-x="379" 
d="M76 0v706h27v-680h266v-26h-293zM190 542l36 164h26l-38 -164h-24z" />
    <glyph glyph-name="lcaron" unicode="&#x13e;" horiz-adv-x="194" 
d="M70 0v706h25v-706h-25zM142 542l36 164h26l-38 -164h-24z" />
    <glyph glyph-name="Ldot" unicode="&#x13f;" horiz-adv-x="424" 
d="M76 0v706h27v-680h266v-26h-293zM297 348q-27 0 -27 26q0 11 7.5 18.5t19.5 7.5q11 0 18.5 -7.5t7.5 -18.5q0 -12 -7.5 -19t-18.5 -7z" />
    <glyph glyph-name="ldot" unicode="&#x140;" horiz-adv-x="244" 
d="M70 0v706h25v-706h-25zM205 343q-27 0 -27 26q0 11 7.5 18.5t19.5 7.5q11 0 18.5 -7.5t7.5 -18.5q0 -12 -7.5 -19t-18.5 -7z" />
    <glyph glyph-name="Lslash" unicode="&#x141;" horiz-adv-x="379" 
d="M103 26h266v-26h-293v346l-70 -46v29l70 46v331h27v-315l159 105v-29l-159 -105v-336z" />
    <glyph glyph-name="lslash" unicode="&#x142;" horiz-adv-x="165" 
d="M165 464v-30l-70 -53v-381h-25v365l-72 -53v29l72 54v311h25v-295z" />
    <glyph glyph-name="Nacute" unicode="&#x143;" horiz-adv-x="650" 
d="M262 763l141 120h39l-143 -120h-37zM76 0v706h34l438 -668v668h27v-706h-35l-437 668v-668h-27z" />
    <glyph glyph-name="nacute" unicode="&#x144;" horiz-adv-x="519" 
d="M345 707l-105 -154h-30l103 154h32zM272 488q182 0 182 -211v-277h-26v275q0 96 -38.5 142t-118.5 46q-84 0 -130 -48t-46 -136v-279h-25v478h25v-98q43 108 177 108z" />
    <glyph glyph-name="uni0145" unicode="&#x145;" horiz-adv-x="650" 
d="M76 0v706h34l438 -668v668h27v-706h-35l-437 668v-668h-27zM276 -202l31 148h27l-34 -148h-24z" />
    <glyph glyph-name="uni0146" unicode="&#x146;" horiz-adv-x="519" 
d="M272 488q182 0 182 -211v-277h-26v275q0 96 -38.5 142t-118.5 46q-84 0 -130 -48t-46 -136v-279h-25v478h25v-98q43 108 177 108zM230 -202l31 148h27l-34 -148h-24z" />
    <glyph glyph-name="Ncaron" unicode="&#x147;" horiz-adv-x="650" 
d="M480 883l-135 -120h-37l-135 120h38l116 -102l115 102h38zM76 0v706h34l438 -668v668h27v-706h-35l-437 668v-668h-27z" />
    <glyph glyph-name="ncaron" unicode="&#x148;" horiz-adv-x="519" 
d="M280 551h-36l-113 155h32l99 -137l99 137h32zM272 488q182 0 182 -211v-277h-26v275q0 96 -38.5 142t-118.5 46q-84 0 -130 -48t-46 -136v-279h-25v478h25v-98q43 108 177 108z" />
    <glyph glyph-name="napostrophe" unicode="&#x149;" horiz-adv-x="633" 
d="M53 423l70 283h28l-75 -283h-23zM386 488q181 0 181 -211v-277h-25v275q0 96 -38.5 142t-119.5 46q-83 0 -129 -48t-46 -136v-279h-26v478h26v-98q43 108 177 108z" />
    <glyph glyph-name="Eng" unicode="&#x14a;" horiz-adv-x="650" 
d="M548 706h27v-799q0 -58 -24.5 -84.5t-77.5 -26.5q-11 0 -39 2v27q20 -3 33 -3q43 0 62 21t19 68v87l-445 669v-667h-27v706h34l438 -657v657z" />
    <glyph glyph-name="eng" unicode="&#x14b;" horiz-adv-x="519" 
d="M273 488q92 0 136.5 -51.5t44.5 -157.5v-370q0 -59 -25 -86t-80 -27q-23 0 -35 2v25q12 -2 35 -2q42 0 60.5 20.5t18.5 67.5v366q0 97 -38.5 142.5t-119.5 45.5q-83 0 -129 -48t-46 -136v-279h-25v478h25v-98q43 108 178 108z" />
    <glyph glyph-name="Omacron" unicode="&#x14c;" horiz-adv-x="743" 
d="M227 810v25h288v-25h-288zM371 -15q-204 0 -279 164q-38 83 -38 204t38 204q75 164 279 164q205 0 280 -164q37 -84 37 -204t-37 -204q-75 -164 -280 -164zM371 13q187 0 254 148q35 76 35 192t-35 192q-67 148 -254 148t-253 -148q-35 -76 -35 -192t35 -192
q66 -148 253 -148z" />
    <glyph glyph-name="omacron" unicode="&#x14d;" horiz-adv-x="527" 
d="M123 606v25h281v-25h-281zM264 -11q-72 0 -122.5 32.5t-76.5 88.5q-25 56 -25 129q0 74 25 128q26 56 76.5 88.5t122.5 32.5t122.5 -32.5t75.5 -88.5q26 -57 26 -128t-26 -129q-25 -56 -75.5 -88.5t-122.5 -32.5zM264 15q127 0 174 105q23 52 23 119t-23 119
q-47 105 -174 105t-175 -105q-23 -52 -23 -119t23 -119q48 -105 175 -105z" />
    <glyph glyph-name="Obreve" unicode="&#x14e;" horiz-adv-x="743" 
d="M371 759q-127 0 -133 123h25q7 -100 108 -100q53 0 79 24.5t30 75.5h25q-6 -123 -134 -123zM371 -15q-204 0 -279 164q-38 83 -38 204t38 204q75 164 279 164q205 0 280 -164q37 -84 37 -204t-37 -204q-75 -164 -280 -164zM371 13q187 0 254 148q35 76 35 192t-35 192
q-67 148 -254 148t-253 -148q-35 -76 -35 -192t35 -192q66 -148 253 -148z" />
    <glyph glyph-name="obreve" unicode="&#x14f;" horiz-adv-x="527" 
d="M264 551q-70 0 -100.5 38t-33.5 118h25q3 -70 27 -102t82 -32t81.5 32t27.5 102h25q-4 -80 -34 -118t-100 -38zM264 -11q-72 0 -122.5 32.5t-76.5 88.5q-25 56 -25 129q0 74 25 128q26 56 76.5 88.5t122.5 32.5t122.5 -32.5t75.5 -88.5q26 -57 26 -128t-26 -129
q-25 -56 -75.5 -88.5t-122.5 -32.5zM264 15q127 0 174 105q23 52 23 119t-23 119q-47 105 -174 105t-175 -105q-23 -52 -23 -119t23 -119q48 -105 175 -105z" />
    <glyph glyph-name="Ohungarumlaut" unicode="&#x150;" horiz-adv-x="743" 
d="M277 763l130 120h37l-133 -120h-34zM405 763l129 120h37l-133 -120h-33zM371 -15q-204 0 -279 164q-38 83 -38 204t38 204q75 164 279 164q205 0 280 -164q37 -84 37 -204t-37 -204q-75 -164 -280 -164zM371 13q187 0 254 148q35 76 35 192t-35 192q-67 148 -254 148
t-253 -148q-35 -76 -35 -192t35 -192q66 -148 253 -148z" />
    <glyph glyph-name="ohungarumlaut" unicode="&#x151;" horiz-adv-x="527" 
d="M169 553l120 154h33l-124 -154h-29zM299 553l120 154h32l-123 -154h-29zM264 -11q-72 0 -122.5 32.5t-76.5 88.5q-25 56 -25 129q0 74 25 128q26 56 76.5 88.5t122.5 32.5t122.5 -32.5t75.5 -88.5q26 -57 26 -128t-26 -129q-25 -56 -75.5 -88.5t-122.5 -32.5zM264 15
q127 0 174 105q23 52 23 119t-23 119q-47 105 -174 105t-175 -105q-23 -52 -23 -119t23 -119q48 -105 175 -105z" />
    <glyph glyph-name="OE" unicode="&#x152;" horiz-adv-x="1058" 
d="M1009 680h-363v-306h360v-26h-360v-322h363v-26h-391v176q-4 -13 -14 -37q-70 -154 -253 -154q-187 0 -258 158q-39 84 -39 210q0 128 39 210q71 158 258 158q183 0 253 -154q10 -24 14 -37v176h391v-26zM583 153q36 79 36 200t-36 200q-64 140 -232 140
q-170 0 -232 -141q-36 -79 -36 -199q0 -121 36 -199q62 -141 232 -141q169 0 232 140z" />
    <glyph glyph-name="oe" unicode="&#x153;" horiz-adv-x="892" 
d="M790 79q31 39 34 93h27q-6 -64 -39 -106q-51 -77 -163 -77q-137 0 -189 116q-7 16 -14 41q-6 -23 -15 -43q-23 -53 -69.5 -83t-111.5 -30q-66 0 -113 31t-71 85q-26 56 -26 133q0 78 26 133q52 116 184 116q65 0 111.5 -30t70.5 -84q10 -21 14 -42q7 25 15 43
q52 113 184 113q131 0 183 -110q23 -54 25 -137h-394v-2q0 -69 23 -121q46 -103 167 -103q98 0 141 64zM407 112q25 53 25 127q0 73 -25 126q-44 98 -157 98q-116 0 -160 -100q-24 -53 -24 -124q0 -70 24 -124q45 -100 160 -100q114 0 157 97zM483 367q-20 -43 -23 -102h366
q-3 63 -22 105q-44 93 -159 93q-118 0 -162 -96z" />
    <glyph glyph-name="Racute" unicode="&#x154;" horiz-adv-x="577" 
d="M404 883l-143 -120h-37l141 120h39zM535 0l-286 348h-146v-348h-27v706h232q166 0 210 -98q15 -34 15 -81q0 -46 -15 -82q-44 -97 -209 -97h-24l286 -348h-36zM103 680v-306h205q147 0 183 82q13 29 13 70q0 43 -13 72q-36 82 -183 82h-205z" />
    <glyph glyph-name="racute" unicode="&#x155;" horiz-adv-x="292" 
d="M252 707l-105 -154h-30l103 154h32zM229 483q24 0 47 -5v-26q-20 6 -47 6q-66 0 -100 -38.5t-34 -105.5v-314h-25v478h25v-76q32 81 134 81z" />
    <glyph glyph-name="uni0156" unicode="&#x156;" horiz-adv-x="577" 
d="M285 348l286 -348h-36l-286 348h-146v-348h-27v706h232q166 0 210 -98q15 -34 15 -81q0 -46 -15 -82q-44 -97 -209 -97h-24zM103 680v-306h205q147 0 183 82q13 29 13 70q0 43 -13 72q-36 82 -183 82h-205zM267 -202l31 148h27l-34 -148h-24z" />
    <glyph glyph-name="uni0157" unicode="&#x157;" horiz-adv-x="292" 
d="M229 483q24 0 47 -5v-26q-20 6 -47 6q-66 0 -100 -38.5t-34 -105.5v-314h-25v478h25v-76q32 81 134 81zM40 -202l31 148h27l-34 -148h-24z" />
    <glyph glyph-name="Rcaron" unicode="&#x158;" horiz-adv-x="577" 
d="M306 763h-37l-135 120h38l116 -102l115 102h38zM535 0l-286 348h-146v-348h-27v706h232q166 0 210 -98q15 -34 15 -81q0 -46 -15 -82q-44 -97 -209 -97h-24l286 -348h-36zM103 680v-306h205q147 0 183 82q13 29 13 70q0 43 -13 72q-36 82 -183 82h-205z" />
    <glyph glyph-name="rcaron" unicode="&#x159;" horiz-adv-x="292" 
d="M187 551h-36l-113 155h32l99 -137l99 137h32zM95 402q32 81 134 81q24 0 47 -5v-26q-20 6 -47 6q-66 0 -100 -38.5t-34 -105.5v-314h-25v478h25v-76z" />
    <glyph glyph-name="Sacute" unicode="&#x15a;" horiz-adv-x="621" 
d="M247 763l141 120h40l-144 -120h-37zM316 -15q-185 0 -241 124q-24 54 -24 133h28q0 -70 21 -120q50 -110 216 -110q81 0 135.5 26.5t76.5 75.5q13 29 13 67q0 34 -11 59q-20 45 -72.5 67t-147.5 42q-96 20 -151.5 45t-77.5 73q-13 29 -13 67q0 40 15 75q23 51 79.5 81.5
t136.5 30.5q163 0 217 -120q23 -52 23 -124h-28q0 66 -20 112q-46 105 -192 105q-72 0 -121 -26.5t-69 -71.5q-12 -27 -12 -61q0 -33 10 -56q8 -19 25.5 -34t33 -24t49.5 -19t51 -14t61 -14q48 -11 76.5 -19.5t63.5 -22.5t56.5 -33.5t33.5 -46.5q13 -31 13 -71
q0 -43 -17 -80q-24 -55 -85.5 -85.5t-151.5 -30.5z" />
    <glyph glyph-name="sacute" unicode="&#x15b;" horiz-adv-x="443" 
d="M174 553l103 154h32l-105 -154h-30zM223 -10q-130 0 -169 88q-16 35 -16 84h26q0 -42 13 -71q33 -76 146 -76q116 0 146 67q9 20 9 44q0 19 -7 38q-9 21 -35 35.5t-48 20.5t-66 15q-64 13 -103 31t-54 52q-8 19 -8 46q0 28 10 51q32 73 148 73q119 0 155 -80
q14 -29 14 -74h-26q0 36 -12 62q-30 67 -131 67q-97 0 -123 -59q-8 -16 -8 -40q0 -22 6 -34q7 -15 20.5 -26.5t36.5 -19.5t40 -12.5t50 -11.5q66 -15 104.5 -32.5t53.5 -51.5q10 -21 10 -50q0 -31 -12 -55q-37 -81 -170 -81z" />
    <glyph glyph-name="Scircumflex" unicode="&#x15c;" horiz-adv-x="621" 
d="M158 763l135 120h37l135 -120h-38l-116 102l-115 -102h-38zM316 -15q-185 0 -241 124q-24 54 -24 133h28q0 -70 21 -120q50 -110 216 -110q81 0 135.5 26.5t76.5 75.5q13 29 13 67q0 34 -11 59q-20 45 -72.5 67t-147.5 42q-96 20 -151.5 45t-77.5 73q-13 29 -13 67
q0 40 15 75q23 51 79.5 81.5t136.5 30.5q163 0 217 -120q23 -52 23 -124h-28q0 66 -20 112q-46 105 -192 105q-72 0 -121 -26.5t-69 -71.5q-12 -27 -12 -61q0 -33 10 -56q8 -19 25.5 -34t33 -24t49.5 -19t51 -14t61 -14q48 -11 76.5 -19.5t63.5 -22.5t56.5 -33.5t33.5 -46.5
q13 -31 13 -71q0 -43 -17 -80q-24 -55 -85.5 -85.5t-151.5 -30.5z" />
    <glyph glyph-name="scircumflex" unicode="&#x15d;" horiz-adv-x="443" 
d="M95 552l113 155h36l113 -155h-32l-99 137l-99 -137h-32zM223 -10q-130 0 -169 88q-16 35 -16 84h26q0 -42 13 -71q33 -76 146 -76q116 0 146 67q9 20 9 44q0 19 -7 38q-9 21 -35 35.5t-48 20.5t-66 15q-64 13 -103 31t-54 52q-8 19 -8 46q0 28 10 51q32 73 148 73
q119 0 155 -80q14 -29 14 -74h-26q0 36 -12 62q-30 67 -131 67q-97 0 -123 -59q-8 -16 -8 -40q0 -22 6 -34q7 -15 20.5 -26.5t36.5 -19.5t40 -12.5t50 -11.5q66 -15 104.5 -32.5t53.5 -51.5q10 -21 10 -50q0 -31 -12 -55q-37 -81 -170 -81z" />
    <glyph glyph-name="Scedilla" unicode="&#x15e;" horiz-adv-x="621" 
d="M557 252q13 -31 13 -71q0 -43 -17 -80q-23 -54 -82.5 -84.5t-147.5 -31.5l-22 -60h19q97 0 97 -70q0 -74 -98 -74q-38 0 -68 10l5 23q27 -10 62 -10q74 0 74 51q0 49 -78 49h-45l29 81q-170 6 -223 124q-24 54 -24 133h28q0 -70 21 -120q50 -110 216 -110
q81 0 135.5 26.5t76.5 75.5q13 29 13 67q0 34 -11 59q-20 45 -72.5 67t-147.5 42q-96 20 -151.5 45t-77.5 73q-13 29 -13 67q0 40 15 75q23 51 79.5 81.5t136.5 30.5q163 0 217 -120q23 -52 23 -124h-28q0 66 -20 112q-46 105 -192 105q-72 0 -121 -26.5t-69 -71.5
q-12 -27 -12 -61q0 -33 10 -56q8 -19 25.5 -34t33 -24t49.5 -19t51 -14t61 -14q48 -11 76.5 -19.5t63.5 -22.5t56.5 -33.5t33.5 -46.5z" />
    <glyph glyph-name="scedilla" unicode="&#x15f;" horiz-adv-x="443" 
d="M395 176q10 -21 10 -50q0 -31 -12 -55q-34 -75 -154 -81l-23 -61h18q98 0 98 -71q0 -74 -98 -74q-39 0 -68 11l5 23q27 -10 62 -10q74 0 74 50t-78 50h-45l30 82q-122 3 -160 88q-16 35 -16 84h26q0 -42 13 -71q33 -76 146 -76q116 0 146 67q9 20 9 44q0 19 -7 38
q-9 21 -35 35.5t-48 20.5t-66 15q-64 13 -103 31t-54 52q-8 19 -8 46q0 28 10 51q32 73 148 73q119 0 155 -80q14 -29 14 -74h-26q0 36 -12 62q-30 67 -131 67q-97 0 -123 -59q-8 -16 -8 -40q0 -22 6 -34q7 -15 20.5 -26.5t36.5 -19.5t40 -12.5t50 -11.5q66 -15 104.5 -32.5
t53.5 -51.5z" />
    <glyph glyph-name="Scaron" unicode="&#x160;" horiz-adv-x="621" 
d="M458 883l-135 -120h-37l-135 120h38l116 -102l115 102h38zM316 -15q-185 0 -241 124q-24 54 -24 133h28q0 -70 21 -120q50 -110 216 -110q81 0 135.5 26.5t76.5 75.5q13 29 13 67q0 34 -11 59q-20 45 -72.5 67t-147.5 42q-96 20 -151.5 45t-77.5 73q-13 29 -13 67
q0 40 15 75q23 51 79.5 81.5t136.5 30.5q163 0 217 -120q23 -52 23 -124h-28q0 66 -20 112q-46 105 -192 105q-72 0 -121 -26.5t-69 -71.5q-12 -27 -12 -61q0 -33 10 -56q8 -19 25.5 -34t33 -24t49.5 -19t51 -14t61 -14q48 -11 76.5 -19.5t63.5 -22.5t56.5 -33.5t33.5 -46.5
q13 -31 13 -71q0 -43 -17 -80q-24 -55 -85.5 -85.5t-151.5 -30.5z" />
    <glyph glyph-name="scaron" unicode="&#x161;" horiz-adv-x="443" 
d="M357 706l-113 -155h-36l-113 155h32l99 -137l99 137h32zM223 -10q-130 0 -169 88q-16 35 -16 84h26q0 -42 13 -71q33 -76 146 -76q116 0 146 67q9 20 9 44q0 19 -7 38q-9 21 -35 35.5t-48 20.5t-66 15q-64 13 -103 31t-54 52q-8 19 -8 46q0 28 10 51q32 73 148 73
q119 0 155 -80q14 -29 14 -74h-26q0 36 -12 62q-30 67 -131 67q-97 0 -123 -59q-8 -16 -8 -40q0 -22 6 -34q7 -15 20.5 -26.5t36.5 -19.5t40 -12.5t50 -11.5q66 -15 104.5 -32.5t53.5 -51.5q10 -21 10 -50q0 -31 -12 -55q-37 -81 -170 -81z" />
    <glyph glyph-name="uni0162" unicode="&#x162;" horiz-adv-x="458" 
d="M243 0h-2l-24 -66h18q98 0 98 -71q0 -74 -98 -74q-39 0 -68 11l5 23q27 -10 62 -10q74 0 74 50t-78 50h-45l31 87h-1v680h-205v26h437v-26h-204v-680z" />
    <glyph glyph-name="uni0163" unicode="&#x163;" horiz-adv-x="328" 
d="M213 -68q98 0 98 -71q0 -74 -98 -74q-39 0 -68 11l5 23q27 -10 62 -10q74 0 74 50t-78 50h-45l31 86q-86 18 -86 133v323h-90v25h90v117h26v-117h172v-25h-172v-323q0 -112 99 -112q37 0 69 9v-25q-32 -9 -70 -9h-14l-23 -61h18z" />
    <glyph glyph-name="Tcaron" unicode="&#x164;" horiz-adv-x="458" 
d="M382 883l-135 -120h-37l-135 120h38l116 -102l115 102h38zM215 0v680h-205v26h437v-26h-204v-680h-28z" />
    <glyph glyph-name="tcaron" unicode="&#x165;" horiz-adv-x="335" 
d="M200 542l36 164h26l-38 -164h-24zM232 -7q-124 0 -124 137v323h-90v25h90v117h26v-117h172v-25h-172v-323q0 -112 99 -112q37 0 69 9v-25q-32 -9 -70 -9z" />
    <glyph glyph-name="Tbar" unicode="&#x166;" horiz-adv-x="458" 
d="M447 680h-204v-238h151v-25h-151v-417h-28v417h-151v25h151v238h-205v26h437v-26z" />
    <glyph glyph-name="tbar" unicode="&#x167;" horiz-adv-x="328" 
d="M306 453h-172v-168h172v-24h-172v-131q0 -112 99 -112q37 0 69 9v-25q-32 -9 -70 -9q-124 0 -124 137v131h-92v24h92v168h-90v25h90v117h26v-117h172v-25z" />
    <glyph glyph-name="Utilde" unicode="&#x168;" horiz-adv-x="607" 
d="M385 759q-29 0 -47.5 13t-42.5 40q-15 18 -20.5 24.5t-20 15t-31.5 8.5q-62 0 -70 -97h-25q7 121 95 121q28 0 48 -13t41 -39q15 -17 21.5 -24.5t21 -15.5t30.5 -8q63 0 69 97h26q-9 -122 -95 -122zM304 -15q-120 0 -176.5 55t-56.5 171v495h27v-495q0 -103 49 -150.5
t157 -47.5q107 0 156 47.5t49 150.5v495h27v-495q0 -116 -56 -171t-176 -55z" />
    <glyph glyph-name="utilde" unicode="&#x169;" horiz-adv-x="519" 
d="M182 686q-30 0 -43 -33t-15 -101h-25q2 80 20.5 118.5t61.5 38.5q28 0 46 -16t38 -56q12 -24 19 -34.5t19 -20.5t27 -10q31 0 43.5 32.5t14.5 101.5h25q-2 -80 -21 -118.5t-62 -38.5q-27 0 -45 16t-38 55q-12 24 -19 35t-19 21t-27 10zM424 478h25v-478h-25v98
q-43 -108 -177 -108q-182 0 -182 211v277h26v-275q0 -96 38.5 -142t118.5 -46q84 0 130 48t46 136v279z" />
    <glyph glyph-name="Umacron" unicode="&#x16a;" horiz-adv-x="607" 
d="M160 810v25h288v-25h-288zM304 -15q-120 0 -176.5 55t-56.5 171v495h27v-495q0 -103 49 -150.5t157 -47.5q107 0 156 47.5t49 150.5v495h27v-495q0 -116 -56 -171t-176 -55z" />
    <glyph glyph-name="umacron" unicode="&#x16b;" horiz-adv-x="519" 
d="M396 631v-25h-281v25h281zM424 478h25v-478h-25v98q-43 -108 -177 -108q-182 0 -182 211v277h26v-275q0 -96 38.5 -142t118.5 -46q84 0 130 48t46 136v279z" />
    <glyph glyph-name="Ubreve" unicode="&#x16c;" horiz-adv-x="607" 
d="M304 759q-127 0 -133 123h25q7 -100 108 -100q53 0 79 24.5t30 75.5h25q-6 -123 -134 -123zM304 -15q-120 0 -176.5 55t-56.5 171v495h27v-495q0 -103 49 -150.5t157 -47.5q107 0 156 47.5t49 150.5v495h27v-495q0 -116 -56 -171t-176 -55z" />
    <glyph glyph-name="ubreve" unicode="&#x16d;" horiz-adv-x="519" 
d="M256 551q-70 0 -100.5 38t-33.5 118h25q3 -70 27 -102t82 -32t81.5 32t27.5 102h25q-4 -80 -34 -118t-100 -38zM424 478h25v-478h-25v98q-43 -108 -177 -108q-182 0 -182 211v277h26v-275q0 -96 38.5 -142t118.5 -46q84 0 130 48t46 136v279z" />
    <glyph glyph-name="Uring" unicode="&#x16e;" horiz-adv-x="607" 
d="M304 731q-42 0 -67 24.5t-25 65.5t25 65.5t67 24.5t67.5 -25t25.5 -65q0 -41 -25.5 -65.5t-67.5 -24.5zM304 753q32 0 50.5 18.5t18.5 49.5t-19 49.5t-50 18.5q-32 0 -50.5 -18.5t-18.5 -49.5t18.5 -49.5t50.5 -18.5zM304 -15q-120 0 -176.5 55t-56.5 171v495h27v-495
q0 -103 49 -150.5t157 -47.5q107 0 156 47.5t49 150.5v495h27v-495q0 -116 -56 -171t-176 -55z" />
    <glyph glyph-name="uring" unicode="&#x16f;" horiz-adv-x="519" 
d="M256 541q-42 0 -67 24.5t-25 65.5t25 65.5t67 24.5t67.5 -25t25.5 -65q0 -41 -25.5 -65.5t-67.5 -24.5zM256 699q-32 0 -50.5 -18.5t-18.5 -49.5t18.5 -49.5t50.5 -18.5t50.5 18.5t18.5 49.5t-19 49.5t-50 18.5zM424 478h25v-478h-25v98q-43 -108 -177 -108
q-182 0 -182 211v277h26v-275q0 -96 38.5 -142t118.5 -46q84 0 130 48t46 136v279z" />
    <glyph glyph-name="Uhungarumlaut" unicode="&#x170;" horiz-adv-x="607" 
d="M210 763l130 120h37l-133 -120h-34zM338 763l129 120h37l-133 -120h-33zM304 -15q-120 0 -176.5 55t-56.5 171v495h27v-495q0 -103 49 -150.5t157 -47.5q107 0 156 47.5t49 150.5v495h27v-495q0 -116 -56 -171t-176 -55z" />
    <glyph glyph-name="uhungarumlaut" unicode="&#x171;" horiz-adv-x="519" 
d="M315 707l-124 -154h-29l120 154h33zM321 553h-29l120 154h32zM424 478h25v-478h-25v98q-43 -108 -177 -108q-182 0 -182 211v277h26v-275q0 -96 38.5 -142t118.5 -46q84 0 130 48t46 136v279z" />
    <glyph glyph-name="Uogonek" unicode="&#x172;" horiz-adv-x="607" 
d="M509 706h27v-495q0 -73 -21.5 -118t-65.5 -83q-53 -47 -75 -76.5t-22 -60.5q0 -29 16 -44t43 -15t53 10v-25q-22 -9 -53 -9q-39 0 -61.5 21.5t-22.5 60.5q0 33 18.5 61.5t58.5 64.5q-40 -13 -100 -13q-120 0 -176.5 55t-56.5 171v495h27v-495q0 -103 49 -150.5t157 -47.5
q107 0 156 47.5t49 150.5v495z" />
    <glyph glyph-name="uogonek" unicode="&#x173;" horiz-adv-x="519" 
d="M412 -186q28 0 52 10v-25q-22 -9 -52 -9q-39 0 -62 20.5t-23 56.5q0 35 23 65t74 73v93q-43 -108 -177 -108q-182 0 -182 211v277h26v-275q0 -96 38.5 -142t118.5 -46q84 0 130 48t46 136v279h25v-477l1 -1q-53 -45 -75 -73.5t-22 -59.5q0 -53 59 -53z" />
    <glyph glyph-name="Wcircumflex" unicode="&#x174;" horiz-adv-x="891" 
d="M445 865l-115 -102h-38l135 120h37l135 -120h-38zM858 706h27l-212 -706h-31l-197 670l-197 -670h-30l-213 706h28l200 -667l196 667h33l195 -664z" />
    <glyph glyph-name="wcircumflex" unicode="&#x175;" horiz-adv-x="699" 
d="M351 689l-99 -137h-32l113 155h36l113 -155h-32zM656 478h28l-170 -478h-28l-135 444l-136 -444h-27l-173 478h28l158 -447l137 447h27l136 -445z" />
    <glyph glyph-name="Ycircumflex" unicode="&#x176;" horiz-adv-x="540" 
d="M118 763l135 120h37l135 -120h-38l-116 102l-115 -102h-38zM257 0v305l-252 401h33l233 -373l231 373h33l-250 -401v-305h-28z" />
    <glyph glyph-name="ycircumflex" unicode="&#x177;" horiz-adv-x="474" 
d="M239 689l-99 -137h-32l113 155h36l113 -155h-32zM431 478h28l-219 -478l-93 -202h-29l95 204l-198 476h29l183 -444z" />
    <glyph glyph-name="Ydieresis" unicode="&#x178;" horiz-adv-x="540" 
d="M166 796q-27 0 -27 26q0 11 7.5 18.5t19.5 7.5q11 0 18.5 -7.5t7.5 -18.5q0 -12 -7.5 -19t-18.5 -7zM375 796q-27 0 -27 26q0 11 7.5 18.5t19.5 7.5q11 0 18.5 -7.5t7.5 -18.5q0 -12 -7.5 -19t-18.5 -7zM257 0v305l-252 401h33l233 -373l231 373h33l-250 -401v-305h-28z
" />
    <glyph glyph-name="Zacute" unicode="&#x179;" horiz-adv-x="570" 
d="M215 763l141 120h39l-143 -120h-37zM21 0l456 680h-439v26h489l-455 -680h468v-26h-519z" />
    <glyph glyph-name="zacute" unicode="&#x17a;" horiz-adv-x="421" 
d="M301 707l-105 -154h-30l103 154h32zM60 24h348v-24h-398l344 453h-315v25h366z" />
    <glyph glyph-name="Zdotaccent" unicode="&#x17b;" horiz-adv-x="570" 
d="M279 796q-12 0 -19.5 7.5t-7.5 18.5t7.5 18.5t19.5 7.5q11 0 18.5 -7.5t7.5 -18.5t-7.5 -18.5t-18.5 -7.5zM21 0l456 680h-439v26h489l-455 -680h468v-26h-519z" />
    <glyph glyph-name="zdotaccent" unicode="&#x17c;" horiz-adv-x="421" 
d="M218 592q-12 0 -19.5 7.5t-7.5 18.5t7.5 18.5t19.5 7.5q11 0 18.5 -7.5t7.5 -18.5t-7.5 -18.5t-18.5 -7.5zM60 24h348v-24h-398l344 453h-315v25h366z" />
    <glyph glyph-name="Zcaron" unicode="&#x17d;" horiz-adv-x="570" 
d="M432 883l-135 -120h-37l-135 120h38l116 -102l115 102h38zM21 0l456 680h-439v26h489l-455 -680h468v-26h-519z" />
    <glyph glyph-name="zcaron" unicode="&#x17e;" horiz-adv-x="421" 
d="M236 551h-36l-113 155h32l99 -137l99 137h32zM60 24h348v-24h-398l344 453h-315v25h366z" />
    <glyph glyph-name="uni018F" unicode="&#x18f;" horiz-adv-x="727" 
d="M636 554q36 -79 36 -201q0 -121 -36 -201q-75 -167 -281 -167q-200 0 -268 151q-33 74 -33 180v36h589v1q0 117 -34 191q-65 149 -258 149q-124 0 -190 -60q-62 -55 -71 -163h-28q8 118 79 183q76 68 210 68q210 0 285 -167zM609 162q29 66 34 164h-561v-17
q0 -99 29 -161q60 -135 243 -135q189 0 255 149z" />
    <glyph glyph-name="florin" unicode="&#x192;" horiz-adv-x="369" 
d="M70 -5q-28 0 -51 5v24q23 -5 50 -5q103 0 103 113v271h-151v24h151v148q0 137 126 137q31 0 52 -5v-24q-28 5 -51 5q-102 0 -102 -113v-148h151v-24h-151v-271q0 -137 -127 -137z" />
    <glyph glyph-name="Aringacute" unicode="&#x1fa;" horiz-adv-x="591" 
d="M412 1088l-143 -120h-37l141 120h39zM295 731q-42 0 -67 24.5t-25 65.5t25 65.5t67 24.5t67.5 -25t25.5 -65q0 -41 -25.5 -65.5t-67.5 -24.5zM295 889q-32 0 -50.5 -18.5t-18.5 -49.5t18.5 -49.5t50.5 -18.5t50.5 18.5t18.5 49.5t-19 49.5t-50 18.5zM556 0l-83 217h-356
l-82 -217h-30l270 706h41l270 -706h-30zM127 243h336l-167 440h-2z" />
    <glyph glyph-name="aringacute" unicode="&#x1fb;" horiz-adv-x="510" 
d="M343 950l-105 -154h-30l103 154h32zM260 541q-42 0 -67 24.5t-25 65.5t25 65.5t67 24.5t67.5 -25t25.5 -65q0 -41 -25.5 -65.5t-67.5 -24.5zM260 699q-32 0 -50.5 -18.5t-18.5 -49.5t18.5 -49.5t50.5 -18.5t50.5 18.5t18.5 49.5t-19 49.5t-50 18.5zM425 399
q19 -44 19 -112v-287h-25v107q-47 -118 -201 -118q-123 0 -159 79q-12 27 -12 61q0 29 12 56q36 80 215 80h145v23q0 63 -16 99q-34 76 -150 76q-118 0 -149 -71q-12 -26 -12 -60h-26q0 38 15 71q38 85 172 85q133 0 172 -89zM220 14q134 0 178 98q21 45 21 123v6h-143
q-162 0 -193 -68q-9 -18 -9 -44q0 -25 10 -48q30 -67 136 -67z" />
    <glyph glyph-name="AEacute" unicode="&#x1fc;" horiz-adv-x="766" 
d="M554 883l-143 -120h-37l141 120h39zM717 680h-347l43 -306h301v-26h-298l45 -322h256v-26h-280l-30 218h-275l-97 -218h-30l318 706h394v-26zM144 244h259l-61 439h-2z" />
    <glyph glyph-name="aeacute" unicode="&#x1fd;" horiz-adv-x="878" 
d="M532 707l-105 -154h-30l103 154h32zM761 57q44 40 49 115h27q-8 -87 -59 -134q-54 -49 -143 -49q-137 0 -188 116q-7 16 -14 41q-34 -157 -216 -157q-123 0 -158 79q-12 26 -12 60q0 32 11 57q37 81 216 81h145v24q0 61 -16 97q-34 76 -150 76q-118 0 -149 -71
q-12 -26 -12 -60h-26q0 38 15 71q38 85 172 85q133 0 172 -89q8 -19 13 -47l9 23q52 113 184 113q131 0 183 -110q23 -54 25 -136h-394v-3q0 -69 23 -121q46 -103 168 -103q78 0 125 42zM469 367q-20 -41 -23 -101h366q-3 62 -22 104q-44 93 -159 93q-118 0 -162 -96z
M419 236v6h-143q-162 0 -193 -69q-9 -19 -9 -44t10 -48q30 -67 136 -67q134 0 178 98q21 46 21 124z" />
    <glyph glyph-name="Oslashacute" unicode="&#x1fe;" horiz-adv-x="743" 
d="M487 883l-143 -120h-37l141 120h39zM614 618q22 -28 37 -61q37 -84 37 -204t-37 -204q-75 -164 -280 -164q-144 0 -225 83l-57 -68h-36l75 89q-21 27 -36 60q-38 83 -38 204t38 204q75 164 279 164q145 0 226 -84l57 69h35zM83 353q0 -116 35 -192q12 -27 29 -50l430 506
q-73 76 -206 76q-187 0 -253 -148q-35 -76 -35 -192zM625 161q35 76 35 192t-35 192q-10 24 -31 52l-429 -507q74 -77 206 -77q187 0 254 148z" />
    <glyph glyph-name="oslashacute" unicode="&#x1ff;" horiz-adv-x="527" 
d="M347 707l-105 -154h-30l103 154h32zM462 367q26 -57 26 -128t-26 -129q-25 -56 -75.5 -88.5t-122.5 -32.5q-90 0 -149 52l-35 -41h-32l50 58q-20 25 -33 52q-25 56 -25 129q0 74 25 128q26 56 76.5 88.5t122.5 32.5q89 0 148 -51l34 41h32l-49 -59q18 -21 33 -52zM66 239
q0 -67 23 -119q12 -25 26 -42l281 339q-51 46 -132 46q-127 0 -175 -105q-23 -52 -23 -119zM438 120q23 52 23 119t-23 119q-12 25 -25 41l-282 -338q51 -46 133 -46q127 0 174 105z" />
    <glyph glyph-name="uni0218" unicode="&#x218;" horiz-adv-x="621" 
d="M316 -15q-185 0 -241 124q-24 54 -24 133h28q0 -70 21 -120q50 -110 216 -110q81 0 135.5 26.5t76.5 75.5q13 29 13 67q0 34 -11 59q-20 45 -72.5 67t-147.5 42q-96 20 -151.5 45t-77.5 73q-13 29 -13 67q0 40 15 75q23 51 79.5 81.5t136.5 30.5q163 0 217 -120
q23 -52 23 -124h-28q0 66 -20 112q-46 105 -192 105q-72 0 -121 -26.5t-69 -71.5q-12 -27 -12 -61q0 -33 10 -56q8 -19 25.5 -34t33 -24t49.5 -19t51 -14t61 -14q48 -11 76.5 -19.5t63.5 -22.5t56.5 -33.5t33.5 -46.5q13 -31 13 -71q0 -43 -17 -80q-24 -55 -85.5 -85.5
t-151.5 -30.5zM277 -210l31 148h26l-33 -148h-24z" />
    <glyph glyph-name="uni0219" unicode="&#x219;" horiz-adv-x="443" 
d="M223 -10q-130 0 -169 88q-16 35 -16 84h26q0 -42 13 -71q33 -76 146 -76q116 0 146 67q9 20 9 44q0 19 -7 38q-9 21 -35 35.5t-48 20.5t-66 15q-64 13 -103 31t-54 52q-8 19 -8 46q0 28 10 51q32 73 148 73q119 0 155 -80q14 -29 14 -74h-26q0 36 -12 62q-30 67 -131 67
q-97 0 -123 -59q-8 -16 -8 -40q0 -22 6 -34q7 -15 20.5 -26.5t36.5 -19.5t40 -12.5t50 -11.5q66 -15 104.5 -32.5t53.5 -51.5q10 -21 10 -50q0 -31 -12 -55q-37 -81 -170 -81zM186 -207l31 148h27l-34 -148h-24z" />
    <glyph glyph-name="uni021A" unicode="&#x21a;" horiz-adv-x="458" 
d="M215 0v680h-205v26h437v-26h-204v-680h-28zM186 -202l31 148h27l-34 -148h-24z" />
    <glyph glyph-name="uni021B" unicode="&#x21b;" horiz-adv-x="328" 
d="M232 -7q-124 0 -124 137v323h-90v25h90v117h26v-117h172v-25h-172v-323q0 -112 99 -112q37 0 69 9v-25q-32 -9 -70 -9zM165 -204l31 148h27l-34 -148h-24z" />
    <glyph glyph-name="uni0237" unicode="&#x237;" horiz-adv-x="166" 
d="M-9 -204q-21 0 -36 2v25q16 -2 36 -2q42 0 60.5 20t18.5 68v569h26v-569q0 -59 -25 -86t-80 -27z" />
    <glyph glyph-name="uni0259" unicode="&#x259;" horiz-adv-x="529" 
d="M465 367q24 -54 24 -128q0 -75 -25 -129q-25 -57 -77.5 -88.5t-125.5 -31.5q-145 0 -197 115q-23 52 -25 131h424v3q0 65 -22 118q-48 106 -183 106q-90 0 -139 -46q-45 -41 -51 -111h-26q6 80 58 128q60 54 159 54q74 0 127 -32t79 -89zM261 15q133 0 180 106
q18 43 21 91h-396q3 -55 21 -97q44 -100 174 -100z" />
    <glyph glyph-name="circumflex" unicode="&#x2c6;" horiz-adv-x="362" 
d="M50 552l113 155h36l113 -155h-32l-99 137l-99 -137h-32z" />
    <glyph glyph-name="caron" unicode="&#x2c7;" horiz-adv-x="362" 
d="M312 706l-113 -155h-36l-113 155h32l99 -137l99 137h32z" />
    <glyph glyph-name="uni02C9" unicode="&#x2c9;" horiz-adv-x="381" 
d="M50 606v25h281v-25h-281z" />
    <glyph glyph-name="breve" unicode="&#x2d8;" horiz-adv-x="368" 
d="M184 551q-70 0 -100.5 38t-33.5 118h25q3 -70 27 -102t82 -32t81.5 32t27.5 102h25q-4 -80 -34 -118t-100 -38z" />
    <glyph glyph-name="dotaccent" unicode="&#x2d9;" horiz-adv-x="153" 
d="M77 592q-12 0 -19.5 7.5t-7.5 18.5t7.5 18.5t19.5 7.5q11 0 18.5 -7.5t7.5 -18.5t-7.5 -18.5t-18.5 -7.5z" />
    <glyph glyph-name="ring" unicode="&#x2da;" horiz-adv-x="285" 
d="M142 541q-42 0 -67 24.5t-25 65.5t25 65.5t67 24.5t67.5 -25t25.5 -65q0 -41 -25.5 -65.5t-67.5 -24.5zM142 563q32 0 50.5 18.5t18.5 49.5t-19 49.5t-50 18.5q-32 0 -50.5 -18.5t-18.5 -49.5t18.5 -49.5t50.5 -18.5z" />
    <glyph glyph-name="ogonek" unicode="&#x2db;" horiz-adv-x="237" 
d="M135 -210q-39 0 -62 20.5t-23 56.5t24 66.5t79 76.5l20 -10q-53 -45 -75 -73.5t-22 -59.5q0 -53 59 -53q28 0 52 10v-25q-22 -9 -52 -9z" />
    <glyph glyph-name="tilde" unicode="&#x2dc;" horiz-adv-x="414" 
d="M281 549q-27 0 -45 16t-38 55q-12 24 -19 35t-19 21t-27 10q-30 0 -43 -33t-15 -101h-25q2 80 20.5 118.5t61.5 38.5q28 0 46 -16t38 -56q12 -24 19 -34.5t19 -20.5t27 -10q31 0 43.5 32.5t14.5 101.5h25q-2 -80 -21 -118.5t-62 -38.5z" />
    <glyph glyph-name="hungarumlaut" unicode="&#x2dd;" horiz-adv-x="382" 
d="M50 553l120 154h33l-124 -154h-29zM180 553l120 154h32l-123 -154h-29z" />
    <glyph glyph-name="gravecomb" unicode="&#x300;" 
d="M-50 553h-30l-105 154h32z" />
    <glyph glyph-name="acutecomb" unicode="&#x301;" 
d="M-185 553l103 154h32l-105 -154h-30z" />
    <glyph glyph-name="uni0302" unicode="&#x302;" 
d="M-312 552l113 155h36l113 -155h-32l-99 137l-99 -137h-32z" />
    <glyph glyph-name="tildecomb" unicode="&#x303;" 
d="M-133 549q-27 0 -45 16t-38 55q-12 24 -19 35t-19 21t-27 10q-30 0 -43 -33t-15 -101h-25q2 80 20.5 118.5t61.5 38.5q28 0 46 -16t38 -56q12 -24 19 -34.5t19 -20.5t27 -10q31 0 43.5 32.5t14.5 101.5h25q-2 -80 -21 -118.5t-62 -38.5z" />
    <glyph glyph-name="uni0304" unicode="&#x304;" 
d="M-331 606v25h281v-25h-281z" />
    <glyph glyph-name="uni0306" unicode="&#x306;" 
d="M-184 551q-70 0 -100.5 38t-33.5 118h25q3 -70 27 -102t82 -32t81.5 32t27.5 102h25q-4 -80 -34 -118t-100 -38z" />
    <glyph glyph-name="uni0307" unicode="&#x307;" 
d="M-76 592q-12 0 -19.5 7.5t-7.5 18.5t7.5 18.5t19.5 7.5q11 0 18.5 -7.5t7.5 -18.5t-7.5 -18.5t-18.5 -7.5z" />
    <glyph glyph-name="uni0308" unicode="&#x308;" 
d="M-256 592q-12 0 -19.5 7t-7.5 18q0 12 7.5 19.5t19.5 7.5q11 0 18.5 -7.5t7.5 -19.5q0 -11 -7.5 -18t-18.5 -7zM-76 592q-12 0 -19.5 7t-7.5 18q0 12 7.5 19.5t19.5 7.5q11 0 18.5 -7.5t7.5 -19.5q0 -11 -7.5 -18t-18.5 -7z" />
    <glyph glyph-name="uni030A" unicode="&#x30a;" 
d="M-143 541q-42 0 -67 24.5t-25 65.5t25 65.5t67 24.5t67.5 -25t25.5 -65q0 -41 -25.5 -65.5t-67.5 -24.5zM-143 563q32 0 50.5 18.5t18.5 49.5t-19 49.5t-50 18.5q-32 0 -50.5 -18.5t-18.5 -49.5t18.5 -49.5t50.5 -18.5z" />
    <glyph glyph-name="uni030B" unicode="&#x30b;" 
d="M-332 553l120 154h33l-124 -154h-29zM-202 553l120 154h32l-123 -154h-29z" />
    <glyph glyph-name="uni030C" unicode="&#x30c;" 
d="M-50 706l-113 -155h-36l-113 155h32l99 -137l99 137h32z" />
    <glyph glyph-name="uni0312" unicode="&#x312;" 
d="M-50 701l-31 -148h-27l33 148h25z" />
    <glyph glyph-name="uni0326" unicode="&#x326;" 
d="M-108 -202l31 148h27l-34 -148h-24z" />
    <glyph glyph-name="uni0327" unicode="&#x327;" 
d="M-148 -66q98 0 98 -71q0 -74 -98 -74q-39 0 -68 11l5 23q27 -10 62 -10q74 0 74 50t-78 50h-45l32 89h25l-25 -68h18z" />
    <glyph glyph-name="uni0328" unicode="&#x328;" 
d="M-102 -210q-39 0 -62 20.5t-23 56.5t24 66.5t79 76.5l20 -10q-53 -45 -75 -73.5t-22 -59.5q0 -53 59 -53q28 0 52 10v-25q-22 -9 -52 -9z" />
    <glyph glyph-name="uni0335" unicode="&#x335;" 
d="M-340 302v24h290v-24h-290z" />
    <glyph glyph-name="uni0336" unicode="&#x336;" 
d="M-433 619v25h433v-25h-433z" />
    <glyph glyph-name="uni0337" unicode="&#x337;" 
d="M-83 401l83 63v-30l-83 -63v3l-84 -62v29l84 63v-3z" />
    <glyph glyph-name="uni0338" unicode="&#x338;" 
d="M-470 0l59 69l3 4l293 353l2 3l41 49h32l-61 -73l-2 -3l-294 -353l-3 -4l-38 -45h-32z" />
    <glyph glyph-name="uni0394" unicode="&#x394;" horiz-adv-x="591" 
d="M316 706l270 -706h-581l270 706h41zM45 26h501l-250 657h-2z" />
    <glyph glyph-name="uni03A9" unicode="&#x3a9;" horiz-adv-x="702" 
d="M439 127v-101h182v-26h-210v149q134 22 181 130q27 59 27 145q0 77 -26 135q-59 134 -242 134q-182 0 -243 -134q-25 -59 -25 -135q0 -89 26 -145q49 -108 182 -130v-149h-210v26h182v101q-130 29 -180 141q-29 66 -29 155q0 84 28 148q33 72 101.5 111t167.5 39
t167.5 -39t101.5 -111q28 -64 28 -148q0 -89 -29 -155q-50 -112 -180 -141z" />
    <glyph glyph-name="uni03BC" unicode="&#x3bc;" horiz-adv-x="523" 
d="M428 478h26v-478h-26v95q-44 -106 -177 -106q-123 0 -158 101q2 -42 2 -128v-164h-25v680h25v-274q0 -97 39 -143t120 -46q83 0 128.5 48t45.5 136v279z" />
    <glyph glyph-name="pi" unicode="&#x3c0;" horiz-adv-x="705" 
d="M631 -7q-123 0 -123 137v323h-314v-453h-25v453h-113v25h591v-25h-113v-323q0 -112 99 -112h14v-25h-16z" />
    <glyph glyph-name="Wgrave" unicode="&#x1e80;" horiz-adv-x="891" 
d="M509 763h-37l-143 120h39zM858 706h27l-212 -706h-31l-197 670l-197 -670h-30l-213 706h28l200 -667l196 667h33l195 -664z" />
    <glyph glyph-name="wgrave" unicode="&#x1e81;" horiz-adv-x="699" 
d="M403 553h-30l-105 154h32zM656 478h28l-170 -478h-28l-135 444l-136 -444h-27l-173 478h28l158 -447l137 447h27l136 -445z" />
    <glyph glyph-name="Wacute" unicode="&#x1e82;" horiz-adv-x="891" 
d="M561 883l-143 -120h-37l141 120h39zM858 706h27l-212 -706h-31l-197 670l-197 -670h-30l-213 706h28l200 -667l196 667h33l195 -664z" />
    <glyph glyph-name="wacute" unicode="&#x1e83;" horiz-adv-x="699" 
d="M434 707l-105 -154h-30l103 154h32zM656 478h28l-170 -478h-28l-135 444l-136 -444h-27l-173 478h28l158 -447l137 447h27l136 -445z" />
    <glyph glyph-name="Wdieresis" unicode="&#x1e84;" horiz-adv-x="891" 
d="M340 796q-27 0 -27 26q0 11 7.5 18.5t19.5 7.5q11 0 18.5 -7.5t7.5 -18.5q0 -12 -7.5 -19t-18.5 -7zM549 796q-27 0 -27 26q0 11 7.5 18.5t19.5 7.5q11 0 18.5 -7.5t7.5 -18.5q0 -12 -7.5 -19t-18.5 -7zM858 706h27l-212 -706h-31l-197 670l-197 -670h-30l-213 706h28
l200 -667l196 667h33l195 -664z" />
    <glyph glyph-name="wdieresis" unicode="&#x1e85;" horiz-adv-x="699" 
d="M259 592q-12 0 -19.5 7t-7.5 18q0 12 7.5 19.5t19.5 7.5q11 0 18.5 -7.5t7.5 -19.5q0 -11 -7.5 -18t-18.5 -7zM439 592q-12 0 -19.5 7t-7.5 18q0 12 7.5 19.5t19.5 7.5q11 0 18.5 -7.5t7.5 -19.5q0 -11 -7.5 -18t-18.5 -7zM656 478h28l-170 -478h-28l-135 444l-136 -444
h-27l-173 478h28l158 -447l137 447h27l136 -445z" />
    <glyph glyph-name="uni1E9E" unicode="&#x1e9e;" horiz-adv-x="627" 
d="M559 291q19 -39 19 -95q0 -52 -18 -93q-48 -106 -226 -106q-72 0 -116 9v28q47 -10 116 -10q158 0 200 92q15 34 15 80q0 50 -16 83q-41 91 -191 91q-26 0 -44 -2v2l189 310h-384v-680h-27v706h458v-2l-187 -307q165 0 212 -106z" />
    <glyph glyph-name="Ygrave" unicode="&#x1ef2;" horiz-adv-x="540" 
d="M335 763h-37l-143 120h39zM257 0v305l-252 401h33l233 -373l231 373h33l-250 -401v-305h-28z" />
    <glyph glyph-name="ygrave" unicode="&#x1ef3;" horiz-adv-x="474" 
d="M290 553h-30l-105 154h32zM431 478h28l-219 -478l-93 -202h-29l95 204l-198 476h29l183 -444z" />
    <glyph glyph-name="uni2009" unicode="&#x2009;" horiz-adv-x="72" 
 />
    <glyph glyph-name="uni2011" unicode="&#x2011;" horiz-adv-x="389" 
d="M56 261v26h277v-26h-277z" />
    <glyph glyph-name="endash" unicode="&#x2013;" horiz-adv-x="530" 
d="M56 262v25h417v-25h-417z" />
    <glyph glyph-name="emdash" unicode="&#x2014;" horiz-adv-x="1035" 
d="M56 262v25h923v-25h-923z" />
    <glyph glyph-name="quoteleft" unicode="&#x2018;" horiz-adv-x="203" 
d="M151 706l-70 -283h-28l75 283h23z" />
    <glyph glyph-name="quoteright" unicode="&#x2019;" horiz-adv-x="203" 
d="M53 423l70 283h28l-75 -283h-23z" />
    <glyph glyph-name="quotesinglbase" unicode="&#x201a;" horiz-adv-x="203" 
d="M53 -137l70 283h28l-75 -283h-23z" />
    <glyph glyph-name="quotedblleft" unicode="&#x201c;" horiz-adv-x="324" 
d="M151 706l-70 -283h-28l75 283h23zM271 706l-70 -283h-27l75 283h22z" />
    <glyph glyph-name="quotedblright" unicode="&#x201d;" horiz-adv-x="324" 
d="M53 423l70 283h28l-75 -283h-23zM174 423l70 283h27l-75 -283h-22z" />
    <glyph glyph-name="quotedblbase" unicode="&#x201e;" horiz-adv-x="324" 
d="M53 -137l70 283h28l-75 -283h-23zM174 -137l70 283h27l-75 -283h-22z" />
    <glyph glyph-name="dagger" unicode="&#x2020;" horiz-adv-x="375" 
d="M349 527v-25h-148v-502h-26v502h-149v25h149v179h26v-179h148z" />
    <glyph glyph-name="daggerdbl" unicode="&#x2021;" horiz-adv-x="375" 
d="M349 504h-148v-301h148v-25h-148v-178h-26v178h-149v25h149v301h-149v25h149v177h26v-177h148v-25z" />
    <glyph glyph-name="bullet" unicode="&#x2022;" horiz-adv-x="409" 
d="M204 288q-37 0 -59.5 22.5t-22.5 60.5q0 40 22 61t60 21t60.5 -21t22.5 -61q0 -37 -22.5 -60t-60.5 -23z" />
    <glyph glyph-name="ellipsis" unicode="&#x2026;" horiz-adv-x="550" 
d="M120 -9q-26 0 -26 26q0 11 7 18.5t19 7.5q11 0 18.5 -7.5t7.5 -18.5q0 -12 -7.5 -19t-18.5 -7zM275 -9q-27 0 -27 26q0 11 7.5 18.5t19.5 7.5q11 0 18.5 -7.5t7.5 -18.5q0 -12 -7.5 -19t-18.5 -7zM430 -9q-27 0 -27 26q0 11 7.5 18.5t19.5 7.5q11 0 18.5 -7.5t7.5 -18.5
q0 -12 -7.5 -19t-18.5 -7z" />
    <glyph glyph-name="perthousand" unicode="&#x2030;" horiz-adv-x="972" 
d="M162 411q-87 0 -118 69q-15 33 -15 82q0 48 15 81q31 69 118 69t118 -69q15 -33 15 -81q0 -49 -15 -82q-31 -69 -118 -69zM59 0l511 706h30l-510 -706h-31zM162 434q72 0 96 55q13 27 13 73q0 44 -13 73q-25 54 -96 54t-96 -54q-12 -27 -12 -73q0 -48 12 -73
q24 -55 96 -55zM498 -6q-87 0 -118 69q-15 33 -15 81q0 49 15 82q32 69 118 69t118 -69q15 -33 15 -82q0 -48 -15 -81q-31 -69 -118 -69zM810 -6q-87 0 -118 69q-15 33 -15 81q0 49 15 82q32 69 118 69t118 -69q15 -33 15 -82q0 -48 -15 -81q-31 -69 -118 -69zM498 17
q72 0 96 55q13 27 13 72q0 46 -13 73q-24 55 -96 55t-96 -55q-12 -25 -12 -73q0 -47 12 -72q24 -55 96 -55zM810 17q72 0 96 55q13 27 13 72q0 46 -13 73q-24 55 -96 55t-96 -55q-12 -25 -12 -73q0 -47 12 -72q24 -55 96 -55z" />
    <glyph glyph-name="guilsinglleft" unicode="&#x2039;" horiz-adv-x="250" 
d="M188 115l-163 157l163 158h35l-162 -158l162 -157h-35z" />
    <glyph glyph-name="guilsinglright" unicode="&#x203a;" horiz-adv-x="250" 
d="M62 115h-35l161 157l-161 158h35l162 -158z" />
    <glyph glyph-name="fraction" unicode="&#x2044;" horiz-adv-x="175" 
d="M-147 0l440 706h29l-440 -706h-29z" />
    <glyph glyph-name="uni2070" unicode="&#x2070;" horiz-adv-x="421" 
d="M211 430q-104 0 -142 84q-21 48 -21 118t21 118q38 84 142 84q103 0 141 -84q21 -45 21 -118t-21 -118q-38 -84 -141 -84zM211 452q86 0 120 72q19 44 19 108t-19 108q-34 72 -120 72q-88 0 -120 -72q-19 -41 -19 -108t19 -108q32 -72 120 -72z" />
    <glyph glyph-name="uni2074" unicode="&#x2074;" horiz-adv-x="342" 
d="M244 438v113h-240v1l219 274h45v-253h62v-22h-62v-113h-24zM50 573h194v242z" />
    <glyph glyph-name="uni2075" unicode="&#x2075;" horiz-adv-x="364" 
d="M180 430q-96 0 -127 66q-11 25 -11 55h24q0 -26 8 -45q25 -54 106 -54q84 0 109 57q9 19 9 47q0 26 -9 46q-29 62 -125 62q-53 0 -106 -20l32 182h206l-4 -22h-181l-24 -130q33 12 80 12q111 0 144 -75q11 -23 11 -55q0 -30 -11 -57q-30 -69 -131 -69z" />
    <glyph glyph-name="uni2076" unicode="&#x2076;" horiz-adv-x="398" 
d="M346 615q11 -25 11 -54q0 -31 -11 -56q-34 -75 -138 -75t-144 86q-21 48 -21 113q0 70 22 118q38 87 143 87q65 0 100 -35q28 -27 36 -75h-24q-9 39 -29 59q-28 29 -83 29q-89 0 -123 -75q-18 -42 -18 -108q0 -15 2 -41q4 18 8 26q16 35 51 55.5t83 20.5q49 0 84.5 -20
t50.5 -55zM324 513q9 21 9 47q0 27 -9 46q-28 62 -114 62q-89 0 -119 -67q-9 -19 -9 -42q0 -25 9 -43q14 -29 45 -46.5t72 -17.5q89 0 116 61z" />
    <glyph glyph-name="uni2077" unicode="&#x2077;" horiz-adv-x="303" 
d="M67 438l181 365h-224v23h262l-192 -388h-27z" />
    <glyph glyph-name="uni2078" unicode="&#x2078;" horiz-adv-x="389" 
d="M339 585q9 -19 9 -42q0 -25 -9 -44q-31 -69 -145 -69q-113 0 -144 69q-9 19 -9 44q0 23 9 42q20 44 84 58q-53 13 -72 52q-8 18 -8 39q0 22 8 41q28 59 132 59q105 0 133 -59q8 -19 8 -41q0 -21 -8 -39q-19 -39 -72 -52q64 -14 84 -58zM84 704q22 -50 110 -50
q89 0 111 50q6 14 6 30q0 18 -6 32q-21 46 -111 46q-89 0 -110 -46q-6 -14 -6 -32q0 -16 6 -30zM317 509q7 17 7 34q0 15 -7 34q-27 55 -123 55q-95 0 -122 -55q-7 -19 -7 -34q0 -17 7 -34q26 -57 122 -57q98 0 123 57z" />
    <glyph glyph-name="uni2079" unicode="&#x2079;" horiz-adv-x="398" 
d="M334 748q21 -48 21 -113q0 -70 -22 -118q-38 -87 -143 -87q-65 0 -100 35q-28 27 -36 75h24q9 -39 29 -59q28 -29 83 -29q89 0 123 75q18 42 18 108q0 15 -2 41q-4 -18 -8 -26q-16 -35 -51 -55.5t-83 -20.5q-49 0 -84.5 20t-50.5 55q-11 25 -11 54q0 31 11 56
q34 75 138 75t144 -86zM307 663q9 19 9 42q0 25 -9 43q-14 29 -45 46.5t-72 17.5q-89 0 -116 -61q-9 -21 -9 -47t9 -46q28 -62 114 -62q89 0 119 67z" />
    <glyph glyph-name="uni207A" unicode="&#x207a;" horiz-adv-x="348" 
d="M314 647v-23h-129v-123h-22v123h-129v23h129v121h22v-121h129z" />
    <glyph glyph-name="uni207B" unicode="&#x207b;" horiz-adv-x="348" 
d="M34 624v23h280v-23h-280z" />
    <glyph glyph-name="uni207C" unicode="&#x207c;" horiz-adv-x="347" 
d="M34 678v22h279v-22h-279zM34 570v22h279v-22h-279z" />
    <glyph glyph-name="uni207D" unicode="&#x207d;" horiz-adv-x="207" 
d="M147 367q-85 120 -85 265t85 266h25q-88 -123 -88 -266q0 -144 88 -265h-25z" />
    <glyph glyph-name="uni207E" unicode="&#x207e;" horiz-adv-x="207" 
d="M60 367h-25q88 121 88 265q0 143 -88 266h25q85 -121 85 -266t-85 -265z" />
    <glyph glyph-name="uni207F" unicode="&#x207f;" horiz-adv-x="363" 
d="M191 712q128 0 128 -143v-196h-24v191q0 127 -107 127q-54 0 -85.5 -32.5t-31.5 -89.5v-196h-24v333h24v-63q29 69 120 69z" />
    <glyph glyph-name="uni2080" unicode="&#x2080;" horiz-adv-x="421" 
d="M211 -128q-104 0 -142 84q-21 48 -21 118t21 118q38 84 142 84q103 0 141 -84q21 -45 21 -118t-21 -118q-38 -84 -141 -84zM211 -106q86 0 120 72q19 44 19 108t-19 108q-34 72 -120 72q-88 0 -120 -72q-19 -41 -19 -108t19 -108q32 -72 120 -72z" />
    <glyph glyph-name="uni2081" unicode="&#x2081;" horiz-adv-x="215" 
d="M119 -120v365h-90l3 23h111v-388h-24z" />
    <glyph glyph-name="uni2082" unicode="&#x2082;" horiz-adv-x="336" 
d="M28 -120v3l169 155q44 40 60 65.5t16 56.5q0 26 -9 45q-23 50 -96 50q-74 0 -98 -53q-10 -22 -10 -61h-24q0 42 12 70q29 66 120 66q90 0 119 -62q10 -23 10 -55q0 -35 -17 -64t-60 -69q-82 -73 -137 -123h216v-24h-271z" />
    <glyph glyph-name="uni2083" unicode="&#x2083;" horiz-adv-x="371" 
d="M321 33q9 -23 9 -47q0 -30 -10 -51q-29 -64 -132 -64q-106 0 -139 74q-15 33 -15 71h24q0 -36 12 -61q27 -62 118 -62q86 0 110 52q8 19 8 41q0 23 -8 38q-23 51 -125 51h-10v22h10q96 0 116 47q6 14 6 32q0 21 -6 32q-21 47 -100 47q-87 0 -112 -57q-9 -21 -9 -48h-24
q0 33 12 57q31 70 134 70q94 0 121 -59q9 -19 9 -42q0 -20 -8 -39q-17 -37 -71 -50q60 -12 80 -54z" />
    <glyph glyph-name="uni2084" unicode="&#x2084;" horiz-adv-x="342" 
d="M244 -120v113h-240v1l219 274h45v-253h62v-22h-62v-113h-24zM50 15h194v242z" />
    <glyph glyph-name="uni2085" unicode="&#x2085;" horiz-adv-x="364" 
d="M180 -128q-96 0 -127 66q-11 25 -11 55h24q0 -26 8 -45q25 -54 106 -54q84 0 109 57q9 19 9 47q0 27 -9 46q-29 62 -125 62q-53 0 -106 -20l32 182h206l-4 -22h-181l-24 -130q33 12 80 12q111 0 144 -75q11 -23 11 -55q0 -30 -11 -57q-30 -69 -131 -69z" />
    <glyph glyph-name="uni2086" unicode="&#x2086;" horiz-adv-x="398" 
d="M346 57q11 -25 11 -54q0 -31 -11 -56q-34 -75 -138 -75t-144 86q-21 48 -21 113q0 70 22 118q38 87 143 87q65 0 100 -35q28 -27 36 -75h-24q-9 39 -29 59q-28 29 -83 29q-89 0 -123 -75q-18 -42 -18 -108q0 -15 2 -41q4 18 8 26q16 35 51 55.5t83 20.5q49 0 84.5 -20
t50.5 -55zM324 -45q9 21 9 47t-9 46q-28 62 -114 62q-89 0 -119 -67q-9 -20 -9 -42q0 -25 9 -43q14 -29 45 -46.5t72 -17.5q89 0 116 61z" />
    <glyph glyph-name="uni2087" unicode="&#x2087;" horiz-adv-x="303" 
d="M67 -120l181 365h-224v23h262l-192 -388h-27z" />
    <glyph glyph-name="uni2088" unicode="&#x2088;" horiz-adv-x="389" 
d="M339 27q9 -19 9 -42q0 -25 -9 -44q-31 -69 -145 -69q-113 0 -144 69q-9 19 -9 44q0 23 9 42q20 44 84 58q-53 13 -72 52q-8 18 -8 39q0 22 8 41q28 59 132 59q105 0 133 -59q8 -19 8 -41q0 -21 -8 -39q-19 -39 -72 -52q64 -14 84 -58zM84 146q22 -50 110 -50q89 0 111 50
q6 14 6 30q0 18 -6 32q-21 46 -111 46q-89 0 -110 -46q-6 -14 -6 -32q0 -16 6 -30zM317 -49q7 17 7 34q0 15 -7 34q-27 55 -123 55q-95 0 -122 -55q-7 -19 -7 -34q0 -17 7 -34q26 -57 122 -57q98 0 123 57z" />
    <glyph glyph-name="uni2089" unicode="&#x2089;" horiz-adv-x="398" 
d="M334 190q21 -45 21 -113q0 -73 -22 -118q-38 -87 -142 -87q-66 0 -101 35q-27 27 -36 75h24q10 -40 30 -59q28 -29 83 -29q88 0 122 75q19 44 19 108q0 16 -2 42q-4 -16 -9 -27q-15 -35 -50.5 -55.5t-83.5 -20.5q-101 0 -135 75q-11 25 -11 54q0 32 12 56q34 75 137 75
q106 0 144 -86zM307 105q9 19 9 42q0 25 -9 43q-13 29 -44.5 46.5t-72.5 17.5q-88 0 -115 -61q-10 -23 -10 -47q0 -23 9 -46q29 -62 114 -62q89 0 119 67z" />
    <glyph glyph-name="uni208A" unicode="&#x208a;" horiz-adv-x="347" 
d="M314 89v-23h-129v-123h-22v123h-129v23h129v121h22v-121h129z" />
    <glyph glyph-name="uni208B" unicode="&#x208b;" horiz-adv-x="348" 
d="M34 66v23h280v-23h-280z" />
    <glyph glyph-name="uni208C" unicode="&#x208c;" horiz-adv-x="347" 
d="M34 120v22h279v-22h-279zM34 12v22h279v-22h-279z" />
    <glyph glyph-name="uni208D" unicode="&#x208d;" horiz-adv-x="207" 
d="M147 -191q-85 120 -85 265t85 266h25q-88 -123 -88 -266q0 -144 88 -265h-25z" />
    <glyph glyph-name="uni208E" unicode="&#x208e;" horiz-adv-x="207" 
d="M60 -191h-25q88 121 88 265q0 143 -88 266h25q85 -121 85 -266t-85 -265z" />
    <glyph glyph-name="uni2099" unicode="&#x2099;" horiz-adv-x="363" 
d="M191 170q128 0 128 -144v-196h-24v192q0 126 -107 126q-54 0 -85.5 -32.5t-31.5 -89.5v-196h-24v333h24v-63q30 70 120 70z" />
    <glyph glyph-name="Euro" unicode="&#x20ac;" horiz-adv-x="750" 
d="M671 248h28q-4 -123 -80 -192q-77 -71 -216 -71q-205 0 -280 166q-27 60 -35 145h-45v24h44q-1 11 -1 33q0 24 1 36h-44v24h46q6 80 34 142q74 166 280 166q134 0 216 -73q73 -68 77 -181h-29q-4 101 -69 161q-73 65 -196 65q-187 0 -253 -149q-24 -52 -32 -131h351v-24
h-352q-1 -12 -1 -36q0 -22 1 -33h352v-24h-351q6 -79 32 -135q67 -148 254 -148q125 0 196 63q68 63 72 172z" />
    <glyph glyph-name="uni20B9" unicode="&#x20b9;" horiz-adv-x="623" 
d="M477 420q-43 -93 -204 -93h-92l336 -327h-38l-360 352h148q147 0 183 78q13 28 15 73h-404v25h404q-2 47 -16 76q-33 77 -167 77h-221v25h538v-25h-193q49 -22 70 -68q17 -36 18 -85h107v-25h-107q-1 -46 -17 -83z" />
    <glyph glyph-name="uni20BA" unicode="&#x20ba;" horiz-adv-x="573" 
d="M518 297h27q0 -105 -29 -169q-29 -66 -93 -97t-172 -31h-121v272l-87 -37v26l87 37v79l-87 -37v26l87 38v302h28v-291l219 97v-27l-219 -96v-79l219 96v-26l-219 -97v-257h90q102 0 159.5 27t83.5 86q25 53 27 158z" />
    <glyph glyph-name="uni20BC" unicode="&#x20bc;" horiz-adv-x="777" 
d="M668 490q34 -68 34 -183v-307h-28v307q0 112 -30 171q-63 124 -241 124v-602h-28v602q-180 0 -241 -124q-30 -56 -30 -171v-307h-28v307q0 117 33 183q67 138 266 138v78h28v-78q200 0 265 -138z" />
    <glyph glyph-name="uni2113" unicode="&#x2113;" horiz-adv-x="369" 
d="M105 183q4 -88 34.5 -125t89.5 -37q52 0 93 22v-26q-42 -21 -94 -21q-71 0 -108 42.5t-41 140.5q-30 -3 -64 -3v24q33 0 63 3v6v260q0 130 31.5 186.5t96.5 56.5q62 0 91.5 -49t29.5 -166q0 -144 -54 -219.5t-168 -94.5zM104 212v-5q102 18 149.5 87.5t47.5 202.5
q0 106 -23.5 148t-72.5 42q-51 0 -76 -48t-25 -163v-264z" />
    <glyph glyph-name="uni2117" unicode="&#x2117;" horiz-adv-x="832" 
d="M416 -15q-115 0 -201 52.5t-127 144.5q-34 74 -34 171t34 171q41 92 127 144.5t201 52.5t201 -52.5t127 -144.5q34 -74 34 -171t-34 -171q-40 -91 -126.5 -144t-201.5 -53zM416 9q109 0 189 49t119 135q30 71 30 159q0 92 -30 162q-39 86 -119.5 134.5t-188.5 48.5
t-188.5 -49t-119.5 -135q-30 -71 -30 -160q0 -91 31 -160q39 -86 118.5 -135t188.5 -49zM312 118v472h119q100 0 127 -62q12 -27 12 -65t-12 -65q-27 -61 -127 -61h-96v-219h-23zM335 358h95q84 0 106 50q10 20 10 55t-10 56q-22 49 -106 49h-95v-210z" />
    <glyph glyph-name="trademark" unicode="&#x2122;" horiz-adv-x="614" 
d="M100 396v289h-94v21h212v-21h-94v-289h-24zM250 396v310h33l126 -282l127 282h33v-310h-22v285l-128 -285h-19l-128 285v-285h-22z" />
    <glyph glyph-name="uni2126" unicode="&#x2126;" horiz-adv-x="702" 
d="M439 127v-101h182v-26h-210v149q134 22 181 130q27 59 27 145q0 77 -26 135q-59 134 -242 134q-182 0 -243 -134q-25 -59 -25 -135q0 -89 26 -145q49 -108 182 -130v-149h-210v26h182v101q-130 29 -180 141q-29 66 -29 155q0 84 28 148q33 72 101.5 111t167.5 39
t167.5 -39t101.5 -111q28 -64 28 -148q0 -89 -29 -155q-50 -112 -180 -141z" />
    <glyph glyph-name="estimated" unicode="&#x212e;" horiz-adv-x="853" 
d="M427 -11q-100 0 -186 42.5t-139.5 121.5t-53.5 177q0 145 110.5 243t268.5 98q156 0 267 -99.5t111 -247.5h-608q-10 0 -10 -11v-197q47 -51 110 -78.5t130 -27.5q73 0 139 32.5t113 88.5h57q-56 -68 -138 -105t-171 -37zM197 347h461q9 0 9 11v184q-44 51 -108 79.5
t-132 28.5q-70 0 -133 -28.5t-107 -78.5v-185q0 -11 10 -11z" />
    <glyph glyph-name="partialdiff" unicode="&#x2202;" horiz-adv-x="624" 
d="M524 580q40 -91 40 -233q0 -130 -37 -212q-67 -150 -234 -150q-78 0 -135.5 34.5t-84.5 94.5q-21 48 -21 105q0 58 20 103q27 61 85 95t137 34q76 0 132.5 -33.5t83.5 -92.5q19 -43 20 -91q8 54 8 112q0 137 -39 222q-56 127 -193 127q-106 0 -159 -80q-29 -39 -38 -100
h-27q9 70 43 114q56 92 182 92q154 0 217 -141zM294 11q70 0 121.5 30.5t75.5 85.5q19 41 19 92q0 48 -18 91q-24 55 -75.5 85.5t-122.5 30.5q-70 0 -121 -29.5t-75 -83.5q-18 -39 -18 -91t19 -96q24 -54 75 -84.5t120 -30.5z" />
    <glyph glyph-name="uni2206" unicode="&#x2206;" horiz-adv-x="591" 
d="M316 706l270 -706h-581l270 706h41zM45 26h501l-250 657h-2z" />
    <glyph glyph-name="product" unicode="&#x220f;" horiz-adv-x="619" 
d="M76 -202v908h468v-908h-28v882h-413v-882h-27z" />
    <glyph glyph-name="summation" unicode="&#x2211;" horiz-adv-x="498" 
d="M30 -202l276 461l-266 447h430v-26h-382l250 -421l-262 -435h406v-26h-452z" />
    <glyph glyph-name="minus" unicode="&#x2212;" horiz-adv-x="578" 
d="M56 262v25h465v-25h-465z" />
    <glyph glyph-name="uni2215" unicode="&#x2215;" horiz-adv-x="578" 
d="M126 0l296 706h27l-295 -706h-28z" />
    <glyph glyph-name="uni2219" unicode="&#x2219;" horiz-adv-x="578" 
d="M294 225q-23 0 -37 13.5t-14 35.5t14 36t37 14q21 0 35.5 -14t14.5 -36q0 -21 -14.5 -35t-35.5 -14z" />
    <glyph glyph-name="radical" unicode="&#x221a;" horiz-adv-x="574" 
d="M541 706h28l-278 -917h-31l-167 428l-83 -32v28l100 37l164 -428z" />
    <glyph glyph-name="infinity" unicode="&#x221e;" horiz-adv-x="845" 
d="M786 344q19 -47 19 -105q0 -60 -19 -104q-44 -96 -151 -96q-39 0 -71.5 13.5t-58.5 41.5t-43.5 54t-39.5 68q-23 -42 -40.5 -68t-43.5 -54t-58 -41.5t-71 -13.5q-108 0 -150 96q-19 42 -19 104q0 61 19 105q44 95 150 95q74 0 120 -45.5t93 -133.5q22 42 39.5 68.5
t43.5 55t58.5 42t71.5 13.5q107 0 151 -95zM211 63q36 0 65.5 13.5t53.5 41.5t40 53.5t38 67.5q-22 42 -38 67.5t-40 53.5t-53.5 41.5t-65.5 13.5q-92 0 -129 -83q-17 -37 -17 -93q0 -58 17 -93q37 -83 129 -83zM763 146q18 39 18 93t-18 93q-37 83 -130 83q-36 0 -65 -13
t-53.5 -41.5t-40 -53.5t-37.5 -68q22 -43 37.5 -68t40 -53.5t53.5 -41.5t65 -13q93 0 130 83z" />
    <glyph glyph-name="integral" unicode="&#x222b;" horiz-adv-x="342" 
d="M41 -204q-22 0 -41 2l4 26q17 -2 35 -2q42 0 62.5 20t24.5 67l66 688q5 59 31.5 85.5t79.5 26.5q12 0 39 -3l-4 -25q-16 2 -33 2q-41 0 -62.5 -21t-25.5 -68l-65 -687q-6 -58 -32 -84.5t-79 -26.5z" />
    <glyph glyph-name="approxequal" unicode="&#x2248;" horiz-adv-x="578" 
d="M386 309q-24 0 -45 8.5t-31.5 16t-28.5 23.5q-25 22 -43.5 31.5t-45.5 9.5q-72 0 -83 -82h-23q11 105 105 105q34 0 57 -12t49 -35q23 -21 42 -31.5t47 -10.5q71 0 83 81h23q-14 -104 -106 -104zM386 128q-24 0 -45 8.5t-31.5 16t-28.5 23.5q-25 22 -43.5 31.5t-45.5 9.5
q-72 0 -83 -82h-23q11 105 105 105q34 0 57 -12t49 -35q23 -21 42 -31.5t47 -10.5q71 0 83 81h23q-14 -104 -106 -104z" />
    <glyph glyph-name="notequal" unicode="&#x2260;" horiz-adv-x="578" 
d="M521 361h-164l-121 -173h285v-26h-302l-91 -129h-29l90 129h-133v26h150l122 173h-272v26h288l90 129h29l-89 -129h147v-26z" />
    <glyph glyph-name="lessequal" unicode="&#x2264;" horiz-adv-x="578" 
d="M502 523v-29l-441 -175l441 -176v-28l-465 186v35zM37 25v26h465v-26h-465z" />
    <glyph glyph-name="greaterequal" unicode="&#x2265;" horiz-adv-x="578" 
d="M56 523l465 -187v-35l-465 -186v28l441 176l-441 175v29zM56 25v26h465v-26h-465z" />
    <glyph glyph-name="lozenge" unicode="&#x25ca;" horiz-adv-x="471" 
d="M220 -202l-198 455l198 453h31l198 -453l-198 -455h-31zM236 -176l185 429l-185 427l-186 -427z" />
    <glyph glyph-name="uniFB00" unicode="&#xfb00;" horiz-adv-x="617" 
d="M109 0v453h-91v25h91v97q0 137 131 137q30 0 48 -5v-25q-18 5 -48 5q-105 0 -105 -112v-97h151v-25h-151v-453h-26zM419 0v453h-91v25h91v97q0 137 131 137q30 0 48 -5v-25q-17 5 -48 5q-105 0 -105 -112v-97h151v-25h-151v-453h-26z" />
    <glyph glyph-name="fi" unicode="&#xfb01;" horiz-adv-x="472" 
d="M109 0v453h-91v25h91v97q0 137 131 137q30 0 48 -5v-25q-18 5 -48 5q-105 0 -105 -112v-97h151v-25h-151v-453h-26zM390 592q-12 0 -19.5 7.5t-7.5 18.5t7.5 18.5t19.5 7.5q11 0 18.5 -7.5t7.5 -18.5t-7.5 -18.5t-18.5 -7.5zM377 0v478h25v-478h-25z" />
    <glyph glyph-name="fl" unicode="&#xfb02;" horiz-adv-x="472" 
d="M109 0v453h-91v25h91v97q0 137 131 137q30 0 48 -5v-25q-18 5 -48 5q-105 0 -105 -112v-97h151v-25h-151v-453h-26zM377 0v706h25v-706h-25z" />
    <glyph glyph-name="uniFB03" unicode="&#xfb03;" horiz-adv-x="782" 
d="M109 0v453h-91v25h91v97q0 137 131 137q30 0 48 -5v-25q-18 5 -48 5q-105 0 -105 -112v-97h151v-25h-151v-453h-26zM419 0v453h-91v25h91v97q0 137 131 137q30 0 48 -5v-25q-17 5 -48 5q-105 0 -105 -112v-97h151v-25h-151v-453h-26zM700 592q-12 0 -19.5 7.5t-7.5 18.5
t7.5 18.5t19.5 7.5q11 0 18.5 -7.5t7.5 -18.5t-7.5 -18.5t-18.5 -7.5zM687 0v478h25v-478h-25z" />
    <glyph glyph-name="uniFB04" unicode="&#xfb04;" horiz-adv-x="782" 
d="M109 0v453h-91v25h91v97q0 137 131 137q30 0 48 -5v-25q-18 5 -48 5q-105 0 -105 -112v-97h151v-25h-151v-453h-26zM419 0v453h-91v25h91v97q0 137 131 137q30 0 48 -5v-25q-17 5 -48 5q-105 0 -105 -112v-97h151v-25h-151v-453h-26zM687 0v706h25v-706h-25z" />
    <glyph glyph-name="uniFEFF" unicode="&#xfeff;" 
 />
    <glyph glyph-name="uni00A40301" horiz-adv-x="292" 
d="M140 763l141 120h39l-143 -120h-37zM63 -4q-19 0 -53 4v27q21 -4 49 -4q70 0 100.5 32.5t30.5 108.5v542h28v-545q0 -86 -37 -125.5t-118 -39.5z" />
    <glyph glyph-name="M.ss01" horiz-adv-x="722" 
d="M76 0v706h37l248 -364l248 364h37v-706h-27v674l-251 -368h-14l-251 368v-674h-27z" />
    <glyph glyph-name="Q.ss02" horiz-adv-x="743" 
d="M651 557q37 -84 37 -204t-37 -204q-51 -112 -166 -148l86 -151l-25 -13l-88 157q-39 -9 -87 -9q-204 0 -279 164q-38 83 -38 204t38 204q75 164 279 164q205 0 280 -164zM625 161q35 76 35 192t-35 192q-67 148 -254 148t-253 -148q-35 -76 -35 -192t35 -192
q66 -148 253 -148t254 148z" />
    <glyph glyph-name="R.ss03" horiz-adv-x="582" 
d="M517 454q-31 -68 -119 -91q63 -9 90 -43.5t27 -98.5v-221h-28v219q0 69 -35.5 99t-121.5 30h-227v-348h-27v706h241q158 0 201 -95q15 -33 15 -77q0 -47 -16 -80zM298 374q152 0 193 90q14 31 14 70t-13 65q-36 81 -176 81h-213v-306h195z" />
    <glyph glyph-name="Racute.ss03" horiz-adv-x="582" 
d="M412 883l-143 -120h-37l141 120h39zM517 454q-31 -68 -119 -91q63 -9 90 -43.5t27 -98.5v-221h-28v219q0 69 -35.5 99t-121.5 30h-227v-348h-27v706h241q158 0 201 -95q15 -33 15 -77q0 -47 -16 -80zM298 374q152 0 193 90q14 31 14 70t-13 65q-36 81 -176 81h-213v-306
h195z" />
    <glyph glyph-name="Rcaron.ss03" horiz-adv-x="582" 
d="M314 763h-37l-135 120h38l116 -102l115 102h38zM517 454q-31 -68 -119 -91q63 -9 90 -43.5t27 -98.5v-221h-28v219q0 69 -35.5 99t-121.5 30h-227v-348h-27v706h241q158 0 201 -95q15 -33 15 -77q0 -47 -16 -80zM298 374q152 0 193 90q14 31 14 70t-13 65q-36 81 -176 81
h-213v-306h195z" />
    <glyph glyph-name="uni0156.ss03" horiz-adv-x="582" 
d="M517 454q-31 -68 -119 -91q63 -9 90 -43.5t27 -98.5v-221h-28v219q0 69 -35.5 99t-121.5 30h-227v-348h-27v706h241q158 0 201 -95q15 -33 15 -77q0 -47 -16 -80zM298 374q152 0 193 90q14 31 14 70t-13 65q-36 81 -176 81h-213v-306h195zM262 -202l31 148h27l-34 -148
h-24z" />
    <glyph glyph-name="Oslash.ss04" horiz-adv-x="743" 
d="M611 622q24 -30 40 -65q37 -84 37 -204t-37 -204q-75 -164 -280 -164q-139 0 -221 79l-86 -101l-21 18l88 104q-21 27 -39 64q-38 83 -38 204t38 204q75 164 279 164q140 0 221 -79l86 102l21 -18zM625 161q35 76 35 192t-35 192q-67 148 -254 148t-253 -148
q-35 -76 -35 -192t35 -192q66 -148 253 -148t254 148z" />
    <glyph glyph-name="i.loclTRK" horiz-adv-x="165" 
d="M83 592q-12 0 -19.5 7.5t-7.5 18.5t7.5 18.5t19.5 7.5q11 0 18.5 -7.5t7.5 -18.5t-7.5 -18.5t-18.5 -7.5zM70 0v478h25v-478h-25z" />
    <glyph glyph-name="uni006A0301" horiz-adv-x="166" 
d="M52 553l83 154h30l-85 -154h-28zM-9 -204q-21 0 -36 2v25q16 -2 36 -2q42 0 60.5 20t18.5 68v569h26v-569q0 -59 -25 -86t-80 -27z" />
    <glyph glyph-name="oslash.ss04" horiz-adv-x="527" 
d="M462 367q26 -57 26 -128t-26 -129q-25 -56 -75.5 -88.5t-122.5 -32.5q-86 0 -143 47l-50 -64l-22 15l53 67q-21 22 -37 56q-25 56 -25 129q0 74 25 128q26 56 76.5 88.5t122.5 32.5q85 0 142 -46l50 63l22 -15l-53 -66q24 -28 37 -57zM438 120q23 52 23 119t-23 119
q-47 105 -174 105t-175 -105q-23 -52 -23 -119t23 -119q48 -105 175 -105t174 105z" />
    <glyph glyph-name="r.ss05" horiz-adv-x="181" 
d="M70 0v478h25v-13q7 18 24 18q11 0 17.5 -6.5t6.5 -17.5t-6.5 -18t-16.5 -7q-12 0 -18 8q-7 -4 -7 -23v-419h-25z" />
    <glyph glyph-name="racute.ss05" horiz-adv-x="181" 
d="M75 553l83 154h30l-85 -154h-28zM70 0v478h25v-13q7 18 24 18q11 0 17.5 -6.5t6.5 -17.5t-6.5 -18t-16.5 -7q-12 0 -18 8q-7 -4 -7 -23v-419h-25z" />
    <glyph glyph-name="rcaron.ss05" horiz-adv-x="181" 
d="M-5 707h29l81 -134l81 134h29l-94 -155h-32zM70 0v478h25v-13q7 18 24 18q11 0 17.5 -6.5t6.5 -17.5t-6.5 -18t-16.5 -7q-12 0 -18 8q-7 -4 -7 -23v-419h-25z" />
    <glyph glyph-name="uni0157.ss05" horiz-adv-x="181" 
d="M70 0v478h25v-13q7 18 24 18q11 0 17.5 -6.5t6.5 -17.5t-6.5 -18t-16.5 -7q-12 0 -18 8q-7 -4 -7 -23v-419h-25zM32 -202l31 148h27l-34 -148h-24z" />
    <glyph glyph-name="f_i" horiz-adv-x="472" 
d="M109 0v453h-91v25h91v97q0 137 131 137q30 0 48 -5v-25q-18 5 -48 5q-105 0 -105 -112v-97h151v-25h-151v-453h-26zM390 592q-12 0 -19.5 7.5t-7.5 18.5t7.5 18.5t19.5 7.5q11 0 18.5 -7.5t7.5 -18.5t-7.5 -18.5t-18.5 -7.5zM377 0v478h25v-478h-25z" />
    <glyph glyph-name="f_l" horiz-adv-x="472" 
d="M109 0v453h-91v25h91v97q0 137 131 137q30 0 48 -5v-25q-18 5 -48 5q-105 0 -105 -112v-97h151v-25h-151v-453h-26zM377 0v706h25v-706h-25z" />
    <glyph glyph-name="zero.tf" horiz-adv-x="582" 
d="M291 -15q-150 0 -211 137q-40 88 -40 231t40 231q61 137 211 137q149 0 210 -137q41 -90 41 -231t-41 -231q-61 -137 -210 -137zM291 13q130 0 185 121q37 82 37 219t-37 219q-55 121 -185 121t-185 -121q-37 -79 -37 -219t37 -219q55 -121 185 -121z" />
    <glyph glyph-name="one.tf" horiz-adv-x="582" 
d="M317 0v680h-165l6 26h186v-706h-27z" />
    <glyph glyph-name="two.tf" horiz-adv-x="582" 
d="M48 0v3l292 279q78 74 107.5 122t29.5 106q0 48 -17 87q-42 96 -175 96q-130 0 -175 -101q-21 -46 -21 -120h-28q0 79 25 133q51 115 200 115q150 0 202 -114q18 -41 18 -96q0 -63 -30 -114t-107 -123q-134 -128 -258 -247h402v-26h-465z" />
    <glyph glyph-name="three.tf" horiz-adv-x="582" 
d="M513 276q16 -35 16 -85q0 -53 -18 -95q-51 -111 -219 -111q-169 0 -222 118q-26 58 -26 145h28q0 -78 23 -132q46 -103 196 -103q151 0 194 95q16 37 16 83q0 41 -15 76q-43 95 -225 95h-18v26h19q168 0 208 90q13 26 13 63t-13 68q-39 85 -173 85q-144 0 -190 -101
q-21 -47 -21 -116h-28q0 74 23 126q53 118 217 118q74 0 125 -26t72 -74q16 -33 16 -79q0 -41 -14 -72q-33 -77 -140 -93q118 -18 156 -101z" />
    <glyph glyph-name="four.tf" horiz-adv-x="582" 
d="M567 229v-26h-113v-203h-28v203h-412v4l391 499h49v-477h113zM66 229h360v461h-1z" />
    <glyph glyph-name="five.tf" horiz-adv-x="582" 
d="M289 -15q-159 0 -210 115q-22 48 -22 117h28q0 -60 20 -106q45 -99 184 -99q143 0 189 102q19 43 19 95q0 56 -19 99q-50 110 -214 110q-93 0 -182 -35l55 323h344l-6 -26h-315l-44 -260q73 25 148 25q184 0 240 -126q21 -47 21 -109q0 -61 -20 -107q-53 -118 -216 -118z
" />
    <glyph glyph-name="six.tf" horiz-adv-x="567" 
d="M516 330q19 -44 19 -110q0 -69 -20 -112q-25 -56 -81 -89t-131 -33q-162 0 -225 139q-34 76 -34 224q0 157 36 236q61 135 219 135q104 0 162 -58q50 -50 60 -147h-27q-10 85 -52 126q-50 52 -143 52q-140 0 -195 -122q-33 -75 -33 -221q0 -54 4 -90q3 35 17 69
q25 55 80 87.5t132 32.5q76 0 131.5 -31.5t80.5 -87.5zM490 120q17 37 17 99q0 60 -17 99q-22 49 -70 76.5t-116 27.5q-144 0 -194 -108q-17 -39 -17 -98q0 -55 18 -94q22 -51 72 -80t120 -29q68 0 116 29t71 78z" />
    <glyph glyph-name="seven.tf" horiz-adv-x="582" 
d="M169 0l324 680h-437v26h480l-336 -706h-31z" />
    <glyph glyph-name="eight.tf" horiz-adv-x="582" 
d="M528 268q17 -37 17 -82q0 -47 -17 -84q-25 -56 -85.5 -86.5t-150.5 -30.5q-89 0 -150 30.5t-86 86.5q-16 35 -16 84q0 47 16 82q39 86 152 106q-100 21 -134 96q-14 34 -14 73q0 40 15 73q23 50 79 77.5t138 27.5t138 -27.5t79 -77.5q15 -33 15 -73q0 -39 -14 -73
q-34 -75 -134 -96q114 -20 152 -106zM101 479q43 -93 191 -93t191 93q12 27 12 64q0 35 -12 61q-38 90 -191 90q-151 0 -191 -90q-12 -26 -12 -61q0 -37 12 -64zM502 115q14 31 14 71t-15 72q-21 49 -75.5 75.5t-133.5 26.5q-163 0 -209 -102q-15 -32 -15 -72t14 -71
q46 -103 210 -103t210 103z" />
    <glyph glyph-name="nine.tf" horiz-adv-x="582" 
d="M504 581q34 -76 34 -224q0 -157 -36 -236q-61 -135 -219 -135q-102 0 -162 58q-50 52 -60 147h27q12 -87 52 -126q50 -52 143 -52q140 0 195 122q33 72 33 221q0 49 -3 91q-4 -37 -18 -70q-25 -55 -80 -87.5t-132 -32.5q-76 0 -131.5 31.5t-80.5 87.5q-19 44 -19 110
q0 69 20 112q25 56 81 89t131 33q162 0 225 -139zM472 392q17 39 17 98q0 55 -18 94q-22 51 -72 80t-120 29q-68 0 -116 -29t-71 -78q-16 -38 -16 -99q0 -63 16 -99q22 -49 70 -76.5t117 -27.5q143 0 193 108z" />
    <glyph glyph-name="zero.dnom" horiz-adv-x="421" 
d="M211 -8q-104 0 -142 84q-21 48 -21 118t21 118q38 84 142 84q103 0 141 -84q21 -45 21 -118t-21 -118q-38 -84 -141 -84zM211 14q86 0 120 72q19 44 19 108t-19 108q-34 72 -120 72q-88 0 -120 -72q-19 -41 -19 -108t19 -108q32 -72 120 -72z" />
    <glyph glyph-name="one.dnom" horiz-adv-x="215" 
d="M119 0v365h-90l3 23h111v-388h-24z" />
    <glyph glyph-name="two.dnom" horiz-adv-x="336" 
d="M28 0v3l169 155q44 40 60 65.5t16 56.5q0 26 -9 45q-23 50 -96 50q-74 0 -98 -53q-10 -22 -10 -61h-24q0 42 12 70q29 66 120 66q90 0 119 -62q10 -23 10 -55q0 -35 -17 -64t-60 -69q-82 -73 -137 -123h216v-24h-271z" />
    <glyph glyph-name="three.dnom" horiz-adv-x="371" 
d="M321 153q9 -23 9 -47q0 -30 -10 -51q-29 -64 -132 -64q-106 0 -139 74q-15 33 -15 71h24q0 -36 12 -61q27 -62 118 -62q86 0 110 52q8 19 8 41q0 23 -8 38q-23 51 -125 51h-10v22h10q96 0 116 47q6 14 6 32q0 21 -6 32q-21 47 -100 47q-87 0 -112 -57q-9 -21 -9 -48h-24
q0 33 12 57q31 70 134 70q94 0 121 -59q9 -20 9 -42q0 -20 -8 -39q-17 -37 -71 -50q60 -12 80 -54z" />
    <glyph glyph-name="four.dnom" horiz-adv-x="342" 
d="M244 0v113h-240v1l219 274h45v-253h62v-22h-62v-113h-24zM50 135h194v242z" />
    <glyph glyph-name="five.dnom" horiz-adv-x="364" 
d="M180 -8q-96 0 -127 66q-11 25 -11 55h24q0 -26 8 -45q25 -54 106 -54q84 0 109 57q9 19 9 47q0 26 -9 46q-29 62 -125 62q-53 0 -106 -20l32 182h206l-4 -22h-181l-24 -130q33 12 80 12q111 0 144 -75q11 -23 11 -55q0 -30 -11 -57q-30 -69 -131 -69z" />
    <glyph glyph-name="six.dnom" horiz-adv-x="398" 
d="M346 177q11 -25 11 -54q0 -31 -11 -56q-34 -75 -138 -75t-144 86q-21 48 -21 113q0 70 22 118q38 87 143 87q65 0 100 -35q28 -27 36 -75h-24q-9 39 -29 59q-28 29 -83 29q-89 0 -123 -75q-18 -42 -18 -108q0 -15 2 -41q4 18 8 26q16 35 51 55.5t83 20.5q49 0 84.5 -20
t50.5 -55zM324 75q9 21 9 47t-9 46q-28 62 -114 62q-89 0 -119 -67q-9 -19 -9 -42q0 -25 9 -43q14 -29 45 -46.5t72 -17.5q89 0 116 61z" />
    <glyph glyph-name="seven.dnom" horiz-adv-x="303" 
d="M67 0l181 365h-224v23h262l-192 -388h-27z" />
    <glyph glyph-name="eight.dnom" horiz-adv-x="389" 
d="M339 147q9 -19 9 -42q0 -24 -9 -44q-31 -69 -145 -69q-113 0 -144 69q-9 20 -9 44q0 23 9 42q20 44 84 58q-53 13 -72 52q-8 18 -8 39q0 22 8 41q28 59 132 59q105 0 133 -59q8 -19 8 -41q0 -21 -8 -39q-19 -39 -72 -52q64 -14 84 -58zM84 266q22 -50 110 -50
q89 0 111 50q6 14 6 30q0 18 -6 32q-21 46 -111 46q-89 0 -110 -46q-6 -14 -6 -32q0 -16 6 -30zM317 71q7 17 7 34q0 15 -7 34q-27 55 -123 55q-95 0 -122 -55q-7 -19 -7 -34q0 -16 7 -34q26 -57 122 -57q98 0 123 57z" />
    <glyph glyph-name="nine.dnom" horiz-adv-x="398" 
d="M334 310q21 -48 21 -113q0 -70 -22 -118q-38 -87 -143 -87q-65 0 -100 35q-28 27 -36 75h24q9 -39 29 -59q28 -29 83 -29q89 0 123 75q18 42 18 108q0 15 -2 41q-4 -18 -8 -26q-16 -35 -51 -55.5t-83 -20.5q-49 0 -84.5 20t-50.5 55q-11 25 -11 54q0 31 11 56
q34 75 138 75t144 -86zM307 225q9 20 9 42q0 25 -9 43q-14 29 -45 46.5t-72 17.5q-89 0 -116 -61q-9 -21 -9 -47t9 -46q28 -62 114 -62q89 0 119 67z" />
    <glyph glyph-name="zero.numr" horiz-adv-x="421" 
d="M211 310q-104 0 -142 84q-21 48 -21 118t21 118q38 84 142 84q103 0 141 -84q21 -45 21 -118t-21 -118q-38 -84 -141 -84zM211 332q86 0 120 72q19 44 19 108t-19 108q-34 72 -120 72q-88 0 -120 -72q-19 -41 -19 -108t19 -108q32 -72 120 -72z" />
    <glyph glyph-name="one.numr" horiz-adv-x="215" 
d="M119 318v365h-90l3 23h111v-388h-24z" />
    <glyph glyph-name="two.numr" horiz-adv-x="336" 
d="M28 318v3l169 155q44 40 60 65.5t16 56.5q0 26 -9 45q-23 50 -96 50q-74 0 -98 -53q-10 -22 -10 -61h-24q0 42 12 70q29 66 120 66q90 0 119 -62q10 -23 10 -55q0 -35 -17 -64t-60 -69q-82 -73 -137 -123h216v-24h-271z" />
    <glyph glyph-name="three.numr" horiz-adv-x="371" 
d="M321 471q9 -23 9 -47q0 -30 -10 -51q-29 -64 -132 -64q-106 0 -139 74q-15 33 -15 71h24q0 -36 12 -61q27 -62 118 -62q86 0 110 52q8 19 8 41q0 23 -8 38q-23 51 -125 51h-10v22h10q96 0 116 47q6 14 6 32q0 21 -6 32q-21 47 -100 47q-87 0 -112 -57q-9 -21 -9 -48h-24
q0 33 12 57q31 70 134 70q94 0 121 -59q9 -20 9 -42q0 -20 -8 -39q-17 -37 -71 -50q60 -12 80 -54z" />
    <glyph glyph-name="four.numr" horiz-adv-x="342" 
d="M244 318v113h-240v1l219 274h45v-253h62v-22h-62v-113h-24zM50 453h194v242z" />
    <glyph glyph-name="five.numr" horiz-adv-x="364" 
d="M180 310q-96 0 -127 66q-11 25 -11 55h24q0 -26 8 -45q25 -54 106 -54q84 0 109 57q9 19 9 47q0 26 -9 46q-29 62 -125 62q-53 0 -106 -20l32 182h206l-4 -22h-181l-24 -130q33 12 80 12q111 0 144 -75q11 -23 11 -55q0 -30 -11 -57q-30 -69 -131 -69z" />
    <glyph glyph-name="six.numr" horiz-adv-x="398" 
d="M346 495q11 -25 11 -54q0 -31 -11 -56q-34 -75 -138 -75t-144 86q-21 48 -21 113q0 70 22 118q38 87 143 87q65 0 100 -35q28 -27 36 -75h-24q-9 39 -29 59q-28 29 -83 29q-89 0 -123 -75q-18 -42 -18 -108q0 -15 2 -41q4 18 8 26q16 35 51 55.5t83 20.5q49 0 84.5 -20
t50.5 -55zM324 393q9 21 9 47t-9 46q-28 62 -114 62q-89 0 -119 -67q-9 -19 -9 -42q0 -25 9 -43q14 -29 45 -46.5t72 -17.5q89 0 116 61z" />
    <glyph glyph-name="seven.numr" horiz-adv-x="303" 
d="M67 318l181 365h-224v23h262l-192 -388h-27z" />
    <glyph glyph-name="eight.numr" horiz-adv-x="389" 
d="M339 465q9 -19 9 -42q0 -25 -9 -44q-31 -69 -145 -69q-113 0 -144 69q-9 19 -9 44q0 23 9 42q20 44 84 58q-53 13 -72 52q-8 18 -8 39q0 22 8 41q28 59 132 59q105 0 133 -59q8 -19 8 -41q0 -21 -8 -39q-19 -39 -72 -52q64 -14 84 -58zM84 584q22 -50 110 -50
q89 0 111 50q6 14 6 30q0 18 -6 32q-21 46 -111 46q-89 0 -110 -46q-6 -14 -6 -32q0 -16 6 -30zM317 389q7 18 7 34q0 15 -7 34q-27 55 -123 55q-95 0 -122 -55q-7 -19 -7 -34q0 -16 7 -34q26 -57 122 -57q98 0 123 57z" />
    <glyph glyph-name="nine.numr" horiz-adv-x="398" 
d="M334 628q21 -48 21 -113q0 -70 -22 -118q-38 -87 -143 -87q-65 0 -100 35q-28 27 -36 75h24q9 -39 29 -59q28 -29 83 -29q89 0 123 75q18 42 18 108q0 15 -2 41q-4 -18 -8 -26q-16 -35 -51 -55.5t-83 -20.5q-49 0 -84.5 20t-50.5 55q-11 25 -11 54q0 31 11 56
q34 75 138 75t144 -86zM307 543q9 19 9 42q0 25 -9 43q-14 29 -45 46.5t-72 17.5q-89 0 -116 -61q-9 -21 -9 -47t9 -46q28 -62 114 -62q89 0 119 67z" />
    <glyph glyph-name="colon.case" horiz-adv-x="241" 
d="M120 516q-26 0 -26 26q0 11 7 18.5t19 7.5q11 0 18.5 -7.5t7.5 -18.5q0 -12 -7.5 -19t-18.5 -7zM120 139q-26 0 -26 25q0 26 26 26q11 0 18.5 -7t7.5 -19q0 -11 -7.5 -18t-18.5 -7z" />
    <glyph glyph-name="semicolon.case" horiz-adv-x="272" 
d="M152 516q-27 0 -27 26q0 11 7.5 18.5t19.5 7.5q11 0 18.5 -7.5t7.5 -18.5q0 -12 -7.5 -19t-18.5 -7zM68 -19l67 321h26l-70 -321h-23z" />
    <glyph glyph-name="exclamdown.case" horiz-adv-x="233" 
d="M116 711q27 0 27 -26q0 -11 -7.5 -18.5t-19.5 -7.5q-11 0 -18.5 7.5t-7.5 18.5q0 12 7.5 19t18.5 7zM128 538l2 -542h-28l2 542h24z" />
    <glyph glyph-name="questiondown.case" horiz-adv-x="487" 
d="M249 716q27 0 27 -26q0 -11 -7.5 -18.5t-19.5 -7.5q-11 0 -18.5 7.5t-7.5 18.5q0 12 7.5 19t18.5 7zM264 543q-125 -191 -160 -262.5t-35 -122.5q0 -146 171 -146q124 0 162 83q16 36 16 102h27q0 -71 -19 -112q-44 -99 -186 -99q-104 0 -151 46.5t-47 125.5q0 54 34 124
t156 261h32z" />
    <glyph glyph-name="periodcentered.case" horiz-adv-x="241" 
d="M120 347q-12 0 -19 7.5t-7 18.5q0 26 26 26q11 0 18.5 -7t7.5 -19q0 -11 -7.5 -18.5t-18.5 -7.5z" />
    <glyph glyph-name="periodcentered.loclCAT.case" horiz-adv-x="45" 
d="M-82 348q-27 0 -27 26q0 11 7.5 18.5t19.5 7.5q11 0 18.5 -7.5t7.5 -18.5q0 -12 -7.5 -19t-18.5 -7z" />
    <glyph glyph-name="slash.case" horiz-adv-x="421" 
d="M40 -50l326 806h28l-326 -806h-28z" />
    <glyph glyph-name="periodcentered.loclCAT" horiz-adv-x="79" 
d="M40 343q-27 0 -27 26q0 11 7.5 18.5t19.5 7.5q11 0 18.5 -7.5t7.5 -18.5q0 -12 -7.5 -19t-18.5 -7z" />
    <glyph glyph-name="parenleft.case" horiz-adv-x="335" 
d="M248 -127q-73 111 -109 225.5t-36 254.5t36 254.5t109 226.5h29q-148 -217 -148 -481q0 -265 148 -480h-29z" />
    <glyph glyph-name="parenright.case" horiz-adv-x="335" 
d="M87 -127h-29q148 215 148 480q0 264 -148 481h29q73 -112 109 -226.5t36 -254.5t-36 -254.5t-109 -225.5z" />
    <glyph glyph-name="braceleft.case" horiz-adv-x="333" 
d="M175 471q0 -64 -15.5 -89t-64.5 -29q49 -4 64.5 -28.5t15.5 -89.5v-246q0 -94 96 -94h35v-22h-41q-59 0 -86.5 30t-27.5 82v247q1 65 -18 87t-85 22v24q67 0 85.5 22t17.5 88v247q0 51 27.5 81.5t86.5 30.5h41v-23h-35q-96 0 -96 -93v-247z" />
    <glyph glyph-name="braceright.case" horiz-adv-x="333" 
d="M182 475q-1 -66 17.5 -88t85.5 -22v-24q-66 0 -85 -22t-18 -87v-247q0 -52 -27.5 -82t-86.5 -30h-41v22h35q96 0 96 94v246q0 65 15.5 89.5t64.5 28.5q-49 4 -64.5 29t-15.5 89v247q0 93 -96 93h-35v23h41q59 0 86.5 -30.5t27.5 -81.5v-247z" />
    <glyph glyph-name="bracketleft.case" horiz-adv-x="326" 
d="M129 -127v961h170v-23h-145v-915h145v-23h-170z" />
    <glyph glyph-name="bracketright.case" horiz-adv-x="326" 
d="M197 -127h-170v23h145v915h-145v23h170v-961z" />
    <glyph glyph-name="hyphen.case" horiz-adv-x="389" 
d="M56 360v26h277v-26h-277z" />
    <glyph glyph-name="uni00AD.case" horiz-adv-x="389" 
d="M56 360v26h277v-26h-277z" />
    <glyph glyph-name="endash.case" horiz-adv-x="530" 
d="M56 361v24h417v-24h-417z" />
    <glyph glyph-name="emdash.case" horiz-adv-x="1035" 
d="M56 361v24h923v-24h-923z" />
    <glyph glyph-name="guillemotleft.case" horiz-adv-x="396" 
d="M188 213l-163 158l163 158h35l-162 -158l162 -158h-35zM334 213l-163 158l163 158h35l-161 -158l161 -158h-35z" />
    <glyph glyph-name="guillemotright.case" horiz-adv-x="396" 
d="M62 213h-35l161 158l-161 158h35l162 -158zM208 213h-35l162 158l-162 158h35l163 -158z" />
    <glyph glyph-name="guilsinglleft.case" horiz-adv-x="250" 
d="M188 213l-163 158l163 158h35l-162 -158l162 -158h-35z" />
    <glyph glyph-name="guilsinglright.case" horiz-adv-x="250" 
d="M62 213h-35l161 158l-161 158h35l162 -158z" />
    <glyph glyph-name="cent.ss06" horiz-adv-x="501" 
d="M388 172q43 40 46 106h27q-3 -78 -54 -124q-50 -45 -131 -50v-104h-25v104q-134 6 -187 120q-24 56 -24 129q0 74 24 128q52 115 187 121v104h25v-104q81 -5 130 -49q52 -49 55 -129h-27q-3 71 -48 110q-46 43 -124 43q-126 0 -173 -106q-23 -52 -23 -118t23 -118
q49 -106 173 -106q78 0 126 43z" />
    <glyph glyph-name="dollar.ss06" horiz-adv-x="631" 
d="M562 252q13 -31 13 -71q0 -42 -16 -80q-25 -55 -86 -85.5t-150 -30.5v-94h-25v95q-166 7 -218 123q-24 54 -24 133h28q0 -70 21 -120q50 -110 216 -110q81 0 135.5 26.5t76.5 75.5q13 29 13 67q0 34 -11 59q-20 45 -72.5 67t-147.5 42q-96 20 -151.5 45t-77.5 73
q-13 29 -13 67q0 40 15 75q22 50 75.5 80t129.5 32v92h25v-92q151 -6 203 -120q23 -49 23 -124h-28q0 66 -20 112q-46 105 -192 105q-72 0 -121 -26.5t-69 -71.5q-12 -27 -12 -61q0 -33 10 -56q8 -19 25.5 -34t33 -24t49.5 -19t51 -14t61 -14q48 -11 76.5 -19.5t63.5 -22.5
t56.5 -33.5t33.5 -46.5z" />
    <glyph glyph-name="paragraph.ss07" horiz-adv-x="589" 
d="M312 -202v534h-83q-145 0 -186 93q-15 33 -15 95q0 60 16 95q40 91 186 91h349v-26h-75v-882h-27v882h-139v-882h-26zM230 358h82v323h-82q-125 0 -161 -77q-14 -29 -14 -84q0 -56 13 -85q38 -77 162 -77z" />
    <glyph glyph-name="caroncomb.alt" 
d="M-52 542l36 164h26l-38 -164h-24z" />
    <glyph glyph-name="uni0335.Eth" 
d="M-293 348v25h293v-25h-293z" />
    <glyph glyph-name="uni0335.Tbar" 
d="M-380 302v25h330v-25h-330z" />
    <glyph glyph-name="caron.alt" horiz-adv-x="162" 
d="M50 542l36 164h26l-38 -164h-24z" />
    <glyph glyph-name="uni0308.case" 
d="M-284 796q-27 0 -27 26q0 11 7.5 18.5t19.5 7.5q11 0 18.5 -7.5t7.5 -18.5q0 -12 -7.5 -19t-18.5 -7zM-75 796q-27 0 -27 26q0 11 7.5 18.5t19.5 7.5q11 0 18.5 -7.5t7.5 -18.5q0 -12 -7.5 -19t-18.5 -7z" />
    <glyph glyph-name="uni0307.case" 
d="M-76 796q-12 0 -19.5 7.5t-7.5 18.5t7.5 18.5t19.5 7.5q11 0 18.5 -7.5t7.5 -18.5t-7.5 -18.5t-18.5 -7.5z" />
    <glyph glyph-name="gravecomb.case" 
d="M-50 763h-37l-143 120h39z" />
    <glyph glyph-name="acutecomb.case" 
d="M-230 763l141 120h39l-143 -120h-37z" />
    <glyph glyph-name="uni030B.case" 
d="M-344 763l130 120h37l-133 -120h-34zM-216 763l129 120h37l-133 -120h-33z" />
    <glyph glyph-name="uni0302.case" 
d="M-357 763l135 120h37l135 -120h-38l-116 102l-115 -102h-38z" />
    <glyph glyph-name="uni030C.case" 
d="M-50 883l-135 -120h-37l-135 120h38l116 -102l115 102h38z" />
    <glyph glyph-name="uni0306.case" 
d="M-184 759q-127 0 -133 123h25q7 -100 108 -100q53 0 79 24.5t30 75.5h25q-6 -123 -134 -123z" />
    <glyph glyph-name="uni030A.case" 
d="M-143 731q-42 0 -67 24.5t-25 65.5t25 65.5t67 24.5t67.5 -25t25.5 -65q0 -41 -25.5 -65.5t-67.5 -24.5zM-143 753q32 0 50.5 18.5t18.5 49.5t-19 49.5t-50 18.5q-32 0 -50.5 -18.5t-18.5 -49.5t18.5 -49.5t50.5 -18.5z" />
    <glyph glyph-name="tildecomb.case" 
d="M-145 759q-29 0 -47.5 13t-42.5 40q-15 18 -20.5 24.5t-20 15t-31.5 8.5q-62 0 -70 -97h-25q7 121 95 121q28 0 48 -13t41 -39q15 -17 21.5 -24.5t21 -15.5t30.5 -8q63 0 69 97h26q-9 -122 -95 -122z" />
    <glyph glyph-name="uni0304.case" 
d="M-338 810v25h288v-25h-288z" />
    <glyph glyph-name="uni0337.case" 
d="M-173 377l173 114v-29l-173 -114v2l-83 -55v29l83 55v-2z" />
    <glyph glyph-name="uni0338.case" 
d="M-676 0l84 99l1 1l453 533h2l61 73h35l-83 -98h-2l-454 -536h-1l-60 -72h-36z" />
    <glyph glyph-name="uni0308.narrow.case" 
d="M-199 795q-11 0 -18.5 7t-7.5 18t7.5 18t18.5 7t18.5 -7t7.5 -18t-7.5 -18t-18.5 -7zM-76 795q-11 0 -18.5 7t-7.5 18t7.5 18t18.5 7t18.5 -7t7.5 -18t-7.5 -18t-18.5 -7z" />
    <glyph glyph-name="uni0302.narrow.case" 
d="M-260 763l89 119h32l89 -119h-30l-75 100l-74 -100h-31z" />
    <glyph glyph-name="uni0306.narrow.case" 
d="M-153 758q-56 0 -79.5 30.5t-24.5 93.5h25q1 -53 18 -76.5t61 -23.5q43 0 60 24t18 76h25q-1 -63 -24 -93.5t-79 -30.5z" />
    <glyph glyph-name="tildecomb.narrow.case" 
d="M-126 760q-26 0 -40.5 13t-29.5 40q-13 25 -24 36.5t-29 11.5q-27 0 -38.5 -24.5t-13.5 -73.5h-23q2 61 19.5 91t56.5 30q26 0 40.5 -13t29.5 -40q13 -25 24 -36.5t30 -11.5q48 0 51 98h23q-3 -121 -76 -121z" />
    <glyph glyph-name="uni0304.narrow.case" 
d="M-252 810v25h202v-25h-202z" />
    <glyph glyph-name="uni0335.dh" 
d="M-277 301v24h277v-24h-277z" />
    <glyph glyph-name="uni0307.i" 
d="M-76 592q-12 0 -19.5 7.5t-7.5 18.5t7.5 18.5t19.5 7.5q11 0 18.5 -7.5t7.5 -18.5t-7.5 -18.5t-18.5 -7.5z" />
    <glyph glyph-name="uni0308.narrow" 
d="M-195 592q-27 0 -27 26q0 11 7.5 18.5t19.5 7.5q11 0 18.5 -7.5t7.5 -18.5q0 -12 -7.5 -19t-18.5 -7zM-76 592q-27 0 -27 26q0 11 7.5 18.5t19.5 7.5q11 0 18.5 -7.5t7.5 -18.5q0 -12 -7.5 -19t-18.5 -7z" />
    <glyph glyph-name="gravecomb.narrow" 
d="M-50 553h-28l-85 154h30z" />
    <glyph glyph-name="acutecomb.narrow" 
d="M-163 553l83 154h30l-85 -154h-28z" />
    <glyph glyph-name="uni0302.narrow" 
d="M-270 552l94 155h32l94 -155h-29l-81 134l-81 -134h-29z" />
    <glyph glyph-name="uni030C.narrow" 
d="M-270 707h29l81 -134l81 134h29l-94 -155h-32z" />
    <glyph glyph-name="uni0306.narrow" 
d="M-153 551q-53 0 -76.5 38t-25.5 118h24q2 -70 19 -101.5t59 -31.5q43 0 60 31.5t19 101.5h24q-2 -80 -25.5 -118t-77.5 -38z" />
    <glyph glyph-name="tildecomb.narrow" 
d="M-112 549q-23 0 -35.5 16.5t-26.5 54.5l-9 27t-8 18.5t-12 16.5t-14 4q-21 0 -29 -31.5t-10 -102.5h-24q2 84 16 120.5t47 36.5q22 0 35 -16.5t26 -54.5q8 -24 12 -34.5t12.5 -21t19.5 -10.5q21 0 29 32t10 102h23q-2 -84 -16 -120.5t-46 -36.5z" />
    <glyph glyph-name="uni0304.narrow" 
d="M-241 606v25h191v-25h-191z" />
    <glyph glyph-name="uni0328.narrow" 
d="M-92 -210q-35 0 -55 19t-20 53q0 37 17 69t54 79l20 -10q-36 -48 -50.5 -77.5t-14.5 -60.5q0 -48 50 -48q21 0 41 10v-25q-18 -9 -42 -9z" />
    <glyph glyph-name="uni0338.ss04" 
d="M-113 407l-12 27l56 71l22 -15zM-454 -28l-22 15l64 81l12 -26z" />
    <glyph glyph-name="uni0338.case.ss04" 
d="M-142 607l-13 27l92 109l21 -18zM-677 -38l-21 18l102 120l13 -28z" />
    </font>
</defs>
</svg>
