<?xml version="1.0" encoding="utf-8"?><svg xmlns="http://www.w3.org/2000/svg"><symbol viewBox="0 0 24 24" id="typography"><path d="M4 8L5 4H12M20 8L19 4H12M12 4V20M12 20H8M12 20H16"/></symbol><symbol viewBox="0 0 24 24" id="text"><path d="M2 18L4.08333 13M12 18L9.91667 13M4.08333 13L7 6L9.91667 13M4.08333 13H9.91667"/><circle cx="18" cy="14" r="4"/><line x1="22" y1="10" x2="22" y2="18"/></symbol><symbol viewBox="0 0 24 24" id="send"><polygon points="21.368 12.001 3 21.609 3 14 11 12 3 9.794 3 2.394"/></symbol><symbol viewBox="0 0 24 24" id="dashboard"><rect width="20" height="20" x="2" y="2"/><path d="M11 7L17 7M11 12L17 12M11 17L17 17"/><line x1="7" y1="7" x2="7" y2="7"/><line x1="7" y1="12" x2="7" y2="12"/><line x1="7" y1="17" x2="7" y2="17"/></symbol><symbol viewBox="0 0 24 24" id="list-alt"><path d="M5 15L19 15M5 19L19 19"/><rect width="14" height="6" x="5" y="5"/></symbol><symbol viewBox="0 0 24 24" id="calendar-event"><path d="M3 5H21V21H3V5Z"/><path d="M21 9H3"/><path d="M7 5V3"/><path d="M17 5V3"/><rect x="15" y="15" width="2" height="2"/></symbol><symbol viewBox="0 0 24 24" id="checkbox"><rect x="21" y="3" width="18" height="18" rx="1" transform="rotate(90 21 3)"/><path d="M6.66666 12.6667L9.99999 16L17.3333 8.66669"/></symbol><symbol viewBox="0 0 24 24" id="ok-circle"><polyline points="7 13 10 16 17 9"/><circle cx="12" cy="12" r="10"/></symbol><symbol viewBox="0 0 24 24" id="envelope"><rect width="20" height="14" x="2" y="5"/><path stroke-linecap="round" d="M2 5l10 9 10-9"/><path stroke-linecap="round" d="M2 19l6.825-7.8"/><path stroke-linecap="round" d="M22 19l-6.844-7.822"/></symbol><symbol viewBox="0 0 24 24" id="link"><path d="M10.5,15.5 C10.5,14.1666667 10.5,13.5 10.5,13.5 C10.5,10.7385763 8.26142375,8.5 5.5,8.5 C2.73857625,8.5 0.5,10.7385763 0.5,13.5 C0.5,13.5 0.5,14.1666667 0.5,15.5" transform="rotate(-90 5.5 12)"/><path d="M8,12 L16,12"/><path d="M23.5,15.5 C23.5,14.1666667 23.5,13.5 23.5,13.5 C23.5,10.7385763 21.2614237,8.5 18.5,8.5 C15.7385763,8.5 13.5,10.7385763 13.5,13.5 C13.5,13.5 13.5,14.1666667 13.5,15.5" transform="rotate(90 18.5 12)"/></symbol><symbol viewBox="0 0 24 24" id="lock-alt"><rect width="14" height="10" x="5" y="11"/><path d="M12,3 L12,3 C14.7614237,3 17,5.23857625 17,8 L17,11 L7,11 L7,8 C7,5.23857625 9.23857625,3 12,3 Z"/><circle cx="12" cy="16" r="1"/></symbol><symbol viewBox="0 0 24 24" id="phone"><path stroke-linecap="round" d="M12.7407967,18.4035953 L15.8976569,15.246735 L21.114676,18.885324 L19.9443794,20.055614 C19.1648657,20.8351277 18.020623,21.1243165 16.9643502,20.8087683 C13.7351168,19.8440753 10.8342484,18.0754771 8.26174492,15.5029737 C5.6892452,12.930474 3.92064841,10.0296102 2.95595454,6.80038244 C2.64039085,5.74410652 2.92958124,4.59985601 3.70910009,3.82033716 L4.87939464,2.65004261 L8.51798358,7.86706169 L5.36112331,11.023922"/></symbol><symbol viewBox="0 0 24 24" id="copy"><rect width="12" height="14" x="8" y="7"/><polyline points="16 3 4 3 4 17"/></symbol><symbol viewBox="0 0 24 24" id="edit"><path d="M18.4142136 4.41421356L19.5857864 5.58578644C20.366835 6.36683502 20.366835 7.63316498 19.5857864 8.41421356L8 20 4 20 4 16 15.5857864 4.41421356C16.366835 3.63316498 17.633165 3.63316498 18.4142136 4.41421356zM14 6L18 10"/></symbol><symbol viewBox="0 0 24 24" id="ellypsis"><circle cx="12" cy="12" r="1"/><circle cx="6" cy="12" r="1"/><circle cx="18" cy="12" r="1"/></symbol><symbol viewBox="0 0 24 24" id="info"><path d="M12,12 L12,15"/><line x1="12" y1="9" x2="12" y2="9"/><circle cx="12" cy="12" r="10"/></symbol><symbol viewBox="0 0 24 24" id="plus"><path d="M20 12L4 12M12 4L12 20"/></symbol><symbol viewBox="0 0 24 24" id="tag-alt"><circle cx="10" cy="12" r="1"/><path d="M8 18l-6-6 6-6h12a2 2 0 0 1 2 2v8a2 2 0 0 1-2 2H8z"/></symbol><symbol viewBox="0 0 24 24" id="switch-on"><path fill-rule="evenodd" clip-rule="evenodd" d="M17 10C18.1046 10 19 10.8954 19 12C19 13.1046 18.1046 14 17 14C15.8954 14 15 13.1046 15 12C15 10.8954 15.8954 10 17 10Z"/><path d="M17 7C19.7614 7 22 9.23858 22 12V12C22 14.7614 19.7614 17 17 17L8 17C5.23858 17 3 14.7614 3 12V12C3 9.23858 5.23858 7 8 7L17 7Z"/></symbol><symbol viewBox="0 0 24 24" id="stop"><rect width="14" height="14" x="5" y="5"/></symbol></svg>