<svg xmlns="http://www.w3.org/2000/svg" viewBox="0 0 597.61 809.27">
  <g id="Calque_2" data-name="Calque 2">
    <g id="Calque_1-2" data-name="Calque 1">
      <path d="M597.61,10.93V809.27c-41.18-42.55-106.82-53-166.69-51.86-44.31.81-93.81,4.72-127.49-24.09-23.7-20.28-33.58-52.92-34.27-84.1-.34-15.05,1.08-30.72-4.76-44.6-3.47-8.25-9.31-15.29-15.57-21.69-57.15-58.44-150.89-70.61-204.75-132.1C-15.76,382.52-5,285.19,19.76,204.88c8.36-27.12,18.49-54.42,36.76-76.14C79.16,101.82,112.23,86,145.45,74.37c97.68-34,195.88-68,300.16-73.93C481-1.57,543.15,3.63,597.61,10.93Z" style="fill: #6c63ff;opacity: 0.100000001490116;isolation: isolate"/>
    </g>
  </g>
</svg>
