<svg xmlns="http://www.w3.org/2000/svg" viewBox="0 0 1111 589.49"><defs><style>.cls-1{fill:#ff4757;opacity:0.1;isolation:isolate;}</style></defs><g id="Calque_2" data-name="Calque 2"><g id="Calque_1-2" data-name="Calque 1"><path class="cls-1" d="M47.11,80.59c1.8,11.42,6.4,22.45,6.44,34,.15,37.74-45.64,60.92-52.65,98-4.16,22,6.62,44.48,21.82,60.89s34.58,28.24,52.43,41.74a335.68,335.68,0,0,1,110,145.5c4.51,11.6,8.39,23.56,9.67,35.94.93,9,.49,18.21,2.6,27,8.35,34.89,50.69,48.43,86.49,50.69a379.31,379.31,0,0,0,168.74-28.18c12-5,24.39-10.68,37.27-9.27,10.3,1.13,19.49,6.7,28.53,11.77a378.62,378.62,0,0,0,84.38,34.74c16.3,4.5,33.41,7.92,50.06,5,50-8.82,76.57-69.46,125.63-82.72,33.94-9.17,69.26,6.85,99.7,24.44s61.86,37.85,97,37.9c46.88.06,85.42-35.42,117.22-69.86,6.67-7.23,13.45-14.79,16.63-24.1,6.45-18.9-4-40.13-19.45-52.83s-34.93-19-53.54-26.26A464.62,464.62,0,0,1,946.3,348.1c-18.2-12.2-35.83-26-48.28-44-10.71-15.52-17.14-33.51-24.32-51-15.74-38.19-38-77-75.17-94.92-30.35-14.64-65.6-13-99.29-13.39-49.64-.55-100.54-6.52-144.55-29.48C517.52,96,487,65.36,449.27,47,389.27,17.9,320.68,23.61,256,24.71c-31.07.53-68,3.63-97.84-6.55C136.12,10.63,124.76-4.76,99.41,1.44,64.74,9.89,41.57,45.36,47.11,80.59Z"/></g></g></svg>