<svg xmlns="http://www.w3.org/2000/svg" xmlns:xlink="http://www.w3.org/1999/xlink" viewBox="0 0 834.53 454.88">
  <defs>
    <linearGradient id="Dégradé_sans_nom_2" data-name="Dégradé sans nom 2" x1="405.77" y1="-444.41" x2="405.77" y2="10.47" gradientTransform="translate(761.97 10.47) rotate(180)" gradientUnits="userSpaceOnUse">
      <stop offset="0" stop-color="gray" stop-opacity="0.25"/>
      <stop offset="0.54" stop-color="gray" stop-opacity="0.12"/>
      <stop offset="1" stop-color="gray" stop-opacity="0.1"/>
    </linearGradient>
    <linearGradient id="Dégradé_sans_nom_2-2" x1="729.76" y1="-367.28" x2="729.76" y2="-317.01" xlink:href="#Dégradé_sans_nom_2"/>
  </defs>
  <g id="Calque_2" data-name="Calque 2">
    <g id="Calque_1-2" data-name="Calque 1">
      <g>
        <g style="opacity: 0.100000001490116">
          <path d="M249.6,150.93a141.69,141.69,0,0,0,10.18,24.57c8.82,16.59,23.21,29.71,40.6,37.9,41.45,19.52,63.67,72.11,63.67,72.11" style="fill: none;stroke: #535461;stroke-miterlimit: 10;stroke-width: 2px"/>
          <path d="M223.15,138a11.76,11.76,0,0,1,2.43-16.46,12.93,12.93,0,0,1,17.67,1.93c4.3,5.23,7,27.89,7,27.89s-22.38-7.62-26.69-12.84C223.42,138.31,223.28,138.14,223.15,138Z" style="fill: #6c63ff"/>
          <path d="M230.85,179.72a12,12,0,0,1-7.53-15.18,12.68,12.68,0,0,1,15.92-7.6c6.58,2.12,21.65,19.74,21.65,19.74s-23.08,5.29-29.66,3.16Z" style="fill: #6c63ff"/>
          <path d="M258,219.38a12.11,12.11,0,0,1,9.75-14.28c6.8-1.36,29.07,6.53,29.07,6.53s-17.16,15.75-23.95,17.11A12.59,12.59,0,0,1,258,219.38Z" style="fill: #6c63ff"/>
          <path d="M300,247.26a12.28,12.28,0,0,1,12.12-12.49c6.94-.24,27.5,11.16,27.5,11.16s-19.68,12.75-26.62,13A12.35,12.35,0,0,1,300,247.26Z" style="fill: #6c63ff"/>
          <path d="M271.53,148.38a12.46,12.46,0,0,0-14.07,10.43c-.89,6.63,9,27.36,9,27.36s15-17.65,15.92-24.27A12.18,12.18,0,0,0,271.53,148.38Z" style="fill: #6c63ff"/>
          <path d="M329.09,197.3a11.89,11.89,0,0,0-6.36-15.56,12.78,12.78,0,0,0-16.68,5.91c-2.9,6.06.09,28.69.09,28.69s19.84-12.52,22.75-18.57C329,197.61,329,197.46,329.09,197.3Z" style="fill: #6c63ff"/>
          <path d="M369.19,238.24a12.05,12.05,0,0,0-9-14.47,12.65,12.65,0,0,0-15.39,8.56c-1.8,6.44,5.13,28.26,5.13,28.26s17.35-15.56,19.15-22Z" style="fill: #6c63ff"/>
          <path d="M223.15,138a11.76,11.76,0,0,1,2.43-16.46,12.93,12.93,0,0,1,17.67,1.93c4.3,5.23,7,27.89,7,27.89s-22.38-7.62-26.69-12.84C223.42,138.31,223.28,138.14,223.15,138Z" style="opacity: 0.25;isolation: isolate"/>
          <path d="M230.85,179.72a12,12,0,0,1-7.53-15.18,12.68,12.68,0,0,1,15.92-7.6c6.58,2.12,21.65,19.74,21.65,19.74s-23.08,5.29-29.66,3.16Z" style="opacity: 0.25;isolation: isolate"/>
          <path d="M258,219.38a12.11,12.11,0,0,1,9.75-14.28c6.8-1.36,29.07,6.53,29.07,6.53s-17.16,15.75-23.95,17.11A12.59,12.59,0,0,1,258,219.38Z" style="opacity: 0.25;isolation: isolate"/>
          <path d="M300,247.26a12.28,12.28,0,0,1,12.12-12.49c6.94-.24,27.5,11.16,27.5,11.16s-19.68,12.75-26.62,13A12.35,12.35,0,0,1,300,247.26Z" style="opacity: 0.25;isolation: isolate"/>
          <path d="M271.53,148.38a12.46,12.46,0,0,0-14.07,10.43c-.89,6.63,9,27.36,9,27.36s15-17.65,15.92-24.27A12.18,12.18,0,0,0,271.53,148.38Z" style="opacity: 0.25;isolation: isolate"/>
          <path d="M329.09,197.3a11.89,11.89,0,0,0-6.36-15.56,12.78,12.78,0,0,0-16.68,5.91c-2.9,6.06.09,28.69.09,28.69s19.84-12.52,22.75-18.57C329,197.61,329,197.46,329.09,197.3Z" style="opacity: 0.25;isolation: isolate"/>
          <path d="M369.19,238.24a12.05,12.05,0,0,0-9-14.47,12.65,12.65,0,0,0-15.39,8.56c-1.8,6.44,5.13,28.26,5.13,28.26s17.35-15.56,19.15-22Z" style="opacity: 0.25;isolation: isolate"/>
        </g>
        <g style="opacity: 0.100000001490116">
          <path d="M285.9,42.41A139.15,139.15,0,0,0,287,68.85c2.59,18.46,11.64,35.43,25.23,48.7,32.38,31.63,35.18,88.33,35.18,88.33" style="fill: none;stroke: #535461;stroke-miterlimit: 10;stroke-width: 2px"/>
          <path d="M265.49,22a12,12,0,0,1,7.89-15,12.71,12.71,0,0,1,16,7.46c2.27,6.3-3,28.55-3,28.55s-18.47-14.33-20.75-20.63Z" style="fill: #6c63ff"/>
          <path d="M258.1,63.46a11.79,11.79,0,0,1-1.67-16.57,12.92,12.92,0,0,1,17.65-2.1c5.47,4.1,13.61,25.53,13.61,25.53S264.06,68,258.62,63.85Z" style="fill: #6c63ff"/>
          <path d="M270.19,109.66a12.46,12.46,0,0,1,14.12-10.37c6.88.88,25.17,15.43,25.17,15.43s-21.62,9.44-28.51,8.55A12.24,12.24,0,0,1,270.19,109.66Z" style="fill: #6c63ff"/>
          <path d="M308.06,164.38a12,12,0,0,1-7.9-15,12.67,12.67,0,0,1,15.75-7.93c6.62,2,22.09,19.3,22.09,19.3s-22.92,5.76-29.55,3.77Z" style="fill: #6c63ff"/>
          <path d="M313.29,62.75A11.87,11.87,0,0,0,307.47,47a12.81,12.81,0,0,0-16.88,5.36c-3.11,6-.93,28.68-.93,28.68s20.28-11.86,23.39-17.82Z" style="fill: #6c63ff"/>
          <path d="M345,111.4a11.75,11.75,0,0,0-.74-16.6,12.93,12.93,0,0,0-17.77.27c-4.83,4.79-9.82,27.09-9.82,27.09s23-5.48,27.87-10.27C344.69,111.73,344.84,111.57,345,111.4Z" style="fill: #6c63ff"/>
          <path d="M368.73,162.71a11.8,11.8,0,0,0-3.62-16.29,12.9,12.9,0,0,0-17.47,3.15c-3.92,5.51-4.92,28.3-4.92,28.3s21.78-9.14,25.66-14.65Z" style="fill: #6c63ff"/>
        </g>
        <path d="M147.9,269.14c2.18.33,26.15,2.16,41.81-1.22a40.17,40.17,0,0,1,27.07,3.38Z" style="opacity: 0.100000001490116;isolation: isolate"/>
        <path d="M160.92,226.46c-3.38-11-8.25-67.26-8.25-67.26S164.31,237.46,160.92,226.46Z" style="opacity: 0.100000001490116;isolation: isolate"/>
        <ellipse cx="649.72" cy="391.24" rx="19.78" ry="2.71" style="fill: #6c63ff;opacity: 0.100000001490116;isolation: isolate"/>
        <ellipse cx="725.49" cy="398.92" rx="19.78" ry="2.71" style="fill: #6c63ff;opacity: 0.100000001490116;isolation: isolate"/>
        <ellipse cx="814.75" cy="388.51" rx="19.78" ry="2.71" style="fill: #6c63ff;opacity: 0.100000001490116;isolation: isolate"/>
        <ellipse cx="695.16" cy="420.79" rx="14.06" ry="1.93" style="fill: #6c63ff;opacity: 0.100000001490116;isolation: isolate"/>
        <ellipse cx="773.81" cy="418.87" rx="14.06" ry="1.93" style="fill: #6c63ff;opacity: 0.100000001490116;isolation: isolate"/>
        <path d="M728.09,373.19s3.13-40,53.56-69.21c30.11-17.44,30.88-32.37,26.62-41.58a22.61,22.61,0,0,0-14.56-12.1c-12.2-3.36-39.44-6.59-63.45,20.63-32.09,36.43-4.34,127.37-4.34,127.37Z" style="fill: #6c63ff"/>
        <path d="M725.92,398.3c-18.34-109.52,63.45-135.09,63.45-135.09" style="fill: none;stroke: #565987;stroke-miterlimit: 10"/>
        <path d="M749.28,291.37c3.58-11.4-7.68-19-7.68-19" style="fill: none;stroke: #565987;stroke-miterlimit: 10"/>
        <path d="M765.9,276c8.38-3.88,15.27,3.12,15.27,3.12" style="fill: none;stroke: #565987;stroke-miterlimit: 10"/>
        <path d="M733.62,315.91c3.13-7.69,15.22-1.56,15.22-1.56" style="fill: none;stroke: #565987;stroke-miterlimit: 10"/>
        <path d="M728.17,330.76c-.17-4.34-9.25-3.62-9.25-3.62" style="fill: none;stroke: #565987;stroke-miterlimit: 10"/>
        <path d="M771.52,359.51a26.62,26.62,0,0,0,1.78-16.09c-.86-4.19-2.84-8.36-7.08-9-8.93-1.45-41.43,64.66-41.43,64.66C754.53,390.18,766.91,370.09,771.52,359.51Z" style="fill: #6c63ff"/>
        <path d="M725.28,398.55c6.59-2.17,40.7-51.63,40.7-51.63" style="fill: none;stroke: #565987;stroke-miterlimit: 10"/>
        <line x1="761.15" y1="354.64" x2="769.11" y2="354.64" style="fill: none;stroke: #565987;stroke-miterlimit: 10"/>
        <line x1="747.1" y1="373.27" x2="759.58" y2="372.73" style="fill: none;stroke: #565987;stroke-miterlimit: 10"/>
        <line x1="753.33" y1="364.76" x2="751.98" y2="358.26" style="fill: none;stroke: #565987;stroke-miterlimit: 10"/>
        <line x1="738.95" y1="383.95" x2="738.71" y2="378.04" style="fill: none;stroke: #565987;stroke-miterlimit: 10"/>
        <path d="M679,359.51a26.7,26.7,0,0,1-1.77-16.09c.86-4.19,2.84-8.36,7.08-9,8.93-1.45,41.43,64.66,41.43,64.66C696,390.18,683.65,370.09,679,359.51Z" style="fill: #6c63ff"/>
        <path d="M725.28,398.57c-6.59-2.19-40.7-51.65-40.7-51.65" style="fill: none;stroke: #565987;stroke-miterlimit: 10"/>
        <line x1="689.41" y1="354.64" x2="681.45" y2="354.64" style="fill: none;stroke: #565987;stroke-miterlimit: 10"/>
        <line x1="703.46" y1="373.27" x2="690.98" y2="372.73" style="fill: none;stroke: #565987;stroke-miterlimit: 10"/>
        <line x1="697.22" y1="364.76" x2="698.57" y2="358.26" style="fill: none;stroke: #565987;stroke-miterlimit: 10"/>
        <line x1="711.6" y1="383.95" x2="711.84" y2="378.04" style="fill: none;stroke: #565987;stroke-miterlimit: 10"/>
        <path d="M777.22,417.5h-7.07a3.39,3.39,0,0,0-.18-.39,7.3,7.3,0,0,0-2.33-2.23,12,12,0,0,1-3.27-2.62,3.15,3.15,0,0,1-.12-3.88,5.17,5.17,0,0,1,5.06-.44,3.49,3.49,0,0,1,1.27,3,15.47,15.47,0,0,0,0,3.4c0-3.07.71-6.48,3.22-8.24.79-.56,2-.86,2.64-.16a2,2,0,0,1,.44,1,5,5,0,0,1-1.56,4.73c1.26.17,2.36-.78,3.32-1.61s2.24-1.65,3.43-1.2a2.51,2.51,0,0,1,1.29,2.85,5.71,5.71,0,0,1-1.85,2.79A20,20,0,0,1,777.22,417.5Z" style="fill: #6c63ff"/>
        <path d="M653.36,390.89h-7.08a1.86,1.86,0,0,0-.17-.41,7.41,7.41,0,0,0-2.34-2.22,12.13,12.13,0,0,1-3.26-2.62,3.16,3.16,0,0,1-.13-3.88,4,4,0,0,1,3.16-.9,3.9,3.9,0,0,1,2,.46,3.49,3.49,0,0,1,1.27,3,15.37,15.37,0,0,0,0,3.39c0-3.06.72-6.48,3.23-8.23.78-.56,2-.87,2.64-.16a2.06,2.06,0,0,1,.44,1,5,5,0,0,1-1.56,4.73c1.26.18,2.37-.77,3.33-1.6s2.22-1.65,3.41-1.2a2.47,2.47,0,0,1,1.29,2.84,5.52,5.52,0,0,1-1.85,2.79A19.48,19.48,0,0,1,653.36,390.89Z" style="fill: #6c63ff"/>
        <path d="M694.62,417.5h-7.07a1.92,1.92,0,0,0-.17-.39,7.3,7.3,0,0,0-2.33-2.23,11.84,11.84,0,0,1-3.27-2.62,3.15,3.15,0,0,1-.12-3.88,4,4,0,0,1,3.15-.9,3.9,3.9,0,0,1,2,.46,3.49,3.49,0,0,1,1.27,3,15.47,15.47,0,0,0,.05,3.4c0-3.07.71-6.48,3.22-8.24.79-.56,2-.86,2.64-.16a2,2,0,0,1,.44,1,5.09,5.09,0,0,1-1.56,4.73c1.26.17,2.36-.78,3.32-1.61s2.24-1.65,3.42-1.2a2.5,2.5,0,0,1,1.3,2.85,5.71,5.71,0,0,1-1.85,2.79A19.42,19.42,0,0,1,694.62,417.5Z" style="fill: #6c63ff"/>
        <path d="M819.64,372.41c-4.76.14-10.61,9.86-10.61,9.86-1.29-3.27,1.91-7.68,5.78-12.92s1.23-8.69,1.23-8.69C821.27,366.5,824.4,372.27,819.64,372.41Z" style="fill: #6c63ff"/>
        <path d="M819.64,372.41c-4.76.14-10.61,9.86-10.61,9.86a1.44,1.44,0,0,1-.14-.43c1.2-1.88,6.18-9.31,10.34-9.43,4.46-.13,2-5.23-2.66-10.67a3.88,3.88,0,0,0-.53-1.08C821.27,366.5,824.4,372.27,819.64,372.41Z" style="opacity: 0.100000001490116;isolation: isolate"/>
        <path d="M820.69,364.43c-.17,0-.34-.57-.34.64s.14,2.21.31,2.21.3-1,.3-2.21S820.85,364.43,820.69,364.43Z" style="fill: #ffd037"/>
        <path d="M823.09,366c-.08-.16.34-.58-.73,0s-1.88,1.17-1.8,1.33,1-.2,2.1-.78S823.18,366.15,823.09,366Z" style="fill: #ffd037"/>
        <path d="M798.43,372.38c4.76.14,10.6,9.86,10.6,9.86,1.29-3.24-1.89-7.65-5.77-12.89s-1.23-8.69-1.23-8.69C796.77,366.5,793.67,372.24,798.43,372.38Z" style="fill: #6c63ff"/>
        <path d="M798.43,372.41c4.76.14,10.6,9.86,10.6,9.86a3.12,3.12,0,0,0,.15-.43c-1.2-1.88-6.18-9.31-10.34-9.43-4.46-.13-2-5.23,2.66-10.67a3.88,3.88,0,0,1,.53-1.08C796.77,366.5,793.67,372.27,798.43,372.41Z" style="opacity: 0.100000001490116;isolation: isolate"/>
        <path d="M797.38,364.43c.16,0,.34-.57.34.64s-.14,2.21-.31,2.21-.3-1-.3-2.21S797.22,364.43,797.38,364.43Z" style="fill: #ffd037"/>
        <path d="M795,366c.08-.16-.34-.58.73,0s1.87,1.17,1.79,1.33-1-.2-2.09-.78S794.9,366.15,795,366Z" style="fill: #ffd037"/>
        <path d="M800.65,389.15c2.23,1.35,13.3,2.73,21.67,2.66s-2.22-10.2-2.78-12.75-9.72-.65-11.95.94-9.64,1.81-9.64,1.81S798.42,387.8,800.65,389.15Z" style="fill: #a8a8a8"/>
        <path d="M825.49,389.65c0,1.27-.8,2.15-3.21,2.15-8.37.07-19.45-1.3-21.67-2.66s-2.7-7.34-2.7-7.34h.25c.22,1.71.9,5.42,2.6,6.46,2.23,1.36,13.3,2.73,21.67,2.66C824.27,390.91,825.19,390.43,825.49,389.65Z" style="opacity: 0.200000002980232;isolation: isolate"/>
        <path d="M65.61,217.64l.13.1A8,8,0,0,0,72,219.38a.61.61,0,0,0,.05.12s12.16.58,24.31-16.48L102.44,188l1.26-1.41v.05a72.61,72.61,0,0,0,4.2,9.46l10.55,59s5.67,38,15.78,45.15l-.63,6s.58,25.79-.85,29.66-14.15,73.94-14.15,73.94-4,24.64-3.72,30.66l9.29,2s-1.86-5.3.86-15.19,8-28.37,8-28.37l5.44-24.64.42,17.62S134,413.82,135,415s8.43,1.55,8.43,1.55,0-11.75,1.56-18.2c1.37-5.58,16.53-63.91,20.41-78.68a36.57,36.57,0,0,1,16.76-2.71c41.33,2.34,43.61,32.12,43.61,32.12s3.22,13.32,6.84,28c-.35.64-.68,1.21-1,1.65-2.43,3.59-5.42,8-4.85,11.18s-4,12-4,12L231.2,404l2.44-10s2,3.79,5.53,9.1c1.4,5.41,2.51,9.55,3,11.11,2.44,7.16,3.72,24.79,3.72,24.79l9.35-.87-1.88-28.08c4.51-.19,9-1.41,11.32-3.11a5.48,5.48,0,0,0,1.14-1.06c3.29-4.3-1.71-8.46-4.14-10.75s-1.14-17.49-1.14-17.49,1.14-6.73.28-9.89c-.18-.64-1.23-1.2-2.78-1.68.57-2.28,1.48-5,2.33-7.39a6.76,6.76,0,0,0,2.09-.93,2.26,2.26,0,0,1,.08.44,103.8,103.8,0,0,1,1.56,14.72c0,2.87-1.43,2.29,0,6.88a67.16,67.16,0,0,1,2.79,11,1.49,1.49,0,0,1,.07.47c.86,5.16,1.72,6.88,1.72,6.88l.93-.07c-1.49,5-4.92,17.57-3.37,21.56,2,5,1.15,14.33,1.15,14.33l5,1.29s-.78-7,0-7.89,9.33,14.05,9.33,14.05,12.86,3,24.59.71,3.71-8.16,3.71-8.16-5.57-6.74-6.29-9.46-6.29-13.9-6.29-13.9,0-13.75-1-13.32a34.63,34.63,0,0,1-5,0l.32-2.34a11.65,11.65,0,0,0,3.24-1.35c4.58-3.14-1.71-6.3-1.71-6.3s0-.36-.05-.78-.05-1-.09-1.76l14.66-107.24c1.21,1.13,2.48,2.29,3.78,3.42,7.43,6.45-1.44,69.64-1.44,69.64l-.56,21.49h7.86s-2-14,.43-17.77,7.72-48.29,8.15-52.88c.21-2.18.58-4.77.91-6.85,1.63,3.27,4.75,7.78,7.45,12.3,3.86,6.45,9.23,6.45,9.23,6.45s-1.08,5.8,4.07,8.38a14.39,14.39,0,0,1,4.67,4l-.56.71c-1.76.78-4.68,2.06-6.67,2.77-3,1.08-5.12,10.13-1.93,15.91s2.57,15.93.85,19.77.43,10.73.86,12.45,7.08,3.64,16.94,1.5,6.23-6.87,5.15-10.32-1.29-13.32.21-17.84c1-3,.76-7.14.5-9.58l1.31-1.06,12.14,97.26,5.3,1.21,4.13.94,7.72-.65,13.22-107.9c7.5,4.88,16.47,10.42,21.86,12.75,5.74,2.5,18.73,8.54,29.41,13.54l.91,38.77s-4.9,21.95-3.89,23.07,8.44,1.56,8.44,1.56,0-11.75,1.55-18.2c.71-2.9,5.09-19.77,9.69-37.49,1.12.16,4.57.65,9,1.42l-3.39,37.33-3.11,46.86,9.44.86s1.29-17.63,3.71-24.79c1.81-5.32,10-38.65,14.1-55.49,5.13,1.65,9.35,3.59,11,5.76,3.64,4.73,8.18,9.92,11,13.08.1.35.21.68.33,1,1.82,4.66,1.58,14.87.26,18.43s-5.78,8.44,6.31,10.66a54.52,54.52,0,0,0,12.23.93c7.6.34,12.42-1.13,12.82-2.49.53-1.78,3.15-8.88,1-12.88s-2.92-14.43,1.05-20.43,1.35-15.32-2.33-16.43l-.35-.12-.14-.05-.28-.11-.17-.07-.3-.13-.19-.08-.35-.16-.18-.08-.44-.21-.14-.07-.62-.31-.09,0-.56-.28-.21-.11-.48-.25-.25-.13-.49-.25-.23-.13-.55-.29-.2-.1-.74-.4h0l-.77-.43-.21-.11-.58-.32-.26-.15-.53-.29-.27-.15-.58-.33-.19-.11-.71-.4-.08,0-.78-.45h0l-.78-.44-.08,0-.66-.38-.16-.09-.58-.34-.16-.09-.56-.32-.14-.08L546.8,360l-.18-.1-.39-.23-.2-.12-.32-.19-.21-.12-.28-.17-.15-.08-.29-.18-.13-.07h0l.14-.78s-11.62-6-25.43-13.31c6-7.23,16.8-14.27,36.06-15.35A36.6,36.6,0,0,1,572.19,332c3.86,14.81,19,73.06,20.41,78.68,1.55,6.45,1.55,18.2,1.55,18.2s7.46-.41,8.43-1.55-3.89-23.07-3.89-23.07l.42-17.62,5.44,24.64s5.28,18.49,8,28.37.86,15.19.86,15.19l9.3-2c.29-6-3.72-30.66-3.72-30.66s-12.72-70.08-14.15-73.94-.87-29.66-.87-29.66l-.64-6.13h.32l4.28-8.6,2.6-14.28c2.18-2.22,3.41-3.77,3.41-3.77s11.16-50.15,14.3-58.18,11.44-34.39,11.44-34.39.89-5.79,2-12.84c.94,3.19.47,7.4-2,12.84,0,0-.78,4.61,2.36,3.74s6.86-9.45,4.29-20.34a8.43,8.43,0,0,0-3.12-4.55c1.2-6.63,2.47-12.84,3.37-15.23,2.29-6,2.32-37.54-4.57-44.13s-12.93-10.32-12.93-12.61-6.57-6.87-9.15-6.58a3.39,3.39,0,0,0-1.9.84l-.49-.38c-4.41-3.61-9.13-9.47-13.35-15.49-.17-.24-.33-.49-.5-.74a4.34,4.34,0,0,0,.6-.14l.47-.19h0c3.61-1.62,3.76-8,4.6-11.34a16,16,0,0,1,2.5-6.22c1.43-1.85,3.78-3.25,3.89-5.68s-2.29-4.17-3.18-6.42c-2-5.09,3.93-10.38,2.95-15.76-.7-3.89-4.92-6.9-4.42-10.79.21-1.56,1.15-2.91,1.7-4.39s.59-3.4-.66-4.35a4.84,4.84,0,0,0-2.57-.69c-3.47-.29-7.64-1.44-8.51-4.82a6,6,0,0,0-.64-2.06,3.32,3.32,0,0,0-2-1.05,27.31,27.31,0,0,0-8.83-.6,5.79,5.79,0,0,1-3-.17,9.5,9.5,0,0,1-2-1.63c-2.86-2.38-7.22-1.6-10.48.18-1.52.84-2.89,1.86-4.73,2.07s-3.71-.56-5.44,0c-2.18.68-3.58,3.29-5.86,3.29a10.94,10.94,0,0,1-2.87-.74c-4.52-1-8.37,4.18-13,4.05-1,0-1.92-.3-2.9-.34a6.54,6.54,0,0,0-6.15,4.19v-.12a5.56,5.56,0,0,0-.42,1.8,44.44,44.44,0,0,0,.4,4.43,8.18,8.18,0,0,1,0,1,.3.3,0,0,0,0-.2,9.19,9.19,0,0,1-3.95,7.08,8.88,8.88,0,0,0-1.55,1.17h0a2.52,2.52,0,0,0-.48.72A2.54,2.54,0,0,0,528.61,33a7.36,7.36,0,0,0,3.54.46c1.94,3.39,6.81,3.15,10.54,4.44-.12.25-.26.47-.38.71a33,33,0,0,0-3,9.57c-2.22.49-4.4,1.21-6.58,1.82-3.74,1-7.9,1.75-11.52.45-1.75-.63-3.24-1.65-4.92-2.43a15.29,15.29,0,0,0-11.4-.25,11.87,11.87,0,0,0-7.25,7.5,13.8,13.8,0,0,1-1,3.33c-1,1.74-3.13,2.77-4.49,4.33-1.1,1.27-1.54,3.77.34,4.7A3.36,3.36,0,0,0,494,68c1.72.07,3.84-.77,5.69-.82a4.45,4.45,0,0,1,.81.08,3.26,3.26,0,0,1,.63.18q-.42.42-.81.87a25.16,25.16,0,0,0,8.55,39.6c.21.35.43.73.64,1.12,3.68,6.57,8.5,16,11.07,24.34-1.79,2.36-4.06,6.06-3.89,9.55.1,1.79-.17,2.59-.59,2.87a5.73,5.73,0,0,1-1.69-1.44,3,3,0,0,0-.59.31c-.17-.18-.27-.31-.27-.31a3.66,3.66,0,0,0-2.28,3.16c0,2.25-6.09,4.51-2.48,7.58l-.82.88-20.44,21.85s-20,.85-25.74,4.29-23.73-1.14-23.73-1.14-1,0-2.34-.07c0-2.92-.75-5.62-3-6.81-5.8-3-11.37-14.83-11.37-14.83s-5.15-12.89-7.72-14.18-4.73-4.52-4.08-7.31-3.65-8-3.65-8-4.93-7.52-6.43-10.31-7.71-7.06-10-6.55a1.84,1.84,0,0,0-1.18.1,2.14,2.14,0,0,1-.78.2c-3.59-.21-11-2.75-13.13-4.71a3.6,3.6,0,0,0-3-1.06,16.9,16.9,0,0,0-3.21.37,3.39,3.39,0,0,1-.84-.17,3.15,3.15,0,0,0-1.46-.14,3.69,3.69,0,0,0-2.93,1c-.13-1.56-.23-3.08-.3-4.52v-.82a25.82,25.82,0,0,0,3.81-36.07c-.1-.13-.22-.26-.33-.39l.25-.34,0-.07c.27-.35.56-.7.87-1l.1-.11.45-.46h0a10.34,10.34,0,0,0,3.26-6.26,14,14,0,0,0,.18-2.24,4.6,4.6,0,0,0-.46-2.13,2.93,2.93,0,0,0-.4-.63h0c-1.28-1.71-3.76-2.28-5.54-3.6-3-2.22-3.83-6.35-5.86-9.52a13.78,13.78,0,0,0-17.18-4.67c-1.77.91-3.41,2.22-5.38,2.47-1.7.21-3.37-.42-5-.82a20,20,0,0,0-18,4.74c-1.68,1.55-3.11,3.57-3.11,5.83a5.69,5.69,0,0,0,.07.83h0a10.91,10.91,0,0,0,.45,1.79h0a11.51,11.51,0,0,1,.94,4.17c-.16,3-3,5.08-5,7.41a15.31,15.31,0,0,0-3.53,11.2,14.4,14.4,0,0,0,.44,2.34v.18c.11.36.22.71.35,1.07,0,.09.07.19.11.3.12.31.25.63.4.94,0,.13.12.26.18.39.14.28.36.67.44.83l.28.46c.15.25.34.52.46.7s.26.37.41.56.25.35.44.56.45.49.58.63.25.28.38.41a12.23,12.23,0,0,0,1.08,1c1.81,1.49,4,2.58,5.18,4.6h0l.07.1c1.12,2.11.78,4.62.9,7h0c0,.33,0,.67.07,1v.07c0,.33.1.65.17,1h0a1.7,1.7,0,0,0,.33.78.91.91,0,0,0,.21.18c.57.32,1.22-.22,1.86-.4a1.79,1.79,0,0,1,.51-.07,2.09,2.09,0,0,1,.51.07,2.76,2.76,0,0,1,.47.2,5.22,5.22,0,0,1,1.86,2.07,9.69,9.69,0,0,0,1.52,2.27h0c-1.71.22-2.78,1.3-4.93,2.16s-7.3,1-7.3,1.72-4.52,3.24-7.5,3.89S290.36,117.34,288,129.8s-6.43,16.13-6.43,16.13-.21,9.23-1.93,11.39-3.64,12.47-3.43,15.05-2.36,14.62.21,17.84-3.22,7.3,2.15,8.16c.6.1,1.4.2,2.33.29,3.6.33,9,.52,13.31.64l0,.25c-1.53.58-2.42,1.36-2.42,2.13a1.53,1.53,0,0,0,.39.91l-34.39,2a4.74,4.74,0,0,0,.77-.78c8.87-10.31-3.28-12.91-11.86-13.89s-17.31-1.56-17.31-1.56h0L218,180l-.95-.7.2-.77c-3.69-.78-26.69-21.36-30.07-24.32l-.41-.37s.54-2.59-6-3.44a67,67,0,0,1-9.44-1.72s-6.12-5.57-9-4.61c.84-6.57,3.64-13.3,6.06-18.11.44-.84.83-1.63,1.22-2.33A28.18,28.18,0,0,0,183,89.72v-.07h0a4.32,4.32,0,0,0,3-6c-1-2-3.59-3.5-2.91-5.59.84-2.6,5.27-1.47,7-3.58,1.36-1.67.15-4.29-1.66-5.5s-4-1.69-5.7-3c-3.2-2.5-3.75-7.3-6.77-10-3.43-3.08-8.74-2.44-13.05-4.05-4.15-1.55-7.87-5.29-12.23-4.51-1.06.19-2.05.64-3.11.74-2.2.2-4.22-1.13-6.27-2a14.77,14.77,0,0,0-12.25.58c.41,2.78-2.5,5.26-5.32,5.15-2-.07-4.8-.75-5.51,1.15-.33.9.08,1.92-.23,2.82-.53,1.58-2.69,1.67-4.1,2.56-3.2,2-1.7,7.53-4.47,10.11-1.22,1.14-3,1.42-4.48,2.1-5,2.21-6.81,8.27-8,13.61a9.16,9.16,0,0,0-.32,2.15,7.4,7.4,0,0,1-.53-.72,4.63,4.63,0,0,0,.06,1.74c.42,1.55,1.87,2.57,2.68,4A5.23,5.23,0,0,1,99,92a8.77,8.77,0,0,0-.1-1.15c.13.18.26.37.38.57,1.74,2.93.26,6.74.83,10.11a7.59,7.59,0,0,1-.7-1.32,8.49,8.49,0,0,0,.4,2.45c1,3,4.08,5,5.36,7.74a10.69,10.69,0,0,0-.06-1.13,6.88,6.88,0,0,1,1.13,2.74c.17,1.11,0,2.3.11,3.44a5.24,5.24,0,0,1-.62-1,8.48,8.48,0,0,0,.08,1.33c.54,3.39,4.1,5.35,7.38,6.34a3.54,3.54,0,0,1,2.34,1.49c.18.39.21.84.36,1.24a4.1,4.1,0,0,0,2.3,1.93q6.41,3,13.06,5.52a9,9,0,0,0,2.33.62,21.75,21.75,0,0,1-4.1,3.92,16.62,16.62,0,0,1-1.81,1.08,11.17,11.17,0,0,1-3,1c-4.3.74-8.29-1.16-14,.53-4.45,1.32-9.86,6.84-13.63,11.27-1.79,1.47-7.93,6.82-7,10.5h0l-.7,1.26c-2.68,4.73-12.13,21.26-15.31,24C70.35,189.55,61.2,214.2,65.61,217.64Zm222.86-4.78,2.43,0L288.64,222Zm38.16-111c-.21.59-.42,1.18-.64,1.76a7.57,7.57,0,0,0-.74-.52A4.1,4.1,0,0,0,326.63,101.81Zm69.19,111.93L412,213l-3.34,28.67L402,235.79l.92-.21s-.43-3-4.07-7.77C397.77,226.4,396.73,220.82,395.82,213.74ZM376.9,295.87l-1.38-10.34c4.34,1.26,7.67,2,7.67,2S380.79,290.82,376.9,295.87ZM392.34,174v-.27l.11.26ZM458,263.63a3.52,3.52,0,0,0,.15.42l-27.44,8.56c-.43-7.91-3.95-13.91-3.95-14.29a72.42,72.42,0,0,0-5.5-5.27l5-40.68,52.6-2.28c5.94,1,10.46,1.56,10.46,1.56a65.69,65.69,0,0,0,7.78-2.34l26.58-1.16a4.83,4.83,0,0,0,1.39,2.61c2.86,2.29-.57,6-3.15,8s-9.15,9.74-8.29,12.6a1.87,1.87,0,0,1-.22,1.46c-9.28,2.83-34.77,10.67-38.38,12.3C470.56,247.16,455.37,254.18,458,263.63Zm51.16-62.47c4-2.74,9.59-6.26,14.77-9.42l-.59,6.41s-.16,1.44-.21,3.36ZM398.12,332a44.53,44.53,0,0,1-9.68-7.05c1.88-1.6,4-3.44,6.31-5.44a7.88,7.88,0,0,0,3.89,2.69l.56.39Zm-99.76-50.12-7.7,51.62-1-55.71C292.78,279.26,296.19,280.84,298.36,281.92Zm-53.62-76.41-6.53.4-.65,6,42.3.77,1,63.87c-.14-.1-.27-.21-.41-.3l-.09-.08a12.18,12.18,0,0,0-1.11-.77l-.24-.15c-.32-.21-.65-.41-1-.6l-.44-.27-.78-.42-.68-.37-.53-.26c-.3-.15-.59-.3-.89-.43l-.32-.16-.42-.19-.85-.37c.17-9.93-.6-19.17-3.37-24.16a2,2,0,0,0,.08-.48,2.38,2.38,0,0,0-.51-.24l-.26-.38c-.16-.24-.34-.46-.51-.67-5.11-5.85-15.74-6.92-25.67-6.35a107.22,107.22,0,0,0-21.21,3.49c-5.73,1.72-7.44.86-10.3-.29-2-.83-2.19-4.81-2.11-7.05l1,.17s-.35-.26-.93-.78c0-.56.07-.92.07-.92h0c-.1-.08-12-9.77-11.15-16.91.57-4.74,1.27-12.13,1.67-16.58l.82.42,4.09,2.12a30.29,30.29,0,0,0,3.28-4c6.75,3.75,17.29,9.44,18.74,9.25h0c6.44,3.45,14.73-6.87,14.73-6.87A17.84,17.84,0,0,0,244.74,205.51ZM545,361.17l.19.51c-.33-.18-.64-.37-.95-.55l.23-1.22h0l.22.51a.36.36,0,0,1,.06.15l.24.58ZM390.48,397.6l-6.17-46.16a62.62,62.62,0,0,0,11.18,3.11Zm-100.27-.38-1.82-.09v-1.35c.6-.12,1.19-.24,1.74-.38Z" style="fill: url(#Dégradé_sans_nom_2)"/>
        <path d="M15.38,376.15l0,.05a2.43,2.43,0,0,0,.33.38l.1.08a3.83,3.83,0,0,0,.46.33h.07a4.7,4.7,0,0,0,.57.25l.11.05a6.44,6.44,0,0,0,.72.2l.17,0a4.67,4.67,0,0,0,.87.13H19a7.18,7.18,0,0,0,1.08.05,173.65,173.65,0,0,0,18.94-1c14.34-.4,25.1-2.19,25.1-4.29,0-1-2.46-1.92-6.58-2.66a21.68,21.68,0,0,0,.95-3.06,38.26,38.26,0,0,0,.82-5.09h-.4c-2.07-.09-11.77-.63-15-2.87,3.29-4.65,9.4-12.13,14.67-12.29,4.59-.12,4.62-3.52,2.1-8.25a16.28,16.28,0,0,0,2.76-1.24c1.73-.95.83-.63.7-.88s.55-1-1.17,0a16.27,16.27,0,0,0-2.51,1.62,14.74,14.74,0,0,0,.26-3.11c0-2-.17-1-.44-1s-.55-.93-.55,1a20.91,20.91,0,0,0,.1,2.09,64.93,64.93,0,0,0-7-9.21h0v.05h0a3.28,3.28,0,0,1,.2.31v0c0,.06.1.13.1.2v0l.28.61v.08l.11.29c.82,2.23,1.48,6.57-2.82,12.34s-8,10.95-9.33,15.32c-1.31-4.37-5.13-9.63-9.33-15.32s-3.64-10.07-2.83-12.34l.12-.29v-.08a4.78,4.78,0,0,1,.28-.61v0c0-.07.1-.14.1-.2v0l.19-.31h0v-.05h0a65.61,65.61,0,0,0-7,9.21,18.17,18.17,0,0,0,.09-2.09c0-2-.27-1-.54-1s-.44-.93-.44,1a15.42,15.42,0,0,0,.25,3.11A15.72,15.72,0,0,0,19.6,336c-1.73-.93-1-.25-1.18,0s-1-.07.7.88a16.64,16.64,0,0,0,2.76,1.24c-2.52,4.73-2.48,8.13,2.1,8.25,4.39.13,9.34,5.32,12.78,9.74-5.46-1.35-12-1.72-12.64,1-.43,2-4.68,6.9-7.38,11.41C6.77,369.32,0,370.77,0,372.43S6,375.38,15.38,376.15Z" style="fill: url(#Dégradé_sans_nom_2-2)"/>
        <path d="M542.28,370.49c6.3-2.25.43-12.45.43-12.45s15.86,9.44,19.51,10.53,6.27,10.35,2.33,16.33-3.15,16.36-1,20.34-.56,11.05-1,12.82-8.64,3.78-20.71,1.56-7.58-7-6.29-10.62,1.56-13.71-.26-18.35-.27-11.94-.27-11.94A11.42,11.42,0,0,1,542.28,370.49Z" style="fill: #575a88"/>
        <path d="M394.34,302.77c.57-17.69,20.54-24,20.54-24l67.91-21.14s11.12-1.43,15.68-6.28c2.39-2.53,7.59-5.85,12-8.43,4-2.37,7.41-4.13,7.41-4.13s69,51.68,68.47,63.35a7.74,7.74,0,0,1-1,3.64c-4.26,7.06-23.06,3.74-74.06,3.49-58.2-.29-38.22,7.42-37.65,10s70.18,38.52,70.18,38.52l-6.28,34.81s-8-8.56-13.69-16-41.08-12-41.08-12-35.11-16.55-45.65-21.11-34.81-21.39-34.81-21.39S393.78,320.47,394.34,302.77Z" style="fill: #aac9f5"/>
        <path d="M402.31,322.12s24.25,16.82,34.81,21.4,45.64,21.11,45.64,21.11,35.37,4.57,41.08,12c3.63,4.71,8.16,9.91,11,13,.09.34.2.67.32,1,1.82,4.64,1.58,14.81.27,18.35s-5.77,8.42,6.29,10.62,20.18.21,20.71-1.56,3.11-8.81,1.05-12.82-2.91-14.41,1-20.35,1.34-15.22-2.33-16.33c-3.12-.93-15-7.84-18.5-9.93l.14-.78s-69.61-35.95-70.18-38.51-20.55-10.28,37.65-10c51,.26,69.8,3.57,74.06-3.48a7.78,7.78,0,0,0,1-3.65c.58-11.7-68.47-63.34-68.47-63.34s-3.38,1.79-7.41,4.12c-4.41,2.58-9.61,5.9-12,8.44-4.56,4.84-15.68,6.27-15.68,6.27l-67.91,21.12s-20,6.22-20.54,23.94S402.31,322.12,402.31,322.12Zm140,48.31-.75.28,2-11.09c1.35,3,3.47,9.12-1.25,10.79Z" style="opacity: 0.100000001490116;isolation: isolate"/>
        <path d="M482.56,317l-20.83,17.54,1.42,61.06s-4.88,21.84-3.89,23,8.42,1.56,8.42,1.56,0-11.71,1.55-18.12,21.26-81.73,21.26-81.73Z" style="fill: #d5838e"/>
        <rect x="526.39" y="360.84" width="15.41" height="13.27" style="fill: #ffccd0"/>
        <path d="M538,370.49c6.29-2.25.43-12.45.43-12.45s15.86,9.44,19.5,10.53,6.27,10.35,2.34,16.33-3.15,16.36-1,20.34-.56,11.05-1.05,12.82-8.65,3.78-20.71,1.56-7.6-7-6.3-10.62,1.56-13.71-.26-18.35-.26-11.94-.26-11.94A11.4,11.4,0,0,1,538,370.49Z" style="fill: #575a88"/>
        <path d="M525.3,237l-12.56,25.39-31.95,11.84s-21-1-23.54-10.42,12.55-16.4,17-18.4,41.65-13.26,41.65-13.26Z" style="fill: #575a88"/>
        <path d="M527.47,89.67c4.29-1.51,7.3-1.69,6.9.7s1.45,6.17,4.18,10.25c.09.15.19.29.29.43,6.12,9,16.29,19.27,16.29,19.27l-12.94,23.44-.77,1.39s-31.68,15.4-22,5.56c6.82-7-3.87-28.76-10.67-40.87-.21-.39-.43-.76-.63-1.12-2.49-4.37-4.33-7.22-4.33-7.22S518.41,92.8,527.47,89.67Z" style="fill: #cd828d"/>
        <path d="M527.46,89.67c4.28-1.51,7.29-1.69,6.9.7s1.44,6.17,4.17,10.25l.3.43q-.15.23-.3.42a25,25,0,0,1-29.82,8.37c-.21-.39-.43-.76-.63-1.12-2.49-4.37-4.33-7.22-4.33-7.22S518.41,92.8,527.46,89.67Z" style="opacity: 0.100000001490116;isolation: isolate"/>
        <path d="M493.3,85.84a25,25,0,1,1,29.55,24.62,24.77,24.77,0,0,1-4.55.42h0a25,25,0,0,1-25-25Z" style="fill: #cd828d"/>
        <path d="M499.57,69.3a25,25,0,0,1,39,31.32c6.08,9.1,16.58,19.7,16.58,19.7l-12.94,23.44c-3.18-1.16-6.12-2.47-7.54-5-.85-1.53-1-3.26-1.77-4.82-2.71-5.21-12-6.47-13.89-11.92-1.17-3.35,1-6.78,2.92-9.89q.5-.8,1-1.59a85.63,85.63,0,0,0,4.67-9.34c1.47-3.37,2.59-7.23.7-10.43a8.22,8.22,0,0,0-.78-1.08c-3.49-4.09-11.22-5.31-13.36-10.11-.82-1.84-.82-4.16-2.72-5.26-2.31-1.34-5.52-1.3-7.94-2.67-1.38-.77-2.38-1.82-3.88-2.33Z" style="opacity: 0.100000001490116;isolation: isolate"/>
        <path d="M491.69,68.72c2.13,1.06,5.59-1,8.08-.43,1.92.4,3,1.65,4.56,2.54,2.42,1.36,5.6,1.34,7.93,2.67,1.91,1.1,1.91,3.43,2.72,5.26,2.32,5.2,11.21,6.2,14.15,11.17,1.9,3.21.73,7.06-.71,10.44a82,82,0,0,1-5.64,10.89c-1.89,3.1-4.09,6.54-2.92,9.9,1.91,5.46,11.19,6.71,13.89,11.93.8,1.54.93,3.25,1.77,4.8,2.55,4.64,10,5.16,14.92,8.11a4.92,4.92,0,0,1,2,1.9,5.27,5.27,0,0,1,.24,2.58,24.16,24.16,0,0,0,.71,7.24c.74,2.86,2.74,6.12,6.18,6.17a9.65,9.65,0,0,0,4.57-1.51c3.14-1.66,6.39-3.44,8.28-6.13a17.93,17.93,0,0,0,2.19-5c1.5-4.72,3-9.47,3.19-14.37a20.62,20.62,0,0,0-4.08-14c-2.6-3.25-6.58-5.93-7.49-9.77-.52-2.14,0-4.35.54-6.48,1.48-6.13,3.06-12.4,7-17.68,1.56-2.09,3.52-4.07,4.12-6.49,1-3.88-1.86-7.8-5.49-10.32s-8.06-4-12-6.22-7.54-5.39-8-9.34a26.57,26.57,0,0,0-.25-2.66c-.77-3.26-5-5.2-9-5.22s-7.65,1.34-11.37,2.38-7.88,1.74-11.5.45c-1.74-.63-3.22-1.64-4.9-2.42a15.31,15.31,0,0,0-11.37-.25,11.78,11.78,0,0,0-7.23,7.47,14.25,14.25,0,0,1-1,3.31c-1,1.73-3.12,2.76-4.47,4.32C490.23,65.23,489.79,67.71,491.69,68.72Z" style="fill: #663d5c"/>
        <path d="M492,68.61c2.12,1.06,5.58-1,8.08-.43,1.91.41,3,1.65,4.56,2.54,2.42,1.37,5.6,1.34,7.93,2.67,1.9,1.11,1.9,3.43,2.72,5.26,2.32,5.2,11.2,6.2,14.15,11.17,1.89,3.21.73,7.07-.71,10.44A83.16,83.16,0,0,1,523,111.15c-1.9,3.1-4.09,6.55-2.92,9.9C522,126.51,531.3,127.76,534,133c.8,1.54.92,3.25,1.76,4.8,2.56,4.64,10,5.16,14.92,8.11a4.92,4.92,0,0,1,2,1.9,5.4,5.4,0,0,1,.25,2.58,23.84,23.84,0,0,0,.7,7.24c.74,2.86,2.74,6.12,6.18,6.17a9.73,9.73,0,0,0,4.58-1.51,42.15,42.15,0,0,0,5.21-3.11c-.68.39-1.38.76-2.07,1.13A9.69,9.69,0,0,1,563,161.8c-3.44-.05-5.46-3.31-6.18-6.17a24.16,24.16,0,0,1-.71-7.24,5.14,5.14,0,0,0-.24-2.58,4.92,4.92,0,0,0-2-1.9c-4.92-2.95-12.36-3.44-14.92-8.11-.84-1.52-1-3.25-1.76-4.81-2.71-5.21-12-6.48-13.9-11.93-1.16-3.35,1-6.78,2.93-9.89a81.86,81.86,0,0,0,5.63-10.89c1.44-3.36,2.62-7.23.72-10.43-2.95-5-11.82-6-14.16-11.18-.81-1.82-.81-4.15-2.72-5.25-2.3-1.33-5.51-1.3-7.93-2.67-1.58-.9-2.64-2.14-4.56-2.54-2.49-.52-6,1.48-8.07.42-1.89-.91-1.44-3.4-.33-4.66,1.37-1.55,3.49-2.58,4.48-4.32a14.23,14.23,0,0,0,1-3.31,10.9,10.9,0,0,1,3.4-5.16,11.71,11.71,0,0,0-6.54,7.16,14.25,14.25,0,0,1-1,3.31c-1,1.73-3.12,2.76-4.48,4.32C490.52,65.23,490.08,67.71,492,68.61Z" style="opacity: 0.100000001490116;isolation: isolate"/>
        <path d="M205.44,183l-4.29,13.59,3.43,7.45c8.56-8.63,12.45-25,12.45-25Z" style="fill: #f26383"/>
        <path d="M204.58,204.06c8.56-8.63,12.45-25,12.45-25L205.47,183" style="opacity: 0.100000001490116;isolation: isolate"/>
        <path d="M74.24,186.91c3.17-2.68,12.6-19.14,15.28-23.84l.7-1.26,3.11-2,17.11,19.69-.85.95L76.93,217.1a8.17,8.17,0,0,1-11.13,1l-.13-.1C61.39,214.59,70.51,190.05,74.24,186.91Z" style="fill: #ffc1c7"/>
        <path d="M365.78,329.77s8.53,15.19,10.89,17.76,18.42,8.55,26.74,7.06,3.44-20.76-2.57-21.61-14.77-9.85-14.77-9.85Z" style="fill: #ffd6db"/>
        <path d="M213.17,178.35l3.43,1.28,1.17.88,11.38,8.41s-.43,20.11-2.57,20.39c-1.54.21-13.55-6.35-20.13-10l-4.26-2.41Z" style="fill: #ffc1c7"/>
        <path d="M213.17,178.35l3.43,1.28,1.17.88a26.11,26.11,0,0,0-11.32,18.79l-4.26-2.41Z" style="opacity: 0.100000001490116;isolation: isolate"/>
        <path d="M183.55,153.93l3.12.43.41.36c3.36,3,26.27,23.54,30,24.32,0,0-13.59,7.13-12.45,25l-4.08-2.1-9.18-4.74L178.08,173.5Z" style="fill: #6c63ff"/>
        <path d="M118.45,255.24l-10.84-60.47-9.85-19.39,13-4.86,36.8,122.1-11.27,8.55C124.86,298.33,118.45,255.24,118.45,255.24Z" style="fill: #e4aab4"/>
        <path d="M110.77,140.12c5.69-1.68,9.67.21,14-.52a11.12,11.12,0,0,0,3-1,14.27,14.27,0,0,0,1.81-1.06,23,23,0,0,0,4.31-4.16,55.12,55.12,0,0,0,6.14-9.41c.22-.43.44-.86.64-1.27,1.26-2.59,2-4.6,2-5.44s3.92-.73,8.92-.24c1.22.13,2.51.27,3.83.43h0c2.52.3,5.15.65,7.48,1,5.1.71,9.13,1.38,9.13,1.38s-1.12,1.71-2.6,4.46c-.43.73-.8,1.51-1.21,2.33-3.44,6.81-7.67,17.49-5.89,26.05,2.85,13.69-31.1,4.27-31.1,4.27l-38.8.29S103,142.4,110.77,140.12Z" style="fill: #ffc1c7"/>
        <path d="M295.63,267.93c2.13-.56,8.27,6.71,15.69,13.13s-1.43,69.33-1.43,69.33l-.57,21.4h7.89s-2-14,.42-17.69,7.72-48.07,8.13-52.64,1.56-10.7,1.56-10.7,6.85-5.71,4.85-12.84-34.67-25.1-34.67-25.1S293.49,268.5,295.63,267.93Z" style="fill: #e4aab4"/>
        <path d="M305.18,218.51l-5.78,9.84-2.13,31s28.24,29.11,28.24,31.88,4.7,9.2,8.56,15.62,9.2,6.42,9.2,6.42-1.08,5.78,4.06,8.35,8.14,9.84,8.14,9.84l22.68-28.68s-18.19-23.54-18.62-29.1-21.82-46.42-21.82-46.42Z" style="fill: #bdd2e8"/>
        <path d="M389.05,219.36s-35.54,53.52-33.82,57.78,27.39,10.49,27.39,10.49-14.55,19.69-29.95,37.23,10.47,19.47,12.2,17.54,14.78-11.34,14.78-11.34,30-24.61,43-39.59,2.56-32.33,2.56-33-29.1-26.39-31.69-28.72l-.19-.17Z" style="opacity: 0.100000001490116;isolation: isolate"/>
        <path d="M389.87,219.36l-69.33,1.07s33.81,52.45,35.53,56.71,27.38,10.49,27.38,10.49-14.55,19.69-30,37.23,10.48,19.47,12.2,17.54,14.78-11.34,14.78-11.34,29.93-24.58,43-39.59,2.6-32.33,2.6-33-29.1-26.39-31.7-28.72l-.18-.17Z" style="fill: #bdd2e8"/>
        <path d="M326.48,101.9c1.22-3.83,1.78-7.93.53-11.35-3.42-9.41,34.88,4.29,34.88,4.29s-.05,4.36.24,10.07.94,12.7,2.34,17.75c2.76,10.05-14.14,25.25-14.78,25.46s-27-10.27-27-10.27l-2.57-23.33A53.26,53.26,0,0,0,326.48,101.9Z" style="fill: #cf6f80"/>
        <path d="M589.77,57.81s3.58,6.72,8.7,14.7c.08.14.18.29.28.43,1.37,2.14,2.87,4.38,4.42,6.59,4.2,6,8.91,11.82,13.32,15.41a15.15,15.15,0,0,0,6.67,3.53c12.83,2.15-65.48,15-65.48,15s5.18-2.36,5.7-12.56a48.63,48.63,0,0,0-1.6-14l-.24-.91a122.28,122.28,0,0,0-7.23-19.9l0-.14C535.85,25.28,589.77,57.81,589.77,57.81Z" style="fill: #ffccd0"/>
        <path d="M158.3,312.87l-20.82,17.54,1.42,61.06s-4.89,21.84-3.89,23,8.42,1.56,8.42,1.56,0-11.71,1.55-18.12,21.26-81.73,21.26-81.73Z" style="fill: #d5838e"/>
        <path d="M216.47,293l26.83,1.85,8.7,96,3.11,46.66-9.41.86s-1.3-17.54-3.71-24.68-16.41-64.91-16.41-64.91-2.29-29.55-43.51-31.89-42.37,51.33-42.37,51.33L133,398.49s-5.28,18.41-8,28.25-.85,15.11-.85,15.11l-9.27-2c-.29-6,3.71-30.53,3.71-30.53s12.69-69.72,14.12-73.61.85-29.55.85-29.55L135,292.62l19.69-.43Z" style="fill: #e4aab4"/>
        <path d="M578.24,325.29l20.87,17.54-1.43,61.06s4.82,21.87,3.82,23-8.41,1.56-8.41,1.56,0-11.7-1.56-18.12-21.25-81.74-21.25-81.74Z" style="fill: #d5838e"/>
        <path d="M520.06,305.46l-26.81,1.85-8.74,96L481.4,450l9.42.86s1.31-17.55,3.71-24.69,16.4-64.9,16.4-64.9,2.27-29.6,43.49-31.93,42.37,51.33,42.37,51.33l6.7,30.24s5.27,18.41,8,28.24.85,15.12.85,15.12l9.28-2c.28-6-3.71-30.52-3.71-30.52s-12.67-69.7-14.1-73.59-.85-29.55-.85-29.55L601.52,305l-19.69-.43Z" style="fill: #e4aab4"/>
        <path d="M327,90.54c-3.42-9.41,34.88,4.28,34.88,4.28s0,4.41.24,10.08a25.66,25.66,0,0,1-34.94-2.23c-.24-.25-.48-.5-.71-.78C327.69,98.07,328.25,94,327,90.54Z" style="opacity: 0.100000001490116;isolation: isolate"/>
        <path d="M320.16,83.92a25.52,25.52,0,0,1,25.66-25.38h0A25.66,25.66,0,1,1,320.16,84.2Z" style="fill: #cf6f80"/>
        <path d="M390,302.75c.59-17.72,20.56-23.94,20.56-23.94l67.9-21.14s11.13-1.43,15.7-6.28c2.38-2.53,7.58-5.85,12-8.43,4-2.37,7.4-4.13,7.4-4.13s69,51.68,68.47,63.35a7.63,7.63,0,0,1-1,3.64c-4.26,7.06-23.05,3.74-74.05,3.49-58.21-.29-38.24,7.42-37.67,10s70.19,38.52,70.19,38.52l-6.28,34.81s-8-8.56-13.69-16-41.09-12-41.09-12-35.08-16.55-45.64-21.11-34.81-21.39-34.81-21.39S389.46,320.47,390,302.75Z" style="fill: #aac9f5"/>
        <path d="M330.22,118.36,319.52,172l2.14,60.54,52.43-.83s-5.35-115.29-8.78-115.29-13.48,22.29-13.48,22.29C339.84,139.56,330.22,118.36,330.22,118.36Z" style="opacity: 0.100000001490116;isolation: isolate"/>
        <path d="M330.22,120.08l-10.7,53.65-4.91,60.62,59.48-.91s-5.35-115.29-8.78-115.29-13.48,22.29-13.48,22.29C339.84,141.27,330.22,120.08,330.22,120.08Z" style="opacity: 0.100000001490116;isolation: isolate"/>
        <path d="M330.22,119.22l-10.7,53.66-4.91,60.6,59.48-.88s-5.35-115.29-8.78-115.29-13.48,22.29-13.48,22.29C339.84,140.38,330.22,119.22,330.22,119.22Z" style="fill: #ffd6db"/>
        <path d="M363,153.07c0,6.6,2.78,19.44,2.78,19.44l7.7,68.26s7.9,3.22,10.89.65,17.11-5.57,17.11-5.57-.43-3-4.07-7.7-6.63-56.06-6.63-56.06l7.7,17.54,34.22,1.07s4.28-13-1.5-16-11.34-14.77-11.34-14.77-5.12-12.84-7.7-14.13-4.7-4.48-4.06-7.27-3.64-7.91-3.64-7.91-4.92-7.49-6.42-10.28-8.34-7.49-10.27-6.42-12.21-2.13-14.78-4.49-4.49,0-7.06-.85-4.36,1.77-4.36,1.77S363,146.47,363,153.07Z" style="opacity: 0.100000001490116;isolation: isolate"/>
        <path d="M363.82,153.06c0,6.61,2.78,19.45,2.78,19.45l7.7,68.25s7.9,3.22,10.89.65,17.11-5.57,17.11-5.57-.43-3-4.07-7.7-6.63-56.06-6.63-56.06l7.77,17.54,34.22,1.07s4.26-13-1.51-16-11.34-14.77-11.34-14.77S415.61,147,413,145.75s-4.71-4.48-4.07-7.27-3.64-7.91-3.64-7.91-4.91-7.49-6.41-10.28-8.34-7.49-10.28-6.42-12.21-2.13-14.77-4.49-4.5,0-7.06-.85-4.37,1.77-4.37,1.77S363.82,146.46,363.82,153.06Z" style="fill: #575a89"/>
        <path d="M400,153.89c7.07.64,9.63-6.42,9.63-6.42S392.91,153.25,400,153.89Z" style="opacity: 0.100000001490116;isolation: isolate"/>
        <path d="M396.33,141.69c1.72-4.06,6.43-4.92,6.43-4.92S394.62,145.75,396.33,141.69Z" style="opacity: 0.100000001490116;isolation: isolate"/>
        <path d="M392.06,165a31.16,31.16,0,0,0-2.57-13.49c-3-6.2,0-21.18,0-22Z" style="opacity: 0.100000001490116;isolation: isolate"/>
        <path d="M340.27,129.27c7.06,9-1.28,57.77-1.28,57.77l-13,36.65s-8.57,17.1-16.05,28.88-6,32.08-9.63,30.17-17.55-8.13-17.55-8.13.18-31.63,2.34-37,19.7-79.86,19.7-79.86L282.07,146.6s4.08-3.65,6.41-16,11.78-18.77,14.77-19.45,7.49-3.25,7.49-3.88,5.14-.86,7.28-1.71,3.21-1.93,4.93-2.14,3.38,1.75,3.38,1.75C325.69,108.36,333.21,120.29,340.27,129.27Z" style="opacity: 0.100000001490116;isolation: isolate"/>
        <path d="M339.42,129.28c7.07,9-1.29,57.76-1.29,57.76l-13,36.65s-8.56,17.1-16.05,28.88-6,32.08-9.63,30.17-17.54-8.13-17.54-8.13.18-31.63,2.33-37,19.69-79.86,19.69-79.86L281.22,146.6s4.09-3.65,6.43-16,11.78-18.77,14.77-19.45,7.49-3.25,7.49-3.88,5.14-.86,7.28-1.71,3.21-1.93,4.92-2.14,3.39,1.75,3.39,1.75C324.83,108.36,332.34,120.3,339.42,129.28Z" style="fill: #575a89"/>
        <path d="M276.94,190.67c-2.55-3.2,0-15.18-.22-17.75s1.72-12.83,3.43-15,1.92-11.35,1.92-11.35,6.63-3.42,8.77-3.85L314.38,137l-4.06,17.76s-3,13.17-2.1,17c.15.77.49,1.16,1,1,3.2-1.06,11.12,7.92,11.12,7.92-8.55-.64-18.61,19.26-18.61,19.26s-13.46-.15-20.31-.78c-.93-.08-1.74-.18-2.37-.28C273.73,198,279.49,193.88,276.94,190.67Z" style="opacity: 0.100000001490116;isolation: isolate"/>
        <path d="M276,190.67c-2.55-3.2,0-15.18-.21-17.75s1.71-12.83,3.43-15,1.92-11.35,1.92-11.35,6.63-3.42,8.77-3.85L313.49,137l-4.07,17.76s-3,13.17-2.11,17c.17.77.5,1.16,1.05,1,3.2-1.06,11.12,7.92,11.12,7.92-8.56-.64-18.61,19.26-18.61,19.26s-13.46-.15-20.32-.78c-.89-.08-1.7-.18-2.33-.28C272.87,198,278.59,193.88,276,190.67Z" style="fill: #575a89"/>
        <path d="M281.86,159.24c.86-4.92,20.54-7.06,20.54-7.06S281,164.16,281.86,159.24Z" style="opacity: 0.100000001490116;isolation: isolate"/>
        <path d="M352.47,337.88c-5.14-2.14.43-12.2.43-12.2s-5.14,2.37-8.13,3.43-5.11,10.05-1.92,15.83,2.56,15.79.85,19.68.43,10.73.86,12.45,7.09,3.64,16.9,1.5,6.21-6.85,5.14-10.28-1.3-13.27.21-17.76S367,339,367,339,357.61,340,352.47,337.88Z" style="fill: #ffd6db"/>
        <path d="M320.11,84.21a25.67,25.67,0,0,1,45.74-16,4.74,4.74,0,0,0-.78,5.1c.35.78.83,1.84.14,2.34a1.35,1.35,0,0,1-1,.11c-2.19-.48-3.35-2.81-4.28-4.87s-2.29-4.34-4.53-4.54c-2.64-.22-5.41,2.67-7.58,1.16-.66-.46-1.08-1.27-1.82-1.6a2.92,2.92,0,0,0-1.68-.11,11.85,11.85,0,0,0-9.68,10.15c-.12,1.06-.33,2.45-1.4,2.61a4.21,4.21,0,0,1-1.17-.14c-2-.22-3.21,2.08-3.85,4-.86,2.56-1.74,5.32-1.24,8,.41,2.12,1.64,4.06,1.71,6.22a11,11,0,0,1-1.43,5.1.27.27,0,0,1-.06.12,25.48,25.48,0,0,1-7-17.62Z" style="opacity: 0.100000001490116;isolation: isolate"/>
        <path d="M367.24,65.75a10.13,10.13,0,0,0,3.25-6.22,7.46,7.46,0,0,0-.27-4.35c-1.1-2.2-3.94-2.75-5.93-4.2-3-2.21-3.82-6.37-5.85-9.48a13.73,13.73,0,0,0-17.11-4.67c-1.77.9-3.41,2.21-5.37,2.45-1.69.24-3.36-.38-5-.77a19.91,19.91,0,0,0-17.88,4.69c-1.68,1.53-3.13,3.48-3.11,5.8s1.58,4.42,1.45,6.75c-.15,3-3,5-5,7.38l-.32.39a15,15,0,0,0,2.35,21.08c1.85,1.46,4.12,2.58,5.24,4.66,1.45,2.7.47,6.06,1.16,9.06a1.33,1.33,0,0,0,.53.93c.57.32,1.22-.21,1.85-.4,1.41-.4,2.66,1,3.36,2.27s1.49,2.82,2.94,3c1.76.22,3-1.67,3.7-3.29a11.82,11.82,0,0,0,1.43-5.1c-.07-2.15-1.32-4.1-1.71-6.22-.51-2.69.37-5.43,1.24-8,.63-1.89,1.85-4.19,3.84-4a4.35,4.35,0,0,0,1.19.14c1-.16,1.27-1.56,1.38-2.61a11.83,11.83,0,0,1,9.68-10.15A3,3,0,0,1,346,65c.74.33,1.15,1.14,1.82,1.6,2.17,1.5,4.93-1.38,7.57-1.16,2.2.19,3.61,2.5,4.54,4.54s2.08,4.39,4.28,4.87a1.33,1.33,0,0,0,1-.12c.69-.5.22-1.55-.12-2.33C363.85,69.61,365.44,67.64,367.24,65.75Z" style="fill: #512e4e"/>
        <polygon points="411.74 209.95 417.59 210.13 425.86 210.38 397.83 438.26 390.13 438.91 389.92 397.18 411.74 209.95" style="fill: #ffceb4"/>
        <polygon points="417.95 211.44 417.59 210.13 425.86 210.38 397.83 438.26 390.13 438.91 417.95 211.44" style="fill: #f8bda5"/>
        <polygon points="364.61 211.62 365.1 211.66 389.92 397.18 390.13 438.91 386.01 437.97 380.72 436.77 352.47 210.81 364.61 211.62" style="fill: #ffceb4"/>
        <polygon points="359.54 212.73 364.61 211.62 365.1 211.66 389.92 397.18 390.13 438.91 386.01 437.97 386.06 437.84 359.54 212.73" style="fill: #f8bda5"/>
        <polygon points="308.81 209.73 310.67 209.93 316.73 210.59 290.2 404.25 288.49 364.71 287.85 349.89 308.81 209.73" style="fill: #f8bda5"/>
        <polygon points="308.81 209.73 310.67 209.93 310.32 211.66 288.49 364.71 287.85 349.89 308.81 209.73" style="fill: #ffceb4"/>
        <polygon points="279.5 210.16 282.3 209.81 288.06 209.1 291.06 374.28 283.51 374.58 279.93 374.71 280.57 280.35 279.5 210.16" style="fill: #f8bda5"/>
        <polygon points="279.5 210.16 282.3 209.81 283.51 374.58 279.93 374.71 280.57 280.35 279.5 210.16" style="fill: #ffceb4"/>
        <polygon points="377.08 214.87 237.35 212.3 237.99 206.31 292.34 205.24 377.72 200.53 488.35 202.25 525.15 202.03 525.58 208.45 377.08 214.87" style="fill: #f8bda5"/>
        <polygon points="371.08 198.18 237.99 206.31 416.02 206.74 525.15 202.03 371.08 198.18" style="fill: #ffceb4"/>
        <path d="M589.77,57.81s3.58,6.72,8.7,14.7c.08.14.18.28.28.42-.09.15-.18.29-.28.43-1.66,2.52-7.49-.82-9.76,1.14-5.78,5-9.51,13.7-17.76,13.7a32.68,32.68,0,0,1-9.17-1.31l-.24-.91a122.28,122.28,0,0,0-7.23-19.9l0-.14C535.85,25.28,589.77,57.81,589.77,57.81Z" style="opacity: 0.100000001490116;isolation: isolate"/>
        <path d="M541.42,39.75A33,33,0,1,1,538,54.39,32.94,32.94,0,0,1,541.42,39.75Z" style="fill: #ffccd0"/>
        <path d="M563.38,100.88a58.49,58.49,0,0,0,11.56-5.26c7.41-4.58,26-.58,26-.58l14.55,1.71a5.7,5.7,0,0,1,1-1.82,15.15,15.15,0,0,0,6.67,3.53c12.83,2.15-65.48,15-65.48,15S562.86,111.09,563.38,100.88Z" style="opacity: 0.100000001490116;isolation: isolate"/>
        <path d="M513.6,238.83s69,51.68,68.47,63.35a7.63,7.63,0,0,1-1,3.64c-17.67,1.76-65.2-43.87-65.2-43.87s-4.58-17.12-8.29-18.26a4.56,4.56,0,0,1-1.4-.73C510.22,240.59,513.6,238.83,513.6,238.83Z" style="opacity: 0.100000001490116;isolation: isolate"/>
        <path d="M398,187.94c9.34,0,16.92,2.66,16.92,7s-7.54,8.67-16.89,8.67-16.92-4.33-16.92-8.67S388.67,187.94,398,187.94Z" style="fill: #e8eaf2"/>
        <path d="M398,187.94c9.34,0,16.92,2.66,16.92,7s-7.54,8.67-16.89,8.67-16.92-4.33-16.92-8.67S388.67,187.94,398,187.94Z" style="opacity: 0.100000001490116;isolation: isolate"/>
        <ellipse cx="398.03" cy="194.93" rx="16.91" ry="7.84" style="fill: #e8eaf2"/>
        <ellipse cx="397.98" cy="195.23" rx="10.09" ry="4.07" style="opacity: 0.050000000745058;isolation: isolate"/>
        <path d="M382.66,192a15.5,15.5,0,0,0,3,.19c3.52-.1,6.29-1.5,6.63-3.6.43-2.64-3.17-5.44-8-6.22a16.06,16.06,0,0,0-2.86-.2c-3.6.08-6.4,1.48-6.75,3.61C374.19,188.45,377.79,191.25,382.66,192Zm-5.53-5.82c.23-1.44,2-2.41,4.37-2.57a11.71,11.71,0,0,1,2.51.12c3.49.59,6.07,2.57,5.77,4.48-.27,1.63-2.53,2.66-5.34,2.58a9,9,0,0,1-1.56-.14C379.39,190.11,376.82,188.1,377.13,186.19Z" style="fill: #f1cec8"/>
        <path d="M397.85,191c4.39,0,8,1.57,8,3.52a2,2,0,0,1-.66,1.4c-1.23,1.24-4,2.11-7.3,2.11-3.51,0-6.48-1-7.53-2.4a1.82,1.82,0,0,1-.42-1.11C389.9,192.59,393.46,191,397.85,191Z" style="fill: #f1cec8"/>
        <path d="M397.85,191c4.39,0,8,1.57,8,3.51a2,2,0,0,1-.66,1.4,15.36,15.36,0,0,1-6.16,1.29h-1.91a15.37,15.37,0,0,1-6.76-1.56,1.82,1.82,0,0,1-.42-1.11C389.9,192.59,393.46,191,397.85,191Z" style="opacity: 0.100000001490116;isolation: isolate"/>
        <path d="M384.22,182.41c4.87.77,8.47,3.55,8,6.22-.34,2.1-3.09,3.5-6.63,3.6a15,15,0,0,1-1.21-1.43c2.82.08,5.08-1,5.34-2.58.31-1.91-2.28-3.91-5.77-4.48a11.71,11.71,0,0,0-2.51-.12,11.65,11.65,0,0,1-.12-1.44A15.19,15.19,0,0,1,384.22,182.41Z" style="opacity: 0.100000001490116;isolation: isolate"/>
        <path d="M381.71,179.4v2.2A15.36,15.36,0,0,0,397,197H399a15.36,15.36,0,0,0,15.36-15.36v-2.2Z" style="fill: #f1cec8"/>
        <ellipse cx="398.11" cy="178.92" rx="16.4" ry="4.67" style="fill: #f6e2df"/>
        <ellipse cx="398.03" cy="178.63" rx="15.55" ry="4.22" style="opacity: 0.100000001490116;isolation: isolate"/>
        <ellipse cx="397.98" cy="178.47" rx="15.19" ry="4.22" style="fill: #fdf9f9"/>
        <path d="M408.66,179.17h0a.42.42,0,0,1,.43-.42.43.43,0,1,1,0,.85A.42.42,0,0,1,408.66,179.17Zm.43-.27a.27.27,0,1,0,.27.27.27.27,0,0,0-.27-.27Z" style="fill: #42312e;opacity: 0.300000011920929;isolation: isolate"/>
        <path d="M408.17,178.27h0a.43.43,0,0,1,.44-.42.43.43,0,1,1-.44.43Zm.16,0h0a.26.26,0,0,0,.28.26.27.27,0,0,0,.26-.28.27.27,0,0,0-.54,0Z" style="fill: #42312e;opacity: 0.300000011920929;isolation: isolate"/>
        <path d="M408.66,176.91h0a.43.43,0,0,1,.43-.43.43.43,0,0,1,.43.43.44.44,0,0,1-.43.43A.43.43,0,0,1,408.66,176.91Zm.16,0h0a.27.27,0,1,0,.27-.27A.27.27,0,0,0,408.82,176.91Z" style="fill: #42312e;opacity: 0.300000011920929;isolation: isolate"/>
        <path d="M405.53,180.08h0a.43.43,0,0,1,.43-.42.43.43,0,0,1,.42.44.43.43,0,0,1-.85,0Zm.41-.27a.26.26,0,0,0-.26.27v.09a.27.27,0,0,0,.54-.09h0a.27.27,0,0,0-.27-.26Z" style="fill: #42312e;opacity: 0.300000011920929;isolation: isolate"/>
        <path d="M392.93,179.24a.43.43,0,1,1,.43.43A.43.43,0,0,1,392.93,179.24Zm.15,0a.28.28,0,0,0,.28.27h0a.27.27,0,1,0,0-.54A.28.28,0,0,0,393.08,179.24Z" style="fill: #42312e;opacity: 0.300000011920929;isolation: isolate"/>
        <path d="M390.13,180.35h0a.43.43,0,1,1,.85,0,.43.43,0,0,1-.85,0Zm.43-.31h0a.29.29,0,0,0-.24.31.28.28,0,0,0,.28.27.28.28,0,0,0,0-.55Z" style="fill: #42312e;opacity: 0.300000011920929;isolation: isolate"/>
        <path d="M390,178.54h0a.43.43,0,1,1,.42.43A.42.42,0,0,1,390,178.54Zm.15,0h0a.27.27,0,0,0,.27.27.27.27,0,1,0,0-.54A.27.27,0,0,0,390.19,178.54Z" style="fill: #42312e;opacity: 0.300000011920929;isolation: isolate"/>
        <path d="M389.13,176.09a.42.42,0,0,1-.42-.43h0a.43.43,0,1,1,.43.43Zm0-.71h0a.26.26,0,0,0-.25.28.17.17,0,0,0,0,.1.27.27,0,0,0,.31.22.29.29,0,0,0,.23-.32.28.28,0,0,0-.27-.27Z" style="fill: #42312e;opacity: 0.300000011920929;isolation: isolate"/>
        <path d="M389.36,179.62h0a.43.43,0,1,1,.43.43A.42.42,0,0,1,389.36,179.62Zm.43-.29h0a.27.27,0,0,0-.25.29h0a.28.28,0,0,0,.28.27.27.27,0,1,0,0-.54Z" style="fill: #42312e;opacity: 0.300000011920929;isolation: isolate"/>
        <path d="M387.81,178.74h0a.43.43,0,1,1,.42.43A.43.43,0,0,1,387.81,178.74Zm.42-.25a.26.26,0,0,0-.26.25h0a.27.27,0,1,0,.26-.28Z" style="fill: #42312e;opacity: 0.300000011920929;isolation: isolate"/>
        <path d="M388.38,180.17a.41.41,0,0,1-.41-.42h0a.43.43,0,1,1,.42.43Zm-.09-.69a.27.27,0,0,0,.1.54h.09a.27.27,0,0,0,.22-.32.28.28,0,0,0-.31-.22Z" style="fill: #42312e;opacity: 0.300000011920929;isolation: isolate"/>
        <path d="M388.44,177.18h0a.43.43,0,0,1,.43-.43.43.43,0,1,1,0,.86A.43.43,0,0,1,388.44,177.18Zm.43-.25a.27.27,0,0,0-.27.25h0a.27.27,0,1,0,.27-.27Z" style="fill: #42312e;opacity: 0.300000011920929;isolation: isolate"/>
        <path d="M386.11,176.64h0a.43.43,0,1,1,.85,0,.43.43,0,0,1-.85,0Zm.43-.28h0a.29.29,0,0,0-.28.28h0a.28.28,0,0,0,.28.27.27.27,0,0,0,.27-.27.28.28,0,0,0-.27-.28Z" style="fill: #42312e;opacity: 0.300000011920929;isolation: isolate"/>
        <path d="M392.93,175.61a.43.43,0,1,1,.43.43A.43.43,0,0,1,392.93,175.61Zm.15,0a.28.28,0,0,0,.28.27h0a.27.27,0,1,0,0-.54A.28.28,0,0,0,393.08,175.61Z" style="fill: #42312e;opacity: 0.300000011920929;isolation: isolate"/>
        <path d="M394.55,175h0a.43.43,0,1,1,.85,0,.43.43,0,1,1-.85,0Zm.42-.31h0a.26.26,0,0,0-.24.3h0a.27.27,0,0,0,.27.27.28.28,0,0,0,.28-.27.29.29,0,0,0-.28-.28Z" style="fill: #42312e;opacity: 0.300000011920929;isolation: isolate"/>
        <path d="M398.12,175.18h0a.42.42,0,0,1,.43-.42.43.43,0,0,1,.42.44.42.42,0,0,1-.43.42A.43.43,0,0,1,398.12,175.18Zm.15,0h0a.27.27,0,0,0,.28.26.26.26,0,0,0,.26-.28.25.25,0,0,0-.27-.26A.27.27,0,0,0,398.27,175.18Z" style="fill: #42312e;opacity: 0.300000011920929;isolation: isolate"/>
        <path d="M395.07,179.38h0a.43.43,0,0,1,.43-.42.43.43,0,0,1,.42.44.43.43,0,1,1-.85,0Zm.14,0a.28.28,0,0,0,.28.27.27.27,0,1,0,0-.54A.28.28,0,0,0,395.21,179.38Z" style="fill: #42312e;opacity: 0.300000011920929;isolation: isolate"/>
        <path d="M406.62,179.81h0a.43.43,0,0,1,.86,0,.43.43,0,0,1-.86,0Zm.16,0h0a.27.27,0,1,0,.27-.27A.27.27,0,0,0,406.78,179.81Z" style="fill: #42312e;opacity: 0.300000011920929;isolation: isolate"/>
        <path d="M404.83,178.84h0a.43.43,0,1,1,.42.42A.42.42,0,0,1,404.83,178.84Zm.42-.3h0a.28.28,0,0,0-.25.3h0a.27.27,0,0,0,.27.27.28.28,0,0,0,.28-.27.29.29,0,0,0-.28-.28Z" style="fill: #42312e;opacity: 0.300000011920929;isolation: isolate"/>
        <path d="M403.29,179.33h0a.43.43,0,0,1,.43-.43.43.43,0,0,1,.43.43.43.43,0,0,1-.43.43A.44.44,0,0,1,403.29,179.33Zm.43-.28h0a.28.28,0,0,0-.27.28.27.27,0,0,0,.54,0,.28.28,0,0,0-.27-.28Z" style="fill: #42312e;opacity: 0.300000011920929;isolation: isolate"/>
        <path d="M403,178.26h0a.43.43,0,1,1,.43.43A.44.44,0,0,1,403,178.26Zm.43-.27a.27.27,0,1,0,.27.27.27.27,0,0,0-.27-.27Z" style="fill: #42312e;opacity: 0.300000011920929;isolation: isolate"/>
        <path d="M403,177.29h0a.44.44,0,0,1,.43-.43.43.43,0,0,1,0,.86A.44.44,0,0,1,403,177.29Zm.43-.25a.27.27,0,0,0-.27.25h0a.27.27,0,1,0,.27-.27Z" style="fill: #42312e;opacity: 0.300000011920929;isolation: isolate"/>
        <path d="M402.59,180.69h0a.43.43,0,1,1,.85,0,.43.43,0,1,1-.85,0Zm.15,0h0a.27.27,0,0,0,.27.27.27.27,0,1,0,0-.54A.27.27,0,0,0,402.74,180.69Z" style="fill: #42312e;opacity: 0.300000011920929;isolation: isolate"/>
        <path d="M398.34,180.79h0a.43.43,0,0,1,.44-.42.43.43,0,1,1-.44.43Zm.42-.27a.26.26,0,0,0-.26.27h0a.27.27,0,1,0,.54,0,.26.26,0,0,0-.28-.26Z" style="fill: #42312e;opacity: 0.300000011920929;isolation: isolate"/>
        <path d="M398.87,179.75h0a.43.43,0,1,1,.85,0,.43.43,0,0,1-.85,0Zm.16,0h0a.29.29,0,0,0,.28.28.28.28,0,0,0,.27-.28.27.27,0,0,0-.54,0Z" style="fill: #42312e;opacity: 0.300000011920929;isolation: isolate"/>
        <path d="M401,179.24h0a.43.43,0,0,1,.43-.42.43.43,0,0,1,.42.44.43.43,0,0,1-.85,0Zm.14,0a.28.28,0,0,0,.28.27.27.27,0,1,0,0-.54A.28.28,0,0,0,401.16,179.24Z" style="fill: #42312e;opacity: 0.300000011920929;isolation: isolate"/>
        <path d="M396.44,177.56h0a.43.43,0,1,1,.43.43A.43.43,0,0,1,396.44,177.56Zm.16,0h0a.27.27,0,1,0,.27-.27A.27.27,0,0,0,396.6,177.56Z" style="fill: #42312e;opacity: 0.300000011920929;isolation: isolate"/>
        <path d="M398.38,178.74h0a.42.42,0,0,1,.43-.42.42.42,0,0,1,.42.42.43.43,0,1,1-.85,0Zm.43-.25a.26.26,0,0,0-.27.25h0a.27.27,0,1,0,.54,0,.27.27,0,0,0-.27-.27Z" style="fill: #42312e;opacity: 0.300000011920929;isolation: isolate"/>
        <path d="M396.12,176.33h0a.44.44,0,0,1,.43-.43.43.43,0,0,1,.43.43.43.43,0,0,1-.43.43A.43.43,0,0,1,396.12,176.33Zm.16,0h0a.27.27,0,1,0,.27-.27A.27.27,0,0,0,396.28,176.33Z" style="fill: #42312e;opacity: 0.300000011920929;isolation: isolate"/>
        <path d="M396.29,175.17h0a.43.43,0,1,1,.43.43A.42.42,0,0,1,396.29,175.17Zm.15,0h0a.29.29,0,0,0,.28.28.28.28,0,0,0,.27-.28.27.27,0,0,0-.27-.27A.28.28,0,0,0,396.44,175.17Z" style="fill: #42312e;opacity: 0.300000011920929;isolation: isolate"/>
        <path d="M397.18,176.36h0a.43.43,0,1,1,.43.43A.42.42,0,0,1,397.18,176.36Zm.16,0h0a.27.27,0,1,0,.54,0,.27.27,0,0,0-.54,0Z" style="fill: #42312e;opacity: 0.300000011920929;isolation: isolate"/>
        <path d="M399.79,178.8a.42.42,0,0,1-.42-.42h0a.43.43,0,0,1,.43-.43.43.43,0,0,1,0,.86Zm-.08-.69a.27.27,0,0,0,.09.53.14.14,0,0,0,.09,0,.27.27,0,1,0-.09-.53A.14.14,0,0,0,399.71,178.11Z" style="fill: #42312e;opacity: 0.300000011920929;isolation: isolate"/>
        <path d="M401.43,178.49a.42.42,0,0,1-.41-.43h0a.43.43,0,1,1,.85,0,.43.43,0,0,1-.43.42Zm-.09-.7a.29.29,0,0,0-.22.32.27.27,0,0,0,.32.22h.09a.26.26,0,0,0,.22-.31.28.28,0,0,0-.31-.23Z" style="fill: #42312e;opacity: 0.300000011920929;isolation: isolate"/>
        <path d="M398.87,176.06h0a.43.43,0,1,1,.43.43A.43.43,0,0,1,398.87,176.06Zm.16,0h0a.27.27,0,1,0,.27-.27A.27.27,0,0,0,399,176.06Z" style="fill: #42312e;opacity: 0.300000011920929;isolation: isolate"/>
        <path d="M402.17,176.66h0a.27.27,0,1,1,.27.27A.27.27,0,0,1,402.17,176.66Zm.1,0a.17.17,0,0,0,.17.17.18.18,0,0,0,.17-.17.17.17,0,0,0-.17-.17A.16.16,0,0,0,402.27,176.66Z" style="fill: #42312e;opacity: 0.300000011920929;isolation: isolate"/>
        <path d="M401.34,177.18h0a.28.28,0,0,1,.55,0,.28.28,0,0,1-.28.27A.27.27,0,0,1,401.34,177.18Zm.27-.17a.17.17,0,0,0,0,.34.17.17,0,1,0,0-.34Z" style="fill: #42312e;opacity: 0.300000011920929;isolation: isolate"/>
        <path d="M397.3,175h0a.27.27,0,1,1,.27.27A.27.27,0,0,1,397.3,175Zm.1,0h0a.17.17,0,0,0,.17.17.16.16,0,0,0,.17-.17.17.17,0,0,0-.17-.17A.18.18,0,0,0,397.4,175Z" style="fill: #42312e;opacity: 0.300000011920929;isolation: isolate"/>
        <path d="M396.71,179.55h0a.27.27,0,1,1,.27.27A.27.27,0,0,1,396.71,179.55Zm.1,0a.17.17,0,1,0,.34,0,.17.17,0,0,0-.34,0Z" style="fill: #42312e;opacity: 0.300000011920929;isolation: isolate"/>
        <path d="M396,179.87h0a.27.27,0,0,1,.27-.27.27.27,0,1,1,0,.54A.27.27,0,0,1,396,179.87Zm.27-.17a.18.18,0,0,0-.17.17h0a.17.17,0,0,0,.17.17.17.17,0,0,0,.18-.17.18.18,0,0,0-.18-.17Z" style="fill: #42312e;opacity: 0.300000011920929;isolation: isolate"/>
        <path d="M397.14,179.07a.27.27,0,0,1-.28-.27h0a.28.28,0,1,1,.28.27Zm0-.44a.17.17,0,0,0-.18.17.18.18,0,0,0,.18.17.18.18,0,0,0,.17-.17.17.17,0,0,0-.17-.17Z" style="fill: #42312e;opacity: 0.300000011920929;isolation: isolate"/>
        <path d="M391.55,176.28h0a.27.27,0,0,1,.27-.27.27.27,0,1,1,0,.54A.27.27,0,0,1,391.55,176.28Zm.27-.18a.17.17,0,0,0-.17.18h0a.18.18,0,0,0,.17.17.17.17,0,0,0,.17-.17h0a.17.17,0,0,0-.17-.17Z" style="fill: #42312e;opacity: 0.300000011920929;isolation: isolate"/>
        <path d="M391.22,177h0a.28.28,0,0,1,.28-.26.27.27,0,1,1-.28.27Zm.27-.17a.17.17,0,0,0-.17.17.16.16,0,0,0,.17.17.17.17,0,0,0,.17-.17.18.18,0,0,0-.17-.17Z" style="fill: #42312e;opacity: 0.300000011920929;isolation: isolate"/>
        <path d="M391.49,177.61a.27.27,0,0,1,.27-.27h0a.25.25,0,0,1,.25.27.27.27,0,0,1-.54,0Zm.1,0a.18.18,0,0,0,.17.17.17.17,0,0,0,.17-.17v0a.15.15,0,0,0-.17-.15A.17.17,0,0,0,391.59,177.61Z" style="fill: #42312e;opacity: 0.300000011920929;isolation: isolate"/>
        <path d="M392.2,179.6h0a.27.27,0,1,1,.27.27A.26.26,0,0,1,392.2,179.6Zm.27-.18h0a.16.16,0,0,0-.16.18h0a.17.17,0,0,0,.17.17.18.18,0,0,0,.17-.17h0a.18.18,0,0,0-.17-.17Z" style="fill: #42312e;opacity: 0.300000011920929;isolation: isolate"/>
        <path d="M388.17,178a.27.27,0,1,1,.27-.27.27.27,0,0,1-.27.27Zm0-.44a.17.17,0,0,0-.17.17h0a.16.16,0,0,0,.17.17.17.17,0,0,0,.17-.17.18.18,0,0,0-.17-.17Z" style="fill: #42312e;opacity: 0.300000011920929;isolation: isolate"/>
        <path d="M394.27,179.38h0a.28.28,0,0,1,.28-.27.27.27,0,1,1,0,.54A.28.28,0,0,1,394.27,179.38Zm.1,0h0a.17.17,0,0,0,.18.17.17.17,0,0,0,.17-.17.18.18,0,0,0-.17-.17A.18.18,0,0,0,394.37,179.38Z" style="fill: #42312e;opacity: 0.300000011920929;isolation: isolate"/>
        <path d="M392,178.27h0a.27.27,0,1,1,.27.27A.27.27,0,0,1,392,178.27Zm.1,0a.17.17,0,0,0,.17.17.18.18,0,0,0,.17-.17.17.17,0,0,0-.17-.17A.16.16,0,0,0,392.13,178.27Z" style="fill: #42312e;opacity: 0.300000011920929;isolation: isolate"/>
        <path d="M393.2,180.42a.28.28,0,0,1-.27-.28h0a.27.27,0,1,1,.54,0,.28.28,0,0,1-.27.28Zm0-.45a.18.18,0,0,0-.17.17.17.17,0,1,0,.34,0,.18.18,0,0,0-.17-.17Z" style="fill: #42312e;opacity: 0.300000011920929;isolation: isolate"/>
        <path d="M387,178.26a.14.14,0,0,1,0-.09.27.27,0,0,1,.31-.22.27.27,0,0,1,.23.31.28.28,0,0,1-.28.27A.27.27,0,0,1,387,178.26Zm.26-.18a.18.18,0,0,0-.17.18.17.17,0,0,0,.17.17h.08a.17.17,0,0,0,.14-.21.18.18,0,0,0-.22-.14Z" style="fill: #42312e;opacity: 0.300000011920929;isolation: isolate"/>
        <path d="M390.46,175.34h0a.28.28,0,0,1,.55,0,.28.28,0,0,1-.28.27A.28.28,0,0,1,390.46,175.34Zm.1,0a.17.17,0,0,0,.17.17.18.18,0,0,0,.17-.17.17.17,0,0,0-.17-.17A.16.16,0,0,0,390.56,175.34Z" style="fill: #42312e;opacity: 0.300000011920929;isolation: isolate"/>
        <path d="M399.63,175h0a.27.27,0,0,1,.27-.27.27.27,0,1,1,0,.54A.27.27,0,0,1,399.63,175Zm.1,0h0a.17.17,0,0,0,.17.17.16.16,0,0,0,.17-.17.17.17,0,0,0-.17-.17A.18.18,0,0,0,399.73,175Z" style="fill: #42312e;opacity: 0.300000011920929;isolation: isolate"/>
        <path d="M407.63,177.56a.27.27,0,0,1-.27-.27h0a.27.27,0,0,1,.27-.27.27.27,0,1,1,0,.54Zm0-.44a.17.17,0,0,0-.17.17h0a.18.18,0,0,0,.17.17.17.17,0,0,0,.17-.17.16.16,0,0,0-.17-.17Z" style="fill: #42312e;opacity: 0.300000011920929;isolation: isolate"/>
        <path d="M400.62,175.34h0a.27.27,0,1,1,.54,0,.27.27,0,1,1-.54,0Zm.1,0a.18.18,0,0,0,.17.17.17.17,0,0,0,.17-.17.16.16,0,0,0-.17-.17A.17.17,0,0,0,400.72,175.34Z" style="fill: #42312e;opacity: 0.300000011920929;isolation: isolate"/>
        <path d="M406.65,178.54h0a.28.28,0,0,1,.28-.27.27.27,0,1,1,0,.54A.28.28,0,0,1,406.65,178.54Zm.11,0a.16.16,0,0,0,.17.17h0a.17.17,0,0,0,.17-.17.18.18,0,0,0-.17-.17A.17.17,0,0,0,406.76,178.54Z" style="fill: #42312e;opacity: 0.300000011920929;isolation: isolate"/>
        <path d="M405.68,176.91h0a.27.27,0,0,1,.28-.26.27.27,0,1,1,0,.54A.27.27,0,0,1,405.68,176.91Zm.1,0a.17.17,0,0,0,.17.17.18.18,0,0,0,.17-.17.17.17,0,0,0-.17-.17A.16.16,0,0,0,405.78,176.91Z" style="fill: #42312e;opacity: 0.300000011920929;isolation: isolate"/>
        <path d="M410.59,178h0a.27.27,0,1,1,.27.27A.27.27,0,0,1,410.59,178Zm.27-.17a.17.17,0,0,0-.17.17h0a.18.18,0,0,0,.17.17A.17.17,0,0,0,411,178a.16.16,0,0,0-.17-.17Z" style="fill: #42312e;opacity: 0.300000011920929;isolation: isolate"/>
        <path d="M403.72,180.42a.27.27,0,0,1,.27-.28.28.28,0,1,1,0,.55A.27.27,0,0,1,403.72,180.42Zm.1,0a.18.18,0,0,0,.17.17.18.18,0,0,0,.18-.17.18.18,0,0,0-.18-.18A.18.18,0,0,0,403.82,180.42Z" style="fill: #42312e;opacity: 0.300000011920929;isolation: isolate"/>
        <path d="M401.76,180.55a.27.27,0,0,1,.27-.27.27.27,0,1,1,0,.54A.27.27,0,0,1,401.76,180.55Zm.1,0a.18.18,0,0,0,.17.17.18.18,0,0,0,.18-.17.17.17,0,0,0-.18-.17A.17.17,0,0,0,401.86,180.55Z" style="fill: #42312e;opacity: 0.300000011920929;isolation: isolate"/>
        <circle cx="410.01" cy="179.09" r="0.21" style="fill: #42312e;opacity: 0.300000011920929;isolation: isolate"/>
        <circle cx="408.44" cy="176.09" r="0.21" style="fill: #42312e;opacity: 0.300000011920929;isolation: isolate"/>
        <circle cx="406.29" cy="177.45" r="0.21" style="fill: #42312e;opacity: 0.300000011920929;isolation: isolate"/>
        <circle cx="407.69" cy="175.51" r="0.21" style="fill: #42312e;opacity: 0.300000011920929;isolation: isolate"/>
        <circle cx="399.82" cy="176.96" r="0.21" style="fill: #42312e;opacity: 0.300000011920929;isolation: isolate"/>
        <circle cx="406.62" cy="176.64" r="0.21" style="fill: #42312e;opacity: 0.300000011920929;isolation: isolate"/>
        <circle cx="407.42" cy="176.54" r="0.21" style="fill: #42312e;opacity: 0.300000011920929;isolation: isolate"/>
        <circle cx="405.86" cy="178.16" r="0.21" style="fill: #42312e;opacity: 0.300000011920929;isolation: isolate"/>
        <circle cx="394.04" cy="176.91" r="0.21" style="fill: #42312e;opacity: 0.300000011920929;isolation: isolate"/>
        <circle cx="390.88" cy="177.52" r="0.21" style="fill: #42312e;opacity: 0.300000011920929;isolation: isolate"/>
        <circle cx="391.76" cy="180.24" r="0.21" style="fill: #42312e;opacity: 0.300000011920929;isolation: isolate"/>
        <circle cx="390.56" cy="179.33" r="0.21" style="fill: #42312e;opacity: 0.300000011920929;isolation: isolate"/>
        <circle cx="394.1" cy="180.45" r="0.21" style="fill: #42312e;opacity: 0.300000011920929;isolation: isolate"/>
        <circle cx="394.9" cy="176.88" r="0.21" style="fill: #42312e;opacity: 0.300000011920929;isolation: isolate"/>
        <circle cx="397.52" cy="179.97" r="0.21" style="fill: #42312e;opacity: 0.300000011920929;isolation: isolate"/>
        <circle cx="392.77" cy="177.61" r="0.21" style="fill: #42312e;opacity: 0.300000011920929;isolation: isolate"/>
        <circle cx="395.08" cy="180.66" r="0.21" style="fill: #42312e;opacity: 0.300000011920929;isolation: isolate"/>
        <circle cx="404.61" cy="180.24" r="0.21" style="fill: #42312e;opacity: 0.300000011920929;isolation: isolate"/>
        <circle cx="391.49" cy="178.32" r="0.21" style="fill: #42312e;opacity: 0.300000011920929;isolation: isolate"/>
        <circle cx="386.54" cy="177.95" r="0.21" style="fill: #42312e;opacity: 0.300000011920929;isolation: isolate"/>
        <circle cx="387.96" cy="176.7" r="0.16" style="fill: #42312e;opacity: 0.300000011920929;isolation: isolate"/>
        <circle cx="392.93" cy="176.36" r="0.16" style="fill: #42312e;opacity: 0.300000011920929;isolation: isolate"/>
        <circle cx="402.44" cy="178.32" r="0.16" style="fill: #42312e;opacity: 0.300000011920929;isolation: isolate"/>
        <circle cx="389.36" cy="177.87" r="0.16" style="fill: #42312e;opacity: 0.300000011920929;isolation: isolate"/>
        <circle cx="393.95" cy="176.12" r="0.16" style="fill: #42312e;opacity: 0.300000011920929;isolation: isolate"/>
        <circle cx="390.04" cy="176.86" r="0.16" style="fill: #42312e;opacity: 0.300000011920929;isolation: isolate"/>
        <circle cx="392.4" cy="175.27" r="0.16" style="fill: #42312e;opacity: 0.300000011920929;isolation: isolate"/>
        <circle cx="394.1" cy="175" r="0.16" style="fill: #42312e;opacity: 0.300000011920929;isolation: isolate"/>
        <circle cx="401.88" cy="175.76" r="0.16" style="fill: #42312e;opacity: 0.300000011920929;isolation: isolate"/>
        <circle cx="400.17" cy="175.97" r="0.16" style="fill: #42312e;opacity: 0.300000011920929;isolation: isolate"/>
        <circle cx="404.49" cy="177.52" r="0.16" style="fill: #42312e;opacity: 0.300000011920929;isolation: isolate"/>
        <circle cx="395.78" cy="177.61" r="0.16" style="fill: #42312e;opacity: 0.300000011920929;isolation: isolate"/>
        <circle cx="394.78" cy="177.84" r="0.16" style="fill: #42312e;opacity: 0.300000011920929;isolation: isolate"/>
        <circle cx="400.52" cy="178.11" r="0.16" style="fill: #42312e;opacity: 0.300000011920929;isolation: isolate"/>
        <circle cx="397.98" cy="178.39" r="0.16" style="fill: #42312e;opacity: 0.300000011920929;isolation: isolate"/>
        <circle cx="400.71" cy="176.45" r="0.16" style="fill: #42312e;opacity: 0.300000011920929;isolation: isolate"/>
        <circle cx="394.97" cy="178.39" r="0.16" style="fill: #42312e;opacity: 0.300000011920929;isolation: isolate"/>
        <circle cx="395.84" cy="178.54" r="0.16" style="fill: #42312e;opacity: 0.300000011920929;isolation: isolate"/>
        <circle cx="409.09" cy="176.12" r="0.16" style="fill: #42312e;opacity: 0.300000011920929;isolation: isolate"/>
        <circle cx="403.84" cy="176.7" r="0.16" style="fill: #42312e;opacity: 0.300000011920929;isolation: isolate"/>
        <circle cx="405.65" cy="175.51" r="0.16" style="fill: #42312e;opacity: 0.300000011920929;isolation: isolate"/>
        <circle cx="406.37" cy="178.37" r="0.16" style="fill: #42312e;opacity: 0.300000011920929;isolation: isolate"/>
        <circle cx="405.52" cy="176.46" r="0.16" style="fill: #42312e;opacity: 0.300000011920929;isolation: isolate"/>
        <circle cx="410.5" cy="177.12" r="0.16" style="fill: #42312e;opacity: 0.300000011920929;isolation: isolate"/>
        <circle cx="388.92" cy="176.46" r="0.16" style="fill: #42312e;opacity: 0.300000011920929;isolation: isolate"/>
        <circle cx="387.13" cy="176.21" r="0.21" style="fill: #42312e;opacity: 0.300000011920929;isolation: isolate"/>
        <circle cx="385.63" cy="178.47" r="0.21" style="fill: #42312e;opacity: 0.300000011920929;isolation: isolate"/>
        <circle cx="386.75" cy="177.34" r="0.21" style="fill: #42312e;opacity: 0.300000011920929;isolation: isolate"/>
        <circle cx="386.26" cy="178.81" r="0.21" style="fill: #42312e;opacity: 0.300000011920929;isolation: isolate"/>
        <circle cx="385.63" cy="177.66" r="0.21" style="fill: #42312e;opacity: 0.300000011920929;isolation: isolate"/>
        <circle cx="387.34" cy="177.45" r="0.21" style="fill: #42312e;opacity: 0.300000011920929;isolation: isolate"/>
        <circle cx="384.95" cy="177.45" r="0.21" style="fill: #42312e;opacity: 0.300000011920929;isolation: isolate"/>
        <circle cx="404.98" cy="177.01" r="0.21" style="fill: #42312e;opacity: 0.300000011920929;isolation: isolate"/>
        <circle cx="401.96" cy="174.94" r="0.21" style="fill: #42312e;opacity: 0.300000011920929;isolation: isolate"/>
        <circle cx="398.26" cy="179.42" r="0.21" style="fill: #42312e;opacity: 0.300000011920929;isolation: isolate"/>
        <circle cx="402.92" cy="174.91" r="0.21" style="fill: #42312e;opacity: 0.300000011920929;isolation: isolate"/>
        <circle cx="404.22" cy="175.09" r="0.21" style="fill: #42312e;opacity: 0.300000011920929;isolation: isolate"/>
        <circle cx="398.5" cy="176.27" r="0.21" style="fill: #42312e;opacity: 0.300000011920929;isolation: isolate"/>
        <circle cx="409.94" cy="177.73" r="0.21" style="fill: #42312e;opacity: 0.300000011920929;isolation: isolate"/>
        <circle cx="408.05" cy="179.65" r="0.21" style="fill: #42312e;opacity: 0.300000011920929;isolation: isolate"/>
        <circle cx="400.88" cy="180.59" r="0.21" style="fill: #42312e;opacity: 0.300000011920929;isolation: isolate"/>
        <circle cx="402.52" cy="179.65" r="0.21" style="fill: #42312e;opacity: 0.300000011920929;isolation: isolate"/>
        <circle cx="397.57" cy="180.8" r="0.21" style="fill: #42312e;opacity: 0.300000011920929;isolation: isolate"/>
        <path d="M402.4,178.91c-4.76.73-7.74-.2-8.89-.69a.42.42,0,0,1-.14-.09.53.53,0,0,1-.05-.76c1.21-1.44,4.48-.91,5.1-.93s2.77.29,2.77.7-1.67.8-3.11.57.64-.7.64-.7-4-.93-3.67.39,6.82.72,6.82.72c5.42-1.13-1.62-2.43-1.62-2.43s-6.18-1.19-10.26.7,2.27,3.49,2.27,3.49,11.49,1.51,15.5-1.19-4.5-3.11-4.5-3.11S408.64,178,402.4,178.91Z" style="opacity: 0.100000001490116;isolation: isolate"/>
        <path d="M615.46,97.59s.86-2.83,3.42-3.12S628,98.76,628,101s6,6,12.83,12.57,6.85,38,4.57,43.93-6.85,36.24-6.85,36.24S630.28,220,627.15,228s-14.26,57.92-14.26,57.92-12.28,15.37-28.83,19.69S517.58,262,517.58,262s-4.54-17.1-8.24-18.24-3.42-6-3.42-6,7.7-3.14,6.85-6,5.73-10.56,8.27-12.56,6-5.7,3.11-8-1.71-12.55-1.71-12.55l2.29-24.55-2.86-42.5s6-6,8-12.27,6.28-3.15,10.84-8S559,103.05,559,103.05a61,61,0,0,0,16-6.58c7.41-4.56,26-.57,26-.57Z" style="fill: #ff748e"/>
        <path d="M428,179.48c.57,2,9.41,2,9.41,2s18,4.58,23.69,1.15,25.66-4.29,25.66-4.29l20.39-21.77,4.14-4.44L536.63,184l0,.05a2,2,0,0,1-.19.12h0l-1.22.71c-6.1,3.59-29.75,17.62-32.23,20.85-2.89,3.71-14.55,6.28-14.55,6.28s-30.83-4-37.38-7.7S434,202.89,434,202.89s-30.24,2.87-38.23-11.13S427.43,177.49,428,179.48Z" style="fill: #ffccd0"/>
        <path d="M541.39,39.79a34.33,34.33,0,0,1,1.94-3.38,32.95,32.95,0,1,1,55.11,36.13c1.45,2.27,3,4.67,4.71,7-3.22.92-7-.18-10.63-.25a12.68,12.68,0,0,0-3.19.28,7.05,7.05,0,0,1-3.76.31c-3.44-1.12-3.16-7.24-6.7-8.06-1.1-.26-2.3.16-3.43,0-2.81-.49-3.61-4.14-3.41-7s.6-6.25-1.59-8.09c-2.61-2.19-6.66-.3-8.91,2.27s-4,5.86-7.15,7.13h-.09c-1.22.46-2.83.46-3.6-.59s-.22-2.78,0-4.22c.6-4.09-2.55-7.73-3.5-11.76-.58-2.47-.38-5.25-1.88-7.29a7.41,7.41,0,0,0-3.89-2.47Z" style="opacity: 0.100000001490116;isolation: isolate"/>
        <path d="M603.28,78.65c4.08-1.23,4.2-8,5.08-11.48A15.58,15.58,0,0,1,610.85,61c1.44-1.85,3.78-3.25,3.89-5.66s-2.28-4.14-3.18-6.39c-2-5.06,3.92-10.33,3-15.69-.71-3.88-4.92-6.86-4.42-10.74.2-1.56,1.14-2.91,1.7-4.37s.59-3.39-.66-4.33a4.77,4.77,0,0,0-2.57-.69c-3.46-.29-7.62-1.43-8.49-4.8a5.65,5.65,0,0,0-.64-2,3.3,3.3,0,0,0-2-1,27.48,27.48,0,0,0-8.81-.59,5.91,5.91,0,0,1-3-.18,9.44,9.44,0,0,1-2-1.63c-2.85-2.36-7.2-1.59-10.45.19-1.52.83-2.93,1.83-4.73,2.05s-3.67-.54-5.39,0c-2.17.68-3.58,3.29-5.85,3.29a12.76,12.76,0,0,1-2.87-.74c-4.5-1-8.38,4.16-13,4-1,0-1.92-.29-2.9-.33a6.47,6.47,0,0,0-6.5,5.84,41.25,41.25,0,0,0,.39,4.41,9.16,9.16,0,0,1-4,7.84c-.77.52-1.68,1-2,1.85a2.53,2.53,0,0,0,1.44,2.94,7.32,7.32,0,0,0,3.53.45c2.67,4.62,10.83,2.46,14,6.75,1.5,2,1.31,4.81,1.88,7.28.95,4,4.1,7.66,3.5,11.76-.23,1.44-.8,3.14,0,4.22s2.46,1.06,3.7.56c3.16-1.27,4.89-4.58,7.14-7.13s6.31-4.47,8.91-2.27c2.19,1.85,1.81,5.25,1.6,8.08s.59,6.49,3.4,7c1.11.19,2.32-.22,3.44,0,3.52.82,3.24,6.94,6.7,8a7.1,7.1,0,0,0,3.75-.29C593.89,77.63,599.07,79.9,603.28,78.65Z" style="fill: #ffedba"/>
        <path d="M554.68,218.3c11.41-3.71,28.53-18.55,33.38-24.83C588.06,193.47,543.28,222,554.68,218.3Z" style="opacity: 0.100000001490116;isolation: isolate"/>
        <path d="M564.67,244.83c9.7-1.43,18.83-18.55,20.83-20C585.5,224.86,555,246.26,564.67,244.83Z" style="opacity: 0.100000001490116;isolation: isolate"/>
        <path d="M561,221.43c-10.27,4-17.4,12.57-9.13,10.85s30.81-21.4,31.38-22.26C583.21,210,571.23,217.43,561,221.43Z" style="opacity: 0.100000001490116;isolation: isolate"/>
        <path d="M557.82,256c10.27,1.45,25.39-4,25.39-4S547.55,254.51,557.82,256Z" style="opacity: 0.100000001490116;isolation: isolate"/>
        <path d="M543.24,273.36c7.45.57,22.29,11.41,22.29,11.41S535.8,272.8,543.24,273.36Z" style="opacity: 0.100000001490116;isolation: isolate"/>
        <path d="M606.32,115.59c-10-1.72,26-5.71,26-5.71S616.31,117.31,606.32,115.59Z" style="opacity: 0.100000001490116;isolation: isolate"/>
        <path d="M609.18,125.57c6.28,2.86,23.39,2.86,23.39,2.86S602.89,122.72,609.18,125.57Z" style="opacity: 0.100000001490116;isolation: isolate"/>
        <path d="M616.6,143.55c5.13-7.42,18.28,20,21.39,20.82C638,164.37,611.46,151,616.6,143.55Z" style="opacity: 0.100000001490116;isolation: isolate"/>
        <path d="M567.24,165.51c14.26-4,18.82-8.27,18.82-8.27S553,169.51,567.24,165.51Z" style="opacity: 0.100000001490116;isolation: isolate"/>
        <path d="M499.62,267.93c-6-9.13,2-13.4,2-13.4S505.61,277.06,499.62,267.93Z" style="opacity: 0.100000001490116;isolation: isolate"/>
        <path d="M585.34,289.83l-.1,1.22S585,285.81,585.34,289.83Z" style="fill: #e4aab4"/>
        <path d="M585.5,292.17c-.08-1-.14-1.75-.18-2.34l9.27-114.75.33-4.14,36.23-.28-.56,3.05L606.9,303.89l-4.28,8.56-22.82,2.28S586.07,300.18,585.5,292.17Z" style="fill: #e4aab4"/>
        <path d="M140.64,122.72c1.26-2.59,2-4.6,2-5.44s3.93-.73,8.92-.24c1.22.13,2.51.27,3.83.43h0c2.52.3,5.15.65,7.49,1,5.09.71,9.13,1.38,9.13,1.38s-1.12,1.71-2.61,4.46c-.43.73-.79,1.51-1.21,2.33a27.69,27.69,0,0,1-11.87,2.65c-2.67,0-4.69-7.57-7.14-8.27-2.85-.83-6.12,5.08-8.55,3.43L140,124C140.25,123.56,140.47,123.13,140.64,122.72Z" style="opacity: 0.100000001490116;isolation: isolate"/>
        <path d="M128.43,99.51a27.93,27.93,0,0,1,28-27.86h0a28,28,0,1,1-28,28Z" style="fill: #ffc1c7"/>
        <path d="M124.75,139.57a10.7,10.7,0,0,0,3-1c2.75,1.46,7.25,3.89,9.66,5.44,3.64,2.36,4.5,9.85,4.5,9.85l-8.35-.86S137.57,147.82,124.75,139.57Z" style="fill: #fff"/>
        <path d="M226.58,209.29c6.42,3.43,14.69-6.84,14.69-6.84s8.14,12.11,17,1.85-3.29-12.86-11.84-13.84-17.26-1.55-17.26-1.55l-2,.29S220.17,205.86,226.58,209.29Z" style="fill: #ffc1c7"/>
        <path d="M241.27,354c2.29,2.14-2,12.13-2,12.13s18.57,7.27,18.11,3.56,5-16.83,5-16.83S239,351.82,241.27,354Z" style="fill: #ffc1c7"/>
        <rect x="273.29" y="388.19" width="14.77" height="18.83" style="fill: #ffc1c7"/>
        <path d="M265.07,286.4c1.49-9.34,2.62-15.93,2.62-15.93a45.68,45.68,0,0,1,6,2.22,29.48,29.48,0,0,1,9.78,6.59,11.32,11.32,0,0,1,2.78,5.16c1.9,8.93,6.35,93,6.81,101.69v.78s6.26,3.14,1.71,6.28-26.24,4.56-26.24,4.56-.86-1.71-1.71-6.84a2.67,2.67,0,0,1-.08-.48,67.47,67.47,0,0,0-2.78-10.94c-1.42-4.56,0-4,0-6.85A106,106,0,0,0,262.38,358c-.75-4.11-1.8-8.12-3.27-10.45C256.52,343.35,261.67,307.74,265.07,286.4Z" style="fill: #575988"/>
        <path d="M267.67,270.51s10.47,2.88,15.76,8.81c-4.85,3.25-11.65,8-13.77,10.59-1.24,1.49-2.94-.42-4.61-3.47C266.53,277.1,267.67,270.51,267.67,270.51Z" style="fill: #ffc1c7"/>
        <path d="M138.15,249.73l10.56-3.36.49-.15,13.23-4.2s3,1.36,7.13,3.16c8.09,3.58,20.35,8.92,21.68,9.11,2,.28,35.64,1.42,41.37,8.55s8.84,17.41,8.84,18.55-5.71,24.25-5.71,24.25a19.83,19.83,0,0,0-3.53-3.26c-.3-.22-.6-.43-.93-.64a13.91,13.91,0,0,0-11.5-2.09c-9.14,2.56-61.63,2.56-61.63,2.56a35.7,35.7,0,0,1-19.44-27.11c-.66-4.66-1.05-8.49-1.26-11.66C136.79,252.88,138.15,249.73,138.15,249.73Z" style="fill: #575988"/>
        <path d="M149.18,246.18,162.4,242s3,1.36,7.13,3.16c8.1,3.58,20.35,8.92,21.68,9.11,2,.28,35.65,1.42,41.38,8.55s8.84,17.41,8.84,18.55-5.71,24.25-5.71,24.25a19.56,19.56,0,0,0-3.54-3.26c-.29-.22-.6-.43-.92-.64-.8-7.34-1.1-14.46.18-17.5,3.15-7.42,9.42-9.41,2.29-15.69A51.51,51.51,0,0,0,220,259.64s-15.69-3.14-29.39-2c-7.65.65-20.74-3.35-30.8-7-4.63-1.67-8.62-3.28-11.14-4.33Z" style="opacity: 0.100000001490116;isolation: isolate"/>
        <path d="M265,286.4c1.49-9.34,2.62-15.92,2.62-15.92a47.11,47.11,0,0,1,6,2.21c-.36,18.57-4,39.44-4,39.44s-.56,14.56-2.84,18.26-1.15,14-1.15,15.13c0,.36.17,1.22.31,2.33.37,2.68.6,6.89-2,9.11a7.66,7.66,0,0,1-1.56,1c-.75-4.11-1.8-8.12-3.27-10.45C256.52,343.35,261.67,307.74,265,286.4Z" style="opacity: 0.100000001490116;isolation: isolate"/>
        <path d="M196,227.67l10.59,5.75,2.53,1.38a4.67,4.67,0,0,0-.08.92v.63c-.09,2.21.08,6.22,2.11,7,2.84,1.15,4.56,2,10.27.29a107,107,0,0,1,21.18-3.46c9.9-.57,20.51.48,25.61,6.32a8.27,8.27,0,0,1,.51.66c9.14,12.69.05,65,.05,65s-.56,14.55-2.84,18.26-1.15,14-1.15,15.12c0,.37.17,1.22.31,2.34.37,2.68.6,6.89-2,9.1-3.71,3.14-6.83.84-15.12,2.85s-13.13,1.15-13.13,1.15-1.71-8.31.58-11.42a4.93,4.93,0,0,0,.94-3.11,7.78,7.78,0,0,0-1.22-3.74s0-13.12.56-14.83-.28-4.56-.28-4.56-2.1-10.59-3.26-20.95c-.85-7.57-1.2-15,.11-18.14,3.15-7.43,9.42-9.42,2.29-15.69a51.5,51.5,0,0,0-13.69-8.85s-15.7-3.14-29.39-2c-7.65.65-20.74-3.35-30.81-7-4.86-1.75-9-3.44-11.5-4.47l-2.49-1.07Z" style="fill: #575988"/>
        <path d="M140.6,122.73a28,28,0,1,1,42.2-32.12c-2.06,0-4.15-1.21-6.14-.62-2.27.66-3.33,3.36-3.18,5.72s1.15,4.58,1.56,6.91.06,5.09-1.84,6.45-5.4,0-5.07-2.33c.21-1.41,1.55-2.32,2.33-3.51s.43-3.39-1-3.27c-.92.07-1.37,1-1.69,1.83-1.71,4.28-3.44,8.61-4,13.18a14.07,14.07,0,0,1-.82,3.49,3,3,0,0,1-2.44,2.09c-2,.15-3.28-2.07-5-3.11h0a3.55,3.55,0,0,0-.61-.32,4.05,4.05,0,0,0-3.22-.11c-2.64,1.23-2.91,6.18-2.91,8.68v.78a4.62,4.62,0,0,1-2.27,4.36c-2.34,1.45-4.94-.1-7.27,1-.9.42-1.58,1.26-2.51,1.62a4.28,4.28,0,0,1-2.76-.07,56.3,56.3,0,0,0,6.79-10.66Z" style="opacity: 0.100000001490116;isolation: isolate"/>
        <path d="M147.93,125.83c0,2.15-.25,3.83-2.33,5.12-2.34,1.44-4.93-.11-7.27,1-.91.42-1.58,1.26-2.51,1.63a5.53,5.53,0,0,1-3.83-.44q-6.65-2.48-13-5.5a4,4,0,0,1-2.33-1.92c-.15-.4-.18-.84-.36-1.23a3.48,3.48,0,0,0-2.37-1.48c-3.27-1-6.83-2.94-7.37-6.32-.2-1.24,0-2.52-.14-3.77-.56-3.68-4.61-5.73-5.84-9.33s.83-7.94-1.1-11.22C98.63,91,97.18,90,96.77,88.42A6.52,6.52,0,0,1,97,85.26c1.23-5.31,3-11.34,8-13.55,1.51-.67,3.26-.95,4.47-2.07,2.76-2.59,1.28-8.09,4.47-10.11,1.4-.89,3.56-1,4.09-2.56.31-.89-.11-1.92.22-2.79.71-1.93,3.48-1.23,5.51-1.16,2.81.11,5.7-2.35,5.3-5.14a14.78,14.78,0,0,1,12.22-.56c2,.83,4,2.15,6.22,2,1.07-.1,2.06-.55,3.11-.73,4.34-.78,8.06,2.93,12.2,4.48,4.3,1.61,9.59.93,13,4,3,2.7,3.56,7.48,6.75,10,1.7,1.32,3.91,1.82,5.69,3s3,3.79,1.65,5.45c-1.74,2.11-6.16,1-7,3.57-.66,2.07,1.92,3.63,2.92,5.57a4.08,4.08,0,0,1,.25.77,4.32,4.32,0,0,1-3.24,5.19c-2.34.39-4.74-1.24-7-.57s-3.35,3.38-3.18,5.73,1.15,4.58,1.55,6.91.06,5.09-1.85,6.45-5.4,0-5.06-2.33c.2-1.41,1.55-2.32,2.33-3.51s.43-3.39-1-3.27c-.87.08-1.36,1-1.69,1.84-1.7,4.27-3.44,8.6-4,13.17-.3,2.32-1,5.37-3.26,5.58s-3.57-2.61-5.68-3.39C148.29,115,147.87,122.49,147.93,125.83Z" style="fill: #b97482"/>
        <path d="M293.05,386.13v.78s6.27,3.14,1.71,6.28-26.24,4.56-26.24,4.56-.85-1.71-1.71-6.84a4,4,0,0,1-.08-.48C272.61,390.89,285.55,388.05,293.05,386.13Z" style="fill: #575988"/>
        <path d="M293.05,386.13v.78s6.27,3.14,1.71,6.28-26.24,4.56-26.24,4.56-.85-1.71-1.71-6.84a4,4,0,0,1-.08-.48C272.61,390.89,285.55,388.05,293.05,386.13Z" style="opacity: 0.100000001490116;isolation: isolate"/>
        <path d="M266.11,419.14c2,5,1.15,14.26,1.15,14.26l5,1.28s-.72-7,0-7.84,9.27,14,9.27,14,12.87,3,24.53.7,3.7-8.12,3.7-8.12-5.56-6.72-6.28-9.42-6.27-13.84-6.27-13.84,0-13.69-1-13.26-26.1-1.29-26.1-1.29S264.11,414.15,266.11,419.14Z" style="fill: #d3878a"/>
        <path d="M235.43,348.68a4.89,4.89,0,0,0,.94-3.11c4.57-1,10.82-1.8,15.17-1.17s10,1.82,13.58,2.59c.37,2.69.6,6.89-2,9.11-3.71,3.14-6.83.84-15.11,2.85s-13.14,1.15-13.14,1.15S233.14,351.81,235.43,348.68Z" style="opacity: 0.100000001490116;isolation: isolate"/>
        <path d="M235.43,349.54a5,5,0,0,0,.94-3.11c4.57-1,10.82-1.81,15.17-1.18s10,1.82,13.58,2.6c.37,2.68.6,6.89-2,9.11-3.71,3.14-6.83.84-15.11,2.84S234.85,361,234.85,361,233.14,352.69,235.43,349.54Z" style="fill: #575988"/>
        <path d="M235.43,349.54a5,5,0,0,0,.94-3.11c4.57-1,10.82-1.81,15.17-1.18s10,1.82,13.58,2.6c.37,2.68.6,6.89-2,9.11-3.71,3.14-6.83.84-15.11,2.84S234.85,361,234.85,361,233.14,352.69,235.43,349.54Z" style="opacity: 0.100000001490116;isolation: isolate"/>
        <path d="M226.58,389.48c-.6-3.14,2.41-7.56,4.84-11.13s6.84-15.12,6.84-15.12,21.55,1.14,22.41,4.28-.29,9.84-.29,9.84-1.27,15.13,1.14,17.41,7.42,6.42,4.13,10.7a5.18,5.18,0,0,1-1.13,1.06c-5,3.57-19.39,5.06-23.68-1.06-.55-.78-1.06-1.54-1.56-2.27-3.74-5.56-5.85-9.58-5.85-9.58l-2.43,10-8.41-2.14S227.17,392.62,226.58,389.48Z" style="fill: #d3878a"/>
        <path d="M242.6,240.23c9.91-.58,20.52.48,25.61,6.31a6.55,6.55,0,0,1,.52.66c-7.38,7.19-31.32,10.71-35,6C230.81,249.53,238.07,243.48,242.6,240.23Z" style="fill: #ffc1c7"/>
        <path d="M254.69,256c-.58-.72,4.28-4.43,8.55-6.57s6.28-.71,6.28-.71-1.14,7.85-4.85,5-7.85,3-7.85,3S255.26,256.67,254.69,256Z" style="opacity: 0.100000001490116;isolation: isolate"/>
        <path d="M254.69,255.1c-.58-.71,4.28-4.42,8.55-6.56s6.28-.72,6.28-.72-1.14,7.85-4.85,5-7.85,3-7.85,3S255.26,255.82,254.69,255.1Z" style="fill: #575988"/>
        <path d="M163.1,270.25c-4.71-3.89,16.4-13.58,16.4-13.58S167.81,274.14,163.1,270.25Z" style="opacity: 0.100000001490116;isolation: isolate"/>
        <path d="M240.56,329.71a15.13,15.13,0,0,0,7.7-2.71c3-2,16.41-3.57,16.41-3.57C258.68,318.58,238.85,329.71,240.56,329.71Z" style="opacity: 0.100000001490116;isolation: isolate"/>
        <path d="M247.84,320.58c5.85-1.43.71-5,.71-5S242,322,247.84,320.58Z" style="opacity: 0.100000001490116;isolation: isolate"/>
        <path d="M267,369.93c2.71,2.57,10.28-6.84,10.28-6.84S264.25,367.37,267,369.93Z" style="opacity: 0.100000001490116;isolation: isolate"/>
        <path d="M273.37,380c-1.42,1.89-1.14,6.45,2.56,3.89s5.57-2.29,6.14-2.29C282.07,381.63,274.79,378.14,273.37,380Z" style="opacity: 0.100000001490116;isolation: isolate"/>
        <path d="M280.36,178.28c1.5-4.51,9-6.42,10.27-6.85C290.63,171.43,278.86,182.8,280.36,178.28Z" style="opacity: 0.100000001490116;isolation: isolate"/>
        <path d="M594.91,170.94l36.22-.29-.55,3c-13.54-3.68-35.39,1.22-35.39,1.22l-.62.15Z" style="opacity: 0.100000001490116;isolation: isolate"/>
        <path d="M645.1,177.29c2.57,10.8-1.15,19.36-4.28,20.22s-2.28-3.71-2.28-3.71c15.12-32.81-43.37-19.69-43.37-19.69-49.93,12-51.93,39.37-51.93,39.37s-17.37,87.27-18.8,90.41.29,10.28.29,10.28-2,9.69-6.57,9.41S516.73,313,516.73,313s4.3-71.91,23.4-109.56,73.88-38,73.88-38S642.52,166.49,645.1,177.29Z" style="fill: #e4aab4"/>
        <path d="M511.3,152.1,536.64,184a.65.65,0,0,0-.15.18h0c-.42.46-.64.73-.64.73a2.72,2.72,0,0,1-.57,0c-9.69-.67-24.07-25.11-28-28.22l-.15-.13Z" style="opacity: 0.100000001490116;isolation: isolate"/>
        <path d="M556.13,165.51a195.55,195.55,0,0,0-18.55,18.54c-9.69.28-24.52-25.11-28.52-28.25s2.28-5.44,2.28-7.7a3.58,3.58,0,0,1,2.28-3.11s3.39,4.29,3.11-1.42,6-12,6-12l12.84-5.45C575.22,113,566.09,157,556.13,165.51Z" style="opacity: 0.100000001490116;isolation: isolate"/>
        <path d="M555.25,165.51a196.73,196.73,0,0,0-18.55,18.54c-9.69.28-24.52-25.11-28.52-28.25s2.28-5.44,2.28-7.7a3.58,3.58,0,0,1,2.28-3.11s3.4,4.29,3.12-1.42,6-12,6-12l12.84-5.45C574.35,113,565.24,157,555.25,165.51Z" style="fill: #ff748e"/>
        <path d="M183.52,153.93l3.11.43.42.36c-2,1.7-9.07,9.2,4.44,18.46,15.41,10.54,9.41,24.54,9.41,24.54s-.14,1.68-.37,4.17l-9.18-4.74L178.08,173.5Z" style="opacity: 0.100000001490116;isolation: isolate"/>
        <path d="M90.23,161.81l3.11-2,17.11,19.69-.84.95a.17.17,0,0,1,0-.1s-18-12.62-20.11-17.28Z" style="opacity: 0.100000001490116;isolation: isolate"/>
        <path d="M138.13,249.71l11.05-3.51c-1.58-.66-2.49-1.07-2.49-1.07l49.36-17.39,10.59,5.74c1,1,1.87,1.81,2.45,2.3l.94.78c-.31-.07-.64-.13-1-.18-14.28-2.38-28.28,2.53-39.55,8.75-3.18,1.78-6.15,3.66-8.84,5.52a111.7,111.7,0,0,0-15.7,13,44.06,44.06,0,0,1-7.53-.22C136.79,252.88,138.13,249.71,138.13,249.71Z" style="opacity: 0.100000001490116;isolation: isolate"/>
        <path d="M162.1,144.68c2.85-1.14,9.13,4.57,9.13,4.57a68.13,68.13,0,0,0,9.42,1.71c6.56.85,6,3.42,6,3.42s-11.4,8.31,4,18.85,9.42,24.54,9.42,24.54-1.14,13.12-2,20.25,11.13,16.84,11.13,16.84c-33.1-6.28-65.05,27.1-65.05,27.1s-16.83,1.15-13.41-5.71-3.46-27.4-11.17-35.39-9.13-41.37-9.13-41.37S91.34,166.08,90.2,161.81,97.62,151,97.62,151c17.41,2,55.64-1.71,55.64-1.71S159.24,145.82,162.1,144.68Z" style="fill: #6c63ff"/>
        <path d="M102.47,178.51c-1.57,6.7,7.56,21.83,7.56,21.83,10.56,5.7,20,30.52,20,30.52s25.26,57.92,27.68,62.34S164,308.61,164,308.61s2.28,5.29,6.13,5.14,3.6-6.6-.28-9.71c-2.72-2.21-20.89-44-31.42-68.51a194.81,194.81,0,0,0-23-40,59.49,59.49,0,0,0-5.36-6.5c-5-4.7-.42-13.68-.42-13.68S104.05,171.81,102.47,178.51Z" style="opacity: 0.100000001490116;isolation: isolate"/>
        <path d="M102.47,177.64c-1.57,6.7,7.56,21.83,7.56,21.83,10.56,5.7,20,30.52,20,30.52s25.26,57.92,27.68,62.34S164,307.74,164,307.74s2.28,5.28,6.13,5.14,3.6-6.6-.28-9.71c-2.72-2.21-20.89-43.95-31.42-68.51a194.81,194.81,0,0,0-23-40,59.49,59.49,0,0,0-5.36-6.5c-5-4.7-.42-13.69-.42-13.69S104.05,170.94,102.47,177.64Z" style="fill: #e4aab4"/>
        <path d="M87,178.32c3-2.34,6.6-5.06,10.38-7.84,4.62-3.36,8.44-6.33,11.27-8.56A14.23,14.23,0,0,1,121,159.3l5.89,1.5c15.28,3,21.39,32.1,9.84,34.38s-15.26-22-20.11-22.67-13,13.12-13,13.12l-7.28,17.83c-12.13,17-24.25,16.41-24.25,16.41-2.19-4.72-2.24-10.14-1.33-15.27A42.78,42.78,0,0,1,87,178.32Z" style="fill: #ffc1c7"/>
        <path d="M159.24,213.59c7.91-3.21,13.27-.22,22.69-1.72a26.86,26.86,0,0,0,15.2-8.55S151.34,216.8,159.24,213.59Z" style="opacity: 0.100000001490116;isolation: isolate"/>
        <path d="M135.49,209.31c.65-4.07-17.11-19.26-17.11-19.26S134.83,213.37,135.49,209.31Z" style="opacity: 0.100000001490116;isolation: isolate"/>
        <g style="opacity: 0.100000001490116">
          <path d="M166.74,106.73c-.33,2.33,3.17,3.73,5.07,2.33s2.26-4.12,1.85-6.45a18.41,18.41,0,0,0-.46-2c.18,2.1-.29,4.34-2,5.55a3.61,3.61,0,0,1-4.23-.28A3.59,3.59,0,0,0,166.74,106.73Z"/>
          <path d="M172.13,95.7c-.14-2.35.93-5.06,3.18-5.73s4.67,1,7,.57a4.1,4.1,0,0,0,.77-.26,4.32,4.32,0,0,0,2.22-5.7c-.08-.15-.16-.29-.25-.43a4.32,4.32,0,0,1-3.32,3.54c-2.33.39-4.73-1.24-7-.57s-3.32,3.4-3.18,5.73a15.12,15.12,0,0,0,.61,3.26A2.71,2.71,0,0,1,172.13,95.7Z"/>
          <path d="M189.39,75.44a3.22,3.22,0,0,0-.09-3.8,2.59,2.59,0,0,1-.48,1c-1.73,2.11-6.16,1-7,3.56a2.87,2.87,0,0,0,.68,2.63C183.52,76.49,187.71,77.48,189.39,75.44Z"/>
          <path d="M105.83,115.27a7.42,7.42,0,0,0,.07,1.33c.54,3.37,4.1,5.32,7.37,6.31.92.28,2,.61,2.37,1.48.19.39.21.83.37,1.24a4.29,4.29,0,0,0,2.33,1.92q6.41,3,13,5.5c1.24.43,2.62.91,3.85.43.95-.36,1.6-1.2,2.5-1.62,2.35-1.11,4.94.45,7.27-1,2.12-1.29,2.33-3,2.33-5.12,0-3.25.45-10.74,6.13-8.55,2.11.81,3.35,3.61,5.69,3.39s3-3.25,3.26-5.58c.59-4.57,2.31-8.9,4-13.18.33-.81.82-1.75,1.69-1.83a1.06,1.06,0,0,1,.58.11c.55-1.22.15-3.07-1.15-3-.88.08-1.37,1-1.69,1.84-1.71,4.28-3.44,8.61-4,13.17-.3,2.33-1,5.38-3.25,5.59s-3.58-2.62-5.69-3.39c-5.68-2.2-6.12,5.28-6.12,8.55,0,2.15-.24,3.82-2.34,5.11-2.33,1.45-4.93-.1-7.26,1-.9.42-1.58,1.26-2.51,1.62a5.56,5.56,0,0,1-3.84-.43c-4.41-1.65-8.77-3.49-13-5.5a4.14,4.14,0,0,1-2.29-1.92,12.64,12.64,0,0,0-.36-1.24,3.51,3.51,0,0,0-2.37-1.48C110,119.22,107.07,117.71,105.83,115.27Z"/>
          <path d="M96.14,86.61a4.25,4.25,0,0,0,.06,1.74c.41,1.54,1.89,2.56,2.67,3.94a4.48,4.48,0,0,1,.29.58,7.07,7.07,0,0,0-.86-3.43C97.7,88.42,96.75,87.6,96.14,86.61Z"/>
          <path d="M99.57,101.08a8.41,8.41,0,0,0,.4,2.43c1,3,4.08,4.95,5.34,7.71a7.43,7.43,0,0,0-.07-1.25C104.7,106.45,100.93,104.34,99.57,101.08Z"/>
        </g>
        <path d="M252.11,399.62s-9.27-2.85-13-6.28a88.34,88.34,0,0,0-9.13-7Z" style="opacity: 0.100000001490116;isolation: isolate"/>
        <path d="M296.05,437.84c-2.85.28-20.4-15.41-20.4-15.41S298.91,437.56,296.05,437.84Z" style="opacity: 0.100000001490116;isolation: isolate"/>
        <path d="M264.52,406.52c-5,3.57-19.39,5.06-23.68-1.06-.55-.78-1.06-1.54-1.56-2.27C246.46,400.82,260.1,405,264.52,406.52Z" style="opacity: 0.100000001490116;isolation: isolate"/>
        <g style="opacity: 0.100000001490116">
          <path d="M310,49.83a11.08,11.08,0,0,0,.46,1.78A11.92,11.92,0,0,0,310,49.83Z"/>
          <path d="M367.28,65.76a10.13,10.13,0,0,0,3.25-6.22,7.46,7.46,0,0,0-.27-4.35,5.16,5.16,0,0,0-.4-.63,16.53,16.53,0,0,1-.18,2,10.24,10.24,0,0,1-3.26,6.22c-1.84,1.87-3.42,3.86-2.19,6.66a6.52,6.52,0,0,1,.43,1.14C364.62,68.69,365.87,67.19,367.28,65.76Z"/>
          <path d="M314.62,96.29a11.61,11.61,0,0,0,.25,2,1.36,1.36,0,0,0,.54.94c.57.32,1.22-.21,1.85-.4,1.41-.4,2.66,1,3.35,2.26s1.5,2.83,2.94,3c1.77.23,3-1.66,3.7-3.29a11.61,11.61,0,0,0,1.43-5.09,11.4,11.4,0,0,0-.91-3.63c0,.21.05.42.06.64a12.84,12.84,0,0,1-1.45,5.09c-.73,1.62-1.93,3.51-3.7,3.29-1.45-.19-2.24-1.73-2.94-3s-1.94-2.67-3.35-2.26C315.78,96.05,315.16,96.54,314.62,96.29Z"/>
          <path d="M303.05,75.43a15.2,15.2,0,0,0,5.4,9.15c1.81,1.46,4,2.56,5.17,4.58a7.32,7.32,0,0,0-.78-2.9c-1.12-2.07-3.39-3.19-5.23-4.66A15.31,15.31,0,0,1,303.05,75.43Z"/>
          <path d="M328.2,81.49c.63-1.89,1.85-4.19,3.84-4a4.35,4.35,0,0,0,1.19.14c1-.16,1.27-1.56,1.38-2.61A11.85,11.85,0,0,1,344.36,65a3,3,0,0,1,1.69.1c.74.34,1.15,1.15,1.82,1.61,2.17,1.5,4.93-1.38,7.57-1.16,2.2.18,3.61,2.49,4.54,4.54s2.08,4.39,4.28,4.87a1.33,1.33,0,0,0,1-.12c.69-.5.22-1.55-.12-2.33a4.39,4.39,0,0,1-.39-1.31.78.78,0,0,1-.35.64,1.28,1.28,0,0,1-1,.12c-2.19-.48-3.35-2.83-4.28-4.87s-2.29-4.35-4.53-4.54c-2.65-.21-5.41,2.66-7.58,1.16-.66-.46-1-1.26-1.82-1.6A3.14,3.14,0,0,0,343.5,62a11.87,11.87,0,0,0-9.68,10.11c-.1,1.06-.33,2.44-1.38,2.61a4.24,4.24,0,0,1-1.18-.14c-2-.23-3.25,2.07-3.89,4-.86,2.58-1.74,5.34-1.24,8a17.38,17.38,0,0,0,.78,2.64C326.55,86.59,327.37,84,328.2,81.49Z"/>
        </g>
        <path d="M295.38,197.77c1.51,1.82,47,2.25,49.32,1.71l4.27-.95s23.86,12.85,38.94-10.17-35.2-6.22-35.2-6.22-19.21.1-24.16.1-15.83-3.31-15.83-3.31S293.88,196,295.38,197.77Z" style="fill: #cf6f80"/>
        <path d="M282.29,191.54c1.56-11,17.53-17.26,25.93-19.82.15.77.49,1.16,1,1,3.2-1.06,11.12,7.92,11.12,7.92-8.55-.64-18.61,19.26-18.61,19.26s-13.46-.15-20.31-.78C281.6,197,281.87,194.49,282.29,191.54Z" style="opacity: 0.100000001490116;isolation: isolate"/>
        <path d="M281.43,191.54c1.57-11,17.54-17.26,25.92-19.82.17.77.5,1.16,1,1,3.21-1.06,11.13,7.92,11.13,7.92-8.56-.64-18.61,19.26-18.61,19.26s-13.47-.15-20.32-.78C280.75,197,281,194.49,281.43,191.54Z" style="fill: #575a89"/>
        <path d="M281.43,191.54c1.57-11,17.54-17.26,25.92-19.82.17.77.5,1.16,1,1,3.21-1.06,11.13,7.92,11.13,7.92-8.56-.64-18.61,19.26-18.61,19.26s-13.47-.15-20.32-.78C280.75,197,281,194.49,281.43,191.54Z" style="opacity: 0.100000001490116;isolation: isolate"/>
        <path d="M318.45,254.24c3-2.57,22.25,2.15,22.25,2.15S315.46,256.81,318.45,254.24Z" style="opacity: 0.100000001490116;isolation: isolate"/>
        <path d="M386.92,283.34c.86-3.89,9-8.55,9-8.55S386.07,287.23,386.92,283.34Z" style="opacity: 0.100000001490116;isolation: isolate"/>
        <g style="opacity: 0.100000001490116">
          <path d="M532.28,15.34a6.08,6.08,0,0,0-.42,1.78,41.23,41.23,0,0,0,.4,4.42v1a8.93,8.93,0,0,0,.46-3.11C532.65,18,532.29,16.73,532.28,15.34Z"/>
          <path d="M612.09,16.17c-.55,1.4-1.43,2.71-1.62,4.19a4.22,4.22,0,0,0,0,.71c.37-1,.92-1.94,1.3-2.93A5.53,5.53,0,0,0,612.09,16.17Z"/>
          <path d="M527.71,34.17a7.29,7.29,0,0,0,3.52.45c2.67,4.62,10.82,2.46,14,6.75,1.51,2,1.3,4.82,1.89,7.28.94,4,4.1,7.67,3.49,11.77-.23,1.43-.8,3.13,0,4.21s2.45,1.06,3.69.56c3.16-1.27,4.9-4.57,7.15-7.13s6.3-4.46,8.9-2.27c2.2,1.86,1.81,5.25,1.6,8.08s.59,6.5,3.41,7c1.1.2,2.31-.21,3.43,0,3.53.82,3.25,6.94,6.7,8.06a7.1,7.1,0,0,0,3.75-.3c4.55-1.07,9.73,1.21,13.92-.06,3-.9,3.85-4.68,4.44-8-.63,2.68-1.67,5.19-4,5.9-4.2,1.27-9.38-1-13.92.06a7,7,0,0,1-3.75.3c-3.45-1.12-3.17-7.24-6.7-8.06-1.1-.26-2.3.16-3.43,0-2.82-.47-3.66-4.14-3.41-7s.63-6.24-1.56-8.08c-2.6-2.2-6.66-.28-8.9,2.27s-4,5.86-7.15,7.14c-1.24.49-2.85.6-3.69-.56s-.21-2.79,0-4.22c.6-4.1-2.55-7.74-3.5-11.76-.58-2.47-.38-5.25-1.89-7.28-3.17-4.3-11.33-2.13-14-6.75a7.57,7.57,0,0,1-3.53-.46,3,3,0,0,1-1.4-1.51,2.25,2.25,0,0,0-.47.71A2.54,2.54,0,0,0,527.71,34.17Z"/>
          <path d="M608.3,67.1A15.26,15.26,0,0,1,610.77,61c1.44-1.85,3.79-3.32,3.89-5.66a4.68,4.68,0,0,0,0-.53c-.77,1.49-2.37,2.66-3.44,4.05A16,16,0,0,0,608.73,65C608.57,65.63,608.45,66.34,608.3,67.1Z"/>
          <path d="M614.53,35.18c-.89,3-2.77,5.93-3,8.82C612.41,41.1,614.26,38.16,614.53,35.18Z"/>
        </g>
        <path d="M465.45,314.7s-16.15.24-21.86-2.33,18.22-1.85,18.22-1.85Z" style="opacity: 0.100000001490116;isolation: isolate"/>
        <path d="M349.39,361.66c2.87-1.85,14-.14,14-.14S346.52,363.51,349.39,361.66Z" style="opacity: 0.100000001490116;isolation: isolate"/>
        <ellipse cx="32.1" cy="372.11" rx="31.78" ry="4.36" style="fill: #6c63ff;opacity: 0.100000001490116;isolation: isolate"/>
        <path d="M24.26,346.27c7.64.22,17,15.83,17,15.83,2.07-5.25-3-12.31-9.28-20.74s-2-14-2-14C21.63,336.74,16.61,346.05,24.26,346.27Z" style="fill: #6c63ff"/>
        <path d="M24.26,346.25c7.64.21,17,15.82,17,15.82.08-.22.16-.45.22-.68-1.92-3-9.92-15-16.6-15.14-7.17-.21-3.2-8.39,4.26-17.15a6.6,6.6,0,0,1,.87-1.74C21.63,336.74,16.61,346,24.26,346.25Z" style="opacity: 0.100000001490116;isolation: isolate"/>
        <path d="M22.56,333.41c.27,0,.54-1,.54,1s-.21,3.55-.49,3.55-.49-1.59-.49-3.55S22.29,333.41,22.56,333.41Z" style="fill: #ffd037"/>
        <path d="M18.7,335.93c.14-.26-.54-.94,1.18,0s3,1.89,2.88,2.13-1.63-.33-3.35-1.27S18.57,336.18,18.7,335.93Z" style="fill: #ffd037"/>
        <path d="M58.32,346.27c-7.65.22-17,15.83-17,15.83-2.08-5.25,3.05-12.31,9.27-20.74s2-14,2-14C60.94,336.74,66,346.05,58.32,346.27Z" style="fill: #6c63ff"/>
        <path d="M58.32,346.25c-7.65.21-17,15.82-17,15.82a5.44,5.44,0,0,1-.23-.68c1.91-3,9.92-15,16.6-15.14,7.17-.21,3.2-8.39-4.26-17.15a6.91,6.91,0,0,0-.87-1.74C60.94,336.74,66,346,58.32,346.25Z" style="opacity: 0.100000001490116;isolation: isolate"/>
        <path d="M60,333.41c-.27,0-.55-1-.55,1s.23,3.55.5,3.55.49-1.59.49-3.55S60.29,333.41,60,333.41Z" style="fill: #ffd037"/>
        <path d="M63.86,335.93c-.12-.26.56-.94-1.16,0s-3,1.89-2.89,2.13,1.63-.33,3.35-1.27S64,336.18,63.86,335.93Z" style="fill: #ffd037"/>
        <path d="M54.76,373.13c-3.58,2.18-21.37,4.39-34.81,4.28s3.56-16.4,4.45-20.49,15.6-1.05,19.2,1.5,15.49,2.93,15.49,2.93S58.33,371,54.76,373.13Z" style="fill: #a8a8a8"/>
        <path d="M14.8,374c-.08,2,1.26,3.46,5.15,3.46,13.44.1,31.25-2.09,34.81-4.28s4.33-11.78,4.33-11.78h-.4c-.36,2.75-1.45,8.71-4.17,10.37-3.58,2.18-21.38,4.38-34.81,4.28C16.82,376,15.34,375.18,14.8,374Z" style="opacity: 0.200000002980232;isolation: isolate"/>
        <path d="M306.74,199c8.47,0,15.33,1,15.33,3.17s-6.86,4.76-15.33,4.76-15.34-2.57-15.34-4.76S298.27,199,306.74,199Z" style="fill: #e8eaf2"/>
        <path d="M306.74,199c8.47,0,15.33,1,15.33,3.17s-6.86,4.76-15.33,4.76-15.34-2.57-15.34-4.76S298.27,199,306.74,199Z" style="opacity: 0.100000001490116;isolation: isolate"/>
        <ellipse cx="306.74" cy="202.12" rx="15.34" ry="3.97" style="fill: #e8eaf2"/>
        <ellipse cx="306.74" cy="202.12" rx="8.67" ry="2.24" style="opacity: 0.100000001490116;isolation: isolate"/>
        <path d="M296.78,193.56c.49,0,.84.1.84.1l.84,1.23h-.6c-1,0-2.38.27-1.26,2.25a3.92,3.92,0,0,0,2.69,2,5,5,0,0,0,2,0l1.06,1.56a8.9,8.9,0,0,1-2.67.19,6.76,6.76,0,0,1-5.54-3.51C292.06,193.69,295.17,193.48,296.78,193.56Z" style="fill: #f1cec8"/>
        <path d="M301,202.31l.09-.71,11.54.15.06.44.09.59a19.34,19.34,0,0,1-11.85,0Z" style="fill: #f1cec8"/>
        <path d="M301.33,199.13l1.06,1.56a8.9,8.9,0,0,1-2.67.19,9.72,9.72,0,0,1-.43-1.75A5.38,5.38,0,0,0,301.33,199.13Z" style="opacity: 0.100000001490116;isolation: isolate"/>
        <path d="M297.62,193.67l.84,1.23a3,3,0,0,0-.6,0,7.23,7.23,0,0,0-.67-.78l-.09-.09a1.71,1.71,0,0,1-.32-.44Z" style="opacity: 0.100000001490116;isolation: isolate"/>
        <path d="M301.07,201.6l11.54.15.06.44c-1.94,1.08-9.62.89-11.66.12Z" style="opacity: 0.100000001490116;isolation: isolate"/>
        <path d="M297,192.61a1.88,1.88,0,0,1,1-1l.22-.09a22.51,22.51,0,0,1,9-1s5.18.06,8.1,1.35c1.23.54,1.54,1.72.68,2.5-.66.62-1.3,1.49-1,2.26.57,1.46-.67,4-1.94,5.21-1.56,1.43-11.86,1-12.45,0-.08-.14-.81-.49-1.17-3.88a6.41,6.41,0,0,0-1.95-3.85l-.09-.09A1.31,1.31,0,0,1,297,192.61Z" style="fill: #f1cec8"/>
        <ellipse cx="306.89" cy="193.71" rx="7.82" ry="1.27" style="opacity: 0.100000001490116;isolation: isolate"/>
        <ellipse cx="306.89" cy="193.85" rx="7.82" ry="1.27" style="fill: #42312e"/>
        <path d="M310.72,194.55c.18-1.37-5.44-1.49-5.44-1.49A18.1,18.1,0,0,1,310.72,194.55Z" style="fill: #fff;opacity: 0.200000002980232;isolation: isolate"/>
        <path d="M303.67,193.57s2.25.31,2.14.6.67.38.67.38c.54-1.14-2.81-1.14-2.81-1.14Z" style="fill: #fff;opacity: 0.200000002980232;isolation: isolate"/>
        <path d="M315.23,193.06s-.22,1.83-8.31,1.87-8.19-1.87-8.19-1.87h-.48c.07.53,0,2.12,8.8,2.22s8.55-2.22,8.55-2.22Z" style="fill: #f6e2df"/>
        <path d="M298,191.68l4.84,2.11c.32.14.4.44.15.65l-.08.08a.68.68,0,0,1-.63.09L297,192.67A1.88,1.88,0,0,1,298,191.68Z" style="opacity: 0.100000001490116;isolation: isolate"/>
        <path d="M303,194.33l-.08.08a.68.68,0,0,1-.63.08l-14.52-5.31a1.65,1.65,0,0,1-1-.86c-.32-.76.66-.84,1.35-.84a2.85,2.85,0,0,1,1,.23l13.72,6C303.12,193.81,303.2,194.13,303,194.33Z" style="fill: #e8eaf2"/>
        <path d="M303,194.33l-.08.08a.68.68,0,0,1-.63.08l-14.52-5.31a1.65,1.65,0,0,1-1-.86c-.32-.76.66-.84,1.35-.84a2.85,2.85,0,0,1,1,.23l13.72,6C303.12,193.81,303.2,194.13,303,194.33Z" style="opacity: 0.100000001490116;isolation: isolate"/>
        <path d="M303,194.26l-.08.07a.68.68,0,0,1-.63.09l-14.52-5.31a1.69,1.69,0,0,1-1-.87c-.32-.76.66-.83,1.35-.83a3.07,3.07,0,0,1,1,.22l13.72,6C303.12,193.74,303.2,194,303,194.26Z" style="fill: #e8eaf2"/>
        <path d="M303.39,194.51a6.34,6.34,0,0,1-1.74-.09s.82-.34.63-.61,1.28,0,1.28,0S303.61,194.36,303.39,194.51Z" style="opacity: 0.100000001490116;isolation: isolate"/>
        <path d="M303.5,194.55a6.34,6.34,0,0,1-1.74-.09s.82-.34.63-.61,1.28,0,1.28,0S303.72,194.4,303.5,194.55Z" style="fill: #42312e"/>
        <path d="M305.28,182.59c-.1-.18-.24-.88-.36-1-.59-.38-.16,1.76-.06,2a7.45,7.45,0,0,0,1,1.4,3.05,3.05,0,0,1,.71,1.61c0,.54-.14,1.08-.14,1.62.16.16.38-.09.45-.31a6.7,6.7,0,0,0,.3-1.17,3.79,3.79,0,0,0,.08-1.74,3.55,3.55,0,0,0-1.31-1.68A3.58,3.58,0,0,1,305.28,182.59Z" style="fill: #f2dcdc"/>
        <path d="M305.71,186.69a.66.66,0,0,0-.81-.47c-.53.15-.39.92-.39,1.22a3,3,0,0,0,0,.6,2.15,2.15,0,0,0,.13.61,1.44,1.44,0,0,0,1,.91,2,2,0,0,1-.39-1.77.86.86,0,0,1,.1-.38c.11-.17.35-.33.4-.52A.64.64,0,0,0,305.71,186.69Z" style="fill: #f2dcdc"/>
        <path d="M315,196.78a7,7,0,0,1-2.65.22,3.9,3.9,0,0,0,2.52-.78Z" style="opacity: 0.100000001490116;isolation: isolate"/>
        <polygon points="492.44 333.95 473.89 324.55 464.47 309.52 493.24 309.61 492.44 333.95" style="fill: #e4aab4"/>
      </g>
    </g>
  </g>
</svg>
