<?xml version="1.0" encoding="utf-8"?>
<!-- Generator: Adobe Illustrator 24.0.1, SVG Export Plug-In . SVG Version: 6.00 Build 0)  -->
<svg version="1.1" id="Calque_1" xmlns="http://www.w3.org/2000/svg" xmlns:xlink="http://www.w3.org/1999/xlink" x="0px" y="0px"
	 viewBox="0 0 1920 655.7" style="enable-background:new 0 0 1920 655.7;" xml:space="preserve">
<style type="text/css">
	.st0{opacity:0.1;fill:#FF4757;enable-background:new    ;}
	.st1{opacity:0.6;fill:#FF4757;enable-background:new    ;}
	.st2{fill:#FF4757;}
	.st3{fill:#5B5552;}
	.st4{fill:#0E7289;}
	.st5{opacity:0.2;fill:#4B7CAB;enable-background:new    ;}
	.st6{fill:#9BCCEE;}
	.st7{clip-path:url(#SVGID_2_);}
	.st8{fill:#6C63FF;}
	.st9{opacity:0.5;fill:#E9E4D9;enable-background:new    ;}
	.st10{fill:#E9E4D9;}
	.st11{fill:#216D6E;}
	.st12{fill:#278E90;}
	.st13{fill:#F3C6CD;}
	.st14{fill:#FFFFFF;}
	.st15{fill:url(#SVGID_3_);}
	.st16{fill:#F27948;}
	.st17{fill:#4B2212;}
	.st18{opacity:0.2;fill:#FFFFFF;}
	.st19{opacity:0.4;fill:#FFFFFF;}
	.st20{opacity:0.6;fill:#FFFFFF;}
	.st21{opacity:0.7;fill:#FFFFFF;}
	.st22{opacity:0.8;fill:#FFFFFF;}
	.st23{opacity:0.9;fill:#FFFFFF;}
</style>
<g>
	<g id="Calque_2_1_">
		<g id="Calque_1-2">
			<path class="st0" d="M1920,20.8v635H0.1v-635c3.5,0.4,7.1,0.7,10.7,1.1l7.1,0.7l2.4,0.2c4.6,0.4,9.1,0.9,13.7,1.3l0,0l6.5,0.6
				c3.1,0.3,6.3,0.6,9.4,0.9c5.3,0.5,10.6,0.9,15.9,1.4c3.3,0.3,6.7,0.6,10,0.8c7.7,0.6,15.5,1.2,23.2,1.8l6.3,0.5l12.1,0.9l9.8,0.7
				c4,0.3,8.1,0.5,12.1,0.8l1.1,0.1c4,0.3,8.1,0.5,12.1,0.7c4.9,0.3,9.9,0.6,14.8,0.8l10.5,0.6l6,0.3c8.2,0.4,16.4,0.8,24.6,1.2
				l7.5,0.3c4.1,0.2,8.3,0.3,12.4,0.5h1l12,0.4l11.3,0.4c9.3,0.3,18.7,0.6,28,0.8l7.3,0.2l5.2,0.1c8.1,0.2,16.2,0.4,24.3,0.5
				l12.1,0.2h0.6c128.4,2,256.7-1.4,385.1-6.8c54.7-2.3,109.4-4.9,164.2-7.8c58.3-3,116.5-6.1,174.8-9.1
				c55.7-2.9,111.4-5.5,167.1-7.9c96.1-3.9,192.2-6.6,288.3-6.7l0,0c0.6,0,1.2,0,1.8,0c6.4,0,12.8,0,19.2,0h0.7h6.3h1.7
				c5.2,0,10.5,0,15.7,0.1h2.5l5.2,0h3.6c-0.1-0.4-0.1-0.9-0.2-1.4c0,0,1.3,0.5,3.6,1.6c4.4,0,8.8,0.1,13.2,0.2
				c43.7,0.6,87.3,1.9,131,3.8l11,0.5c7.8,0.4,15.6,0.8,23.5,1.2c3.5,0.2,7,0.4,10.5,0.6c4.5,0.3,8.9,0.5,13.3,0.8l2.2,0.1
				c3.7,0.2,7.5,0.5,11.2,0.7l3.2,0.2C1832.4,12.5,1876.2,16.2,1920,20.8z"/>
			<path class="st1" d="M1470.8,431c0,15.3-0.7,30.3-2.1,45.2c-0.1,1.5-0.3,3-0.4,4.6c-0.4,4.1-0.9,8.1-1.4,12.1
				c-1.1,9-2.5,17.8-4.2,26.6c-8.8,47.6-24.8,93.5-47.3,136.3H560.6c-22.6-42.8-38.5-88.8-47.3-136.3c-1.6-8.8-3-17.7-4.2-26.6
				c-0.5-4-1-8-1.4-12.1c-0.2-1.5-0.3-3-0.5-4.6c-1.4-14.9-2.1-29.9-2.1-45.2c0-1.7,0-3.5,0-5.2l0,0c0.1-12.3,0.7-24.5,1.8-36.5
				c12.7-147.9,92-276.8,207.9-356.4c54.8-2.4,109.5-5,164.3-7.9c58.3-3,116.5-6.1,174.8-9.1c55.7-2.9,111.4-5.5,167.1-7.9
				c124.4,68.7,215.3,190.7,241.8,335.2c4.7,25.7,7.4,51.8,7.9,78C1470.8,424.4,1470.8,427.7,1470.8,431z"/>
			<path class="st2" d="M1408.2,431c0,15.1-0.8,30.2-2.4,45.2c-0.2,1.5-0.3,3-0.5,4.6c-0.5,4.1-1,8.1-1.6,12.1
				c-1.3,9-2.9,17.8-4.8,26.6c-10.4,48.4-29.3,94.6-55.8,136.3H632.9c-26.5-41.8-45.4-87.9-55.8-136.3c-1.9-8.8-3.5-17.6-4.8-26.6
				c-0.6-4-1.1-8-1.6-12.1c-0.2-1.5-0.4-3-0.5-4.6c-1.6-15-2.4-30.1-2.4-45.2c0-0.9,0-1.8,0-2.7c0-6.5,0.2-12.9,0.6-19.4l0,0
				c9.5-184.7,138.3-337.8,310.7-384c58.3-3,116.5-6.1,174.8-9.1c189.4,29.8,336.8,186.1,352.9,379.7c0.8,9,1.2,18.1,1.4,27.3
				C1408.2,425.5,1408.2,428.3,1408.2,431z"/>
			<path class="st3" d="M0,337.8c0-0.1,25.2,34.9,42.8-2.7s27.3-94.8,61.4-102.5s36.5,87.4,66.4,93.8s41.8-6.3,58.3-22.5
				s23.4,7.3,37,31.2s39.5,52.4,58.8,33.9s46.5-51.3,72.8-30s29,62.6,48.9,81.6s50.5,17.4,72.9-6s54.6-13.1,68.2,19.9
				s29.2,15,47.8,6.2s33.1,35.7,33.1,35.7H0C0,476.2,0.6,419,0,337.8z"/>
			<path class="st4" d="M102.6,492.8c0,0,113.6-208.4,146.3-213s62.2,62.5,84.4,93.6s46.2-0.3,79.5-21.5s66.5-8,92.4,34.3
				c25.9,42.3,51.7,58.4,85,28.2s57.3-33.6,86.8,6.9s49.9,49.3,85,19s94.2,17.9,107.1,52.6H102.6z"/>
			<path class="st3" d="M1917.9,337.8c0-0.1-25.2,34.9-42.8-2.7s-27.3-94.8-61.4-102.5s-36.5,87.4-66.4,93.8s-41.8-6.3-58.3-22.5
				s-23.4,7.3-37,31.2s-39.5,52.4-58.8,33.9s-46.5-51.3-72.8-30s-29,62.6-48.9,81.6s-50.5,17.4-72.9-6s-54.6-13.1-68.2,19.9
				s-29.2,15-47.8,6.2s-33.1,35.7-33.1,35.7H1918C1918,476.2,1917.3,419,1917.9,337.8z"/>
			<path class="st4" d="M1815.3,492.8c0,0-113.6-208.4-146.3-213s-62.2,62.5-84.4,93.6s-46.2-0.3-79.5-21.5s-66.5-8-92.4,34.3
				s-51.7,58.4-85,28.2s-57.3-33.6-86.8,6.9s-49.9,49.3-85,19s-94.2,17.8-107.1,52.5L1815.3,492.8z"/>
			<path class="st5" d="M1765.7,589.5L1765.7,589.5c0,0.8,0,1.7,0,2.5c-0.2,5.4-1,10.8-2.4,16c-1,3.6-2.2,7.1-3.8,10.5
				c-8,17.5-22.8,31-41,37.3H232.8c-36.6-12.6-56.1-52.5-43.5-89.1c9.7-28.3,36.3-47.3,66.2-47.3h1440.1c38.7,0,70,31.3,70.1,69.9
				C1765.7,589.3,1765.7,589.4,1765.7,589.5L1765.7,589.5z"/>
			<path class="st6" d="M1777.3,550.8c0,13.7-4,27.2-11.6,38.7c-0.3,0.4-0.5,0.8-0.8,1.1c-5,7.2-11.2,13.4-18.5,18.3l0,0
				c-1.4,1-2.9,1.9-4.5,2.8c-1.4,0.8-2.8,1.5-4.2,2.2c-9.5,4.6-20,7-30.5,7h-160.2c-20.4,0-37.7,14.8-40.9,34.9h-1039
				c-3.2-20.1-20.6-34.9-40.9-34.9h-159c-38.7,0-70-31.3-70.1-70l0,0c0-0.9,0-1.8,0.1-2.7c0.1-4,0.6-7.9,1.5-11.8
				c0.3-1.2,0.6-2.5,0.9-3.7c0.1-0.6,0.3-1.2,0.5-1.7c1.4-4.6,3.2-9,5.5-13.2c12.2-22.7,35.9-36.8,61.7-36.8h1440.1
				C1746,480.8,1777.4,512.1,1777.3,550.8C1777.4,550.8,1777.4,550.8,1777.3,550.8L1777.3,550.8z"/>
			<g>
				<defs>
					<path id="SVGID_1_" d="M1777.3,550.8c0,38.7-31.4,70.1-70.1,70.1h-160.2c-20.4,0-37.7,14.8-40.9,34.9h-1039
						c-3.2-20.1-20.6-34.9-40.9-34.9h-159c-38.7,0-70.1-31.4-70.1-70.1c0-38.7,31.4-70,70.1-70.1h1440.1
						C1746,480.8,1777.3,512.1,1777.3,550.8z"/>
				</defs>
				<clipPath id="SVGID_2_">
					<use xlink:href="#SVGID_1_"  style="overflow:visible;"/>
				</clipPath>
				<g class="st7">
					<path class="st8" d="M1772.3,694.7c-98.8,25.8-148.8-37.6-250.1-29.4s-133.4-1.2-191.1-24.7s-119.3-55.2-242.4-57.6
						s-180.8,81.1-280.9,82.2s-93.6-45.8-175.7-36.4s-127-62.3-268.1-90.5s-246.3,44.7-246.3,44.7v239.7c0,0,74.4-76.4,170.6-58.7
						s97.5,20,157.8,3.5s132.1,16.5,186,49.3s137.2,77.5,218,43.5s184.7-62.3,316.8-24.7s107.7,48.2,183.4,31.7
						s93.6,56.4,166.8,51.7s75.7,7,151.3,17.6s178.3-29.4,245-104.6V595.4C1897.1,614.9,1854,673.3,1772.3,694.7z"/>
					<path class="st9" d="M117.7,602.5c0,0,87.2-86.4,228.3-58.2s203.9,113.4,286,104s75.7,53.8,175.7,52.6s157.8-110.8,280.9-108.5
						s184.7,65.8,242.4,89.3s88.5-2.3,189.8-10.6s153.9,79.9,252.7,54s139.8-116.9,139.8-116.9V482.6H117.7V602.5z"/>
					<path class="st8" d="M117.7,583.1c0,0,105.2-72.8,246.3-44.7c141.1,28.2,186,99.9,268.1,90.5s75.7,37.6,175.7,36.4
						s157.8-84.6,280.9-82.2s184.7,34.1,242.4,57.6s89.8,32.9,191.1,24.7s151.3,55.2,250.1,29.4S1913.3,589,1913.3,589V463.2H117.7
						V583.1z"/>
					<path class="st10" d="M1725.3,701.5c-31.6,0-58.8-8.5-87.1-17.4c-34.3-10.8-69.8-21.9-116-18.2c-99.5,8.1-131.5-0.3-191.3-24.7
						c-6.2-2.5-12.3-5.1-18.7-7.8c-53.3-22.3-113.7-47.7-223.5-49.8c-65.6-1.3-112.3,21.7-157.4,43.9
						c-39.5,19.4-76.7,37.8-123.5,38.3c-50.3,0.6-74-11.1-95-21.4c-21.4-10.5-39.9-19.7-80.7-15c-4.9,0.6-9.8,0.8-14.7,0.8
						c-35.8,0-65.4-15.4-101.8-34.3c-4-2.1-8.1-4.2-12.2-6.3l0.4-0.9c61.5,20.6,118,21.3,183.3,2.1c24.2-7.1,47.4-14.3,69.8-21.2
						c70.4-21.7,131.2-40.5,190.1-48.1c64.5-8.3,120.2-2,175.2,19.9c140.9,56.2,248.8,82.5,351.1,40.1c15.2-6.3,28-12,39.3-17.1
						c64-28.7,75.6-33.9,181.8,17.1c84.7,40.7,164.4,39.3,218.8-3.8l0.8-0.7v11.9l-0.1,0.1c-0.1,0.2-10.9,20.3-33.6,43.3
						c-21,21.2-56.7,49.3-107.8,62.7C1757,699.3,1741.2,701.4,1725.3,701.5z M1540.4,664.1c37.7,0,68.3,9.6,98.1,19
						c41.2,12.9,80.1,25.2,133.7,11.1l0.1,0.5l-0.1-0.5c50.9-13.3,86.5-41.3,107.3-62.4c21.8-22,32.5-41.3,33.4-43v-9.6
						c-28.1,21.9-62.8,32.9-101.3,32.9c-36.5,0-76.6-9.9-117.7-29.6c-49.3-23.7-80.8-36.8-106.1-38.4c-23.9-1.5-43.1,7.1-74.8,21.3
						c-11.3,5-24.1,10.8-39.3,17.1c-48.5,20.1-101.7,25.5-162.5,16.6c-51.3-7.5-109.7-25-189.3-56.7
						c-119.2-47.5-227.6-14.1-364.7,28.2c-22.4,6.9-45.5,14-69.8,21.2c-63.4,18.6-118.5,18.6-178-0.2l6.7,3.5
						c41.1,21.3,73.5,38.2,115.9,33.3c41.1-4.7,59.7,4.5,81.2,15.1c20.9,10.3,44.5,21.9,94.6,21.3c46.5-0.5,83.7-18.8,123.1-38.2
						c45.2-22.3,92-45.3,157.9-44c110.1,2.1,170.5,27.5,223.9,49.8c6.4,2.7,12.5,5.3,18.7,7.8c59.7,24.3,91.7,32.7,190.9,24.7
						C1528.4,664.4,1534.5,664.1,1540.4,664.1z"/>
					<path class="st10" d="M117.2,584v-60.8c0-0.4,1-9.1,12.3-17.4c17.2-12.6,57.4-23.3,151.2-3.1c50.6,10.9,92,29,133.5,48.1
						l-0.4,0.9c-16.4-5.2-33.1-9.4-49.9-12.8c-72.8-14.5-135.7-1.7-175.8,11.7c-43.4,14.5-69.9,32.7-70.1,32.8L117.2,584z
						 M191.3,492.4c-32.8,0-51.1,6.8-61.2,14.1c-11,8-11.9,16.6-11.9,16.7v58.9c4.7-3.1,30.2-19.3,69.6-32.4
						c40.1-13.4,103.3-26.3,176.3-11.7l0,0c14.5,2.9,29,6.5,42.9,10.6c-39.1-17.9-78.7-34.6-126.5-44.9
						C242.7,495.5,213.6,492.4,191.3,492.4L191.3,492.4z"/>
					<path class="st10" d="M1913.3,553.6c-18.2,15.8-41.3,27.1-67.2,32.4c-46,9.4-97.9,0.5-154.4-26.7
						c-62.7-30.1-93.4-43.1-123.9-42c-31.2,1.1-60.9,16.8-120,48.1l-8,4.3c-102.6,54.3-181.7,11.4-273.3-38.1
						c-19.1-10.3-38.9-21-59.5-31.2c-55.6-27.4-96.7-36-142.2-29.8c-44.3,6-92.5,26.7-159.2,55.2c-8.4,3.6-17.2,7.4-26.3,11.2
						c-82.1,34.9-134.8,47-187.9,43.3c-57.6-4.1-118.9-27.7-205.3-67c-92.2-41.9-164.2-48.2-208.3-46c-27.3,1.3-47.6,6-60.1,9.7v1.2
						c12.3-3.8,32.7-8.4,60.3-9.8c79.6-3.9,156.8,22.8,207.5,45.9c86.6,39.4,148,63,205.8,67.1c6.2,0.4,12.4,0.7,18.7,0.7
						c47.4,0,97.2-13.1,169.9-44c9.1-3.9,17.9-7.6,26.3-11.2c66.6-28.5,114.7-49.1,158.8-55.1c45.1-6.1,86.1,2.5,141.3,29.7
						c20.6,10.1,40.4,20.8,59.5,31.2c61.6,33.3,117.5,63.6,178.7,63.6c30.2,0,61.8-7.4,95.9-25.5l8.1-4.3
						c116.8-61.8,121.4-64.2,242.7-6c56.8,27.2,109,36.2,155.3,26.8c25.7-5.3,48.6-16.3,66.9-31.9L1913.3,553.6z"/>
					<path class="st10" d="M248.3,711.5c55.2-7.7,119.5-0.3,185.9,21.3c28.7,9.4,56.7,20.9,83.7,34.5c1.5,0.3,3.1,0.7,4.6,1
						c-28.3-14.5-57.6-26.8-87.9-36.7C368,710,303.5,702.6,248.1,710.3c-52.1,7.2-95.8,27.3-130.5,59.9v1.7
						C152.3,739.1,196.1,718.8,248.3,711.5z"/>
					<path class="st10" d="M1828.5,897.4c-28.9,7.3-55.7,6.2-79.7-3.4c-102-40.8-155.6-59.1-260.2-30.1c-27.7,7.7-50,12.8-69.8,15
						c0.6,0.3,1.2,0.7,1.7,1c19.4-2.3,41.4-7.4,68.4-14.8c99.4-27.5,150-13.6,259.3,30c14,5.5,28.9,8.3,43.9,8.3
						c12.4-0.1,24.7-1.7,36.6-4.8c1.3-0.3,2.7-0.7,4-1.1c1.4-0.8,2.8-1.6,4.2-2.5C1834.2,895.9,1831.3,896.7,1828.5,897.4z"/>
					<path class="st10" d="M1342.3,869.1l2.1-0.4c-21.6-9.1-44.7-24-74.4-45.6c-46.3-33.7-85.3-49-130.1-51.1
						c-46-2.2-99.8,10-174.5,39.5c-73.8,29.1-134.9,51.7-194.2,56c-7.6,0.6-15.1,0.8-22.6,0.7c2,0.4,4,0.8,6,1.2
						c5.5,0,11-0.3,16.6-0.7c59.5-4.3,120.7-27,194.6-56.1c74.5-29.4,128.1-41.5,173.9-39.4c44.6,2.1,83.3,17.3,129.4,50.8
						C1298.2,845.2,1321,859.9,1342.3,869.1z"/>
					<path class="st10" d="M117.7,713.5c16.7-10.1,34.3-18.6,52.5-25.5c36.4-13.6,75-20.7,113.8-21c49.4-0.5,100.8,9.4,152.8,29.4
						c59.8,23.1,107.7,46.9,150,67.9c60,29.8,107.3,53.3,161,61.5c13.3,2,26.8,3,40.3,3c45.8,0,95.2-11.5,154.7-35.5
						c114.3-46.2,174.3-63.2,221.4-62.3c48.2,0.8,83,21.4,135.8,52.4c14,8.3,26.5,15.9,37.6,22.6c37.1,22.6,61.6,37.6,88.5,42.8
						c26.4,5.2,56,1.3,105.3-13.7c23.7-7.3,42.8-14.2,59.5-20.3c60.7-22.2,85.8-31.3,167,10.9c53.7,27.9,103.8,10.4,136.3-9.2
						c6.6-4,13.1-8.3,19.2-13v-1.5c-6.4,4.9-13.1,9.4-19.9,13.6c-20.5,12.4-41.2,20-61.5,22.6c-25.3,3.3-50-1.2-73.5-13.4
						c-81.7-42.5-107-33.3-168.1-10.9c-16.8,6.1-35.8,13.1-59.5,20.3c-49.1,15-78.4,18.8-104.6,13.7c-26.7-5.2-51.1-20.1-88.1-42.7
						c-11-6.7-23.6-14.4-37.6-22.7c-107.3-63.2-136.1-80.1-358.5,9.8c-163.4,66.1-235.4,30.3-354.8-28.9
						c-42.3-21-90.2-44.8-150.1-67.9c-52.2-20.2-103.8-30.1-153.3-29.6c-39,0.3-77.7,7.5-114.3,21.2c-18.1,6.8-35.5,15.2-52,25.1
						L117.7,713.5z"/>
				</g>
			</g>
			<path class="st11" d="M1920,509.5V330.8c-1.6,0.8-3.1,1.8-4.4,3c-2.6,2.5-4.5,5.6-5.5,9c-0.4,1.3-0.9,2.7-1.3,4.2
				c-0.9,3-1.8,6.4-2.7,10.1c-2.4,9.8-4,19.9-5,29.9c-0.3,3.4-0.6,6.8-0.7,10.3c-0.2,5.9-0.1,11.8,0.5,17.7
				c0.5,5.4,1.2,10.7,1.9,15.9c1,7.5,2.2,14.8,3.5,22.1c1.4,7.7,2.8,15.4,4.4,23.2c0.8,4.1,1.6,8.3,2.5,12.5
				c1.7,8.6,2.8,15.2,3.5,20.4c0.2,1.6,0.4,3,0.5,4.3c0.7,6.8,0.2,9.8-0.8,10.2c-0.7,0.3-2.8-1.2-5.3-4c-3.1-3.6-5.5-7.8-7.1-12.3
				c-1.1-3-1.8-6.1-2.1-9.3c-0.7-8-1.4-14.9-2.6-21.7c-0.7-4.2-1.6-8.3-2.7-12.6c-0.5-2-1.1-4-1.7-6.1c-1.1-3.9-2.4-8.9-3.6-14.8
				c-3.1-15.1-5.2-30.4-6.6-45.8c-0.4-4.6-0.7-9.3-1-14.1c-0.1-2.7-0.2-5.2-0.3-7.6c-0.2-8.8,0.3-17.7,1.6-26.4
				c0.2-0.9,0.3-1.8,0.4-2.6c0.6-3.7,1.6-7.4,2.9-10.9c-2.4,2.8-5.1,5.4-8.2,7.5c-0.2,0.1-0.3,0.2-0.5,0.3c-1.7,1.2-3.4,2.3-5.2,3.3
				c-9.4,5.1-17.6,4.6-22.3,9.5c-4.3,4.6-15.7,10.1-24.3,19.6c-0.6,0.7-1.3,1.4-1.9,2.2c-4.7,5.8-6.8,16.6-6.6,28.2
				c0.1,10.1,2.1,20.1,5.7,29.5c2.3,5.6,5,11,7.9,16.3c1.4,2.6,2.8,5.1,4.2,7.6c3.1,5.4,5.8,11.1,8.1,16.9c1.2,3.1,2.2,6.3,3,9.5
				c1.3,5.2,2.7,10.1,4.1,14.7v0.1c0.4,1.2,0.8,2.5,1.2,3.6c2.8,8.8,6.3,17.5,10.3,25.9c4.4,8.8,4.3,13.7,2,14.2
				c-2,0.4-15.7-20.2-33.3-40c-2.8-3.2-5.8-6.4-8.8-9.4c-3.7-3.7-7-7.4-10-11.1c-2-2.5-3.9-5-5.6-7.5c-2.3-3.2-4.3-6.5-6.2-9.8
				c-7.4-12.9-12.6-26.8-18-43.8c-2.5-7.8-4.2-13.7-5.5-18.2c-3.3-11.5-3.1-13.3-3.1-13.5c-3.2,5-6.8,9.8-10.8,14.2
				c-0.8,0.9-1.7,1.7-2.5,2.5c-0.5,0.4-1,0.9-1.6,1.5c-4.6,4.4-12.4,12.6-17.9,21.3c-4.1,6.5-7,13.3-6.2,18.9
				c1.9,14.1-3.9,21.5-5.1,23.8c-0.5,1-0.9,2-1.2,3c-0.8,2.7-1,5.5-0.6,8.2c0.4,2.9,1.3,5.8,2.5,8.4c1.3,2.7,2.9,5.4,4.7,7.8
				c0.3,0.4,0.6,0.8,0.9,1.2c8.6,10.9,23.8,21.8,36.9,30.2c4.6,3,9,5.6,12.7,7.8c10.5,6.3,17.4,12.6,24.8,18.7
				c2.1,1.8,4.2,3.5,6.5,5.2c0.9,0.7,1.8,1.3,2.7,2c11.7,8.3,18.4,12.2,17.5,14.9c-0.5,1.6-6.8,0.4-14.4-0.5
				c-1.5-0.2-3.1-0.3-4.7-0.4c-3.4-0.3-6.9-0.2-10.3,0.2c-10.8,1.5-24.4-0.7-35.2-9.1c-1.3-1-2.5-2-3.6-3.2
				c-11.3-11-25.7-30.5-33.1-36.3c-6.9-5.4-12.4-12.4-15.9-20.5c-0.7-1.5-1.3-3.1-1.7-4.8c-1.5-5.4-0.8-8.9-1.8-8.4
				c-0.6,0.3-3.4,5.5-6.5,11.6c-1.8,3.6-3.8,7.5-5.6,10.9c-1,2-2,3.8-2.8,5.3l-0.4,0.8c-1.5,2.8-4.8,7.8-8.4,13.1
				c-6.8,10-15.1,21.3-15.8,22.7c-1.2,2.2,15.9,19.7,19.8,25.2s13.5,22.1,26.7,22.3c4.4,0.1,9.8-0.1,15.6-0.4l5.5-0.3l0,0
				c5.6-0.3,11.4-0.7,16.8-0.9c3.4-0.2,6.6-0.3,9.6-0.3h2.1c14.1-0.1,24,3.4,21,7.1c-1.7,2-9.5,3.6-18.9,4.1
				c-5.8,0.3-11.7,0.2-17.5-0.4c-2.3-0.3-4.6-0.6-6.7-1.1c-3.6-0.8-6.7-1.5-9.2-2.1c-2.3-0.5-4.1-1-5.7-1.4c-4.6-1.2-6.5-1.9-7.4-2
				c-1.6-0.1-20.8-0.2-25.9-9.2c-2.2,5.9-3.9,12-5.2,18.1c-1.4,7-2.2,14.9-0.8,21c0.2,0.7,0.3,1.4,0.6,2.1c1.2,4.1,2.9,8.1,5.1,11.9
				h92c7.9-3.8,15.7-8,23.2-12.7c4.4-2.8,8.7-5.3,12.7-7.6c4.3-2.4,8.3-4.5,12-6.4c10.9-5.5,18.9-8.8,22.6-10.7
				c6.1-3,10.2-5.2,13.3-1.7c0,0,4.1,8.6-21.2,18.9c-3.3,1.3-6.5,2.7-9.4,4c-5.8,2.5-11,5-15.5,7.4c-4.9,2.5-9.5,5.4-13.9,8.7H1920
				V510.2l0.7-0.7L1920,509.5z M1829.9,622.5c-1.4,0.3-3,0.6-5,0.8c-10.1,1.3-10.3-3.3-10.3-3.3c-0.1-2.3,3.7-2.8,9.9-4
				c1.6-0.3,2.9-0.5,4.1-0.6c3.3-0.3,5,0.3,6.4,2.1C1836.4,619.6,1835.5,621.3,1829.9,622.5z M1862.7,601.6c-9.2-0.8-9-5.7-9-5.7
				c0.3-2.6,5-3.5,12.6-1.8s8.4,2.5,8.8,4.7S1871.8,602.4,1862.7,601.6L1862.7,601.6z M1883.2,568.4c-3.1-3.1-2.3-8.6-2.3-8.6
				c2.9-3.1,10.4,5.2,15.6,11.3s9.3,11.6,5.9,12.9S1886.3,571.5,1883.2,568.4z M1906.3,651.8c-1.3,0.4-7.3-5.5-8.7-8.5
				s-2.8-8.3,1.9-7.5s9,11.6,9,11.6C1909.1,648.5,1907.6,651.4,1906.3,651.8z M1909.2,598.2c-1.8-0.5-3.5-1.5-5-2.7
				c-2.3-1.6,0.6-4.1,2.3-4.3c2.2,0,4.4,0.6,6.4,1.7c0.5,0.3,0.9,0.7,1.1,1.2c0.2,0.8,0.1,1.6-0.3,2.3
				C1912.8,597.9,1910.9,598.7,1909.2,598.2L1909.2,598.2z"/>
			<path class="st11" d="M24.1,191.4c-7.8-2-16-2.4-24-1.1H0v74.4c0-0.1,0-0.1,0.1-0.2c0.1-0.2,0.2-0.4,0.3-0.6
				c2-4.2,6.3-7.1,13.5-10.1c5.7-2.4,4.6-6.5,7.1-17.2c0.7-3.1,1.6-6.1,2.7-9.1c6.2-17.6,34.4-24.3,34.4-24.3S52.4,198.6,24.1,191.4
				z M240.2,492.8c-1-1.5-2.1-3.3-3.2-5.3c-1.4-2.6-2.6-5.3-3.5-8.1c-0.3-1.1-0.5-2.2-0.5-3.3c-0.3-8.3,5.2-18.6,4.9-22.1
				c-0.3-4-1.9-13.3-5.1-16.6s-15.9-3.4-19.6-5.2s-17.8-7.3-40.3-4.2c-10.7,1.5-23.6,2.4-34.2,1.3c-11.8-1.3-20.8-5.2-20.8-13.9
				c-0.2-13.9,23.6-16.2,39.2-16.8c3.1-0.1,5.9-0.2,8.1-0.2c13.3-0.3,24.5-4.1,42.3-6.1s35.4,16.8,35.4,16.8
				c0.4-4.4-0.3-8.8-2.1-12.9c-3-7.1-10.7-29.1-14.5-37S213.8,341,213.8,341s-5.2-1.8-19-1.6c-4.1,0-9.1,0.3-14.9,0.8
				c-25,2.2-52,7.1-71.6,20.6s-51,29.4-53.6,14.8s5.3-21.3,44.3-30.7s74.9-12.8,81.5-12.7c5.4,0.1,14.9,1.2,18.1,1.6l1.1,0.1
				c0,0-0.1-0.5-0.3-1.3c-0.3-1.4-0.8-3.9-1.4-6.4c-0.6-2.9-1.5-5.8-2.6-8.6c-1.9-4-10.6-13.6-14.8-22.2s-17.6-20.5-17.6-20.5
				s-9.7-2.1-23.9,0.5c-2.1,0.4-4.3,0.9-6.6,1.5c-17.7,4.8-25.1,8.8-31.1,11.7s-11.3,7.1-20.2,10.5c-5.2,2-20,13.3-33.5,23.4
				c-9.8,7.3-18.8,14-22.7,15.8c-9.3,4.5-14.1,7.2-7.1-8c3.7-8.1,21.9-24.6,41.9-40.5c7.8-6.2,15.8-12.3,23.5-17.8l4.3-3.1
				c8.1-5.7,15.4-10.6,21.2-14c5.7-3.5,11.9-5.9,18.4-7.3c14.7-2.8,23.3,3.1,23.3,3.1s-3-7.1-15.9-20.4s-16.9-9.8-22.3-13
				s-10.7-1.3-24.4-8.3c-9.4-4.8-16.8-0.6-22.3,4.2c-2.5,2.2-4.6,4.5-6.4,6.1c-5.7,5.2-4,6.8-10.2,8.6c-3.6,1-7,4.2-12.1,11.1
				c-3.6,4.8-8,11.5-13.8,20.5c-7.1,10.8-14.9,21-23.3,30.8L0,290.3v61l0.1,0.1l0,0c3,2.3,3.4,7.4,0.1,16.1c0,0.1-0.1,0.2-0.1,0.3
				L0,367.9v41.9h0.1l0.2,0.1c2.6,1.5,8.6,5.8,8.9,13.4c0.5,9.8-1.8,18.9-5.2,20.1c-1.3,0.5-2.7,0.2-3.8-0.6l-0.1-0.1L0,442.6v114
				l0.1,0.1c1,1.7,1.8,3.5,2.6,5.3c3.8,9.6,12.1,23.5,18.3,24.6s8.3,2.9,17.8,4c8.1,1,16-0.9,26.7-4.6c1.9-0.7,3.9-1.4,5.9-2.1
				c4.4-1.6,8.3-3,11.6-4.1c7.2-2.4,11.5-3.8,11.5-3.8s-3.1-1.4-7.6-3.8c-3.9-2-9-4.8-14.1-8c-2.1-1.3-4.2-2.7-6.3-4.1
				c-10.2-7-13.8-13.9-17.9-23.5c-1.1-2.5-2.2-5.3-3.4-8.2c-5.6-13.2-22-33.5-32.2-52.3c-0.8-1.5-1.6-2.9-2.3-4.4
				c-9.9-20,3.2-28.6,8.4-24c2.8,2.5,7.2,15.6,11.2,28.4c3.4,10.8,6.6,21.3,8.5,24.8c4,7.5,7.1,17.4,14.1,24.2
				c2.4,2.4,5.9,6,9.7,9.9c5.6,5.9,11.8,12.6,16,17.5c1.2,1.4,2.2,2.6,3.1,3.6c2.8,3.2,6,6.1,9.4,8.8c5,4.1,9.8,7.3,9.8,7.3
				s9.7-1,25.2-7.7s37.3-12.2,37.3-12.2l-5.7-2.6c-5.7-2.5-10.7-10.3-10.7-10.3l19.6,6.9c0,0,17.7-6,29.9-13.3
				c0.8-0.5,1.5-0.9,2.2-1.4l1.3-0.8c10.9-7.5,12.6-13.5,12.6-13.5s-2.9,0.3-7.1,0.3c-7.6,0.1-19.8-0.5-28.3-4.5
				c-13.2-6.3-16.8-8.6-18.7-12.6c-1.3-2.7-3-5.3-4.9-7.6c-1.4-1.6-2.9-3.1-4.6-4.5c-4.2-3.4-10.6-8.9-6-12.2
				c0.8-0.5,1.6-0.9,2.4-1.2c2.8-1,6.3-0.4,10.2,1.2c7.7,3.1,17.1,10.1,25.7,16.7l1.9,1.5c9.1,6.9,22.4,10.3,30.1,11.7
				c3.7,0.7,6.1,1,6.1,1s3.9-4.7,9.8-10.3s13.8,0.3,14.1,0.5C243.1,497,241.9,495.3,240.2,492.8z M78.9,412.2c0,0,2.4-9,14.7-13.6
				s26.7-6.9,28.4-5.3s-0.6,4.6-5.4,11.2s-16,15.1-28,15.4S79,412.7,78.9,412.2z M56.3,432.9c3.5,7.5,2.5,17.4,0.1,17.9
				s-7.9-4.3-11.4-12.6s-4.7-16.8,0.4-15.1C50.2,424.9,54.1,428.4,56.3,432.9L56.3,432.9z M23.9,394.6c-8.6,0.4-8.1-5.8-8.1-5.8
				c2.7-14.1,22.5-21.8,24.7-22s6.7-1.4,6.1,6S32.5,394.2,23.9,394.6z M109.4,499.5c6.8,11,17.1,22.7,19.4,26.6
				c0.3,0.5,0.5,0.9,0.7,1.2c1.3,2.7,0,2.4-1.7,1.7c-0.8-0.6-1.6-1.3-2.2-2.1c-4.1-4.6-12.4-15.5-18.1-22.6
				c-7.2-8.9-16-10.4-26.1-21.6c-1.9-2.2-3.8-4.4-5.6-6.5c-7.3-9-12-17.3-8.4-22.5c0,0,3.9-10.3,16,3.2c5.1,5.9,9.6,12.4,13.4,19.3
				c2.7,4.8,5.1,9.5,7.4,13.9l1.5,2.8C106.9,495.2,108.2,497.5,109.4,499.5z"/>
			<path class="st12" d="M338.7,62.8c0,0-5,13.4-25.7,15.3s-53.8-9.2-66.4-17.3s-12.2-18.3-8.1-19.5s27.3,1.8,42.4,5
				s40.3,6.7,44.1,4.3c2.8-1.7,3.8-5.1,4.8-10.9h-0.6c-4-0.1-8.1-0.1-12.1-0.2c-8.1-0.1-16.2-0.3-24.3-0.5l-5.2-0.1l-7.3-0.2
				c-9.3-0.2-18.7-0.5-28-0.8L241,37.4l-12-0.4h-1c-4.1-0.2-8.3-0.3-12.4-0.5l-7.5-0.3c-8.2-0.4-16.4-0.8-24.6-1.2l-6-0.3
				c-3.5-0.2-7-0.4-10.5-0.6c-4.9-0.3-9.9-0.6-14.8-0.8L140,32.5l-1-0.1l-12.1-0.8l-9.8-0.7L105,30.1l-6.3-0.5
				C91,29,83.3,28.4,75.5,27.8c-3.3-0.3-6.7-0.5-10-0.8c-5.3-0.4-10.6-0.9-15.9-1.4c-3.1-0.3-6.3-0.6-9.4-0.9l-6.5-0.6l0,0
				c-2.4,1-5,1.5-7.6,1.3c0,0-4-0.6-6.1-2.6l-2.4-0.2c-2.4-0.2-4.7-0.5-7.1-0.7c-3.6-0.4-7.1-0.7-10.7-1.1H0v29.7h0.1
				c1.2,0.7,2.2,1.6,3.1,2.7c4.1,4.9,6.5,11,6.7,17.4c4.5,14-3.7,18.3-9.8,13.3L0,83.7v139.5l0.1,0.1c4.9,7,12.4,11.8,20.8,13.3
				c1.3,0.2,2.7,0.4,4.1,0.5c4.1,0.2,8.3,0.8,12.3,1.8c9.7,2.4,18.8,6.8,26.6,13.1c3.3,2.6,6.4,5.4,9.4,8.5
				c4.1,4.1,7.7,8.2,10.6,11.4c3.3,3.7,5.4,6,5.7,5.3c0.2-0.5-0.2-3.5-1.4-8.4c-1.8-7-4-14-6.6-20.8c-4.5-11.9-9.7-23.5-15.6-34.8
				c-0.8-1.6-1.7-3.3-2.6-5c-21-38.9-27.5-45.2-32.3-50.1s-11.3-11.9-13-14.3s-8.7-22.5-7.5-31.8s8.7-9.6,13.9-6.8
				S38.7,123,68.7,153s55.8,44.5,64.4,47s16.8,7.8,24.7,11.7s19.6,8.8,26.5,4.4s21.9-11.1,27-10.8c4.9,0.6,9.7,1.4,14.5,2.6
				c0,0-7.5-11.1-15.3-17.4c0,0,8.9,3.5,17.2,7.1s24.8,2.7,33.9-5.8c9.1-8.5,15-12.6,18.5-14.6s12.5-8.5,16-9.8s8-3.7,10.8-12.3
				c0,0-2.4-1.1-16.9-5s-37-17.7-65.2-30.8s-66-30.4-73.8-44.7s1.6-23.8,16.4-16s40.7,37.1,74,49.2s70,11.5,73.1,8.1
				s13.6-14,19.7-30.2S338.7,62.8,338.7,62.8z M54,80.3c-8.3-2.2-19.8-18.9-20.8-25.1s6.7-16.5,21.8-8.4s10.9,17.4,10.9,17.4
				C67.8,74.4,62.2,82.5,54,80.3z M150.7,147c4.1,2.7,6.4,4.2,5.7,3.8C154.4,149.7,152.5,148.4,150.7,147
				c-10.5-6.8-32.8-21-48.1-29.6c-21.3-12-31.5-20-30.8-26.6s12-14,19-11.5s12.7,13.7,19.9,23.4C117.1,111.4,135,135.2,150.7,147z"
				/>
			<path class="st12" d="M98.8,530L98.8,530z"/>
			<path class="st12" d="M394.6,636c-1.9-6.3-3.8-11.1-5.4-15.2c-2.6-6.6-4.5-11.3-4.4-17.6c0.1-6.3,2.3-12.3,6.2-17.2
				c-12.6,2.6-25.7,1.5-37.7-3.2c-20-7.8-35.6-23.9-46.9-20.8s-30.2,9.5-54.1,52.7c-0.7,1.3-1.4,2.7-2.1,4
				c-6.9,12.9-12.5,25.6-17.3,37h166.7C399.1,653,398,647.5,394.6,636z M266.6,537.8c-16.9-7.3-42.6-9.1-42.6-9.1
				c-7.1,3.6-13.7,8.1-19.8,13.2c-2.3,1.9-4.7,4-7.1,6.3c-4.1,3.9-7.9,8.1-11.4,12.6c-16.7,21.8-25.1,44.9-33.8,83.9
				c-0.8,3.5-1.6,7.3-2.3,11.2h51.3c1.6-5,3.5-10.3,5.8-15.8c4.8-11.7,10.8-22.9,17.7-33.5c3.2-4.8,6.7-9.7,10.6-14.7
				c28-35.7,62.8-41.7,62.8-41.7S283.5,545,266.6,537.8z M62.6,535.1c-6,0.6-10.2,1-14,1.6c4.1,9.6,7.8,16.4,17.9,23.5
				c2.1,1.4,4.2,2.8,6.3,4.1c1.7-4,3.7-7.9,5.8-11.7C74.4,547.7,68.2,541,62.6,535.1L62.6,535.1z M62.6,535.1c-6,0.6-10.2,1-14,1.6
				c4.1,9.6,7.8,16.4,17.9,23.5c2.1,1.4,4.2,2.8,6.3,4.1c1.7-4,3.7-7.9,5.8-11.7C74.4,547.7,68.2,541,62.6,535.1L62.6,535.1z
				 M62.6,535.1c-6,0.6-10.2,1-14,1.6c4.1,9.6,7.8,16.4,17.9,23.5c2.1,1.4,4.2,2.8,6.3,4.1c1.7-4,3.7-7.9,5.8-11.7
				C74.4,547.7,68.2,541,62.6,535.1L62.6,535.1z M62.6,535.1c-6,0.6-10.2,1-14,1.6c4.1,9.6,7.8,16.4,17.9,23.5
				c2.1,1.4,4.2,2.8,6.3,4.1c1.7-4,3.7-7.9,5.8-11.7C74.4,547.7,68.2,541,62.6,535.1L62.6,535.1z M62.6,535.1c-6,0.6-10.2,1-14,1.6
				c4.1,9.6,7.8,16.4,17.9,23.5c2.1,1.4,4.2,2.8,6.3,4.1c1.7-4,3.7-7.9,5.8-11.7C74.4,547.7,68.2,541,62.6,535.1L62.6,535.1z
				 M62.6,535.1c-6,0.6-10.2,1-14,1.6c4.1,9.6,7.8,16.4,17.9,23.5c2.1,1.4,4.2,2.8,6.3,4.1c1.7-4,3.7-7.9,5.8-11.7
				C74.4,547.7,68.2,541,62.6,535.1L62.6,535.1z M62.6,535.1c-6,0.6-10.2,1-14,1.6c4.1,9.6,7.8,16.4,17.9,23.5
				c2.1,1.4,4.2,2.8,6.3,4.1c1.7-4,3.7-7.9,5.8-11.7C74.4,547.7,68.2,541,62.6,535.1L62.6,535.1z M62.6,535.1c-6,0.6-10.2,1-14,1.6
				c4.1,9.6,7.8,16.4,17.9,23.5c2.1,1.4,4.2,2.8,6.3,4.1c1.7-4,3.7-7.9,5.8-11.7C74.4,547.7,68.2,541,62.6,535.1L62.6,535.1z
				 M62.6,535.1c-6,0.6-10.2,1-14,1.6c4.1,9.6,7.8,16.4,17.9,23.5c2.1,1.4,4.2,2.8,6.3,4.1c1.7-4,3.7-7.9,5.8-11.7
				C74.4,547.7,68.2,541,62.6,535.1L62.6,535.1z M62.6,535.1c-6,0.6-10.2,1-14,1.6c4.1,9.6,7.8,16.4,17.9,23.5
				c2.1,1.4,4.2,2.8,6.3,4.1c1.7-4,3.7-7.9,5.8-11.7C74.4,547.7,68.2,541,62.6,535.1L62.6,535.1z M62.6,535.1c-6,0.6-10.2,1-14,1.6
				c4.1,9.6,7.8,16.4,17.9,23.5c2.1,1.4,4.2,2.8,6.3,4.1c1.7-4,3.7-7.9,5.8-11.7C74.4,547.7,68.2,541,62.6,535.1L62.6,535.1z
				 M199.5,532.5c-0.9,0.2-1.9,0.3-3,0.5c-10.1,1.6-26.3,3.2-39.6,0.2c-10.2-2.2-19.6-4.8-27.4-5.9c-1.4-0.2-2.7-0.3-4-0.4
				c-6.4-0.5-11.5,0.5-14.8,4.3c-7.5,8.7-8.2,14.4-18.9,32.3l-0.8,1.3c-1.4,2.3-2.8,4.8-4.1,7.4c-1.3,2.4-2.6,4.9-3.9,7.5
				c-8.1,16.5-15.8,37.4-18.6,60.6c-0.5,4.6-1.1,9.8-1.6,15.3h74c8.3-15.4,15.9-29.8,18.4-41.2c4.9-22.6,23.5-52.3,30.9-64.6
				c3.3-5.3,7.4-9.9,12.3-13.7c2.3-1.9,4.8-3.5,7.4-5C205.7,531.3,203.3,531.9,199.5,532.5L199.5,532.5z M62.6,535.1
				c-6,0.6-10.2,1-14,1.6c4.1,9.6,7.8,16.4,17.9,23.5c2.1,1.4,4.2,2.8,6.3,4.1c1.7-4,3.7-7.9,5.8-11.7
				C74.4,547.7,68.2,541,62.6,535.1L62.6,535.1z M62.6,535.1c-6,0.6-10.2,1-14,1.6c4.1,9.6,7.8,16.4,17.9,23.5
				c2.1,1.4,4.2,2.8,6.3,4.1c1.7-4,3.7-7.9,5.8-11.7C74.4,547.7,68.2,541,62.6,535.1L62.6,535.1z M62.6,535.1c-6,0.6-10.2,1-14,1.6
				c4.1,9.6,7.8,16.4,17.9,23.5c2.1,1.4,4.2,2.8,6.3,4.1c1.7-4,3.7-7.9,5.8-11.7C74.4,547.7,68.2,541,62.6,535.1L62.6,535.1z
				 M62.6,535.1c-6,0.6-10.2,1-14,1.6c4.1,9.6,7.8,16.4,17.9,23.5c2.1,1.4,4.2,2.8,6.3,4.1c1.7-4,3.7-7.9,5.8-11.7
				C74.4,547.7,68.2,541,62.6,535.1L62.6,535.1z M62.6,535.1c-6,0.6-10.2,1-14,1.6c4.1,9.6,7.8,16.4,17.9,23.5
				c2.1,1.4,4.2,2.8,6.3,4.1c1.7-4,3.7-7.9,5.8-11.7C74.4,547.7,68.2,541,62.6,535.1L62.6,535.1z M62.6,535.1c-6,0.6-10.2,1-14,1.6
				c4.1,9.6,7.8,16.4,17.9,23.5c2.1,1.4,4.2,2.8,6.3,4.1c1.7-4,3.7-7.9,5.8-11.7C74.4,547.7,68.2,541,62.6,535.1L62.6,535.1z
				 M62.6,535.1c-6,0.6-10.2,1-14,1.6c4.1,9.6,7.8,16.4,17.9,23.5c2.1,1.4,4.2,2.8,6.3,4.1c1.7-4,3.7-7.9,5.8-11.7
				C74.4,547.7,68.2,541,62.6,535.1L62.6,535.1z M62.6,535.1c-6,0.6-10.2,1-14,1.6c4.1,9.6,7.8,16.4,17.9,23.5
				c2.1,1.4,4.2,2.8,6.3,4.1c1.7-4,3.7-7.9,5.8-11.7C74.4,547.7,68.2,541,62.6,535.1L62.6,535.1z M62.6,535.1c-6,0.6-10.2,1-14,1.6
				c4.1,9.6,7.8,16.4,17.9,23.5c2.1,1.4,4.2,2.8,6.3,4.1c1.7-4,3.7-7.9,5.8-11.7C74.4,547.7,68.2,541,62.6,535.1L62.6,535.1z
				 M62.6,535.1c-6,0.6-10.2,1-14,1.6c4.1,9.6,7.8,16.4,17.9,23.5c2.1,1.4,4.2,2.8,6.3,4.1c1.7-4,3.7-7.9,5.8-11.7
				C74.4,547.7,68.2,541,62.6,535.1L62.6,535.1z M62.6,535.1c-6,0.6-10.2,1-14,1.6c4.1,9.6,7.8,16.4,17.9,23.5
				c2.1,1.4,4.2,2.8,6.3,4.1c1.7-4,3.7-7.9,5.8-11.7C74.4,547.7,68.2,541,62.6,535.1L62.6,535.1z M66.8,534.6l-4.2,0.4
				c-6,0.6-10.2,1-14,1.6c-3.1,0.5-6.2,1.1-9.3,1.9c-8,2-30.7,0.2-39.3,9.1L0,547.8v108h55.1c3.7-16.6,6.6-32.6,7.2-47.1
				c0.3-7.7,1.4-15.3,3.3-22.7c1.8-7.4,4.3-14.7,7.3-21.7c1.7-4,3.7-7.9,5.8-11.7c2.4-4.4,5.1-8.5,8.3-12.3
				c7.9-9,11.1-10.1,11.7-10.3C97.5,530.3,80.4,533.3,66.8,534.6L66.8,534.6z"/>
			<path class="st11" d="M1919.1,190.9c-5.2-4.3-11.9-7.5-20.6-3.4c-13.9,6.7-19.2,4.7-24.6,7.7c-1.7,0.9-3.6,1.4-5.5,1.7l0,0
				c-3.7,0.8-8.4,2.1-17.1,10.7c-13.3,13-16.4,20.1-16.4,20.1s16.2-10.7,41.5,5.1c5.2,3.2,11.7,7.7,18.8,13
				c4.4,3.3,9.1,6.8,13.8,10.5c3.7,2.9,7.4,5.9,11.1,9v-73.7C1919.7,191.4,1919.4,191.2,1919.1,190.9z M1911.5,539.2l-1,0.7
				c-4.7,3-9.6,5.8-13.9,8c-7.6,4-13.4,6.5-13.4,6.5s7.7,2.6,19.6,7.2l3.3,1.3c4.4,1.7,8.4,3.2,12,4.4c0.7,0.2,1.3,0.4,1.9,0.6
				v-35.6C1917.4,534.9,1914.6,537.2,1911.5,539.2z M1920,509.5V360.6c-0.8,0-1.5,0-2.3-0.1c-4.1-0.6-8-1.7-11.8-3.4
				c-3.1-1.3-6.4-2.9-9.8-4.6c-3.6-1.9-7.2-4-10.7-6.2c-1.8-1.1-3.6-2.3-5.3-3.4c-0.4-0.3-0.8-0.6-1.3-0.9l0,0c-1.5-1-3-2.1-4.4-3.1
				c-19.3-14-46.1-19.5-71.1-22.3s-33.8,0-33.8,0s-8.8,9.9-12.8,17.8c-3.7,7.2-10.8,25.9-14.5,34.5c-0.4,0.8-0.7,1.6-1,2.2
				c-1.9,4-2.7,8.4-2.4,12.8c2.6-2.6,5.4-4.9,8.4-7c6.9-4.9,17.2-10.4,27.4-9c17.7,2.5,28.8,6.5,42.2,7.1c2.9,0.1,6.8,0.3,11,0.6
				c15.4,1.2,36.3,4.6,35.8,17.6c-0.5,14-23.5,15-44.2,12.8c-3.8-0.4-7.6-0.9-11.1-1.5c-9.8-1.7-19.9-1.7-29.7,0
				c-3.7,0.6-7.3,1.7-10.7,3.2c-0.4,0.2-0.9,0.4-1.4,0.5c-1.9,0.5-3.9,0.8-5.9,1c-4.9,0.6-10.4,1.3-12.5,3.3
				c-3.3,3.3-5.1,12.5-5.5,16.5c0,0.5,0,1,0.1,1.5c0.8,5.1,6.2,16.4,3.7,24c-2.6,8.3-9.8,17.1-10.2,17.5c0.3-0.2,8.6-5.9,14.1-0.2
				c1.6,1.6,3,3.1,4.2,4.5c3.3,3.6,5.3,6.1,5.3,6.1c8.8-0.9,17.5-3,25.8-6.1c3.8-1.5,7.3-3.4,10.7-5.7l4.6-3.3l1.1-0.8
				c11.4-8.1,23.3-15.9,31-14.7c0.6,0.1,1.1,0.2,1.6,0.4c4.8,1.8,4.6,4.5,2.6,7.2c-1.9,2.3-4.1,4.3-6.5,6.1
				c-3.8,2.9-6.9,6.6-9.2,10.8c-0.2,0.4-0.4,0.7-0.6,1.1c-1.2,2.3-3,4.1-7,6.4c-0.9,0.5-1.8,1-2.9,1.5c-2.4,1.2-5.3,2.6-9,4.2
				c-4.5,1.8-9.3,3-14.1,3.4c-6.8,0.6-13.6,0.6-20.3,0l-1-0.1v0.1c0.3,0.9,2.4,7.1,13.5,14.6c3.8,2.5,7.7,4.8,11.8,6.8
				c6.5,3.2,13.1,6.1,19.9,8.6l19.8-6.4c0,0-5.2,7.7-10.9,10.1l-5.8,2.4c0,0,21.6,6.1,37,13.2s25.1,8.3,25.1,8.3
				c5.2-3.4,10.3-7.1,15-11.1c1.6-1.4,3.1-2.8,4.5-4.4c1.8-2.1,4.6-5.1,7.8-8.5c2.1-2.2,4.4-4.6,6.7-6.9c2-2.1,4.1-4.2,6-6.1l3-3
				l0.7-0.7L1920,509.5z M1913.3,432.7c3.2,4.9-0.7,12.3-7.2,20.3c-2.2,2.8-4.8,5.6-7.4,8.4c-0.7,0.8-1.4,1.5-2.1,2.1
				c-6.4,6.2-12.3,8.9-17.6,12.6c-2.6,1.8-4.9,3.8-6.9,6.2c-4.3,5.1-10.2,12.4-14.6,17.6c-1.4,1.6-2.6,3-3.7,4.1
				c-0.8,1-1.7,1.8-2.7,2.5c-2,0.8-3.4,1-1-2.9c0.5-0.8,1.3-1.9,2.4-3.2c0,0,0.1-0.1,0.1-0.1c4.2-5.3,12-14.2,17.6-22.8
				c0.3-0.4,0.6-0.9,0.9-1.3c5.7-9,11.7-22.1,20.2-33.5c1.9-2.5,3.9-4.9,6-7.1c1.6-1.8,3.4-3.3,5.4-4.7
				C1910.7,425.4,1913.3,432.7,1913.3,432.7L1913.3,432.7z M1860.2,371.1c1.5-1.4,12.4,0.4,23.3,4.1c1.7,0.6,3.3,1.2,4.9,1.8
				c6.9,2.8,10.6,6.9,12.5,9.9c0.8,1.2,1.4,2.6,1.9,4c-0.1,0.4,1,4.2-2.5,6.2c-1.5,0.9-3.8,1.4-7.3,1.2c-2.8-0.1-5.6-0.7-8.2-1.6
				c-7.8-2.8-14.5-7.8-19.4-14.4C1860.6,375.7,1858.4,372.7,1860.2,371.1L1860.2,371.1z M1902.8,277.8c-8.8-3.7-14-8-19.9-11
				s-13.2-7.2-30.8-12.4c-4.3-1.3-8.6-2.2-13-2.8l0,0c-10.5-1.3-17.4,0-17.4,0s-13.7,11.5-18.1,20s-13.3,17.9-15.3,21.9
				s-4.6,16.2-4.6,16.2s12.7-1.4,19.2-1.3c5.7,0,33.1,3.2,65.4,10.8c5.1,1.2,10.4,2.5,15.7,3.9c14.4,3.8,24.5,7.2,31.3,10.6
				c1.5,0.8,3,1.6,4.4,2.5v-46.6C1912.4,283.9,1905.9,279.1,1902.8,277.8z"/>
			<path class="st12" d="M1916.5,135.7c-6.8-0.8-15.7-2.1-59.4,4.9c-35.7,5.8-59.7,15.3-67.7,19.4c-0.8,0.4-1.5,0.8-2.2,1.3
				c-0.3,0.2-0.5,0.4-0.8,0.6c-0.4,0.6,2.8,0.9,7.9,1.3l0,0c3.9,0.3,8.9,0.6,14.1,1.3l0,0c4.6,0.5,9.1,1.3,13.6,2.4
				c15.5,4.1,26.4,11.3,35.5,21.7c3,3.5,6.7,6.4,10.9,8.4l0,0c6.9,3.2,14.4,3.7,22,2.2c7.3-1.4,16.2-4.6,28.7-8.3l0.9-0.3v-54.5
				C1918.8,136,1917.6,135.9,1916.5,135.7z M1911.9,38.8c2.7-0.1,5.4-0.2,8.1-0.4V20.8c-43.8-4.6-87.6-8.3-131.4-11.1l-3.2-0.2
				c-3.7-0.2-7.5-0.5-11.2-0.7c4,2.3,6.9,4.1,7.2,4.2c-3.5-0.8-7.1-1.3-10.6-1.5c-4.2-0.3-8.3-0.3-12.5-0.1c0,0,4.9,4,8.6,7.6
				c0.8,0.8,1.6,1.6,2.2,2.3c0.6,0.7,1.1,1.6,1.6,2.4c0.3,0.5,0.5,1.1,0.8,1.7c1.8,4.7,3.2,9.5,4.2,14.5c0.5,2.2,0.8,4.4,1.1,6.4
				l0,0c0.1,1.1,0.3,2,0.3,2.9c0.7,8.2,11.8,14.5,19.7,18.4s17.1,7.2,24.3,12.5s34.3,16.9,76.5,22.5c8.4,1.1,15.9,1.9,22.4,2.6V60.1
				c-4.4-1.6-9.3-3.5-14.8-5.9c-16.1-6.9-41-16-52.7-20.2c-2.2-0.6-4.4-1.3-6.5-2.2c-0.7-0.3,1.9,0.6,6.5,2.2
				C1871.4,39.3,1901.2,39,1911.9,38.8L1911.9,38.8z M1895.1,245.9c-8.1,7.2-13.5,12.6-13.7,13.5c-0.5,2.2,8.9-2.6,22.7-2.9
				c1.5,0,3.1,0,4.8,0c3.4,0,7.2,0.1,11.1,0.2v-31.8C1910.8,232.2,1902,239.7,1895.1,245.9z"/>
			<path class="st12" d="M1884.9,503.6L1884.9,503.6z"/>
			<path class="st12" d="M1920,509.5l-3.3-0.4h-0.3c-4.1-0.5-8.5-1.2-12.6-1.9c-9.6-1.6-18-3.3-18.8-3.5c0.5,0.1,3.7,1.4,11.4,10.5
				c3,3.8,5.6,7.8,7.8,12.1c2.3,4.4,4.4,8.9,6.2,13.5c3.5,8.8,6,18,7.6,27.4c0.9,5.3,1.4,10.6,1.5,15.9c0,3.3,0.2,6.6,0.5,10v-82.9
				l0.7-0.7L1920,509.5z M1916.5,614.9c-0.6-6.2-1.5-12.4-2.8-18.5c-0.2-1.2-0.5-2.3-0.8-3.5c-2.5-10.7-5.9-21.2-10.1-31.3
				c-2-4.9-4.1-9.4-6.2-13.6c-1.5-3.1-3.1-6-4.6-8.7c-0.3-0.6-0.7-1.2-1-1.8c-10.2-18.1-10.8-23.8-18.1-32.8
				c-3.3-4-8.6-5.1-15.5-4.6c-1.5,0.1-3.1,0.3-4.8,0.5h-0.1c-5.8,0.8-12.5,2.3-19.7,3.8c-2,0.4-4,0.8-6.1,1.2
				c-20.8,4-48.2-3-49.1-3.2c5.4,3.2,10.2,7.3,14.2,12c1.9,2.2,3.6,4.6,5,7.1c4.8,8.5,14.7,25.2,21.9,42.3
				c2.3,5.3,4.3,10.8,5.9,16.4c0.7,2.3,1.2,4.5,1.6,6.7c2.2,11.7,9.7,26.5,17.8,42.4c1.8,3.5,3.5,7,5.3,10.5
				c2.7,5.3,5.3,10.7,7.7,16.1h62C1918.4,640.7,1917.5,625.9,1916.5,614.9z M1879.9,616.8c-3.1-3.6-7.2-1.4-13.3,1.7
				c-3.7,1.8-11.7,5.2-22.6,10.7c1.8,3.5,3.5,7,5.3,10.5c3-1.3,6.1-2.7,9.4-4C1884.1,625.4,1879.9,616.8,1879.9,616.8L1879.9,616.8z
				 M1879.9,616.8c-3.1-3.6-7.2-1.4-13.3,1.7c-3.7,1.8-11.7,5.2-22.6,10.7c1.8,3.5,3.5,7,5.3,10.5c3-1.3,6.1-2.7,9.4-4
				C1884.1,625.4,1879.9,616.8,1879.9,616.8L1879.9,616.8z M1879.9,616.8c-3.1-3.6-7.2-1.4-13.3,1.7c-3.7,1.8-11.7,5.2-22.6,10.7
				c1.8,3.5,3.5,7,5.3,10.5c3-1.3,6.1-2.7,9.4-4C1884.1,625.4,1879.9,616.8,1879.9,616.8L1879.9,616.8z M1832,635.5
				c-0.7-4.5-1.4-8.8-2.2-13c-0.3-1.9-0.7-3.8-1.1-5.7l-0.3-1.3c-2.7-13.7-5.5-25.5-8.6-35.9c-2.1-7.2-4.7-14.3-7.7-21.2
				c-4.1-9.3-9.1-18.1-15.1-26.3c-10-13.5-22.7-24.8-37.4-33c0,0-1.8,0.1-4.7,0.3c-4.1,0.4-10.4,1-17.2,2.2c-6,1-11.9,2.4-17.7,4.3
				c-1.1,0.4-2.2,0.8-3.3,1.2c-1.7,0.7-3.4,1.4-5.1,2c-14.8,5.7-26.6,9.5-26.6,9.5s0.9,0.2,2.5,0.6c5.4,1.6,10.7,3.6,15.8,6.1
				c17.2,8.5,32.1,21.1,43.5,36.5c6.8,9,12.8,18.5,18,28.5c0.3,0.5,0.5,0.9,0.7,1.4c2.8,5.4,5.1,10.6,7.2,15.7
				c1.6,3.9,3,7.6,4.2,11.2c3.7,11,6.5,22.2,8.4,33.6c0.2,1.1,0.4,2.2,0.5,3.3h49.2c-0.4-2.9-0.9-5.8-1.3-8.7
				C1833.2,643.1,1832.6,639.3,1832,635.5L1832,635.5z M1879.9,616.8c-3.1-3.6-7.2-1.4-13.3,1.7c-3.7,1.8-11.7,5.2-22.6,10.7
				c1.8,3.5,3.5,7,5.3,10.5c3-1.3,6.1-2.7,9.4-4C1884.1,625.4,1879.9,616.8,1879.9,616.8L1879.9,616.8z M1879.9,616.8
				c-3.1-3.6-7.2-1.4-13.3,1.7c-3.7,1.8-11.7,5.2-22.6,10.7c1.8,3.5,3.5,7,5.3,10.5c3-1.3,6.1-2.7,9.4-4
				C1884.1,625.4,1879.9,616.8,1879.9,616.8L1879.9,616.8z M1879.9,616.8c-3.1-3.6-7.2-1.4-13.3,1.7c-3.7,1.8-11.7,5.2-22.6,10.7
				c1.8,3.5,3.5,7,5.3,10.5c3-1.3,6.1-2.7,9.4-4C1884.1,625.4,1879.9,616.8,1879.9,616.8L1879.9,616.8z M1572.8,635.4l-8,17.1
				c-0.5,1.1-1,2.2-1.4,3.3h14.3C1572.3,646.3,1572.8,635.4,1572.8,635.4z M1750.5,633.1c-2.1-5.6-4.4-11.5-7-17.8
				c-0.5-1.2-1-2.4-1.5-3.6c-0.3-0.8-0.7-1.7-1.1-2.5c-3.4-7.9-7.2-16.2-11.6-24.5c-13.1-25.2-24.9-38.2-34.7-45.3
				c-5.5-4-11.6-6.9-18.1-8.7c-11.2-3.4-27.2,12.3-47.3,19.6c-12.1,4.4-25.2,5.2-37.8,2.3c3.8,5,5.8,11.1,5.8,17.3
				c-0.2,10.2-5.3,16-10.6,32.5c-2.1,6.1-3.8,12.2-5.2,18.5c-0.4,2-0.5,3-0.6,3.6c-0.3,1.5,3,3.6,11,7.5s24.3,13.8,46.3,22.7
				l1.5,0.6l1.2,0.5h118.4C1756.6,649.4,1753.8,641.7,1750.5,633.1L1750.5,633.1z"/>
			<path class="st12" d="M1305.7,945.3L1305.7,945.3z"/>
			<path class="st13" d="M1664.2,80.3l-52,6.9l-62.8-17.5c0,0-13.9-10.4-26.7-34.4c-0.8-1.4-1.5-2.9-2.3-4.5l-0.8-1.6
				c-0.5-1.1-1-2.2-1.5-3.3l-0.8-1.7c-0.5-1.1-1-2.3-1.5-3.5c-0.2-0.6-0.5-1.2-0.7-1.8s-0.5-1.2-0.7-1.8s-0.5-1.3-0.7-1.9
				c-0.7-1.9-1.4-3.9-2-5.8l0,0c-0.2-0.7-0.4-1.3-0.6-2c-0.6-2-1.2-4-1.8-6c0.6,0,1.2,0,1.8,0c6.4,0,12.8,0,19.2,0h0.7
				c2.9,5.6,5.9,11.9,9.2,19.1c-0.5-6.4-1.4-12.8-2.8-19.1h1.7c5.2,0,10.5,0,15.7,0.1h2.5c1.7,2.7,3.2,5.5,4.6,8.3
				c0,0,0.5-3.7,0.7-8.3h3.6c-0.1-0.5-0.1-1-0.2-1.5c0,0,1.3,0.5,3.6,1.6c4.4,0,8.8,0.1,13.2,0.2C1606.2,15.2,1644,41.3,1664.2,80.3
				z"/>
			<path class="st13" d="M1793.5,14.2c0,0-12.1,36.5-41.4,58.3c-0.8,0.6-1.6,1.2-2.4,1.7l-1.4,1c-0.5,0.3-0.9,0.6-1.4,0.9
				s-0.9,0.6-1.3,0.8s-0.9,0.5-1.3,0.8c-26.1,15.9-30-0.2-29.6-3.5c0.4-3.5,0-58.4,0-58.4c0.4-0.5,4-4.1,9.9-9.7
				c7.8,0.4,15.6,0.8,23.5,1.2c3.5,0.2,7,0.4,10.5,0.6c4.5,0.3,8.9,0.5,13.3,0.8s8.9,0.5,13.4,0.8l3.2,0.2
				c-4.1,4.2-8.6,7.9-13.4,11.3C1781.6,19.4,1787.7,17.1,1793.5,14.2z"/>
			<path class="st13" d="M1793.5,14.2c0,0-12.1,36.5-41.4,58.3c-0.8,0.6-1.6,1.2-2.4,1.7l-1.4,1c-0.5,0.3-0.9,0.6-1.4,0.9
				s-0.9,0.6-1.3,0.8s-0.9,0.5-1.3,0.8c2.9-2.2,5.7-4.6,8.4-7.2c22.5-21.7,32-50.3,32-50.3c-5.8,2.9-12,5.2-18.3,6.8
				c7.1-5,13.5-10.9,19-17.5l3.2,0.2c-4.1,4.2-8.6,8-13.4,11.3C1781.6,19.4,1787.7,17.1,1793.5,14.2z"/>
			<path class="st14" d="M1756.6,38c0.6,10.9-0.7,21.9-3.8,32.4c-0.2,0.7-0.4,1.3-0.6,2c-2.2,7.2-5.5,14.1-9.5,20.5
				c-16.7,25.8-11.9,57.3-0.8,61.6c0,0-0.2,0.4-1.3,0.9l0,0c-2.2,0.9-7.8,2.3-22.3,2.3c-22.1,0-37.6,3.6-37.6,3.6l-42.3-9.2
				c0,0,5.6-1.3,12.3-6.8c7.7-6.4,16.8-18.3,20.4-40.4c0.8-5,1.5-9.5,2.1-13.7c4.2-30.4,3.3-40.7,13.4-57.9
				c3.6-6.1,14.2-16.4,27.1-27.7l11,0.5c7.8,0.4,15.6,0.8,23.5,1.2c-11,9.1-12.9,10.4-13.1,10.5c8-2.9,15.9-6.2,23.6-9.9
				c4.5,0.3,8.9,0.5,13.3,0.8c-3.9,10.3-13.2,26.4-34.5,38.6C1738,47,1746.2,45,1756.6,38z"/>
			
				<linearGradient id="SVGID_3_" gradientUnits="userSpaceOnUse" x1="1710.5386" y1="788.5505" x2="1685.2585" y2="719.9606" gradientTransform="matrix(1 0 0 -1 0 948)">
				<stop  offset="0" style="stop-color:#FFFFFF"/>
				<stop  offset="0.18" style="stop-color:#FDFBF9"/>
				<stop  offset="0.44" style="stop-color:#F5EFE7"/>
				<stop  offset="0.73" style="stop-color:#EADDCA"/>
				<stop  offset="0.93" style="stop-color:#E1CEB3"/>
			</linearGradient>
			<path class="st15" d="M1664.2,145.8c-2.3,0.4-38.8-2.8-51.2,0s-19.1,2.8-22.7,8.8s-14.7,18.7-14.7,18.7s-0.4,2,5.2,2.8
				c0,0,30.1,2.8,39.1,6.8s42,15.9,67.5,11.1s67.2-14.7,69.6-14.7s22.7-5.6,38.2-2.8s37.4,4.4,37.4,4.4s-5.2-7.6-17.1-11
				s-36.8-14.3-74.9-14.4S1664.2,145.8,1664.2,145.8z"/>
			<path class="st13" d="M1511.1,1.3c2.3,10.1,5.4,20,9.4,29.6c-1-2.1-2.1-4.3-3.1-6.6c-0.5-1.1-1-2.3-1.5-3.5
				c-0.2-0.6-0.5-1.2-0.7-1.8s-0.5-1.2-0.7-1.8s-0.5-1.3-0.7-1.9c-0.7-1.9-1.4-3.9-2-5.8l0,0c-0.2-0.7-0.4-1.3-0.6-2
				c-0.6-2-1.2-4-1.8-6C1509.9,1.3,1510.5,1.3,1511.1,1.3z"/>
			<path class="st13" d="M1539,1.4c2.7,9.1,4.4,18.4,5.1,27.8c-5-11.3-9.7-20.4-13.9-27.8h0.7c2.9,5.6,5.9,11.9,9.2,19.1
				c-0.5-6.4-1.4-12.8-2.8-19.1L1539,1.4z"/>
			<path class="st13" d="M1566.1,1.6c1.1,7.3-0.3,17-0.3,17c-2.9-6.2-6.6-11.9-11.1-17.1h2.5c1.7,2.7,3.2,5.5,4.6,8.3
				c0,0,0.5-3.7,0.7-8.3L1566.1,1.6z"/>
			<path class="st13" d="M1664.2,80.3l-0.9,0.1c-0.6-1-1.2-1.9-1.8-2.9l0,0c-28.5-44.3-78.3-69.6-92-75.9c4.4,0,8.8,0.1,13.2,0.2
				C1606.2,15.2,1644,41.3,1664.2,80.3z"/>
			<path class="st14" d="M1621.2,157.7c0,0,41.3-7.4-16.4-44.5S1521,62.8,1520,35.3c0,0,27-0.5,45.1,16.4c0,0-3.7-13.3-12.2-23.3
				c0,0,12.2-6.4,24.9,5.8s17,19.1,17,19.1s2.7-6.9-1.1-15.9c0,0,43.5,14.3,70.5,42.9s37.6,74.2,54.1,77.4
				C1718.3,157.7,1666.8,182.1,1621.2,157.7z"/>
			<path class="st13" d="M1744.4,164.5c2.6,0,14.6-8.4,22.1-7.3s28.6,1.8,47.7,9.3s21.5,11.9,18.3,14.3s-30.6-3.5-46.9-5.1
				c0,0,4.4-2.2-5.2-7.1S1744.4,164.5,1744.4,164.5z"/>
			<path class="st16" d="M1579.6,168.6c0,0-1.3-1.2-4,1.3s-10.9,7.8-13.3,10.4s-4,9-2.7,8.5s17.5-10,26.5-12.2
				c-2.4-0.7-4.7-1.6-6.9-2.7C1577.2,172.6,1579.6,168.6,1579.6,168.6z"/>
			<path class="st17" d="M1604.3,160.1c0,1.7-1.3,3-3,3s-3-1.3-3-3s1.3-3,3-3S1604.3,158.4,1604.3,160.1z"/>
		</g>
	</g>
</g>
<g>
	<g>
		<path class="st14" d="M838,127.3c-1.2,1.3-2.6,2.3-4.2,3c-1.7,0.7-3.4,1-5.2,1c-1.7,0-3.3-0.3-4.8-0.9c-1.5-0.6-2.8-1.5-3.9-2.5
			c-1.1-1.1-2-2.4-2.6-3.9s-1-3.1-1-4.8c0-1.7,0.3-3.3,1-4.8c0.6-1.5,1.5-2.8,2.6-3.9c1.1-1.1,2.4-2,3.9-2.6
			c1.5-0.6,3.1-0.9,4.8-0.9c1.8,0,3.4,0.3,5,1c1.6,0.6,3,1.6,4.1,2.9l-3.9,4c-0.6-0.8-1.3-1.4-2.1-1.9s-1.9-0.8-3.1-0.8
			c-0.9,0-1.7,0.2-2.5,0.6c-0.8,0.4-1.5,0.9-2.1,1.5c-0.6,0.6-1.1,1.4-1.4,2.2c-0.3,0.9-0.5,1.8-0.5,2.7s0.2,1.9,0.5,2.7
			c0.3,0.9,0.8,1.6,1.4,2.2c0.6,0.6,1.3,1.1,2.1,1.5c0.8,0.4,1.6,0.6,2.5,0.6c1.1,0,2.2-0.3,3.1-0.8c0.9-0.5,1.7-1.2,2.2-2.1
			L838,127.3z"/>
		<path class="st14" d="M864.7,119.3c0,1.7-0.3,3.3-1,4.8c-0.6,1.5-1.5,2.8-2.6,3.8c-1.1,1.1-2.4,1.9-3.9,2.6
			c-1.5,0.6-3.1,0.9-4.8,0.9c-1.7,0-3.3-0.3-4.8-0.9c-1.5-0.6-2.8-1.5-3.9-2.6c-1.1-1.1-2-2.4-2.6-3.9c-0.6-1.5-1-3.1-1-4.8
			c0-1.7,0.3-3.3,1-4.7c0.7-1.5,1.5-2.8,2.7-3.9c1.1-1.1,2.4-2,3.9-2.6c1.5-0.6,3.1-0.9,4.8-0.9c1.7,0,3.3,0.3,4.8,0.9
			c1.5,0.6,2.8,1.5,3.9,2.6c1.1,1.1,2,2.4,2.6,3.9C864.4,116,864.7,117.6,864.7,119.3z M858.9,119.3c0-1-0.2-1.9-0.5-2.8
			c-0.3-0.9-0.8-1.6-1.4-2.2c-0.6-0.6-1.3-1.1-2.1-1.5c-0.8-0.4-1.6-0.5-2.6-0.5s-1.8,0.2-2.6,0.5c-0.8,0.4-1.5,0.9-2.1,1.5
			c-0.6,0.6-1.1,1.4-1.4,2.2c-0.3,0.9-0.5,1.8-0.5,2.8s0.2,1.9,0.5,2.8c0.3,0.9,0.8,1.6,1.4,2.2c0.6,0.6,1.3,1.1,2.1,1.5
			c0.8,0.4,1.6,0.5,2.6,0.5s1.8-0.2,2.6-0.5c0.8-0.4,1.5-0.9,2.1-1.5c0.6-0.6,1.1-1.4,1.4-2.2C858.8,121.2,858.9,120.3,858.9,119.3z
			"/>
		<path class="st14" d="M889.3,130.8h-5.8V117c0-0.8-0.1-1.6-0.4-2.2c-0.3-0.6-0.6-1.1-1-1.6c-0.4-0.4-0.9-0.7-1.5-0.9
			s-1.1-0.3-1.7-0.3c-0.9,0-1.8,0.2-2.6,0.5s-1.6,0.8-2.3,1.5v16.8h-5.8v-23.1h5.8l0,1.7c0.3-0.3,0.8-0.7,1.3-1
			c0.5-0.3,1-0.5,1.6-0.7c0.5-0.2,1.1-0.4,1.7-0.5c0.6-0.1,1.1-0.2,1.7-0.2c1.2,0,2.3,0.2,3.4,0.6c1.1,0.4,2,0.9,2.9,1.7
			c0.8,0.8,1.5,1.8,2,3c0.5,1.2,0.8,2.7,0.8,4.4V130.8z"/>
		<path class="st14" d="M915,112.3h-2.4c0.6,1.2,0.9,2.5,0.9,3.8c0,1-0.2,2-0.6,3c-0.4,1-0.9,1.9-1.7,2.7c-0.7,0.8-1.6,1.5-2.6,2
			c-1,0.6-2.2,0.9-3.5,1.1c-0.9,0.1-1.5,0.3-2,0.6c-0.4,0.3-0.7,0.6-0.7,0.8s0.2,0.5,0.7,0.8c0.4,0.2,1.1,0.4,2,0.5
			c3,0.3,5.3,1,6.9,2.2c1.6,1.2,2.5,2.9,2.5,4.9c0,1-0.3,2-0.8,2.9s-1.2,1.6-2.2,2.3c-0.9,0.6-2.1,1.1-3.4,1.5
			c-1.3,0.3-2.8,0.5-4.5,0.5c-1.7,0-3.2-0.2-4.5-0.5c-1.3-0.3-2.5-0.8-3.4-1.5s-1.7-1.4-2.2-2.3s-0.8-1.9-0.8-2.9
			c0-1.6,0.5-2.9,1.4-4c0.9-1.1,2.4-1.9,4.5-2.4c-0.6-0.2-1.1-0.6-1.4-1c-0.3-0.4-0.4-0.8-0.4-1.3c0-0.4,0.2-0.8,0.5-1.2
			c0.3-0.4,0.8-0.7,1.4-0.9c-0.7-0.3-1.4-0.7-2-1.2c-0.6-0.5-1.2-1.1-1.7-1.8c-0.5-0.7-0.9-1.4-1.2-2.2c-0.3-0.8-0.4-1.7-0.4-2.6
			c0-1.3,0.3-2.4,0.8-3.5c0.5-1.1,1.3-2,2.2-2.9c0.9-0.8,2-1.5,3.2-1.9c1.2-0.5,2.5-0.7,3.8-0.7c1.3,0,2.5,0.2,3.6,0.6h7.9V112.3z
			 M908.8,134.8c0-0.9-0.5-1.6-1.4-2s-2.2-0.6-3.6-0.6c-1.6,0-2.8,0.2-3.8,0.7c-0.9,0.5-1.4,1.1-1.4,2c0,0.9,0.5,1.6,1.4,2
			c1,0.5,2.2,0.7,3.7,0.7c1.5,0,2.8-0.2,3.7-0.7C908.3,136.4,908.8,135.7,908.8,134.8z M907.7,116.1c0-0.6-0.1-1.1-0.3-1.6
			c-0.2-0.5-0.5-1-0.9-1.3c-0.4-0.4-0.8-0.7-1.3-0.9c-0.5-0.2-1.1-0.3-1.6-0.3c-0.6,0-1.1,0.1-1.6,0.3c-0.5,0.2-0.9,0.5-1.3,0.9
			c-0.4,0.4-0.7,0.8-0.9,1.3c-0.2,0.5-0.3,1.1-0.3,1.6s0.1,1.1,0.3,1.7c0.2,0.5,0.5,1,0.9,1.4c0.4,0.4,0.8,0.7,1.3,0.9
			c0.5,0.2,1,0.3,1.6,0.3c0.6,0,1.1-0.1,1.6-0.3c0.5-0.2,1-0.5,1.3-0.9c0.4-0.4,0.7-0.8,0.9-1.4
			C907.6,117.2,907.7,116.7,907.7,116.1z"/>
		<path class="st14" d="M934.4,110.1l-3.1,4.9c-0.6-0.6-1.2-1.2-1.9-1.6c-0.7-0.5-1.4-0.7-2.1-0.7c-0.4,0-0.8,0.1-1.2,0.3
			c-0.4,0.2-0.9,0.5-1.2,0.9c-0.4,0.4-0.7,0.9-1,1.6c-0.3,0.7-0.4,1.5-0.4,2.4v13h-5.8v-23.1h5.8v2.5c0.7-1,1.5-1.7,2.3-2.3
			s1.8-0.8,2.8-0.8c1,0,2,0.3,3,0.8C932.6,108.5,933.5,109.2,934.4,110.1z"/>
		<path class="st14" d="M955.2,130.8h-5.8v-1.2c-1,0.7-2.1,1.2-3.2,1.4c-1.1,0.3-2.3,0.4-3.5,0.4c-1.1,0-2.1-0.2-3-0.5
			c-0.9-0.3-1.7-0.8-2.4-1.4c-0.7-0.6-1.2-1.4-1.5-2.2c-0.4-0.9-0.5-1.8-0.5-2.8c0-1.3,0.3-2.4,0.9-3.4c0.6-1,1.4-1.8,2.3-2.4
			c1-0.7,2.1-1.1,3.5-1.5c1.3-0.3,2.7-0.5,4.3-0.5h3.3c0-1.4-0.4-2.4-1.3-3.2c-0.9-0.8-2.1-1.2-3.8-1.2c-0.8,0-1.6,0.1-2.5,0.4
			c-0.9,0.3-1.7,0.8-2.6,1.6l-3.4-3.4c1.2-1.2,2.6-2.1,4.3-2.7c1.6-0.6,3.3-1,5-1c1.6,0,3,0.3,4.3,0.8c1.2,0.5,2.3,1.2,3,2
			c1,1,1.7,2.1,2.1,3.4c0.4,1.3,0.6,2.9,0.6,4.8V130.8z M949.4,125.1v-4.3h-2.6c-0.8,0-1.6,0.1-2.3,0.2c-0.7,0.1-1.3,0.3-1.8,0.5
			c-0.5,0.3-0.9,0.6-1.2,1c-0.3,0.4-0.5,0.9-0.5,1.4c0,0.8,0.3,1.5,0.9,2c0.6,0.5,1.4,0.8,2.4,0.8c0.9,0,1.7-0.1,2.5-0.4
			C947.7,126,948.6,125.6,949.4,125.1z"/>
		<path class="st14" d="M972.5,130.3c-0.6,0.4-1.3,0.7-2,0.8c-0.8,0.2-1.5,0.3-2.3,0.3c-1.4,0-2.5-0.2-3.4-0.5
			c-0.9-0.3-1.7-0.8-2.2-1.5c-0.6-0.7-1-1.6-1.2-2.6c-0.3-1.1-0.4-2.3-0.4-3.8v-10.1h-3v-2.6c1.9-0.8,3.4-1.9,4.5-3.4s2-3.5,2.4-5.9
			h1.9v6.8h5.8v5.2h-5.8v10.5c0,0.6,0.1,1.1,0.2,1.4c0.1,0.4,0.3,0.7,0.6,0.9c0.2,0.2,0.5,0.4,0.8,0.4s0.6,0.1,1,0.1
			c0.5,0,1-0.1,1.6-0.2c0.6-0.2,1.2-0.4,1.6-0.8V130.3z"/>
		<path class="st14" d="M996.4,130.8h-5.8v-1.8c-0.4,0.4-0.8,0.7-1.3,1c-0.5,0.3-1,0.5-1.6,0.7c-0.5,0.2-1.1,0.4-1.7,0.5
			c-0.6,0.1-1.1,0.2-1.6,0.2c-1.2,0-2.3-0.2-3.4-0.6s-2-0.9-2.9-1.7s-1.5-1.8-2-3c-0.5-1.2-0.7-2.7-0.7-4.4v-14h5.8v13.8
			c0,0.8,0.1,1.6,0.4,2.2c0.3,0.6,0.6,1.1,1,1.6c0.4,0.4,0.9,0.7,1.4,0.9c0.5,0.2,1.1,0.3,1.7,0.3c1.9,0,3.5-0.6,4.8-1.9v-16.8h5.8
			V130.8z"/>
		<path class="st14" d="M1010.9,130.7c-0.5,0.2-1,0.4-1.5,0.5c-0.6,0.1-1.2,0.2-1.8,0.2c-0.9,0-1.7-0.1-2.5-0.3
			c-0.8-0.2-1.5-0.6-2.1-1.1c-0.6-0.5-1.1-1.2-1.4-2c-0.3-0.8-0.5-1.8-0.5-2.9V97.6h5.9v26.4c0,1,0.2,1.6,0.6,2
			c0.4,0.4,0.8,0.5,1.4,0.5c0.7,0,1.3-0.2,1.9-0.6V130.7z"/>
		<path class="st14" d="M1032.5,130.8h-5.8v-1.2c-1,0.7-2.1,1.2-3.2,1.4c-1.1,0.3-2.3,0.4-3.5,0.4c-1.1,0-2.1-0.2-3-0.5
			c-0.9-0.3-1.7-0.8-2.4-1.4c-0.7-0.6-1.2-1.4-1.5-2.2c-0.4-0.9-0.5-1.8-0.5-2.8c0-1.3,0.3-2.4,0.9-3.4c0.6-1,1.4-1.8,2.3-2.4
			c1-0.7,2.1-1.1,3.5-1.5c1.3-0.3,2.7-0.5,4.3-0.5h3.3c0-1.4-0.4-2.4-1.3-3.2c-0.9-0.8-2.1-1.2-3.8-1.2c-0.8,0-1.6,0.1-2.5,0.4
			c-0.9,0.3-1.7,0.8-2.6,1.6l-3.4-3.4c1.2-1.2,2.6-2.1,4.3-2.7c1.6-0.6,3.3-1,5-1c1.6,0,3,0.3,4.3,0.8c1.2,0.5,2.3,1.2,3,2
			c1,1,1.7,2.1,2.1,3.4c0.4,1.3,0.6,2.9,0.6,4.8V130.8z M1026.7,125.1v-4.3h-2.6c-0.8,0-1.6,0.1-2.3,0.2c-0.7,0.1-1.3,0.3-1.8,0.5
			c-0.5,0.3-0.9,0.6-1.2,1c-0.3,0.4-0.5,0.9-0.5,1.4c0,0.8,0.3,1.5,0.9,2c0.6,0.5,1.4,0.8,2.4,0.8c0.9,0,1.7-0.1,2.5-0.4
			C1025,126,1025.9,125.6,1026.7,125.1z"/>
		<path class="st14" d="M1049.8,130.3c-0.6,0.4-1.3,0.7-2,0.8c-0.8,0.2-1.5,0.3-2.3,0.3c-1.4,0-2.5-0.2-3.4-0.5
			c-0.9-0.3-1.7-0.8-2.2-1.5c-0.6-0.7-1-1.6-1.2-2.6c-0.3-1.1-0.4-2.3-0.4-3.8v-10.1h-3v-2.6c1.9-0.8,3.4-1.9,4.5-3.4
			c1.2-1.5,2-3.5,2.4-5.9h1.9v6.8h5.8v5.2h-5.8v10.5c0,0.6,0.1,1.1,0.2,1.4c0.1,0.4,0.3,0.7,0.6,0.9c0.2,0.2,0.5,0.4,0.8,0.4
			s0.6,0.1,1,0.1c0.5,0,1-0.1,1.6-0.2c0.6-0.2,1.2-0.4,1.6-0.8V130.3z"/>
		<path class="st14" d="M1059.2,103.7h-6v-6h6V103.7z M1059.1,130.8h-5.8v-23.2h5.8V130.8z"/>
		<path class="st14" d="M1088.3,119.3c0,1.7-0.3,3.3-1,4.8c-0.6,1.5-1.5,2.8-2.6,3.8s-2.4,1.9-3.9,2.6c-1.5,0.6-3.1,0.9-4.8,0.9
			c-1.7,0-3.3-0.3-4.8-0.9c-1.5-0.6-2.8-1.5-3.9-2.6c-1.1-1.1-2-2.4-2.6-3.9c-0.6-1.5-1-3.1-1-4.8c0-1.7,0.3-3.3,1-4.7
			c0.7-1.5,1.5-2.8,2.7-3.9s2.4-2,3.9-2.6c1.5-0.6,3.1-0.9,4.8-0.9c1.7,0,3.3,0.3,4.8,0.9c1.5,0.6,2.8,1.5,3.9,2.6s2,2.4,2.6,3.9
			C1088,116,1088.3,117.6,1088.3,119.3z M1082.5,119.3c0-1-0.2-1.9-0.5-2.8c-0.3-0.9-0.8-1.6-1.4-2.2c-0.6-0.6-1.3-1.1-2.1-1.5
			c-0.8-0.4-1.6-0.5-2.6-0.5c-0.9,0-1.8,0.2-2.6,0.5c-0.8,0.4-1.5,0.9-2.1,1.5c-0.6,0.6-1.1,1.4-1.4,2.2c-0.3,0.9-0.5,1.8-0.5,2.8
			s0.2,1.9,0.5,2.8s0.8,1.6,1.4,2.2c0.6,0.6,1.3,1.1,2.1,1.5c0.8,0.4,1.6,0.5,2.6,0.5c0.9,0,1.8-0.2,2.6-0.5
			c0.8-0.4,1.5-0.9,2.1-1.5c0.6-0.6,1.1-1.4,1.4-2.2S1082.5,120.3,1082.5,119.3z"/>
		<path class="st14" d="M1112.9,130.8h-5.8V117c0-0.8-0.1-1.6-0.4-2.2c-0.3-0.6-0.6-1.1-1-1.6c-0.4-0.4-0.9-0.7-1.5-0.9
			s-1.1-0.3-1.7-0.3c-0.9,0-1.8,0.2-2.6,0.5c-0.9,0.3-1.6,0.8-2.3,1.5v16.8h-5.8v-23.1h5.8l0,1.7c0.3-0.3,0.8-0.7,1.3-1
			c0.5-0.3,1-0.5,1.6-0.7c0.5-0.2,1.1-0.4,1.7-0.5c0.6-0.1,1.1-0.2,1.7-0.2c1.2,0,2.3,0.2,3.4,0.6c1.1,0.4,2,0.9,2.9,1.7
			c0.8,0.8,1.5,1.8,2,3c0.5,1.2,0.8,2.7,0.8,4.4V130.8z"/>
		<path class="st14" d="M1134.3,124.3c0,1.1-0.3,2.2-0.8,3.1c-0.5,0.9-1.2,1.6-2.1,2.2c-0.9,0.6-1.8,1.1-2.9,1.4
			c-1.1,0.3-2.1,0.5-3.2,0.5c-1.8,0-3.4-0.3-4.9-1s-2.8-1.7-3.9-3.1l3.5-3.5c0.7,0.9,1.5,1.6,2.4,2.1c0.9,0.5,1.9,0.7,2.9,0.7
			c0.9,0,1.7-0.2,2.3-0.5c0.6-0.3,0.9-0.8,0.9-1.5c0-0.7-0.4-1.3-1.3-1.7c-0.9-0.5-2.1-0.9-3.6-1.4c-0.9-0.3-1.8-0.6-2.6-1
			c-0.9-0.4-1.6-0.9-2.3-1.5c-0.7-0.6-1.2-1.3-1.6-2.1c-0.4-0.8-0.6-1.7-0.6-2.7c0-1.1,0.3-2.1,0.8-3c0.5-0.9,1.2-1.6,2-2.2
			c0.8-0.6,1.8-1.1,2.9-1.4c1.1-0.3,2.2-0.5,3.2-0.5c3.5,0,6.4,1.3,8.7,4l-3.4,3.5c-0.7-0.8-1.4-1.5-2.3-2c-0.9-0.5-1.8-0.7-2.8-0.7
			c-0.3,0-0.7,0-1.1,0.1c-0.4,0.1-0.7,0.2-1.1,0.4c-0.3,0.2-0.6,0.4-0.8,0.7s-0.3,0.6-0.3,0.9c0,0.6,0.4,1.1,1.2,1.6
			c0.8,0.5,2,0.9,3.5,1.4c1,0.3,1.9,0.7,2.8,1.1s1.7,1,2.3,1.6c0.7,0.6,1.2,1.3,1.6,2C1134.1,122.5,1134.3,123.4,1134.3,124.3z"/>
	</g>
	<g>
		<path class="st14" d="M1019.4,164.5l-10.7,23.9h-1.9l3.2-7.2l-6.9-16.7h1.9l6,14.7l6.5-14.7H1019.4z"/>
		<path class="st14" d="M1021.2,177.4c-0.6-1.3-0.9-2.9-0.9-4.5c0-1.6,0.3-3.2,0.9-4.5c1.2-2.6,3.5-4.3,7.2-4.3
			c3.7,0,6.1,1.8,7.2,4.3c0.6,1.3,0.9,2.9,0.9,4.5c0,1.6-0.3,3.2-0.9,4.5c-1.2,2.6-3.6,4.3-7.2,4.3S1022.4,180,1021.2,177.4z
			 M1034,176.8c0.5-1.1,0.7-2.5,0.7-3.9c0-1.4-0.2-2.8-0.7-3.9c-0.9-2-2.7-3.3-5.6-3.3c-2.9,0-4.7,1.3-5.6,3.3
			c-0.5,1.1-0.7,2.5-0.7,3.9c0,1.4,0.2,2.8,0.7,3.9c0.9,2,2.7,3.3,5.6,3.3C1031.3,180.1,1033.1,178.8,1034,176.8z"/>
		<path class="st14" d="M1054.1,164.5v16.8h-1.7v-2.8c-1.2,2.2-3.3,3.2-5.9,3.2c-4.3,0-6.5-2.4-6.5-7.3v-9.9h1.8v9.7
			c0,4.1,1.6,5.9,5,5.9c3.6,0,5.6-2.1,5.6-5.9v-9.7H1054.1z"/>
		<path class="st14" d="M1073,164.5v1.6c-0.5-0.1-1.1-0.2-1.7-0.2c-3.2,0-4.7,2-4.7,5.2v10.2h-1.7v-16.8h1.7v2.4
			c0.8-1.6,2.4-2.6,4.7-2.6C1071.9,164.3,1072.5,164.4,1073,164.5z"/>
		<path class="st14" d="M1088.7,175.4h1.8c-0.1,1.9-0.8,3.3-2,4.4c-1.4,1.2-3.4,2-5.8,2c-3.7,0-6.3-1.7-7.5-4.3
			c-0.6-1.3-0.9-2.7-0.9-4.5s0.3-3.2,0.9-4.5c1.2-2.7,3.8-4.3,7.3-4.3s6.1,1.6,7.2,4.2c0.6,1.4,0.9,2.9,0.9,4.9H1076
			c0,1.4,0.2,2.6,0.7,3.6c0.9,2.1,2.9,3.4,5.9,3.4c1.9,0,3.4-0.5,4.5-1.5C1088,177.9,1088.5,176.7,1088.7,175.4z M1076,171.7h12.7
			c-0.1-1.1-0.3-2-0.6-2.8c-0.9-2-2.8-3.2-5.6-3.2c-2.9,0-4.8,1.2-5.8,3.4C1076.3,169.8,1076.1,170.7,1076,171.7z"/>
		<path class="st14" d="M1107.8,171.3v10.1h-1.7v-3c-1.2,2.2-3.4,3.4-6.7,3.4c-2.8,0-4.9-0.9-5.7-2.8c-0.3-0.6-0.4-1.3-0.4-2.2
			c0-0.8,0.2-1.5,0.4-2.1c1.1-2.3,4.1-3,7.8-3h4.6v-0.6c0-1.3-0.2-2.3-0.5-3.1c-0.7-1.6-2.2-2.3-4.8-2.3c-2.4,0-4.1,0.7-4.8,2.2
			c-0.2,0.5-0.4,1.1-0.4,1.8h-1.8c0-0.9,0.2-1.8,0.5-2.5c0.9-2.1,3.2-3.1,6.4-3.1c3.3,0,5.4,1.1,6.3,3.2
			C1107.6,168.4,1107.8,169.7,1107.8,171.3z M1105.4,177.1c0.5-1.1,0.7-2.3,0.7-3.8v-0.2h-4.5c-3,0-5.5,0.5-6.3,2.2
			c-0.2,0.3-0.3,0.8-0.3,1.3c0,0.5,0.1,1,0.3,1.5c0.6,1.4,2.2,2.1,4.3,2.1C1102.6,180.2,1104.5,179.1,1105.4,177.1z"/>
		<path class="st14" d="M1112,177.4c-0.6-1.3-0.8-2.8-0.8-4.5c0-1.7,0.3-3.2,0.8-4.5c1.2-2.7,3.7-4.3,7.2-4.3c2.2,0,4.1,0.6,5.4,1.9
			c1.2,1.1,1.9,2.7,2,4.6h-1.9c-0.1-1.5-0.6-2.7-1.5-3.5c-0.9-0.9-2.3-1.4-4-1.4c-2.8,0-4.6,1.3-5.5,3.4c-0.5,1.1-0.7,2.4-0.7,3.9
			c0,1.5,0.2,2.8,0.7,3.9c0.9,2,2.8,3.3,5.5,3.3c1.6,0,3-0.5,4-1.4c0.9-0.8,1.4-2,1.5-3.4h1.9c-0.1,1.9-0.8,3.4-1.9,4.5
			c-1.3,1.2-3.2,1.9-5.4,1.9C1115.8,181.7,1113.3,180.1,1112,177.4z"/>
		<path class="st14" d="M1144.3,171.4v9.9h-1.8v-9.7c0-4.1-1.6-5.9-5-5.9c-3.6,0-5.6,2.1-5.6,5.9v9.7h-1.7v-24.7h1.7v10.7
			c1.2-2.2,3.3-3.2,5.9-3.2C1142.1,164.1,1144.3,166.5,1144.3,171.4z"/>
		<path class="st14" d="M1162.1,175.4h1.8c-0.1,1.9-0.8,3.3-2,4.4c-1.4,1.2-3.4,2-5.8,2c-3.7,0-6.3-1.7-7.5-4.3
			c-0.6-1.3-0.9-2.7-0.9-4.5s0.3-3.2,0.9-4.5c1.2-2.7,3.8-4.3,7.4-4.3s6.1,1.6,7.2,4.2c0.6,1.4,0.9,2.9,0.9,4.9h-14.5
			c0,1.4,0.2,2.6,0.7,3.6c0.9,2.1,2.9,3.4,5.9,3.4c1.9,0,3.4-0.5,4.5-1.5C1161.4,177.9,1162,176.7,1162.1,175.4z M1149.5,171.7h12.7
			c-0.1-1.1-0.3-2-0.6-2.8c-0.9-2-2.8-3.2-5.6-3.2c-2.9,0-4.8,1.2-5.8,3.4C1149.8,169.8,1149.6,170.7,1149.5,171.7z"/>
		<path class="st14" d="M1182.5,156.6v24.7h-1.7v-3.2c-1.3,2.3-3.6,3.5-6.4,3.5c-3.3,0-5.7-1.6-6.9-4.2c-0.6-1.3-0.9-2.9-0.9-4.6
			c0-1.8,0.3-3.3,0.9-4.6c1.2-2.6,3.6-4.2,6.9-4.2c2.8,0,5.2,1.2,6.4,3.5v-11H1182.5z M1180.8,173.3v-0.8c0-4.3-2.5-6.8-6.1-6.8
			c-2.6,0-4.5,1.2-5.5,3.3c-0.5,1-0.7,2.4-0.7,3.9c0,1.5,0.2,2.8,0.7,3.9c0.9,2.1,2.9,3.3,5.5,3.3
			C1178.3,180.1,1180.8,177.7,1180.8,173.3z"/>
		<path class="st14" d="M1194.7,176.5V166h-3v-1.5h3v-4.1h1.8v4.1h5.7v1.5h-5.7v10.3c0,2.5,1.1,3.6,3.2,3.6c0.7,0,1.6-0.1,2.3-0.3
			v1.6c-0.8,0.2-1.8,0.3-2.6,0.3C1196.2,181.6,1194.7,180,1194.7,176.5z"/>
		<path class="st14" d="M1219.2,171.4v9.9h-1.8v-9.7c0-4.1-1.6-5.9-5-5.9c-3.6,0-5.6,2.1-5.6,5.9v9.7h-1.7v-24.7h1.7v10.7
			c1.2-2.2,3.3-3.2,5.9-3.2C1217,164.1,1219.2,166.5,1219.2,171.4z"/>
		<path class="st14" d="M1237.1,175.4h1.8c-0.1,1.9-0.8,3.3-2,4.4c-1.4,1.2-3.4,2-5.8,2c-3.7,0-6.3-1.7-7.5-4.3
			c-0.6-1.3-0.9-2.7-0.9-4.5s0.3-3.2,0.9-4.5c1.2-2.7,3.8-4.3,7.4-4.3s6.1,1.6,7.2,4.2c0.6,1.4,0.9,2.9,0.9,4.9h-14.5
			c0,1.4,0.2,2.6,0.7,3.6c0.9,2.1,2.9,3.4,5.9,3.4c1.9,0,3.4-0.5,4.5-1.5C1236.4,177.9,1236.9,176.7,1237.1,175.4z M1224.4,171.7
			h12.7c-0.1-1.1-0.3-2-0.6-2.8c-0.9-2-2.8-3.2-5.6-3.2c-2.9,0-4.8,1.2-5.8,3.4C1224.7,169.8,1224.5,170.7,1224.4,171.7z"/>
		<path class="st14" d="M1264.6,172.9c0,1.8-0.3,3.3-0.9,4.6c-1.2,2.6-3.6,4.2-6.9,4.2c-2.8,0-5.2-1.2-6.4-3.6v10.3h-1.7v-23.9h1.7
			v3.2c1.3-2.4,3.6-3.6,6.4-3.6c3.3,0,5.7,1.6,6.9,4.2C1264.4,169.6,1264.6,171.2,1264.6,172.9z M1262.8,172.9
			c0-1.5-0.2-2.8-0.7-3.9c-0.9-2.2-2.9-3.3-5.5-3.3c-3.7,0-6.1,2.5-6.1,6.8v0.8c0,4.4,2.5,6.8,6.1,6.8c2.6,0,4.6-1.2,5.5-3.3
			C1262.6,175.7,1262.8,174.4,1262.8,172.9z"/>
		<path class="st14" d="M1282,171.3v10.1h-1.7v-3c-1.2,2.2-3.4,3.4-6.7,3.4c-2.8,0-4.9-0.9-5.7-2.8c-0.3-0.6-0.4-1.3-0.4-2.2
			c0-0.8,0.2-1.5,0.4-2.1c1-2.3,4.1-3,7.8-3h4.6v-0.6c0-1.3-0.2-2.3-0.5-3.1c-0.7-1.6-2.2-2.3-4.8-2.3c-2.4,0-4.1,0.7-4.8,2.2
			c-0.2,0.5-0.3,1.1-0.3,1.8h-1.8c0-0.9,0.2-1.8,0.5-2.5c0.9-2.1,3.2-3.1,6.4-3.1c3.3,0,5.4,1.1,6.3,3.2
			C1281.8,168.4,1282,169.7,1282,171.3z M1279.6,177.1c0.5-1.1,0.7-2.3,0.7-3.8v-0.2h-4.5c-3,0-5.5,0.5-6.3,2.2
			c-0.2,0.3-0.3,0.8-0.3,1.3c0,0.5,0.1,1,0.3,1.5c0.6,1.4,2.2,2.1,4.3,2.1C1276.8,180.2,1278.6,179.1,1279.6,177.1z"/>
		<path class="st14" d="M1294.4,164.5v1.6c-0.5-0.1-1-0.2-1.7-0.2c-3.2,0-4.7,2-4.7,5.2v10.2h-1.7v-16.8h1.7v2.4
			c0.8-1.6,2.4-2.6,4.7-2.6C1293.4,164.3,1293.9,164.4,1294.4,164.5z"/>
		<path class="st14" d="M1310.2,171.3v10.1h-1.7v-3c-1.2,2.2-3.4,3.4-6.7,3.4c-2.8,0-4.9-0.9-5.7-2.8c-0.3-0.6-0.4-1.3-0.4-2.2
			c0-0.8,0.2-1.5,0.4-2.1c1-2.3,4.1-3,7.8-3h4.6v-0.6c0-1.3-0.2-2.3-0.5-3.1c-0.7-1.6-2.2-2.3-4.8-2.3c-2.4,0-4.1,0.7-4.8,2.2
			c-0.2,0.5-0.3,1.1-0.3,1.8h-1.8c0-0.9,0.2-1.8,0.5-2.5c0.9-2.1,3.2-3.1,6.4-3.1c3.3,0,5.4,1.1,6.3,3.2
			C1310,168.4,1310.2,169.7,1310.2,171.3z M1307.8,177.1c0.5-1.1,0.7-2.3,0.7-3.8v-0.2h-4.5c-3,0-5.5,0.5-6.3,2.2
			c-0.2,0.3-0.3,0.8-0.3,1.3c0,0.5,0.1,1,0.3,1.5c0.6,1.4,2.2,2.1,4.3,2.1C1305,180.2,1306.9,179.1,1307.8,177.1z"/>
		<path class="st14" d="M1329.5,156.6v24.7h-1.7v-3.2c-1.3,2.3-3.6,3.5-6.4,3.5c-3.3,0-5.7-1.6-6.9-4.2c-0.6-1.3-0.9-2.9-0.9-4.6
			c0-1.8,0.3-3.3,0.9-4.6c1.2-2.6,3.6-4.2,6.9-4.2c2.8,0,5.2,1.2,6.4,3.5v-11H1329.5z M1327.8,173.3v-0.8c0-4.3-2.5-6.8-6.1-6.8
			c-2.6,0-4.5,1.2-5.5,3.3c-0.5,1-0.7,2.4-0.7,3.9c0,1.5,0.2,2.8,0.7,3.9c0.9,2.1,2.9,3.3,5.5,3.3
			C1325.4,180.1,1327.8,177.7,1327.8,173.3z"/>
		<path class="st14" d="M1333.6,159.7c0-0.8,0.6-1.3,1.4-1.3c0.8,0,1.4,0.6,1.4,1.3c0,0.8-0.6,1.3-1.4,1.3
			C1334.2,161,1333.6,160.4,1333.6,159.7z M1334.1,164.5h1.7v16.8h-1.7V164.5z"/>
		<path class="st14" d="M1339.8,178.6c-0.4-0.8-0.6-1.8-0.6-2.9h1.7c0,0.8,0.1,1.6,0.4,2.2c0.7,1.5,2.1,2.3,4.6,2.3
			c2.4,0,4-0.7,4.5-2c0.2-0.4,0.3-0.8,0.3-1.3c0-0.5-0.1-0.8-0.2-1.2c-0.7-1.4-2.7-1.8-5-2.3c-2.5-0.6-4.6-1.3-5.4-3
			c-0.2-0.5-0.3-1-0.3-1.7c0-0.7,0.1-1.3,0.4-1.9c0.7-1.7,2.6-2.7,5.5-2.7c2.9,0,4.9,1.1,5.7,2.9c0.4,0.7,0.5,1.6,0.5,2.6h-1.7
			c0-0.7-0.1-1.4-0.4-1.9c-0.6-1.4-2.1-2.1-4.1-2.1c-2.1,0-3.3,0.7-3.8,1.8c-0.2,0.4-0.2,0.8-0.2,1.2c0,0.4,0.1,0.7,0.2,1
			c0.6,1.4,2.7,1.8,4.9,2.3c2.6,0.6,4.7,1.3,5.5,3.1c0.2,0.6,0.4,1.1,0.4,1.8c0,0.7-0.1,1.4-0.4,2c-0.8,1.9-3,2.9-6.2,2.9
			C1342.8,181.7,1340.7,180.6,1339.8,178.6z"/>
		<path class="st14" d="M1369.6,175.4h1.8c-0.1,1.9-0.8,3.3-2,4.4c-1.4,1.2-3.4,2-5.8,2c-3.7,0-6.3-1.7-7.5-4.3
			c-0.6-1.3-0.9-2.7-0.9-4.5s0.3-3.2,0.9-4.5c1.2-2.7,3.8-4.3,7.4-4.3s6.1,1.6,7.2,4.2c0.6,1.4,0.9,2.9,0.9,4.9h-14.5
			c0,1.4,0.2,2.6,0.7,3.6c0.9,2.1,2.9,3.4,5.9,3.4c1.9,0,3.4-0.5,4.5-1.5C1368.9,177.9,1369.4,176.7,1369.6,175.4z M1356.9,171.7
			h12.7c-0.1-1.1-0.3-2-0.6-2.8c-0.9-2-2.8-3.2-5.6-3.2c-2.9,0-4.8,1.2-5.8,3.4C1357.3,169.8,1357,170.7,1356.9,171.7z"/>
	</g>
	<g id="Logo_1_">
		<g>
			<g>
				<path class="st14" d="M952.8,350.4h-14.8V315c0-4.2-1-7.3-3-9.5c-2-2.2-4.5-3.2-7.4-3.2c-2.3,0-4.4,0.4-6.4,1.1
					c-2,0.7-4,1.9-5.9,3.5c0.6,2.4,0.9,5.1,0.9,8.1v35.4h-14.8V315c0-4.2-1-7.3-3-9.5c-2-2.2-4.5-3.2-7.3-3.2
					c-2.3,0-4.2,0.4-5.9,1.2c-1.7,0.8-3.5,2-5.3,3.7v43.2H865v-59.3h14.8l0,4.4c1.8-1.8,4-3.2,6.5-4.3c2.5-1.1,5-1.6,7.7-1.6
					c2.9,0,5.8,0.7,8.7,1.9c2.9,1.3,5.5,3.2,7.7,5.6c3.1-2.7,6.2-4.7,9.3-5.8c3.1-1.2,6.6-1.7,10.4-1.7c3.1,0,6,0.5,8.8,1.4
					c2.8,0.9,5.2,2.4,7.2,4.4c2.1,2,3.7,4.6,4.9,7.7c1.2,3.1,1.8,6.9,1.8,11.2V350.4z"/>
				<path class="st14" d="M1025.3,320.8c0,4.4-0.8,8.6-2.5,12.4c-1.6,3.8-3.9,7.1-6.8,9.8c-2.9,2.8-6.2,5-10.1,6.6
					c-3.9,1.6-8,2.4-12.4,2.4c-4.4,0-8.5-0.8-12.3-2.4s-7.2-3.8-10.1-6.6c-2.9-2.8-5.1-6.1-6.8-9.9c-1.6-3.8-2.5-7.9-2.5-12.3
					c0-4.3,0.8-8.4,2.5-12.2c1.7-3.8,4-7.1,6.8-10c2.9-2.8,6.2-5.1,10.1-6.7c3.8-1.6,7.9-2.4,12.2-2.4c4.4,0,8.5,0.8,12.4,2.4
					c3.9,1.6,7.2,3.8,10.1,6.6c2.9,2.8,5.1,6.1,6.8,9.9C1024.4,312.3,1025.3,316.4,1025.3,320.8z M1010.5,320.8
					c0-2.5-0.4-4.9-1.3-7.1c-0.9-2.2-2.1-4.1-3.6-5.7c-1.5-1.6-3.3-2.9-5.4-3.8c-2-0.9-4.2-1.4-6.5-1.4s-4.5,0.5-6.5,1.4
					c-2,0.9-3.8,2.2-5.4,3.8c-1.5,1.6-2.7,3.6-3.6,5.7c-0.9,2.2-1.3,4.5-1.3,7.1c0,2.5,0.4,4.9,1.3,7.1c0.9,2.2,2.1,4.1,3.6,5.7
					c1.5,1.6,3.3,2.9,5.4,3.8c2,0.9,4.2,1.4,6.5,1.4s4.5-0.5,6.5-1.4c2-0.9,3.8-2.2,5.4-3.8c1.5-1.6,2.7-3.6,3.6-5.7
					C1010.1,325.7,1010.5,323.3,1010.5,320.8z"/>
				<path class="st14" d="M1088.2,350.4h-14.8v-35.5c0-2.1-0.3-4-1-5.6c-0.7-1.6-1.5-2.9-2.6-4c-1.1-1.1-2.3-1.8-3.7-2.4
					s-2.9-0.8-4.4-0.8c-2.3,0-4.4,0.3-6.5,1c-2.1,0.7-4.1,1.6-6,2.9v44.3h-14.8v-85h14.8l0.1,29.1c2.2-1.7,4.7-3,7.6-3.8
					c2.9-0.8,5.6-1.2,8.3-1.2c3.1,0,6,0.5,8.7,1.5c2.7,1,5.2,2.5,7.3,4.5c2.1,2,3.8,4.5,5,7.6c1.2,3,1.8,6.7,1.8,10.8V350.4z"/>
				<path class="st14" d="M1160.7,320.7c0,1-0.1,1.9-0.2,3c-0.1,1-0.2,2.1-0.4,3.2h-47.4c0.5,1.7,1.3,3.3,2.3,4.9
					c1,1.5,2.2,2.9,3.6,4c1.4,1.1,3.1,2,4.9,2.7c1.8,0.7,3.8,1,6,1c2.7,0,5.3-0.5,8-1.4c2.7-0.9,4.9-2.2,6.7-3.7l9.3,9.3
					c-4.1,3.1-8.1,5.2-12.1,6.5c-3.9,1.3-8.1,1.9-12.5,1.9c-4.4,0-8.6-0.8-12.5-2.5c-3.9-1.6-7.2-3.9-10.1-6.7
					c-2.8-2.8-5.1-6.1-6.7-9.9c-1.6-3.8-2.5-7.8-2.5-12.2c0-4.3,0.8-8.4,2.5-12.2c1.6-3.8,3.9-7.1,6.8-9.9c2.9-2.8,6.2-5,10.1-6.7
					c3.8-1.6,7.9-2.5,12.3-2.5c4.2,0,8.2,0.8,12,2.3c3.8,1.5,7.2,3.7,10.2,6.4c2.9,2.7,5.3,6,7,9.8
					C1159.8,311.9,1160.7,316.1,1160.7,320.7z M1145.2,314.9c-1.2-3.8-3.2-6.8-6.2-9.1c-3-2.3-6.3-3.4-10.1-3.4c-3.7,0-7,1.1-10,3.4
					c-2.9,2.3-5,5.3-6.2,9.1H1145.2z"/>
				<path class="st14" d="M1218,350.4h-14.8v-3.2c-2.6,1.8-5.4,3-8.3,3.7c-2.9,0.7-5.9,1-9,1c-2.9,0-5.5-0.4-7.8-1.3
					c-2.3-0.9-4.3-2.1-6.1-3.7c-1.7-1.6-3-3.5-3.9-5.7c-0.9-2.2-1.4-4.6-1.4-7.3c0-3.4,0.7-6.3,2.2-8.8c1.5-2.5,3.5-4.6,6-6.3
					c2.5-1.7,5.5-2.9,8.9-3.7c3.4-0.8,7-1.2,10.9-1.2h8.5c0-3.5-1.1-6.3-3.4-8.3c-2.3-2.1-5.5-3.1-9.7-3.1c-2.1,0-4.2,0.4-6.4,1.1
					c-2.2,0.8-4.4,2.1-6.6,4.1l-8.7-8.8c3.1-3,6.8-5.3,10.9-7c4.1-1.6,8.4-2.5,12.8-2.5c4.1,0,7.8,0.7,11,1.9c3.2,1.3,5.8,3,7.8,5
					c2.6,2.6,4.4,5.5,5.5,8.7c1.1,3.2,1.6,7.3,1.6,12.3V350.4z M1203.3,335.6v-11h-6.8c-2.1,0-4,0.1-5.8,0.4
					c-1.8,0.3-3.4,0.7-4.7,1.4c-1.3,0.7-2.4,1.5-3.2,2.5c-0.8,1-1.2,2.3-1.2,3.7c0,2.1,0.8,3.7,2.4,5c1.6,1.3,3.7,1.9,6.2,1.9
					c2.2,0,4.4-0.3,6.5-1S1201.1,336.9,1203.3,335.6z"/>
			</g>
			<g>
				<path class="st14" d="M877.4,372.2l-7.9,17.5h-1.4l2.4-5.3l-5-12.2h1.4l4.4,10.8l4.7-10.8H877.4z"/>
				<path class="st14" d="M878.7,381.6c-0.4-1-0.7-2.1-0.7-3.3s0.2-2.3,0.7-3.3c0.8-1.9,2.6-3.2,5.3-3.2c2.7,0,4.5,1.3,5.3,3.2
					c0.4,1,0.7,2.1,0.7,3.3s-0.2,2.3-0.7,3.3c-0.8,1.9-2.6,3.2-5.3,3.2C881.3,384.8,879.6,383.5,878.7,381.6z M888.1,381.2
					c0.4-0.8,0.5-1.8,0.5-2.9s-0.2-2-0.5-2.8c-0.7-1.5-2-2.4-4.1-2.4c-2.1,0-3.4,1-4.1,2.4c-0.4,0.8-0.5,1.8-0.5,2.9
					s0.2,2.1,0.5,2.9c0.7,1.5,2,2.4,4.1,2.4C886.1,383.6,887.4,382.7,888.1,381.2z"/>
				<path class="st14" d="M902.8,372.2v12.3h-1.3v-2.1c-0.8,1.6-2.4,2.4-4.3,2.4c-3.1,0-4.7-1.8-4.7-5.4v-7.3h1.3v7.1
					c0,3,1.2,4.3,3.7,4.3c2.6,0,4.1-1.5,4.1-4.3v-7.1H902.8z"/>
				<path class="st14" d="M912,372.2v1.2c-0.4-0.1-0.8-0.2-1.2-0.2c-2.3,0-3.4,1.5-3.4,3.8v7.5h-1.3v-12.3h1.3v1.8
					c0.6-1.2,1.7-1.9,3.4-1.9C911.3,372,911.7,372.1,912,372.2z"/>
				<path class="st14" d="M928.8,377.1v7.4h-1.3v-2.2c-0.8,1.6-2.5,2.5-4.9,2.5c-2,0-3.6-0.6-4.2-2.1c-0.2-0.5-0.3-1-0.3-1.6
					c0-0.6,0.1-1.1,0.3-1.5c0.8-1.7,3-2.2,5.7-2.2h3.4V377c0-0.9-0.1-1.7-0.4-2.3c-0.5-1.2-1.6-1.7-3.5-1.7c-1.7,0-3,0.5-3.5,1.6
					c-0.2,0.4-0.3,0.8-0.3,1.3h-1.3c0-0.7,0.1-1.3,0.4-1.8c0.7-1.5,2.4-2.3,4.7-2.3c2.4,0,3.9,0.8,4.6,2.4
					C928.6,375,928.8,376,928.8,377.1z M927,381.4c0.3-0.8,0.5-1.7,0.5-2.8v-0.1h-3.3c-2.2,0-4,0.3-4.6,1.6
					c-0.1,0.3-0.2,0.6-0.2,0.9c0,0.4,0.1,0.8,0.2,1.1c0.5,1,1.6,1.5,3.2,1.5C925,383.7,926.4,382.9,927,381.4z"/>
				<path class="st14" d="M931.9,381.7c-0.4-0.9-0.6-2.1-0.6-3.3c0-1.2,0.2-2.4,0.6-3.3c0.9-2,2.7-3.2,5.3-3.2c1.6,0,3,0.5,3.9,1.4
					c0.9,0.8,1.4,1.9,1.5,3.4h-1.4c-0.1-1.1-0.5-1.9-1.1-2.5c-0.7-0.6-1.7-1-2.9-1c-2,0-3.4,0.9-4,2.5c-0.4,0.8-0.5,1.7-0.5,2.8
					s0.2,2,0.5,2.8c0.7,1.5,2,2.4,4,2.4c1.2,0,2.2-0.3,2.9-1c0.6-0.6,1-1.4,1.1-2.5h1.4c-0.1,1.4-0.6,2.5-1.4,3.3
					c-1,0.9-2.4,1.4-4,1.4C934.6,384.8,932.8,383.6,931.9,381.7z"/>
				<path class="st14" d="M945.1,381.7c-0.4-0.9-0.6-2.1-0.6-3.3c0-1.2,0.2-2.4,0.6-3.3c0.9-2,2.7-3.2,5.3-3.2c1.6,0,3,0.5,3.9,1.4
					c0.9,0.8,1.4,1.9,1.5,3.4h-1.4c-0.1-1.1-0.5-1.9-1.1-2.5c-0.7-0.6-1.7-1-2.9-1c-2,0-3.4,0.9-4,2.5c-0.4,0.8-0.5,1.7-0.5,2.8
					s0.2,2,0.5,2.8c0.7,1.5,2,2.4,4,2.4c1.2,0,2.2-0.3,2.9-1c0.6-0.6,1-1.4,1.1-2.5h1.4c-0.1,1.4-0.6,2.5-1.4,3.3
					c-1,0.9-2.4,1.4-4,1.4C947.8,384.8,946,383.6,945.1,381.7z"/>
				<path class="st14" d="M968.3,380.1h1.3c-0.1,1.4-0.6,2.4-1.5,3.2c-1,0.9-2.5,1.4-4.3,1.4c-2.7,0-4.6-1.2-5.5-3.2
					c-0.4-0.9-0.6-2-0.6-3.3s0.2-2.4,0.6-3.3c0.9-2,2.8-3.2,5.4-3.2s4.4,1.2,5.3,3.1c0.5,1,0.6,2.2,0.6,3.6H959c0,1,0.2,1.9,0.5,2.7
					c0.7,1.6,2.2,2.5,4.3,2.5c1.4,0,2.5-0.4,3.3-1.1C967.8,382,968.2,381.1,968.3,380.1z M959,377.4h9.3c-0.1-0.8-0.2-1.5-0.5-2.1
					c-0.7-1.5-2.1-2.3-4.1-2.3c-2.1,0-3.5,0.9-4.2,2.5C959.3,376.1,959.1,376.7,959,377.4z"/>
				<path class="st14" d="M971.8,382.5c-0.3-0.6-0.4-1.3-0.4-2.2h1.3c0,0.6,0.1,1.2,0.3,1.6c0.5,1.1,1.6,1.7,3.4,1.7
					c1.7,0,2.9-0.5,3.3-1.5c0.1-0.3,0.2-0.6,0.2-1c0-0.3-0.1-0.6-0.2-0.8c-0.5-1.1-1.9-1.3-3.7-1.7c-1.8-0.4-3.4-0.9-4-2.2
					c-0.2-0.4-0.2-0.8-0.2-1.2c0-0.5,0.1-0.9,0.3-1.4c0.5-1.2,1.9-2,4-2c2.2,0,3.6,0.8,4.2,2.1c0.3,0.5,0.4,1.2,0.4,1.9h-1.3
					c0-0.5-0.1-1-0.3-1.4c-0.5-1-1.5-1.5-3-1.5c-1.5,0-2.4,0.5-2.8,1.3c-0.1,0.3-0.2,0.6-0.2,0.9c0,0.3,0.1,0.5,0.1,0.7
					c0.5,1,2,1.3,3.6,1.7c1.9,0.4,3.5,0.9,4.1,2.3c0.2,0.4,0.3,0.8,0.3,1.3c0,0.5-0.1,1-0.3,1.5c-0.6,1.4-2.2,2.2-4.6,2.2
					C974,384.8,972.5,384,971.8,382.5z"/>
				<path class="st14" d="M983.4,382.5c-0.3-0.6-0.4-1.3-0.4-2.2h1.3c0,0.6,0.1,1.2,0.3,1.6c0.5,1.1,1.6,1.7,3.4,1.7
					c1.7,0,2.9-0.5,3.3-1.5c0.1-0.3,0.2-0.6,0.2-1c0-0.3-0.1-0.6-0.2-0.8c-0.5-1.1-1.9-1.3-3.7-1.7c-1.8-0.4-3.4-0.9-4-2.2
					c-0.2-0.4-0.2-0.8-0.2-1.2c0-0.5,0.1-0.9,0.3-1.4c0.5-1.2,1.9-2,4-2c2.2,0,3.6,0.8,4.2,2.1c0.3,0.5,0.4,1.2,0.4,1.9H991
					c0-0.5-0.1-1-0.3-1.4c-0.5-1-1.5-1.5-3-1.5c-1.5,0-2.4,0.5-2.8,1.3c-0.1,0.3-0.2,0.6-0.2,0.9c0,0.3,0.1,0.5,0.1,0.7
					c0.5,1,2,1.3,3.6,1.7c1.9,0.4,3.5,0.9,4.1,2.3c0.2,0.4,0.3,0.8,0.3,1.3c0,0.5-0.1,1-0.3,1.5c-0.6,1.4-2.2,2.2-4.6,2.2
					C985.6,384.8,984.1,384,983.4,382.5z"/>
				<path class="st14" d="M995,368.6c0-0.6,0.4-1,1-1c0.6,0,1,0.4,1,1c0,0.6-0.4,0.9-1,0.9C995.4,369.6,995,369.2,995,368.6z
					 M995.4,372.2h1.3v12.3h-1.3V372.2z"/>
				<path class="st14" d="M1011.6,378.3c0,1.3-0.2,2.4-0.6,3.4c-0.9,1.9-2.6,3.1-5,3.1c-2.1,0-3.8-0.9-4.7-2.6v2.3h-1.3v-18.1h1.3
					v8.1c0.9-1.7,2.6-2.6,4.7-2.6c2.4,0,4.2,1.2,5,3.1C1011.4,375.9,1011.6,377.1,1011.6,378.3z M1010.3,378.3
					c0-1.1-0.2-2.1-0.5-2.8c-0.7-1.6-2.1-2.4-4-2.4c-2.7,0-4.5,1.8-4.5,5v0.6c0,3.2,1.8,5,4.5,5c1.9,0,3.3-0.8,4-2.4
					C1010.1,380.4,1010.3,379.5,1010.3,378.3z"/>
				<path class="st14" d="M1013.8,368.6c0-0.6,0.4-1,1-1c0.6,0,1,0.4,1,1c0,0.6-0.4,0.9-1,0.9
					C1014.3,369.6,1013.8,369.2,1013.8,368.6z M1014.2,372.2h1.3v12.3h-1.3V372.2z"/>
				<path class="st14" d="M1018.8,366.4h1.3v18.1h-1.3V366.4z"/>
				<path class="st14" d="M1023,368.6c0-0.6,0.4-1,1-1c0.6,0,1,0.4,1,1c0,0.6-0.4,0.9-1,0.9C1023.4,369.6,1023,369.2,1023,368.6z
					 M1023.4,372.2h1.3v12.3h-1.3V372.2z"/>
				<path class="st14" d="M1028.9,381v-7.7h-2.2v-1.1h2.2v-3h1.3v3h4.2v1.1h-4.2v7.6c0,1.8,0.8,2.7,2.4,2.7c0.5,0,1.2-0.1,1.7-0.2
					v1.2c-0.6,0.2-1.3,0.2-1.9,0.2C1030,384.7,1028.9,383.5,1028.9,381z"/>
				<path class="st14" d="M1047.1,372.2l-7.9,17.5h-1.4l2.4-5.3l-5-12.2h1.4l4.4,10.8l4.7-10.8H1047.1z"/>
				<path class="st14" d="M1063.8,377.1v7.4h-1.3v-2.2c-0.8,1.6-2.5,2.5-4.9,2.5c-2,0-3.6-0.6-4.2-2.1c-0.2-0.5-0.3-1-0.3-1.6
					c0-0.6,0.1-1.1,0.3-1.5c0.8-1.7,3-2.2,5.7-2.2h3.4V377c0-0.9-0.1-1.7-0.4-2.3c-0.5-1.2-1.6-1.7-3.5-1.7c-1.7,0-3,0.5-3.5,1.6
					c-0.2,0.4-0.3,0.8-0.3,1.3h-1.3c0-0.7,0.1-1.3,0.4-1.8c0.7-1.5,2.4-2.3,4.7-2.3c2.4,0,3.9,0.8,4.6,2.4
					C1063.6,375,1063.8,376,1063.8,377.1z M1062,381.4c0.3-0.8,0.5-1.7,0.5-2.8v-0.1h-3.3c-2.2,0-4,0.3-4.6,1.6
					c-0.1,0.3-0.2,0.6-0.2,0.9c0,0.4,0.1,0.8,0.2,1.1c0.5,1,1.6,1.5,3.2,1.5C1060,383.7,1061.4,382.9,1062,381.4z"/>
				<path class="st14" d="M1066.6,382.5c-0.3-0.6-0.4-1.3-0.4-2.2h1.3c0,0.6,0.1,1.2,0.3,1.6c0.5,1.1,1.6,1.7,3.4,1.7
					c1.7,0,2.9-0.5,3.3-1.5c0.1-0.3,0.2-0.6,0.2-1c0-0.3-0.1-0.6-0.2-0.8c-0.5-1.1-1.9-1.3-3.7-1.7c-1.8-0.4-3.4-0.9-4-2.2
					c-0.2-0.4-0.2-0.8-0.2-1.2c0-0.5,0.1-0.9,0.3-1.4c0.5-1.2,1.9-2,4-2c2.2,0,3.6,0.8,4.2,2.1c0.3,0.5,0.4,1.2,0.4,1.9h-1.3
					c0-0.5-0.1-1-0.3-1.4c-0.5-1-1.5-1.5-3-1.5c-1.5,0-2.4,0.5-2.8,1.3c-0.1,0.3-0.2,0.6-0.2,0.9c0,0.3,0.1,0.5,0.1,0.7
					c0.5,1,2,1.3,3.6,1.7c1.9,0.4,3.5,0.9,4.1,2.3c0.2,0.4,0.3,0.8,0.3,1.3c0,0.5-0.1,1-0.3,1.5c-0.6,1.4-2.2,2.2-4.6,2.2
					C1068.8,384.8,1067.3,384,1066.6,382.5z"/>
				<path class="st14" d="M1078.2,382.5c-0.3-0.6-0.4-1.3-0.4-2.2h1.3c0,0.6,0.1,1.2,0.3,1.6c0.5,1.1,1.6,1.7,3.4,1.7
					c1.7,0,2.9-0.5,3.3-1.5c0.1-0.3,0.2-0.6,0.2-1c0-0.3-0.1-0.6-0.2-0.8c-0.5-1.1-1.9-1.3-3.7-1.7c-1.8-0.4-3.4-0.9-4-2.2
					c-0.2-0.4-0.2-0.8-0.2-1.2c0-0.5,0.1-0.9,0.3-1.4c0.5-1.2,1.9-2,4-2c2.2,0,3.6,0.8,4.2,2.1c0.3,0.5,0.4,1.2,0.4,1.9h-1.3
					c0-0.5-0.1-1-0.3-1.4c-0.5-1-1.5-1.5-3-1.5c-1.5,0-2.4,0.5-2.8,1.3c-0.1,0.3-0.2,0.6-0.2,0.9c0,0.3,0.1,0.5,0.1,0.7
					c0.5,1,2,1.3,3.6,1.7c1.9,0.4,3.5,0.9,4.1,2.3c0.2,0.4,0.3,0.8,0.3,1.3c0,0.5-0.1,1-0.3,1.5c-0.6,1.4-2.2,2.2-4.6,2.2
					C1080.4,384.8,1078.9,384,1078.2,382.5z"/>
				<path class="st14" d="M1089.8,368.6c0-0.6,0.4-1,1-1c0.6,0,1,0.4,1,1c0,0.6-0.4,0.9-1,0.9
					C1090.2,369.6,1089.8,369.2,1089.8,368.6z M1090.1,372.2h1.3v12.3h-1.3V372.2z"/>
				<path class="st14" d="M1094.4,382.5c-0.3-0.6-0.4-1.3-0.4-2.2h1.3c0,0.6,0.1,1.2,0.3,1.6c0.5,1.1,1.6,1.7,3.4,1.7
					c1.7,0,2.9-0.5,3.3-1.5c0.1-0.3,0.2-0.6,0.2-1c0-0.3-0.1-0.6-0.2-0.8c-0.5-1.1-1.9-1.3-3.7-1.7c-1.8-0.4-3.4-0.9-4-2.2
					c-0.2-0.4-0.2-0.8-0.2-1.2c0-0.5,0.1-0.9,0.3-1.4c0.5-1.2,1.9-2,4-2c2.2,0,3.6,0.8,4.2,2.1c0.3,0.5,0.4,1.2,0.4,1.9h-1.3
					c0-0.5-0.1-1-0.3-1.4c-0.5-1-1.5-1.5-3-1.5c-1.5,0-2.4,0.5-2.8,1.3c-0.1,0.3-0.2,0.6-0.2,0.9c0,0.3,0.1,0.5,0.1,0.7
					c0.5,1,2,1.3,3.6,1.7c1.9,0.4,3.5,0.9,4.1,2.3c0.2,0.4,0.3,0.8,0.3,1.3c0,0.5-0.1,1-0.3,1.5c-0.6,1.4-2.2,2.2-4.6,2.2
					C1096.5,384.8,1095,384,1094.4,382.5z"/>
				<path class="st14" d="M1106.8,381v-7.7h-2.2v-1.1h2.2v-3h1.3v3h4.2v1.1h-4.2v7.6c0,1.8,0.8,2.7,2.4,2.7c0.5,0,1.2-0.1,1.7-0.2
					v1.2c-0.6,0.2-1.3,0.2-1.9,0.2C1107.9,384.7,1106.8,383.5,1106.8,381z"/>
				<path class="st14" d="M1124.3,377.1v7.4h-1.3v-2.2c-0.8,1.6-2.5,2.5-4.9,2.5c-2,0-3.6-0.6-4.2-2.1c-0.2-0.5-0.3-1-0.3-1.6
					c0-0.6,0.1-1.1,0.3-1.5c0.8-1.7,3-2.2,5.7-2.2h3.4V377c0-0.9-0.1-1.7-0.4-2.3c-0.5-1.2-1.6-1.7-3.5-1.7c-1.7,0-3,0.5-3.5,1.6
					c-0.2,0.4-0.3,0.8-0.3,1.3h-1.3c0-0.7,0.1-1.3,0.4-1.8c0.7-1.5,2.4-2.3,4.7-2.3c2.4,0,3.9,0.8,4.6,2.4
					C1124.1,375,1124.3,376,1124.3,377.1z M1122.5,381.4c0.3-0.8,0.5-1.7,0.5-2.8v-0.1h-3.3c-2.2,0-4,0.3-4.6,1.6
					c-0.1,0.3-0.2,0.6-0.2,0.9c0,0.4,0.1,0.8,0.2,1.1c0.5,1,1.6,1.5,3.2,1.5C1120.5,383.7,1121.8,382.9,1122.5,381.4z"/>
				<path class="st14" d="M1137.9,377.2v7.3h-1.3v-7.1c0-3-1.2-4.3-3.7-4.3c-2.6,0-4.1,1.5-4.1,4.3v7.1h-1.3v-12.3h1.3v2.1
					c0.8-1.6,2.4-2.4,4.3-2.4C1136.2,371.9,1137.9,373.6,1137.9,377.2z"/>
				<path class="st14" d="M1141.5,381v-7.7h-2.2v-1.1h2.2v-3h1.3v3h4.2v1.1h-4.2v7.6c0,1.8,0.8,2.7,2.4,2.7c0.5,0,1.2-0.1,1.7-0.2
					v1.2c-0.6,0.2-1.3,0.2-1.9,0.2C1142.6,384.7,1141.5,383.5,1141.5,381z"/>
			</g>
		</g>
		<g>
			<ellipse class="st14" cx="756.9" cy="292.4" rx="13.2" ry="22.5"/>
			
				<ellipse transform="matrix(0.6235 -0.7818 0.7818 0.6235 33.1114 683.2715)" class="st18" cx="726" cy="307.3" rx="13.2" ry="22.5"/>
			
				<ellipse transform="matrix(0.9749 -0.2225 0.2225 0.9749 -57.7947 168.3783)" class="st19" cx="718.3" cy="340.7" rx="22.5" ry="13.2"/>
			
				<ellipse transform="matrix(0.4339 -0.901 0.901 0.4339 87.6309 874.4266)" class="st20" cx="739.6" cy="367.5" rx="22.5" ry="13.2"/>
			
				<ellipse transform="matrix(0.901 -0.4339 0.4339 0.901 -82.8218 372.1824)" class="st21" cx="773.9" cy="367.5" rx="13.2" ry="22.5"/>
			
				<ellipse transform="matrix(0.2225 -0.9749 0.9749 0.2225 286.1235 1040.3)" class="st22" cx="795.3" cy="340.8" rx="13.2" ry="22.5"/>
			
				<ellipse transform="matrix(0.7818 -0.6235 0.6235 0.7818 -19.7631 558.1891)" class="st23" cx="787.7" cy="307.3" rx="22.5" ry="13.2"/>
			<circle class="st14" cx="756.8" cy="331.9" r="13.2"/>
		</g>
	</g>
</g>
</svg>
