<svg xmlns="http://www.w3.org/2000/svg" xmlns:xlink="http://www.w3.org/1999/xlink" viewBox="0 0 1080 858"><defs><clipPath id="clip-path"><path d="M1795.48,27.16V857.91H-716.41V27.16h.1c4.64.5,9.3,1,13.94,1.44q4.62.48,9.24.93l3.11.31q9,.88,17.9,1.73h0l8.44.79c4.08.38,8.18.76,12.26,1.11q10.38.95,20.75,1.8,6.54.57,13,1.09,15.2,1.23,30.38,2.37c2.72.21,5.46.4,8.18.6q7.9.57,15.83,1.12l12.79.87q7.94.53,15.88,1l1.42.09c5.28.34,10.58.65,15.88,1q9.67.57,19.36,1.1,6.91.39,13.79.74c2.6.15,5.21.28,7.82.41q16.1.83,32.19,1.53c3.26.14,6.51.29,9.77.42,5.42.23,10.83.46,16.26.67.42,0,.83,0,1.25,0,5.22.19,10.44.39,15.67.57q7.35.29,14.72.51,18.35.62,36.68,1.1l9.6.25,6.77.16q15.87.39,31.75.66c5.28.11,10.56.19,15.84.28h.8c167.93,2.58,335.86-1.8,503.8-8.92q107.43-4.55,214.85-10.26c76.22-3.92,152.45-8,228.67-11.93Q771.65,15.15,881,10.51c125.71-5.16,251.43-8.69,377.14-8.8h0c.77,0,1.56,0,2.33,0q12.54,0,25.09,0h1l8.27,0h2.29q10.28,0,20.58.13l3.29,0,6.86.06,4.7,0c1.43,0,2.89,0,4.34,0,5.77.07,11.54.13,17.31.23q85.69,1.17,171.39,4.93l14.46.66q15.35.73,30.72,1.56,6.87.36,13.74.76,8.73.5,17.43,1l2.94.18c4.88.29,9.77.61,14.63.92l4.14.26Q1709.55,18.19,1795.48,27.16Z" style="fill:none"/></clipPath><clipPath id="clip-path-2"><path id="SVGID" d="M1517.18,628.94h-1884a91.65,91.65,0,0,0-91.65,91.66,91.65,91.65,0,0,0,91.65,91.66h208.07a54.22,54.22,0,0,1,54.22,54.21,54.22,54.22,0,0,1-54.22,54.21H-195.1a72.43,72.43,0,0,0-72.43,72.43,72.43,72.43,0,0,0,72.43,72.42H-26.49a39.6,39.6,0,0,1,39.6,39.6,39.6,39.6,0,0,1-39.6,39.61H-96.65A114.29,114.29,0,0,0-210.95,1259a114.3,114.3,0,0,0,114.3,114.3H201A54.32,54.32,0,1,0,201,1482h898.5a54.32,54.32,0,1,0,0-108.63H1336a114.3,114.3,0,0,0,0-228.59H908.22a39.61,39.61,0,1,1,0-79.21h442.46a72.43,72.43,0,0,0,0-144.85h-43.11a54.21,54.21,0,0,1,0-108.42h209.61a91.66,91.66,0,0,0,0-183.32Z" style="fill:none"/></clipPath></defs><g style="isolation:isolate"><g id="Calque_1" data-name="Calque 1"><path d="M1795.48,27.16V857.91H-716.31V27.17c4.64.5,9.3,1,13.94,1.44q4.62.48,9.24.93l3.11.31q9,.88,17.9,1.73h0l8.44.79c4.08.38,8.18.76,12.26,1.11q10.38.95,20.75,1.8,6.54.57,13,1.09,15.2,1.23,30.38,2.37c2.72.21,5.46.4,8.18.6q7.9.57,15.83,1.12l12.79.87q7.94.53,15.88,1l1.42.09c5.28.34,10.58.65,15.88,1q9.67.57,19.36,1.1,6.91.39,13.79.74c2.6.15,5.21.28,7.82.41q16.1.83,32.19,1.53c3.26.14,6.51.29,9.77.42,5.42.23,10.83.46,16.26.67.42,0,.83,0,1.25,0,5.22.19,10.44.39,15.67.57q7.35.29,14.72.51,18.35.62,36.68,1.1l9.6.25,6.77.16q15.87.39,31.75.66c5.28.11,10.56.19,15.84.28h.8c167.93,2.58,335.86-1.8,503.8-8.92q107.43-4.55,214.85-10.26c76.22-3.92,152.45-8,228.67-11.93Q771.65,15.15,881,10.51c125.71-5.16,251.43-8.69,377.14-8.8h0c.77,0,1.56,0,2.33,0q12.54,0,25.09,0h1l8.27,0h2.29q10.28,0,20.58.13l3.29,0,6.86.06,4.7,0c-.11-.69-.23-1.39-.37-2,0,0,1.69.69,4.71,2.09,5.77.07,11.54.13,17.31.23q85.69,1.17,171.39,4.93l14.46.66q15.35.73,30.72,1.56,6.87.36,13.74.76,8.73.5,17.43,1l2.94.18c4.88.29,9.77.61,14.63.92l4.14.26Q1709.55,18.19,1795.48,27.16Z" style="fill:#ff4757;opacity:0.100000001490116;isolation:isolate"/><path d="M1207.77,563.81q0,29.93-2.73,59.15-.27,3-.59,6-.79,7.95-1.82,15.82-2.24,17.55-5.45,34.8a626.66,626.66,0,0,1-61.91,178.35H17.05A626.66,626.66,0,0,1-44.86,679.56q-3.21-17.25-5.45-34.8-1-7.87-1.82-15.82-.32-3-.59-6-2.7-29.21-2.73-59.15,0-3.39,0-6.76h0q.25-24.15,2.29-47.82C-36.56,315.71,67.25,147.11,218.81,43q107.43-4.55,214.85-10.26c76.22-3.92,152.45-8,228.67-11.93Q771.65,15.15,881,10.51c162.78,89.83,281.66,249.43,316.37,438.48a631,631,0,0,1,10.28,102C1207.74,555.27,1207.77,559.53,1207.77,563.81Z" style="fill:#ff4757;opacity:0.6000000000000001"/><path d="M1125.94,563.81a555.64,555.64,0,0,1-3.15,59.15c-.21,2-.43,4-.68,6q-.93,7.95-2.09,15.82-2.6,17.58-6.3,34.8a545.86,545.86,0,0,1-73,178.35H111.59a546.28,546.28,0,0,1-73-178.35q-3.7-17.22-6.29-34.8-1.18-7.87-2.09-15.82-.37-3-.68-6a550.42,550.42,0,0,1-3.16-59.15c0-1.16,0-2.33,0-3.49q.07-12.74.73-25.32h0C39.61,293.41,208,93.08,433.66,32.69c76.22-3.92,152.45-8,228.67-11.93,247.76,39,440.57,243.47,461.68,496.75q1.48,17.68,1.83,35.68C1125.9,556.72,1125.94,560.27,1125.94,563.81Z" style="fill:#ff4757"/><path d="M-716.41,441.88c0-.15,33,45.63,56-3.59s35.7-124,80.33-134.12,47.76,114.38,86.88,122.75,54.65-8.24,76.33-29.49,30.6,9.53,48.45,40.86,51.72,68.52,76.86,44.29,60.84-67.09,95.27-39.21,37.91,81.87,64,106.72,66.05,22.77,95.38-7.9,71.4-17.21,89.25,26,38.26,19.67,62.48,8.08S158.13,623,158.13,623H-716.41S-715.64,548.18-716.41,441.88Z" style="fill:#5b5552"/><path d="M-582.22,644.76S-433.58,372.15-390.78,366.1s81.39,81.77,110.43,122.45,60.45-.4,104-28.2,87-10.42,120.83,44.93S12.1,581.66,55.6,542.15s74.91-44,113.58,9S234.43,615.61,280.35,576s123.24,23.31,140.16,68.72Z" style="fill:#0e7289"/><path d="M1792.7,441.88c0-.15-33,45.63-56-3.59s-35.7-124-80.32-134.12-47.77,114.38-86.88,122.75-54.65-8.24-76.33-29.49-30.6,9.53-48.45,40.86-51.72,68.52-76.86,44.29-60.85-67.09-95.27-39.21-37.91,81.87-64,106.72-66,22.77-95.37-7.9-71.4-17.21-89.26,26-38.25,19.67-62.47,8.08S918.17,623,918.17,623H1792.7S1791.94,548.18,1792.7,441.88Z" style="fill:#5b5552"/><path d="M1658.52,644.76S1509.88,372.15,1467.08,366.1s-81.39,81.77-110.43,122.45-60.45-.4-104-28.2-87-10.42-120.83,44.93-67.67,76.38-111.17,36.87-74.92-44-113.58,9S841.87,615.61,796,576,672.7,599.35,655.79,644.76Z" style="fill:#0e7289"/><path d="M1593.64,771.16v.05c0,1.09,0,2.17-.07,3.26a91.37,91.37,0,0,1-3.16,20.93,91.4,91.4,0,0,1-16.65,32.81,91.78,91.78,0,0,1-42,29.7H-411.87a91.62,91.62,0,0,1-33.83-20.73,91.35,91.35,0,0,1-28-66,91.21,91.21,0,0,1,15.2-50.56,91.34,91.34,0,0,1,9.33-11.84,91.42,91.42,0,0,1,67.13-29.25H1502a91.58,91.58,0,0,1,91.66,91.6Z" style="fill:#4b7cab;opacity:0.2;mix-blend-mode:multiply"/><path d="M1608.84,720.6a91.4,91.4,0,0,1-15.2,50.56c-.33.5-.66,1-1,1.48a92.4,92.4,0,0,1-24.2,24h0q-2.85,1.9-5.84,3.62c-1.78,1-3.61,2-5.47,2.88a91.22,91.22,0,0,1-39.94,9.14H1307.57a54.2,54.2,0,0,0-53.52,45.66H-105.26a54.2,54.2,0,0,0-53.53-45.66H-366.86a91.52,91.52,0,0,1-22.29-2.73,91.17,91.17,0,0,1-33.38-16.11,91.46,91.46,0,0,1-36-72.76v0c0-1.21,0-2.4.08-3.59a91.74,91.74,0,0,1,1.91-15.5c.35-1.62.73-3.25,1.18-4.84.19-.76.4-1.51.64-2.25a90.61,90.61,0,0,1,7.14-17.3A92.27,92.27,0,0,1-437.34,662a91.86,91.86,0,0,1,19-17.24,89.19,89.19,0,0,1,12-6.91,91.21,91.21,0,0,1,39.47-8.91h1884a91.59,91.59,0,0,1,91.66,91.66Z" style="fill:#9bccee"/><g style="clip-path:url(#clip-path)"><g style="clip-path:url(#clip-path-2)"><path d="M1602.18,945.34C1473,979.16,1407.53,896.16,1275,906.94s-174.51-1.56-250-32.3-156.06-72.25-317.15-75.32-236.6,106.06-367.48,107.6S217.81,847,110.42,859.27-55.71,777.8-240.29,740.91s-322.18,58.41-322.18,58.41v313.57s70.39-126.14,196.25-103.08,154.46,52.35,233.32,30.83,172.84,21.52,243.32,64.56,167.24,123.88,273,79.31S639,1055.39,811.83,1104.57s139.27,88.24,238.28,66.73,122.5,52.14,218.14,46,115.79,63,214.79,76.86,216.46-70.59,303.72-169V815.43C1765.47,840.94,1709.11,917.36,1602.18,945.34Z" style="fill:#e9e4d9;opacity:0.5"/><path d="M1602.18,908.85C1473,942.67,1407.53,859.66,1275,870.45s-174.51-1.56-250-32.3S868.88,765.9,707.79,762.83,471.19,868.89,340.31,870.42s-122.5-59.94-229.89-47.65S-55.71,741.31-240.29,704.42s-322.18,58.41-322.18,58.41V1076.4s97.33-99.92,223.18-76.86,127.53,26.13,206.39,4.62,172.84,21.51,243.32,64.55S290,1170.16,395.68,1125.58s241.64-81.46,414.47-32.28,141,63,240,41.5,122.5,73.79,218.14,67.64,99,9.22,198,23,233.24-38.42,320.5-136.8V778.94C1765.47,804.45,1709.11,880.87,1602.18,908.85Z" style="fill:#6c63ff"/><path d="M1786,779.9V938.46c-87.26,98.38-221.5,150.64-320.51,136.81s-102.35-29.21-198-23.06-119.14-89.15-218.14-67.63-67.13,7.68-240-41.5-308.76-12.3-414.47,32.28S180.1,961.52,109.62,918.48-54.82,832.4-133.69,853.92s-80.54,18.45-206.4-4.61c-119.31-21.85-213,66.79-222.38,76.06v151s97.33-99.92,223.18-76.86,127.53,26.13,206.39,4.62,172.84,21.51,243.32,64.55S290,1170.16,395.68,1125.58s241.64-81.46,414.47-32.28,141,63,240,41.5,122.5,73.79,218.14,67.64,99,9.22,198,23,233.24-38.42,320.5-136.8V778.94Z" style="fill:#6c63ff"/><path d="M-562.47,788.19s114.11-113,298.69-76.09S3,860.43,110.42,848.13s99,70.41,229.89,68.87,206.39-145,367.48-141.88,241.64,86.08,317.15,116.82,115.78-3,248.35-13.83,201.36,104.52,330.56,70.71,182.91-153,182.91-153V631.4H-562.47Z" style="fill:#e9e4d9;opacity:0.5"/><path d="M-562.47,762.83s137.6-95.3,322.18-58.41S3,835.07,110.42,822.77s99,49.19,229.89,47.65S546.7,759.75,707.79,762.83s241.64,44.57,317.15,75.32,117.46,43.09,250,32.3,198,72.22,327.22,38.4,184.58-138.34,184.58-138.34V606H-562.47Z" style="fill:#6c63ff"/><path d="M1540.7,917.69c-41.35,0-76.94-11.18-113.94-22.8-44.92-14.11-91.37-28.69-151.74-23.79-130.12,10.6-172-.46-250.33-32.35-8.07-3.28-16-6.63-24.48-10.16-69.69-29.23-148.68-62.36-292.43-65.11C622,761.82,560.91,791.9,501.87,821c-51.62,25.4-100.37,49.4-161.56,50.12-65.78.78-96.88-14.54-124.31-28.06-28-13.79-52.17-25.71-105.51-19.6a169.06,169.06,0,0,1-19.2,1.11c-46.82,0-85.59-20.12-133.19-44.81q-7.82-4.07-16-8.26l.51-1.2c80.45,27,154.39,27.81,239.75,2.7,31.71-9.33,62-18.67,91.28-27.71,92.12-28.41,171.67-53,248.77-62.92,84.38-10.9,157.22-2.61,229.22,26.09C936,781.9,1077.12,816.32,1211,760.92c19.92-8.25,36.63-15.74,51.38-22.34,83.8-37.56,98.9-44.33,237.77,22.35,110.79,53.21,215.12,51.39,286.25-5l1.06-.84v15.56l-.07.15c-.14.26-14.24,26.56-43.95,56.64-27.43,27.76-74.16,64.52-141.05,82A241.26,241.26,0,0,1,1540.7,917.69Zm-241.89-48.87c49.32,0,89.4,12.59,128.34,24.82,53.9,16.93,104.8,32.91,174.86,14.58l.17.63-.17-.63c66.6-17.43,113.14-54,140.45-81.68,28.45-28.8,42.49-54.08,43.64-56.19V757.81c-36.71,28.69-82.1,43.07-132.55,43.07-47.8,0-100.15-12.9-154-38.77-64.47-31-105.68-48.12-138.8-50.21-31.32-2-56.36,9.26-97.88,27.87-14.75,6.61-31.47,14.1-51.41,22.36-63.44,26.26-133,33.36-212.62,21.72-67.14-9.81-143.52-32.7-247.65-74.21-156-62.19-297.72-18.48-477.13,36.86-29.28,9-59.57,18.38-91.29,27.71C99.87,798.6,27.7,798.59-50.06,774l8.76,4.54c53.75,27.89,96.2,49.93,151.64,43.57C164.06,816,188.4,828,216.58,841.85c27.29,13.45,58.25,28.7,123.72,27.92,60.88-.72,109.51-24.65,161-50,59.18-29.13,120.38-59.24,206.52-57.61,144,2.75,223.11,35.93,292.91,65.21,8.43,3.54,16.4,6.88,24.46,10.16,78.13,31.81,119.91,42.83,249.73,32.26C1283.12,869.13,1291.08,868.82,1298.81,868.82Z" style="fill:#e9e4d9"/><path d="M1786.76,724.27c-23.82,20.73-54,35.4-87.86,42.33-60.14,12.32-128.12.59-202.05-34.86-82-39.34-122.18-56.43-162.12-55-40.84,1.45-79.68,22-157,63l-10.54,5.57c-134.24,71-237.75,15-357.61-49.88-25-13.54-50.89-27.54-77.86-40.82-72.68-35.79-126.56-47.09-186-39-58,7.89-121,34.88-208.25,72.24Q320.9,694.87,303,702.5C195.68,748.18,126.75,764,57.2,759.07c-75.31-5.38-155.51-36.2-268.59-87.62-120.65-54.86-214.76-63-272.47-60.22-35.74,1.74-62.31,7.79-78.61,12.7v1.62c16.14-4.9,42.78-11,78.82-12.79,104.16-5,205.13,29.88,271.52,60.07,113.25,51.5,193.61,82.37,269.2,87.77,8.15.58,16.27.88,24.46.88,62.05,0,127.12-17.13,222.21-57.59q17.89-7.6,34.43-14.71c87.1-37.3,150-64.25,207.79-72.11,59-8,112.59,3.21,184.93,38.84,26.93,13.26,52.79,27.25,77.8,40.78,80.53,43.58,153.7,83.18,233.81,83.18,39.56,0,80.83-9.67,125.49-33.29l10.54-5.57c152.81-80.89,158.78-84,317.54-7.91,74.29,35.63,142.65,47.4,203.2,35,33.63-6.89,63.64-21.32,87.49-41.72Z" style="fill:#e9e4d9"/></g></g><path d="M-229.85,250.44A78.07,78.07,0,0,0-261.31,249h-.1v97.39a2.29,2.29,0,0,1,.1-.23c.1-.27.22-.54.35-.82,2.67-5.55,8.31-9.33,17.61-13.27,7.47-3.17,6-8.55,9.29-22.52a120.13,120.13,0,0,1,3.49-11.88c8.09-23.08,45-31.75,45-31.75S-192.81,259.82-229.85,250.44ZM52.83,644.76c-1.3-2-2.76-4.34-4.16-6.91a54.6,54.6,0,0,1-4.54-10.6,17.24,17.24,0,0,1-.66-4.29c-.44-10.83,6.85-24.39,6.45-29-.43-5.2-2.43-17.42-6.66-21.79s-20.77-4.39-25.68-6.82-23.27-9.61-52.77-5.55c-14,1.92-30.83,3.18-44.69,1.65-15.37-1.7-27.1-6.81-27.25-18.23-.27-18.12,30.83-21.23,51.25-22,4-.15,7.66-.21,10.54-.27,17.41-.38,32.1-5.31,55.35-8S56.3,535,56.3,535a33.6,33.6,0,0,0-2.75-16.81c-3.94-9.29-14-38-19-48.42s-16.19-23.66-16.19-23.66-6.81-2.38-24.8-2.16c-5.43.06-11.87.36-19.44,1C-58.61,448-93.95,454.3-119.58,472s-66.77,38.51-70.13,19.34,6.87-27.83,58-40.16,98-16.75,106.61-16.62c7.08.1,19.54,1.61,23.71,2.13l1.4.18s-.12-.65-.33-1.73c-.36-1.87-1-5.05-1.78-8.38a65.25,65.25,0,0,0-3.36-11.24c-2.5-5.19-13.91-17.83-19.32-29.1s-23-26.78-23-26.78-12.68-2.81-31.22.66c-2.73.5-5.6,1.15-8.57,2-23.09,6.31-32.84,11.53-40.63,15.27s-14.76,9.23-26.43,13.77c-6.76,2.63-26.22,17.46-43.78,30.59-12.76,9.58-24.53,18.27-29.64,20.72-12.13,5.83-18.41,9.39-9.29-10.46,4.84-10.55,28.59-32.15,54.83-53.05,10.18-8.11,20.74-16.12,30.71-23.34,1.89-1.36,3.76-2.71,5.61-4,10.54-7.48,20.18-13.88,27.69-18.33a75.12,75.12,0,0,1,24-9.51c19.22-3.67,30.42,4.12,30.42,4.12s-3.94-9.3-20.85-26.75-22.15-12.81-29.16-17-14-1.73-31.95-10.91c-12.37-6.32-22-.76-29.16,5.52-3.27,2.85-6.05,5.86-8.36,8-7.41,6.75-5.29,8.93-13.28,11.18-4.7,1.32-9.15,5.47-15.83,14.55-4.67,6.32-10.43,15-18.11,26.82a401.78,401.78,0,0,1-30.53,40.27s-.07.06-.1.1v79.82l.1.08a0,0,0,0,1,0,0c3.91,3.06,4.39,9.64.12,21.06,0,.11-.08.23-.13.34l-.1.25v54.77l.1,0,.24.14c3.41,2,11.22,7.57,11.7,17.47.62,12.69-2.42,24.69-6.85,26.24a5.21,5.21,0,0,1-4.92-.81.66.66,0,0,1-.17-.12l-.1-.06V728.2l.1.17a62.09,62.09,0,0,1,3.38,6.84c5,12.53,15.86,30.74,24,32.17s10.91,3.82,23.35,5.3c10.57,1.25,20.89-1.22,34.92-6,2.46-.85,5-1.78,7.76-2.76,5.74-2.09,10.88-3.88,15.22-5.36,9.37-3.19,15-4.91,15-4.91s-4-1.84-10-4.93c-5.14-2.67-11.75-6.28-18.45-10.44-2.76-1.71-5.55-3.52-8.24-5.39-13.29-9.22-18.11-18.16-23.45-30.7-1.41-3.31-2.85-6.89-4.5-10.77C-209.56,674.1-231,647.56-244.31,623c-1-1.91-2-3.81-2.95-5.69-12.89-26.11,4.18-37.41,11-31.41,3.69,3.24,9.38,20.45,14.68,37.1,4.49,14.16,8.68,27.91,11.07,32.39,5.22,9.75,9.33,22.71,18.42,31.66,3.14,3.09,7.71,7.8,12.62,13,7.32,7.7,15.43,16.53,21,22.87,1.57,1.77,2.93,3.36,4,4.67A91.79,91.79,0,0,0-142.2,739c6.61,5.35,12.79,9.55,12.79,9.55s12.69-1.31,33-10,48.81-16,48.81-16L-55,719.2c-7.47-3.34-14-13.53-14-13.53l25.65,9s23.14-7.84,39.07-17.34c1-.59,2-1.19,2.9-1.79l1.69-1.11c14.32-9.79,16.44-17.73,16.44-17.73s-3.73.35-9.3.43c-10,.15-25.94-.6-37-5.87-17.27-8.22-22-11.31-24.45-16.5a46.63,46.63,0,0,0-6.43-10,44.71,44.71,0,0,0-6-5.88c-5.44-4.45-13.84-11.62-7.87-15.92a12,12,0,0,1,3.19-1.56c3.65-1.24,8.22-.49,13.31,1.56,10.12,4,22.33,13.2,33.66,21.8.83.64,1.67,1.26,2.5,1.89,11.9,9,29.3,13.44,39.36,15.35,4.86.91,8,1.25,8,1.25s5.12-6.12,12.75-13.52c7.47-7.25,18,.38,18.46.7C56.7,650.2,55,648,52.83,644.76Zm-211-105.44s3.14-11.76,19.28-17.79,34.92-9,37.11-6.88-.74,6-7.09,14.66-20.95,19.75-36.66,20.09S-158,540-158.17,539.32Zm-29.57,27.06c4.57,9.78,3.33,22.79.17,23.44s-10.33-5.57-14.87-16.51-6.11-22,.48-19.71A25.45,25.45,0,0,1-187.74,566.38Zm-42.45-50.12c-11.29.53-10.57-7.64-10.57-7.64,3.54-18.45,29.46-28.46,32.31-28.82s8.82-1.78,8,7.86S-218.89,515.71-230.19,516.26Zm111.91,137.21c9,14.45,22.33,29.66,25.41,34.82.36.62.66,1.16.9,1.63,1.7,3.46,0,3.15-2.25,2.19a13.16,13.16,0,0,1-2.93-2.74c-5.41-6-16.29-20.32-23.73-29.6-9.37-11.65-21-13.54-34.12-28.31-2.54-2.85-5-5.69-7.26-8.5-9.5-11.72-15.74-22.66-11-29.49,0,0,5.11-13.41,21,4.23,6.92,7.69,12.56,16.53,17.49,25.26,3.52,6.25,6.67,12.44,9.63,18.12.67,1.25,1.32,2.49,2,3.68C-121.55,647.91-119.92,650.84-118.28,653.47Z" style="fill:#216d6e"/><path d="M254.8,832.11c-2.47-8.29-5-14.56-7.05-19.86-3.42-8.6-5.86-14.71-5.81-23A37.31,37.31,0,0,1,250,766.76s-23.14,6-49.31-4.21-46.55-31.29-61.29-27.16-39.56,12.39-70.75,68.94c-1,1.74-1.9,3.46-2.81,5.19-9,16.88-16.4,33.44-22.68,48.39H261.25C260.69,854.24,259.25,847,254.8,832.11ZM87.45,703.55c-22.06-9.49-55.76-11.95-55.76-11.95A142.17,142.17,0,0,0,5.81,708.81c-3,2.46-6.12,5.19-9.25,8.2a146.75,146.75,0,0,0-14.85,16.51C-40.18,762-51.14,792.3-62.44,843.3c-1,4.62-2,9.52-3,14.61H1.71c2.1-6.55,4.58-13.49,7.59-20.73a261.76,261.76,0,0,1,23.17-43.77c4.16-6.31,8.75-12.73,13.83-19.2,36.61-46.65,82.16-54.58,82.16-54.58S109.49,713,87.45,703.55ZM-179.46,700c-7.88.78-13.35,1.36-18.29,2.12,5.34,12.54,10.16,21.48,23.45,30.7,2.69,1.87,5.48,3.68,8.24,5.39a170.22,170.22,0,0,1,7.59-15.34C-164,716.55-172.14,707.72-179.46,700Zm0,0c-7.88.78-13.35,1.36-18.29,2.12,5.34,12.54,10.16,21.48,23.45,30.7,2.69,1.87,5.48,3.68,8.24,5.39a170.22,170.22,0,0,1,7.59-15.34C-164,716.55-172.14,707.72-179.46,700Zm0,0c-7.88.78-13.35,1.36-18.29,2.12,5.34,12.54,10.16,21.48,23.45,30.7,2.69,1.87,5.48,3.68,8.24,5.39a170.22,170.22,0,0,1,7.59-15.34C-164,716.55-172.14,707.72-179.46,700Zm0,0c-7.88.78-13.35,1.36-18.29,2.12,5.34,12.54,10.16,21.48,23.45,30.7,2.69,1.87,5.48,3.68,8.24,5.39a170.22,170.22,0,0,1,7.59-15.34C-164,716.55-172.14,707.72-179.46,700Zm0,0c-7.88.78-13.35,1.36-18.29,2.12,5.34,12.54,10.16,21.48,23.45,30.7,2.69,1.87,5.48,3.68,8.24,5.39a170.22,170.22,0,0,1,7.59-15.34C-164,716.55-172.14,707.72-179.46,700Zm0,0c-7.88.78-13.35,1.36-18.29,2.12,5.34,12.54,10.16,21.48,23.45,30.7,2.69,1.87,5.48,3.68,8.24,5.39a170.22,170.22,0,0,1,7.59-15.34C-164,716.55-172.14,707.72-179.46,700Zm0,0c-7.88.78-13.35,1.36-18.29,2.12,5.34,12.54,10.16,21.48,23.45,30.7,2.69,1.87,5.48,3.68,8.24,5.39a170.22,170.22,0,0,1,7.59-15.34C-164,716.55-172.14,707.72-179.46,700Zm0,0c-7.88.78-13.35,1.36-18.29,2.12,5.34,12.54,10.16,21.48,23.45,30.7,2.69,1.87,5.48,3.68,8.24,5.39a170.22,170.22,0,0,1,7.59-15.34C-164,716.55-172.14,707.72-179.46,700Zm0,0c-7.88.78-13.35,1.36-18.29,2.12,5.34,12.54,10.16,21.48,23.45,30.7,2.69,1.87,5.48,3.68,8.24,5.39a170.22,170.22,0,0,1,7.59-15.34C-164,716.55-172.14,707.72-179.46,700Zm0,0c-7.88.78-13.35,1.36-18.29,2.12,5.34,12.54,10.16,21.48,23.45,30.7,2.69,1.87,5.48,3.68,8.24,5.39a170.22,170.22,0,0,1,7.59-15.34C-164,716.55-172.14,707.72-179.46,700Zm0,0c-7.88.78-13.35,1.36-18.29,2.12,5.34,12.54,10.16,21.48,23.45,30.7,2.69,1.87,5.48,3.68,8.24,5.39a170.22,170.22,0,0,1,7.59-15.34C-164,716.55-172.14,707.72-179.46,700ZM-.35,696.67c-1.22.22-2.54.43-3.95.65-13.15,2-34.37,4.14-51.86.32-13.35-2.91-25.61-6.3-35.81-7.72-1.79-.25-3.52-.44-5.18-.55-8.44-.59-15.1.72-19.33,5.65-9.79,11.42-10.71,18.89-24.68,42.26-.34.57-.68,1.15-1,1.74-1.77,3-3.59,6.25-5.41,9.65q-2.55,4.7-5.07,9.84c-10.62,21.64-20.68,49-24.33,79.35-.72,6-1.41,12.75-2.07,20h96.87c10.9-20.18,20.87-39,24.08-53.93,6.39-29.6,30.79-68.48,40.47-84.56A68.2,68.2,0,0,1-1.53,701.51,70.5,70.5,0,0,1,8.12,695C7.75,695.1,4.59,695.82-.35,696.67ZM-179.46,700c-7.88.78-13.35,1.36-18.29,2.12,5.34,12.54,10.16,21.48,23.45,30.7,2.69,1.87,5.48,3.68,8.24,5.39a170.22,170.22,0,0,1,7.59-15.34C-164,716.55-172.14,707.72-179.46,700Zm0,0c-7.88.78-13.35,1.36-18.29,2.12,5.34,12.54,10.16,21.48,23.45,30.7,2.69,1.87,5.48,3.68,8.24,5.39a170.22,170.22,0,0,1,7.59-15.34C-164,716.55-172.14,707.72-179.46,700Zm0,0c-7.88.78-13.35,1.36-18.29,2.12,5.34,12.54,10.16,21.48,23.45,30.7,2.69,1.87,5.48,3.68,8.24,5.39a170.22,170.22,0,0,1,7.59-15.34C-164,716.55-172.14,707.72-179.46,700Zm0,0c-7.88.78-13.35,1.36-18.29,2.12,5.34,12.54,10.16,21.48,23.45,30.7,2.69,1.87,5.48,3.68,8.24,5.39a170.22,170.22,0,0,1,7.59-15.34C-164,716.55-172.14,707.72-179.46,700Zm0,0c-7.88.78-13.35,1.36-18.29,2.12,5.34,12.54,10.16,21.48,23.45,30.7,2.69,1.87,5.48,3.68,8.24,5.39a170.22,170.22,0,0,1,7.59-15.34C-164,716.55-172.14,707.72-179.46,700Zm0,0c-7.88.78-13.35,1.36-18.29,2.12,5.34,12.54,10.16,21.48,23.45,30.7,2.69,1.87,5.48,3.68,8.24,5.39a170.22,170.22,0,0,1,7.59-15.34C-164,716.55-172.14,707.72-179.46,700Zm0,0c-7.88.78-13.35,1.36-18.29,2.12,5.34,12.54,10.16,21.48,23.45,30.7,2.69,1.87,5.48,3.68,8.24,5.39a170.22,170.22,0,0,1,7.59-15.34C-164,716.55-172.14,707.72-179.46,700Zm0,0c-7.88.78-13.35,1.36-18.29,2.12,5.34,12.54,10.16,21.48,23.45,30.7,2.69,1.87,5.48,3.68,8.24,5.39a170.22,170.22,0,0,1,7.59-15.34C-164,716.55-172.14,707.72-179.46,700Zm0,0c-7.88.78-13.35,1.36-18.29,2.12,5.34,12.54,10.16,21.48,23.45,30.7,2.69,1.87,5.48,3.68,8.24,5.39a170.22,170.22,0,0,1,7.59-15.34C-164,716.55-172.14,707.72-179.46,700Zm0,0c-7.88.78-13.35,1.36-18.29,2.12,5.34,12.54,10.16,21.48,23.45,30.7,2.69,1.87,5.48,3.68,8.24,5.39a170.22,170.22,0,0,1,7.59-15.34C-164,716.55-172.14,707.72-179.46,700Zm0,0c-7.88.78-13.35,1.36-18.29,2.12,5.34,12.54,10.16,21.48,23.45,30.7,2.69,1.87,5.48,3.68,8.24,5.39a170.22,170.22,0,0,1,7.59-15.34C-164,716.55-172.14,707.72-179.46,700Zm5.49-.57c-1.95.2-3.78.38-5.49.57-7.88.78-13.35,1.36-18.29,2.12a117.72,117.72,0,0,0-12.16,2.51c-10.49,2.68-40.13.26-51.4,11.94l-.1.09V857.91h72.06c4.82-21.69,8.59-42.6,9.36-61.66a148.58,148.58,0,0,1,4.33-29.62,178.66,178.66,0,0,1,9.6-28.4,170.22,170.22,0,0,1,7.59-15.34,96.66,96.66,0,0,1,10.91-16c10.35-11.73,14.56-13.23,15.29-13.43C-133.9,693.72-156.25,697.65-174,699.45Z" style="fill:#278e90"/><path d="M1269.26,249.78c-6.79-5.64-15.62-9.86-27-4.41-18.2,8.73-25.08,6.12-32.2,10.12a23,23,0,0,1-7.14,2.25h0c-4.88,1-11,2.8-22.41,14C1163.2,288.79,1159,298,1159,298s21.18-14,54.29,6.73c6.77,4.22,15.26,10.13,24.56,17,5.77,4.26,11.85,8.91,18,13.76,4.82,3.81,9.72,7.73,14.56,11.71V250.82C1270.08,250.47,1269.68,250.12,1269.26,249.78Zm-9.92,455.64c-.44.29-.87.58-1.32.86-6.12,3.94-12.54,7.54-18.24,10.51-9.9,5.18-17.58,8.49-17.58,8.49s10.11,3.35,25.7,9.35l4.29,1.67c5.79,2.27,11,4.22,15.75,5.79.86.28,1.7.55,2.54.8v-46.6A63.17,63.17,0,0,1,1259.34,705.42Zm11.14-38.92V471.71a23.37,23.37,0,0,1-3-.17,60.35,60.35,0,0,1-15.43-4.42c-4.11-1.69-8.44-3.77-12.81-6.09-4.67-2.47-9.38-5.23-14-8.08-2.37-1.48-4.7-3-6.95-4.5-.56-.38-1.11-.77-1.67-1.14h0c-2-1.35-3.89-2.7-5.71-4-25.18-18.27-60.35-25.47-93-29.21s-44.26,0-44.26,0-11.51,13-16.75,23.28c-4.79,9.37-14.19,33.88-19,45.09-.47,1.09-.89,2.05-1.26,2.86a33.57,33.57,0,0,0-3.15,16.73,89.29,89.29,0,0,1,11-9.13c9-6.43,22.51-13.57,35.81-11.73,23.18,3.22,37.74,8.52,55.14,9.32,3.77.17,8.83.37,14.43.79,20.22,1.53,47.47,6,46.8,23-.71,18.3-30.8,19.67-57.84,16.77-5-.54-9.89-1.22-14.48-2-16.58-2.7-29.7-1.74-38.87,0a62.18,62.18,0,0,0-14,4.21,11.76,11.76,0,0,1-1.8.61,64.32,64.32,0,0,1-7.71,1.29c-6.38.82-13.66,1.68-16.33,4.31-4.35,4.26-6.64,16.42-7.2,21.6a7.89,7.89,0,0,0,.11,1.93c1,6.66,8,21.45,4.86,31.46-3.45,10.87-12.87,22.32-13.3,22.86.44-.32,11.18-7.68,18.47-.25,2,2.08,3.9,4.05,5.51,5.82,4.3,4.71,6.92,8,6.92,8s17.54-1.48,33.82-8a65.83,65.83,0,0,0,13.93-7.43l5.95-4.28c.5-.37,1-.72,1.5-1.07,14.88-10.6,30.5-20.8,40.5-19.23a10.47,10.47,0,0,1,2.12.55c6.27,2.3,6,5.86,3.4,9.4-2.09,2.88-5.69,5.76-8.5,7.94a45.67,45.67,0,0,0-12,14.12c-.29.48-.54,1-.78,1.45-1.57,3.06-3.89,5.35-9.19,8.35-1.14.64-2.41,1.31-3.83,2-3.11,1.57-7,3.36-11.84,5.52-5.46,2.43-12,3.76-18.49,4.45a142.47,142.47,0,0,1-26.61,0l-1.34-.15,0,.15c.36,1.16,3.21,9.27,17.63,19.14a137.21,137.21,0,0,0,15.45,8.87A282.4,282.4,0,0,0,1128.9,684l25.86-8.35s-6.76,10-14.31,13.19L1132.9,692s28.3,8,48.4,17.21,32.79,10.82,32.79,10.82a199.74,199.74,0,0,0,19.7-14.68,61.36,61.36,0,0,0,5.84-5.72c2.38-2.73,6-6.68,10.24-11.09,2.75-2.88,5.72-6,8.73-9,2.65-2.73,5.34-5.46,7.9-8l4-4,.93-.91Zm-8.78-100.44c4.22,6.4-1,16.06-9.46,26.52-2.93,3.61-6.25,7.33-9.72,11-.93,1-1.86,1.94-2.77,2.81-8.44,8.13-16.12,11.69-23,16.54a45.8,45.8,0,0,0-9,8.11c-5.68,6.73-13.31,16.17-19.13,23-1.8,2.11-3.43,3.95-4.77,5.4a16.2,16.2,0,0,1-3.55,3.27c-2.56,1-4.43,1.25-1.24-3.84a50.92,50.92,0,0,1,3.1-4.18.53.53,0,0,1,.12-.15c5.48-6.9,15.63-18.58,23-29.86.38-.57.75-1.15,1.13-1.75,7.39-11.8,15.24-29,26.48-43.87a106.36,106.36,0,0,1,7.79-9.31,41,41,0,0,1,7-6.14C1258.35,556.55,1261.7,566.06,1261.7,566.06Zm-69.52-80.53c1.92-1.8,16.23.53,30.44,5.39,2.17.73,4.34,1.53,6.48,2.38,9.05,3.65,13.89,9,16.4,13a20,20,0,0,1,2.45,5.27c-.13.46,1.32,5.49-3.32,8.16-1.94,1.12-5,1.82-9.57,1.61a38.55,38.55,0,0,1-10.77-2.12,54.31,54.31,0,0,1-25.39-18.85C1192.75,491.52,1189.94,487.59,1192.18,485.53ZM1248,363.46c-11.55-4.82-18.38-10.48-26.09-14.41s-17.31-9.4-40.24-16.27a105.68,105.68,0,0,0-17-3.59h0c-13.77-1.74-22.73,0-22.73,0s-18,15.1-23.65,26.22-17.4,23.47-20,28.61-6,21.22-6,21.22,16.56-1.79,25.15-1.71c7.42.06,43.27,4.24,85.6,14.09,6.73,1.57,13.62,3.28,20.58,5.14,18.8,5,32,9.4,41,13.9a59.57,59.57,0,0,1,5.81,3.3V379C1260.59,371.35,1252.07,365.15,1248,363.46Z" style="fill:#216d6e"/><path d="M1270.48,666.5c-1.35-.17-2.78-.34-4.28-.54a2.52,2.52,0,0,1-.37-.05c-5.34-.67-11.08-1.56-16.52-2.47-12.53-2.07-23.52-4.29-24.65-4.52.71.2,4.88,1.82,14.94,13.79a95.65,95.65,0,0,1,10.27,15.85,169,169,0,0,1,8.15,17.72,175,175,0,0,1,9.92,35.81,144.1,144.1,0,0,1,1.91,20.8q.09,6.38.63,13V667.53l.93-.91Zm-4.63,137.9a219,219,0,0,0-3.72-24.2c-.31-1.54-.65-3.06-1-4.58a259.06,259.06,0,0,0-13.22-41c-2.63-6.35-5.38-12.32-8.12-17.84-2-4.06-4-7.88-6-11.42-.44-.81-.87-1.61-1.32-2.38-13.4-23.71-14.13-31.19-23.65-42.86-4.27-5.24-11.29-6.62-20.23-6.06-2,.1-4.11.33-6.3.63l-.16,0c-7.64,1-16.34,3-25.72,4.95-2.59.54-5.25,1.07-7.94,1.6-27.23,5.25-63-3.86-64.23-4.18a74.88,74.88,0,0,1,18.61,15.68,60.41,60.41,0,0,1,6.59,9.34c6.33,11.12,19.26,33,28.61,55.27a182.51,182.51,0,0,1,7.68,21.48q1.27,4.5,2.1,8.78c2.9,15.24,12.65,34.63,23.24,55.45,2.31,4.52,4.64,9.1,7,13.72,3.49,7,6.93,14.05,10.13,21.1h81C1268.34,838.16,1267.23,818.9,1265.85,804.4ZM1218,806.94c-4-4.66-9.47-1.8-17.4,2.19-4.78,2.4-15.32,6.73-29.56,14,2.31,4.52,4.64,9.1,7,13.72q5.85-2.56,12.34-5.19C1223.44,818.18,1218,806.94,1218,806.94Zm0,0c-4-4.66-9.47-1.8-17.4,2.19-4.78,2.4-15.32,6.73-29.56,14,2.31,4.52,4.64,9.1,7,13.72q5.85-2.56,12.34-5.19C1223.44,818.18,1218,806.94,1218,806.94Zm0,0c-4-4.66-9.47-1.8-17.4,2.19-4.78,2.4-15.32,6.73-29.56,14,2.31,4.52,4.64,9.1,7,13.72q5.85-2.56,12.34-5.19C1223.44,818.18,1218,806.94,1218,806.94Zm-62.62,24.51c-.92-5.88-1.87-11.58-2.83-17-.46-2.53-.92-5-1.39-7.39-.12-.59-.24-1.18-.35-1.77-3.55-17.94-7.15-33.31-11.24-47a239.25,239.25,0,0,0-10.06-27.71,182.05,182.05,0,0,0-19.81-34.37c-21.19-29-48.93-43.12-48.93-43.12s-2.32.11-6.15.43c-5.32.46-13.55,1.34-22.51,2.91A153.23,153.23,0,0,0,1009,662.1c-1.47.5-2.89,1-4.27,1.57-2.25.91-4.47,1.78-6.63,2.62-19.31,7.51-34.76,12.45-34.76,12.45s1.15.23,3.24.82a122,122,0,0,1,20.62,8,157.66,157.66,0,0,1,56.94,47.74,272.83,272.83,0,0,1,23.48,37.33c.33.61.64,1.23.93,1.83,3.61,7,6.7,13.88,9.38,20.49,2.06,5,3.86,9.94,5.46,14.69a298.94,298.94,0,0,1,11,44c.26,1.48.47,2.9.62,4.25h64.41c-.58-3.82-1.14-7.64-1.7-11.43C1157,841.4,1156.19,836.36,1155.41,831.45ZM1218,806.94c-4-4.66-9.47-1.8-17.4,2.19-4.78,2.4-15.32,6.73-29.56,14,2.31,4.52,4.64,9.1,7,13.72q5.85-2.56,12.34-5.19C1223.44,818.18,1218,806.94,1218,806.94Zm0,0c-4-4.66-9.47-1.8-17.4,2.19-4.78,2.4-15.32,6.73-29.56,14,2.31,4.52,4.64,9.1,7,13.72q5.85-2.56,12.34-5.19C1223.44,818.18,1218,806.94,1218,806.94Zm0,0c-4-4.66-9.47-1.8-17.4,2.19-4.78,2.4-15.32,6.73-29.56,14,2.31,4.52,4.64,9.1,7,13.72q5.85-2.56,12.34-5.19C1223.44,818.18,1218,806.94,1218,806.94ZM816.28,831.25l-10.49,22.33c-.67,1.41-1.29,2.85-1.88,4.33h18.67C815.62,845.48,816.28,831.25,816.28,831.25Zm232.48-3c-2.78-7.3-5.82-15.09-9.18-23.22q-1-2.36-2-4.76c-.46-1.07-.91-2.16-1.39-3.24-4.46-10.39-9.47-21.21-15.13-32.11-17.15-33-32.58-49.91-45.39-59.2A74.84,74.84,0,0,0,952,694.25c-14.65-4.5-35.55,16.06-61.95,25.64s-49.4,3-49.4,3a37.28,37.28,0,0,1,7.54,22.7c-.25,13.35-6.9,20.93-13.91,42.5-4.22,13-6,20.14-6.79,24.15-.53,2.63-.65,3.94-.78,4.71-.33,1.95,3.9,4.67,14.4,9.8s31.75,18.11,60.59,29.7l1.92.79,1.57.66h154.86C1056.74,849.58,1053.06,839.48,1048.76,828.21Z" style="fill:#278e90"/><path d="M205.29,173.3a17.48,17.48,0,0,1-6.45,4.62,20.17,20.17,0,0,1-7.91,1.59,18.85,18.85,0,0,1-7.23-1.4,18.35,18.35,0,0,1-5.92-3.87,17.91,17.91,0,0,1-3.95-5.87,18.52,18.52,0,0,1-1.45-7.36,18.19,18.19,0,0,1,1.45-7.27,18.7,18.7,0,0,1,3.92-5.87,18.2,18.2,0,0,1,5.88-3.92,18.74,18.74,0,0,1,7.3-1.43,20.32,20.32,0,0,1,7.64,1.46,16.74,16.74,0,0,1,6.29,4.44l-5.9,6a11.64,11.64,0,0,0-3.25-2.92,8.87,8.87,0,0,0-4.66-1.15,8.72,8.72,0,0,0-3.8.85,10.77,10.77,0,0,0-6.11,9.79,11,11,0,0,0,2.92,7.51,10.06,10.06,0,0,0,3.16,2.29,9.07,9.07,0,0,0,3.83.85,9.23,9.23,0,0,0,4.75-1.25,10,10,0,0,0,3.4-3.19Z" style="fill:#fff"/><path d="M245.92,161a18.14,18.14,0,0,1-1.46,7.33,17.84,17.84,0,0,1-4,5.84,19.26,19.26,0,0,1-6,3.9,19,19,0,0,1-7.33,1.43,18.71,18.71,0,0,1-7.3-1.43,18.91,18.91,0,0,1-6-3.93A18.18,18.18,0,0,1,208.39,161a17.73,17.73,0,0,1,1.49-7.21,18.92,18.92,0,0,1,4.05-5.9,18.73,18.73,0,0,1,13.2-5.38,19.18,19.18,0,0,1,13.32,5.32,17.76,17.76,0,0,1,4,5.87A18.24,18.24,0,0,1,245.92,161Zm-8.76,0a11.2,11.2,0,0,0-.78-4.2,11.08,11.08,0,0,0-2.16-3.4,9.69,9.69,0,0,0-3.18-2.28,9.59,9.59,0,0,0-7.76,0,9.62,9.62,0,0,0-3.19,2.28,10.87,10.87,0,0,0-2.15,3.4,11.25,11.25,0,0,0,2.15,11.81,9.92,9.92,0,0,0,3.19,2.28,9.59,9.59,0,0,0,7.76,0,10,10,0,0,0,3.18-2.28,11,11,0,0,0,2.94-7.61Z" style="fill:#fff"/><path d="M283.4,178.59h-8.76v-21a8.91,8.91,0,0,0-.58-3.32,6.89,6.89,0,0,0-1.56-2.37,6.23,6.23,0,0,0-2.23-1.4,7.42,7.42,0,0,0-2.6-.46,11.86,11.86,0,0,0-4,.7,10.06,10.06,0,0,0-3.54,2.22v25.61H251.4V143.43h8.76l.06,2.62a9.19,9.19,0,0,1,1.95-1.46,15.44,15.44,0,0,1,2.4-1.13,16,16,0,0,1,2.55-.7,14.12,14.12,0,0,1,2.53-.24,15.57,15.57,0,0,1,5.14.85,12.17,12.17,0,0,1,7.45,7.18,17.31,17.31,0,0,1,1.16,6.63Z" style="fill:#fff"/><path d="M322.39,150.37h-3.71a12.67,12.67,0,0,1,1.4,5.84,12.48,12.48,0,0,1-.88,4.59,13.27,13.27,0,0,1-2.53,4,14.74,14.74,0,0,1-4,3.11,15.55,15.55,0,0,1-5.27,1.7,8.08,8.08,0,0,0-3,.94c-.67.43-1,.85-1,1.28s.33.82,1,1.19a8.14,8.14,0,0,0,3,.73c4.55.4,8.06,1.54,10.56,3.4a8.84,8.84,0,0,1,3.74,7.43,8.63,8.63,0,0,1-1.15,4.38,10.62,10.62,0,0,1-3.3,3.46,16.43,16.43,0,0,1-5.19,2.25,26.74,26.74,0,0,1-6.78.79,27.39,27.39,0,0,1-6.88-.79,17.24,17.24,0,0,1-5.25-2.22,10.25,10.25,0,0,1-3.33-3.43,8.75,8.75,0,0,1-1.15-4.44,9.14,9.14,0,0,1,2.08-6.12q2.09-2.46,6.79-3.68a4.22,4.22,0,0,1-2.1-1.49,3.07,3.07,0,0,1-.57-1.92,3.11,3.11,0,0,1,.82-1.85,4.91,4.91,0,0,1,2.16-1.37,14.27,14.27,0,0,1-3-1.89,15.73,15.73,0,0,1-2.61-2.67,12.7,12.7,0,0,1-1.83-3.41,11.81,11.81,0,0,1-.68-4,12.11,12.11,0,0,1,1.22-5.36,14.11,14.11,0,0,1,3.28-4.35,15.88,15.88,0,0,1,10.59-4,16.24,16.24,0,0,1,5.53.91h12.05ZM313,184.62a3.25,3.25,0,0,0-2.15-3.11,13.49,13.49,0,0,0-5.54-1,13.08,13.08,0,0,0-5.73,1,3.29,3.29,0,0,0-2.09,3.05,3.32,3.32,0,0,0,2.18,3.1,13.19,13.19,0,0,0,5.64,1,13.06,13.06,0,0,0,5.6-1A3.3,3.3,0,0,0,313,184.62Zm-1.64-28.41a6.11,6.11,0,0,0-.51-2.5,7,7,0,0,0-1.39-2,6.64,6.64,0,0,0-2.05-1.39,6.05,6.05,0,0,0-2.5-.52,5.85,5.85,0,0,0-2.47.52,6.74,6.74,0,0,0-2,1.39,7,7,0,0,0-1.39,2,6.11,6.11,0,0,0-.51,2.5,6.31,6.31,0,0,0,.51,2.52,6.91,6.91,0,0,0,1.39,2.07,6.77,6.77,0,0,0,2,1.4,6,6,0,0,0,2.47.52,6.22,6.22,0,0,0,2.5-.52,6.66,6.66,0,0,0,2.05-1.4,6.91,6.91,0,0,0,1.39-2.07A6.31,6.31,0,0,0,311.32,156.21Z" style="fill:#fff"/><path d="M351.89,147.08l-4.68,7.42a16.55,16.55,0,0,0-2.83-2.46,5.49,5.49,0,0,0-3.13-1.07,5.32,5.32,0,0,0-3.74,1.71,7.39,7.39,0,0,0-1.49,2.4,9.7,9.7,0,0,0-.61,3.68v19.83h-8.76V143.43h8.76v3.77a12.47,12.47,0,0,1,3.5-3.46,7.72,7.72,0,0,1,4.28-1.22,9.2,9.2,0,0,1,4.54,1.25A17.45,17.45,0,0,1,351.89,147.08Z" style="fill:#fff"/><path d="M383.53,178.59h-8.76v-1.88a14.81,14.81,0,0,1-4.9,2.19,23.52,23.52,0,0,1-5.32.61,13.26,13.26,0,0,1-4.63-.77,10.27,10.27,0,0,1-3.59-2.19,9.82,9.82,0,0,1-2.34-3.37,11,11,0,0,1-.82-4.32,10,10,0,0,1,1.31-5.2A11.25,11.25,0,0,1,358,160a16.15,16.15,0,0,1,5.26-2.22,27.31,27.31,0,0,1,6.48-.73h5.05a6.33,6.33,0,0,0-2-4.93,8.3,8.3,0,0,0-5.78-1.83,11.73,11.73,0,0,0-3.77.67,11.47,11.47,0,0,0-3.9,2.44l-5.17-5.23a19.83,19.83,0,0,1,6.48-4.14,20.47,20.47,0,0,1,7.58-1.46,17.2,17.2,0,0,1,6.5,1.15,13.29,13.29,0,0,1,4.6,3,13.09,13.09,0,0,1,3.23,5.17,24,24,0,0,1,.94,7.3Zm-8.76-8.76v-6.51h-4a23.38,23.38,0,0,0-3.44.25,9.44,9.44,0,0,0-2.79.82,5,5,0,0,0-1.89,1.49,3.48,3.48,0,0,0-.7,2.19,3.66,3.66,0,0,0,1.43,3,5.67,5.67,0,0,0,3.68,1.16,12.81,12.81,0,0,0,3.86-.61A19,19,0,0,0,374.77,169.83Z" style="fill:#fff"/><path d="M409.86,177.8a10,10,0,0,1-3.1,1.28,15.15,15.15,0,0,1-3.53.43,15.6,15.6,0,0,1-5.23-.77,7.38,7.38,0,0,1-3.4-2.34,9.87,9.87,0,0,1-1.86-4,24.7,24.7,0,0,1-.58-5.72V151.28h-4.62v-4a16.3,16.3,0,0,0,6.9-5.23,20.39,20.39,0,0,0,3.62-9h2.86v10.28h8.88v7.91h-8.88v16a5.92,5.92,0,0,0,.34,2.19,3.37,3.37,0,0,0,.88,1.34,3.1,3.1,0,0,0,1.25.67,5.91,5.91,0,0,0,1.49.18,10.2,10.2,0,0,0,2.49-.37,6.3,6.3,0,0,0,2.49-1.21Z" style="fill:#fff"/><path d="M446.18,178.59h-8.76v-2.67a9.69,9.69,0,0,1-2,1.49,16,16,0,0,1-2.37,1.09,15,15,0,0,1-2.55.7,13.74,13.74,0,0,1-2.47.24,15.61,15.61,0,0,1-5.14-.85,12.07,12.07,0,0,1-4.35-2.61,12.65,12.65,0,0,1-3-4.57,17.69,17.69,0,0,1-1.12-6.63V143.43h8.76v20.93a8.66,8.66,0,0,0,.58,3.31,6.91,6.91,0,0,0,1.52,2.38,5.85,5.85,0,0,0,2.19,1.39,7.31,7.31,0,0,0,2.58.46,10.36,10.36,0,0,0,7.36-2.92V143.43h8.76Z" style="fill:#fff"/><path d="M468.32,178.41a11.88,11.88,0,0,1-2.34.79,12,12,0,0,1-2.71.31,13.68,13.68,0,0,1-3.74-.52,8.29,8.29,0,0,1-3.13-1.67,8.15,8.15,0,0,1-2.13-3,11.28,11.28,0,0,1-.79-4.47V128.1h8.94v40.21a4,4,0,0,0,.89,3,2.93,2.93,0,0,0,2.09.82,5.23,5.23,0,0,0,2.92-.91Z" style="fill:#fff"/><path d="M501.11,178.59h-8.76v-1.88a14.67,14.67,0,0,1-4.89,2.19,23.54,23.54,0,0,1-5.33.61,13.25,13.25,0,0,1-4.62-.77,10.18,10.18,0,0,1-3.59-2.19,9.82,9.82,0,0,1-2.34-3.37,11,11,0,0,1-.82-4.32,10.06,10.06,0,0,1,1.3-5.2,11.35,11.35,0,0,1,3.56-3.71,16.2,16.2,0,0,1,5.27-2.22,27.16,27.16,0,0,1,6.47-.73h5.05a6.36,6.36,0,0,0-2-4.93,8.3,8.3,0,0,0-5.78-1.83,11.68,11.68,0,0,0-3.77.67,11.47,11.47,0,0,0-3.9,2.44l-5.17-5.23a19.83,19.83,0,0,1,6.48-4.14,20.42,20.42,0,0,1,7.57-1.46,17.17,17.17,0,0,1,6.5,1.15,13.44,13.44,0,0,1,7.84,8.16,24,24,0,0,1,.93,7.3Zm-8.76-8.76v-6.51h-4a23.27,23.27,0,0,0-3.44.25,9.51,9.51,0,0,0-2.8.82,5,5,0,0,0-1.88,1.49,3.48,3.48,0,0,0-.7,2.19,3.63,3.63,0,0,0,1.43,3,5.67,5.67,0,0,0,3.68,1.16,12.91,12.91,0,0,0,3.86-.61A18.89,18.89,0,0,0,492.35,169.83Z" style="fill:#fff"/><path d="M527.45,177.8a10,10,0,0,1-3.1,1.28,15.22,15.22,0,0,1-3.53.43,15.56,15.56,0,0,1-5.23-.77,7.46,7.46,0,0,1-3.41-2.34,9.86,9.86,0,0,1-1.85-4,24.7,24.7,0,0,1-.58-5.72V151.28h-4.62v-4a16.36,16.36,0,0,0,6.9-5.23,20.39,20.39,0,0,0,3.62-9h2.86v10.28h8.88v7.91h-8.88v16a6.16,6.16,0,0,0,.33,2.19,3.49,3.49,0,0,0,.89,1.34,3.12,3.12,0,0,0,1.24.67,6,6,0,0,0,1.49.18,10.34,10.34,0,0,0,2.5-.37,6.3,6.3,0,0,0,2.49-1.21Z" style="fill:#fff"/><path d="M541.75,137.29h-9.13v-9.13h9.13Zm-.12,41.3h-8.89V143.37h8.89Z" style="fill:#fff"/><path d="M586,161a18.14,18.14,0,0,1-1.46,7.33,17.84,17.84,0,0,1-4,5.84,19.38,19.38,0,0,1-6,3.9,19,19,0,0,1-7.33,1.43,18.71,18.71,0,0,1-7.3-1.43,19,19,0,0,1-6-3.93A18.23,18.23,0,0,1,548.44,161a17.73,17.73,0,0,1,1.49-7.21,18.92,18.92,0,0,1,4.05-5.9,18.73,18.73,0,0,1,13.2-5.38,19.18,19.18,0,0,1,13.32,5.32,17.76,17.76,0,0,1,4,5.87A18.24,18.24,0,0,1,586,161Zm-8.76,0a11,11,0,0,0-.79-4.2,10.87,10.87,0,0,0-2.15-3.4,9.69,9.69,0,0,0-3.18-2.28,9.61,9.61,0,0,0-7.77,0,9.69,9.69,0,0,0-3.18,2.28,10.87,10.87,0,0,0-2.15,3.4,11.25,11.25,0,0,0,2.15,11.81,10,10,0,0,0,3.18,2.28,9.61,9.61,0,0,0,7.77,0,10,10,0,0,0,3.18-2.28,11.09,11.09,0,0,0,2.94-7.61Z" style="fill:#fff"/><path d="M623.45,178.59h-8.76v-21a8.71,8.71,0,0,0-.59-3.32,6.73,6.73,0,0,0-1.55-2.37,6.23,6.23,0,0,0-2.23-1.4,7.42,7.42,0,0,0-2.6-.46,11.86,11.86,0,0,0-4,.7,10.06,10.06,0,0,0-3.54,2.22v25.61h-8.76V143.43h8.76l.06,2.62a8.7,8.7,0,0,1,2-1.46,15,15,0,0,1,2.4-1.13,16,16,0,0,1,2.55-.7,14,14,0,0,1,2.53-.24,15.57,15.57,0,0,1,5.14.85,12.17,12.17,0,0,1,7.45,7.18,17.31,17.31,0,0,1,1.16,6.63Z" style="fill:#fff"/><path d="M655.93,168.74a8.91,8.91,0,0,1-1.22,4.65,11,11,0,0,1-3.17,3.41,14.79,14.79,0,0,1-4.39,2.07,17.67,17.67,0,0,1-4.82.7,18.27,18.27,0,0,1-7.41-1.49A15.53,15.53,0,0,1,629,173.3l5.29-5.35a11.86,11.86,0,0,0,3.65,3.13,9.16,9.16,0,0,0,4.44,1.13,7,7,0,0,0,3.44-.77,2.45,2.45,0,0,0,1.37-2.28,3.08,3.08,0,0,0-1.95-2.64,28.6,28.6,0,0,0-5.47-2.1,26.48,26.48,0,0,1-4-1.55,14.72,14.72,0,0,1-3.46-2.31,11,11,0,0,1-2.44-3.14,8.69,8.69,0,0,1-.91-4.07,9,9,0,0,1,1.19-4.6,10.87,10.87,0,0,1,3.11-3.4,14.81,14.81,0,0,1,4.36-2.1,17,17,0,0,1,4.94-.73,16.46,16.46,0,0,1,13.17,6.08l-5.24,5.29a12.15,12.15,0,0,0-3.46-3,8.55,8.55,0,0,0-4.26-1.09,7.14,7.14,0,0,0-1.67.21,7.38,7.38,0,0,0-1.65.61,3.68,3.68,0,0,0-1.24,1,2.3,2.3,0,0,0-.49,1.43c0,.94.62,1.75,1.85,2.44a27.73,27.73,0,0,0,5.33,2.07,24.11,24.11,0,0,1,4.26,1.7,16.77,16.77,0,0,1,3.52,2.4,10.65,10.65,0,0,1,2.41,3.1A8.67,8.67,0,0,1,655.93,168.74Z" style="fill:#fff"/><path d="M481.15,229.81l-16.34,36.35H462l4.9-11-10.43-25.39h2.93l9,22.41,9.85-22.41Z" style="fill:#fff"/><path d="M484,249.4a17.4,17.4,0,0,1,0-13.63c1.75-3.89,5.37-6.6,11-6.6s9.26,2.71,11,6.6a17.52,17.52,0,0,1,0,13.63c-1.76,3.93-5.43,6.59-11,6.59S485.73,253.33,484,249.4Zm19.48-.86a15.16,15.16,0,0,0,1.06-6,14.94,14.94,0,0,0-1.06-5.91c-1.39-3-4.1-5-8.52-5s-7.08,2-8.46,5a17.13,17.13,0,0,0,0,11.92c1.38,3,4.1,5,8.46,5S502.07,251.52,503.46,248.54Z" style="fill:#fff"/><path d="M534,229.81v25.6h-2.61v-4.26c-1.76,3.35-5,4.9-9,4.9-6.49,0-9.84-3.67-9.84-11.13V229.81h2.66v14.74c0,6.23,2.45,9,7.61,9,5.48,0,8.57-3.2,8.57-9V229.81Z" style="fill:#fff"/><path d="M562.7,229.81v2.5a9.48,9.48,0,0,0-2.56-.32c-4.79,0-7.07,3-7.07,7.88v15.54h-2.61v-25.6h2.61v3.67c1.22-2.5,3.62-4,7.07-4A9.48,9.48,0,0,1,562.7,229.81Z" style="fill:#fff"/><path d="M586.54,246.31h2.67a9.73,9.73,0,0,1-3.09,6.7,13.07,13.07,0,0,1-8.84,3c-5.58,0-9.58-2.55-11.39-6.59a18.13,18.13,0,0,1,0-13.63c1.87-4.1,5.75-6.6,11.18-6.6s9.21,2.45,11,6.39a17.64,17.64,0,0,1,1.33,7.4H567.28a14.41,14.41,0,0,0,1.06,5.53c1.44,3.25,4.47,5.11,8.94,5.11a9.85,9.85,0,0,0,6.82-2.24A7.63,7.63,0,0,0,586.54,246.31Zm-19.21-5.59H586.6a13,13,0,0,0-1-4.31c-1.38-3.09-4.26-4.84-8.52-4.84s-7.34,1.86-8.78,5.1A13.07,13.07,0,0,0,567.33,240.72Z" style="fill:#fff"/><path d="M615.66,240.08v15.33h-2.61v-4.58c-1.75,3.3-5.11,5.16-10.16,5.16-4.21,0-7.4-1.33-8.73-4.25a7.9,7.9,0,0,1-.64-3.3,8,8,0,0,1,.64-3.14c1.6-3.57,6.17-4.58,11.92-4.58h7v-.91a11.64,11.64,0,0,0-.8-4.68c-1.06-2.45-3.4-3.56-7.23-3.56-3.62,0-6.23,1.06-7.3,3.4a6.23,6.23,0,0,0-.53,2.72h-2.66a9.33,9.33,0,0,1,.75-3.78c1.43-3.2,4.89-4.74,9.74-4.74,5.05,0,8.14,1.65,9.63,4.9A15.48,15.48,0,0,1,615.66,240.08ZM612,249a14.48,14.48,0,0,0,1.06-5.8V243h-6.81c-4.58,0-8.3.69-9.53,3.35a4.55,4.55,0,0,0-.42,2,5.07,5.07,0,0,0,.48,2.23c1,2.13,3.4,3.14,6.6,3.14C607.78,253.65,610.6,252,612,249Z" style="fill:#fff"/><path d="M622.1,249.45a19.05,19.05,0,0,1,0-13.68c1.87-4.1,5.65-6.6,11-6.6a11.57,11.57,0,0,1,8.14,2.82,9.46,9.46,0,0,1,3,7h-2.82a7.43,7.43,0,0,0-2.29-5.27,8.74,8.74,0,0,0-6-2.07c-4.2,0-7,2-8.36,5.11a13.64,13.64,0,0,0-1.11,5.85,13.89,13.89,0,0,0,1.11,5.91c1.39,3.09,4.21,5.06,8.36,5.06a8.6,8.6,0,0,0,6.07-2.08,7.12,7.12,0,0,0,2.23-5.11h2.82a9.5,9.5,0,0,1-2.92,6.81,12.21,12.21,0,0,1-8.25,2.82C627.75,256,624,253.49,622.1,249.45Z" style="fill:#fff"/><path d="M671.12,240.29v15.12h-2.66V240.67c0-6.23-2.45-9-7.61-9-5.48,0-8.57,3.2-8.57,9v14.74h-2.6V217.83h2.6v16.24c1.76-3.41,5-4.9,9-4.9C667.77,229.17,671.12,232.84,671.12,240.29Z" style="fill:#fff"/><path d="M698.27,246.31h2.66a9.69,9.69,0,0,1-3.09,6.7,13,13,0,0,1-8.83,3c-5.59,0-9.58-2.55-11.39-6.59a18.13,18.13,0,0,1,0-13.63c1.86-4.1,5.75-6.6,11.18-6.6s9.2,2.45,11,6.39a17.48,17.48,0,0,1,1.33,7.4H679a14.6,14.6,0,0,0,1.07,5.53c1.43,3.25,4.47,5.11,8.94,5.11a9.81,9.81,0,0,0,6.81-2.24A7.59,7.59,0,0,0,698.27,246.31Zm-19.21-5.59h19.26a12.73,12.73,0,0,0-1-4.31c-1.39-3.09-4.26-4.84-8.52-4.84-4.42,0-7.35,1.86-8.78,5.1A13.07,13.07,0,0,0,679.06,240.72Z" style="fill:#fff"/><path d="M729.25,217.83v37.58h-2.61v-4.79c-1.92,3.57-5.48,5.37-9.79,5.37-5,0-8.62-2.44-10.43-6.38a19.22,19.22,0,0,1,0-14.05c1.81-4,5.42-6.39,10.43-6.39,4.31,0,7.87,1.81,9.79,5.38V217.83Zm-2.61,25.39v-1.28c0-6.6-3.72-10.32-9.31-10.32-3.94,0-6.92,1.76-8.36,5a14.2,14.2,0,0,0-1.12,5.91,14.44,14.44,0,0,0,1.12,6c1.44,3.25,4.42,5,8.36,5C722.92,253.55,726.64,249.87,726.64,243.22Z" style="fill:#fff"/><path d="M747.77,248.06V232.15H743.2v-2.34h4.57v-6.28h2.67v6.28h8.62v2.34h-8.62v15.7c0,3.73,1.64,5.54,4.89,5.54a13.7,13.7,0,0,0,3.57-.48v2.39a16.39,16.39,0,0,1-4,.48C750.06,255.78,747.77,253.33,747.77,248.06Z" style="fill:#fff"/><path d="M785.08,240.29v15.12h-2.66V240.67c0-6.23-2.44-9-7.61-9-5.48,0-8.57,3.2-8.57,9v14.74h-2.6V217.83h2.6v16.24c1.76-3.41,5-4.9,9-4.9C781.73,229.17,785.08,232.84,785.08,240.29Z" style="fill:#fff"/><path d="M812.23,246.31h2.66a9.72,9.72,0,0,1-3.08,6.7,13.07,13.07,0,0,1-8.84,3c-5.59,0-9.58-2.55-11.39-6.59a18.13,18.13,0,0,1,0-13.63c1.86-4.1,5.75-6.6,11.18-6.6s9.2,2.45,11,6.39a17.48,17.48,0,0,1,1.33,7.4H793a14.6,14.6,0,0,0,1.07,5.53c1.44,3.25,4.47,5.11,8.94,5.11a9.81,9.81,0,0,0,6.81-2.24A7.59,7.59,0,0,0,812.23,246.31ZM793,240.72h19.26a12.73,12.73,0,0,0-.95-4.31c-1.39-3.09-4.26-4.84-8.52-4.84-4.42,0-7.34,1.86-8.78,5.1A13.07,13.07,0,0,0,793,240.72Z" style="fill:#fff"/><path d="M854.17,242.58a16.83,16.83,0,0,1-1.33,7c-1.81,3.94-5.43,6.38-10.43,6.38-4.31,0-7.88-1.86-9.79-5.53v15.7H830V229.81h2.61v4.9c1.91-3.68,5.48-5.54,9.79-5.54,5,0,8.62,2.4,10.43,6.39A17,17,0,0,1,854.17,242.58Zm-2.76,0a14.2,14.2,0,0,0-1.12-5.91c-1.44-3.29-4.42-5-8.36-5-5.59,0-9.31,3.72-9.31,10.32v1.28c0,6.65,3.72,10.33,9.31,10.33,3.94,0,6.92-1.76,8.36-5A14.44,14.44,0,0,0,851.41,242.58Z" style="fill:#fff"/><path d="M880.52,240.08v15.33h-2.61v-4.58c-1.75,3.3-5.1,5.16-10.16,5.16-4.21,0-7.4-1.33-8.73-4.25a7.9,7.9,0,0,1-.64-3.3,8,8,0,0,1,.64-3.14c1.6-3.57,6.17-4.58,11.92-4.58h7v-.91a11.83,11.83,0,0,0-.79-4.68c-1.07-2.45-3.41-3.56-7.24-3.56-3.62,0-6.23,1.06-7.29,3.4a6.09,6.09,0,0,0-.54,2.72h-2.66a9.33,9.33,0,0,1,.75-3.78c1.44-3.2,4.89-4.74,9.74-4.74,5,0,8.14,1.65,9.63,4.9A15.48,15.48,0,0,1,880.52,240.08ZM876.85,249a14.48,14.48,0,0,0,1.06-5.8V243H871.1c-4.58,0-8.3.69-9.52,3.35a4.41,4.41,0,0,0-.43,2,5.07,5.07,0,0,0,.48,2.23c1,2.13,3.4,3.14,6.6,3.14C872.65,253.65,875.47,252,876.85,249Z" style="fill:#fff"/><path d="M899.47,229.81v2.5a9.35,9.35,0,0,0-2.55-.32c-4.79,0-7.08,3-7.08,7.88v15.54h-2.61v-25.6h2.61v3.67c1.22-2.5,3.62-4,7.08-4A9.35,9.35,0,0,1,899.47,229.81Z" style="fill:#fff"/><path d="M923.48,240.08v15.33h-2.61v-4.58c-1.76,3.3-5.11,5.16-10.17,5.16-4.2,0-7.39-1.33-8.72-4.25a8.42,8.42,0,0,1,0-6.44c1.59-3.57,6.17-4.58,11.92-4.58h7v-.91a11.82,11.82,0,0,0-.8-4.68c-1.06-2.45-3.4-3.56-7.24-3.56-3.62,0-6.22,1.06-7.29,3.4a6.23,6.23,0,0,0-.53,2.72h-2.66a9.33,9.33,0,0,1,.74-3.78c1.44-3.2,4.9-4.74,9.74-4.74,5.06,0,8.15,1.65,9.64,4.9A15.48,15.48,0,0,1,923.48,240.08ZM919.81,249a14.48,14.48,0,0,0,1.06-5.8V243h-6.81c-4.58,0-8.31.69-9.53,3.35a4.41,4.41,0,0,0-.43,2,5.07,5.07,0,0,0,.48,2.23c1,2.13,3.41,3.14,6.6,3.14C915.6,253.65,918.42,252,919.81,249Z" style="fill:#fff"/><path d="M952.86,217.83v37.58h-2.61v-4.79c-1.91,3.57-5.48,5.37-9.79,5.37-5,0-8.62-2.44-10.43-6.38a19.22,19.22,0,0,1,0-14.05c1.81-4,5.43-6.39,10.43-6.39,4.31,0,7.88,1.81,9.79,5.38V217.83Zm-2.61,25.39v-1.28c0-6.6-3.72-10.32-9.31-10.32-3.94,0-6.92,1.76-8.36,5a14.2,14.2,0,0,0-1.12,5.91,14.44,14.44,0,0,0,1.12,6c1.44,3.25,4.42,5,8.36,5C946.53,253.55,950.25,249.87,950.25,243.22Z" style="fill:#fff"/><path d="M959,222.46a2.11,2.11,0,0,1,4.21,0,2.11,2.11,0,0,1-4.21,0Zm.8,7.35h2.61v25.6h-2.61Z" style="fill:#fff"/><path d="M968.51,251.2a10.68,10.68,0,0,1-.85-4.47h2.61a8.16,8.16,0,0,0,.64,3.36c1,2.23,3.24,3.56,7,3.56,3.62,0,6.07-1,6.92-3a4.66,4.66,0,0,0,.43-2,4.36,4.36,0,0,0-.32-1.76c-1-2.18-4.05-2.77-7.61-3.51-3.78-.85-7-2-8.25-4.63a6.46,6.46,0,0,1-.48-2.56,7.07,7.07,0,0,1,.58-2.82c1.12-2.55,4-4.15,8.36-4.15s7.4,1.65,8.62,4.42a8.9,8.9,0,0,1,.75,3.88h-2.61a6.81,6.81,0,0,0-.53-2.87c-1-2.08-3.14-3.14-6.28-3.14s-5.06,1-5.81,2.66a4.58,4.58,0,0,0-.37,1.86,4.48,4.48,0,0,0,.27,1.55c1,2.13,4.1,2.76,7.5,3.51,3.89.85,7.19,2,8.41,4.68a6.65,6.65,0,0,1,.53,2.77,6.94,6.94,0,0,1-.64,3c-1.27,2.88-4.63,4.47-9.47,4.47S969.89,254.29,968.51,251.2Z" style="fill:#fff"/><path d="M1013.75,246.31h2.66a9.68,9.68,0,0,1-3.08,6.7,13.07,13.07,0,0,1-8.84,3c-5.59,0-9.58-2.55-11.39-6.59a18.13,18.13,0,0,1,0-13.63c1.86-4.1,5.75-6.6,11.18-6.6s9.21,2.45,11,6.39a17.48,17.48,0,0,1,1.33,7.4H994.49a14.41,14.41,0,0,0,1.06,5.53c1.44,3.25,4.47,5.11,8.94,5.11a9.81,9.81,0,0,0,6.81-2.24A7.59,7.59,0,0,0,1013.75,246.31Zm-19.21-5.59h19.27a13,13,0,0,0-1-4.31c-1.39-3.09-4.26-4.84-8.52-4.84-4.42,0-7.34,1.86-8.78,5.1A13.07,13.07,0,0,0,994.54,240.72Z" style="fill:#fff"/><g id="Logo"><path d="M500.79,480.54H478.32V426.72q0-9.51-4.6-14.43a14.88,14.88,0,0,0-11.31-4.91,27.26,27.26,0,0,0-18.72,7,49.87,49.87,0,0,1,1.4,12.32v53.82H422.63V426.72q0-9.51-4.61-14.43a14.69,14.69,0,0,0-11.15-4.91,21.4,21.4,0,0,0-9.05,1.79,32,32,0,0,0-8.11,5.69v65.68H367.24V390.37h22.47l0,6.71a33.58,33.58,0,0,1,9.92-6.55,28.66,28.66,0,0,1,11.64-2.5,32.21,32.21,0,0,1,13.19,3,34.07,34.07,0,0,1,11.64,8.58,42,42,0,0,1,30-11.54,41.86,41.86,0,0,1,13.36,2.11,28.34,28.34,0,0,1,11,6.7A33.3,33.3,0,0,1,498,408.55a46.24,46.24,0,0,1,2.82,17.08Z" style="fill:#fff"/><path d="M610.93,435.46a47,47,0,0,1-3.74,18.8,45.84,45.84,0,0,1-10.3,15,49.17,49.17,0,0,1-34.17,13.66A48,48,0,0,1,544,479.22a48.62,48.62,0,0,1-15.29-10.06,46.78,46.78,0,0,1-14-33.7A45.21,45.21,0,0,1,518.49,417a48.67,48.67,0,0,1,10.38-15.13A48,48,0,0,1,562.72,388a48.32,48.32,0,0,1,18.8,3.67,49,49,0,0,1,15.37,10,45.6,45.6,0,0,1,10.3,15.06A47.09,47.09,0,0,1,610.93,435.46Zm-22.46,0a28.36,28.36,0,0,0-7.55-19.5,25.11,25.11,0,0,0-8.17-5.85,24.52,24.52,0,0,0-19.9,0,25.21,25.21,0,0,0-8.17,5.85,28.8,28.8,0,0,0,0,39,25.21,25.21,0,0,0,8.17,5.85,24.52,24.52,0,0,0,19.9,0,25.11,25.11,0,0,0,8.17-5.85,28.41,28.41,0,0,0,7.55-19.5Z" style="fill:#fff"/><path d="M706.57,480.54H684.1v-54a22.55,22.55,0,0,0-1.49-8.5,18,18,0,0,0-3.92-6.08,15.31,15.31,0,0,0-5.64-3.59,19.28,19.28,0,0,0-6.65-1.17,31.1,31.1,0,0,0-9.87,1.56,40.36,40.36,0,0,0-9.09,4.37v67.39H625V351.21h22.47l.15,44.31a33.35,33.35,0,0,1,11.55-5.77,45.9,45.9,0,0,1,12.64-1.88A38.56,38.56,0,0,1,685,390.14,31.24,31.24,0,0,1,696.11,397a32.41,32.41,0,0,1,7.65,11.55A43.76,43.76,0,0,1,706.57,425Z" style="fill:#fff"/><path d="M816.87,435.3a44.42,44.42,0,0,1-.24,4.53c-.15,1.56-.34,3.17-.54,4.83H744a31,31,0,0,0,3.51,7.41,24.72,24.72,0,0,0,5.54,6.09,26,26,0,0,0,7.41,4,26.76,26.76,0,0,0,9.12,1.49,37.07,37.07,0,0,0,12.17-2.11,29.7,29.7,0,0,0,10.14-5.69l14.2,14.19A63.05,63.05,0,0,1,787.77,480a61.65,61.65,0,0,1-19,2.89A48.57,48.57,0,0,1,734.57,469a47.24,47.24,0,0,1-10.22-15.06,47.55,47.55,0,0,1,0-37,46.87,46.87,0,0,1,10.3-15.06,49.77,49.77,0,0,1,15.29-10.14A47.09,47.09,0,0,1,768.66,388a48.5,48.5,0,0,1,18.25,3.51,49.66,49.66,0,0,1,15.45,9.75,45.6,45.6,0,0,1,14.51,34Zm-23.56-8.74a27.06,27.06,0,0,0-9.44-13.8,24.5,24.5,0,0,0-15.37-5.23,24,24,0,0,0-15.13,5.23,27.23,27.23,0,0,0-9.36,13.8Z" style="fill:#fff"/><path d="M904.08,480.54H881.61v-4.83a37.28,37.28,0,0,1-12.56,5.62,60,60,0,0,1-13.65,1.56,34.43,34.43,0,0,1-11.86-1.95,26.85,26.85,0,0,1-9.2-5.62,25.22,25.22,0,0,1-6-8.66,28.31,28.31,0,0,1-2.1-11.08,25.79,25.79,0,0,1,3.35-13.34,29.05,29.05,0,0,1,9.13-9.51A42.14,42.14,0,0,1,852.2,427a70.33,70.33,0,0,1,16.62-1.87h12.95q0-7.95-5.15-12.64t-14.82-4.68a29.75,29.75,0,0,0-9.67,1.72,29.25,29.25,0,0,0-10,6.24l-13.26-13.42a51.11,51.11,0,0,1,16.61-10.61A52.4,52.4,0,0,1,864.92,388a44.21,44.21,0,0,1,16.67,3,34.27,34.27,0,0,1,20.09,20.91q2.39,7.34,2.4,18.72Zm-22.47-22.46V441.39h-10.3a59.81,59.81,0,0,0-8.81.62,24.87,24.87,0,0,0-7.18,2.11,13.22,13.22,0,0,0-4.83,3.82,8.93,8.93,0,0,0-1.8,5.61,9.37,9.37,0,0,0,3.67,7.65,14.51,14.51,0,0,0,9.44,3,32.49,32.49,0,0,0,9.9-1.56A47.5,47.5,0,0,0,881.61,458.08Z" style="fill:#fff"/><path d="M386,513.66,374,540.3H372l3.59-8-7.65-18.6h2.15l6.63,16.42,7.21-16.42Z" style="fill:#fff"/><path d="M388.07,528a12.72,12.72,0,0,1,0-10c1.28-2.85,3.94-4.84,8-4.84s6.79,2,8.08,4.84a12.32,12.32,0,0,1,1,5,12.18,12.18,0,0,1-1,5c-1.29,2.89-4,4.84-8.08,4.84S389.35,530.9,388.07,528Zm14.27-.62a11,11,0,0,0,.78-4.37,10.79,10.79,0,0,0-.78-4.33c-1-2.22-3-3.7-6.24-3.7a6.32,6.32,0,0,0-6.2,3.66,12.63,12.63,0,0,0,0,8.74c1,2.22,3,3.66,6.2,3.66S401.33,529.57,402.34,527.39Z" style="fill:#fff"/><path d="M424.69,513.66v18.76h-1.91V529.3c-1.29,2.46-3.67,3.59-6.59,3.59-4.76,0-7.22-2.69-7.22-8.15V513.66h1.95v10.8c0,4.57,1.8,6.59,5.58,6.59,4,0,6.28-2.34,6.28-6.59v-10.8Z" style="fill:#fff"/><path d="M438.73,513.66v1.83a7,7,0,0,0-1.87-.23c-3.51,0-5.19,2.22-5.19,5.77v11.39h-1.91V513.66h1.91v2.69a5.36,5.36,0,0,1,5.19-2.92A6.65,6.65,0,0,1,438.73,513.66Z" style="fill:#fff"/><path d="M464.2,521.19v11.23h-1.91v-3.36c-1.29,2.42-3.75,3.79-7.45,3.79-3.08,0-5.42-1-6.4-3.12a5.84,5.84,0,0,1-.46-2.42,5.92,5.92,0,0,1,.46-2.3c1.17-2.61,4.53-3.36,8.74-3.36h5.11V521a8.62,8.62,0,0,0-.59-3.43c-.78-1.79-2.49-2.61-5.3-2.61-2.65,0-4.56.78-5.34,2.49a4.45,4.45,0,0,0-.39,2h-1.95a6.91,6.91,0,0,1,.54-2.77c1.06-2.34,3.59-3.47,7.14-3.47,3.7,0,6,1.21,7.06,3.59A11.27,11.27,0,0,1,464.2,521.19Zm-2.69,6.55a10.58,10.58,0,0,0,.78-4.25v-.2h-5c-3.36,0-6.09.51-7,2.46a3.22,3.22,0,0,0-.32,1.44,3.79,3.79,0,0,0,.35,1.64c.71,1.56,2.5,2.3,4.84,2.3C458.43,531.13,460.5,529.92,461.51,527.74Z" style="fill:#fff"/><path d="M468.92,528.05a13.82,13.82,0,0,1,0-10c1.37-3,4.13-4.84,8-4.84a8.45,8.45,0,0,1,6,2.07,6.88,6.88,0,0,1,2.22,5.11h-2.06a5.45,5.45,0,0,0-1.68-3.86A6.39,6.39,0,0,0,477,515a6.19,6.19,0,0,0-6.12,3.74,10,10,0,0,0-.82,4.29,10.18,10.18,0,0,0,.82,4.33,7,7,0,0,0,10.57,2.18,5.26,5.26,0,0,0,1.64-3.74h2.06a6.94,6.94,0,0,1-2.14,5,8.92,8.92,0,0,1-6.05,2.07C473.05,532.85,470.29,531,468.92,528.05Z" style="fill:#fff"/><path d="M489,528.05a13.82,13.82,0,0,1,0-10c1.36-3,4.13-4.84,8-4.84a8.47,8.47,0,0,1,6,2.07,7,7,0,0,1,2.22,5.11h-2.07a5.44,5.44,0,0,0-1.67-3.86,6.43,6.43,0,0,0-4.41-1.52,6.19,6.19,0,0,0-6.12,3.74,9.84,9.84,0,0,0-.82,4.29,10,10,0,0,0,.82,4.33,7,7,0,0,0,10.57,2.18,5.22,5.22,0,0,0,1.63-3.74h2.07a7,7,0,0,1-2.14,5,8.94,8.94,0,0,1-6,2.07C493.14,532.85,490.37,531,489,528.05Z" style="fill:#fff"/><path d="M524.26,525.75h2a7,7,0,0,1-2.26,4.91,9.56,9.56,0,0,1-6.47,2.19c-4.1,0-7-1.87-8.35-4.84a13.32,13.32,0,0,1,0-10c1.37-3,4.21-4.84,8.19-4.84s6.75,1.8,8,4.68a12.87,12.87,0,0,1,1,5.42H510.15a10.38,10.38,0,0,0,.78,4.06c1.05,2.38,3.27,3.74,6.55,3.74a7.21,7.21,0,0,0,5-1.63A5.61,5.61,0,0,0,524.26,525.75Zm-14.08-4.1H524.3a9.43,9.43,0,0,0-.7-3.15c-1-2.27-3.12-3.55-6.24-3.55s-5.38,1.36-6.43,3.74A9.51,9.51,0,0,0,510.18,521.65Z" style="fill:#fff"/><path d="M529.69,529.34a7.81,7.81,0,0,1-.63-3.28H531a6,6,0,0,0,.47,2.46c.74,1.64,2.38,2.61,5.15,2.61s4.44-.74,5.07-2.22a3.55,3.55,0,0,0,.31-1.48,3.27,3.27,0,0,0-.23-1.29c-.74-1.6-3-2-5.58-2.57-2.77-.63-5.15-1.45-6-3.4a4.76,4.76,0,0,1-.35-1.87,5.25,5.25,0,0,1,.43-2.07c.82-1.87,2.93-3,6.13-3s5.42,1.21,6.31,3.24a6.51,6.51,0,0,1,.55,2.85h-1.91a5,5,0,0,0-.39-2.11c-.7-1.52-2.3-2.3-4.6-2.3s-3.71.74-4.25,2a3.22,3.22,0,0,0-.28,1.36,3.17,3.17,0,0,0,.2,1.13c.7,1.56,3,2,5.5,2.58,2.84.62,5.26,1.44,6.16,3.43a4.87,4.87,0,0,1,.39,2,5.16,5.16,0,0,1-.47,2.22c-.94,2.11-3.39,3.28-6.94,3.28S530.7,531.6,529.69,529.34Z" style="fill:#fff"/><path d="M547.28,529.34a7.81,7.81,0,0,1-.63-3.28h1.91a6,6,0,0,0,.47,2.46c.74,1.64,2.38,2.61,5.15,2.61s4.44-.74,5.07-2.22a3.55,3.55,0,0,0,.31-1.48,3.27,3.27,0,0,0-.23-1.29c-.74-1.6-3-2-5.58-2.57-2.77-.63-5.15-1.45-6-3.4a4.76,4.76,0,0,1-.35-1.87,5.25,5.25,0,0,1,.43-2.07c.82-1.87,2.93-3,6.13-3s5.42,1.21,6.31,3.24a6.51,6.51,0,0,1,.55,2.85h-1.91a5,5,0,0,0-.39-2.11c-.7-1.52-2.3-2.3-4.6-2.3s-3.71.74-4.25,2a3.22,3.22,0,0,0-.28,1.36,3.17,3.17,0,0,0,.2,1.13c.7,1.56,3,2,5.5,2.58,2.84.62,5.26,1.44,6.16,3.43a4.87,4.87,0,0,1,.39,2,5.16,5.16,0,0,1-.47,2.22c-.94,2.11-3.39,3.28-6.94,3.28S548.29,531.6,547.28,529.34Z" style="fill:#fff"/><path d="M564.87,508.28a1.54,1.54,0,0,1,3.08,0,1.54,1.54,0,0,1-3.08,0Zm.58,5.38h1.91v18.76h-1.91Z" style="fill:#fff"/><path d="M590.14,523a12.3,12.3,0,0,1-1,5.15,8,8,0,0,1-7.64,4.68,7.73,7.73,0,0,1-7.18-3.94v3.51h-1.91V504.88h1.91v12.25a7.73,7.73,0,0,1,7.18-3.94,7.89,7.89,0,0,1,7.64,4.68A12.39,12.39,0,0,1,590.14,523Zm-2,0a10.26,10.26,0,0,0-.82-4.33,6.21,6.21,0,0,0-6.12-3.7c-4.1,0-6.83,2.73-6.83,7.56v.94c0,4.87,2.73,7.56,6.83,7.56a6.24,6.24,0,0,0,6.12-3.66A10.46,10.46,0,0,0,588.11,523Z" style="fill:#fff"/><path d="M593.53,508.28a1.49,1.49,0,0,1,1.56-1.49,1.47,1.47,0,0,1,1.52,1.49,1.43,1.43,0,0,1-1.52,1.44A1.45,1.45,0,0,1,593.53,508.28Zm.59,5.38H596v18.76h-1.91Z" style="fill:#fff"/><path d="M601.1,504.88H603v27.54H601.1Z" style="fill:#fff"/><path d="M607.49,508.28a1.55,1.55,0,0,1,3.09,0,1.55,1.55,0,0,1-3.09,0Zm.59,5.38H610v18.76h-1.91Z" style="fill:#fff"/><path d="M616.43,527V515.38h-3.36v-1.72h3.36v-4.6h2v4.6h6.31v1.72h-6.31v11.5c0,2.73,1.2,4.06,3.58,4.06a10.26,10.26,0,0,0,2.62-.35v1.75a11.76,11.76,0,0,1-2.93.35C618.1,532.69,616.43,530.9,616.43,527Z" style="fill:#fff"/><path d="M644.16,513.66l-12,26.64h-2.06l3.58-8-7.64-18.6h2.14l6.63,16.42,7.22-16.42Z" style="fill:#fff"/><path d="M669.51,521.19v11.23H667.6v-3.36c-1.29,2.42-3.75,3.79-7.45,3.79-3.08,0-5.42-1-6.4-3.12a5.84,5.84,0,0,1-.47-2.42,5.92,5.92,0,0,1,.47-2.3c1.17-2.61,4.52-3.36,8.74-3.36h5.11V521a8.62,8.62,0,0,0-.59-3.43c-.78-1.79-2.49-2.61-5.3-2.61s-4.57.78-5.35,2.49a4.59,4.59,0,0,0-.39,2h-2a6.91,6.91,0,0,1,.55-2.77c1-2.34,3.59-3.47,7.14-3.47s6,1.21,7.06,3.59A11.45,11.45,0,0,1,669.51,521.19Zm-2.69,6.55a10.75,10.75,0,0,0,.78-4.25v-.2h-5c-3.35,0-6.08.51-7,2.46a3.36,3.36,0,0,0-.31,1.44,3.79,3.79,0,0,0,.35,1.64c.7,1.56,2.5,2.3,4.84,2.3C663.73,531.13,665.8,529.92,666.82,527.74Z" style="fill:#fff"/><path d="M673.84,529.34a7.81,7.81,0,0,1-.63-3.28h1.91a6,6,0,0,0,.47,2.46c.74,1.64,2.38,2.61,5.15,2.61s4.45-.74,5.07-2.22a3.4,3.4,0,0,0,.31-1.48,3.27,3.27,0,0,0-.23-1.29c-.74-1.6-3-2-5.58-2.57-2.77-.63-5.15-1.45-6-3.4a4.59,4.59,0,0,1-.35-1.87,5.24,5.24,0,0,1,.42-2.07c.82-1.87,2.93-3,6.13-3s5.42,1.21,6.32,3.24a6.51,6.51,0,0,1,.54,2.85h-1.91a5,5,0,0,0-.39-2.11c-.7-1.52-2.3-2.3-4.6-2.3s-3.71.74-4.25,2a3.22,3.22,0,0,0-.28,1.36,3.17,3.17,0,0,0,.2,1.13c.7,1.56,3,2,5.5,2.58,2.85.62,5.26,1.44,6.16,3.43a4.87,4.87,0,0,1,.39,2,5.16,5.16,0,0,1-.47,2.22c-.93,2.11-3.39,3.28-6.94,3.28S674.85,531.6,673.84,529.34Z" style="fill:#fff"/><path d="M691.43,529.34a7.81,7.81,0,0,1-.63-3.28h1.91a6,6,0,0,0,.47,2.46c.74,1.64,2.38,2.61,5.15,2.61s4.45-.74,5.07-2.22a3.4,3.4,0,0,0,.31-1.48,3.27,3.27,0,0,0-.23-1.29c-.74-1.6-3-2-5.58-2.57-2.77-.63-5.15-1.45-6-3.4a4.59,4.59,0,0,1-.36-1.87,5.25,5.25,0,0,1,.43-2.07c.82-1.87,2.93-3,6.13-3s5.42,1.21,6.32,3.24a6.51,6.51,0,0,1,.54,2.85H703a5,5,0,0,0-.39-2.11c-.7-1.52-2.3-2.3-4.6-2.3s-3.71.74-4.25,2a3.22,3.22,0,0,0-.28,1.36,3.17,3.17,0,0,0,.2,1.13c.7,1.56,3,2,5.5,2.58,2.85.62,5.26,1.44,6.16,3.43a4.87,4.87,0,0,1,.39,2,5.16,5.16,0,0,1-.47,2.22c-.93,2.11-3.39,3.28-6.94,3.28S692.44,531.6,691.43,529.34Z" style="fill:#fff"/><path d="M709,508.28a1.54,1.54,0,0,1,3.08,0,1.54,1.54,0,0,1-3.08,0Zm.58,5.38h1.91v18.76H709.6Z" style="fill:#fff"/><path d="M716,529.34a7.81,7.81,0,0,1-.63-3.28h1.92a6,6,0,0,0,.46,2.46c.74,1.64,2.38,2.61,5.15,2.61s4.45-.74,5.07-2.22a3.4,3.4,0,0,0,.31-1.48,3.1,3.1,0,0,0-.23-1.29c-.74-1.6-3-2-5.58-2.57s-5.15-1.45-6-3.4a4.59,4.59,0,0,1-.35-1.87,5.24,5.24,0,0,1,.42-2.07c.82-1.87,2.93-3,6.13-3s5.42,1.21,6.32,3.24a6.51,6.51,0,0,1,.54,2.85h-1.91a5,5,0,0,0-.39-2.11c-.7-1.52-2.3-2.3-4.6-2.3s-3.71.74-4.25,2a3.22,3.22,0,0,0-.28,1.36,3.17,3.17,0,0,0,.2,1.13c.7,1.56,3,2,5.5,2.58,2.85.62,5.26,1.44,6.16,3.43a4.87,4.87,0,0,1,.39,2,5,5,0,0,1-.47,2.22c-.93,2.11-3.39,3.28-6.94,3.28S717,531.6,716,529.34Z" style="fill:#fff"/><path d="M734.91,527V515.38h-3.35v-1.72h3.35v-4.6h2v4.6h6.32v1.72h-6.32v11.5c0,2.73,1.21,4.06,3.59,4.06a10.26,10.26,0,0,0,2.62-.35v1.75a11.76,11.76,0,0,1-2.93.35C736.59,532.69,734.91,530.9,734.91,527Z" style="fill:#fff"/><path d="M761.51,521.19v11.23H759.6v-3.36c-1.28,2.42-3.74,3.79-7.45,3.79-3.08,0-5.42-1-6.39-3.12a5.84,5.84,0,0,1-.47-2.42,5.74,5.74,0,0,1,.47-2.3c1.17-2.61,4.52-3.36,8.73-3.36h5.11V521a8.64,8.64,0,0,0-.58-3.43c-.78-1.79-2.5-2.61-5.31-2.61-2.65,0-4.56.78-5.34,2.49a4.59,4.59,0,0,0-.39,2h-2a6.91,6.91,0,0,1,.55-2.77c1-2.34,3.58-3.47,7.13-3.47,3.71,0,6,1.21,7.06,3.59A11.27,11.27,0,0,1,761.51,521.19Zm-2.69,6.55a10.58,10.58,0,0,0,.78-4.25v-.2h-5c-3.35,0-6.08.51-7,2.46a3.22,3.22,0,0,0-.31,1.44,3.65,3.65,0,0,0,.35,1.64c.7,1.56,2.49,2.3,4.83,2.3C755.74,531.13,757.81,529.92,758.82,527.74Z" style="fill:#fff"/><path d="M782.15,521.34v11.08H780.2v-10.8c0-4.57-1.8-6.6-5.58-6.6-4,0-6.28,2.34-6.28,6.6v10.8h-1.91V513.66h1.91v3.12c1.29-2.46,3.67-3.59,6.59-3.59C779.69,513.19,782.15,515.88,782.15,521.34Z" style="fill:#fff"/><path d="M787.69,527V515.38h-3.36v-1.72h3.36v-4.6h1.95v4.6H796v1.72h-6.31v11.5c0,2.73,1.2,4.06,3.58,4.06a10.26,10.26,0,0,0,2.62-.35v1.75a11.76,11.76,0,0,1-2.93.35C789.36,532.69,787.69,530.9,787.69,527Z" style="fill:#fff"/><ellipse cx="202.74" cy="392.35" rx="20.01" ry="34.23" style="fill:#fff"/><ellipse cx="155.75" cy="414.91" rx="20.01" ry="34.23" transform="translate(-265.75 277.99) rotate(-51.43)" style="fill:#fff;opacity:0.2"/><ellipse cx="144.09" cy="465.71" rx="34.23" ry="20.01" transform="translate(-100.02 43.74) rotate(-12.86)" style="fill:#fff;opacity:0.4"/><ellipse cx="176.54" cy="506.5" rx="34.23" ry="20.01" transform="translate(-356.4 445.79) rotate(-64.29)" style="fill:#fff;opacity:0.6000000000000001"/><ellipse cx="228.66" cy="506.56" rx="20.01" ry="34.23" transform="translate(-197.15 149.38) rotate(-25.71)" style="fill:#fff;opacity:0.7000000000000001"/><ellipse cx="261.21" cy="465.85" rx="20.01" ry="34.23" transform="translate(-251.09 616.85) rotate(-77.14)" style="fill:#fff;opacity:0.8"/><ellipse cx="249.67" cy="415.03" rx="34.23" ry="20.01" transform="translate(-204.29 246.21) rotate(-38.57)" style="fill:#fff;opacity:0.9"/><circle cx="202.67" cy="452.42" r="20.15" style="fill:#fff"/></g></g></g></svg>