<?xml version="1.0" encoding="utf-8"?>
<!-- Generator: Adobe Illustrator 24.0.1, SVG Export Plug-In . SVG Version: 6.00 Build 0)  -->
<svg version="1.1" id="e532202f-8294-4472-8a94-ef01c23bf434"
	 xmlns="http://www.w3.org/2000/svg" xmlns:xlink="http://www.w3.org/1999/xlink" x="0px" y="0px" viewBox="0 0 1111 589.5"
	 style="enable-background:new 0 0 1111 589.5;" xml:space="preserve">
<style type="text/css">
	.st0{fill:url(#SVGID_1_);}
	.st1{fill:url(#SVGID_2_);}
	.st2{fill:url(#SVGID_3_);}
	.st3{fill:url(#SVGID_4_);}
	.st4{fill:url(#SVGID_5_);}
	.st5{fill:url(#SVGID_6_);}
	.st6{fill:#F7D6C8;}
	.st7{fill:#EFB7B9;}
	.st8{opacity:0.1;enable-background:new    ;}
	.st9{fill:#6C63FF;}
	.st10{opacity:5.000000e-02;enable-background:new    ;}
	.st11{fill:#C3705A;}
	.st12{fill:#ECB4B6;}
	.st13{fill:#463A3E;}
	.st14{fill:#C17174;}
</style>
<linearGradient id="SVGID_1_" gradientUnits="userSpaceOnUse" x1="599.53" y1="-92.1" x2="599.53" y2="368.9211" gradientTransform="matrix(1 0 0 -1 -44.49 436.77)">
	<stop  offset="0" style="stop-color:#808080;stop-opacity:0.25"/>
	<stop  offset="0.54" style="stop-color:#808080;stop-opacity:0.12"/>
	<stop  offset="1" style="stop-color:#808080;stop-opacity:0.1"/>
</linearGradient>
<path class="st0" d="M966.3,355.5c-1.6-5.2-1.4-10.8,0.5-15.9c3-7.8,10.3-13.4,12.9-21.3c4.8-14.7-8.1-28.5-16-41.9
	c-7.2-12.4-10.5-26.7-9.4-41c1.2-15.4,7.5-30,8-45.5c0.4-14.4-4.2-28.3-8.8-41.9c-3.8-11.2-7.7-22.6-14.1-32.6
	c-12.1-18.9-33.7-30.7-55.8-32.7c-10.5-0.9-20.7,2.5-30.9,1.1c-14.3-1.8-27.7-5.5-42.3-6c-13.8-0.4-29.1,1.3-38.5,11.5
	c-7.2,7.8-9.5,18.9-16.1,27.2c-9.3,11.8-25.7,15.8-36,26.7c-9.1,9.8-12.3,23.6-8.5,36.4c1.4,4.6,3.8,9,5.3,13.6
	c6.4,19.3-2,39.9-7.1,59.5c-0.6,1.6-0.7,3.3-0.3,5c0.8,2.4,3.3,3.7,5.4,5.1c6.8,4.7,10.3,13.1,11,21.4s-1.2,16.5-3.1,24.5
	c-4.8,20.5-10.8,42.4-26.6,56.1c-2.9-6.8-6.3-13.4-10.1-19.8c-9.7-15.7-16.8-35-16.9-53.5c0-0.1,0-0.1,0-0.2c0-1,0-2,0.1-3
	c1.3-21.8,10.7-42.9,10.5-64.6c0-1.8,0-3.5-0.2-5.3c-1.2-18.6-10.2-35.8-20.4-51.4c-7.7-11.6-16.3-22.9-27.3-31.3
	c-17.1-13-38.8-18.6-60.1-21.6s-40.7-5.8-62.2-7.2c-23.1-1.5-48.5-2.4-66.8,11.8c-23.8,18.5-25.1,54.4-43.3,78.4
	c-10.8,14.3-28,25.4-33.7,41.7c-1.5-4-2.8-8.1-3.8-12.3c-0.1-0.3-0.1-0.5-0.2-0.8c6.9-19.7,8.5-40.8,4.6-61.2
	c0.5-3.3,0.7-6.7,0.7-10c0.1-3.6-0.3-7.3-1.2-10.8c-2.6-9.7-9.7-17.5-16.5-24.9c-2.5-2.8-5.2-5.4-8.1-7.9
	C299.4,60.4,224.5,53.3,174,95c-39.3,32.5-53.5,86.4-35.3,134c-0.9,6.8-3.5,13.5-8.4,18.3c-2.2,2.2-5.1,4.9-4.6,7.7
	c-0.1,0.8,0,1.6,0.3,2.4c0.5,0.9,1.2,1.6,2,2.2c7,5.3,15.7,7.9,24.5,7.3c7.4,21.8,21.9,40.4,41.2,52.9c0,0.7,0,1.3-0.1,1.9
	c0,1.1-0.1,2.2-0.1,3.3c0,0.3,0,0.5,0,0.8c0-0.1,0-0.2,0-0.3c0-0.1-34.8,45.4-67,47.1c-17.2,0.9-32.2,12.5-43.5,25.7
	c-13.6,15.9-22.1,34.2-22.8,39.2c-1.3,9.3-10.6,54.4-10.6,54.4H317c-3.2,16.2-7.4,36.9-7.4,36.9h432.8c-1-13.9-2.1-26.8-3.1-37.7
	h54.4l-0.1,0.3h251l15.9-23.9C1056.5,398,1015.4,359.8,966.3,355.5z M341.4,277.8c5.6,3,11.7,5.2,18,6.5c2.7,0.6,5.8,0.9,8.1-0.6
	c1.5-1.2,2.7-2.8,3.3-4.6l0.1,0.3c6.8,17,13,34.5,14.2,52.8c0.1,1.7,0.2,3.4,0.2,5.2c0,10.4-2.1,20.7-6.3,30.3
	c-22.6-11.9-44.4-25.3-65.3-40l-1.4-0.6c0,0.1,0.5,1.4,1.1,3.5c0.1,0.5,0.3,1.1,0.4,1.7c-1.4-4.6-2.7-9.3-3.9-14.1
	c-0.1-0.6-0.3-1.1-0.4-1.7C323.2,306.2,334.1,293,341.4,277.8z"/>
<linearGradient id="SVGID_2_" gradientUnits="userSpaceOnUse" x1="238" y1="111.29" x2="238" y2="111.94" gradientTransform="matrix(1 0 0 -1 -44.49 436.77)">
	<stop  offset="0" style="stop-color:#808080;stop-opacity:0.25"/>
	<stop  offset="0.54" style="stop-color:#808080;stop-opacity:0.12"/>
	<stop  offset="1" style="stop-color:#808080;stop-opacity:0.1"/>
</linearGradient>
<path class="st1" d="M193.5,325.5v-0.6V325.5z"/>
<linearGradient id="SVGID_3_" gradientUnits="userSpaceOnUse" x1="237.93" y1="111.94" x2="237.93" y2="112.62" gradientTransform="matrix(1 0 0 -1 -44.49 436.77)">
	<stop  offset="0" style="stop-color:#808080;stop-opacity:0.25"/>
	<stop  offset="0.54" style="stop-color:#808080;stop-opacity:0.12"/>
	<stop  offset="1" style="stop-color:#808080;stop-opacity:0.1"/>
</linearGradient>
<path class="st2" d="M193.4,324.8v-0.7V324.8z"/>
<linearGradient id="SVGID_4_" gradientUnits="userSpaceOnUse" x1="237.88" y1="112.93" x2="237.88" y2="112.93" gradientTransform="matrix(1 0 0 -1 -44.49 436.77)">
	<stop  offset="0" style="stop-color:#808080;stop-opacity:0.25"/>
	<stop  offset="0.54" style="stop-color:#808080;stop-opacity:0.12"/>
	<stop  offset="1" style="stop-color:#808080;stop-opacity:0.1"/>
</linearGradient>
<path class="st3" d="M193.4,323.8"/>
<linearGradient id="SVGID_5_" gradientUnits="userSpaceOnUse" x1="237.89" y1="112.62" x2="237.89" y2="112.62" gradientTransform="matrix(1 0 0 -1 -44.49 436.77)">
	<stop  offset="0" style="stop-color:#808080;stop-opacity:0.25"/>
	<stop  offset="0.54" style="stop-color:#808080;stop-opacity:0.12"/>
	<stop  offset="1" style="stop-color:#808080;stop-opacity:0.1"/>
</linearGradient>
<path class="st4" d="M193.4,324.2L193.4,324.2z"/>
<linearGradient id="SVGID_6_" gradientUnits="userSpaceOnUse" x1="237.88" y1="112.78" x2="237.88" y2="112.78" gradientTransform="matrix(1 0 0 -1 -44.49 436.77)">
	<stop  offset="0" style="stop-color:#808080;stop-opacity:0.25"/>
	<stop  offset="0.54" style="stop-color:#808080;stop-opacity:0.12"/>
	<stop  offset="1" style="stop-color:#808080;stop-opacity:0.1"/>
</linearGradient>
<path class="st5" d="M193.4,324L193.4,324z"/>
<path class="st6" d="M806.4,81.6c-13.6-0.4-28.6,1.3-37.9,11.3c-7.1,7.6-9.3,18.6-15.8,26.8c-9.2,11.6-25.3,15.5-35.4,26.2
	c-8.9,9.6-12.1,23.3-8.4,35.9c1.4,4.6,3.7,8.8,5.2,13.3c6.3,19-1.9,39.2-7,58.6c-0.6,1.6-0.7,3.3-0.3,4.9c0.8,2.4,3.3,3.6,5.3,5
	c6.7,4.6,10.2,12.9,10.8,21s-1.2,16.2-3.1,24.1c-4.9,21-11.1,43.6-28.2,56.8c-7.2,5.6-16.8,10.2-18.7,19.2
	c-2.2,10.5,7.9,19.5,17.5,24.3c28.3,14,61.2,14.2,92.2,20.4c27.3,5.5,54.5,15.9,82.1,12.4c12.3-1.6,24.1-5.9,35.7-10.2l72.5-26.7
	c2-0.6,4-1.6,5.7-2.9c4.4-3.6,4.5-10.6,2.1-15.7s-6.7-9.1-10.5-13.4c-8.3-9.3-14.6-22.4-10.1-33.9c3-7.6,10.2-13.2,12.7-21
	c4.7-14.5-8-28.1-15.7-41.2c-7.1-12.2-10.4-26.2-9.3-40.3c1.2-15.1,7.4-29.6,7.8-44.7c0.4-14.1-4.2-27.9-8.7-41.3
	c-3.7-11.1-7.5-22.3-13.8-32.1c-11.9-18.6-33.1-30.2-54.9-32.2c-10.3-0.9-20.3,2.4-30.5,1.1C834,85.6,820.7,82,806.4,81.6z"/>
<path class="st7" d="M826.7,478.4c0,0-82.2-51.6-50.3-111c7.4-13.7,10.7-26.7,11.3-38.6c0.2-3.1,0.2-6.3,0-9.4c0-0.2,0-0.3,0-0.5
	c-0.1-1.6-0.3-3.2-0.4-4.8c-3.8-31.4-24-51.8-24-51.8s136.4-39.8,113.6-3.9c-10.6,16.7-7.4,33-0.3,49.9c0.8,1.8,1.5,3.6,2.4,5.4
	c8.2,17.8,19.6,36.3,22.8,56.3C908.3,411.1,826.7,478.4,826.7,478.4z"/>
<path class="st8" d="M876.9,258.4c-10.6,16.7-7.4,33-0.3,49.9c-26.8,17.2-60.5,19.5-89.3,5.9c-3.8-31.4-23.9-51.9-23.9-51.9
	S899.8,222.5,876.9,258.4z"/>
<circle class="st7" cx="826.7" cy="229" r="92"/>
<path class="st8" d="M787.8,319.4c0-0.2,0-0.3,0-0.5l0.1-0.2C787.8,319,787.8,319.2,787.8,319.4z"/>
<path class="st8" d="M826.7,478.4c0,0-82.2-51.6-50.3-111c7.4-13.7,10.7-26.7,11.3-38.6c1.9,14.7,12,32.9,30.4,58.2
	c8,11,11.4,26.4,12.5,41.8l1.8,1.3l9-5.4c1-17,4.4-34.2,12.6-46.4c21.4-32,26.5-48,24.9-64.6c8.2,17.8,19.6,36.3,22.8,56.3
	C908.3,411.1,826.7,478.4,826.7,478.4z"/>
<path class="st9" d="M958.5,354.5c-49-3.6-80-41.6-80-41.6c2.6,17.8-1.6,33.8-24.5,68c-8.1,12.1-11.5,29.3-12.5,46.3l-9,5.4
	l-1.8-1.3c-1.1-15.4-4.5-30.8-12.5-41.8c-22.8-31.3-33-51.9-30.3-68.2c0,0-25.1,40.8-74.1,44.1s-90.1,37.9-94,101.2l15.7,21.5h154.5
	l-0.1,0.3h247l15.7-23.5C1048.6,395.8,1007.5,358.1,958.5,354.5z"/>
<path class="st10" d="M958.5,354.5c-49-3.6-80-41.6-80-41.6c2.6,17.8-1.6,33.8-24.5,68c-8.1,12.1-11.5,29.3-12.5,46.3l-9,5.4
	l-1.8-1.3c-1.1-15.4-4.5-30.8-12.5-41.8c-22.8-31.3-33-51.9-30.3-68.2c0,0-25.1,40.8-74.1,44.1s-90.1,37.9-94,101.2l15.7,21.5h154.5
	l-0.1,0.3h247l15.7-23.5C1048.6,395.8,1007.5,358.1,958.5,354.5z"/>
<path class="st8" d="M888.9,184.6c-4,9.9-11.1,18.3-18.9,25.6c-10.7,10.1-24.2,19.1-38.9,18.4c8-7.5,13.9-17,16.8-27.6
	c-9.3,5.4-16.3,14-25.2,20.1s-21.4,9.3-30.1,2.9c15.8-7.9,28.9-20.3,37.7-35.6c-21.1,5.5-31.9,29.2-50.9,39.9
	c-8.9,5-19.3,6.9-29.5,6.7c-7.3-0.1-15.3-1.8-19.4-7.9c-2.4-3.5-2.9-7.9-3-12.1c-0.4-19.2,7.4-38,19.4-52.9s28-26.3,45.1-35.1
	c6.1-3.1,12.4-6,19.2-7c8.4-1.2,17,0.6,25.3,2.5c10.7,2.5,21.5,5.2,31.4,10C888.9,142.8,898.2,161.7,888.9,184.6z"/>
<path class="st6" d="M888.9,183.2c-4,9.9-11.1,18.3-18.9,25.6c-10.7,10.1-24.2,19.1-38.9,18.4c8-7.5,13.9-17,16.8-27.6
	c-9.3,5.4-16.3,14-25.2,20.1s-21.4,9.3-30.1,2.9c15.8-7.9,28.9-20.3,37.7-35.6c-21.1,5.5-31.9,29.2-50.9,39.9
	c-8.9,5-19.3,6.9-29.5,6.7c-7.3-0.1-15.3-1.8-19.4-7.9c-2.4-3.5-2.9-7.9-3-12.1c-0.4-19.2,7.4-38,19.4-52.9s28-26.3,45.1-35.1
	c6.1-3.1,12.4-6,19.2-7c8.4-1.2,17,0.6,25.3,2.5c10.7,2.5,21.5,5.2,31.4,10C888.9,141.4,898.2,160.4,888.9,183.2z"/>
<circle class="st11" cx="254.3" cy="188.3" r="116.8"/>
<path class="st12" d="M359.1,413.2c0,0-107,27.4-109.7,30s-90.1,7.2-64.6-46.3c9.4-19.7,13.2-46.3,14.4-72.3
	c0.1-1.1,0.1-2.2,0.1-3.3c1.6-43.4-4.1-83.7-4.1-83.7s124-49,114.9,25.5c-2.3,18.5-0.4,37.1,3.8,54.6c1.4,5.8,3,11.5,4.8,17.1
	C333.2,379.4,359.1,413.2,359.1,413.2z"/>
<path class="st8" d="M313.9,317.7c-33.7,25-79.3,26.4-114.5,3.6c1.6-43.4-4.1-83.7-4.1-83.7s124-49,114.9,25.5
	C307.9,281.6,309.7,300.2,313.9,317.7z"/>
<circle class="st12" cx="254" cy="235" r="100.5"/>
<path class="st8" d="M359.1,413.2c0,0-107,27.4-109.7,30s-90.1,7.2-64.6-46.3c9.4-19.7,13.2-46.3,14.4-72.3
	c1,13.5,8.7,46.3,9.7,57.2c0.1,0.6,0.2,1.3,0.4,1.9c1.4,4.8,6.6,10.4,12.9,15.7l0.4,0.3c15.9,13.3,38.6,14.9,56.1,3.8
	c8.9-5.6,17.4-11.8,25.6-18.4c11.6-9.6,15.3-22.6,15.7-34c0.2-5.5-0.2-11-1.3-16.4C333.2,379.4,359.1,413.2,359.1,413.2z"/>
<path class="st9" d="M494.2,488.9H57.5c0,0,9.1-44.4,10.4-53.5c0.7-5,9-23,22.4-38.6c11.2-13,25.9-24.5,42.8-25.3
	c31.6-1.7,65.9-46.3,65.9-46.3l0,0c0.8,13,8.8,47,9.8,58.1c0.1,0.6,0.2,1.3,0.4,1.9c1.4,4.8,6.6,10.4,12.9,15.7l0.4,0.3
	c15.9,13.3,38.6,14.9,56.1,3.8c8.9-5.6,17.4-11.8,25.6-18.4c11.6-9.6,15.3-22.6,15.7-34c0.2-7.6-0.7-15.2-2.7-22.5
	c-0.6-2.1-1-3.3-1.1-3.4l1.4,0.6c0,0,59.1,43,113.3,60.6c6.3,2.1,12.3,5.1,17.8,9c4.4,3.2,8.4,6.8,12.1,10.8
	c7.3,8.3,13.4,17.6,18,27.7C491.2,461.8,494.2,488.9,494.2,488.9z"/>
<path class="st10" d="M494.2,488.9H57.5c0,0,9.1-44.4,10.4-53.5c0.7-5,9-23,22.4-38.6c11.2-13,25.9-24.5,42.8-25.3
	c31.6-1.7,65.9-46.3,65.9-46.3l0,0c0.8,13,8.8,47,9.8,58.1c0.1,0.6,0.2,1.3,0.4,1.9c1.4,4.8,6.6,10.4,12.9,15.7l0.4,0.3
	c15.9,13.3,38.6,14.9,56.1,3.8c8.9-5.6,17.4-11.8,25.6-18.4c11.6-9.6,15.3-22.6,15.7-34c0.2-7.6-0.7-15.2-2.7-22.5
	c-0.6-2.1-1-3.3-1.1-3.4l1.4,0.6c0,0,59.1,43,113.3,60.6c6.3,2.1,12.3,5.1,17.8,9c4.4,3.2,8.4,6.8,12.1,10.8
	c7.3,8.3,13.4,17.6,18,27.7C491.2,461.8,494.2,488.9,494.2,488.9z"/>
<path class="st8" d="M302.3,201.2c2.6,10,6,21.1,14.9,26.3c1.2,0.6,2.3,1.3,3.3,2.2c2.2,2.4,1.5,6.1,1.2,9.4
	c-1.1,11.1,3.6,22.4,11.5,30.4s18.5,12.8,29.4,15.1c2.7,0.5,5.7,0.9,8-0.6c1.6-1.2,2.7-2.8,3.3-4.7c3-8.1,1.8-17.2-0.8-25.5
	c-2.6-8.3-6.3-16.2-8.2-24.6c-4.6-20,1.5-40.8,4.2-61.2c0.9-6.8,1.4-13.8-0.3-20.4c-2.5-9.6-9.5-17.3-16.3-24.5
	c-3.6-3.9-7.3-7.9-12-10.5c-13.7-7.5-31.4-0.8-46.1-6.3c-5.9-2.2-10.9-6.2-16.5-9c-11.9-6-25.9-6.3-39-3.6s-25.2,8.3-37.3,13.9
	l-9.2,4.2c-13,6-26.9,12.8-33.9,25.3c-7.4,13.4-5.4,30.5-12.8,43.8c-2.3,4-5.4,7.8-6,12.4c-0.4,3.3,0.6,6.6,1.6,9.9
	c2.3,7.8,4.3,15.8,4.2,24s-2.8,16.5-8.6,22.3c-2.4,2.4-5.7,5.5-4.2,8.6c0.5,0.9,1.2,1.6,2,2.2c9.6,7.3,22.4,9.2,33.7,5
	c4.4-1.7,8.5-4.3,11-8.3c1.6-2.9,2.8-6,3.5-9.3c3.2-11.8,6.3-23.7,6.1-35.9c-0.1-7-1.4-14.1-0.4-21s5.1-14.1,11.8-16
	c5-1.4,10.4,0.3,15.6,0.3c7.5-0.1,16.7-8.4,23.7-6c6,2.1,10.8,13.6,15.7,18C268.1,198.3,285.6,204.1,302.3,201.2z"/>
<path class="st11" d="M302.3,199.9c2.6,10,6,21.1,14.9,26.3c1.2,0.6,2.3,1.3,3.2,2.2c2.2,2.4,1.5,6.1,1.2,9.4
	c-1.1,11.1,3.6,22.4,11.5,30.4s18.5,12.8,29.4,15.1c2.7,0.5,5.7,0.9,8-0.6c1.6-1.2,2.7-2.8,3.3-4.7c3-8.1,1.8-17.2-0.8-25.5
	c-2.6-8.3-6.3-16.2-8.2-24.6c-4.6-20,1.5-40.8,4.2-61.2c0.9-6.8,1.4-13.8-0.3-20.4c-2.5-9.6-9.5-17.3-16.3-24.5
	c-3.6-3.9-7.3-7.9-12-10.5c-13.7-7.5-31.4-0.8-46.1-6.3c-5.9-2.2-10.9-6.2-16.5-9c-11.9-6-25.9-6.3-39-3.6s-25.2,8.3-37.3,13.9
	l-9.1,4.2c-13,6-26.9,12.8-33.9,25.3c-7.4,13.4-5.4,30.5-12.8,43.8c-2.3,4-5.4,7.8-6,12.4c-0.4,3.3,0.6,6.6,1.6,9.9
	c2.3,7.8,4.3,15.8,4.2,24s-2.8,16.5-8.6,22.3c-2.4,2.4-5.7,5.5-4.2,8.6c0.5,0.9,1.2,1.6,2,2.2c9.6,7.3,22.4,9.2,33.7,5
	c4.4-1.7,8.5-4.3,11-8.3c1.6-2.9,2.8-6,3.5-9.3c3.2-11.8,6.3-23.7,6.1-35.9c-0.1-7-1.4-14.1-0.4-21s5.1-14.1,11.8-16
	c5-1.4,10.4,0.3,15.6,0.3c7.5-0.1,16.7-8.4,23.7-6c6,2.1,10.8,13.6,15.7,18C268.1,197,285.6,202.8,302.3,199.9z"/>
<rect x="408" y="242.6" class="st13" width="229.1" height="196.5"/>
<rect x="408" y="242.6" class="st10" width="229.1" height="196.5"/>
<path class="st14" d="M604.3,525.2h-196c2.5-14.3,9.9-29.9,24.4-46.8c11.4-13.3,20.7-28.2,27.6-44.2c1.9-4.3,3.5-8.6,5-12.9
	c4.3-12.8,7.3-26,8.8-39.4c0-0.4,0.1-0.8,0.1-1.1c1-9.3,1.4-18.6,1.2-27.9c0-0.7,0-1.3,0-2c-0.7-22.9-4.5-45.6-11.3-67.4l-0.3-0.8
	c-2.1-6.7-3.7-10.5-3.7-10.5s3.9-2.1,10.3-5.2l0.5-0.3c23.6-11.3,79.5-35,104.1-18.1l0.4,0.3c8.6,6.1,13.3,17.4,11.1,36.2
	c0,0.1,0,0.2,0,0.2c0,0.3-0.1,0.7-0.1,1c-1.3,12.9-1.9,25.9-1.9,38.9c0,0.6,0,1.3,0,2c0,3,0,6.1,0.1,9.3c0,0.4,0,0.8,0,1.3
	c0.2,10.1,0.7,20.5,1.3,31.1c0.9,14.7,2.1,29.6,3.5,44.3c0.6,6.3,1.3,12.5,2,18.6c0.1,0.7,0.2,1.5,0.2,2.2
	c0.8,7.5,1.7,14.8,2.6,21.9l0.1,0.5C597.9,484.4,601.7,509.1,604.3,525.2z"/>
<path class="st8" d="M586.6,285.1c0,0.1,0,0.1,0,0.2c-1.4,13.3-2.1,26.6-2,40c0,0.7,0,1.3,0,2c-27,31.3-71.1,41.7-109.3,25.7
	c0-0.7,0-1.3,0-2c-0.7-23.2-4.6-46.1-11.5-68.2c-2.1-6.7-3.7-10.5-3.7-10.5s3.9-2.1,10.3-5.2c23.4-11.3,80.4-35.7,105-18.2
	C584.1,255,588.8,266.3,586.6,285.1z"/>
<circle class="st14" cx="512.3" cy="263.1" r="95.3"/>
<path class="st8" d="M517.4,524.6H314.1c0,0,9.1-44.4,10.4-53.5c0.7-5,9-23,22.4-38.6c17.2-13.8,38.6-21.3,60.7-21.5
	c38.9-0.6,50.2,12.8,53.3,22.7c1.1,3.3,1.3,6.8,0.8,10.3l7.4,10.7L517.4,524.6z"/>
<path class="st9" d="M516.8,525.2H313.4c0,0,9.1-44.4,10.4-53.5c0.7-5,9-23,22.4-38.6c17.2-13.8,38.6-21.3,60.7-21.5
	c38.9-0.6,50.2,12.8,53.3,22.7c1.1,3.3,1.3,6.8,0.8,10.3l7.4,10.7L516.8,525.2z"/>
<path class="st8" d="M738.7,524.6H525.7c10.2-21.6,36.8-79.3,38.3-92.6c0.6-5.2,6.1-10,13.3-14.1c2.3-1.3,4.7-2.5,7.1-3.6l0.4-0.2
	c1.3-0.6,2.7-1.1,4-1.6c18.4-6.7,38.7-6.6,57,0.5c17.5,6.7,40,15.6,57.5,24l0.1,0.1c4.5,2.2,8.7,4.3,12.4,6.3
	c7.4,4,12.8,7.8,14.8,10.7c1,1.4,2,7.5,3.2,17C735.4,483.9,737.1,502.9,738.7,524.6z"/>
<path class="st9" d="M739.4,525.2H526.3c10.2-21.6,36.8-79.3,38.3-92.6c0.6-5.2,6.1-10,13.3-14.1c2.3-1.3,4.7-2.5,7.1-3.6l0.4-0.2
	c1.3-0.6,2.7-1.1,4-1.6c18.4-6.7,38.7-6.6,57,0.5c17.5,6.7,40,15.6,57.5,24l0.1,0.1c4.5,2.2,8.7,4.3,12.4,6.3
	c7.4,4,12.8,7.8,14.8,10.7c1,1.4,2,7.5,3.2,17C736.1,484.5,737.8,503.6,739.4,525.2z"/>
<path class="st8" d="M705.1,420.7c0,3.1-0.1,6.1-0.3,9.2c-0.1,1.5-0.2,3-0.3,4.5c-0.1,1.1-0.2,2.2-0.3,3.2l-0.1,1.2
	c-1.6,14.5-4.6,29-5,43.6c0,0.7,0,1.4,0,2.1c-0.1,13.7,2.2,27.2,5.2,40.7H581.5c-0.2-2.5-0.3-5-0.3-7.5c0-2.2,0.1-4.5,0.4-6.7
	c1.9-18.4,11.3-35.6,12.7-53.9l0.1-0.8c0.1-1.4,0.1-2.8,0.1-4.1c0-0.1,0-0.2,0-0.4c-0.2-6-1.1-12-2.8-17.9c-0.1-0.3-0.2-0.6-0.2-0.9
	c-1.7-5.8-3.7-11.4-6-17l-0.4-1.1c-3.3-8.3-6.8-16.6-9.2-24.8c-1.9-6.2-2.9-12.6-2.9-19c0-1.2,0.1-2.3,0.2-3.5
	c0.1-0.9,0.2-1.9,0.3-2.8c0.2-1.5,0.5-3,0.9-4.4c2-7.9,6.3-15.3,10.4-22.6l0,0c4.5-8.1,8.9-16.2,9.7-24.8c0.1-1.1,0.1-2.2,0.1-3.3
	l0,0c0-1.4-0.2-2.8-0.4-4.2c-1-6.1-4.2-11.5-6.8-17.2c-0.3-0.6-0.5-1.1-0.8-1.7c0-0.1-0.1-0.2-0.1-0.3c-5-11.5-7.9-23.9-11-36.1
	c-0.1-0.5-0.3-1.1-0.4-1.6c-0.8-3-1.5-6-2.3-9c-4.5-16.4-10.9-32.9-23-44.7s-31.5-17.8-46.7-10.3c-13.2,6.5-20.3,21.2-23.5,35.5
	s-3.5,29.3-7.6,43.4c-0.3,1-0.6,2-1,3.1c-0.2,0.5-0.4,1-0.5,1.6c-1.8,5.1-4,10.1-6.4,15.2l-0.3,0.5c-7.6,16.2-16.4,32.1-16.7,48.3
	v0.2c0,0.4,0,0.9,0,1.3c0.1,3.9,0.6,7.7,1.7,11.4c2,6.7,5.6,12.5,9.8,18c0.8,1.1,1.7,2.2,2.6,3.2c4.2,5.2,8.8,10.2,12.8,15.5
	l0.1,0.2c3,3.9,5.6,8.2,7.6,12.7c4.9,11.5,4.9,24.4,0.2,35.9c-1.1,2.6-2.4,5.2-3.9,7.7c-2.6,4.4-5.4,8.8-7.6,13.4
	c-0.8,1.5-1.4,3.1-2,4.7c-5,12.9-6.1,27.1-10.2,40.4c-3.2,10.2-8.1,19.8-14.5,28.3h-130c1.5-7.4,9-44,10.2-52.2
	c0.7-5,9-23,22.4-38.6c-1.1,0.9-2.2,1.8-3.3,2.7c-8.5,7.2-15.8,15.7-21.8,25.1c0.3-0.9,0.6-1.8,0.9-2.7c1.8-5.5,3.8-10.9,5.8-16.2
	c5.8-15.4,12.3-31.1,23.9-42.7c6.5-6.6,14.5-11.7,20.8-18.5c11-12.1,15.5-28.8,15.4-45.3c0-1.7-0.1-3.4-0.2-5.1
	c-1.2-18-7.3-35.2-14-52c-3.6-9-7.4-18.5-7.2-28c0-1.3,0.1-2.7,0.3-4c2.8-19.8,22.8-31.6,34.8-47.6c17.9-23.7,19.2-59,42.6-77.2
	c18-14,43-13.1,65.7-11.6c21.1,1.4,40.2,4.2,61.2,7.1s42.3,8.5,59.1,21.4c10.9,8.3,19.3,19.4,26.9,30.8
	c10.1,15.3,18.9,32.3,20.1,50.6c0.1,1.3,0.1,2.6,0.1,3.9c0.2,21.4-9.1,42.1-10.3,63.6c0,1-0.1,2-0.1,3c0,0.1,0,0.1,0,0.2
	c-0.2,18.6,6.9,38.2,16.7,54C697.5,368.4,704.9,394.2,705.1,420.7z"/>
<path class="st13" d="M705.1,420.7c0,2.6-0.1,5.3-0.3,7.9c-0.1,1.5-0.2,3-0.3,4.5s-0.3,3-0.5,4.5c-1.6,14.5-4.6,29-5,43.6
	c0,1.1,0,2.3,0,3.4c0.1,13.7,2.4,27.2,5.5,40.7H581.6c-0.2-2.5-0.4-5-0.4-7.5c0-2.7,0.1-5.3,0.4-8c1.9-18.4,11.3-35.6,12.7-53.9
	c0.1-1.3,0.2-2.7,0.2-4c0-0.3,0-0.6,0-0.9c-0.1-6.5-1.1-12.9-3-19.1c-1.7-5.8-3.7-11.4-6-17c-3.5-8.7-7.2-17.3-9.7-26
	c-1.7-5.8-2.7-11.7-2.9-17.7c0-1.6,0-3.2,0.2-4.8c0.1-0.9,0.2-1.9,0.3-2.8c0.2-1.5,0.5-3,0.9-4.4c2-7.9,6.3-15.3,10.4-22.6
	c4.6-8.2,8.9-16.2,9.7-24.8c0.1-0.6,0.1-1.3,0.1-2l0,0c0-1.8-0.1-3.7-0.4-5.5c-1-6.1-4.2-11.5-6.8-17.2c-0.3-0.6-0.5-1.1-0.8-1.7
	c-5.1-11.6-8-24-11.1-36.4c-0.9-3.5-1.8-7.1-2.7-10.6c-4.5-16.4-10.9-32.9-23-44.7s-31.5-17.7-46.7-10.1
	c-13.2,6.5-20.3,21.2-23.5,35.5s-3.5,29.3-7.6,43.3c-0.5,1.5-1,3.1-1.5,4.6c-1.9,5.3-4.2,10.5-6.6,15.7
	c-7.8,16.6-16.9,32.9-16.7,49.6v0.2c0.1,3.9,0.6,7.7,1.7,11.4c2,6.7,5.6,12.5,9.8,18c0.8,1.1,1.7,2.2,2.6,3.2
	c4.3,5.2,8.9,10.3,12.9,15.7c3,3.9,5.6,8.2,7.6,12.7c4.9,11.5,4.9,24.4,0.2,35.9c-1.1,2.6-2.4,5.2-3.9,7.7
	c-2.6,4.4-5.4,8.8-7.6,13.4c-0.8,1.5-1.4,3.1-2,4.7c-5,12.9-6.1,27.1-10.2,40.4c-3.3,10.7-8.6,20.8-15.5,29.6H313.4
	c0,0,9.1-44.4,10.4-53.5c0.6-4.6,7.7-20,19.2-34.6c1-1.3,2.1-2.7,3.3-4c-9.4,7.4-17.6,16.3-24.1,26.3l-0.9,1.4
	c2.1-6.4,4.4-12.7,6.7-18.9c5.8-15.4,12.3-31.1,23.9-42.7c6.5-6.6,14.5-11.7,20.8-18.5c10.7-11.8,15.3-28,15.4-44
	c0-2.1,0-4.3-0.2-6.4c-1.2-18-7.3-35.2-14-52c-3.4-8.6-7-17.6-7.2-26.7c0-1.8,0.1-3.5,0.3-5.3c2.8-19.7,22.8-31.5,34.8-47.5
	c17.9-23.7,19.2-59,42.6-77.2c18-14,43-13.1,65.7-11.6c21.1,1.4,40.2,4.2,61.2,7.1s42.3,8.5,59.1,21.3c10.9,8.4,19.3,19.4,26.9,30.9
	c10.1,15.3,18.9,32.3,20.1,50.6c0.1,1.7,0.2,3.5,0.1,5.2c-0.2,20.9-9.1,41.3-10.3,62.3c-0.1,1.4-0.1,2.8-0.1,4.3c0,0.1,0,0.1,0,0.2
	c0.1,18.2,7.2,37.3,16.7,52.7C697.8,367.4,705.2,393.8,705.1,420.7z"/>
</svg>
