<svg xmlns="http://www.w3.org/2000/svg" viewBox="0 0 42.5 37.01">
  <title>Fichier 2</title>
  <g id="Calque_2" data-name="Calque 2">
    <g id="Calque_1-2" data-name="Calque 1">
      <path d="M38.87,14.94,6.59,1.55a3.8,3.8,0,0,0-4,.65A3.83,3.83,0,0,0,1.37,6.07L4.54,18.51,1.37,30.94a3.87,3.87,0,0,0,5.22,4.53l32.28-13.4a3.86,3.86,0,0,0,0-7.13Zm-.9,5L5.7,33.3a1.49,1.49,0,0,1-1.58-.25,1.53,1.53,0,0,1-.48-1.53l3-11.84H18.31a1.17,1.17,0,1,0,0-2.34H6.66l-3-11.85A1.53,1.53,0,0,1,5.7,3.71L38,17.1a1.51,1.51,0,0,1,.94,1.41A1.49,1.49,0,0,1,38,19.91Z" style="fill: #333;stroke: #333;stroke-miterlimit: 10;stroke-width: 2.5px"/>
    </g>
  </g>
</svg>
